/* XPM */
static char *_w11743414018[] = {
/* columns rows colors chars-per-pixel */
"64 64 109 2 ",
"   c #9B474A",
".  c #9D5356",
"X  c #A6494C",
"o  c #A94C4E",
"O  c #A34E51",
"+  c #AB4E51",
"@  c #A55356",
"#  c #AB5255",
"$  c #A65659",
"%  c #AD5659",
"&  c #A45C5F",
"*  c #AC5A5D",
"=  c #B05356",
"-  c #B05B5E",
";  c #AC5E61",
":  c #B25E61",
">  c #9F6165",
",  c #AD6265",
"<  c #AC6468",
"1  c #AC696D",
"2  c #B26165",
"3  c #B1666A",
"4  c #B26A6D",
"5  c #AF6E73",
"6  c #B36D71",
"7  c #A17075",
"8  c #AE7276",
"9  c #AD7A7E",
"0  c #B27175",
"q  c #B5757A",
"w  c #B07B7F",
"e  c #B57E83",
"r  c #7D838A",
"t  c #878E95",
"y  c #899097",
"u  c #8E949B",
"i  c #91979E",
"p  c #92989F",
"a  c #AF8085",
"s  c #B58084",
"d  c #BB8185",
"f  c #B4858A",
"g  c #B98488",
"h  c #B3888D",
"j  c #B88A8F",
"k  c #A28B91",
"l  c #B58E95",
"z  c #BA8E93",
"x  c #A5959A",
"c  c #AD979D",
"v  c #B29196",
"b  c #B99095",
"n  c #B5979D",
"m  c #BD979D",
"M  c #B1999F",
"N  c #BA989D",
"B  c #959BA2",
"V  c #999EA5",
"C  c #A09FA6",
"Z  c #A99CA2",
"A  c #9BA0A7",
"S  c #9DA3AA",
"D  c #A1A6AE",
"F  c #ADA4AB",
"G  c #A2A8AF",
"H  c #B5A5AB",
"J  c #B8A3A9",
"K  c #BCA9AF",
"L  c #A5ABB2",
"P  c #A9AEB5",
"I  c #ADAFB8",
"U  c #B3ACB3",
"Y  c #BAABB1",
"T  c #AAB0B7",
"R  c #ADB3BA",
"E  c #B8B0B7",
"W  c #B2B6BD",
"Q  c #BCB7BE",
"!  c #B2B8BF",
"~  c #C09FA5",
"^  c #C0A0A7",
"/  c #C2A5AB",
"(  c #C0AFB6",
")  c #C5B3BB",
"_  c #C9B6BD",
"`  c #C3B8BF",
"'  c #B5BBC2",
"]  c #BABEC5",
"[  c #BDBFC8",
"{  c #C6BFC7",
"}  c #C8BDC3",
"|  c #BBC0C7",
" . c #BDC3CA",
".. c #C2C6CD",
"X. c #C9C2CA",
"o. c #C3C8CF",
"O. c #C5C7D0",
"+. c #C5CBD2",
"@. c #CACDD5",
"#. c #CECFD8",
"$. c #D0CAD1",
"%. c #CAD0D7",
"&. c #CDD2DA",
"*. c #D2D5DD",
"=. c #D3D8DF",
"-. c #D5DAE1",
";. c #D9DDE5",
":. c #DDE3EA",
">. c #E3E6EE",
/* pixels */
"+.o.R +.| '  . . . .! !  .%.=.R L S  .' R R S L S L +.' ! %.%.=. .%.'  .+.%.%.+. .o.%. .%. .%.=.=.%.%.=.@.*.-.*.@.O.#.#.*.@.&.*.",
"| | +. .L | L  .|  .| L | R R r L R  .L L :.+.B r L :.=.=.%.+. .%.+.+.=.%.=.%.+.' | +.o.%.%.%.-.;.&.%.=.*.@.-.#.O.*.;.:.*.[ =.@.",
"' | =.%.L T G L |  . .S S B r T R  .T L +. .L T r r S %. .=.+.+. .+.=.=.+. .+.%. .' ' +.%.+. .%.%.&.&.&.@.#.#.@.O.[ O.#.%.o.=.%.",
"' ' +.%. .| R ' | |  .| T T S L S S S L ' R ! L T R r B ' +.+.=.+.%. . .'  . .+.| +.+.+.+. . . .%.%.&.%.#.-.*.#.@.[ [ [ o.' [ [ ",
"P G ' | | | ' | '  .' T L R T L S B L L  .' %.R L +.T T ' %.+.=.%.%.+.%.%.+.+.+.o.&.%. .%. .+.+.%.%.@.O.-.-.#.O.=.o.]  .&.&.;. .",
"L B B ' | | | ' S r L ' S r S r ' r L L ' '  .r S R  .+.+.=.+.=.+.' ' %.+.%.%.%.+.%.+.+. .%.:.=.%.%.#.*.#.[ O.*.;.+.[  .[ &.%.%.",
"R S B ' | | ' | S S R '  .R R S R R ' R L T R L L T +. .%.=. .=.+.! R %.'  . .'  . .%.+.' %.=.=.O.%.&.@.&.' ' *.=.[ [ %.[ +.%.[ ",
" .R S |  .R L  .&.%. .r &. .' R ' ' +.o.T L r ! +. .:.+.+.%.R  .' L ' %. .+.+.+. .%.=.+.=.+.+. .@.*.*.O.@.@.O.@.-.%.[ +.=.=.&.&.",
"+. .L o.=.+.R ' ! +.| L S ' G R R  . .o.L S r L R %.%.%.'  .!  . . . .%.%.%.%.%.%.%.%.=.%.=.%.+.#.-.;.+.@.#.@.#.=.%.O.@.*.+.[ %.",
"o. .! +.R r L r L ' ' L L r r  .o.=.' +.S r R L R %.+.%.| %.' %.%.%. .%.=.%.%.%.%.+.+.%.R  .%.%.{ #.-.@.[ #.@.@.*.#.@.@.[ o.' %.",
"S ! R =.' L '  .T L r ' ' '  .!  .R L %.R L L %.| r  .&.R +.+.R  .%.%.+.=. . .=.+.%.%.=.o. . .=.;.' @.*.#.&.#.@.&.@.[ [ o.] +.=.",
"'  .%.=.R r R +.' '  .=.' | R r ! ' L ' ' ' R +.| ' +.:. .+.&. . .%.+.+. .%.=.+. .+.=.=.o.%.o.=.-.@.*.-.{ #.#.*.@.[ @.O.&.+.[ +.",
"L '  .' T L ! +.+.' ! ! L R R ' +.=.%.%.' +. .'  .+.=.o. .%.=.&.%.%.%.%.%.=.=.+. . .=. .' =.+.%.*.+.*.[ #.@.{ O.[ [ o.%.' [ ' [ ",
"r o.'  .+.'  .+.' ' r L r R |  .' ' ' %.R %.+. .+.%. .|  .%.+.=. . . . .+.%.%.%.+.+.%.+.+.%.%.+.O.@.[ [ O.' ' [ %.' ' %.T ' +.+.",
"+.%.!  .R  . .+.G r r ' '  . .%.%.T  .=.' %.+.%.=.+.| %. .=.%. .+.R ' R +.%.=.=.R ' +.=.%.%.' +.@.' ' ' ' ' ' ' &.[ [ =.' R '  .",
"%.+.! '  .| ! R ' +.| T  .r L R r L L '  .' +.+.%.%.' =.=.%.=.=.%. . . .+.%.=.' '  .%. .=.+.+. .{ [ D ' [ ' ' @.&.[ %.+.[ L T R ",
"T  .' !  .' S ! ' ' ' V ' L T ' S ' +. .%.'  . . .-. . .%.%. . . .&.=.%.;.&. . . .@.&. .=...+.I ' [ ' { [ @.@.&.&.+.[ [ -. .[ [ ",
" . .o. .S '  .o.D p ' S y S ' ' B G  .' &.|  .%. .;.&. . . . .R  .' %. .&. .&.;.&. .&.&.{ O.-.W ' [ [ +.[ O.O.&.@.@.@.[ [ &.=.o.",
"' ' o.' T R  .S L B [ ' L S '  .T ' +.' +.%. .=.=.=.%.-. .S R S R '  .%.|  .%.| | &.&.&.-.....@.[ [ #.' @.' #.&.#.[ G @.;.[ =.%.",
"+.' '  .'  .%.' [ L [ ' ' V L ' '  .+. .+.+. . . .%.%. .! L T T L  . . . .%.&. . .*.*.+.#.O.*.[ ' ' #.;.O.{ [ [ ' { [ [ +.' o.o.",
"+. . .+.' %. .+.' ] ' L ' [ ' [  . .] ' =.&.%.%.%. .%.%.%.' ' ' ' %. .+.;.=. . .*. .&.&...X.O.*.#.-.{ [ [ *.[ ' [ +.&. .o.' %.+.",
"%.'  .+.R R L L L T ' p & e { [ ] [ [ +.%. . . . . . .=. .' | R !  . . .:.=.%.&.%. .|  .' ..#.] { [ ] #.-.O.' { =.' o.[ %.[ %.&.",
"+. .' +.S S S B L ' ' L ; O v ' ' ] O.-.v # e  .&. . .=. .' | R R  .%.=.%. . .=.&. . . .[ @.O.] @.' ' ] [ { ' [ ;.[ %.[ +.[ ] %.",
"%. .+.T ' ! S S ' T [ ] e   . '  . .' ' @ O e &.=. .%.| =. .%. .'  . .=. . .%. . . . . .[ ] ' o.&.-.' p B ' ' [ [ =.%.[ %.+.] %.",
"+. .%.T  .' R ! | %.' ' D > O e ] +. .7 = = X.-.&.+. .[ %. .+. .R  .R  .+. .%. . . .| R  . .#...I ' @.#.L ] o. . .-.[ &.*.&.[ &.",
"'  .=.L |  .R =. .=.R  .[ Z * ; C ' { $ = e O.&.&.#.[ | &.' |  . .%.+.| +.+.%.+. .%.| '  . .@...[ { =.O...I ..&.&.' G *.[ [ ' +.",
"'  .+. .' L T +.' %.%.L L [ e @ e #.q + - ' ..-.*.&.[ T @.+.+.R ' +.%. . .o. .+.&. .'  .| %.%.O.@.*.@.....#...{ @.+.O.@.@.@.+. .",
" . . .+.=.'  . .' R o.R [ O.{ 5 : / $ + e { @...' ' @.+.&.+.+.|  .+. .+.+. . .+.-. .R ' O.#.O.] P W ] @.] +.o.] O.[ O.[ O.[ @.[ ",
"' '  .'  . .o.' T ' ' ' ' ' [ e + % + + } O.@.@.O.[ +.+.]  . .&. .T  .=.%.o.+.=.%.+.+.[ ] O.@.@.#.{ ' #. .+.O.#.@...O.O.[ @.O.] ",
"' R ' R ! !  .| ' ' ' ' ' ' O.{ 0 X + : #.] [ O.*.;.O.I ' ] O.o. .R  .+.%.' +. .| |  .+.' W ' &.-.O.[ ] o.$.#.#.@.....O.@.@.O. .",
"+. .' L ' ' +. .' ' ' ' { { @.@.l + + e -.' ' U e q N F @.#.*.+.! !  . .%.| %. .' ' O.+.I { ] X.O...@.#.=.+.+.| O.$.O...X.' O.' ",
"%.%.+.R  . . .%.[ o.' ' [ ' O.[ 8 + < ) { O.O.6 X + + O ; J @.W | S G %. . .%.%.U H  .] P O.-.@.@. .+.@...{ ] W ......! ..[ ] ..",
"#.$...] O.#.@.@.@.@.+.#.+.[ @.#.6 % } +.W [ $.: # 3 8 * # * K ! | > < +.|  .|  .1 8 | ' D P ..@.#.W W ] ' O.] ' {  .[ ' O.#.+.X.",
"*.#.#...$.-.=.@.@.' [ { [ ] { +.3 ; [ { @...b + 0 o...D b % 0 T | 1 ,  .R | R L ; ,  .o...D G I #...[ @.] ] #. .[  .' { ..+...] ",
"#.@.....W I *.#.I O.-.@.' O.O.O.; ; +...O.{ 4 : ) #.o.| $., $ U | & <  .+.R G S $ , +.' W ] U P @.#.[ O.] O.P P G ' ' ..W :.Q o.",
"O.#...] ' [ *.-.[ +.@.O.[ @.O.+.: 3 O.....( % 4 o.+.o...%.q * H T . , +.! P p S $ 1  .+.....] [ ..Q I D { #.#.O.[ [ [ ] p ' Q ! ",
"#.&.[ ] W { @.+.[ @.#. .O.[ ' I * 3 O.[ =.~ + q +.X.'  .@.q : K ! @ ; %.%.| R c O 1 ' R O...{ ....W ' I @.$.*.@.| %.%.o.X.T F A ",
"#.@...' ..@.O.o.[ O.[ @.&.+.[ ' ; 3 @.[ +.) : ; X.*.+.] o.3 : X.@.6 # f | | | f + e  .[ +.'  .] L [ -.*.] O.[ ....$.+.$.*.| ! A ",
"@.O...] #.@.+.] O.[ O.#.O. .%.] ; ; { #.' { 0 = 6 / X.] h % 8 +...J * % < 9 a $ % J ' O.#.[ { B B ] -.@.' { +.#.&.#.! R X...! E ",
"@.@.O.] +...O.-.#.O.+.&.] +.+. .4 % M O.O.O.} 0 % = : : % ; H  .| R K 0 % # @ * l  . .' @.#...I D ' *.{ ..#.O.....%.| L W ' ..| ",
"@.@.#.+.O.! ..-.=. .=. .%. .%.%.z + q @.#.O.#.+.L r t 9 w / %.| ' | '  .W v h Y  .%.&.%.W X.o.' W ....+.+.*...{ W ......X.| | O.",
"#.-.&.+...L ' {  . .%. . .%. .' U ; < O.' ....*.%.%. . . .o.+.+.o.+.o. . . .%.+.o. .!  .] ' W ! ' I W ..@.=.-.+.X.] ! { ..W Q O.",
"..#.&.+.+.' ] O. . . . . . .*.| I ' } [ S I O.*.+.' +.%.&. .%.+.%. .%.o.=. . .| ! L |  .[ L D ;...O.' ! #.#.+.*.@.&...D y ..+.W ",
"@.#.&.#.+.+.+. . .| | | %.T L ' +. .@.@. .' o.+. .+.%.%.%. .o.%. . .+.+. .|  . .&.! | %.X.W ! &.U ' O.-.O.{ &.#.! ..W D ! Q ] ..",
"=. .' ' &. .' +. .| !  .&.' T  . .T L L -.O. . .%.%. . .%. . .%.%.+. . . .|  . .=. . . .%. .] ! V P W { [  ...@...|  .Q ..Q ] O.",
" .| ' | +. .] '  .| R  .|  .&. .' T ' S %.%.+. .+.%.%. .%. . .+. . . .| |  . .|  .&. .T  .%.o.@.] [ O.O.-.{ W O.#.+.] W O.+.&.o.",
" . .%. . . . .|  . . . .L  .-.&.|  .%.' | %.&.%.+. .%. .%.' +.%.|  . .|  . .%. .|  .%.|  . .%.o.@.+.&.#.;.]  .&.#.@...I | ....O.",
" .&. . .&.+.%. . . . . . . . . .%. . .|  .%.&.+. . .' %.+. .+.%. .| |  . .| | %. . .|  .+. .| | *.[ O.....+.#.*.X.' [ ] ' U W ..",
"&.%. . . .+.%. .+.%.+. .o.T ' %.%.%.%.%.%.%.%.+.'  .%.%.%. .+. . . .%.%.%.%. .=.%.o.R  .*.=.%.+.-.[ ..@.O.O.O.o.[ ' ] [ @.{  .-.",
" . . .=.%.%.%. .+. .o. .+.o.%.%.'  .%.%.+.+. .%.+.%.%.%.%.%.+.%. . . . .%. . .=.+.=.| +.` ..%.Q *.I ] -.#.@.+.O...#.*.O.W @.@. .",
"' G ' | %.%.%. . .!  .+. .+. .%.=.%. .%.%.%.' +.%.%. .+.%.%. . . . . . .| |  .%.! ' =.o.] ] ' =.O.{ @.#.' [ ] ..@.*.@.O.@... .[ ",
"|  . .=.%.%. .R L  .&.+.R %. . .+.+.+.=.+.+. .+.+. .+.%. .%.+. . .%. .=. . .%. . . .@. ...+.+.&.@.' *...{ O.#.....@.{ O.I ' O...",
" . .%.%.&. .' L ! +.+.+.+.+.+.+.+. .+.+.'  .%.' R ' +.%.'  .+. . .%.+.%.=. . .|  .+.| | %.o.&.;.{ O.>.{ +.O.-.*.O.O.O.] I { O.@.",
"|  . . . . . . .+.T R +.+.+. .| +. . . .%.'  .'  . .+. .'  .'  . . . .|  . .| | %.%.| =.$.%.*.$.O.] *.] [ O.-.@.[  .O.[ ' @.+.] ",
"|  .+. .| R | %. .R R  .L R ' ' ' +.'  .%.%. .' ' %.+.'  . . .'  .| | |  .=.T R  .| T  .=.=.$.o. . .W [ O.*.-.*.#.#.#.+.' @...{ ",
"R | %.%. .R L R  .+.o.! ! R  .o. . . .T ' ' '  . . . . .%.' ' ' +. . . . . .! T | | R %.o.=.o.! +.[ D [ +.+.#.#.*.@.&.[ { @.] R ",
"R '  . .'  .' R  .%.+.R o. .o.+.L '  .!  .' %. .' L ' o. . .|  .+. . .+.+.%. .+.&.| o.=.' | X.G | o.! %.+.X.&.&.@.&.O...*.@...L ",
"'  .%.=. .%. .+.'  .|  .' ! +. .R L o.%. .%. . .' R ' ' !  .' %. . .' %.' o.|  . .! ! %. . .o.T Q &.X...%.&.%.&.#.#...o...O.X.W ",
" .+.+.'  .%.%. .' | ! ' ' '  . .R R '  .+. .+.%.+.|  . .+.+. . .%.%. .| =. .o. .o.|  . .%. .| o.+.o.+.$.%.=.$.W [ ....$.+. .+.o.",
"+.%.%.+.+.%.+. . .+. . .S L R ' +.+. .!  .o. .%.%.'  .o.' ' R G |  . .%.%.+.+. .' ' o.+.| o.$.&.%.+.X.*.%.=.+.| +.#.O.@.[ Q ' ..",
"' +.+.o.%.+.%.o.o. . .' R  . .L L T ' =.=.%.| R '  .| %.%.%.o. .| ' | %. .' '  .! ! |  .T X.X.o.X.$.+.%.%.&.$...*.@...$.! E ' ] ",
"' ' ' %.%.+. .' ' o. .'  . .+.' L L R ' ' +.+.+.o.%. .T T  . .! |  .| %.+.! o.! ! | %.&.| %.=.%.| %.-.&.%.@.%.{ O.O...+...' [ ..",
"+.' '  .+. .'  .'  .' ' %. .'  .+.'  . .' +.+.| | +.' R '  .' T |  .' | o. .+.+. .+.+.&.X.&.{ | Q %.$.%.$.o.$.O.O.O...*.#.+.@...",
"+. .' o.'  .'  .' %.+.'  . .' ' '  .%.=.=.%.+.R L ' %.%.=.%. .L ' | ' !  . .' ' | o.&.o.]  .| T ! Q o.| +.o...o.] X...$.......+."
};
