/* XPM */
static char *_w21743414018[] = {
/* columns rows colors chars-per-pixel */
"64 64 100 2 ",
"   c #772324",
".  c #7C2A2B",
"X  c #7D2F31",
"o  c #6E3538",
"O  c #753235",
"+  c #773638",
"@  c #7A3739",
"#  c #773A3D",
"$  c #7C3B3D",
"%  c #7E3E40",
"&  c #734346",
"*  c #7C4244",
"=  c #7E4649",
"-  c #774B4E",
";  c #7C4A4D",
":  c #7C4D51",
">  c #755155",
",  c #7B5256",
"<  c #7D575A",
"1  c #77585C",
"2  c #7D5A5D",
"3  c #7D5D61",
"4  c #5C6066",
"5  c #5F6469",
"6  c #62676C",
"7  c #65696E",
"8  c #75696E",
"9  c #7B686E",
"0  c #676B71",
"q  c #6A6E73",
"w  c #7F6E74",
"e  c #6C7176",
"r  c #6F7379",
"t  c #787377",
"y  c #72767B",
"u  c #75797F",
"i  c #79797F",
"p  c #813D3F",
"a  c #813F41",
"s  c #814244",
"d  c #824649",
"f  c #834A4D",
"g  c #824E51",
"h  c #825256",
"j  c #855559",
"k  c #88565A",
"l  c #845A5D",
"z  c #895A5E",
"x  c #845E62",
"c  c #895E62",
"v  c #866265",
"b  c #8A6367",
"n  c #84666A",
"m  c #896669",
"M  c #866A6E",
"N  c #8A6A6E",
"B  c #846D72",
"V  c #8A6E71",
"C  c #847275",
"Z  c #8A7276",
"A  c #85767B",
"S  c #8B767A",
"D  c #8A7A7E",
"F  c #90767A",
"G  c #907A7F",
"H  c #777C81",
"J  c #7A7E83",
"K  c #857D82",
"L  c #8C7E82",
"P  c #937D81",
"I  c #7D8186",
"U  c #7F8389",
"Y  c #838286",
"T  c #888286",
"R  c #82858B",
"E  c #8D858A",
"W  c #85898E",
"Q  c #888A8E",
"!  c #908186",
"~  c #92858A",
"^  c #94898D",
"/  c #868B90",
"(  c #8A8D93",
")  c #938C91",
"_  c #8D9196",
"`  c #8E9399",
"'  c #909297",
"]  c #92959B",
"[  c #9A959B",
"{  c #95999E",
"}  c #98999F",
"|  c #969BA0",
" . c #9A9DA2",
".. c #9DA1A6",
"X. c #9FA4A9",
"o. c #A0A1A7",
"O. c #A1A4AA",
"+. c #A7A9AF",
"@. c #A5AAB0",
"#. c #A8AAB0",
/* pixels */
"U ` / _ / U ` { ` _ { / U / ..I H 6 U / U U H I H U | H U X.| X.` U U _ | | .._ _ | | U | ] | '  .'  .o.L X...{ } }  . ...J { ..",
"] ` ] _ 0 I U ` U ` U 0 / / I 0 I U ` H H @.` 6 6 U @.| ` U ` U | | | U X.| | _ ` | ` /  .|  . .o.'  . .` o.X...` ] {  . .{ ....",
"U _ { { U I U I / { I y I q 5 I U U H I ` U U U 0 4 I | U ..{ | ` ` ` { | U U U | H R W | ] [ | [ ' (  .] o. .( ] ] ` ( ..{ ..{ ",
"W / / { | / r U I ` U / I I I I q r H J U U U I H H q q U ` U ..{ | | | ` { U | | J ( ]  .] ( ( |  . .[ [  . . .] K _ K ( J ` _ ",
"r e / ` ` W _ ` U _ U U I I I r H q e U | ( ` J H H H U / { U @.{ { ` | | _ ` ` | ( | `  .| ( ' ( _ ( _ o.o.`  .] ` ( (  . .X._ ",
"I r q ( ` / U / e r U U y 5 r 5 H H J H ( U U H H U H { U X._ ..` { U ` U ` ` ` | |  .| ' ( O.|  .' {  . .) ] ] O.` ( ] ` ( ..` ",
"H y H U ( ( H ( y y I U | U I r / H H U H H H J U / | U | X.U ..` U U | U ` ` U W | ( ( ] Q { _  .{ ] [  .( K ( O.] ` { _ ` ` { ",
"( I I / U U / U | | U r { U U r ( / ` ` H H r U { U  .U ] | U { U U U _ ` U | | | ] _  . .| [ ' { ` _ _ ( ] { ` o._ J {  .X.| | ",
"@.U U U | U I I U | ` U U 6 I r U ` ( ` r H r H U { | | ` { U ` { { I { | | | U @.` ` X. . .R R J @.@...` L J {  .} K { X...K  .",
"X.U U | e r y I U U U r I I e ` | ` ] ` 0 r U J U ` U | U  .U | U U { { @.U U U X.| ` U Q { / |  .K ..L J ` ` {  ._ } ] ] ] U { ",
"U U U X.I I U { U U I I I I r I U U U U e H r | ` H ` | _ | U H U ` | { X.U { U ` | U X.[  ._ ( @.K ` | X.X.` X. .` J _ { U ..X.",
"U ` { U I 4 U ` U U U { U U r r / U U / H / U ` U H | X.U | X.U | | X.U ` X.@.| _ ` X.{ J ( { ] X.| { ..{ ` | X. .K } } @.| | { ",
"U U ` | U I U U U U I r U U I I `  .W ` W S K / _ U X. .` | | U | | | { { X.| U _ | / U ` `  .( X. .{ L ` { ` ` K J ` | U ` J { ",
"r U ` U ` U U ` U I e y 6 I U U U / J | 8 f , J ` | ` ` ] |  ._ { { { ` | { | | ` U | { ` { { ( | J { { X.K K K | _ _ | J J { ` ",
"X.U U | U | | | U U I U I U | | ( U ( _ A % < | ..| ` | U | U | U U U U { | X.| I U U | ..{ U ( X.L H J J J J ` ` J { X.U U U { ",
"X.U U U U U U ` U U U U U e U U J J W W L % 3 { | ..U | ] X.` | | ` U | { | X.U I ` X.` ` ( ` W | { H K L J ` | | | { X. .U J U ",
"U U U U ` U I U H U ( H U U U U U U ` { H # h R U | { ` ` | { ` { | / X.X.X.` ` J ` ` ` o.( ` ` J | J L ` { ` `  .` ` ` { ` J ` ",
"` U | U U ` | U H q H U r H U H J / U U ^ % j | ` X.U U { { ] U ( ` { ` X.{ J `  .` ` @.` } o.J J @.` X.` K | { | |  .` K X.| ` ",
"` { U ` U U U U W J ` U J H / U U / ` / ~ % - | X. . ...J J J U J ` ` { R ` { ` ` `  .` } ` ` } { { | J @.J X. .] ` J | @...` | ",
"` U { U U ` | U / W U / / e H I ( { | ` L % h ] ] ` | | U J H U J ` J ` ` { { ( ( (  .` K }  . .J J X.@.L ` ` J K { K | ` J ` { ",
"| ` U | U | ` U / J / J ` _ / ` ` ` ( _ L % g ` ] U ` | ] ` J J ` ` { { O.{ R `  .` ` { ` ` ` } @.@.X.` { | ` K { K | | J J ` | ",
"` U U U U U U U U / U J ` ` | ` ` ( _ U A d j  .` { {  .{ U ` J J ` ` { @. .` `  .` ( R ` { [ K X.L K | { X.J { ` J  .K  .J J | ",
"| U ` | U I I 0 U U U H W ` / W / H ` X.A % j | { U | X./ U _ H J ` { X.` ` `  .{ ` ` { J } ( K | K ` ` K J J { X.` { J | J ` ..",
"| | U U U U U I U / ` W J H J / _ I I U w % : | / { { U | ` ` U H ` ( X.` ` { { ` ( ` J ` ( ( ` X.| J J H J J |  . .{ ` X.{ ` | ",
"U ` | r W _ U _ I | I / J J / ` U I _ r ) a k  . .` ( (  .W ] _ H J ` ` ( ` | { ` ` ` J ` {  .( J H { O.K K ` ` K X.` ` o.` ` } ",
"` { X.U Q ' I  .( { ( J J J J R / /  .|  .f f  .( { ( 3 k K ] ` ` | J ` { { { J ` R ` ` J ` ] { ` J ( J X.J } {  .` H } ` ` ( K ",
"U U U U R J W ] (  .| u R _ | K | | | ] [ g a )  . .( - a L ` U ( ` ` / J { J { { ` ( { ( ` R ( } ` { `  .` { ` { { ` { {  .X.{ ",
"U U { `  .( Q R K W J R / J K Q R ]  .`  .k a L ( ` K ) _ | ` { ` ` { ` | { { `  .` ( ` K  .( ( J K (  .{ K {  .( ` ` ` ` L { J ",
"` I J R Q ( _ W U J ) Q R ( ] ' ( ( ' ( [ h a P ` {  .{ ` ` ` ..{ ` L o.X.` J X.( ` J ` ` ] ( { o.K `  .J { { L ` ` K ` ` ] ] ] ",
"` / / R W W ' ] / / ( Q ( ] ] | ] J ( | | j % K (  .X.K _ _ J W J J J o.| J K K K (  .( H H ( K O.{ ( ` } } } { {  .{ { { { J J ",
"] ] U R W i ] } Q ( / H ] | ( R L b h c P h % M `  . .K ]  .{ J ` ` L K f p O p * k K { J ` J ] K ` (  .X.{ K ] | ` J { ` { ] L ",
"( ( ` U Q ' ] } } ( ' ( K ( ] 3 a % % % % % % B K ] ` 9 3 ) { ( J { L s # h , : d # > K J ( `  .{ ] `  .X.J ] J ] J ` { K X.L J ",
"` { ` ` | L K { | X.X.L L L g a a K L L p   p P L  .L > @ K J J ` K c * 1 L ` ` L h $ K H K J { | K J ` { ` ` ` ` K J ` { ` K ` ",
"o. .K | | ..` { | L J  .J : $ f L  .L L k   p L ` L  ., % H | J J | # * K L J J L K $ > L J H {  .K ` | L ] { { ` ` J { { ` ` K ",
"` { ` J J `  .| J {  .} H d p P L L J L L   . P X.| L K a b J J ` L : = | J H J L k # K L | J L K X.` ` { ` J J J J ` { J @.` ] ",
"} { K ` J ` ` X.` |  .L c # K L | @.o.o.L a @ K ` { L k O P | | J H # * 1 & & > # p g L L J J J { J J J J { o.` L { ` K J K ` K ",
"{ { K ` K { { {  .X.K { k $ H K J | | L @.l d L { { L H % K P L J > # s = O O # 1 H H L | { L | ` J K J X.O.X.{ ` | J ` ` J J H ",
"{ } ` ( ` { { ` K ` K { k p K H J J  .X.L c % L { { L K % z L  .L K p k K K K H J L H L { | J J H ` ] o.K ] { ` ` | X.`  .L J H ",
"` { ` K {  .{ ` { ` | X.= # L L { { { L { x h L K X.L L a : K | L K d - { ` L L ` ` J ` | { { J H J O.{ { ` {  ... .K J { { { H ",
"{ {  .J | X.K  . .J `  .h p K L L X.J J L h f L J | @.L f 1 J | L K g > L L  .@.X.J J ` ` ` X.J H J ` ]  . .{ K L J { J K L ] ] ",
"{ ( ` ` J J K O.J ` X.{ K 1 a L X.` K X.L d f L | J X.| 1 & L L J J H s = K K K  .L L L x L L K ` { J { ] ( } ` { J X.` ` ] K | ",
"` o. .{ { H J { J ` ` J K H p O H J L L 3 * P o.X.J | | > % K  .{ { L k a = f = & : % % # K J K ( ` K ( }  .( ` ` ` J K J J K { ",
"K  . .` { ` { ` ` J ` X.L { K O # * d * # 1 L  .| ` J | L p f P | J  .K K 1 > > > - : 3 K J J X.` ] L ( } } { { { X.` H H ` | J ",
"{ `  ... .` { { J J H J | H H K - : f g 3 L K L U | U X.L K P L | { X.K @.K L |  .K L L X.K J X.J ` ] o.( `  .` K { J H H ` K ` ",
"X.( ` { { ` ` ` | J ` J X.J J ` | J H J  .` { J U X.| | | U J | | { | { ` J | J L { | ` ` K J | J J ( { { ( ` { ` ` ` K J K ` J ",
"` ` ( J ( ( / ` | J J | J J ` X.J J J J  .L J { | | ` J | | U { J { X.J ` X.J | ` ..| J J | | | K J ` ` O.( J K { ` ` H { { ` X.",
"J ` { ` { ` ` ` J ` J ` J { | J | | | J ` | { K ` | U { | J X.U ` J X.J J J X.J K X.{ J | K J | o.o.( ] O.` K { { ] ` J ` ` ` ` ",
"J ` ` J { ` ` { ` | | J X.J { | | | | J ` @.J | | J U | U J U U { J { { | { ` { J | J | { { X.J  .J { K { { o.O.K ` ` K L J J J ",
"| | ` ` ` J { { { { { { J J J X.| ` | | | U J | U U | @.{ J | { { J { X. .` J X.X.J J | { X.X.` ` ( K } ( } }  .` ` ( ` ` ` ( [ ",
"| J ` | { ` | J { ` ` ` { ` { | ` ` | | | ` { | @.` { ` X.| U X.` J { J | | ` X.| ` | { K ` ..`  .H ( o.( ] ( ] ` ( o.] ( ` } ` ",
"H H J ` { { | ` ` J { { ` | { ` { J | | @.| U | U | U | U X.| | J ` ` ` { J { { J `  .` ` K J { o.( ( ` ( J ` ` [  .} J ] [ ( ` ",
"` ` J X.{ | ` J J | J | H | ` J | { { ` U | X.` | ` | U | { { | ` ` ` ` X.X.` | { J ` ` | ` K X.] ` } ` ( } } } [ } } R R ` R [ ",
"` ` | | J J ( J / ` { ` J ` ` ` | U { U ` ` | | ` ` ` | U | U U ` ` ` { J | ` ` { { ` ` { K X.@.J } #.` K o.` o.` ` ] ] J R ( } ",
"` ` ` ` | { ` ` { / J | ` ` { ` ` | ` | | U U U ` | | | J J | U ` ` ` ` ` { J J ..| ` ..| { X. .` [ ] ` J { o.} ` ` ( J ( [ ] ` ",
"J | ..| J J J X.` H J | J H J ` U | U ` | ` U ` | X.` U | U U | | { J ` ` | J J ` ` H { X.X. .` ` K J ] } } o. .[ o.} ( ( [ ( ` ",
"J ` ` J { H ( J J ` | J J H ` | J | U J ` ` | ` J J U ` | U U U ` J ` J ` { ( J ` J H J | K ` J } ( J ` { ` } ` ` o.} R R } ` R ",
"U U J ` ` J J J J X.| J | J | | U U | U ` J | J ` J ` J ` | J ` J ` ` | { @.` `  .` ` @.K { J H ` ] H  .J } ` ( o.[ ] ] o.( ` R ",
"` J | | | ` | | | J J ` ` J { { J U X.| | | | U ` { U | J J ` | { ` ` | J J | J { J J  .` K @.K K ` {  .( } } o.] [ ( ] } } ` J ",
"| | J U ` | | ` | J ` H J ` { J J J U { U ` ` | J ` ` J ` | J ` | | ` | | J | J { ` J ` ` | K J ` K ] K K ` } J ` ` ] [ ` ` ` ] ",
"` | ` X.J | ` | { ` ` ` J J J ` ` | { U | ` { | ` ` ` ` ` J J J J ` J J { ` { X.J ` J ` { J @.X. .` } o.} o.} ] ( } ` [ E y i ( ",
"U J J X.| | ` J ` ` ` J ` ` ` J J H { @.@.U | J J U J @.| X.` ` J H J ` J J J ` J J J ` K ` o.` ] ` ] } { o.} `  .} [ ` E R R ` ",
"` U ` ` | | J | J ` ` ` ` ` | | J J J U J | | | | | | U J ` J ` J ` | X.{ ` { J ` ` | ` L } { K ] } o. .K ` ` K [ [ ` ( } R J ` ",
"| U J ` ` ` ` J | ` J J ` J J J | { J ` J | | U J ` ` J J ` ` J J | J ` X.J ` ` ` J  .X.J ` } ` J [ o.] [  .[ [ ] J ` [ ` ] } [ ",
"X.` J ` ` J ` J ` | ` ` | ` J J U { | | X.X.X.J J U X.J X.X.` J J ` ` J ` J ` J ` `  .` ` { K H H _ ` ` ` ` ` ` ` R ` } ] ] ] R "
};
