/* XPM */
static char *_w41743414018[] = {
/* columns rows colors chars-per-pixel */
"64 64 126 2 ",
"   c #6A6F74",
".  c #7C6A70",
"X  c #6C7177",
"o  c #70767C",
"O  c #74797F",
"+  c #8F2E30",
"@  c #863A3C",
"#  c #8B3B3E",
"$  c #8B3E41",
"%  c #854043",
"&  c #8D4244",
"*  c #8D4649",
"=  c #894D4F",
"-  c #924346",
";  c #944649",
":  c #954A4D",
">  c #994B4D",
",  c #844D51",
"<  c #964E51",
"1  c #994E51",
"2  c #845054",
"3  c #8E5457",
"4  c #8D565A",
"5  c #8F585B",
"6  c #955255",
"7  c #9A5254",
"8  c #95565A",
"9  c #9A565A",
"0  c #925A5D",
"q  c #9C5A5D",
"w  c #8C5D62",
"e  c #945D61",
"r  c #9C5F62",
"t  c #876165",
"y  c #87666B",
"u  c #8C6569",
"i  c #946063",
"p  c #9B6165",
"a  c #956569",
"s  c #9C6569",
"d  c #95686D",
"f  c #9C696D",
"g  c #8F6F74",
"h  c #936F75",
"j  c #9D6F73",
"k  c #837276",
"l  c #89787D",
"z  c #957176",
"x  c #9E7074",
"c  c #9C757A",
"v  c #97797E",
"b  c #9D797E",
"n  c #A06568",
"m  c #A06F73",
"M  c #A47075",
"N  c #A3757A",
"B  c #A47A7E",
"V  c #767C82",
"C  c #7A7E85",
"Z  c #857C82",
"A  c #8C7B80",
"S  c #937D83",
"D  c #9D7C81",
"F  c #7B8187",
"G  c #7E8389",
"H  c #8D8187",
"J  c #82868C",
"K  c #8D858C",
"L  c #83898E",
"P  c #978086",
"I  c #9C8085",
"U  c #94848A",
"Y  c #9B858A",
"T  c #9C898F",
"R  c #868B91",
"E  c #8A8E94",
"W  c #968C92",
"Q  c #9C8C92",
"!  c #8B9097",
"~  c #8E9399",
"^  c #909297",
"/  c #9C9197",
"(  c #92969D",
")  c #9A949C",
"_  c #94989F",
"`  c #9C9A9F",
"'  c #A28186",
"]  c #A38489",
"[  c #A9858A",
"{  c #A1898D",
"}  c #A8898E",
"|  c #A48C92",
" . c #A88D92",
".. c #A39196",
"X. c #AE9094",
"o. c #A4949A",
"O. c #A9959B",
"+. c #A0989E",
"@. c #AB999E",
"#. c #969BA2",
"$. c #9A9EA4",
"%. c #A49DA3",
"&. c #AC9DA2",
"*. c #9CA0A7",
"=. c #9EA3AA",
"-. c #A0A1A7",
";. c #ABA0A6",
":. c #A2A5AC",
">. c #ABA4AB",
",. c #A4A8AF",
"<. c #A8A9AF",
"1. c #B1A7AD",
"2. c #A6ABB1",
"3. c #AAADB4",
"4. c #B2AEB4",
"5. c #ACB0B7",
"6. c #ADB2B9",
"7. c #B2B5BB",
"8. c #B4B9BF",
"9. c #B8BABF",
"0. c #B5BAC1",
"q. c #B9BCC3",
"w. c #BDC0C7",
"e. c #BEC3C9",
"r. c #C1C4CB",
"t. c #C2C8CE",
/* pixels */
"6.*.=.2.=._ 5.2.2.5.5.#.2.w.2.#.G 2.2.2.=.=.G G 2.G e.2.G 6.e.2.G e.G G t.e.8.6.2.*.6.2.6.,.3.7.7.:.%.q.0.0.q.0.+.0.3.q.0.2.0.$.",
"#.2.5.:.! *.=.=.G 2.=._ =.G ~ G =.G 2.G G e.2.G G G t.6.0.8.6.=.8.G 6.e.t.e.6.2.6.#.6.=.=.5.7.,.<.3.7.q.q.q.q.0.<.0.0.w.<.0.0.0.",
"=.2.,.8.#.! *.G 2.6.2.G G G F ~ 2.2.2.G 6.G 2.2.G F G e.8.e.2.2.G e.0.6.G 6.6.8.6.=.*.,.6.#.6.7.q.q.q.6.3.>.0.<.-.<.4.0.0.( 0.0.",
"#._ ,.5.6.=.#.*.=.6.5.~ #.#.G G G G G 2.=.G 2.G G G G G G t.G 2.6.e.6.6.0.8.G 6.6.2.*.5.=.2.*.2.7.q.$.:.3.q.0.0.0.:.( ( 2.$.0.*.",
"( R ,.5.2.=.,.6.5.2.#.G G _ G G G G =.G 0.0.0.2.G 2.2.G 0.e.6.e.0.8.2.0.2.2.6.G 2.5.6.2.0.6.6.2.7.3.%.0.0.0.0.0.0.0.S $.0.0.0.2.",
"~ F G =.,.*.=.#.F G G =.~ G G G 2.G G G 2.G G G G 6.G 6.2.8.6.e.0.0.G 0.8.6.e.6.*.,.0.5.2.0.w.6.7.7.7.<.0.0.3.3.q.$.~ 3.2.0.0.0.",
"*.G R E 2.~ =.=.G G #.#.2.#.#.G 2.G 2.G G G G G G G e.G 6.e.2.e.G 6.G e.G e.8.2.2.6.6.5.=.0.w.0.7.7.0.0.6.4.:.0.0.2.:.0.~ :.0.#.",
"=.G ! #.2.*.=.0.e.6.#.G 6.2.#.=.=.G 6.e.G 6.G G e.8.t.2.6.G G 8.0.G 2.0.6.G 6.6.5.=.0.0.0.*.*.~ %.q.0.<.3.6.) 0.q.#.=.3.0.0.0.0.",
"8.2.#.2.6.! G _ =.6.6._ #.=._ #.=.=.2.0.G G F G G =.0.6.=.=.#.2.6.G 0.6.6.6.6.t.e.8.8.G 6.6.6.2.7.w.w.7.2.3.$.7.q.0.:.-.3.3.2.2.",
"8.6.G 6.! G ~ ! #.G =.G G G G =.2.e.2.G =.G =.G 2.0.6.6.G 6.=.2.0.6.2.2.t.e.2.G 0.6.6.t.=.2.w.0.$.2.2.7.2.7.3.$.0.3.3.0.6.6.:.:.",
"_ *.=.8.,.! =.,.#.G G =.2.=.#.G 2.G G 6.2.G G 8.#.F 2.2.6.=.6.#.G 8.6.6.0.G 2.0.0.2.0.8.5.8.2.0.w.$.,.7.$.q.6.6.3.:.) <.2.#.6.0.",
"#.2.5.8.F o =.=.2.=.G 2.#.2.G G 2.2.2.G 2.=.2.8.6.G 8.e.#.6.8.=.2.8.0.2.6.6.t.0.2.6.0.0.2.0.6.0.7.<.q.6.7.7.2.0.0.3.=.0.q.0.6.0.",
"~ =.=.=.*.~ =.5.,.=.( *.G #._ =.0.0.0.8.G 8.G =.2.2.=.6.2.6.e.6.8.8.8.0.6.G t.2.G 0.8.2.2.0.6.8.7.7.4.7.q.6.2.0.6.#.3.=.=.2.=.( ",
"! #.#.2.=.#._ ,.#.! ! R F G ( #.G 6.2.8.2.0.0.2.2.8.2.6.6.6.6.0.6.2.6.8.6.8.2.t.2.0.6.6.2.6.6.6.3.7.3.=.7.$.$.S 3.2.3.0.S 2.2.0.",
"6.6.*.2.=.*.6.5.#.! _ #.T = d 6.2.G 6.e.G 0.6.6.0.0.2.2.0.6.0.0.2.G G G G 8.e.G 2.2.2.6.0.G 6.6.2.#.S 2.#.#.#.2.0.3.2.2.=.#.#.2.",
"8.2.*.~ *.=.*.~ *.#.:.( l % 2 *.=.G 2.G 6.G =.6.2.2.#.6.0.6.6.2.6.2.8.0.8.e.2.2.G 0.8.2.0.6.G e.6.=.S 2.3.S :.7.0.3.0.0.2.#.( #.",
"*.=.~ 2.,.=.#.#.#.$.=.G ) % , #.#.,.0.6.6.=.2.2.5.0.2.#.0.5.6.2.6.6.0.2.w.0.6.2.=.7.7.:.7.:.$.=.:.6.Z 6.6.3.7.0.=.3.3.3.q.6.:.=.",
"=.=.2.2.G 6.,.5.~ G =.=.k $ e =.~ $.2.=.0.=.2.=.6.q.=.#.2.6.2.2.=.6.2.2.6.2.#.e.2.3.0.r.=.7.7.) $.6.2.6.2.3.2.7.<.7.2.7.:.3.0.6.",
"=.=._ =.#.#.5.G $.G 2.=.Z $ e 3.$.=.5.! 0.0.0.0.0.0.0.2.=.( #.#.#.( 6.$.( #.#.6.=.7.7.7.3.3.3.7.$.$.2.Z 0.2.7.q.7.:.S q.e.6.q.6.",
"5.,.2.2.G 6.=.2.:.$.*.R T $ w #.=.6.=.2.#.2.5.2.0.*.#.0.=.G G ( ! 2.2.2.6.6.#.2.6.7.q.7.7.7.=.7.=.( q.t.2.3.2.=.:.3.( 3.3.=.#.2.",
"2.=.2.2.6.6.#.=.$.~ ! ( Y * e :.=.#.2.=.0.0.6.2.0.2.( =.0.#.#.=.=.=.2.6.2.0.#.6.7.=.3.6.2.3.3.6.6.6.6.( =.6.2.Z 2.6.6.2.3.( 7.3.",
"8.=.2.5.=.#.G _ #.$.~ ( ..< r 3.2.=.2.*.0.2.0.0.2.2.0.0.0.#.~ =.R #.6.#.w.6.6.0.7.6.#.6.:.7.7.>.7.2.$.7.q.q.( 2.7.3.6.6.2.$.7.2.",
"8.=.2.=.=.G _ G E #.#.#.T * 3 $.=.=.5.0.*.2.5.6.=.0.0.0.#.~ *.=.=.2.6.w.6.2.2.$.2.( 3.6.$.6.3.:.=.2.=.$.2.3.#.2.q.$.7.=.2.#.2.7.",
"2.#.#.=.5.=.=.G =.:.2.:.. $ w $.2.2.=.#.=.#.5.0.0.2.2.=.0.2.2.2.=.=.6.6.2.$.6.6.$.2.:.2.2.2.) 3.q.3.=.Z S 2.( =.=.:.$.2.q.=.2.7.",
"2.#.=.=.3.$.$.2.2.7.=.2.A $ e ,.=.5.#.~ 0.0.2.:.0.$.,.$.0.#.0.,.#.=.2.#.6.2.6.6.2.2.#.( :.6.3.:.) $.6.q.) ) 3.3.7.=.2.7.7.2.2.7.",
"2.G w.G :.( #.3.$.6.:.#./ $ w 0.*.,.=.,.q.6.3.,.0.,.:.3.0.( ! $.2.6.=.2.6.6.=.=.3.7.6.=.2.2.6.7.2.3.6.6.$.:.7.4.:.2.S 3.6.2.:.:.",
"G ,.=.5.#.^ #.3.:.<.2.E S : r 6.2.6.0.5.6.3.2.q.q.2.$.( 0.#.0.$.=.6.6.~ 2.6.2.6.7.2.#.=.( 7.7.=.7.7.:.) 7.7.7.3.6.7.6.7.7.7.q.2.",
"2.2.2.=.9.#.<.3.$.( 3.#.T : r 3.6.2.0.5.0.3.3.4.<.2.$.0.0.0.=.,.2.2.2.6.#.=.6.6.2.3.( 2.3.7.3.:.$.E :.7.6.3.7.4.3.3.3.=.3.6.7.3.",
"2.=.( *.*.,.<.3.#.#.<.%.S * e 3.2.,.<.3.0.6.0.6.3.0.0.:.$.2.$.0.6.:.2.q.0.2.6.0.7.( 3.2.3.7.7.3.7.:.:.3.3.3.7.7.1.:.3.3.2.6.3.:.",
"_ =.=.*.*.~ 3.3.$.%.,.$.Q < e ,.3.2.%.5.0.<.,.,.0.4.:.=.=.,.0.0.2.Z 2.3.0.2.6.6.#.2.3.6.( ) ) 7.w.3.:.$.7.:.$.$.7.:.7.:.7.7.3.:.",
"6.2.2._ *.^ 3.6.5.,.%.R S $ n ,.#.3.6.0.q.3.~ R <.0.2.( 0.0.=.2.=.:.6.3.7.>.2.6.2.#.=.6.$.:.>.3.7.6.$.7.6.2.2.3.7.7.2.2.:.3.3.%.",
"8.2._ *.<.5.6.7.3.3.2.#...: s :.#.:.:.7.5.$.6.>.:.4.<.S D D 0._ :.=.w.D A A S S D S S ) W 3.q.q.7.6.$.q.0.6.) :.( #.3.=.1.=.=.<.",
"6.4.2.=.3.4.7.7.0.3.<.0.@.$ 7 r r m %.3.%.6.q.q.3.3.z & ; & i K Z 6.2.D * ; - ; $ $ $ $ $ S 2.2.2.( $.:.) =.2.) 2.,.$.:.6.7.=.$.",
"3.7.6.) :.q.q.7.:.3.( <...$ $ 1 * ; 8 %.0.7.7.%.<.I ; * M q : 8 $.#.2.D # w A w D f 7 $ e S S $.D 9 $ r A -.7.3.3.2.2.0.6.=.S :.",
"0.6.2.<.-.=.0.4.+.:.w.0.D 1 > D %.r > s 3.$.7.7.4.9 > S 8.<.0 & S :.2.S - A Z C $.D $ 9 / ,.$.$.9 $ 9 < < S =.S S #.$.2.Z 2.$.6.",
"7.4.6.$.$.-.0.q.>.0.q.#.@.$ $ &.3.1.9 : | :.3.#.] - q 3.7.*.x - A S 2.S - A Z S Z < 9 ) 3.=.=...1 3 ) y < 8 0.3.6.=.S $.C =.=.$.",
"7.7.,.=.$.2.2.0.=.0.:.( O.$ $ $.$.6.D $ n 7.6.3.d > n Q ' p > 6 S =.S ;.; , Z =.u $ d =.7.2.;.D $ D >.S p q >.<.-.6.0.3.=._ $.Z ",
"6.7.4.$.<.3.$.) 3.3.3.4.&.$ > :.2.7.4.r 1 Y <.7.a ; : * : > q X.2.6.0.D - 8 S :.e $ S 2.q.<.>.A $ D r.D $ n 3.=.:.-.-.3.q.2.0.Z ",
"7.3.3.=.4.0.4.:.3.=.#.3.S > : 3.6.$.>.| ; 8 %.3.m > 9 q j } :.=.0.:.<.D * Z =.7.8 < ) ) 7.3.:.w + A D 7 9 D 6.0.0.0.2.( :.=.2.$.",
"<.7.6.<.6.0.6.0.0.3.-.-.S $ ; >.2.<.$.,.s ; B 7.B - B 0.*.,.6._ ( =.S : 9 2.6.7.p < %.:.6.$.3.w $ 8 9 1 D w.3.4.1.6.3.( =.,.( $.",
"7.7.$.:.7.3.6.q.=.:.0.6...$ : :.,.>.$.0...< r ,.;.> 9 ;.,.7.*.5.=.S 8 * S 2.=.2.d < O.:.=.#.$.D $ $ 1 D <.7.7.>.:.3.$.3.=.:.:.6.",
"7.7.:.2.S C =.2.2.2.6.,.O.$ ; ) ,.,.:.3.$.< < 4.:.f : p W 6.5.,.=.S < w 3.2.$.0.D $ D =.$.<.S d ; # D 1.7.q.7.;.:.( =.#.6.$.:.$.",
"$.2.7.3.2.2.#.3.2._ =.5.| $ $ ! ( 3.q.0.! 4 $ ;.2.-.5 < 7 i f x D < 8 %.0.( =.=.D $ < S D 4 $ $ ; ; > 9 D D D 1.7.0.<.C Z <.:.:.",
"7.6.7.q.0.6.6.6.2.=.=.#.<.$ $ #.6.3.3.0.2.e >  .=.5.` P 6 : : : $ 9 D *.0.=.0.6.2.D $ < < $ 3 d D D 9 1 # - + D 2.<.<.S #.:.3.3.",
"2.3.2.2.7.6.#.6.5.! :.#.q.$ $ 2.3.#.! #.q.d > | 6.0.6.5.,.R ~ G D D :.6.3.Z =.=.q.<.A 2 s D S =.S Z 2.1.D A D ;.=.:.$.~ $.=.=.$.",
"2.=.=.#.6.2.=.2.$.$.( #.! : : 2.=.! R ( $. .e %.#.0.2.=.6.2.2.0.7.0.2.3.2.2.0.2.3.0.0.=.3.$.<.3.2.#.#.6.q.,.S $.=.3.=.=.6.6.7.7.",
"=.#.6.=.6.=.2.2.2.:.#.! _ K %.0.=.:.=.=.,.#.0.3.5.6.0.2.6.2.6.0.6.2.$.$.2.0.0.2.$.0.$.=.2.) =.0.q.0.0.7.6.2.2.=.3.6.2.Z <.3.) 6.",
"2.6.3.3.2.=.6.3.2.#.:.2.6.2.5.5.2.0.5.=.3.0.:.0.=.2.2.*.#.2.2.2.2.( 6.,.2.=.#.3.( 2.Z 0.3.,.=.,.7.=.3.3.7.6.3.:.:.=.3.S =.$.:.6.",
"0.6.2.=.2.2.6.=.6.2.2.=.2.=.G 0.G e.8.6.6.G G e.6.G 2.e.6.2.2.6.2.=.6.=.0.6.2.0.6.$.=.0.=.q.q.2.3.6.( 7.2.:.3.7.2.:.4.3.3.) 6.q.",
"2.=.=.0.=.6.6.6.#.#.2.2.6.2.6.0.2.=.6.6.e.e.6.0.0.0.8.=.0.2.6.6.2.2.#.6.6.2.2.6.=.6.:.=.=.:.3.6.7.S =.q.7.$.7.) 3.0.7.3.:.7.) $.",
"#.C #.0.6.6.0.6.#.=.2.6.2.0.2.2.e.=.G 0.t.6.G 6.0.2.6.2.e.2.=.2.2.2.#.2.6.G 6.6.=.2.0.6.=.S S e.q.2.7.0.( 2.2.1.$.7.7.-.6.7.6.( ",
"0.2.=.0.6.0.2.#.#.6.2.=.=.6.6.2.6.0.0.0.6.2.e.0.=.=.2.8.2.6.6.6.6.2.#.2.0.0.6.0.( 2.6.3.7.0.4.7.6.3.q.2.2.7.2.=.7.:.7.-.$.2.3.6.",
"6.6.6.0.=.#.#.C =.=.=.2.2.2.2.=.6.2.=.6.2.6.6.8.=.2.6.0.=.G 6.6.#.2.6.=.6.2.2.2.6.2.2.6.6.*.6.3.S 0.e.2.6.7.7.0.6.:.=.) ) ( 3.6.",
"#.6.6.2.#.#.2.6.6.G #.6.2.#.2.2.8.0.2.=.8.6.G 6.=.6.6.8.2.8.2.=.6.2.2.G =.6.=.=.0.2.6.0.7.7.3.3.2.2.3.6.2.7.7.7.$.3.:.) 2.2.3.3.",
"=.0.0.0.2.#.2.0.=.=.=.2.G G =.2.2.G 6.6.0.=.2.G =.6.2.G 6.2.2.6.#.2.2.=.2.0.( C 0.=.C =.<.q.7.=.7.#.( 6.2.6.q.7.7.7.7.2.:.7.6.$.",
"G 6.2.#.=.=.=.#.=.6.2.2.2.#.2.2.2.G =.G 2.6.=.G =.2.2.2.6.2.=.G 2.2.2.2.2.2.#.( ~ C #.0.6.7.6.=.6.2.S 0.6.6.7.=.q.7.q.7.:.:.) ! ",
"=.G 2.6.=.2.2.G =.6.2.#.=.#.2.2.G =.=.6.=.6.2.2.=.2.2.6.2.2.2.2.2.2.2.6.6.=.G 0.0.2.2.2.=.2.2.( :.6.Z 7.$.7.7.2.7.7.7.6.q.7.:.=.",
"2.=.=.e.6.2.8.6.2.=.2.=.=.=.=.2.G =.2.G 2.2.e.G G 6.G #.=.=.6.2.6.G =.8.2.2.6.6.( =.#.0.2.#.0.=.=.7.0.$.7.7.q.q.7.7.3.3.6.>.3.:.",
"2.6.=.6.6.6.2.6.=.2.2.=.=.2.6.2.=.G =.2.2.8.=.8.0.#.6.6.6.6.6.2.6.0.6.6.0.2.2.6.2.=.2.=.6.$.3.$.3.) 4.<.<.q.:.) :.) >.6.7.3.6.6.",
"6.8.6.6.6.6.=.6.=.6.#.2.G #.=.2.8.0.G 2.2.G 8.=.6.6.6.G =.=.=.G =.G G 6.6.6.6.6.2.2.2.2.3.2.0.0.3.7.7.q.=.7.<.) 7.3.6.2.:.$.=.>.",
"2.2.6.2.8.6.=.6.2.2.G 2.=.2.2.G G G 0.0.0.2.0.G G 2.=.2.6.6.2.2.2.6.G 2.=.=.G 6.#.=.=.2.$.2.2.=.3.2.7.:.3.q.q.=.q.7.:.6.) Z $.( ",
"=.=.2.6.8.2.2.2.2.6.6.=.2.2.0.6.=.G G 0.2.8.0.2.2.=.2.=.=.=.2.=.=.G 6.0.=.=.G 2.( Z 0.2.S 7.3.7.S 7.0.q.3.q.=.4.7.4.3.7.6.E $.=.",
"6.=.=.6.2.#.2.2.2.#.2.2.6.#.2.2.0.=.G 2.=.2.=.=.G 6.2.G =.2.6.G G 6.2.6.6.2.0.=.2.2.0.q.=.0.7.2.Z 7.q.=.7.3.7.3.4.) 3.:.7.7.6.3.",
"8.2.=.2.=.2.=.=.2.6.G =.6.=.2.G G 6.6.0.0.6.G =.=.=.6.e.=.6.6.G =.=.=.=.2.2.2.2.#.6.6.6.2.3.=.( $.#.S 3.-.7.:.) 2.2.) 7.$.:.7.3."
};
