/* XPM */
static char *_w31743414018[] = {
/* columns rows colors chars-per-pixel */
"64 64 115 2 ",
"   c #60656B",
".  c #6C7177",
"X  c #6F757B",
"o  c #72777D",
"O  c #72787E",
"+  c #893B3E",
"@  c #8C3F41",
"#  c #903F41",
"$  c #8D4143",
"%  c #8F4649",
"&  c #8C4B4D",
"*  c #914345",
"=  c #944749",
"-  c #954B4D",
";  c #984C4E",
":  c #8A4E51",
">  c #934E52",
",  c #9A4E51",
"<  c #8B5154",
"1  c #895B5F",
"2  c #945255",
"3  c #995254",
"4  c #965458",
"5  c #98575A",
"6  c #925A5D",
"7  c #9A5A5D",
"8  c #8F5D61",
"9  c #945E62",
"0  c #88696F",
"q  c #946165",
"w  c #9C6064",
"e  c #936569",
"r  c #9B6569",
"t  c #94696D",
"y  c #9C696D",
"u  c #936F73",
"i  c #9B6E73",
"p  c #8C7075",
"a  c #89757B",
"s  c #89787E",
"d  c #977276",
"f  c #9A7276",
"g  c #97777C",
"h  c #9C7579",
"j  c #967B7F",
"k  c #9D797D",
"l  c #A26C6F",
"z  c #A16D71",
"x  c #A27277",
"c  c #A0777C",
"v  c #A37A7E",
"b  c #767C82",
"n  c #797D83",
"m  c #877D83",
"M  c #9B7C80",
"N  c #A37D82",
"B  c #7B8086",
"V  c #7E8389",
"C  c #898187",
"Z  c #81858C",
"A  c #8D868B",
"S  c #83888F",
"D  c #948287",
"F  c #9E8084",
"G  c #90848A",
"H  c #9C8389",
"J  c #9F898E",
"K  c #868B91",
"L  c #898E94",
"P  c #958E95",
"I  c #9D8B91",
"U  c #8C9097",
"Y  c #8E939A",
"T  c #909096",
"R  c #9D9097",
"E  c #91969C",
"W  c #9A969D",
"Q  c #94989F",
"!  c #9F989F",
"~  c #A28185",
"^  c #AA8185",
"/  c #A58489",
"(  c #A48A8F",
")  c #A38B91",
"_  c #A98D91",
"`  c #A49096",
"'  c #A4969B",
"]  c #A9969B",
"[  c #A4999E",
"{  c #AB999E",
"}  c #969CA2",
"|  c #9A9EA4",
" . c #A59CA1",
".. c #A99EA4",
"X. c #9CA0A7",
"o. c #9EA3AA",
"O. c #ADA2A7",
"+. c #A2A5AC",
"@. c #AAA5AC",
"#. c #A4A8AF",
"$. c #ACA8AD",
"%. c #B2A4A9",
"&. c #A6ABB1",
"*. c #AAADB4",
"=. c #B3AEB4",
"-. c #ACB0B7",
";. c #ADB2B9",
":. c #B2B5BB",
">. c #B4B9BF",
",. c #B8BABF",
"<. c #B6BAC1",
"1. c #B9BCC3",
"2. c #BDC0C7",
"3. c #BEC2C9",
"4. c #C6C8CF",
/* pixels */
";.o.X.-.o.o.-.Q &.&.o.o.&.#.2.E o.V ;.;.V &.V V &.;.>.o.} >.>.>.o.;.o.&.>.&.&.;.;.;.;.;.;.;.>.<.<.;.o.3.,.,.,.o.:.-.>.1.1.;.X.>.",
"X.*.} *.Q o.Y &.} -.E Y Y Q Q B V o.o.V V <.;.B . V >.>.3.>.&.&.;.;.&.;.>.<.>.&.&.;.;.;.>.;.} 3.3.>.-.>.,.2.3.2.,.,.1.2.;.;.<.1.",
"o.&.<.>.} Q X.V #.;.&.Y } V B V ;.&.&.V >.;.V &.V B V ;.V 3.} >.&.>.;.&.o.o.&.>.;.&.V ;.;.;.} ;.>.>.<.<.-.$.,.} ;.+.*.-.-.-.<.>.",
"o.o.o.X.;.X.X.X.o.&.;.} V V B Y V V V V o.V o.V V V V V o.;.o.;.;.;.&.;.&.o.o.;.;.;.&.o.>.-.} &.;.,.#.;.,.,.,.*.;.$.+.;.} #.;.X.",
"U Y o.&.o.X.o.-.&.&.&.V X.Q Q V V V V ;.;.&.&.&.V <.V } o.;.&.3.&.&.&.;.} ;.&.;.} o.>.&.>.&.&.;.;.&.>.:.1.,.:.&.*.*.o.*.*.>.*.;.",
"Y K Y o.o.Y X.X.V V } &.V V V V V B o.V o.&.&.V V &.} &.&.;.;.;.>.} o.>.;.&.;.&.>.&.>.;.o.&.>.;.>.+.$.,.1.:.-.,.1.*.U *.*.>.<.X.",
"} b U X.-.X.Q Y } V } o.;.V o.V V &.&.V V V V V o.o.;.&.>.<.o.>.} o.&.;.&.;.;.&.o.} >.;.&.&.<.;.| >.*.-.#.-.+.,.1.:.#.-.o.-.X.-.",
"E Y U o.&.Y o.;.3.&.V B &.&.#.} o.o.;.;.&.&.V V &.} 3.;.;.;.o.&.o.o.o.;.o.&.;.o.;.;.>.>.>.&.o.&.-.2.,.-.:.-.+.:.1.:.&.;.<.2.X.o.",
">.o.V >.;.&.V } o.;.;.V V o.V o.V <.;.V V V V V o.;.;.;.&.;.V V } o.o.;.;.&.;.;.>.&.;.>.>.>.o.;.<.1.<.<.<.+.*.<.#.:.#.} 1.1.} ;.",
">.;.&.V V V } V V o.&.V } V V } <.4.;.;.V V V V V <.;.>.} >.o.;.;.>.&.;.>.o.;.>.&.;.;.&.V ;.<.>.<.<.*.@.@.=.<.*.:.<.+...*.;.+.+.",
"V &.} >.&.V } &.o.V V V ;.} } o.&.V V V V V o.<.;.V &.o.o.;.;.o.o.o.;.o.>.o.&.&.>.;.;.<.o.>.o.<.1.+.=.<.+.<.+.<.:.;.*.E &.} ;.1.",
"V ;.;.;.o.V &.;.} o.V 3.o.V V V &.&.;.o.;.V &.&.o.o.>.;.&.;.;.o.&.o.>.&.o.&.<.&.&.&.;.;.} >.;.o.+.<.<.<.<.| <.<.:.:.*.:.1.<.<.&.",
"V &.&.&.V o.&.&.&.} &.V V o.} } o.<.>.&.o.o.V o.o.&.o.;.} o.&.>.&.>.o.>.>.3.>.} &.>.;.o.o.<.>.;.<.*.+.<.<.*.*. .| *.*.:.o.E #.o.",
"V ;.V &.o.&.;.;.V &.V V V o.o.&.;.V &.;.o.;.>.&.>.;.&.;.;.;.>.&.} o.&.&.>.o.;.;.&.&.&.;.;.>.>.;.<.@.@.o.<.+.| *.;.#.*.<.} Y &.#.",
";.>.;.;.o.} 3.V &.V } V V } -.&.>.&.&.3.&.;.o.;.&.;.&.;.} &.2.X.;.o.V Y } &.3.o.o.o.;.>.;.&.&.} <.*.| o.T T } *.=.*.;.;.o.o.} &.",
">.&.&.V &.o.V &.o.o.&.V &.} V } V V V V &.o.&.o.>.&.&.o.2.;.o.-.;.o.} &.} &.;.} o.&.>.o.3.;.&.Y *.*.W o.&.Y +.=.<.;.;.-.&.L Y o.",
"V &.V V &.o.V &.L X.o.V o.Q } o.} #.&.o.} V >.-.&.-.} ;.-.-.-.-.;.:.<.<.1.;.;.*.| <.<.&.1.*.*.o.! &.E @.;.*.;.:.+.} } *.<.+.+.+.",
"&.&.&.&.V <.>.o.L O o.o.V Y &.} Y } &.o.3.o.2.&.Y <.<.#.;.;.#.E &.&.+.*.%.N @.1.:.&.+.3.*.*.;.| E <.W &.m | | :.*.*.*.*.+.*.<.*.",
"V o.&.o.V o.o.B X.U &.o.Q U E 2.V E -.} 3.&.-.&.2.&.2.2.#.V } Y n N *.;.M = N m E :.;.;.2.*.E ;.&.&.<.+.<.&.<.<.<.*.m 1.3.;.<.*.",
">.&.&.o.&.V &.o.o.o.&.Y o.Y V V &.&.2.&.;.o.&.&.#.-.-.&.o.B } E 1 M ! ;.N = M ;.;.:.1.*.=.:.<.;.X.! <.*.o.X.o.m +.*.*.&.&.m ;.+.",
";.&.V ;.;.>.&.V o.&.X.} &.Y o.#.>.&.o.&.3.>.;.;.-.#.-.;.<.X.&.o.4 @ N :.:.4 5 ;.<.&.;.;.;.} o.<.<.1.} &.#.*.| | +.;.<.*.*.&.*.<.",
">.&.;.;.V V o.V Y o.X.B o.o.:.*.&.V o.;.o.&.>.>.;.;.-.;.&.o.&.o.M + N :.2.9 4 @.:.;.&.;.m ;.;.+.@.*.&.<.&.1.o.E *.&.o.;.;.E ;.o.",
"o.&.&.V V V V V Q X.X.Y E Y o.X.V ;.&.3.&.&.} -.&.;.&.-.o.X.&.o.m % M 1.*.4 4 N :.&.&.;.;.| ;.:.| } o.<.| ;.| o.<.*.*.&.<.| &.| ",
";.&.;.&.>.o.o.V Y o.*.o.Y Y E E &.;.} o.&.&.o.>.<.;.-.-.<.&.;.*.8 % N 3.+.M > m o.| | o.m &.+.m 1.@.m m m &.o.o.&.&.<.&.<.;.E o.",
"o.;.;.} X.&.S &.&.X.*.&.U O o.Q &.>.o.V ,.,.;.;.>.-.4 - O.o.*.} M + M +.:.N 4 M m ;.&.| &.+.o.&.N | ;.:.} +.m *.*.<.+.:.1.:.&.:.",
"V ;.>.} T &.Y o.+.-.+.E #.E *.;.o.V 3.>.$.] | *.>.:.5 % ! #.-.o.q # N *.&.N - 4 &.:.;.&.&.&.:.&.;.*.1.;.:.} 1.;.:.&.m 1.;.&.+.} ",
";.V ;.o.} T } -.*.+.-.} | X.$.#.;.;.;.-./ ; / 2.*.:.$.| &.<.#.o.M + N @.*.*.% 4 o.&.o.+.&.:.:.&.:.<.@.+.:.:.| ;.;.;.;.;.:.<.:.:.",
"-.o.&.&.:.+.&.*.} | ` s X.*.:.:.&.;.>.;.v = f ;.#.&.#.;.#.<.&.-.M + N @.;.*.5 4 ;.*.o.E &.&.o.+.m o.+.:.o.;.+.| *.*.;.*.+.;.;.*.",
"&.o.#.o.#.Q &.+.W W < - a T $.+.&.&.*.*.h = v ;.+.*.+.*.&.&.&.o.M @ M <.+.*.q % M +.} &.W :.| ;.>.&.o.<.o.=.*.&.o.*.@.*.:.;.=.o.",
"&.} o.Q } V &.-.+.E h * < *.-.-.o.Q -.:.^ * t -.,.2.:.m +.| -.-.8 + M =.*.| N # M +.+.;.} W +.:.3.;.+.&.:.:.:.:.:.;.o.&.=.;.;.m ",
">.;.o.#.} Q Q ;.$.+.| & - [ :.X.Q *.-.,.N = t W &.:.N > ) >.#.-.M + M ! <.o.N @ M | o.;.| &.*.*.:.;.;.;.&.:.;.=.+.=.=.+.@.o.&.} ",
";.>.-.V X.#.} -.:.*.$.h @ y $.;.#.W #.-.v * x -.&.W y + N <.;.o.M # N ;.o.*.M > 1 &.| ;.m *.<.<.:.;.;.<.<.<.m +.&.} &.+.&.+.+.+.",
"*.<.*.X.W <.<.*.+.*.;..., 4 *.,.z ; y =.d * v ;.-.*.k @ e &.&.X.M - y ;.+.*.N > q | +.+.U | +.*.<.W X.&.*.o.&.*.} +.+.&.+.=.;.&.",
"| <.<.| +.<.<.=.;...} :.2 = P ] , * * u ~ = r +.$.*.F $ i -.-.Q m - 9 &.o.+.m @ q <.| } +.} n o.*.W } o.+.&.&.} *.&.o.*.;.o.@.+.",
"*.@.<.W E o.<.<.| *.=.+.9 = / 9 @ 9 ; 3 d ; q ,.#.:.J % l *.+.X.m > 4 } <.o.m > : *.&.&.+.+.! W ;.<.*.;.+.o.m m m +.m +.W 3.o.*.",
"W <.<.+.m +.<.<.*.:.+.&.( % 9 , 4 =.l = 6 - r -.Q -.O.; 6 :.X.#.&.5 > @.m E Y @ : #.<.<.*.+.| &.@.o.E W ;.&.3.*.*.o.;.&.m +.| m ",
"+.<.W X. .*.*.<.#.<.| #.*., = @ 1 -.' 3 , ; w Q -.X.&.3 > >.*.} U 4 > ..<.o.} : > } +.o.o.+.| <.| X.o.o.&.*.<.&.=.W ;.<.&.} m n ",
"&.*.} E *.*.*.| ;. .*.;.>.6 @ * p ;.X.( ; = 3 ,.,.:.-.> 3 o.>.>.<.M # ` &.} o.: 4 m &.o.<.&.&.&.W +.&.#.&.;.;.o.*.:.o.+.1.| &.n ",
"*.*.*.E ;.<.+.;.+.#.#.<.:.H = - R *.#.*.8 * > :.-.,.+.w ;  .#.&.#.y > N *.&.&.t > N E *.<.| &.m m m 4.<.m ;.;.X.*.<.o.W *.&.*.o.",
"+.*.<.@.<.=.*.=.#.| } <.#.@.c N $.#.*.$...y / -.:.,.:.r < } ;.&.+.q > N X.&.&.q > M #.E | +.E W E &.1.X.<.<.*.;.=.&.*.! +.&.&.;.",
"<.@.+.&.+.#.*.<.<.-.&.;.&.&.*.;.-.*.#.;.*.*.;.:.;.;.;.o.V o.&.o.} 0 @ ..} U } M 6 R | +.#.<.+.W o.o.&.&.;.+.+.} E | <.&.} &.| o.",
"<.1.*.*.*.m } <.o.&.;.&.&.X.*.&.*.X.*.-.| &.:.>.;.o.o.o.;.;.&.;.<.+.! &.&.| &.<.! +.o.<.+.+.} | *.+.| } ;.1.;.:.| +.&.&.&.! W ;.",
"X.<.<.*.<.+.o.*.&.&.&.;.&.X.X.X.} *.<.;.L } *.:.;.&.&.>.3.-.;.;.<.&.<.E <.o.<.L #.E o.U W E m 1.*.*.m :.1.*.@.:.+.<.&.m m &.;.@.",
"<.&.<.<.<.<.W X.2.V o.X.-.K Y o.#.} -.-.&.+.&.;.o.&.;.;.;.&.-.} } <.<.o.<.&.E &.<.} o.<.<.o.o.+.&.m @.1.o.*.| :.E &.+.! m W E &.",
"<.| o.} } &.o.<.&.Q } &.3.o.X.;.&.Y L K 1.-.*.&.;.&.>.;.;.o.} ;.#.} <.#.Q o.&.<.<.#.} Y E o.o.X.m n &.:.*.+.@.=.*.+.&.o.<.U E X.",
"<.&.o.| *.&.} X.#.&.} &.#.&.&.&.X.X.Q E :.&.-.&.;.>.>.o.;.&.o.>.&.<.<.&.o.<.&.o.<.<.<.} <.<.*.o.;.;.*.<.1.+.o.=.@.;.&.m ;.o.;.<.",
"} o.| &.X.<.&.E #.V #.} E #.-.;.o.&.-.L Y -.<.-.&.;.;.o.;.} o.;.| +.&.E &.<.<.o.E &.<.n } <.&.<.*.<.<.:.1.&.| :.&.| o.} } &.*.&.",
"o.<.<.o.<.o.&.<.-.#.o.E ;.&.o.<.;.-.-.o.-.o.o.-.&.&.;.>.} &.;.} &.E &.<.<.&.X.&.Y &.} <.+.o.+.o.;.&.&.+.| ;.<.1.*.+.#.o.@.X.o.;.",
"*.&.&.} &.;.o.;.&.&.;.;.;.o.o.;.<.;.<.>.>.;.;.;.;.&.;.>.;.V >.;.} } <.} o.&.&.3.;.;.o.o.:.1.1.| 1.+.&.;.;.o.*.:.&.&.@.*.W *.+.:.",
"<.o.*.o.;.;.&.;.&.} &.&.;.&.>.;.V &.&.<.>.;.;.>.;.;.>.o.3.&.<.>.E &.&.&.&.<.&.<.;.1.+.;.| ;.:.=.@.| +.1.| *.;.W *.*.+.+.+.+.:.+.",
"} n | ;.;.;.<.;.&.V ;.o.o.o.&.} ;.<.&.>.;.>.&.>.&.;.V ;.3.;.;.;.o.&.&.&.&.o.&.&.| } <.*.+.m | +.1.+.=.;.+.@.@.*.@.:.:.*.;.:.*.&.",
"&.o.<.<.<.;.o.} } ;.<.;.&.;.;.} <.V ;.;.;.&.V 3.V &.;.3.o.;.o.o.;.E &.<.<.<.<.<.&.*.:.+.;.*.&.1.@.*.1.*.*.;.<.:.| :.:.;.W ! *.;.",
";.;.;.<.&.} V o.o.>.o.V o.&.;.&.;.o.;.>.&.o.&.;.>.V &.&.o.o.V 3.o.&.;.;.&.o.&.&.o.*.&.*.| *.<.*.&.*.4.o.;.<.*.<.;.@.*.*.m &.;.;.",
"} ;.;.Y &.o.&.;.;.V o.;.} ;.;.&.;.>.&.;.>.<.V &.>.3.;.&.<.V &.>.;.&.V &.&.<.o.o.<.<.E ;.*.;.@.&.@.*.:.| *.:.1.@.o.+.| +.+.;.*.&.",
"o.-.<.o.} o.o.;.;.o.o.&.V } o.V ;.V ;.>.<.;.&.V V &.;.o.<.V o.<.} E ;.} o.&.} } <.} o.<.<.1.<.o.;.*.| ;.;.;.1.:.+.*.*.*.&.*.;.&.",
"} o.o.<.V } o.o.o.&.&.o.} } &.<.o.&.&.V &.;.;.&.>.;.o.&.>.&.&.V &.&.&.&.&.&.} E o.} } &.&.<.&.X.&.+.m :.*.:.<.=.1.1.<.! *.;.&.o.",
"&.V &.;.o.&.;.V &.;.&.} ;.o.;.;.>.o.&.&.o.&.>.&.o.o.&.;.;.;.&.&.&.&.&.&.;.o.;.;.&.&.&.<.o.o.+.} +.o.| :.=.:.:.*.:.<.:.=.:.:.o.| ",
"V &.&.;.&.>.&.o.;.V &.V V &.o.;.V V >.;.&.;.<.V V o.o.&.o.V &.<.;.&.;.o.&.&.;.&.<.} o.o.} &.<.m ! <.:.=.*.*.1.<.:.*.;.=.1.&.&.W ",
";.<.>.;.V &.<.&.;.&.o.o.V &.;.&.;.&.&.V &.o.&.;.o.&.o.<.&.;.V ;.&.;.&.E ;.V V <.&.V &.o.&.&.} *.;.;.o.:.o.1.=.o.o.| &.;.&.*.| *.",
"V ;.3.V >.<.;.V o.&.o.&.o.V o.&.V ;.;.o.&.&.;.&.&.o.V &.o.o.o.V o.o.&.;.;.;.} ;.&.o.o.&.*.<.X.<.:.=.:.=.:.1.:.o.=.@.;.*.L | ! &.",
";.;.>.&.>.&.&.&.;.;.&.&.&.V &.o.V &.;.<.;.;.&.o.o.>.;.>.<.&.;.&.V o.o.;.} o.&.&.| E &.&.m *.*.:.*.;.*.;.*.<.<.:.:.:.&.@.+.W E +.",
"&.V V ;.>.;.&.&.V ;.V &.V ;.>.;.o.V o.;.&.&.;.&.&.V <.V V &.V ;.;.o.;.<.o.&.&.&.o.} <.<.| :.1.;.W <.1.<.*.1.:.! @.;.+.;.*.+.o.E ",
"&.V ;.>.V >.&.V o.o.V o.&.&.V ;.&.;.&.&.o.V >.o.;.<.&.o.o.&.&.o.o.&.o.o.;.&.;.} E ;.1.3.*.:.1.*.@.;.:.:.;.! *.+.;.*.*.=.;.*.*.*.",
">.&.V ;.o.>.V o.&.;.;.&.;.;.;.V &.&.o.<.>.3.o.V V V ;.;.>.<.&.&.V o.o.} &.&.;.V E *.<.+.m =.m | | @.o.@.;.:.| *.=.*.W 1.*.*.*.:."
};
