/* XPM */
static char *_1743427526[] = {
/* columns rows colors chars-per-pixel */
"64 64 155 2 ",
"   c black",
".  c #070700",
"X  c #121200",
"o  c #181800",
"O  c #1E1E00",
"+  c #232300",
"@  c #060600",
"#  c #090900",
"$  c #151500",
"%  c #212100",
"&  c #262600",
"*  c #202000",
"=  c #141400",
"-  c #080800",
";  c #0E0E00",
":  c #222200",
">  c #0D0D00",
",  c #1D1D00",
"<  c #1C1C00",
"1  c #010100",
"2  c #1B1B00",
"3  c #171700",
"4  c #0C0C00",
"5  c #242400",
"6  c #050500",
"7  c #020200",
"8  c #111100",
"9  c #1F1F00",
"0  c #040400",
"q  c #252500",
"w  c #2A2900",
"e  c #605D0B",
"r  c #777412",
"t  c #2E2E00",
"y  c #524F00",
"u  c #C6BE27",
"i  c #C6C13F",
"p  c #474500",
"a  c #2C2B00",
"s  c #918A01",
"d  c #F2EA34",
"f  c #E3DF4B",
"g  c #B4AC00",
"h  c #363500",
"j  c #383700",
"k  c #DDD102",
"l  c #FCF440",
"z  c #F6F056",
"x  c #C7BD03",
"c  c #343300",
"v  c #C0B70F",
"b  c #FAF677",
"n  c #E7E14D",
"m  c #918B00",
"M  c #C0B816",
"N  c #FAF773",
"B  c #DAD11B",
"V  c #A09800",
"C  c #393800",
"Z  c #D6CD14",
"A  c #F7F47B",
"S  c #EEE635",
"D  c #DDD200",
"F  c #B7AE00",
"G  c #948E00",
"H  c #3C3B00",
"J  c #323100",
"K  c #777200",
"L  c #868100",
"P  c #DBD003",
"I  c #FBF22D",
"U  c #FDF757",
"Y  c #FDF439",
"T  c #C3BA04",
"R  c #6F6B00",
"E  c #2F2F00",
"W  c #030300",
"Q  c #2F2E00",
"!  c #6D6800",
"~  c #CDC300",
"^  c #E6DB02",
"/  c #E9E021",
"(  c #FEFB8F",
")  c #FEFA79",
"_  c #DFD406",
"`  c #ACA400",
"'  c #3E3D00",
"]  c #2E2C00",
"[  c #9F9700",
"{  c #EDE10A",
"}  c #FEF745",
"|  c #FBFEB7",
" . c #FBFA89",
".. c #B6AD02",
"X. c #999200",
"o. c #DDD203",
"O. c #FCF233",
"+. c #FDFB91",
"@. c #F9F243",
"#. c #B6AC00",
"$. c #555300",
"%. c #2D2C00",
"&. c #A29B00",
"*. c #DFD404",
"=. c #F3E90E",
"-. c #DBD103",
";. c #837D00",
":. c #434100",
">. c #454004",
",. c #A8960C",
"<. c #C3AF0E",
"1. c #A3910C",
"2. c #2F2D02",
"3. c #332B09",
"4. c #724D25",
"5. c #95672E",
"6. c #865D2A",
"7. c #563C1B",
"8. c #2D2804",
"9. c #372D0B",
"0. c #6F432D",
"q. c #895438",
"w. c #7F4E34",
"e. c #5A3A21",
"r. c #2E2905",
"t. c #302A06",
"y. c #613D25",
"u. c #825035",
"i. c #75492F",
"p. c #4C3518",
"a. c #2B2803",
"s. c #77482F",
"d. c #654226",
"f. c #362D0A",
"g. c #4D3619",
"h. c #774830",
"j. c #664227",
"k. c #362C0A",
"l. c #4A3319",
"z. c #664127",
"x. c #30260A",
"c. c #3E2619",
"v. c #784930",
"b. c #5E3A26",
"n. c #1B110B",
"m. c #22150D",
"M. c #663F29",
"N. c #4A2E1D",
"B. c #0A0604",
"V. c #0E0906",
"C. c #553422",
"Z. c #352016",
"A. c #020101",
"S. c #110A07",
"D. c #0E0806",
/* pixels */
"                                                                                                                                ",
"                                                                                                                                ",
"                                                                                                                                ",
"                                                                                                                                ",
"                                                                                                                                ",
"                                                                                                                                ",
"                                                                                                                                ",
"                                                                                                                                ",
"                                                                                                                                ",
"                                                                                                                                ",
"                                                  . X o O + + O o X @                                                           ",
"                                            # $ % & & & & & & & & & & * = -                                                     ",
"                                          ; : & & & & & & & & & & & & & & : >                                                   ",
"                                      @ , & & & & & & & & & & & & & & & & & & < @                                               ",
"                                    1 < & & & & & & & & & & & & & & & & & & & & 2 1                                             ",
"                                  1 < & & & & & & & & & & & & & & & & & & & & & & 2 1                                           ",
"                                  3 & & & & & & & & & & & & & & & & & & & & & & & & $                                           ",
"                                ; & & & & & & & & & & & & & & & & & & & & & & & & & & 4                                         ",
"                              @ 5 & & & & & & & & & & & & & & & & & & & & & & & & & & 5 6                                       ",
"                              = & & & & & & & & & & & & & & & & & & & & & & & & & & & & =                                       ",
"                            7 + & & & & & & & & & & & & & & & & & & & & & & & & & & & & + 1                                     ",
"                            X & & & & & & & & & & & & & & & & & & & & & & & & & & & & & & 8                                     ",
"                            9 & & & & & & & & & & & & & & & & & & & & & & & & & & & & & & 9                                     ",
"                          0 & & & & & & & & & & & & & & & & & & & & & & & & & & & & & & & & 0                                   ",
"                          ; & & & & & & & & & & & & & & & & & & & & & & & & & & & & & & & & ;                                   ",
"                          o & & & & & & & & & & & & & & & & & & & & & & & & & & & & & & & & 3                                   ",
"                          , & & & & & & & & & & & & & & & & & & & & & & & & & & & & & & & & ,                                   ",
"                          * & & & & & & & & & & & & & & & & & & & & & & & & & & & & & & & & *                                   ",
"                          5 & & & & & & & & & & & & & & & & & & & & & & & & & & & & & & & & +                                   ",
"                          & & & & & & & & & & & & & & & & & & & & & & & & & & & & & & & & & q                                   ",
"                          + & & & & & & & & & & & & & w e r t & & & & & & & & & & & & & & & +                                   ",
"                          * & & & & & & & & & & & & & y u i p & & & & & & & & & & & & & & & 9                                   ",
"                          , & & & & & & & & & & & & a s d f g h & & & & & & & & & & & & & & 2                                   ",
"                          3 & & & & & & & & & & & & j k l z x j & & & & & & & & & & & & & & 3                                   ",
"                          ; & & & & & & & & & & & & c v b n m & & & & & & & & & & & & & & & ;                                   ",
"                          0 & & & & & & & & & & & & c M N B V p & & & & & & & & & & & & & & 0                                   ",
"                            9 & & & & & & & & & & & C Z A S D F G H & & & & & & & & & & & O                                     ",
"                            X & & & & & & & & & J K L P I U Y T R E & & & & & & & & & & & 8                                     ",
"                            W + & & & & & & & & Q ! ~ ^ / ( ) _ ` ' & & & & & & & & & & + 1                                     ",
"                              = & & & & & & & & & ] [ { } |  ...y & & & & & & & & & & & =                                       ",
"                              0 q & & & & & & & & Q X.o.O.+.@.#.$.& & & & & & & & & & q 0                                       ",
"                                ; & & & & & & & & & %.&.*.=.-.;.:.& & & & & & & & & & ;                                         ",
"                                  o & & & & & & & & & >.,.<.1.2.& & & & & & & & & & $                                           ",
"                                  1 2 & & & & & & & & 3.4.5.6.7.8.& & & & & & & & 2                                             ",
"                                    1 2 & & & & & & & 9.0.q.w.e.r.& & & & & & & < 1                                             ",
"                                      1 2 & & & & & & t.y.u.i.p.a.& & & & & & 2                                                 ",
"                                          > : & & & & & p.s.d.f.& & & & & : ;                                                   ",
"                                            7 = * & & & g.h.j.k.& & & % = 7                                                     ",
"                                                  @ X o l.h.z.x.o X 6                                                           ",
"                                                        c.v.b.n.                                                                ",
"                                                        m.M.N.B.                                                                ",
"                                                        V.C.Z.                                                                  ",
"                                                        A.S.D.                                                                  ",
"                                                                                                                                ",
"                                                                                                                                ",
"                                                                                                                                ",
"                                                                                                                                ",
"                                                                                                                                ",
"                                                                                                                                ",
"                                                                                                                                ",
"                                                                                                                                ",
"                                                                                                                                ",
"                                                                                                                                ",
"                                                                                                                                "
};
