/* XPM */
static char *_1743427526[] = {
/* columns rows colors chars-per-pixel */
"64 64 145 2 ",
"   c black",
".  c #080200",
"X  c #160400",
"o  c #1E0600",
"O  c #210600",
"+  c #240700",
"@  c #070100",
"#  c #140400",
"$  c #260700",
"%  c #130400",
"&  c #060100",
"*  c #020000",
"=  c #170400",
"-  c #040100",
";  c #200600",
":  c #220600",
">  c #030100",
",  c #230700",
"<  c #1C0500",
"1  c #1A0500",
"2  c #110300",
"3  c #0E0300",
"4  c #0D0200",
"5  c #1F0600",
"6  c #050100",
"7  c #0F0300",
"8  c #250700",
"9  c #371A12",
"0  c #644E27",
"q  c #4C3104",
"w  c #3B1E00",
"e  c #C4B822",
"r  c #EEE74D",
"t  c #8B7809",
"y  c #2C0D00",
"u  c #3D2000",
"i  c #A49300",
"p  c #F3EA2F",
"a  c #F4F05E",
"s  c #E0D50A",
"d  c #3B1D00",
"f  c #4C3200",
"g  c #C9BC00",
"h  c #FCF445",
"j  c #FEF973",
"k  c #E5DB13",
"l  c #371900",
"z  c #4B3100",
"x  c #CABB00",
"c  c #FBF76C",
"v  c #F4EF52",
"b  c #D3C904",
"n  c #796300",
"m  c #2B0C00",
"M  c #BDB100",
"N  c #F4F072",
"B  c #F7F36C",
"V  c #E6DB06",
"C  c #C6B900",
"Z  c #B19F00",
"A  c #604700",
"S  c #917E00",
"D  c #C5B900",
"F  c #F9F026",
"G  c #FEF851",
"H  c #FEF748",
"J  c #EDE316",
"K  c #8F7A01",
"L  c #563C00",
"P  c #D2C800",
"I  c #E3D801",
"U  c #E8DE1B",
"Y  c #F6F162",
"T  c #FDFB9B",
"R  c #F5EC25",
"E  c #E0D501",
"W  c #432600",
"Q  c #C4B700",
"!  c #E8DD09",
"~  c #FEF63A",
"^  c #FDFC8F",
"/  c #FBFEB7",
"(  c #EEE51E",
")  c #B0A201",
"_  c #A49200",
"`  c #D8CD00",
"'  c #FAF029",
"]  c #FDF977",
"[  c #FDFA71",
"{  c #E7DC05",
"}  c #705A00",
"|  c #928000",
" . c #DACF03",
".. c #F0E60C",
"X. c #EBE006",
"o. c #AFA000",
"O. c #553B00",
"+. c #371A04",
"@. c #A28C0C",
"#. c #C1AD0E",
"$. c #BFAC0D",
"%. c #523507",
"&. c #280800",
"*. c #331309",
"=. c #724B25",
"-. c #95672E",
";. c #865B2A",
":. c #56321B",
">. c #2D0C04",
",. c #37160B",
"<. c #6F432D",
"1. c #895438",
"2. c #7F4E34",
"3. c #5A3421",
"4. c #2E0E05",
"5. c #301006",
"6. c #613825",
"7. c #825035",
"8. c #75472F",
"9. c #4C2818",
"0. c #2B0B03",
"q. c #77482F",
"w. c #653B26",
"e. c #36150A",
"r. c #0B0200",
"t. c #4D2919",
"y. c #774830",
"u. c #663C27",
"i. c #090200",
"p. c #4B2919",
"a. c #33150A",
"s. c #3E2619",
"d. c #784930",
"f. c #5E3A26",
"g. c #1B110B",
"h. c #22150D",
"j. c #663F29",
"k. c #4A2E1D",
"l. c #0A0604",
"z. c #0E0906",
"x. c #553422",
"c. c #352016",
"v. c #020101",
"b. c #110A07",
"n. c #0E0806",
/* pixels */
"                                                                                                                                ",
"                                                                                                                                ",
"                                                                                                                                ",
"                                                                                                                                ",
"                                                                                                                                ",
"                                                                                                                                ",
"                                                                                                                                ",
"                                                                                                                                ",
"                                                                                                                                ",
"                                                                                                                                ",
"                                                                                                                                ",
"                                                                                                                                ",
"                                                                                                                                ",
"                                                                                                                                ",
"                                                                                                                                ",
"                                                  . X o O + + O o X .                                                           ",
"                                            @ # O $ $ $ $ $ $ $ $ $ $ O % &                                                     ",
"                                          * = $ $ $ $ $ $ $ $ $ $ $ $ $ $ = *                                                   ",
"                                        - ; $ $ $ $ $ $ $ $ $ $ $ $ $ $ $ $ ; -                                                 ",
"                                      & : $ $ $ $ $ $ $ $ $ $ $ $ $ $ $ $ $ $ : &                                               ",
"                                    > , $ $ $ $ $ $ $ $ $ $ $ $ $ $ $ $ $ $ $ $ : *                                             ",
"                                    < $ $ $ $ $ $ $ $ $ $ $ $ $ $ $ $ $ $ $ $ $ $ 1                                             ",
"                                  2 $ $ $ $ $ $ $ $ $ $ $ $ $ $ $ $ $ $ $ $ $ $ $ $ 2                                           ",
"                                  : $ $ $ $ $ $ $ $ $ $ $ $ $ $ $ $ $ $ $ $ $ $ $ $ :                                           ",
"                                3 $ $ $ $ $ $ $ $ $ $ $ $ $ $ $ $ $ $ $ $ $ $ $ $ $ $ 4                                         ",
"                                5 $ $ $ $ $ $ $ $ $ $ $ $ $ $ $ $ $ $ $ $ $ $ $ $ $ $ o                                         ",
"                              6 $ $ $ $ $ $ $ $ $ $ $ $ $ $ $ $ $ $ $ $ $ $ $ $ $ $ $ $ -                                       ",
"                              7 $ $ $ $ $ $ $ $ $ $ $ $ $ $ $ $ $ $ $ $ $ $ $ $ $ $ $ $ 7                                       ",
"                              1 $ $ $ $ $ $ $ $ $ $ $ $ $ $ $ $ $ $ $ $ $ $ $ $ $ $ $ $ 1                                       ",
"                              o $ $ $ $ $ $ $ $ $ $ $ $ $ $ $ $ $ $ $ $ $ $ $ $ $ $ $ $ o                                       ",
"                              O $ $ $ $ $ $ $ $ $ $ $ $ $ $ $ $ $ $ $ $ $ $ $ $ $ $ $ $ O                                       ",
"                              8 $ $ $ $ $ $ $ $ $ $ $ $ 9 0 q $ $ $ $ $ $ $ $ $ $ $ $ $ 8                                       ",
"                              8 $ $ $ $ $ $ $ $ $ $ $ w e r t y $ $ $ $ $ $ $ $ $ $ $ $ 8                                       ",
"                              O $ $ $ $ $ $ $ $ $ $ u i p a s d $ $ $ $ $ $ $ $ $ $ $ $ O                                       ",
"                              o $ $ $ $ $ $ $ $ $ $ f g h j k l $ $ $ $ $ $ $ $ $ $ $ $ o                                       ",
"                              1 $ $ $ $ $ $ $ $ $ $ z x c v b n m $ $ $ $ $ $ $ $ $ $ $ 1                                       ",
"                              7 $ $ $ $ $ $ $ $ $ $ z M N B V C Z $ $ $ $ $ $ $ $ $ $ $ 7                                       ",
"                              6 $ $ $ $ $ $ $ $ $ A S D F G H J K $ $ $ $ $ $ $ $ $ $ $ -                                       ",
"                                5 $ $ $ $ $ $ $ $ L P I U Y T R E $ $ $ $ $ $ $ $ $ $ o                                         ",
"                                3 $ $ $ $ $ $ $ $ W Q ! ~ ^ / ( ) $ $ $ $ $ $ $ $ $ $ 4                                         ",
"                                  : $ $ $ $ $ $ $ $ _ ` ' ] [ { } $ $ $ $ $ $ $ $ $ :                                           ",
"                                  7 $ $ $ $ $ $ $ $ w |  ...X.o.O.$ $ $ $ $ $ $ $ $ 7                                           ",
"                                    < $ $ $ $ $ $ $ $ +.@.#.$.%.&.$ $ $ $ $ $ $ $ 1                                             ",
"                                    > : $ $ $ $ $ $ $ *.=.-.;.:.>.$ $ $ $ $ $ $ , *                                             ",
"                                      & : $ $ $ $ $ $ ,.<.1.2.3.4.$ $ $ $ $ $ : &                                               ",
"                                        - ; $ $ $ $ $ 5.6.7.8.9.0.$ $ $ $ $ ; -                                                 ",
"                                          * = $ $ $ $ $ 9.q.w.e.$ $ $ $ $ = *                                                   ",
"                                              r.O $ $ $ t.y.u.e.$ $ $ O r.                                                      ",
"                                                  i.= o p.y.u.a.o X .                                                           ",
"                                                        s.d.f.g.                                                                ",
"                                                        h.j.k.l.                                                                ",
"                                                        z.x.c.                                                                  ",
"                                                        v.b.n.                                                                  ",
"                                                                                                                                ",
"                                                                                                                                ",
"                                                                                                                                ",
"                                                                                                                                ",
"                                                                                                                                ",
"                                                                                                                                ",
"                                                                                                                                ",
"                                                                                                                                ",
"                                                                                                                                ",
"                                                                                                                                ",
"                                                                                                                                "
};
