/* XPM */
static char * south1_xpm[] = {
"64 64 319 2",
"  	c #555555",
". 	c #5A5A5A",
"+ 	c #595959",
"@ 	c #565656",
"# 	c #525252",
"$ 	c #484848",
"% 	c #444444",
"& 	c #585858",
"* 	c #5D5D5D",
"= 	c #5B5B5B",
"- 	c #545454",
"; 	c #4A4A4A",
"> 	c #434343",
", 	c #474747",
"' 	c #606060",
") 	c #616161",
"! 	c #5F5F5F",
"~ 	c #5C5C5C",
"{ 	c #4D4D4D",
"] 	c #515151",
"^ 	c #4E4E4E",
"/ 	c #454545",
"( 	c #494949",
"_ 	c #646464",
": 	c #656565",
"< 	c #636363",
"[ 	c #6F6F6F",
"} 	c #5E5E5E",
"| 	c #3A3A3A",
"1 	c #6D6D6D",
"2 	c #696969",
"3 	c #6A6A6A",
"4 	c #686868",
"5 	c #666666",
"6 	c #404040",
"7 	c #464646",
"8 	c #777777",
"9 	c #4F4F4F",
"0 	c #4C4C4C",
"a 	c #505050",
"b 	c #4B4B4B",
"c 	c #303030",
"d 	c #414141",
"e 	c #3E3E3E",
"f 	c #313131",
"g 	c #3C3C3C",
"h 	c #3F3F3F",
"i 	c #333333",
"j 	c #2F2F2F",
"k 	c #717171",
"l 	c #282828",
"m 	c #2A2A2A",
"n 	c #424242",
"o 	c #343434",
"p 	c #2D2D2D",
"q 	c #3D3D3D",
"r 	c #252525",
"s 	c #6E6E6E",
"t 	c #2C2C2C",
"u 	c #575757",
"v 	c #3B3B3B",
"w 	c #383838",
"x 	c #393939",
"y 	c #363636",
"z 	c #242424",
"A 	c #D0B852",
"B 	c #373737",
"C 	c #2B2B2B",
"D 	c #323232",
"E 	c #D0B751",
"F 	c #232323",
"G 	c #2E2E2E",
"H 	c #626262",
"I 	c #292929",
"J 	c #353535",
"K 	c #272727",
"L 	c #262626",
"M 	c #CFB750",
"N 	c #CEB21A",
"O 	c #CFB424",
"P 	c #CEB31E",
"Q 	c #4E53B1",
"R 	c #CDB112",
"S 	c #CDB111",
"T 	c #CDB213",
"U 	c #CDB214",
"V 	c #202020",
"W 	c #212121",
"X 	c #C4AA1A",
"Y 	c #091A8F",
"Z 	c #101010",
"` 	c #131313",
" .	c #0F0F0F",
"..	c #C4AA12",
"+.	c #191919",
"@.	c #222222",
"#.	c #08198B",
"$.	c #0A1B94",
"%.	c #0A1C98",
"&.	c #0A1D9A",
"*.	c #0A1D99",
"=.	c #0A1B93",
"-.	c #091A8D",
";.	c #08198A",
">.	c #091B93",
",.	c #091B92",
"'.	c #091A8E",
").	c #0A1C96",
"!.	c #0B1D9A",
"~.	c #535353",
"{.	c #0A1C97",
"].	c #0B1E9D",
"^.	c #0C1FA3",
"/.	c #0C20A7",
"(.	c #0D20A8",
"_.	c #0C20A5",
":.	c #0B1EA0",
"<.	c #0B1D9B",
"[.	c #0B1E9F",
"}.	c #0C20A6",
"|.	c #0D21A9",
"1.	c #0D21AA",
"2.	c #0C1FA4",
"3.	c #0C1FA1",
"4.	c #0B1E9E",
"5.	c #0B1D9C",
"6.	c #0C1FA2",
"7.	c #0C20A8",
"8.	c #091B8F",
"9.	c #081987",
"0.	c #0B1D9D",
"a.	c #0B1E9C",
"b.	c #07167F",
"c.	c #010327",
"d.	c #030A4C",
"e.	c #09198D",
"f.	c #0A1C94",
"g.	c #071579",
"h.	c #050F62",
"i.	c #040D57",
"j.	c #040C55",
"k.	c #010225",
"l.	c #000000",
"m.	c #010222",
"n.	c #081885",
"o.	c #0D20A7",
"p.	c #0B1C94",
"q.	c #040D56",
"r.	c #00021C",
"s.	c #00010B",
"t.	c #000003",
"u.	c #000001",
"v.	c #01021C",
"w.	c #081783",
"x.	c #1E1E1E",
"y.	c #061473",
"z.	c #010428",
"A.	c #05126F",
"B.	c #1F1F1F",
"C.	c #07167C",
"D.	c #01021B",
"E.	c #010325",
"F.	c #0B1D99",
"G.	c #0C20A4",
"H.	c #0A1B95",
"I.	c #05126D",
"J.	c #041061",
"K.	c #0D21A8",
"L.	c #040E5F",
"M.	c #000112",
"N.	c #010532",
"O.	c #0C1EA0",
"P.	c #05116A",
"Q.	c #00010E",
"R.	c #00010A",
"S.	c #061477",
"T.	c #091A8A",
"U.	c #010216",
"V.	c #030842",
"W.	c #040F5D",
"X.	c #040D59",
"Y.	c #010219",
"Z.	c #010328",
"`.	c #05126C",
" +	c #01042B",
".+	c #081882",
"++	c #07167D",
"@+	c #00010D",
"#+	c #000004",
"$+	c #07157A",
"%+	c #02063A",
"&+	c #030A49",
"*+	c #051168",
"=+	c #01042E",
"-+	c #0A1C95",
";+	c #0C1E9F",
">+	c #06136F",
",+	c #010326",
"'+	c #02042B",
")+	c #040F62",
"!+	c #010220",
"~+	c #00010F",
"{+	c #040E5C",
"]+	c #6B6B6B",
"^+	c #05116B",
"/+	c #000002",
"(+	c #000108",
"_+	c #081886",
":+	c #09198A",
"<+	c #091B91",
"[+	c #07157B",
"}+	c #01011C",
"|+	c #051062",
"1+	c #091A90",
"2+	c #061371",
"3+	c #0A1D9B",
"4+	c #030C55",
"5+	c #081784",
"6+	c #030B4F",
"7+	c #000008",
"8+	c #000110",
"9+	c #1C1C1C",
"0+	c #0C1F9F",
"a+	c #05126A",
"b+	c #01042C",
"c+	c #051169",
"d+	c #0A1D98",
"e+	c #010224",
"f+	c #061372",
"g+	c #0A1B92",
"h+	c #061472",
"i+	c #030C53",
"j+	c #020741",
"k+	c #020743",
"l+	c #091987",
"m+	c #0B1FA1",
"n+	c #1A1A1A",
"o+	c #041A99",
"p+	c #051EAA",
"q+	c #1D1D1D",
"r+	c #2B2D5C",
"s+	c #1F2486",
"t+	c #0E21AA",
"u+	c #212695",
"v+	c #313264",
"w+	c #3B3C50",
"x+	c #383A7E",
"y+	c #0017A9",
"z+	c #0C21AA",
"A+	c #2D2F7E",
"B+	c #36374E",
"C+	c #3C3C3D",
"D+	c #747474",
"E+	c #404045",
"F+	c #2D2F62",
"G+	c #1F2699",
"H+	c #0E22AA",
"I+	c #1D269C",
"J+	c #2B2D68",
"K+	c #2C2C33",
"L+	c #2A2A2C",
"M+	c #252647",
"N+	c #272A7C",
"O+	c #0A20AA",
"P+	c #001CAA",
"Q+	c #222580",
"R+	c #313252",
"S+	c #333334",
"T+	c #33333B",
"U+	c #252663",
"V+	c #1C26A3",
"W+	c #1C28A6",
"X+	c #1F2169",
"Y+	c #31313E",
"Z+	c #27284E",
"`+	c #222681",
" @	c #1324AA",
".@	c #2F338D",
"+@	c #262754",
"@@	c #272629",
"#@	c #202030",
"$@	c #1D2062",
"%@	c #1527AB",
"&@	c #0B20AA",
"*@	c #001BAA",
"=@	c #2E3174",
"-@	c #393A4A",
";@	c #18181A",
">@	c #1E1E22",
",@	c #1D1F4B",
"'@	c #1C2187",
")@	c #1B2190",
"!@	c #212356",
"~@	c #313134",
"{@	c #30326C",
"]@	c #1C2BAB",
"^@	c #0019AA",
"/@	c #393B7D",
"(@	c #424254",
"_@	c #707070",
":@	c #474849",
"<@	c #3B3B5A",
"[@	c #232891",
"}@	c #2A2F9C",
"|@	c #45466F",
"1@	c #4A4A4F",
"2@	c #21223A",
"3@	c #23266F",
"4@	c #1C28A7",
"5@	c #2B2E80",
"6@	c #343552",
"7@	c #333233",
"8@	c #29292F",
"9@	c #2F3157",
"0@	c #393A6D",
"a@	c #2E2E3B",
"b@	c #1B1B1B",
"c@	c #767676",
"d@	c #676767",
"  . .       + @   # $ % # & @           * * * * =       - ; > , ' ) ) ! ! ~ @ @ - { { - - = @ ] ] @ &   =     ^ / ( - !         ",
"= _ : ' _ = _ ~ < @ $ > ) [ ' ' ~ ! ! . ) } } ) . ! } _ = { | ; 1 2 3 4 _ 5 ) 5 = < < ~ = & ~ @ = * ! < : } ) ; 6 7 8 1 ' < ! * ",
"( 9 0 ^ a ( b ; 0 | c d } : ; ( ( % ; ( / 0 9 7 7 ( ( # e f g b _ a 0 7 9 $ 6 ] h 9 - % ^ 6 ^ h # % ; { b b / i j , k & , ] 0 ; ",
"; $ 7 { g b 0 e , l m d ~ = a ^ / % 7 / , n > e 6 / n 6 o p g ; ) n h e ; q 6 ; 6 ( ; | 0 n $ e ; h d ( $ n g r j , s , b 7 n { ",
"d { % > % / 6 6 , t l d u = 0 0 6 % b v d 6 7 w % 6 g $ o l f / u d n ( d e 6 x b 7 7 d { / $ y b v e ( x 7 e z j , 4 ^ 6 % d b ",
"7 > / ( y 7 x 6 x m l A # @ $ % y > 6 q > B d w h h h v o C f / & > w v > x B v x % d D 7 B d 6 % B q v E 6 i F G d H $ , d 6 % ",
"I o B J r m K l G L M N O P N Q Q Q Q Q Q Q Q Q Q Q Q Q Q Q Q Q Q Q Q Q Q Q Q Q Q Q Q Q Q Q Q Q Q R S T U M r V C q   6 i c L C ",
"m t G G m m m m W W K X J G W Y Y Y Y Y Y Y Y Y Y Y Y Y Y Y Y Y Y Y Y Y Y Y Y Y Y Y Y Y Y Y Y Y Y Z `  ...+.@., e p f j j w J m ",
"u ] ( 7 a a a , / / / % B / % #.#.Y $.%.&.*.=.-.;.;.#.-.Y >.$.,.'.;.;.;.'.).*.!.!.!.!.&.%.).$.,.>.| w J / C { $ 7 / / ^ 9 ; / % ",
"s + } @ # @ ~.~.@ #   b ( % $ %.{.*.].^./.(._.:.<.%.).).{.!.<.!.{.).{.*.[.}.|.1.|.|./.2.3.4.5.!.<.$ d ,   - - - -     ~.- ; , ; ",
": % b n 6 d > n h > 0 6 r w / 5.%.{.%.].2.(.(.}.6.].%.).).{.{.{.).{.*.4.2.7.7./.}.2.3.].*.%.{.<.[.o c w 6 n g $ 6 e ( ; g L e $ ",
"H { 7 / x / 6 d n h $ B r j e 3.!.{.).%.[.}.|.|./.^.].*.*.{.{.{.%.!.4.^.8.9.6.:.4.5.!.{.).).%.4.2.G B i > e d d n h / % i L i n ",
") 6 ( d g h q b n 6 d J r j 6 _.[.*.{.{.<.6./.|.|.7._.6.[.].0.5.<.a.a.b.c.d.e.*.%.{.{.).).%.].^./.o G B 6 g 6 g 0 h / g D L i % ",
") 7 h J e 6 g $ o d ( w r J b }.^.4.*.{.*.].^./.|.1.|.(.}.f.g.h.i.j.j.k.l.m.n.{.{.{.{.*.!.4.^./.|.G t c i q > w $ o 7 , i r g ^ ",
"# J m L p j c o C t G I L x 0 6._.2.4.*.{.%.].^.7.|.o.p.q.r.s.t.l.u.u.l.l.v.w.*.!.5.].:.6.}./.(.7.@.@.x.L p D G o m c m l m e ^ ",
"x t L m t m z F C C r W C g h ].^.}.2.].%.).%.4.^.:.y.z.l.l.l.l.l.l.l.l.l.u.A.[.6.^._./.(.|./._.^.+.x.B.z z I C m F I i h x > % ",
"~.* 9 ; @ @ @ { a 0 / / , ] @ &.:.}./.3.!.{.{.*.].].C.D.l.l.l.l.l.l.l.l.l.l.E.F.(.|.|.1.|.(.G.[.<.c e > ^ @ a - ( % / 9 # ] n d ",
") 1 ) ) . ! ! . u     u =     {.5.^./._.:.!.%.{.H.I.D.l.l.l.l.l.l.l.l.l.l.l.l.J.|.1.1.1.K._.[.!.*.] { 7 ' ~ ~ ' + @ @ - + ! / a ",
"@ 5 ( ] 7 b 6 6 9 ( 7 $ # 6 7 {.*.4._./.}.3.].).L.M.l.l.l.l.l.l.l.l.l.l.l.l.l.N.F.1.1.|.}.:.*.{.%.b % o a ; / > d ^ ( 7 b @ n 9 ",
"] ~.% { g g d x b d 7 7 ; B ( %.{.!.3./.K./.O.P.Q.l.l.l.l.l.l.l.l.l.l.l.l.l.l.R.S.|.|./.6.<.{.).*.> J o b q B / | , / > $ 9 7 = ",
"# @ / b j n y h b q | b e | v <.{.%.].^.7.|.T.U.l.l.l.l.l.l.l.l.l.l.l.l.l.l.l.l.V.3./.^.].%.{.{.5.n g j ( w g x 6 ( g v b d / . ",
"@ - J n c | d D n v v 7 g w / :.*.{.*.4.2.7.W.X.Y.l.l.l.l.l.l.l.l.Z.`. +u.l.l.l.l..+^.5.%.).{.<.3., B z n D w > D h d y , 6 q ^ ",
"9 ~.g f D c c p f o D y D D p 2.4.*.{.*.4.^.[.++@+l.l.l.l.l.l.l.#+$+K.'.%+l.l.l.l.&+].%.).{.!.:.}.h | r f D j c p D J f y o g $ ",
", ( y c j j j j G j c c f G t 7.^.4.*.{.*.5.].*+l.l.l.l.l.l.l.l.=+-+1.|.;+>+,+l.l.'+*.).).*.[._.|.o f z c j j j G G j c f D h % ",
"+ & & & ] 0 0 , 6 g ; : 5 ~ ~ |./.^.].*.{.{.H.)+l.l.l.l.l.l.l.l. +$.1.1.1.|.++!+~+{+{.{.%.].2.K.1.d 6 6 @ a ( ^ / % 0   . ~.a = ",
"@ u u @ = & = u ; e 6 ]+* + . 1.|./.^.].%.).-+^+/+l.l.l.l.l.l.l.(+_+1.1.|./.O.:+w.<+{.*.4.^.(.1.1.q g h & u @ = & . + / 6 q ]+' ",
"{ / { ; ~.; 9 d r w % ]+6 > e 1.1.|./.^.5.{.).[+}+l.l.l.l.l.l.l.l.|+o.(._.3.].*.).).%.4.2.(.|.1.1.D t y 7 ; b ~.$ a 7 K D > ]+/ ",
"n d b 6 b 6 b x r y q 4 x { n 1.1.1.|./.3.<.{.1+%+l.l.l.l.l.l.l.l.Y.p.2.4.&.%.{.{.*.].^.(.1.1.1.1.f t G h b n b h ; 6 z j h 5 e ",
"0 h $ $ { n d B l g $ 1 % 6 6 1.1.1.1.|./.6.].<.2+/+l.l.l.l.l.l.l.l.i.4.*.).{.%.5.:.2.7.|.1.1.1.1.C C y 6 > ( { / 6 g r w 7 1 b ",
"/ q , q / d / w l g > ) w 0 o 1.1.1.1.1.|.(._.6.3+4+l.l.l.l.l.l.l.l.m.5+{.).%.].6.}.|.1.1.1.1.1.1.B G c e % d % d % q r w n H | ",
"I t o p p D m I r w % ~.i h o 1.1.1.1.1.1.1.|.7.}.!.6+7+l.l.l.l.l.l.8+>+{.%.].^./.|.1.1.1.1.1.1.1.t W 9+m i j C o m m W i >   y ",
"C C C C C C t m m J b 0 G L K 1.1.1.1.1.1.1.1.1.|.|.0+a+b+l.l.l.l.l.R.c+d+4.^.7.|.1.1.1.1.1.1.1.1.@.x.x.m C C C C t m m j $ ^ y ",
"^ . # ~.; ^   $ / / { ] / / 0 1.1.1.1.1.1.1.1.1.1.1.1.(.-+a+e+l.l.l.8+f+[.2.(.|.1.1.1.1.1.1.1.1.1.q f o + @ ] b 0   b / / ; - 9 ",
"  2 = . * + } ~.  -   ] ~.- ~.1.1.1.1.1.1.1.1.1.1.1.1.1.(.6.g+h+i+j+k+l+_.K.1.1.1.1.1.1.1.1.1.1.1.6 i f ]+~ . * & } @ - @ ~.b % ",
"& } 6 7 n g ( > n / 6 i ( d % (.1.1.1.1.1.1.1.1.1.1.1.|./.m+*.%.*.*.a._.K.1.1.1.1.1.1.1.1.1.1.1.1.p +.o _ / n / J b % d ; v D f ",
"  = B ; y q y ( x ( q e ; g % _.(.1.1.1.1.1.1.1.1.1.1.1.(.2.4.].:.2.7.|.1.1.1.1.1.1.1.1.1.1.1.1.1.c n+f < g / x e w / x b e t m ",
"^ } > ; 6 e % 6 7 , , J % d % :._.(.|.1.1.1.1.1.1.1.1.1.|./._._.}.(.|.1.1.1.1.1.1.1.1.1.1.1.1.1.1.p n+t < , , % B $ h % b n B m ",
"@ * q > > e q ( v , > e b y d !.[.2./.|.1.1.1.1.1.1.1.1.1.|.|.|.|.1.1.1.1.1.1.1.1.1.1.1.1.1.1.1.1.K n+i H % h % v 6 / | b 6 J m ",
"# ^ J g f J J | y y f D w f G {.!.4.6.}.K.1.1.1.1.1.1.1.1.1.1.1.1.1.1.1.1.1.1.1.1.1.1.1.1.1.1.1.1.W n+D ~.w x D y o | y w f K z ",
"h > G j j c j j G c B J m z z o+{.*.5.:.G./.|.1.1.1.1.1.1.1.1.1.1.1.1.1.1.1.1.1.1.1.1.1.1.1.1.1.p+q+x.I $ G j j c j j j G y m V ",
". # # + # @ a a ] * : . # a ( r+s+{.%.!.4.6.}.K.1.1.1.1.1.1.1.1.1.1.1.1.1.1.1.1.1.1.1.1.1.1.t+u+v+g g d ^ @ @ ~.@ a #   ^ ; -   ",
"+ = = } 9 # - # . ~.]   # a 7 y w+x+y+z+1.1.1.1.1.1.1.1.1.1.1.1.1.1.1.1.1.1.1.1.1.1.1.1.z+y+A+B+C+| v 6 * & } ] - ] # > 6 6 D+) ",
"7 q / % n g n B a w B n B v r c q E+F+G+H+1.1.1.1.1.1.1.1.1.1.1.1.1.1.1.1.1.1.1.1.1.1.1.I+J+K+f p f L i 6 6 , > v d % I y , s / ",
"b y x $ | 6 x , q x % J > i l i v 6 L+M+N+O+z+1.1.1.1.1.1.1.1.1.1.1.1.1.1.1.1.1.1.1.P+Q+R+S+l p L L p 6 | o , v n B v L c , s e ",
"q 6 e J | > > h 7 i | B 7 p l B e % l r T+U+V+t+1.1.1.1.1.1.1.1.1.1.1.1.1.1.1.1.1.W+X+Y+t l D I D L | x / w v J $ q h z G / 1 9 ",
"x / h o d h q w 6 g e > | | K g ; > p l J K Z+`+ @1.1.1.1.1.1.1.1.1.1.1.1.1.1.z+.@+@@@C F D D I m o w i ( v w h n w > l C w 4 g ",
"c c i t m G t j y G c m c l l 6 0 d B.9+z V B.#@$@%@&@1.1.1.1.1.1.1.1.1.1.1.*@=@-@;@+.L q+z z W t C c G i G c I j m j @.m > ' D ",
"t C t C t C t C C C C t t m m d 0 6 m L B.x.x.x.>@,@'@ @1.1.1.1.1.1.1.1.1.)@!@~@i 9+x.x.x.q++.9+B.L C t C t C t C t K @.r h b D ",
"9 + + - - - + @ - # , % ] u   - - ~.a 0 0 / > n d g -@{@]@&@1.1.1.1.z+^@/@(@h e g y y v q 7 7 ( ^ 9 6 ; @ ~ - - - u u - ~.; % { ",
"u _@: ' _ = _ ~ < @ $ > ) [ ' ! = } } & & { 7 7 d % % :@<@[@ @1.1.1.}@|@1@b 7 ( n , $ / ( 0 @ - . # ; , _@4 ' : = H ! H = b 6 ^ ",
"@ _ b ^ a ( b ; 0 | c d } : ; $ $ % ( $ > / d J D o o | C 2@3@4@1.5@6@7@w i p | t x h w / q { e ] g i / 2 9 0 ] ( b ; { e D g ^ ",
"  + 7 { g b 0 e , l m d ~ = a { / % 7 / 7 d e o D i j p z B.8@9@0@a@t C J C p J G w e J ; n , q ( c C / H > { q ( 0 6 ( t I g ^ ",
"~.& > > % / 6 6 , t l d u = 0 0 6 % b v d 6 7 y e J G J r b@@.f h G j o G t p m q e n d { / $ y b y m % } 7 d / d 7 e ( f L g { ",
"] ~.% ( y 7 x 6 x m l q # @ $ % y > 6 q > B d w e v w c K x.@.f 6 c K I c l I c i n d D 7 B d 6 % D l % + % ( B / e q v p L w , ",
"b / y J r m K l G L I o 0 h J G m D G i p m j m G r I L W q+F c J @.W F F z l t p j C m D m C i m m l n $ | J K I I L G l K f 7 ",
"/ h G G m m m m W W K J 0 6 j p p m r r r m t z W W l m m m v 0 g j c c c j j G j m L L r m p G m m m d > G j m m m C z @.r f b ",
"* ; ; 7 a a a , / / / ^ > / % @ u - ^ ( { & # # , b # a a a @ ; # & & & @ 9 % w , . u @ - u ] ~ b ; 7 9 ] a ; / / { & ] ; v g * ",
"5 . } @ # @ ~.~.@ #   @ ( % $ c@) H * ' u ~ + @ ! + u # ~.    ~.@ @ - . = a $ 6 . _@' } = } * d@. * + # @ # ~.u a . * @ ( h d c@",
"$ / b n 6 d > n h > 0 6 r w / [ ; ; / 9 > $ n 7 7 h $ e $ / d , 0 d / { ~.J G n @ H 7 0 d 7 b ( , 7 , h / e / 6 h a ~.> K g % 1 ",
"q ^ 7 / x / 6 d n h $ B r j e 3 6 $ / % 6 | 6 g $ | / n q B h > ( J h ; v G m g - @ 7 ^ ( > % | { ( / w $ q n % x ^ n y r i d 5 ",
"( d ( d g h q b n 6 d J r j 6 ]+6 0 > ; y % q B , B ( h q > e $ q q e $ ; p K o # + / b e 0 6 $ > / / q q h , 7 x ^ { | z p e _ ",
"v , h J e 6 g $ o d ( w r J b 4 9 | h > d w J v w w / v w 6 q h J n e g 7 G V J # 9 7 7 f % h w 0 x | q q d % B q , / x W m n ~ ",
"t y m L p j c o C t G I L x 0 . q o f f x o i f y G y c B j f i i j i G D L V e ; b i c r c f m x m K t p D D p m i D m V j 6 @ ",
"m m r m m l @.@.m C z V C g h ( w D G G G G D J B B j t m z z z r t t L C m j n { n m p m C C m m l l m m @.@.m C l m m C | ; { "};
