/* XPM */
static char * north1_xpm[] = {
"64 64 100 2",
"  	c #272727",
". 	c #2A2A2A",
"+ 	c #292929",
"@ 	c #282828",
"# 	c #252525",
"$ 	c #202020",
"% 	c #1E1E1E",
"& 	c #2B2B2B",
"* 	c #262626",
"= 	c #212121",
"- 	c #1D1D1D",
"; 	c #1F1F1F",
"> 	c #2D2D2D",
", 	c #2C2C2C",
"' 	c #232323",
") 	c #2F2F2F",
"! 	c #2E2E2E",
"~ 	c #353535",
"{ 	c #181818",
"] 	c #333333",
"^ 	c #313131",
"/ 	c #323232",
"( 	c #303030",
"_ 	c #1B1B1B",
": 	c #393939",
"< 	c #242424",
"[ 	c #222222",
"} 	c #131313",
"| 	c #1C1C1C",
"1 	c #1A1A1A",
"2 	c #141414",
"3 	c #191919",
"4 	c #151515",
"5 	c #363636",
"6 	c #0F0F0F",
"7 	c #101010",
"8 	c #121212",
"9 	c #0D0D0D",
"0 	c #343434",
"a 	c #111111",
"b 	c #171717",
"c 	c #161616",
"d 	c #695C25",
"e 	c #685B25",
"f 	c #0C0C0C",
"g 	c #0E0E0E",
"h 	c #685B24",
"i 	c #675908",
"j 	c #68590D",
"k 	c #68590A",
"l 	c #685908",
"m 	c #5C5C5C",
"n 	c #675804",
"o 	c #675805",
"p 	c #0B0B0B",
"q 	c #625508",
"r 	c #494949",
"s 	c #040404",
"t 	c #050505",
"u 	c #625405",
"v 	c #070707",
"w 	c #474747",
"x 	c #4C4C4C",
"y 	c #4F4F4F",
"z 	c #484848",
"A 	c #4A4A4A",
"B 	c #4B4B4B",
"C 	c #4D4D4D",
"D 	c #505050",
"E 	c #4E4E4E",
"F 	c #515151",
"G 	c #545454",
"H 	c #575757",
"I 	c #565656",
"J 	c #535353",
"K 	c #525252",
"L 	c #585858",
"M 	c #555555",
"N 	c #444444",
"O 	c #454545",
"P 	c #464646",
"Q 	c #434343",
"R 	c #424242",
"S 	c #000000",
"T 	c #010101",
"U 	c #090909",
"V 	c #0A0A0A",
"W 	c #030303",
"X 	c #404040",
"Y 	c #414141",
"Z 	c #3C3C3C",
"` 	c #020202",
" .	c #3E3E3E",
"..	c #3B3B3B",
"+.	c #3F3F3F",
"@.	c #3A3A3A",
"#.	c #595959",
"$.	c #3D3D3D",
"%.	c #080808",
"&.	c #383838",
"  . .       + @   # $ % # +             & & & & .       * = - ; > > > , , & @ @ * ' ' * * .   # #   +   .     ' % = * ,         ",
". ) ) > ) . ) & ! @ $ - > ~ > > & , , . > , , > . , , ) . ' { = ] ^ / ^ ) ( > ( . ! ! & . + & @ . & , ! ) , > = _ ; : ] > ! , & ",
"= < [ ' < = [ = [ { } | , ) = = = % = = % [ < ; ; = = # 1 2 3 [ ) < [ ; < $ | # _ < * % ' _ ' _ # % = ' [ [ % 4 } ; 5 + ; # [ = ",
"= $ ; ' 3 [ [ 1 ; 6 7 | & . < ' % % ; % ; - - 1 | % - _ 4 8 3 = > - _ 1 = 1 _ = _ = = { [ - $ 1 = _ | = $ - 3 9 } ; 0 ; [ ; - ' ",
"| ' % - % % | | ; a 6 | @ . [ [ | % [ 3 | _ ; b % _ 3 $ 4 6 2 % @ | - = | 1 _ { [ ; ; | ' % $ c [ 3 1 = { ; 1 9 } ; ^ ' | % | [ ",
"; - % = c ; { _ { 7 6 d # @ $ % c - | 1 - b | b _ _ _ 3 4 a 2 % + - b 3 - { b 3 { % | 2 ; b | _ % b 1 3 e _ 4 f 8 | ! $ ; | _ % ",
"6 4 b c 9 7 g 6 8 g h i j k l m m m m m m m m m m m m m m m m m m m m m m m m m m m m m m m m m m n n o o h 9 p a 1   _ 4 } g a ",
"7 a 8 8 7 7 7 7 p p g q c 8 p r r r r r r r r r r r r r r r r r r r r r r r r r r r r r r r r r r s t s u v f ; 1 8 2 } } b c 7 ",
"@ # = ; < < < ; % % % % b % % w w r x y y y x z w w w z A B x B r w w w r C y D D D D y y C x B B 3 b c % 7 ' $ ; % % ' < = % % ",
"0 + , @ #   * * @ #   = = % $ E E y F G H H I J D y C C E y D y E C E y K I L L L L H M J K D y D $ | ;   * * * *     * * = ; = ",
") % [ - | | - - _ - [ | 9 b % F y E E F M H H I G F E C C E E E C E y K M H H H I M J F y y E D K 4 } { | - 3 $ | 1 = = 3 g 1 $ ",
"! ' ; % { % _ | - _ $ b 9 } 1 J D E C y K I L L H G F y y E E E E y K G I I G J K F y E C C y K M 8 b 4 - 1 | | - _ % % 4 g 4 - ",
"> | = | 3 _ 1 [ - _ | c 9 } _ I K y E E D G J A A r z w r F F C N N O P P O Q R R A E C C y F M H 4 8 b _ 3 _ 3 [ _ % 3 2 g 4 % ",
"> ; _ c 1 _ 3 $ 4 | = b 9 c [ I M K y E y C @ S S S S S . G M O S S S S S S S S S < r y D K M H L 8 a } 4 1 - b $ 4 ; ; 4 9 3 ' ",
"# c 7 g 8 } } 4 a a 8 6 g { [ G I M K y r # T S S S S S , I H O T S S S S S S S S T * C G I H H H f f U g 8 2 8 4 7 } 7 6 7 1 ' ",
"{ a g 7 a 7 9 f a a 9 p a 3 _ F M I M x * S S S S S S S , I H N T S S S S S S S S S S . K L H I G v U V 9 9 6 a 7 f 6 4 _ { - % ",
"* & < =       ' < [ % % ; #   y J I F # T S S S S S S S , I H P W S S S v 7 7 a g T S T * K M K D } 1 - ' @ < * = % % < # # - | ",
"> ] > > . , , . @     @ .     E F E + S S S S S S S S S . M H J > S S S   E J G r 8 S S S X K D y # ' ; > & & > +     * + , % < ",
"@ ( = # ; [ | _ < = ; $ # _ ; E y z Q N Q Y Z 9 S S S S + G H L J ) ` S S > G L E } S S S  .y E E = % c < = % - | ' = ; [   - < ",
"# * % ' 3 3 | { [ | ; ; = b = y E y J H H H D 2 S S S S   F H L L M ) S S S ) G E } S S S Z E C y - c c [ 1 b % { ; % - $ < ; . ",
"# @ % [ } - c _ [ 1 { [ 1 { 3 D E E F M H L K 4 S S S S * y I L L L M ] T S S , w } S S S ..E E D - 1 } = b 3 { | = 3 3 [ | % . ",
"@ * c - } { | 2 - 3 3 ; 3 b % J y E y K M H J c S S S S   K H L L L L M +.....Z ..7 S S S @.E D J ; b 9 - 2 b - 2 _ | c ; | 1 ' ",
"< * 3 2 2 } } 8 2 4 2 c 2 2 8 M K y E y K G K c S S S S . G L L L L L L #.#.#.#.C 8 S S S @.y J I _ 3 9 2 2 } } 8 2 c 2 c 4 3 $ ",
"; = c } } } } } 8 } } } 2 8 a H M K y E y D E c S S S S & I L L L L L L L L L H B a S S S ..K I L c 2 f } } } } 8 8 } } 2 2 _ % ",
"+ + + + # [ [ ; | 3 = ) ( & & L H G F y E E A 2 S S S S , I L L L L L L L L H M z 7 S S S $.M H L | | | @ < = ' % % [   . * < . ",
"@ @ @   . + . @ = 1 | / & + . L L H G F E C r } S S S S , I L L L L L L H I G F N 7 S S S +.H L L 1 1 _ + @   . + . + % _ 1 / > ",
"' % ' = * = < | 9 b % / _ - 1 L L L H G D E r } S S S S , I L M > 9 f f p p V V v T S S S Y L L L 2 a b ; = [ * $ < ; g 2 - / % ",
"- | [ | [ | [ { 9 c 1 ^ { ' - L L L L H G D A } S S S S , I L L J > T S S S S S S S S S S R L L L } a 8 _ [ - [ _ = _ 9 } _ ( 1 ",
"[ _ $ $ ' - | b 6 3 $ ] % _ | L L L L L H G C 2 S S S S , I L L L J @ T S S S S S S S S S R L L L 7 7 c | - = ' % | 3 9 b ; 0 [ ",
"% 1 ; 1 % | % b 6 3 - > b [ 4 L L L L L L H F 4 S S S S , I L L H M E + S S S S S S S S S R L L L b 8 } 1 % | % | % 1 9 b - ! { ",
"6 a 4 8 8 2 7 6 9 b % * 4 _ 4 L L L L L L L J c S S S S , I L H M K y A ] ) ^ ] ~ ~ ~ ~ ~ B L L L a p %.7 4 } a 4 7 7 p 4 -   c ",
"a a a a a a a 7 7 c [ [ 8 g g L L L L L L L G b S S S S , I I G F y E E y K M L #.#.#.#.#.L L L L f V U 7 a a a a a 7 7 } $ ' c ",
"' . # * = '   $ % % ' # % % [ L L L L L L L G b S S S S & G J D y E E y K M H L L L L L L L L L L 1 2 4 +   # [ [   [ % % = * < ",
"  ^ . . & + , *   *   # * * * L L L L L L L G b S S S S & K D E E y D J M H L L L L L L L L L L L | 4 2 / & . & + ,   *   * [ % ",
"+ , _ ; - 3 = - - % _ 4 = | % H L L L L L L G b S S S S & F y E y K G I H L L L L L L L L L L L L 8 v 4 ) % - % c [ % | = 3 2 2 ",
"  . b = c 1 c = { = 1 1 = 3 % M H L L L L L G ' { { { { ^ J K F J M H L L L L L L L L L L L L L L } %.2 ! 3 % { 1 b % { [ 1 a 7 ",
"' , - = | 1 % _ ; ; ; c % | % J M H L L L L L #.#.#.#.#.L H I M I H L L L L L L L L L L L L L L L 8 %.a ! ; ; % b $ _ % [ - b 7 ",
"@ & 1 - - 1 1 = 3 ; - 1 [ c | y K M H L L L L L L L L L L L L L L L L L L L L L L L L L L L L L L g %.4 ! % _ % 3 | % { [ _ c 7 ",
"# ' c 3 2 c c { c c 2 2 b 2 8 E y K G I H L L L L L L L L L L L L L L L L L L L L L L L L L L L L p %.2 * b { 2 c 4 { c b 2 g 9 ",
"_ - 8 } } } } } 8 } b c 7 9 9 y E y F J M H L L L L L L L L L L L L L L L L L L L L L L L L L L L U U 6 $ 8 } } } } } } 8 c 7 p ",
". # # + #   < < # & ) . # < = ~ B E E y K G I H L L L L L L L L L L L L L L L L L L L L L L L G @.1 1 | ' @ @ * @ < #   ' = *   ",
"+ . . , < # * # . * #   # < ; c , A #.L L L L L L L L L L L L L L L L L L L L L L L L L L #.A & 1 3 3 | & + , # * # # - _ | &.> ",
"; 1 % % - 3 - b < b b - b 3 9 } 1 = ..G L L L L L L L L L L L L L L L L L L L L L L L L M $.1 2 8 2 g 4 | _ ; - 3 | % 6 c ; 0 % ",
"[ c { $ { _ { ; 1 { % c - 4 6 2 3 | 7 + C H L L L L L L L L L L L L L L L L L L L L L E ! 4 6 8 g g a _ { 4 ; 3 - b 3 g } ; 0 1 ",
"1 | 1 c { - - _ ; 4 { b ; 8 6 b _ % 6 9 ; ..H L L L L L L L L L L L L L L L L L L H +.= a 6 2 6 2 g 3 { % b 3 c $ 1 _ 9 8 % 0 < ",
"{ % _ 4 | _ 1 b _ 3 1 - { { g 3 = - a 6 c g & C L L L L L L L L L L L L L L L L J ( 7 7 f 2 2 7 7 4 b 4 = 3 b _ - b - 6 a b ^ 3 ",
"} } 4 a 7 8 a } c 8 } 7 } 6 6 | [ | V %.9 V V _  .H L L L L L L L L L L L L #.N   v v g U 9 9 p a 7 } 8 4 8 } 6 } 7 } f 7 - > 2 ",
"a a a a a a a a a a a a a 7 7 | [ | 7 g V U V V 9 , y L L L L L L L L L L K ~ { 4 U U U V U v U V g a a a a a a a a g f 9 _ [ 2 ",
"< + + * * * +   * # ; % # @   * * * < [ [ % - - | 3 < O I L L L L L L L B , _ _ 3 c c 3 1 ; ; $ ' < | = @ & * * * @ @ * * = % ' ",
"@ ~ ) > ) . ) & ! @ $ - > ~ > , . , , @ @ ' ; ; | % % [ ] M L L L L I  .* = ; = | $ $ % $ [     . # = ; ~ ^ > ) . ! , ! . [ | ' ",
"@ ) [ ' < = [ = [ { } | , ) = $ $ % = $ - % | c 2 4 4 3 7 - O H L y , 2 { 4 8 { a { _ b ; 1 [ _ # 3 4 % ^ < [ # = [ = ' 1 2 3 ' ",
"  + ; ' 3 [ [ 1 ; 6 7 | & . < ' % % ; % ; | _ 4 2 4 } a 9 V 4 0  .% a a c 7 a c 8 { 1 c = - $ 1 = } a % ! - ' 1 = [ | = a 6 3 ' ",
"* + - - % % | | ; a 6 | @ . [ [ | % [ 3 | _ ; c 1 c 8 c 9 %.f 2 _ 8 } 4 8 a 8 7 1 _ - | ' % $ c [ c 7 % , ; | % | ; 1 = 2 g 3 ' ",
"# * % = c ; { _ { 7 6 1 # @ $ % c - | 1 - b | b 1 3 b } g V f 2 | } g 7 } 6 6 } 4 - | 2 ; b | _ % 2 6 % + % = b % 1 1 3 8 g b ; ",
"[ % c c 9 7 g 6 8 g 6 4 [ _ c 8 7 2 8 4 8 7 } 7 8 9 7 g p U f } c f p f f 9 6 a 8 } a 7 2 7 a 4 7 7 6 - $ { c g 6 6 g 8 6 g 2 ; ",
"% _ 8 8 7 7 7 7 p p g c [ _ } 8 8 7 9 9 9 7 a 9 p p 6 7 7 7 3 [ 3 } } } } } } 8 } 7 g g 9 7 8 8 7 7 7 | - 8 } 7 7 7 a 9 f 9 2 [ ",
"& = = ; < < < ; % % % ' - % %   @ * ' = ' + # # ; [ # < < <   = # + + + @ < % b ; . @   * @ # & [ = ; < # < = % % ' + # = 3 3 & ",
"( . , @ #   * * @ #     = % $ : > ! & > @ & + @ , + @ # *     *     * . . < $ | . ~ > , . , & ( . & + # @ # * @ < . & @ = _ | : ",
"$ % [ - | | - - _ - [ | 9 b % ~ = = % < - $ - ; ; _ $ 1 $ % | ; [ | % ' * c 8 - @ ! ; [ | ; [ = ; ; ; _ % 1 % _ _ < * - g 3 % ] ",
"1 ' ; % { % _ | - _ $ b 9 } 1 / | $ % % | { | 3 $ { % - 1 b _ - = c _ = 3 8 7 3 *   ; ' = - % { ' = % b $ 1 - % { ' - c 9 4 | ( ",
"= | = | 3 _ 1 [ - _ | c 9 } _ / _ [ - = c % 1 b ; b = _ 1 - 1 $ 1 1 1 $ = 8 g 4 # + % [ 1 [ _ $ - % % 1 1 _ ; ; { ' ' { 9 8 1 ) ",
"3 ; _ c 1 _ 3 $ 4 | = b 9 c [ ^ < { _ - | b c 3 b b % 3 b _ 1 _ c - 1 3 ; 8 p c # < ; ; 2 % _ b [ { { 1 1 | % b 1 ; % { p 7 - & ",
"a c 7 g 8 } } 4 a a 8 6 g { [ . 1 4 2 2 { 4 4 2 c 8 c } b } 2 4 4 } 4 8 2 g p 1 = [ 4 } 9 } 2 7 { 7 g a 8 2 2 8 7 4 2 7 p } | @ ",
"7 7 9 7 7 6 f f 7 a 9 p a 3 _ = b 2 8 8 8 8 2 c b b } a 7 9 9 9 9 a a g a 7 } - ' - 7 8 7 a a 7 7 6 6 7 7 f f 7 a 6 7 7 a { = ' "};
