/* XPM */
static char *a851064bb6c64bc48608b0f971c1179amMBABxNRFFsVqPTE[] = {
/* columns rows colors chars-per-pixel */
"64 64 183 2 ",
"   c None",
".  c black",
"X  c #230F08",
"o  c #250F08",
"O  c #270F08",
"+  c #291008",
"@  c #291009",
"#  c #29160D",
"$  c #2D170F",
"%  c #30170F",
"&  c #30190F",
"*  c #32190F",
"=  c #361A0F",
"-  c #361A10",
";  c #381A10",
":  c #3B1A10",
">  c #3C1A10",
",  c #3F1D10",
"<  c #3F2011",
"1  c #411D10",
"2  c #441D11",
"3  c #412011",
"4  c #412013",
"5  c #442113",
"6  c #462113",
"7  c #462114",
"8  c #462314",
"9  c #492314",
"0  c #4B2314",
"q  c #4B2514",
"w  c #4E2514",
"e  c #452518",
"r  c #472518",
"t  c #452619",
"y  c #482619",
"u  c #502514",
"i  c #502714",
"p  c #532516",
"a  c #502716",
"s  c #532716",
"d  c #562716",
"f  c #592716",
"g  c #532916",
"h  c #562916",
"j  c #592916",
"k  c #5B2916",
"l  c #5B2917",
"z  c #5E2916",
"x  c #5E2917",
"c  c #5E2C17",
"v  c #5C321F",
"b  c #612C17",
"n  c #612D19",
"m  c #652D19",
"M  c #672D19",
"N  c #6B2D19",
"B  c #6B3019",
"V  c #6D3019",
"C  c #703019",
"Z  c #70301A",
"A  c #70321A",
"S  c #7A361D",
"D  c #7A381E",
"F  c #7C381E",
"G  c #7C3B1E",
"H  c #4F2F23",
"J  c #4F3223",
"K  c #513021",
"L  c #523021",
"P  c #513223",
"I  c #533223",
"U  c #543223",
"Y  c #563423",
"T  c #583425",
"R  c #5B3425",
"E  c #5D3425",
"W  c #5D3926",
"Q  c #603725",
"!  c #623726",
"~  c #603B26",
"^  c #623B26",
"/  c #623B29",
"(  c #653B29",
")  c #653D29",
"_  c #673D29",
"`  c #67402B",
"'  c #6C402B",
"]  c #6C422B",
"[  c #6F422B",
"{  c #71422B",
"}  c #71452B",
"|  c #74452B",
" . c #71452E",
".. c #74452E",
"X. c #74472E",
"o. c #77472E",
"O. c #7A472E",
"+. c #7C472E",
"@. c #7F472E",
"#. c #7F4A2F",
"$. c gray40",
"%. c gray44",
"&. c #767676",
"*. c #803B1E",
"=. c #803B20",
"-. c #823B20",
";. c #873C20",
":. c #893C21",
">. c #8C3F21",
",. c #8C4121",
"<. c #8F4121",
"1. c #8C4123",
"2. c #8F4123",
"3. c #8F4423",
"4. c #824C2F",
"5. c #944123",
"6. c #944423",
"7. c #964423",
"8. c #964625",
"9. c #9C4623",
"0. c #964925",
"q. c #9A4927",
"w. c #9A4B27",
"e. c #9C4B27",
"r. c #9C4E27",
"t. c #824C32",
"y. c #854C32",
"u. c #874C32",
"i. c #8B4C32",
"p. c #8B4F32",
"a. c #8F4F32",
"s. c #8F4F34",
"d. c #8F5134",
"f. c #925134",
"g. c #925637",
"h. c #985637",
"j. c #985639",
"k. c #9A5839",
"l. c #9D5B39",
"z. c #9D5B3B",
"x. c #9F5B3B",
"c. c #9D5D3B",
"v. c #A14925",
"b. c #A44925",
"n. c #A14E29",
"m. c #A15029",
"M. c #A45029",
"N. c #AF5029",
"B. c #A35D3B",
"V. c #A55D3D",
"C. c #A8603D",
"Z. c #A8623D",
"A. c #C8592D",
"S. c #DB7038",
"D. c #A46442",
"F. c #A86240",
"G. c #AA6240",
"H. c #AE6240",
"J. c #AA6540",
"K. c #AF6744",
"L. c #AF6944",
"P. c #AF6947",
"I. c #B06742",
"U. c #B56740",
"Y. c #B56A42",
"T. c #B16947",
"R. c #B56F45",
"E. c #B96A42",
"W. c #BB6A42",
"Q. c #B97147",
"!. c #BB7147",
"~. c #C47147",
"^. c #C67147",
"/. c #C97147",
"(. c #CE744A",
"). c #C0784E",
"_. c #D77A4C",
"`. c #E58F58",
"'. c gray56",
"]. c #A2A2A2",
"[. c #A7A7A7",
"{. c gray79",
"}. c gray84",
/* pixels */
",.,.,.,.3.3.3.8.8.0.w.w.0.3.,.,.,.,.,.3.8.3.3.3.,.,.c ,.3.8.3.3.3.,.,.c ,.3.8.3.3.3.,.,.c : ,.,.,.,.3.3.3.8.8.0.w.w.0.3.,.,.,.,.",
">.c c x c x l l l l p l c b x c c = ,.l l c c x l l > ,.l l c x x l l > ,.l l c c x l l > : >.c c x c x l l l l p l c b x c c = ",
",.l l - # # # # # # * % % $ ,.l l - ,.c 1 # # # ,.c 1 ,.c 1 # # # ,.c 1 ,.c 1 # # # ,.c 1 > ,.l l - # # # # # # * % % $ ,.l l - ",
",.l l - * 6 p 9 7 7 7 6 4 * ,.l l - 0.M 3.3.3.3.3.M > 0.M 3.3.3.3.3.M > 0.M 3.3.3.3.3.M > - ,.l l - * 6 p 9 7 7 7 6 4 * ,.l l - ",
",.l l > d * q 9 9 9 6 6 * p ,.l l > 0.M l x x l M M > 0.M l x l l M M > 0.M l x x l M M > : ,.l l > d * q 9 9 9 6 6 * p ,.l l > ",
",.c c 1 h M S.6.3.3.*.O l p ,.c c 1 M # * # # # * * : M # * # # # * * : M # * # # # * * : : ,.c c 1 h M S.6.3.3.*.O l p ,.c c 1 ",
"3.M M 2 h M :.A.v.b.f @ x p 3.M M 2 ,.,.>.>.,.>.,.>.>.,.,.>.,.,.,.>.>.,.>.,.>.>.,.,.>.,.>.M 3.M M 2 h M :.A.v.b.f @ x p 3.M M 2 ",
"8.V V , p M *.b.l l 7 O h q 8.V V , ,.M M c c c M M c c l c M c M M c c c M M c c l c M M , 8.V V , p M *.b.l l 7 O h q 8.V V , ",
"8.V V , g M ;.b.n n 6 @ p q 8.V V , ,.M M c c c M M c c l c M c M M c c c M M c c l c M M , 8.V V , g M ;.b.n n 6 @ p q 8.V V , ",
"M.M M : p N *.b.l l 4 @ 9 9 M.M M : c : : : : : : : - - : : : - : : : : : : : - - : : : 2 1 M.M M : p N *.b.l l 4 @ 9 9 M.M M : ",
"m.N N : g M ;.b.n n 6 @ p q m.N N :                                                       ..a.i.i.i.u.d.f.f.f.f.s.a.i.i.a.r r r ",
"m.B B : p M *.N.h h 4 @ w w m.B B :                                                       ..| R R R R R R R R R R R R L O.r r r ",
"n.N N - p M *.N.h h 4 @ w w n.N N -                                                       { Q.| L L L L L L L L L L L R ..r r r ",
"n.N N - p N *.b.l l 4 @ 9 9 n.N N -                                                       ..Q.l.L L U L L L L L L L L R ..r r r ",
"e.M M : p M *.b.l l 7 O h q e.M M :                                                       | Q.g.] G.G.J.J.J.J.G.C.C.c.R ..r r r ",
"0.M M > p M *.N.h h 4 @ w w 0.M M >                                                       ..Q.l.E i.H.U.Y.Y.Y.W.W._.(.R O.r r r ",
"e.M M : p N *.b.l l 4 @ 9 9 e.M M :                                                       ] R.l.E ......O.O.O.@._.~./.R ..r r r ",
"n.N N - p M *.b.l l 7 O h q n.N N -                                                       ] I.l.Q i.i.4.t.t.t.t././.(.R ..r r r ",
"n.N N - g M ;.b.n n 6 @ p q n.N N -                                                       ] J.l.Q ] ] } ........~.~./.R ..r r r ",
"m.B B : p M *.N.h h 4 @ w w m.B B :                                                       ] G.l.Q O.O.@.O.O.O.O.~.~.~.R ..r r r ",
"8.V V , p N *.b.l l 4 @ 9 9 8.V V ,                                                       ] G.l.R u.u.f.d.d.d.a././.~.R O.r r r ",
"M.M M : p M *.b.l l 7 O h q M.M M :                                                       ] C.B.U 4.#.u.u.u.u.#.(.(./.R ..r r r ",
"r.N N : g M ;.b.n n 6 @ p q r.N N :                                                       { C.l.U ......O.O.O.@.Y.Y.~.R ..r r r ",
"8.V V , p M *.N.h h 4 @ w w 8.V V ,                                                       { G.V.L L L L H H H J L d.~.R ..r r r ",
"8.V V , p N *.b.l l 4 @ 9 9 8.V V ,                                                       ..C.l.R L L R L L L L L Y U R ..r r r ",
"3.M M 2 p B =.b.A A 6 O w 9 3.M M 2                                                       { c._.j.l.l.h.k.k.k.l.l.B.l.R  .r r r ",
",.c c 1 h A =.b.c M 6 O p 9 ,.c c 1                                                       ..`.I.I.J.J.B.l.z.l.l.l.l.B.| ..r r r ",
",.l l > l A *.6 $ % % X w p ,.l l >                                                       ] ).).).).).T.K.K.K.L.L.K.D.L.L.r r r ",
">.c c - l A @ @ @ @ X O p l >.c c -                                                       ] i.i.u.d.f.s.a.a.a.i.a.s.a.a.i.r r r ",
"8.V V , l * < 4 4 6 p 9 * l 8.V V ,                                                       ] | R R R R R R R R R R R R L O.r r r ",
"8.V V , * l p h h h l l 9 * 8.V V ,                                                       ] Q.| L L L L L L L L L L L R ..r r r ",
"M.M M : 9.6.6.6.5.,.,.,.,.3.M.M M :                                                       { Q.l.L L U L L L L L L L L R ..r r r ",
"m.V V x c x l l l l p l c b x x c :                                                       | Q.g.] G.G.J.J.J.J.G.C.C.l.R ..r r r ",
"m.B B : # # # # # # * % % $ m.B B :                                                       ..Q.l.E H.H.U.Y.Y.Y.W.W._.(.R O.r r r ",
"e.M M : * 6 p 9 7 7 7 6 4 * e.M M :                                                       ] R.l.E ......O.O.O.@.~.~./.R ..r r r ",
"n.N N - d * q 9 9 9 6 6 * p n.N N -                                                       ] I.l.Q i.i.4.t.t.t.t././.(.R ..r r r ",
"e.M M : h M S.6.3.3.*.O l p e.M M :                                                       ] J.l.Q ] ] } ........~.~./.{.&.r r r ",
"0.M M > h M :.A.v.b.f @ x p 0.M M >                                                       ] G.l.Q O.O.@.O.O.O.&.].].{.}.&.r r r ",
"e.M M : h M :.b.c M f @ x p e.M M :                                                       ] G.l.R u.u.f.d.d.d.{ &.&.%.{.&.r r r ",
"n.N N - h A =.b.c M 6 O p 9 n.N N -                                                       ] C.B.U #.#.u.u.u.u.#.r r v y r r r r ",
"n.N N - l A *.6 $ % % X w p n.N N -                                                       { C.l.U ......O.O.O.@.Y.Y.~.{.[.r r r ",
"m.B B : l A @ @ @ @ X O p l m.B B :                                                       { G.V._ L L L H H H J L d.~.. '.r r r ",
"8.V V , l * < 4 4 6 p 9 * l 8.V V ,                                                       ..C.l.R L L R L L L L L Y U . $.r r r ",
"M.M M : * l p h h h l l 9 * M.M M :                                                       ] c._.j.l.l.h.k.k.k.l.l.B.l.'.$.r r r ",
"r.N N : 3.3.3.8.8.0.w.w.0.3.r.N N :                                                       ] `.I.I.J.J.B.l.l.l.l.l.l.B.| ..r r r ",
"8.V V x c x l l l l p l c b x x c ,                                                       ] ).).).).).T.K.L.K.L.L.K.D.L.L.r r r ",
"8.V V , # # # # # # * % % $ 8.V V ,                                                       ] i.u.d.f.f.a.i.i.i.a.i.a.i.i.a.r r r ",
"3.M M 2 * 6 p 9 7 7 7 6 4 * 3.M M 2                                                       { | R R R R R R R R R R R R L O.r r r ",
"m.N N : d * q 9 9 9 6 6 * p m.N N :                                                       ..Q.| L L L L L L L L L L L R ..r r r ",
"m.B B : h M S.6.3.3.*.O l p m.B B :                                                       | Q.l.L L U L L L L L L L L R ..r r r ",
"e.M M : h M :.A.v.b.f @ x p e.M M :                                                       ..Q.g.] G.G.J.J.J.J.G.C.C.l.R ..r r r ",
"n.N N - p M *.b.l l 7 O h q n.N N -                                                       ] Q.l.E H.H.U.Y.Y.Y.W.W._.(.R O.r r r ",
"e.M M : g M ;.b.n n 6 @ p q w.M M :                                                       ] R.l.E ......O.O.O.@._.~./.R ..r r r ",
"0.M M > p M *.N.h h 4 @ w w 0.M M >                                                       ] I.l.Q i.i.4.t.t.t.t././.(.R ..r r r ",
"e.M M : p N *.b.l l 4 @ 9 9 e.M M :                                                       ] J.l.Q ] ] } ........~.~./.R ..r r r ",
"n.N N - p B =.b.A A 6 O w 9 n.N N -                                                       ] G.l.Q O.O.@.O.O.O.O.~.~.~.R ..r r r ",
"n.N N - h A =.b.c M 6 O p 9 n.N N -                                                       ] G.l.R u.i.f.d.d.d.a././.~.R O.r r r ",
"m.B B : l A *.6 $ % % X w p m.B B :                                                       { C.B.U 4.#.u.u.u.u.#.(.(./.R ..r r r ",
"8.V V , l A @ @ @ @ X O p l 8.V V ,                                                       { C.l.U ......O.O.O.@.Y.Y.~.R ..r r r ",
"M.M M : l * < 4 4 6 p 9 * l M.M M :                                                       ..G.V.L L L L H H H J L d.~.R ..r r r ",
"r.N N : * l p h h h l l 9 * r.N N :                                                       { C.l.R L L R L L L L L Y U R ..r r r ",
"8.V V , G G G *.*.G =.G D S 8.V V ,                                                       @.c._.j.l.l.h.k.k.k.l.l.B.l.R  .r r r ",
",.c c x N N N A A A l l l l x c c =                                                       @._.I.I.J.J.B.l.l.l.l.l.l.B.| ..r r r ",
"- # # # # # # # # * % % # # # * % %                                                       @.{ { ` _ ~ W W W W ^ ( / / ^ ( r r r "
};
