/* XPM */
static char *_8e1ca886d44489ae8a5ec7cbd220963X3KG6Gr5G9DuINN7[] = {
/* columns rows colors chars-per-pixel */
"64 64 137 2 ",
"   c #040404",
".  c #0B0B0D",
"X  c #0E0E11",
"o  c #100F14",
"O  c #131314",
"+  c #16141B",
"@  c #19161E",
"#  c #1A1A1A",
"$  c #003400",
"%  c #1A1721",
"&  c #1D1A25",
"*  c #1F1C28",
"=  c #221E2C",
"-  c #232323",
";  c #24212F",
":  c #2C2C2C",
">  c #262131",
",  c #292535",
"<  c #2C2739",
"1  c #2E293B",
"2  c #312B3E",
"3  c #333333",
"4  c #3E3E3E",
"5  c #027C02",
"6  c #342D43",
"7  c #373046",
"8  c #373148",
"9  c #39324B",
"0  c #3D3751",
"q  c #3F3853",
"w  c #413A56",
"e  c #443D5B",
"r  c #454545",
"t  c #4C4C4C",
"y  c #545454",
"u  c #5F5F5F",
"i  c gray37",
"p  c #5C5C5C",
"a  c #5B5B5B",
"s  c #484060",
"d  c #494161",
"f  c #4A4060",
"g  c #4A4062",
"h  c #4B4163",
"j  c #4C4264",
"k  c #4C4266",
"l  c #4D4367",
"z  c #4B4163",
"x  c #4E4468",
"c  c #4F4569",
"v  c #4F466A",
"b  c #4F4569",
"n  c #50456B",
"m  c #50476B",
"M  c #52486D",
"N  c #53486D",
"B  c #554A6F",
"V  c #52486D",
"C  c #574C73",
"Z  c #574C75",
"A  c #564B73",
"S  c #584D76",
"D  c #594E77",
"F  c #5B4F78",
"G  c #5C517C",
"H  c #5C517C",
"J  c #606060",
"K  c gray38",
"L  c #626262",
"P  c gray39",
"I  c #646464",
"U  c #656565",
"Y  c gray40",
"T  c #676767",
"R  c #636363",
"E  c DimGray",
"W  c #686868",
"Q  c #6A6A6A",
"!  c gray42",
"~  c #6D6D6D",
"^  c #6C6C6C",
"/  c #6F6F6F",
"(  c gray43",
")  c #6E6E6E",
"_  c gray44",
"`  c gray45",
"'  c #727272",
"]  c #757575",
"[  c #737373",
"{  c gray49",
"}  c gray50",
"|  c #7B7B7B",
" . c #950000",
".. c #9F0000",
"X. c #C60000",
"o. c #FF1E1E",
"O. c #049404",
"+. c #07AA07",
"@. c #0AD10A",
"#. c #818181",
"$. c #878787",
"%. c #838383",
"&. c #888888",
"*. c gray54",
"=. c gray55",
"-. c #8E8E8E",
";. c #8C8C8C",
":. c #909090",
">. c #929292",
",. c #949494",
"<. c gray62",
"1. c #9C9C9C",
"2. c #A2A2A2",
"3. c gray64",
"4. c #A5A5A5",
"5. c #A4A4A4",
"6. c gray66",
"7. c gray67",
"8. c #AEAEAE",
"9. c #B1B1B1",
"0. c #B2B2B2",
"q. c #B4B4B4",
"w. c #B9B9B9",
"e. c #BBBBBB",
"r. c #8DFF8D",
"t. c #C3C3C3",
"y. c #C3C3C3",
"u. c gray80",
"i. c gray81",
"p. c #CBCBCB",
"a. c #D2D2D2",
"s. c gray83",
"d. c #DCDCDC",
"f. c #E4E4E4",
"g. c gray93",
"h. c #F3F3F3",
"j. c #FEFEFE",
/* pixels */
"4 r r r r r r r r r r r r r r r r r r r r r r r r r r r r r r r r r r r r r r r r r r r r r r r r r r r r r r r r r r r r r r r ",
"r / / / / / / / _ _ / / / / / / / / / / / / / / / / / / / / / / / / / / / / / / / / / / / / / / / / / / / / / / / / / / / / / r ",
"r / N B v l l l l l s s s s s e q U ! s v l s s s s s l l l l l l s s s s s e e e e e w 9 U / v v v l s s s s s s s e w q 9 U r ",
"r / l G S C N N v l l l l s e q 9 y K { s F B B N n n l l l l l l s s s s s s e e w q 9 1 y / l G Z B N N v v s s e e q 8 2 t r ",
"r / e C 9 9 0 0 9 9 9 9 9 9 9 7 6 , a U w n 9 9 9 9 9 9 9 9 9 9 9 9 9 9 9 9 9 9 9 9 6 2 4 t _ l e 9 9 9 9 9 9 9 9 9 9 8 2 < r 4 ",
"r / e N 9 9 9 9 9 9 9 9 9 9 9 7 6 1 t K 9 e 9 9 9 9 9 9 9 9 9 9 9 9 9 9 8 8 7 7 7 6 1 , r y q n 9 9 9 9 9 9 9 9 9 7 6 6 , > r 4 ",
"r / w s 9 9 9 9 9 9 9 9 9 9 8 7 2 1 r u 6 q 0 6 6 6 7 7 8 8 7 6 6 6 7 6 6 6 6 6 6 1 , = r a q s 9 9 9 9 9 9 9 7 6 6 6 6 > = r 4 ",
"r / q s 9 9 9 9 9 9 9 9 7 6 6 6 < , = a y 9 q 6 6 6 6 6 6 6 6 6 6 6 6 6 6 6 6 6 6 > = 3 t y e q 6 6 7 7 7 7 6 7 6 6 6 2 = * r 4 ",
"r / q e 9 9 9 9 9 9 8 7 7 6 6 6 1 > = y u 6 9 6 6 6 6 6 6 6 6 6 6 6 2 2 2 2 2 2 2 = * 4 y 9 e 9 6 7 6 6 6 6 6 6 6 6 6 2 = & r 4 ",
"r / q e 7 7 9 7 7 7 6 6 6 6 6 2 2 > > r K 1 6 6 2 2 2 2 2 2 2 2 1 1 1 1 1 1 1 1 ; & & r y 9 w 6 6 6 6 6 6 6 6 6 6 2 2 1 * & r 4 ",
"r / 9 w 7 7 6 6 6 6 6 6 6 6 2 1 1 = = & a r 6 6 1 1 1 1 1 1 1 1 < < < , , , < < & % - t t q 9 2 6 6 6 6 6 6 6 6 6 2 1 1 & % r 4 ",
"r / 9 q 6 6 6 6 6 6 6 6 2 1 1 1 < = & % y a 1 6 , , < < < < , , , , , > > > , , + @ 4 y 6 q 6 2 2 6 6 6 6 6 6 6 2 1 1 < & @ r 4 ",
"r / 9 q 6 6 6 6 6 6 2 2 1 1 < , , > @ + r K > < > * % @ + + + O O O o o O O + + + + r y 9 9 1 1 2 2 2 2 2 2 2 2 1 1 < , % + r 4 ",
"r / 9 q 6 6 6 2 2 2 1 1 < , , > ; > O O - u = > & + O o o X X X X X . . . X X X O + t r 7 6 < < 1 1 2 2 2 2 2 1 1 < , , @ + r 4 ",
"r / 9 q 2 2 2 2 1 1 < , , > > = = & X . o y y & + O - : 3 4 4 r r 4 4 3 : - X . X 3 y , 1 , > , < 1 1 1 1 1 1 1 < , , > + + r 4 ",
"r / 9 9 1 1 1 1 < , , > > = = * . . . . X t K a t t y y a u u u K K u u u a y y r t a ; = & & & , , , < < < < , , , > > + O r 4 ",
"r / 7 9 < < < , , , > > = = X . . . X - r y U ! u t 4 3 : : : - - : : : : 3 r a K U ! K 3 + + @ & & , , , , , , , > > > + O r 4 ",
"r / 7 9 , , , , > ; = = & . . . X 4 r t y t 4 : - # O O O O . . . . O O O # - : 3 r a ! K a r + + + % > , > > > > > > = + O r 4 ",
"r / 6 9 > > > ; = = = + . . . 3 r y t 4 - # O . . O O # # # # - - # # # # O O O O O - 3 r a U u 4 O + @ * ; ; ; = = = = O o r 4 ",
"r / 6 7 > > = = = * o . . # r t y 3 - O . . O # # # # # # # # # # # # # # # # # # O O O 4 t r U U a - + + % = = = = = = O o r 4 ",
"r / 2 6 = = = = * o . . : r y 4 - O O # - - - - - - : 3 4 r r t t t t t t r r 4 3 : - : _ 7.r : t ! K 4 o + + = = = * * O X r 4 ",
"r / < , = & * & O . . 3 t t : # O # - - - - - : 3 4 4 4 4 4 4 4 4 4 4 4 4 4 4 4 4 4 3 U u._ # O : r U U t o o + & * & & X X r 4 ",
"r / = @ O X . . . . 4 t t - O O # # # # # - 3 3 3 3 3 3 3 3 3 3 r ] $.=.{ / a 4 3 : y y.*..   O O - r u ! t X X . . . . . . r 4 ",
"r / O . . . . . . : t t # O - - - - : 4 t t t t t t t t t t y *.9.u.1.=.#.] / U u y 9.2.# . - - : : - r K ! 4 . . . . . . . r 4 ",
"r / U t r r r r r t y - O - - - - : 4 4 4 4 4 4 4 4 4 4 4 u $.>.4.a.7.>.#._ ! U y 2.e.: . # - - 4 4 3 3 y U ! a t r r r r r t r ",
"r / ! U K K K K K K : O # # # # : 3 3 3 3 3 3 3 3 3 3 3 y ] { *.1.e.9.>.#._ ! t =.u.r . . # # : 3 3 3 4 r a / ! K K K K K K U r ",
"r 2.*.,.*.*.*.*.| _ a # - - : t t t t t t t t t t t t y / _ ] #.=.4.p.,.#._ U #.d.t O . - - r t t t t t y y u / / / ..../ / / r ",
"r =.3 3 3 3 3 3 3 3 - # - - 4 4 4 4 4 4 4 4 4 4 4 4 r K U ! / ] #.,.y.1.#./ U ,.y # . - - 3 4 4 4 4 4 4 t a y / / / ....../ / r ",
"r =.3 o.o.o.o.o.X.3 - t ! / / | =.=.1.1.8.8.e.e.8.7.4.1.1.,.,.>.>.,.1.1.>.{ u y : # # : 4 3 3 3 3 3 3 3 3 a a u / / ......../ r ",
"r >.3 X.X.X.X.X. .3 - 4 y a a u u u a y y y t t t r r r r 4 4 4 4 r t t t y 4 y r r r r 4 t t t t t t t t U _ K / / ....../ / r ",
"r *.3 3 3 3 3 3 3 3 - 4 y a a u u a a y y t t t t r r r 4 4 4 4 r r t t t y y : r r 4 4 4 r 4 4 4 4 4 4 4 y $./ / / ..../ / / r ",
"r *.3 3 3 r.@.3 3 3 - 4 y a u u a a y y t t t r r r r 4 4 4 4 r r t t t y y y # 4 4 4 3 3 4 3 3 3 3 3 3 3 r ,.$./ / / / / / / r ",
"r #.3 3 3 O.$ 3 3 3 - 4 a a u a y y y t t t t r r r 4 4 4 4 4 r t t y y y a y # 3 3 3 3 3 3 t t t t t t t y 1.2./ / / / / / / r ",
"r | 3 3 3 3 3 3 3 3 - 4 y u u a y y t t t t r r r 4 4 4 4 4 r r t y y y a a y # - : : : : 4 4 4 4 4 4 4 4 u 4.>./ / ..../ / / r ",
"r ! 3 r.@.3 3 r.+.3 - 4 a a a y y t t t t r r r 4 4 4 4 4 r r t t y y a a y # # - - - - - 4 3 3 3 3 3 3 3 _ f.,./ / ....../ / r ",
"r _ 3 O.$ 3 3 5 $ 3 - . O O O O O O O O O O O O . . . . . . . O O O O O O O . O # : : - - t t t t t t t t f.j.{ / / ......../ r ",
"r u 3 3 3 3 3 3 3 3 - . - - - - - - - - - - - - # - - - # # # # O O O . .     . y | K - 3 4 4 4 4 4 4 4 K j.h./ / / ....../ / r ",
"r O O O O O O O O O O . # # # # # # # # # # # # # # # # # # # O O O O O X     - y 1.| t 3 3 3 3 3 3 3 3 y.j.#./ / / ..../ / / r ",
"r / 3 3 4 4 4 3 4 3 - . - - - - - - - - - - - - - - - - - # # O # # # O X .   O 3 K 1./ t t t t t t t #.j.p./ / / / / / / / / r ",
"r / 3 3 4 4 4 3 3 3 3 # r r 4 4 4 4 4 4 4 4 4 4 4 4 4 4 r r : - - # # O X .     # 4 / 1.U 4 4 4 4 4 K j.h./ / / / / / / / / / r ",
"r / l v s e e w q U ! U r r r 3 3 3 3 3 3 3 3 3 3 3 3 3 3 3 3 : - # # O . .     O : 3 | ,.u 3 3 3 U j.j.] / | s s e e e q 9 U r ",
"r / l G S A l s q 9 u ! U t t t t t t t t t t t t t t t t t t t t 3 - O . # 3 r t 3 : 4 $.=.y t 2.j.g.] / _ s N v v l e 9 2 t r ",
"r / e Z 9 9 9 9 q 9 7 u ! ! K K y t 4 4 4 4 4 4 4 4 4 4 4 4 4 4 4 4 4 4 4 4 4 4 4 4 - 3 r >.$.{ j.s.! / ] e v q 9 9 9 6 6 , r 4 ",
"r / w N 9 9 9 9 9 q q 7 K ! ! ! U a t r 3 3 3 3 3 3 3 3 3 3 3 3 3 3 3 3 3 3 3 3 3 3 : - 3 y 2.p.#./ / | s v q 9 9 9 7 7 < ; r 4 ",
"r / w v 9 9 9 9 9 9 9 q 9 u ! / / _ _ a t a u y t t t t t t t t t t t t t t t t a | e.f.y | { U / / { l v q 9 9 9 8 6 6 , = r 4 ",
"r / q s 9 9 9 9 9 9 9 9 q 9 6 U ! / _ ] | { | ! u u a y t r 4 4 4 4 t t y ! ,.u.y.p.f.d._ K / / ] w v l 9 9 9 9 9 7 6 6 > = r 4 ",
"r / q s 9 9 9 9 9 9 9 8 9 q 9 9 a ! / / / | #.#.] ] { #.$.#.#.#.#.#.#.$.=.1.e.f.9.#./ / / / _ $.s v s 9 9 9 9 9 9 6 6 6 ; = r 4 ",
"r / q e 9 9 9 9 9 8 7 6 6 7 9 9 9 7 a U ! / / / / *.=.*.,.1.q.q.q.y.9.e.y.8.$./ / / / / ] { e l l q 9 9 9 9 9 9 6 6 6 6 ; * r 4 ",
"r / q e 7 8 8 8 7 7 6 6 6 6 6 6 9 9 6 6 6 U ! / / / / / / / / / / / / / / / / / _ / _ q w s s e 9 9 9 9 9 9 9 7 7 6 6 2 = & r 4 ",
"r / q e 6 6 6 6 6 7 6 6 6 6 6 6 6 6 6 2 1 y ! w q { _ _ / / / / / / _ _ _ _ / 9 9 ! ! 9 q q 9 9 9 9 9 9 9 9 7 7 6 6 6 2 = & r 4 ",
"r / 9 e 6 6 6 6 6 6 6 6 6 6 6 6 6 6 < , 3 t ! l A e e e w w w e e e e e w q q 9 6 r u u 9 q 7 7 6 6 7 6 6 6 6 6 6 6 2 1 & & r 4 ",
"r / 9 e 6 6 6 6 6 6 6 6 6 6 6 2 2 2 = = r y 9 N q e s v v l s s e e s e e q 9 2 1 > y K 9 q 6 6 6 6 6 6 6 6 6 6 6 2 1 1 & % r 4 ",
"r / 9 w 6 6 6 6 6 6 6 6 2 2 2 2 2 , = & r u q v 6 6 7 6 7 6 6 6 7 6 6 6 6 6 2 2 , > t K 6 0 6 6 6 6 6 6 6 6 6 2 2 1 1 < & @ r 4 ",
"r / 9 q 2 2 2 6 2 2 2 2 1 1 1 1 1 = & & t y w q 6 6 6 6 6 6 6 6 6 6 6 6 2 2 2 1 ; = 3 u t 9 9 2 2 2 6 6 2 2 2 1 1 1 < , % + r 4 ",
"r / 9 0 1 1 1 1 1 1 1 1 1 < < < < & % 4 y 6 q 6 2 2 6 6 6 6 6 6 6 2 2 2 1 1 1 1 ; * & y u 6 9 1 1 1 2 1 1 1 1 1 < , , , @ + r 4 ",
"r / 7 9 < < < < < < < < , , , , = % + r y 9 q 1 1 1 1 2 2 2 2 2 1 1 1 1 < < , , , & & t K 1 7 1 < < < < < < < , , , > > + + r 4 ",
"r / 6 9 , , , , , , , , > > > > % + @ t t 9 9 , < < 1 1 1 1 1 1 < < , , , , > > > & % : u , 6 6 , , , , , , , , > > ; = + O r 4 ",
"r / 6 7 > > > > > > > > ; > = = + + 3 y < 9 1 , , , , , , , , , , , > > > ; ; > > % @ + y t 1 6 > > > > > > > > > > = = O o r 4 ",
"r / 2 6 = = = = = = = = = = = & O X r y 1 6 = > ; > > > > > > > ; ; = = = = = = = & + + t K > 1 > = = = = = = = = = = * o X r 4 ",
"r / < < = = = = = * * * & * & o X O r r > > = = = = = = = = = = = = = = * * * * & & o o : u = > = * = * * * * * * & & & X X r 4 ",
"r / = @ . . . . . . . . . . . . . - t & + . . . X X X X X X X X X . . . . . . . . . . . X a 4 + O X X . . . . . . . . . . . r 4 ",
"r / O . . . . . . . . . . . . . . 4 y . . . . . . . . . . . . . . . . . . . . . . . . . . t u . . . . . . . . . . . . . . . r 4 ",
"r / U t r r r r r r r r r r r r r t K U y r r r r r r r r r r r r r r r r r r r r r r r r y U K t r r r r r r r r r r r r r t r ",
"r r r r 4 4 4 4 4 4 4 4 4 4 4 4 4 w r r 4 4 4 4 4 4 4 4 4 4 4 4 4 4 4 4 4 4 4 4 4 4 4 4 4 r r r r 4 4 4 4 4 4 4 4 4 4 4 4 4 r 4 "
};
