/* XPM */
static char * east1_xpm[] = {
"64 64 206 2",
"  	c #454545",
". 	c #4A4A4A",
"+ 	c #494949",
"@ 	c #474747",
"# 	c #434343",
"$ 	c #3B3B3B",
"% 	c #383838",
"& 	c #484848",
"* 	c #464646",
"= 	c #4D4D4D",
"- 	c #4B4B4B",
"; 	c #444444",
"> 	c #3C3C3C",
", 	c #373737",
"' 	c #3A3A3A",
") 	c #4F4F4F",
"! 	c #505050",
"~ 	c #4E4E4E",
"{ 	c #4C4C4C",
"] 	c #3F3F3F",
"^ 	c #424242",
"/ 	c #404040",
"( 	c #525252",
"_ 	c #535353",
": 	c #515151",
"< 	c #5C5C5C",
"[ 	c #2F2F2F",
"} 	c #595959",
"| 	c #565656",
"1 	c #575757",
"2 	c #555555",
"3 	c #545454",
"4 	c #333333",
"5 	c #393939",
"6 	c #626262",
"7 	c #3E3E3E",
"8 	c #414141",
"9 	c #3D3D3D",
"0 	c #272727",
"a 	c #353535",
"b 	c #323232",
"c 	c #303030",
"d 	c #343434",
"e 	c #292929",
"f 	c #262626",
"g 	c #5D5D5D",
"h 	c #1F1F1F",
"i 	c #212121",
"j 	c #363636",
"k 	c #2A2A2A",
"l 	c #242424",
"m 	c #313131",
"n 	c #1D1D1D",
"o 	c #5B5B5B",
"p 	c #232323",
"q 	c #2D2D2D",
"r 	c #2E2E2E",
"s 	c #2B2B2B",
"t 	c #1C1C1C",
"u 	c #AD9943",
"v 	c #2C2C2C",
"w 	c #222222",
"x 	c #282828",
"y 	c #AD9942",
"z 	c #1B1B1B",
"A 	c #252525",
"B 	c #202020",
"C 	c #1E1E1E",
"D 	c #AD9841",
"E 	c #AC9414",
"F 	c #AD951C",
"G 	c #AC9517",
"H 	c #3E573E",
"I 	c #AB940D",
"J 	c #AB940C",
"K 	c #AB940E",
"L 	c #AB940F",
"M 	c #191919",
"N 	c #1A1A1A",
"O 	c #A48E14",
"P 	c #003400",
"Q 	c #0B0B0B",
"R 	c #0E0E0E",
"S 	c #A38D0D",
"T 	c #131313",
"U 	c #003300",
"V 	c #003700",
"W 	c #003800",
"X 	c #003900",
"Y 	c #003600",
"Z 	c #003200",
"` 	c #003A00",
" .	c #003D00",
"..	c #003E00",
"+.	c #003F00",
"@.	c #003B00",
"#.	c #003C00",
"$.	c #002C00",
"%.	c #003500",
"&.	c #002400",
"*.	c #001800",
"=.	c #002B00",
"-.	c #002F00",
";.	c #002E00",
">.	c #001C00",
",.	c #000000",
"'.	c #000700",
").	c #000500",
"!.	c #000100",
"~.	c #000300",
"{.	c #000B00",
"].	c #004000",
"^.	c #002700",
"/.	c #001500",
"(.	c #171717",
"_.	c #001A00",
":.	c #000E00",
"<.	c #181818",
"[.	c #000C00",
"}.	c #001400",
"|.	c #000D00",
"1.	c #001F00",
"2.	c #002300",
"3.	c #001B00",
"4.	c #002000",
"5.	c #000F00",
"6.	c #001000",
"7.	c #000400",
"8.	c #585858",
"9.	c #002100",
"0.	c #001700",
"a.	c #5A5A5A",
"b.	c #001300",
"c.	c #001100",
"d.	c #003100",
"e.	c #000A00",
"f.	c #151515",
"g.	c #002500",
"h.	c #000200",
"i.	c #002A00",
"j.	c #003000",
"k.	c #001600",
"l.	c #141414",
"m.	c #161616",
"n.	c #222A22",
"o.	c #183318",
"p.	c #014001",
"q.	c #193719",
"r.	c #273027",
"s.	c #2B2C2B",
"t.	c #303230",
"u.	c #2D392D",
"v.	c #233423",
"w.	c #2C2F2C",
"x.	c #606060",
"y.	c #343534",
"z.	c #232C23",
"A.	c #173B17",
"B.	c #163B16",
"C.	c #222D22",
"D.	c #232523",
"E.	c #272827",
"F.	c #1D231D",
"G.	c #1E301E",
"H.	c #1A2E1A",
"I.	c #272C27",
"J.	c #292B29",
"K.	c #1D291D",
"L.	c #154015",
"M.	c #154315",
"N.	c #182718",
"O.	c #272927",
"P.	c #1E251E",
"Q.	c #1A2F1A",
"R.	c #054005",
"S.	c #253925",
"T.	c #1E261E",
"U.	c #1E1F1E",
"V.	c #191D19",
"W.	c #162416",
"X.	c #074307",
"Y.	c #253225",
"Z.	c #2E312E",
"`.	c #121212",
" +	c #162016",
".+	c #153015",
"++	c #153415",
"@+	c #1A241A",
"#+	c #282928",
"$+	c #2E302E",
"%+	c #0E440E",
"&+	c #2E392E",
"*+	c #353735",
"=+	c #2F342F",
"-+	c #1B381B",
";+	c #203D20",
">+	c #383E38",
",+	c #3C3D3C",
"'+	c #1A1F1A",
")+	c #1C2A1C",
"!+	c #154415",
"~+	c #223322",
"{+	c #2A2E2A",
"]+	c #262C26",
"^+	c #2E372E",
"/+	c #252725",
"  . .       + @   # $ % # & *           = = = = -       ; > , ' ) ! ! ~ ~ { @ @ ; ] ] ; ; - * ^ ^ * &   -     / % > ; ~         ",
"- ( _ ) ( - ( { : @ $ , ! < ) ) { ~ ~ . ! = = ! . ~ = ( - ] [ > } | 1 2 ( 3 ! 3 - : : { - & { @ - = ~ : _ = ! > 4 5 6 } ) : ~ = ",
"> / 7 / 8 > 9 > 7 [ 0 a = _ > > > % > > % 7 / 5 5 > > # b 0 c 9 ( 8 7 5 / $ d ^ 4 / ; % / 4 / 4 # % > ] 9 9 % e f ' g & ' ^ 7 > ",
"> $ 5 ] c 9 7 b ' h i a { - 8 / % % 5 % ' j , b d % j 4 k l c > ! j 4 b > m 4 > 4 > > [ 7 j $ b > 4 a > $ j c n f ' o ' 9 5 j ] ",
"a ] % , % % d d ' p h a & - 7 7 d % 9 [ a 4 5 q % 4 c $ k h 0 % & a j > a b 4 r 9 5 5 a ] % $ s 9 [ b > r 5 b t f ' 2 / d % a 9 ",
"5 , % > s 5 r 4 r i h u # @ $ % s , d m , v a q 4 4 4 [ k w 0 % & , q [ , r v [ r % a x 5 v a 4 % v m [ y 4 e z A a : $ ' a 4 % ",
"B k v s n i C h A C D E F G E H H H H H H H H H H H H H H H H H H H H H H H H H H H H H H H H H H I J K L D n M w m   4 e 0 C w ",
"w p A A w w w i N N C O s l N P P P P P P P P P P P P P P P P P P P P P P P P P P P P P P P P P P Q R Q S T N ' b l 0 f f q s w ",
"& ^ > 5 8 8 8 ' % % % , q % % U U P V W X W Y P Z Z U U P Y Y Y P Z Z Z P V X X X X X X W V V Y Y [ q s % w ] $ 5 % % / / > % % ",
"o + = @ # * ; ; @ #   9 > % $ W W W `  ...+...@.X W V V W X X X W V W W @...+.+.+.+... .#.@.` X X $ a 5   ; ; ; ;     ; ; > ' > ",
"_ % 9 j d a , j 4 , 7 d n q % ` W W W `  .+.+...#.` W V V W W W V W X @. .+.+..... .#.` X W W X @.e f q d j c $ d b > > c C b $ ",
": ] 5 % r % 4 a j 4 $ v n f b #.X W V W @...+.+... .` X U $.V W W X @. .....#.@.Z %.X W V V W @. .A v e , b a a j 4 % % e C e j ",
"! d > a c 4 m 9 j 4 a s n f 4 ..@.X W W X #.+.+.+.+. .#.` &.*.=.Z Z -.;.U U $.>.>.Y W V V W `  .+.e l v 4 c 4 c 7 4 % c x C e % ",
"! 5 4 s b 4 c $ k a > q n s 9 .. .@.W W W `  .+.+.+.+.+...@.>.,.'.).!.!.~.'.!.{.Z W W W X @. ...+.A p f e m , q $ k 5 ' e n c / ",
"# s i C l f 0 k w p A B C r 7 #... .@.W W W `  .+.+.].+.+...^.,.,.,.,.,.,.,.,./.W ` ` @.#...+.+.+.z z (.C l x A k i 0 w h i b / ",
"r p C w p i t z w w n N w c 4 `  ... .` W V W `  ...+.+.]..._.,.,.,.,.,.,.,.,.:.V  .....+.+.+... .T (.<.t t B w i z B e 4 r , % ",
"; = / > * * * ] 8 7 % % ' ^ * X @.....#.X W W X ` #...+.+.#.[.,.,.,.,.,.,.,.,.'.U +.+.+.+.+. .@.X f b j / @ 8 ; > % % / # ^ j a ",
"! } ! ! . ~ ~ . &     & -     W `  .....@.X W W W X ` #... .}.,.,.,.,.,.,.,.,.|.W ].].+.+. .@.X W # ] 5 ) { { ) + * * ; + ~ % 8 ",
"@ 3 > ^ 5 9 d 4 / > 5 $ # 4 5 W W @. .+...#.` W W V W X @. .&.,.,.,.,.,.,.,.,.1.].].].+...@.X W W 9 % k 8 > % , a / > 5 9 * j / ",
"^ ; % ] c c a r 9 a 5 5 > v > W W X #...+... .` W V V W Y 2.!.,.,.,.,.,.,.,.,.3.+.].+...#.X W V W j s k 9 m v % [ ' % , $ / 5 - ",
"# @ % 9 f j s 4 9 m [ 9 b [ [ X W W `  .+.+.+.#.` W W Y 4.!.,.,.,.,.,.,.,.,.,.5.@.+.+. .` W W W ` j m f > q c r d > c [ 9 a % . ",
"@ ; s j 0 [ a x j [ [ 5 c q % @.X W W @. .+.+... .@.X &.!.,.,.,.,.,.,.,.,.,.,.{.V +. .` W V W X #.5 v t j x q , x 4 a s ' d m / ",
"/ ; c 0 x 0 0 l 0 k x s x x l  .@.W W X @. ...+.+...;.~.,.,.,.,.,.,.,.,.,.,.,.{.Y  .` W V W X #...4 [ n 0 x f 0 l x s 0 s k c $ ",
"' > s 0 f f f f A f 0 0 0 A p +. .` W W X ` @. .+.@.*.,.,.,.,.,.,.,.,.,.,.,.,.6.` @.X V V W @...+.k x t 0 f f f A A f 0 0 x 4 % ",
"+ & & & ^ 7 7 ' d c > _ 3 { { +.+. .` W W W W ` #.Z 7.,.,.,.,.,.,.,.,.,.,.,.,.*.` X W W W `  .+.+.a d d @ 8 > / % % 7   . ; 8 - ",
"@ & & * - & - & > b d 8.= + . ].+... .` W V V W X 9.,.,.,.,.,.,.,.,.,.,.,.,.,.^.X W W W `  .+.+.].m m 4 & & * - & . + % 4 m 8.) ",
"] % ] > ; > / a n q % 8.4 , b ].].+.+. .` W V V %.'.,.,.,.,.,.,.,.,.,.,.,.,.{.%.V V W `  .+.+.].].x p v 5 > 9 ; $ 8 5 C x , 8.% ",
"j a 9 d 9 d 9 r n s m 2 r ] j ].].].+...#.X W W $.,.,.,.,.,.,.,.,.,.,.,.,.!.^.W W W `  .+.+.].].].0 p A 4 9 j 9 4 > 4 t f 4 3 b ",
"7 4 $ $ ] j a v h c $ } % 4 d ].].].].+...#.` X 1.,.,.,.,.,.,.,.,.,.,.,.,.0.%.W ` @. .+.+.].].].].w w s d , > ] % d c n q 5 a.9 ",
"% m ' m % a % q h c , ! q 7 k ].].].].].+.+...` b.,.,.,.,.,.,.,.,.,.,.,.c.d.W ` #...+.+.].].].].].v A f b % a % a % m n q j : [ ",
"B p k l l x w B n q % ; e 4 k ].].].].].].+.+.%.e.,.,.,.,.,.,.,.,.,.~.*.Z W `  .+.+.].].].].].].].p N f.w e f w k w i N e ,   s ",
"w w w w w w p w w s 9 7 A C C ].].].].].].].+.g.!.,.7.h.,.,.,.~.|._.i.Y X @. .+.+.].].].].].].].].z (.(.w w w w w p w w f $ / s ",
"/ . # ; > /   $ % % ] ^ % % 7 ].].].].].].].W '.!._.%.%.d.-.;.j.U Y W X @. .+.+.].].].].].].].].].m x k + * ^ 9 7   9 % % > ; / ",
"  | - . = + = ;   ;   ^ ; ; ; +.].].].].].].%.k.=. .].+.+. .X W W W X @. .+.+.].].].].].].].].].].d e x 8.{ . = & = * ; * ; 9 % ",
"& = 4 5 j c > , j % 4 e > a % +.+.].].].].].+. .].].].+...#.W W X @.#...+.+.].].].].].].].].].].].l T k ( % j % s 9 % a > [ x 0 ",
"  - v > s m s > r > m b > c %  .+.+.].].].].].].].].].+.+. .@.` @. .+.+.+.].].].].].].].].].].].].0 l.x : c % r b q % r 9 b p w ",
"/ = , > d b % 4 5 ' ' s % a % @. .+.+.].].].].].].].].].+.+... ...+.+.].].].].].].].].].].].].].].l l.p : ' ' % v $ 4 % 9 j v i ",
"@ = m , , b m > [ ' , b 9 s a X @. .+.+.+.].].].].].].].].+.+.+.+.+.].].].].].].].].].].].].].].].h l.e : % 4 % [ d % [ 9 4 s i ",
"# / s c 0 s s [ s s 0 x q 0 A W X @.#...+.+.].].].].].].].].].].].].].].].].].].].].].].].].].].].N l.x ; q r x s k [ s q 0 C t ",
"4 , A f f 0 f f A 0 v s w t t W W W ` #. .+.+.+.].].].].].].].].].].].].].].].].].].].].].].].].+.m.(.B $ A f f 0 f f f A s w M ",
". # # + # * 8 8 ^ = _ . # 8 > n.o.W W X @.#...+.+.].].].].].].].].].].].].].].].].].].].].].p.q.r.m m a / @ @ ; @ 8 #   / > ;   ",
"+ - - = / # ; # . ; ^   # 8 5 s.t.u. .].].].].].].].].].].].].].].].].].].].].].].].].].]. .v.w.m [ c d = & = ^ ; ^ # , 4 d x.! ",
"5 m % % j c j v 8 q v j v [ n f m y.z.A.p.].].].].].].].].].].].].].].].].].].].].].].p.B.C.D.E.l x C e d 4 ' , [ a % B s ' o % ",
"9 s r $ [ 4 r ' m r % s , e h e c d w F.G.].].].].].].].].].].].].].].].].].].].].].+.H.I.e B l C C p 4 [ k ' [ j v [ C 0 ' o b ",
"m d b s [ , , 4 5 e [ v 5 l h v b , B n J.K.L.p.].].].].].].].].].].].].].].].].].M.N.O.p h x i x C [ r % q [ s $ m 4 t A % a./ ",
"r % 4 k a 4 m q 4 c b , [ [ C c > j p h k h P.Q.R.].].].].].].].].].].].].].].].S.T.U.w t x x i i k q e > [ q 4 j q , h w q 2 c ",
"0 0 e p i A p f s A 0 w 0 h h d 7 d <.f.n M <.V.W.X.].].].].].].].].].].].].+.Y.Z.`.T C m.t n N p w 0 A e A 0 B f w f N i , ) x ",
"p w p w p w p w w w w p p w w a 7 d w C <.(.(.(.(. +.+R.].].].].].].].].].++@+#+e m.(.(.(.m.T m.<.C w p w p w p w p C N n 4 9 x ",
"/ + + ; ; ; + * ; # ' % ^ &       ; ^ 7 7 % j j a c $+r.%+].].].].].]...&+*+4 b c s s c m 5 5 $ ] / d > @ { ; ; ; & & ; ; > % ] ",
"& g _ ) ( - ( { : @ $ , ! < ) ~ - = = & & ] 5 5 a % , ' =+-+R.].].].;+>+,+9 5 > a ' $ % $ 7 *   . # > ' g 2 ) _ - : ~ : - 9 d / ",
"@ ( 9 / 8 > 9 > 7 [ 0 a = _ > $ $ , > $ , % a k x k k [ w '+)+!+].~+{+x q e l r p r 4 q % m 7 b ^ c e % | / 7 ^ > 9 > ] b x c / ",
"  + 5 ] c 9 7 b ' h i a { - 8 ] % , 5 % 5 a b k x e f l t <.i ]+^+/+p w k w l s A q b k > a ' m > 0 w % : , ] m > 7 d > p B c / ",
"; & , , % % d d ' p h a & - 7 7 d % 9 [ a 4 5 s b k A s n l.z x 4 A f k A p l w b b j d ] % $ s 9 s i % = 5 a % a 5 b > 0 C c ] ",
"^ ; % > s 5 r 4 r i h m # @ $ % s , d m , v a q b c q f h (.z x d f h i f B B 0 e j a x 5 v a 4 % x h % + % > v % b m [ l C q ' ",
"9 % s s n i C h A C B k 7 4 s A w x A e l w f w A n i C N (.t 0 s z N z z n h p l f w i x w w e i w h j $ [ s C B B C A h C 0 5 ",
"% 4 A A w w w i N N C s 7 4 f l l w n n n i p t N N h w w w [ 7 c f 0 0 0 f f A f w C C n i l A i i i a , A f w i w w t N n 0 9 ",
"= > > 5 8 8 8 ' % % % / , % % * & ; / > ] & # # ' 9 # 8 8 8 * > # & & & @ / % q ' . & * ; & ^ { 9 > 5 / ^ 8 > % % ] & ^ > [ c = ",
"3 . = @ # * ; ; @ #   * > % $ 6 ! : = ) & { + @ ~ + & # ;     ; * * ; . - 8 $ d . g ) = - = = 2 . = + # @ # ; & 8 . = @ > 4 a 6 ",
"$ % 9 j d a , j 4 , 7 d n q % < > > % / , $ j 5 5 4 $ b $ % a ' 7 a % ] ; s A j @ : 5 7 a 5 9 > ' 5 ' 4 % b % 4 4 8 ; , C c % } ",
"m / 5 % r % 4 a j 4 $ v n f b 1 d $ % % d [ d c $ [ % j m v 4 , > s 4 > [ A i c ; * 5 / > , % [ ] > % q $ m j % r / j s n e a 3 ",
"> a > a c 4 m 9 j 4 a s n f 4 8.4 7 , > s % m v ' v > 4 m , b $ m m b $ > l C k # + % 9 b 7 4 $ , % % m m 4 ' 5 r / ] [ t l b ( ",
"[ ' 4 s b 4 c $ k a > q n s 9 2 / [ 4 , a q s [ q q % [ q 4 m 4 s j b c 5 A M s # / 5 5 0 % 4 q 7 r [ m m a % v m ' % r N i j { ",
"p s i C l f 0 k w p A B C r 7 . m k 0 0 r k e 0 s A s 0 v f 0 e e f e A x C M b > 9 e 0 n 0 0 i r i C p l x x l i e x w M f d @ ",
"i w n i w h N N w w t M w c 4 > q x A A A A x s v v f p w t t t n p p C w i f j ] j w l i w w i w h h w i N N i w h i w w [ > ] "};
