/* XPM */
static char *wall2_east_new1741897017[] = {
/* columns rows colors chars-per-pixel */
"64 64 42 1 ",
"  c gray5",
". c gray6",
"X c #101010",
"o c #131313",
"O c gray8",
"+ c #151515",
"@ c gray9",
"# c #181818",
"$ c gray10",
"% c #1B1B1B",
"& c gray11",
"* c #1D1D1D",
"= c gray12",
"- c #202020",
"; c #222222",
": c #232323",
"> c gray14",
", c #272727",
"< c #282828",
"1 c #2A2A2A",
"2 c gray17",
"3 c #2C2C2C",
"4 c #2D2D2D",
"5 c #2F2F2F",
"6 c gray19",
"7 c gray20",
"8 c #343434",
"9 c gray21",
"0 c #373737",
"q c gray22",
"w c gray23",
"e c #3F3F3F",
"r c gray43",
"t c gray45",
"y c #747474",
"u c gray46",
"i c #767676",
"p c #53FF00",
"a c #F500FF",
"s c gray52",
"d c #888888",
"f c #898989",
/* pixels */
"ppppppppppppppppppppppppppppppppaaaaaaaaaaaaaaaaaaaaaaaaaaaaaaaa",
"ppppppppppppppppppppppppppppppppaaaaaaaaaaaaaaaaaaaaaaaaaaaaaaaa",
"ppppppppppppppppppppppppppppppppaaaaaaaaaaaaaaaaaaaaaaaaaaaaaaaa",
"ppppppppppppppppppppppppppppppppaaaaaaaaaaaaaaaaaaaaaaaaaaaaaaaa",
"pppp;;;*;oo;44>1*;>*=*>%>=*>$o+>4;;>;*;$>>>;>;;$>**>*:*o+:01aaaa",
"pppp$>$*$o.*14;;$;;*;$;%==*$#O#>4;%$;$$*$;;+>$;;;$**$=+.+;8>aaaa",
"pppp.ooo++o+>*$+o++++O+O+.ooXX#>>$@$@++@++oo$oo@+o.+.oo.o*4*aaaa",
"ppppoooo .+$1;+++OX..OOXX.XOOo$>*++@+++oo..+++++o.o...+:*+@+aaaa",
"pppp111;;;;1;;;441>>>411>>11114>1444734,**417114>11>>;<::::1aaaa",
"pppp14111141>;>e80703744044114414346144;;*ew4766085633334434aaaa",
"pppp*;;;*;1;o*;w>>;1;>;>;*>*;>;>>*;>>>;o$;04;>;>>>;<=;*>**;>aaaa",
"pppp$;;;;*;$.+$w=>>;;$=*>%;;*$=;>$:>*;$.+;0>>,;>*;>>;*==;;:>aaaa",
"pppp*;*>;;*$.+*0*>;>$;*$>$>;*;*>*;*>*;;.o%01;;>>*>->=*=*>=:*aaaa",
"pppp***;+;;$.$>01%;;;$$$%%;*%**=$;**;**..;7;:%*;*;=;$*;%>$::aaaa",
"pppp+++$+o+oo$>7*#+$%###$+$+$+#+++@+$++.o*4;++.%o@#o.+@O$o+oaaaa",
"ppppoo..o+..o*;>$$++++$$%%++OXX++o+o.+++$;>$++o+oXOO..ooo.O+aaaa",
"pppp41411<>;>1311<>>>>;;>7343>>><134>114133<>133;;35<411;;><aaaa",
"pppp47744434434444144>ifffdfffffffffffffdfr3111;=w0806404331aaaa",
"pppp>>;*1>>>1=>;>>*<>*yfffffffffffffffffffr>*>*o+06>1>;;;1>>aaaa",
"pppp****>=;>>$>*;>$*>#yfffffffffffffffffffr>=;@.+6<>>*$>&:>;aaaa",
"pppp+;$*>**>*%*>$>$>*+iffft*>**>*>*@=;=$=;;>*>$.+63=>&*%;>*%aaaa",
"pppp$*;+;%*>*$>*$;***=yffft>$;;*%=;$%$=#>$%;<=%.+8<@;#%>@==$aaaa",
"pppp$+++#$$$$++OO++$o.yfffy*$###@+#@$+#+%o#o&*@.+41$@$+++@$@aaaa",
"pppp++++++++#+O+$$+ooOyffft+++++ooXo+$$+X.o++@+o+>>#+++@++++aaaa",
"pppp1>>>;*>0q66311>>>>ifffy4>43<*&:336431>31<113>44441><>;<3aaaa",
"pppp6474>*;06447643441iffft4113>=<0055664551313433344445454;aaaa",
"pppp3><;X$;q=;=>;>*>;*iffft;*>;O%>w1$;::$>;*;;=>*>*<>>>3:1;oaaaa",
"pppp>;>$X$*q*<;>>;=<*;yfffy$>>>O&3e1=>>;:><;>*;>>;===<;>=<=.aaaa",
"pppp<;;$o$>q;=*>*%;;=*idfft;$>;X$3e>>::*>>*>;>>>***>;;><>*&.aaaa",
"pppp>=;$O*;8*>#>>*;>*>iffft;;>;O$>01*<;<;;>=>*;>*<=>*;=>->*.aaaa",
"pppp+#Oo.$;3$*$*#$$%+$yfffffffffdffffffffs%$*$$$#*@oo#+o#oo.aaaa",
"ppppOOOoo#>>+XOX+#%$+Xyffffffffffffffffffs+ooO++++oooO+OOOooaaaa",
"pppp>14>;>>1;>>1114411iffffffffffffffffffs11:3313<;:341;<3>>aaaa",
"pppp666141411141111413iffdi>q0464564313<113113113<>>w4475633aaaa",
"pppp;*>;;;;#>;;$>;%>%>yffft:q>*;#**@:=*=*;=*>;;;&&.>0;;>$>>=aaaa",
"pppp$*$>*>**>*>*$;$;$*iffft;0>*$=:#>**>&>%>*>;=;$*o>8*;%*%>%aaaa",
"pppp**>;;>>$>;;+;=*>*>iffft;0;*;$=;&:%#=$>*:=;&>==.=8>:>%:=;aaaa",
"pppp;**>*>;*>$;$$;;;$;yffft18;$;$*=*>%%>$=:*;>;>#%o>8;=;&=>&aaaa",
"pppp$$$*$$+#$+++o++$o+tffft<1$$$@%@*++##O$$O$@+$O+o>3%%@$#*$aaaa",
"pppp++++++$$o.XOooXX.oyffft*>++++OXo+$$+Xooo..XoOoo%>O+@@++@aaaa",
"pppp1111160411>>14<>>1iffft4>1111<1<31>>433>;$&><33514314113aaaa",
"pppp1111611311;>4q7666iffft134131311<>*3w556413<31146461311;aaaa",
"pppp;*;$1$$;$*O;44>;:$idfft$>;$;$&;$=o=10=&>$>=>=>%;==>>&=;oaaaa",
"pppp%=%;*$;$;+X*14**>$iffft>%;;$*$=$$.*18*=*<:%=$$*>&$:%;$*.aaaa",
"pppp%;;=>#*$;+O*17$$>*yfffy$;$>*:*$=@X&10*+>=%>&>@;*:&&$>**.aaaa",
"pppp;**%***;%$O;34*$>*yffft+;*=>$=;#*X@:6%%*@>>%%=*$>*%=;$;oaaaa",
"ppppO+++$++o+Oo*1<OO$+yffffffffffffffffffff$o$$O$+@+#++o+o+.aaaa",
"ppppOO++o++oooo;<;++ooyffffffffffffffffffffOOo...oOoOOOOOoX.aaaa",
"pppp114431>;1443441466idfffffffffffffsfdffd335311<=>46313344aaaa",
"pppp060484;;8w776666066766606>*>000000805886545451<>w0604868aaaa",
"pppp1>>>>$+;70>>>;>>;>1;>>:4*$*>01<><>;1=<3;<=1=1*#>0<>1>>><aaaa",
"pppp*<<*>o+;4411>>>;>;;*;;;*$+*>6;=*>*=>=>>%<;>*>+o>8;<&>1;>aaaa",
"pppp;;*;;oo;44><;;>*;*>$;**>$o#>4;;>===%<>>=<;>$<$o;5>;>;:=>aaaa",
"pppp$>**%oX*14>>$;;*;$;%==**+o+>4;$*;*$*%;=@>$;*;@o;4;:$>***aaaa",
"pppp.ooX+oO+>=$+o+++Oo+o+.oooo+;>$+$@+@++++o#oO#ooo;>%$oooX+aaaa",
"ppppoooo .O$1*++ooo..o+XXX.ooo*>*++O+@++@oX..o++ooo*;++oooo.aaaa",
"pppp111>;;;<;>;3411>1411>>11114>34444<;%:6433435<>><<1:>;>43aaaa",
"pppp13113141>;>e8066466474411441333561>=5w866660564141341664aaaa",
"pppp*;;;*;<;X*;w>>;1;>;>>*>*;;;>>;><1$+;48;<=:<>>>>=>*;==13;aaaa",
"pppp$;*;;*>$.+%w*>>;;%**>*>;*$*;>$*>&+o*13><>;;%<:>&:*;;%<=$aaaa",
"ppppppppppppppppppppppppppppppppaaaaaaaaaaaaaaaaaaaaaaaaaaaaaaaa",
"ppppppppppppppppppppppppppppppppaaaaaaaaaaaaaaaaaaaaaaaaaaaaaaaa",
"ppppppppppppppppppppppppppppppppaaaaaaaaaaaaaaaaaaaaaaaaaaaaaaaa",
"ppppppppppppppppppppppppppppppppaaaaaaaaaaaaaaaaaaaaaaaaaaaaaaaa"
};
