/* XPM */
static char * east2_xpm[] = {
"64 64 195 2",
"  	c #454545",
". 	c #4A4A4A",
"+ 	c #494949",
"@ 	c #474747",
"# 	c #434343",
"$ 	c #3B3B3B",
"% 	c #383838",
"& 	c #484848",
"* 	c #464646",
"= 	c #005200",
"- 	c #4B4B4B",
"; 	c #404040",
"> 	c #3C3C3C",
", 	c #444444",
"' 	c #4E4E4E",
") 	c #525252",
"! 	c #535353",
"~ 	c #4F4F4F",
"{ 	c #4C4C4C",
"] 	c #515151",
"^ 	c #373737",
"/ 	c #505050",
"( 	c #5C5C5C",
"_ 	c #4D4D4D",
": 	c #333333",
"< 	c #393939",
"[ 	c #626262",
"} 	c #595959",
"| 	c #3E3E3E",
"1 	c #414141",
"2 	c #3D3D3D",
"3 	c #2F2F2F",
"4 	c #272727",
"5 	c #353535",
"6 	c #3F3F3F",
"7 	c #292929",
"8 	c #262626",
"9 	c #3A3A3A",
"0 	c #5D5D5D",
"a 	c #424242",
"b 	c #303030",
"c 	c #323232",
"d 	c #1F1F1F",
"e 	c #212121",
"f 	c #363636",
"g 	c #1D1D1D",
"h 	c #5B5B5B",
"i 	c #343434",
"j 	c #232323",
"k 	c #2E2E2E",
"l 	c #1C1C1C",
"m 	c #555555",
"n 	c #2B2B2B",
"o 	c #313131",
"p 	c #2C2C2C",
"q 	c #1B1B1B",
"r 	c #252525",
"s 	c #202020",
"t 	c #2A2A2A",
"u 	c #1E1E1E",
"v 	c #222222",
"w 	c #191919",
"x 	c #1A1A1A",
"y 	c #242424",
"z 	c #2D2D2D",
"A 	c #004B00",
"B 	c #004200",
"C 	c #005100",
"D 	c #004600",
"E 	c #004C00",
"F 	c #003500",
"G 	c #002500",
"H 	c #003E00",
"I 	c #004800",
"J 	c #004700",
"K 	c #004300",
"L 	c #004100",
"M 	c #004000",
"N 	c #002B00",
"O 	c #002C00",
"P 	c #004F00",
"Q 	c #282828",
"R 	c #002800",
"S 	c #000000",
"T 	c #000E00",
"U 	c #000B00",
"V 	c #000200",
"W 	c #000100",
"X 	c #000700",
"Y 	c #000F00",
"Z 	c #001500",
"` 	c #004A00",
" .	c #002200",
"..	c #005000",
"+.	c #002400",
"@.	c #001600",
"#.	c #004E00",
"$.	c #001300",
"%.	c #000C00",
"&.	c #001D00",
"*.	c #004900",
"=.	c #575757",
"-.	c #545454",
";.	c #003000",
">.	c #002A00",
",.	c #003200",
"'.	c #003100",
").	c #001100",
"!.	c #003F00",
"~.	c #000500",
"{.	c #004D00",
"].	c #002100",
"^.	c #001700",
"/.	c #000600",
"(.	c #002300",
"_.	c #585858",
":.	c #002E00",
"<.	c #003800",
"[.	c #005300",
"}.	c #000300",
"|.	c #003B00",
"1.	c #002F00",
"2.	c #5A5A5A",
"3.	c #001000",
"4.	c #002700",
"5.	c #000400",
"6.	c #002900",
"7.	c #004500",
"8.	c #565656",
"9.	c #001E00",
"0.	c #313C31",
"a.	c #264A26",
"b.	c #015201",
"c.	c #234823",
"d.	c #374237",
"e.	c #3B3C3B",
"f.	c #424542",
"g.	c #3E4C3E",
"h.	c #304430",
"i.	c #3D413D",
"j.	c #444544",
"k.	c #606060",
"l.	c #484948",
"m.	c #323D32",
"n.	c #214C21",
"o.	c #1F4C1F",
"p.	c #303D30",
"q.	c #323432",
"r.	c #383938",
"s.	c #2A312A",
"t.	c #2B402B",
"u.	c #243C24",
"v.	c #373D37",
"w.	c #3A3B3A",
"x.	c #3A3C3A",
"y.	c #293829",
"z.	c #1E531E",
"A.	c #1D571D",
"B.	c #213421",
"C.	c #373937",
"D.	c #2C342C",
"E.	c #263E26",
"F.	c #085308",
"G.	c #2F482F",
"H.	c #293329",
"I.	c #2B2C2B",
"J.	c #252A25",
"K.	c #213121",
"L.	c #0B560B",
"M.	c #304130",
"N.	c #3F423F",
"O.	c #212C21",
"P.	c #1F3F1F",
"Q.	c #1C431C",
"R.	c #243024",
"S.	c #414341",
"T.	c #364236",
"U.	c #155815",
"V.	c #384738",
"W.	c #454845",
"X.	c #464746",
"Y.	c #424842",
"Z.	c #264926",
"`.	c #294E29",
" +	c #464E46",
".+	c #505150",
"++	c #262C26",
"@+	c #283828",
"#+	c #1D581D",
"$+	c #2E422E",
"%+	c #393E39",
"&+	c #2F302F",
"*+	c #363C36",
"=+	c #404A40",
"-+	c #343634",
"  . .       + @   # $ % # & * = = = = = = = = = = = = = = = = = = = = = = = = = = = = = = = = = = * &   -     ; % > , '         ",
"- ) ! ~ ) - ) { ] @ $ ^ / ( ~ = = = = = = = = = = = = = = = = = = = = = = = = = = = = = = = = = = _ ' ] ! _ / > : < [ } ~ ] ' _ ",
"> ; | ; 1 > 2 > | 3 4 5 _ ! > = = = = = = = = = = = = = = = = = = = = = = = = = = = = = = = = = = % > 6 2 2 % 7 8 9 0 & 9 a | > ",
"> $ < 6 b 2 | c 9 d e 5 { - 1 = = = = = = = = = = = = = = = = = = = = = = = = = = = = = = = = = = : 5 > $ f b g 8 9 h 9 2 < f 6 ",
"5 6 % ^ % % i i 9 j d 5 & - | = = = = = = = = = = = = = = = = = = = = = = = = = = = = = = = = = = 3 c > k < c l 8 9 m ; i % 5 2 ",
"< ^ % > n < k : k e d o # @ $ = = = = = = = = = = = = = = = = = = = = = = = = = = = = = = = = = = p o 3 n : 7 q r 5 ] $ 9 5 : % ",
"s t p n g e u d r u s t | : n = = = = = = = = = = = = = = = = = = = = = = = = = = = = = = = = = = v u r g v v w v o   : 7 4 u v ",
"v j r r v v v e x x u n | : 8 = = = = = = = = = = = = = = = = = = = = = = = = = = = = = = = = = = g v q x g 4 9 c y 4 8 8 z n v ",
"& a > < 1 1 1 9 % % % ; ^ % % = = = = = = = = = = = = = = = = = = = = = = = = = = = = = = = = = = a ; > % % 6 $ < % % ; ; > % % ",
"h + _ @ # * , , @ #   * > % $ = = = = = = = = = = = = = = = = = = = = = = = = = = = = = = = = = = ] . '   , , , ,     , , > 9 > ",
"! % 2 f i 5 ^ f : ^ | i g z % = = = = = = = = = = = = = = = = = = = = = = = = = = = = = = = = = = $ ^ 6 i f b $ i c > > b u c $ ",
"] 6 < % k % : 5 f : $ p g 8 c = = = = = = = = = = = = = A B C = = = = = = = = C D E = = = = = = = 5 6 % ^ c 5 5 f : % % 7 u 7 f ",
"/ i > 5 b : o 2 f : 5 n g 8 : = = = = = = = = = = = = = C F G H I J K L J I M N O P = = = = = = = $ i 2 : b : b | : % b Q u 7 % ",
"/ < : n c : b $ t 5 > z g n 2 = = = = = = = = = = = = = = P R S T U V W X Y V Z ` = = = = = = = = 5 : f 7 o ^ z $ t < 9 7 g b ; ",
"# n e u y 8 4 t v j r s u k | = = = = = = = = = = = = = = C F S S S S S S S S  .C = = = = = = = = 4 4 v u y Q r t e 4 v d e c ; ",
"k j u v j e l q v v g x v b : = = = = = = = = = = = = = = ..+.S S S S S S S S @.A = = = = = = = = g v j l l s v e q s 7 : k ^ % ",
", _ ; > * * * 6 1 | % % 9 a * = = = = = = = = = = = = = = #.$.S S S S S S S S %.K = = = = = = = = ^ * - ; @ 1 , > % % ; # a f 5 ",
"/ } / / . ' ' . &     & -     = = = = = = = = = = = = = = P &.S S S S S S S S $.*.= = = = = = = = ( =.~ ~ { { ~ + * * , + ' % 1 ",
"@ -.> a < 2 i : ; > < $ # : < = = = = = = = = = = = = = = C ;.S S S S S S S S >.= = = = = = = = = m _ > 1 > % ^ 5 ; > < 2 * f ; ",
"a , % 6 b b 5 k 2 5 < < > p > = = = = = = = = = = = = = P ,.W S S S S S S S S G C = = = = = = = = { > > 2 o p % 3 9 % ^ $ ; < - ",
"# @ % 2 8 f n : 2 o 3 2 c 3 3 = = = = = = = = = = = = ..'.V S S S S S S S S S @.E = = = = = = = = - , f > z b k i > b 3 2 5 % . ",
"@ , n f 4 3 5 Q f 3 3 < b z % = = = = = = = = = = = C F W S S S S S S S S S S ).J = = = = = = = = / 6 7 f Q z ^ Q : 5 n 9 i o ; ",
"; , b 4 Q 4 4 y 4 t Q n Q Q y = = = = = = = = = = = !.~.S S S S S S S S S S S ).J = = = = = = = = & a n 4 Q 8 4 y Q n 4 n t b $ ",
"9 > n 4 8 8 8 8 r 8 4 4 4 r j = = = = = = = = = = {.].S S S S S S S S S S S S ^.{.= = = = = = = = > % 7 4 8 8 8 r r 8 4 4 Q : % ",
"+ & & & a | | 9 i b > ! -.{ { = = = = = = = = = = B /.S S S S S S S S S S S S (.C = = = = = = = = + & & @ 1 > ; % % |   . , 1 - ",
"@ & & * - & - & > c i _._ + . = = = = = = = = = C :.S S S S S S S S S S S S S <.[.= = = = = = = = , , @ & & * - & . + % : o _.~ ",
"6 % 6 > , > ; 5 g z % _.: ^ c = = = = = = = = = #.T S S S S S S S S S S S S $.{.= = = = = = = = = % c | < > 2 , $ 1 < u Q ^ _.% ",
"f 5 2 i 2 i 2 k g n o m k 6 f = = = = = = = = = B S S S S S S S S S S S S }.|.= = = = = = = = = = ^ : 5 : 2 f 2 : > : l 8 : -.c ",
"| : $ $ 6 f 5 p d b $ } % : i = = = = = = = = = 1.S S S S S S S S S S S S G #.= = = = = = = = = = b o 2 i ^ > 6 % i b g z < 2.2 ",
"% o 9 o % 5 % z d b ^ / z | t = = = = = = = = P &.S S S S S S S S S S S &.*.= = = = = = = = = = = > i ^ c % 5 % 5 % o g z f ] 3 ",
"s j t y y Q v s g z % , 7 : t = = = = = = = = D 3.S S S S S S S S S /.4.A = = = = = = = = = = = = b 4 s v 7 8 v t v e x 7 ^   n ",
"v v v v v v j v v n 2 | r u u = = = = = = = C '.W S /.5.S S S ~.@.6.!...= = = = = = = = = = = = = y v v v v v v v j v v 8 $ ; n ",
"; . # , > ;   $ % % 6 a % % | = = = = = = = *.U W (.7.7.M !.M 7.A ..= = = = = = = = = = = = = = = | % > + * a 2 |   2 % % > , ; ",
"  8.- . _ + _ ,   ,   a , , , = = = = = = = 7.9.<.P = = = = = = = = = = = = = = = = = = = = = = = 1 < % _.{ . _ & _ * , * , 2 % ",
"& _ : < f b > ^ f % : 7 > 5 % = = = = = = = C P = = = = = = = = = = = = = = = = = = = = = = = = = 3 g > ) % f % n 2 % 5 > 3 Q 4 ",
"  - p > n o n > k > o c > b % = = = = = = = = = = = = = = = = = = = = = = = = = = = = = = = = = = i u % ] b % k c z % k 2 c j v ",
"; _ ^ > i c % : < 9 9 n % 5 % = = = = = = = = = = = = = = = = = = = = = = = = = = = = = = = = = = : u : ] 9 9 % p $ : % 2 f p e ",
"@ _ o ^ ^ c o > 3 9 ^ c 2 n 5 = = = = = = = = = = = = = = = = = = = = = = = = = = = = = = = = = = p u 9 ] % : % 3 i % 3 2 : n e ",
"# ; n b 4 n n 3 n n 4 Q z 4 r = = = = = = = = = = = = = = = = = = = = = = = = = = = = = = = = = = 4 u < , z k Q n t 3 n z 4 u l ",
": ^ r 8 8 4 8 8 r 4 p n v l l C = = = = = = = = = = = = = = = = = = = = = = = = = = = = = = = = C v v 3 $ r 8 8 4 8 8 8 r n v w ",
". # # + # * 1 1 a _ ! . # 1 > 0.a.b.= = = = = = = = = = = = = = = = = = = = = = = = = = = = b.c.d., , . ; @ @ , @ 1 #   ; > ,   ",
"+ - - _ ; # , # . , a   # 1 < e.f.g.P = = = = = = = = = = = = = = = = = = = = = = = = = = P h.i.j.a # & _ & _ a , a # ^ : i k./ ",
"< o % % f b f p 1 z p f p 3 g i   l.m.n.b.= = = = = = = = = = = = = = = = = = = = = = b.o.p.q.r.i % n ^ i : 9 ^ 3 5 % s n 9 h % ",
"2 n k $ 3 : k 9 o k % n ^ 7 d i 1 + o s.t.= = = = = = = = = = = = = = = = = = = = = C u.v.w.k i p n 3 2 3 t 9 3 f p 3 u 4 9 h c ",
"o i c n 3 ^ ^ : < 7 3 p < y d i 1 { k t x.y.z.b.= = = = = = = = = = = = = = = = = A.B.C.c z < 3 % 7 % c % z 3 n $ o : l r % 2.; ",
"k % : t 5 : o z : b c ^ 3 3 u 5 @ @ c z > z D.E.F.= = = = = = = = = = = = = = = G.H.I.o 7 < < 3 z : o t > 3 z : f z ^ d v z m b ",
"4 4 7 j e r j 8 n r 4 v 4 d d 5 # | e d t r y J.K.L.= = = = = = = = = = = = C M.N.l u n v t t r p 8 4 r 7 r 4 s 8 v 8 x e ^ ~ Q ",
"j v j v j v j v v v v j j v v 5 6 ^ 4 8 v v j j j O.P.F.= = = = = = = = = Q.R.C.9 e v v j e l l q u v j v j v j v j u x g : 2 Q ",
"; + + , , , + * , # 9 % a &         ,   - - - - + , S.T.U.= = = = = = ..V.W.X.* , 2 2 # , +   1 1 ; i > @ { , , , & & , , > % 6 ",
"& 0 ! ~ ) - ) { ] @ $ ^ / ( ~ ' - _ _ + ~ _ _ ~ + _ _ ] Y.Z.F.= = = `. +.+! ~ ! . ] ] - . & - * . # > 9 0 m ~ ! - ] ' ] - 2 i ; ",
"@ ) 2 ; 1 > 2 > | 3 4 5 _ ! > $ $ ^ > $ % 2 ; < < $ $ a c ++@+#+= $+%+< ; 9 i 1 c ; , ^ 6 : 6 c a b 7 % 8.; | a > 2 > 6 c Q b ; ",
"  + < 6 b 2 | c 9 d e 5 { - 1 6 % ^ < % < 5 f o i % 5 : t y &+*+=+-+c o > o : > : $ > k 2 5 9 o > 4 v % ] ^ 6 o > | i > j s b ; ",
", & ^ ^ % % i i 9 j d 5 & - | | i % 2 3 5 : < z % : b $ t d 4 % & 5 f > 5 c : k 2 < < 5 6 % $ n 2 n e % _ < 5 % 5 < c > 4 u b 6 ",
"a , % > n < k : k e d o # @ $ % n ^ i o ^ p 5 z : : : 3 t v 4 % & ^ z 3 ^ k p 3 k % 5 Q < p 5 : % Q d % + % > p % c o 3 y u z 9 ",
"2 % n n g e u d r u s t | : n r v Q r 7 y v 8 v r g v e d u 4 ^ > 4 8 4 4 4 4 4 r 8 v e Q v v 7 e v d f $ 3 n u s s u r d u 4 < ",
"% : r r v v v e x x u n | : 8 y y v g g g e j l x x d v v v 3 | b 8 4 4 4 8 8 r 8 v u u g e y r e e e 5 ^ r 8 v e v v l x g 4 2 ",
"_ > > < 1 1 1 9 % % % ; ^ % % * & , ; > 6 & # # 9 2 # 1 1 1 * > # & & & @ ; % z 9 . & * , & a { 2 > < ; a 1 > % % 6 & a > 3 b _ ",
"-.. _ @ # * , , @ #   * > % $ [ / ] _ ~ & { + @ ' + & # ,     , * * , . - 1 $ i . 0 ~ _ - _ _ m . _ + # @ # , & 1 . _ @ > : 5 [ ",
"$ % 2 f i 5 ^ f : ^ | i g z % ( > > % ; ^ $ f < < : $ c $ % 5 9 | 5 % 6 , n r f @ ] < | 5 < 2 > 9 < 9 : % c % : : 1 , ^ u b % } ",
"o ; < % k % : 5 f : $ p g 8 c =.i $ % % i 3 i b $ 3 % f o p : ^ > n : > 3 r e b , * < ; > ^ % 3 6 > % z $ o f % k ; f n g 7 5 -.",
"> 5 > 5 b : o 2 f : 5 n g 8 : _.: | ^ > n % o p 9 p > : o ^ c $ o o c $ > y u t # + % 2 c | : $ ^ % % o o : 9 < k ; 6 3 l y c ) ",
"3 9 : n c : b $ t 5 > z g n 2 m ; 3 : ^ 5 z n 3 z z % 3 z : o : n f c b < r w n # ; < < 4 % : z | k 3 o o 5 % p o 9 % k x e f { ",
"j n e u y 8 4 t v j r s u k | . o t 4 4 k t 7 4 n r n 4 p 8 4 7 7 8 7 r Q u w c > 2 7 4 g 4 4 e k e u j y Q Q y e 7 Q v w 8 i @ ",
"e v g e v d x x v v l w v b : > z Q r r r r Q n p p 8 j v l l l g j j u v e 8 f 6 f v y e v v e v d d v e x x e v d e v v 3 > 6 "};
