/* XPM */
static char * north2_xpm[] = {
"64 64 135 2",
"  	c #272727",
". 	c #2A2A2A",
"+ 	c #292929",
"@ 	c #282828",
"# 	c #252525",
"$ 	c #202020",
"% 	c #1E1E1E",
"& 	c #BABABA",
"* 	c #232323",
"= 	c #212121",
"- 	c #262626",
"; 	c #2C2C2C",
"> 	c #2F2F2F",
", 	c #2D2D2D",
"' 	c #2B2B2B",
") 	c #2E2E2E",
"! 	c #1D1D1D",
"~ 	c #353535",
"{ 	c #1B1B1B",
"] 	c #1F1F1F",
"^ 	c #393939",
"/ 	c #333333",
"( 	c #242424",
"_ 	c #222222",
": 	c #181818",
"< 	c #131313",
"[ 	c #1C1C1C",
"} 	c #151515",
"| 	c #363636",
"1 	c #191919",
"2 	c #1A1A1A",
"3 	c #0F0F0F",
"4 	c #101010",
"5 	c #0D0D0D",
"6 	c #343434",
"7 	c #111111",
"8 	c #313131",
"9 	c #161616",
"0 	c #171717",
"a 	c #0C0C0C",
"b 	c #121212",
"c 	c #0E0E0E",
"d 	c #0B0B0B",
"e 	c #141414",
"f 	c #B2B2B2",
"g 	c #9F9F9F",
"h 	c #A6A6A6",
"i 	c #B9B9B9",
"j 	c #B1B1B1",
"k 	c #606060",
"l 	c #000000",
"m 	c #626262",
"n 	c #B6B6B6",
"o 	c #BBBBBB",
"p 	c #9D9D9D",
"q 	c #5E5E5E",
"r 	c #B0B0B0",
"s 	c #616161",
"t 	c #050505",
"u 	c #636363",
"v 	c #090909",
"w 	c #5F5F5F",
"x 	c #AFAFAF",
"y 	c #5A5A5A",
"z 	c #040404",
"A 	c #9E9E9E",
"B 	c #303030",
"C 	c #060606",
"D 	c #030303",
"E 	c #585858",
"F 	c #AEAEAE",
"G 	c #B3B3B3",
"H 	c #6A6A6A",
"I 	c #5C5C5C",
"J 	c #A7A7A7",
"K 	c #8F8F8F",
"L 	c #323232",
"M 	c #949494",
"N 	c #8D8D8D",
"O 	c #6B6B6B",
"P 	c #0A0A0A",
"Q 	c #020202",
"R 	c #656565",
"S 	c #A5A5A5",
"T 	c #3A3A3A",
"U 	c #B4B4B4",
"V 	c #696969",
"W 	c #717171",
"X 	c #999999",
"Y 	c #898989",
"Z 	c #818181",
"` 	c #828282",
" .	c #B8B8B8",
"..	c #A4A4A4",
"+.	c #666666",
"@.	c #686868",
"#.	c #8E8E8E",
"$.	c #808080",
"%.	c #767676",
"&.	c #A1A1A1",
"*.	c #525252",
"=.	c #3C3C3C",
"-.	c #6F6F6F",
";.	c #BCBCBC",
">.	c #7A7A7A",
",.	c #7B7B7B",
"'.	c #9A9A9A",
").	c #9B9B9B",
"!.	c #595959",
"~.	c #383838",
"{.	c #3B3B3B",
"].	c #7D7D7D",
"^.	c #A3A3A3",
"/.	c #3D3D3D",
"(.	c #7F7F7F",
"_.	c #888888",
":.	c #434343",
"<.	c #5D5D5D",
"[.	c #858585",
"}.	c #B7B7B7",
"|.	c #4E4E4E",
"1.	c #A8A8A8",
"2.	c #727272",
"3.	c #464646",
"4.	c #919191",
"5.	c #B5B5B5",
"6.	c #9C9C9C",
"7.	c #555555",
"8.	c #7C7C7C",
"9.	c #3F3F3F",
"0.	c #414141",
"a.	c #929292",
"b.	c #5B5B5B",
"c.	c #6E6E6E",
"d.	c #3E3E3E",
"  . .       + @   # $ % # +   & & & & & & & & & & & & & & & & & & & & & & & & & & & & & & & & & &   +   .     * % = - ;         ",
". > > , > . > ' ) @ $ ! , ~ , & & & & & & & & & & & & & & & & & & & & & & & & & & & & & & & & & & ' ; ) > ; , = { ] ^ / , ) ; ' ",
"= ( _ * ( = _ = _ : < [ ; > = & & & & & & & & & & & & & & & & & & & & & & & & & & & & & & & & & & % = * _ _ % } < ] | + ] # _ = ",
"= $ ] * 1 _ _ 2 ] 3 4 [ ' . ( & & & & & & & & & & & & & & & & & & & & & & & & & & & & & & & & & & { [ = $ ! 1 5 < ] 6 ] _ ] ! * ",
"[ * % ! % % [ [ ] 7 3 [ @ . _ & & & & & & & & & & & & & & & & & & & & & & & & & & & & & & & & & & 1 2 = : ] 2 5 < ] 8 * [ % [ _ ",
"] ! % = 9 ] : { : 4 3 2 # @ $ & & & & & & & & & & & & & & & & & & & & & & & & & & & & & & & & & & 0 2 1 9 { } a b [ ) $ ] [ { % ",
"3 } 0 9 5 4 c 3 b c 3 } _ { 9 & & & & & & & & & & & & & & & & & & & & & & & & & & & & & & & & & & 7 c b 5 7 7 d 7 2   { } < c 7 ",
"4 7 b b 4 4 4 4 d d c 9 _ { < & & & & & & & & & & & & & & & & & & & & & & & & & & & & & & & & & & 5 4 a d 5 < ] 2 b e < < 0 9 4 ",
"@ # = ] ( ( ( ] % % % * ! % % & & & & & & & & & & & & & & & & & & & & & & & & & & & & & & & & & & # * = % % * $ ] % % * ( = % % ",
"6 + ; @ #   - - @ #     = % $ & & & & & & & & & & & & & & & & & & & & & & & & & & & & & & & & & & ) . ;   - - - -     - - = ] = ",
"> % _ ! [ [ ! ! { ! _ [ 5 0 % & & & & & & & & & & & & & & & & & & & & & & & & & & & & & & & & & & $ ! * [ ! 1 $ [ 2 = = 1 c 2 $ ",
") * ] % : % { [ ! { $ 0 5 < 2 & & & & & & & & & & & & & & & & & & & & & & & & & & & & & & & & & & [ * % ! 2 [ [ ! { % % } c } ! ",
", [ = [ 1 { 2 _ ! { [ 9 5 < { & & & & & & & f g g g g g h i & f g g g g g g g g g f & & & & & & & $ [ _ { 1 { 1 _ { % 1 e c } % ",
", ] { 9 2 { 1 $ } [ = 0 5 9 _ & & & & & & j k l l l l l m n o p l l l l l l l l l q r & & & & & & [ { ! } 2 ! 0 $ } ] ] } 5 1 * ",
"# 9 4 c b < < } 7 7 b 3 c : _ & & & & & r s t l l l l l u n o p v l l l l l l l l t w x & & & & & e e 4 c b e b } 4 < 4 3 4 2 * ",
": 7 c 4 7 4 5 a 7 7 5 d 7 1 { & & & & r u l l l l l l l u n o p v l l l l l l l l l l s x & & & & 5 7 7 5 5 3 7 4 a 3 } { : ! % ",
"- ' ( =       * ( _ % % ] #   & & & r y z l l l l l l l u n o A 3 l l l ! B > B + C l D E r & & & !   . * @ ( - = % % ( # # ! [ ",
", / , , . ; ; . @     @ .     & & F k l l l l l l l l l u n & G H l l l I J j j p B l l l K & & & ~ L , , ' ' , +     - + ; % ( ",
"@ B = # ] _ [ { ( = ] $ # { ] & & h M M M M N ; l l l l u n & & f O P l Q R j & S / l l l K & & & B ; = ( = % ! [ * = ] _   ! ( ",
"# - % * 1 1 [ : _ [ ] ] = 0 = & & & & & & & j T l l l l u n & & & U V Q l l H j S / l l l K & & & ' = = _ 2 0 % : ] % ! $ ( ] . ",
"# @ % _ < ! 9 { _ 2 : _ 2 : 1 & & & & & & & j T l l l l u n & & & & G W z l l u X / l l l K & & & . - ! = 0 1 : [ = 1 1 _ [ % . ",
"@ - 9 ! < : [ e ! 1 1 ] 1 0 % & & & & & & & j T l l l l u n & & & & & G Y Z Z ` Z , l l l K & & & , * } ! e 0 ! e { [ 9 ] [ 2 * ",
"( - 1 e e < < b e } e 9 e e b & & & & & & & j T l l l l u n & & & & & & o o o o h / l l l K & & & @ # 9 e e < < b e 9 e 9 } 1 $ ",
"] = 9 < < < < < b < < < e b 7 & & & & & & & j T l l l l u n & & & & & & & & & & S / l l l K & & & = % } < < < < b b < < e e { % ",
"+ + + + # _ _ ] [ 1 = > B ' ' & & & & & & & j T l l l l u n & & & & & & & & & & S / l l l K & & & + + + @ ( = * % % _   . - ( . ",
"@ @ @   . + . @ = 2 [ L ' + . & & &  .i & & j T l l l l u n & & i i i i i i i i ../ l l l K & & & - - @ + @   . + . + % { 2 L , ",
"* % * = - = ( [ 5 0 % L { ! 2 & & & & & & & j T l l l l u n & U +.  # # # # # # $ z l l l K & & & % 2 _ ] = _ - $ ( ] c e ! L % ",
"! [ _ [ _ [ _ : 5 9 2 8 : * ! & & & & & & & j T l l l l u n & & r R z l l l l l l l l l l K & & & ! { [ { _ ! _ { = { 5 < { B 2 ",
"_ { $ $ * ! [ 0 3 1 $ / % { [ & & & & & & & j T l l l l u n & & & f q C l l l l l l l l l K & & & 1 2 _ [ ! = * % [ 1 5 0 ] 6 _ ",
"% 2 ] 2 % [ % 0 3 1 ! , 0 _ } & & & & & & & j T l l l l u n & & & & f @.l l l l l l l l l #.& & & = [ ! 2 % [ % [ % 2 5 0 ! ) : ",
"3 7 } b b e 4 3 5 0 % - } { } & & & & & & & j T l l l l u n & & & & & j $.%.%.%.%.%.%.%.%.&.& & & 1 < 3 4 } < 7 } 4 4 d } !   9 ",
"7 7 7 7 7 7 7 4 4 9 _ _ b c c & & & & & & & j T l l l l u n & & & & & & & o o o o o o o o & & & & b 7 7 4 7 7 7 7 7 4 4 < $ * 9 ",
"* . # - = *   $ % % * # % % _ & & & & & & & j T l l l l u n & & & & & & & & & & & & & & & & & & & _ % = +   # _ _   _ % % = - ( ",
"  8 . . ' + ; -   -   # - - - & & & & & & & j T l l l l u n & & & & & & & & & & & & & & & & & & & ( ] % L ' . ' + ;   -   - _ % ",
"+ ; { ] ! 1 = ! ! % { } = [ % & & & & & & & j T l l l l u n & & & & & & & & & & & & & & & & & & & 1 5 = > % ! % 9 _ % [ = 1 e e ",
"  . 0 = 9 2 9 = : = 2 2 = 1 % & & & & & & & f *.=.=.=.=.-.n & & & & & & & & & & & & & & & & & & & [ c % ) 1 % : 2 0 % : _ 2 7 4 ",
"* ; ! = [ 2 % { ] ] ] 9 % [ % & & & & & & & & ;.;.;.;.;.o & & & & & & & & & & & & & & & & & & & & { c { ) ] ] % 0 $ { % _ ! 0 4 ",
"@ ' 2 ! ! 2 2 = 1 ] ! 2 _ 9 [ & & & & & & & & & & & & & & & & & & & & & & & & & & & & & & & & & & 0 c ] ) % { % 1 [ % : _ { 9 4 ",
"# * 9 1 e 9 9 : 9 9 e e 0 e b & & & & & & & & & & & & & & & & & & & & & & & & & & & & & & & & & & < c ] - 0 : e 9 } : 9 0 e c 5 ",
"{ ! b < < < < < b < 0 9 4 5 5 & & & & & & & & & & & & & & & & & & & & & & & & & & & & & & & & & & 4 7 : $ b < < < < < < b 9 4 d ",
". # # + #   ( ( # ' > . # ( = >.r & & & & & & & & & & & & & & & & & & & & & & & & & & & & & & f ,.- - . * @ @ - @ ( #   * = -   ",
"+ . . ; ( # - # . - #   # ( ] = E '.o & & & & & & & & & & & & & & & & & & & & & & & & & & o ).!.@ # # @ ' + ; # - # # ! { [ ~., ",
"] 2 % % ! 1 ! 0 ( 0 0 ! 0 1 5 [   {.].f & & & & & & & & & & & & & & & & & & & & & & & & G ` ~ ] [ % 9 ! [ { ] ! 1 [ % 3 9 ] 6 % ",
"_ 9 : $ : { : ] 2 : % 9 ! } 3 [ ( + 1 y ^. .& & & & & & & & & & & & & & & & & & & & & h k _ : [ 0 9 1 _ : } ] 1 ! 0 1 c < ] 6 2 ",
"2 [ 2 9 : ! ! { ] } : 0 ] b 3 [ ( ' : } /.(. .& & & & & & & & & & & & & & & & & &  ._.:.{ : ] 1 % } % 2 % 0 1 9 $ 2 { 5 b % 6 ( ",
": % { } [ { 2 0 { 1 2 ! : : c [ @ @ { : = 0 <.^.i & & & & & & & & & & & & & & & F @.! 2 } ] ] 1 : { 2 } = 1 0 { ! 0 ! 3 7 0 8 1 ",
"< < } 7 4 b 7 < 9 b < 4 < 3 3 [ # _ 4 3 } < 7 =.[.}.& & & & & & & & & & & & o K |.5 c 9 7 } } < 0 < e b } b < 3 < 4 < a 4 ! , e ",
"7 7 7 7 7 7 7 7 7 7 7 7 7 4 4 [ * % e e 7 7 b b ! s 1.& & & & & & & & & & F 2.' $ 4 7 7 b 4 5 5 5 c 7 7 7 7 7 7 7 7 c a 5 { _ e ",
"( + + - - - +   - # ] % # @   - - - - - . . . . + - 3.4.5.& & & & & & & 6.7.    - _ _ # - + - ( ( ( [ = @ ' - - - @ @ - - = % * ",
"@ ~ > , > . > ' ) @ $ ! , ~ , , . ; ; + , ' ' , + ; ' ~.@.G i & & & U 8.9.B , B . ) ) . . @ .   . # = ] ~ 8 , > . ) ; ) . _ [ * ",
"@ > _ * ( = _ = _ : < [ ; > = $ $ % = $ % _ * ] ] $ $ # 2 0.a. .i h b.] * $ [ ( { * - % * { * { # 1 } % 8 ( _ # = _ = * 2 e 1 * ",
"  + ] * 1 _ _ 2 ] 3 4 [ ' . ( * % % ] % ] ! ! 2 [ % ! { } 7 . c.` d.{ 2 = 2 { = { $ = : _ ! $ 2 = < 7 % ) ! * 2 = _ [ = 7 3 1 * ",
"- + ! ! % % [ [ ] 7 3 [ @ . _ _ [ % _ 1 [ { ] 0 % { 1 $ } 3 e % @ [ ! = [ 2 { : _ ] ] [ * % $ 9 _ 9 4 % ; ] [ % [ ] 2 = e c 1 * ",
"# - % = 9 ] : { : 4 3 2 # @ $ % 9 ! [ 2 ! 0 [ 0 { { { 1 } 7 e % + ! 0 1 ! : 0 1 : % [ e ] 0 [ { % e 3 % + % = 0 % 2 2 1 b c 0 ] ",
"_ % 9 9 5 4 c 3 b c 3 } _ { 9 b 4 e b } b 4 < 4 b 5 4 4 3 c e ! = e < e < < < < b < 7 4 e 4 7 } 4 4 3 ! $ : 9 c 3 3 c b 3 c e ] ",
"% { b b 4 4 4 4 d d c 9 _ { < b b 4 5 5 5 4 7 5 d d 3 4 4 4 1 _ 1 < < < < < < b < 4 c c 5 4 b b 4 4 4 [ ! b < 4 4 4 7 5 a 5 e _ ",
"' = = ] ( ( ( ] % % % * ! % %   @ - * = * + # # ] _ # ( ( (   = # + + + @ ( % 0 ] . @   - @ # ' _ = ] ( # ( = % % * + # = 1 1 ' ",
"B . ; @ #   - - @ #     = % $ ^ , ) ' , @ ' + @ ; + @ # -     -     - . . ( $ [ . ~ , ; . ; ' B . ' + # @ # - @ ( . ' @ = { [ ^ ",
"$ % _ ! [ [ ! ! { ! _ [ 5 0 % ~ = = % ( ! $ ! ] ] { $ 2 $ % [ ] _ [ % * - 9 b ! @ ) ] _ [ ] _ = ] ] ] { % 2 % { { ( - ! c 1 % / ",
"2 * ] % : % { [ ! { $ 0 5 < 2 L [ $ % % [ : [ 1 $ : % ! 2 0 { ! = 9 { = 1 b 4 1 -   ] * = ! % : * = % 0 $ 2 ! % : * ! 9 5 } [ B ",
"= [ = [ 1 { 2 _ ! { [ 9 5 < { L { _ ! = 9 % 2 0 ] 0 = { 2 ! 2 $ 2 2 2 $ = b c } # + % _ 2 _ { $ ! % % 2 2 { ] ] : * * : 5 b 2 > ",
"1 ] { 9 2 { 1 $ } [ = 0 5 9 _ 8 ( : { ! [ 0 9 1 0 0 % 1 0 { 2 { 9 ! 2 1 ] b d 9 # ( ] ] e % { 0 _ : : 2 2 [ % 0 2 ] % : d 4 ! ' ",
"7 9 4 c b < < } 7 7 b 3 c : _ . 2 } e e : } } e 9 b 9 < 0 < e } } < } b e c d 2 = _ } < 5 < e 4 : 4 c 7 b e e b 4 } e 4 d < [ @ ",
"4 4 5 4 4 3 a a 4 7 5 d 7 1 { = 0 e b b b b e 9 0 0 < 7 4 5 5 5 5 7 7 c 7 4 < ! * ! 4 b 4 7 7 4 4 3 3 4 4 a a 4 7 3 4 4 7 : = * "};
