/* XPM */
static char *wall1_north_new1741897017[] = {
/* columns rows colors chars-per-pixel */
"64 64 49 1 ",
"  c #070707",
". c gray3",
"X c #090909",
"o c #0B0B0B",
"O c gray5",
"+ c gray6",
"@ c #101010",
"# c #131313",
"$ c gray8",
"% c #151515",
"& c gray9",
"* c #181818",
"= c #1B1B1B",
"- c gray11",
"; c #1D1D1D",
": c gray12",
"> c #202020",
", c gray13",
"< c #232323",
"1 c gray14",
"2 c #252525",
"3 c #272727",
"4 c gray17",
"5 c #2F2F2F",
"6 c #323232",
"7 c #343434",
"8 c #353535",
"9 c #393939",
"0 c #3C3C3C",
"q c gray24",
"w c #3F3F3F",
"e c #434343",
"r c #444444",
"t c #464646",
"y c gray28",
"u c #484848",
"i c gray29",
"p c #4B4B4B",
"a c #4C4C4C",
"s c #4E4E4E",
"d c #505050",
"f c #515151",
"g c #535353",
"h c gray33",
"j c gray34",
"k c #585858",
"l c gray35",
"z c #53FF00",
"x c #F500FF",
/* pixels */
"zzzzzzzzzzzzzzzzzzzzzzzzzzzzzzzzxxxxxxxxxxxxxxxxxxxxxxxxxxxxxxxx",
"zzzzzzzzzzzzzzzzzzzzzzzzzzzzzzzzxxxxxxxxxxxxxxxxxxxxxxxxxxxxxxxx",
"zzzzzzzzzzzzzzzzzzzzzzzzzzzzzzzzxxxxxxxxxxxxxxxxxxxxxxxxxxxxxxxx",
"zzzzzzzzzzzzzzzzzzzzzzzzzzzzzzzzxxxxxxxxxxxxxxxxxxxxxxxxxxxxxxxx",
"zzzz###O#X #==$$##$@##$O##O$OXo$=#$$###o=###$##O##@#O$# X#,&xxxx",
"zzzzO$O#OX #==$$O$#O#O#OO##OXXX#=##O#OOOO##X$O#$#O@@O#X o#:#xxxx",
"zzzz X XXXXX$#OXXoXXX X X  X..X$#XXOOXOXXoXXO XX X X.XX.X@=@xxxx",
"zzzzXXX   XO$#XXXX.  X .   XXX@$OOXOXOXX   XoXXX  X   X#@XoXxxxx",
"zzzz$==$##$=###=-=$$==$;$$=$$==#=======$#o=#;=&=#*-$####$###xxxx",
"zzzz==$$=$$=###2;>;;====;====$====&====###2<=;;=>:=;=*-=*-=-xxxx",
"zzzzO#####$# O#2$$$$####$##O####$###### O#<;###$#$#$@#O#@@#$xxxx",
"zzzzO######O X#,$$$##O#O#O###O@#$O#$@#o X#,#=$#$#####+###+##xxxx",
"zzzzO#O$###O X#,#$#$O$OO$@$###O##O##O## XO;=######@#@+#+#+#@xxxx",
"zzzzO###X#$O O$,-OO#$OO$OO#OO#@@O#O#$O#  #;#$OO#O###O+#O$O#$xxxx",
"zzzzXOOXXXXXXO$;$oooOOOXOoOXOXXOoOoXOoX  #=#XX #.oo. XOXOXoXxxxx",
"zzzzX   XX  XO#$OOXXXXOOOOoXX X  XXX XXXo#$OXoXX. XX  .X. XOxxxx",
"zzzz===#$$$##===$=#$#$##$;-==$$$&**=#&&=&==&$*==##==&=*=$###xxxx",
"zzzz;;;;====;$$====alllllw-;;;;;-;-**=*uklkt=&&#@1<;;;;;=-=-xxxx",
"zzzz$$#O=$$$*$####@alllllj==#######@@$@tllktO$+ o,;#-$###&##xxxx",
"zzzz$O$O$#$$$O$###Oplllllje$@##O##$@###yllku##o o;$$#+O#O#$$xxxx",
"zzzzX#X###O$@@@$@$Opllllllj;#O@$+#+O##@ylllt@$O o;-#$O@+##+@xxxx",
"zzzzX##X##O$OO#@O#Oalllllllr@##$O##OOO#ylllt##@ o;#O#oO#o@#Oxxxx",
"zzzzOOXXOoOOOXXXXXXalllflllj,XooooooOooulllt++o o-*OoOXoXoOoxxxx",
"zzzzXXXXoXXXOXXXOOXpllleflllaXXX    o+OtllltXoo.o##OoXXooXXoxxxx",
"zzzz$$=##O$,;;;==$$allle7llll4=$@+#*=;=ulllt=&&=$====&#&##$=xxxx",
"zzzz---=$@#,-=;;;==allle=alllp=###,,--=plllt=**-**=-==-==;=#xxxx",
"zzzz-$$# O#,###$###pllje$4llll5X@#1*O$#tllky##@#@#O##$$-$=# xxxx",
"zzzz$$$O O#,O$#####pllle##plllaX+=2*#$$tllky#@#$#####$#$@## xxxx",
"zzzz$$#O O$,$$##OO#pllle$@2llll5O=2##$#tlllt#$$$#@+###$$##+ xxxx",
"zzzz#$#O ##;O$O###$alljeO#$ulllfO$,=@&#ullly$@$#+$$$+#####+ xxxx",
"zzzzXOXX O#=O@X@XOOallleOXO,llll8#;#o++tllkyOOOOO+XX.OoXXX. xxxx",
"zzzzXXXX O$$XX..XOOallleXXXXelllg&#OooOtllkyXXooXXXXXXXXXX. xxxx",
"zzzz$$=###$$##$$=#=allle=$$$,jlllq=-#==ulllt#;=#=##$==*#*=$#xxxx",
"zzzz;=======#=;====allle=#$$,ellkj:=-&=tlllt&==&=&$$,--;=-==xxxx",
"zzzz$#$####X$##O##Oallle# #$,;llklwO##@tllky$###++X$,###O&##xxxx",
"zzzzX#O$O#O#####X#OpllleX O$;#9jllj-+##tllky$$+#O@.$:@#O@O#Oxxxx",
"zzzzO####$$O$##X###pllleO X$,##jllke#+Otlllt##@##@ @:$$#O#@#xxxx",
"zzzz##O$O$##$O#OO#Opllle$XX=;#O9lllk,O@tllly####OO.#;#@#+##+xxxx",
"zzzzOOO#OOXXOOXXXXXalljeX O$=OOOfllltoOtllkrOooO.o $-+OoOO@Oxxxx",
"zzzzXXXXXOOOX   XX pllleX ###OX 6lllk1Otllly   .XXX+#XoXoXXXxxxx",
"zzzz$=#$==;=#=##==$alllt##==$===*alllp&ulllt@O+##==-&==*=&*=xxxx",
"zzzz==&;;===$=##;;;plljp===#==$=&6llll4tllkp=-=&-&&=-=-*=**#xxxx",
"zzzz#O#O$OX#OOX#=;$pllje##$O##O#O+alllaullltO$##@#O##@$#O## xxxx",
"zzzz+#O#$O$O$O ##;#pllleO##$O##O@o5llllglllt$$O@OO@#+o#+#O+ xxxx",
"zzzz+##O#XOO$X #$=Opllle###O$X$O$@Opkklllllt#O$@#O#@#@+O$+@ xxxx",
"zzzz###O####$X #;=#pllleX#OX$##$O##,kllllllto$#+O@+O#+O##O# xxxx",
"zzzzXX XOXXXX X#=#XpllleXOOXXXXO.XXXykklllltXOoXOooXOXoXXX. xxxx",
"zzzzXXXXXXXXXXX$$#XplljeXXXXXXXX   .=jllllltX.    XXXXXXXX  xxxx",
"zzzz=&===$##$;====$alllt;=$;=$#$:;;;;rlllllt===&&&#$====*===xxxx",
"zzzz,;;;,=##;2;;;;;;;;;;;;;;;#O$<,<,,,;:-::-====-*$#2,;:=:;:xxxx",
"zzzz&$$###X#;;$$$$$#$$=$##$=# #$:*#$&##*#&-#&@&+*+O#,&#&##$*xxxx",
"zzzz#$$#$XX#;==&##$#$##O####OXO$;####@###$#@##$@#oX#:#&#$*#$xxxx",
"zzzz###O#X #;=#$$#$####O#OO$OXO#=##$#+#O#$$$$#$O*O #-$###$##xxxx",
"zzzzO$O#O  #==$#O$#O#O#OO$#OXXX#=#OO#+OOO##X$O###o #-##O#@++xxxx",
"zzzz X XXXXO$#OXXXXXX X X  XX X#$oooooooXoXXO.XO...##+O  . Xxxxx",
"zzzzXXX    O$#XoXXX  XXX   XXX#$@ooooXoXoX   .XX...##XoX... xxxx",
"zzzz&$=####$###===$$===$$$=##==#*====&#O$-==*=--$#$$**$###=&xxxx",
"zzzz==&$=#&=$$$3;,;;====;====#====-;=&##-1;;-;;,;;;&=&===;==xxxx",
"zzzz######$# O#2$$$$####$##O#######$*OX#=:$&##$#$$$##O#@#&=#xxxx",
"zzzzo######O X#,#$$##O#O#O###O##$O##+X +*-#*$##@$&#O####o&#oxxxx",
"zzzzzzzzzzzzzzzzzzzzzzzzzzzzzzzzxxxxxxxxxxxxxxxxxxxxxxxxxxxxxxxx",
"zzzzzzzzzzzzzzzzzzzzzzzzzzzzzzzzxxxxxxxxxxxxxxxxxxxxxxxxxxxxxxxx",
"zzzzzzzzzzzzzzzzzzzzzzzzzzzzzzzzxxxxxxxxxxxxxxxxxxxxxxxxxxxxxxxx",
"zzzzzzzzzzzzzzzzzzzzzzzzzzzzzzzzxxxxxxxxxxxxxxxxxxxxxxxxxxxxxxxx"
};
