/* XPM */
static char *_0cfa94f7fe34e82b62da28abdbf79652GwyOaaOo9KHjxU1[] = {
/* columns rows colors chars-per-pixel */
"64 64 46 1 ",
"  c #161616",
". c #1B1B1B",
"X c gray11",
"o c #202020",
"O c gray14",
"+ c gray16",
"@ c #2C2C2C",
"# c #323232",
"$ c #353535",
"% c gray22",
"& c #3E3E3E",
"* c #434343",
"= c #444444",
"- c gray29",
"; c #4C4C4C",
": c gray32",
"> c gray33",
", c #585858",
"< c gray37",
"1 c gray39",
"2 c #656565",
"3 c gray42",
"4 c gray43",
"5 c #717171",
"6 c #797979",
"7 c #7E7E7E",
"8 c #53FF00",
"9 c #F500FF",
"0 c #818181",
"q c #848484",
"w c #898989",
"e c #8E8E8E",
"r c #909090",
"t c #979797",
"y c #9A9A9A",
"u c #9F9F9F",
"i c gray64",
"p c #A5A5A5",
"a c gray67",
"s c #ACACAC",
"d c gray70",
"f c #B7B7B7",
"g c #BBBBBB",
"h c gray74",
"j c #C0C0C0",
"k c gray77",
/* pixels */
"8888888888888888888888888888888899999999999999999999999999999999",
"8888888888888888888888888888888899999999999999999999999999999999",
"8888888888888888888888888888888899999999999999999999999999999999",
"8888888888888888888888888888888899999999999999999999999999999999",
"8888$$##$oX#==%%#$%@##$+$#@%OXO$=##%#@#+%$$#&$%+%@@%@$#.o$:&9999",
"8888+$@#+XX@**%$+$#@$+#+###@OoO$=$+@$@+@@$#O$+##$+@@+#O.o#;%9999",
"8888.XXXoXX+%#+ooOoOooooo.oXXXO$%OoOOOOOoOoXOoo+XoXo.oo o@*#9999",
"8888oooX..X+&#oooo...Xo...Xooo@%@OOOOOOXX.XoooooX.o...O$#oOO9999",
"8888&&&$$$$&$$$*=*&%&=**$%*&&&*%*===-=*%@@**-***%*&%$$&%$$$&9999",
"8888****=***%$%<;;-;=-=*-==********=*==$##,>----;;--********9999",
"8888##$##$%#.+$,%%$&$%$$$#%@%$#$%#$&$$%X+$>=#%#%%%$&#$@%#@%%9999",
"8888+$####%+.o#:#%$$#@#@%@$#@+#$%+#%#$+.o#:$%&$%@#&$$#####$$9999",
"8888@#@%###+.o#>#%$%+$@+$+%#@$@%@##%@##.o@;*#$$$#%#%#@#@%#$@9999",
"8888##@%O#%+.+%:&@#$$@+@++$@+#@#+##@$##..#-$%@@#@###+#$+%O$$9999",
"8888oOOOoooXX@%=@OOO@+OO+O+O+oOOOOOoOOo X#=#ooX+XOOoXoOoOXOo9999",
"8888oX..oo..o@#%+OooooO+++Ooo...XooXXooo+%&+ooooX.oo..XoX.XO9999",
"8888***&&%$$$&=*&&$%$$#$%-:widgjjhgay7;=***&$&**$$*=&*&*%$$&9999",
"8888=---=**==**=*=*==%%%,ijkkkkkkkkkkkjsq;*****$#,:;;--;=***9999",
"8888$%##&%$%*#$$%$@&%#X4hkkkkkkkkkkkkkkkky$%@$@Xo:-%&%$$#&%$9999",
"8888@@#@%#$$%+%@$%+#$O2jkkkkaq1=&;2qpjkkky#$#$O.o-%%%@+$@$$$9999",
"8888O#+#%@@%@@@%+%+$+#fkkkh4$##$@$@O#=wfky$%@$+.O-*#%@@@#%@@9999",
"8888O@#O#@@$@+$#+#@#@wkkkj2%@$##+##++O##we@#&#+.O;&O$O@$O##+9999",
"8888OOOoO+O+OOooXOOOoskkki+@OOOOOO+O+OOo+XOo@@O.o=&+OOoOoO+O9999",
"8888oooOOoOOOooo++ooojkkk0oOoOOoXXXXO++o..oooOOoO%$OOooooooO9999",
"8888&%%$#@%;:--**&%$=kkkk6&=%**&@@$**-=*&%*&&&&=%====&%&$$%*9999",
"8888-===%@#>-==--***:kkkkq**&**$$%>:=---=-=*********==*====$9999",
"8888*%&#.+$>#$#%#$#%$jkkkp$##$$o+%>*+$$$+%$@$##$#$#%$%%*%&$X9999",
"8888%#%@.+@:@&#$%##%$skkkj7@$$$o@*,*#$$$%$&#%##%$$###%#%#%#.9999",
"8888&$#+X@%>$##%@+$$#0kkkkji2$$X@*,$%$$@%$@%#%$%#@@%#$%&$#@.9999",
"8888$#$+X@$;@&O$$@#%#%dkkkkkkgiq2*:*@&$%#$%#%#$%#%#$@$#$#$@.9999",
"8888oOoX.+$*+#+@O++@O+-fkkkkkkkkkjfy5#@@+@@+@+++O@OXoOOoOoX.9999",
"8888ooooo+%%oXXXoO++o..$yjkkkkkkkkkkkgr&$+oXXoOooooooooooooo9999",
"8888%&*%$$&&$$%&&&*=&%$$*,tgkkkkkkkkkkkh6*&&%****%$%=*&%%*%$9999",
"8888-=-****&******&*&**&*$$%5eidjkkkkkkkj7*****&*&$$>-=-=-**9999",
"8888#@%$#$#O%#$+$$+%@%$+$X@&:%@##3tgkkkkkh,@$#$$@@.%;$#$+%$#9999",
"8888+@+%@%@#%@$#O$+$O###+XO$;$#O#$O&wjkkkki@%###+#X$;@$@@+$@9999",
"8888#@$#$$$+$#$O$$#%@%%@@.O%;$#$+##@$4jkkkj=#$@%##X#;$$$+%#$9999",
"8888$@@%@$$#%+#+@$#$+##@% o&;#+$+@##$+ykkkk5$$#$O+X$;$#$@#$@9999",
"8888O++@++OO+OooXOo+oO+o+.+&*+++O+O@OO3kkkkq+OO+oOX$*+@O+O@+9999",
"8888oOoooO++o...ooX..Xo..o@#%oooooXXo+-kkkke..Xoooo@%oooOooO9999",
"8888**&&&-;=*&%$&=&%%&=**%&=%*&&&&&&**>kkkkq#+@$&**=&***=&**9999",
"8888&***=*&**&$%=>;--==-=**&**&*&**&%%3kkkk7***&*&*=-=-&*&*$9999",
"8888#@#+&++#+@.#*=%#%i-#$$$O$$+$+@$+#Xykkkj;+$#$#$+$##$$@#$X9999",
"8888@#@%@@$+$OX#&=@+%jh0@##%@$#+@+#++<jkkka@%%@#++@%@+$@#+@X9999",
"8888@$$#$O@+$oX#&-@+%jkkf7$+#+$@%@+#5hkkkj1$#+$@$+$@$+@+%@#.9999",
"8888###@#@#$@@X#==#@%jkkkkhu71-&*2wskkkkke+@O$$@@#@+%@+##+$X9999",
"8888Xooo+oOoOXX#*&XX+jkkkkkkkkkkkkkkkkkje.X+o++o+OOoOoOXOoo.9999",
"8888ooooooooooo#&$OOo>edjkkkkkkkkkkkkjp<%XoooX...XooooooooX.9999",
"8888**=***%$&=******---->7tafhjjhgdiw,*=*%%**=*&&&#%*-***==*9999",
"8888;-;-;=%$;,;;---=;--;=--;-&@%>:::;:;:-;;--=-=-*%$,:-:=;-;9999",
"8888&%%%&@O#-:%%%$%%$%&$$%%*#O@%;&%$&%#&#&*$&#&#*@O$:&%&%%%&9999",
"8888@%%#$XX#--&&$$$$$#$##$##Oo@%;##@%@#%#%%@%#%@%Oo$;$&@%&#%9999",
"8888$$##$oX#==%%#$%@##$+$#@%OXO$=$$%#@#+%%%#&$%+%+X$-$#$#$@%9999",
"8888+$@#+XX@**%$+$#@$+#+###@OoO$=$@@$@+@@$#O$+##$OX$=$%+$@@@9999",
"8888.XXXoXX+%#+ooOoOooooo.oXXXO$%OoOOOOOoOoXOooOXoX#%@+XXXXo9999",
"8888oooX..X+%#oooo...Xo...Xooo@%@OOOOoooooXX.XooXXX#$oooXoo.9999",
"8888&&&$$$$&$$$*=*&%&=**$%*&&&*%*====&$+$==**=&-%%$&&&%$$&=&9999",
"8888****=***%$%<;;-;=-=*-==********=-&%#=,;----:--=*=**=&=-=9999",
"8888##$##$%#.+$,%%$&$%#$$#%@%$#$%#$&*+o#=;$%#$%%%$%#$#$##&*$9999",
"8888+$####%+.o#:#%$$#@#@%@$#@+#$%+#%@oX@**$&%$$@&%$@%@#$@&#+9999",
"8888888888888888888888888888888899999999999999999999999999999999",
"8888888888888888888888888888888899999999999999999999999999999999",
"8888888888888888888888888888888899999999999999999999999999999999",
"8888888888888888888888888888888899999999999999999999999999999999"
};
