/* XPM */
static char * south2_xpm[] = {
"64 64 259 2",
"  	c #505050",
". 	c #555555",
"+ 	c #545454",
"@ 	c #525252",
"# 	c #4D4D4D",
"$ 	c #444444",
"% 	c #404040",
"& 	c #535353",
"* 	c #515151",
"= 	c #0E23B2",
"- 	c #565656",
"; 	c #494949",
"> 	c #414141",
", 	c #454545",
"' 	c #4F4F4F",
") 	c #5A5A5A",
"! 	c #5E5E5E",
"~ 	c #5F5F5F",
"{ 	c #5B5B5B",
"] 	c #575757",
"^ 	c #3F3F3F",
"/ 	c #5C5C5C",
"( 	c #696969",
"_ 	c #585858",
": 	c #595959",
"< 	c #464646",
"[ 	c #3C3C3C",
"} 	c #424242",
"| 	c #717171",
"1 	c #676767",
"2 	c #4A4A4A",
"3 	c #484848",
"4 	c #4B4B4B",
"5 	c #474747",
"6 	c #363636",
"7 	c #2D2D2D",
"8 	c #3E3E3E",
"9 	c #303030",
"0 	c #2C2C2C",
"a 	c #434343",
"b 	c #6B6B6B",
"c 	c #4C4C4C",
"d 	c #383838",
"e 	c #3A3A3A",
"f 	c #252525",
"g 	c #272727",
"h 	c #3B3B3B",
"i 	c #222222",
"j 	c #686868",
"k 	c #3D3D3D",
"l 	c #2A2A2A",
"m 	c #373737",
"n 	c #353535",
"o 	c #212121",
"p 	c #626262",
"q 	c #333333",
"r 	c #393939",
"s 	c #343434",
"t 	c #323232",
"u 	c #202020",
"v 	c #2B2B2B",
"w 	c #5D5D5D",
"x 	c #262626",
"y 	c #313131",
"z 	c #242424",
"A 	c #232323",
"B 	c #292929",
"C 	c #1E1E1E",
"D 	c #282828",
"E 	c #1F1F1F",
"F 	c #2E2E2E",
"G 	c #4E4E4E",
"H 	c #0E23B3",
"I 	c #0B1E9A",
"J 	c #0A1C92",
"K 	c #0E23B1",
"L 	c #0E23B0",
"M 	c #091A8E",
"N 	c #01042D",
"O 	c #040D57",
"P 	c #0C1FA3",
"Q 	c #2F2F2F",
"R 	c #0C1FA0",
"S 	c #081884",
"T 	c #06126D",
"U 	c #051063",
"V 	c #051064",
"W 	c #01032D",
"X 	c #000000",
"Y 	c #010329",
"Z 	c #0B1E9D",
"` 	c #0E22AF",
" .	c #0C1E9C",
"..	c #040E5B",
"+.	c #00021E",
"@.	c #00010D",
"#.	c #000004",
"$.	c #000001",
"%.	c #000002",
"&.	c #010323",
"*.	c #0B1D9A",
"=.	c #0D21AB",
"-.	c #071679",
";.	c #01042A",
">.	c #07167E",
",.	c #0D22AD",
"'.	c #081986",
").	c #01021D",
"!.	c #010429",
"~.	c #0C20A3",
"{.	c #07177F",
"].	c #010220",
"^.	c #051166",
"/.	c #646464",
"(.	c #606060",
"_.	c #061371",
":.	c #000117",
"<.	c #010535",
"[.	c #616161",
"}.	c #071579",
"|.	c #000113",
"1.	c #00010B",
"2.	c #07167D",
"3.	c #0A1C93",
"4.	c #010219",
"5.	c #030946",
"6.	c #0D21A9",
"7.	c #051062",
"8.	c #050F5F",
"9.	c #01021C",
"0.	c #01032A",
"a.	c #01042E",
"b.	c #091A8A",
"c.	c #0D21AA",
"d.	c #081885",
"e.	c #00010E",
"f.	c #081780",
"g.	c #0A1C95",
"h.	c #02073D",
"i.	c #030C50",
"j.	c #061472",
"k.	c #010431",
"l.	c #0B1E9C",
"m.	c #0D20A7",
"n.	c #071575",
"o.	c #010328",
"p.	c #020531",
"q.	c #061370",
"r.	c #0B1D9B",
"s.	c #010324",
"t.	c #000112",
"u.	c #06126B",
"v.	c #656565",
"w.	c #07167F",
"x.	c #000003",
"y.	c #000109",
"z.	c #091A8D",
"A.	c #0B1D99",
"B.	c #0D22AC",
"C.	c #0A1B92",
"D.	c #010223",
"E.	c #051167",
"F.	c #01021B",
"G.	c #0C1E9D",
"H.	c #091885",
"I.	c #040F60",
"J.	c #010327",
"K.	c #0D20A5",
"L.	c #040C55",
"M.	c #000009",
"N.	c #000114",
"O.	c #0D21A7",
"P.	c #01042F",
"Q.	c #0E22B0",
"R.	c #000115",
"S.	c #636363",
"T.	c #0D21A8",
"U.	c #030A4D",
"V.	c #030A4E",
"W.	c #0B1D96",
"X.	c #0D22AB",
"Y.	c #0620B2",
"Z.	c #393A6C",
"`.	c #2A2F9D",
" +	c #0F23B2",
".+	c #262C9C",
"++	c #3F406F",
"@+	c #4C4D5E",
"#+	c #474989",
"$+	c #0019B1",
"%+	c #0D23B2",
"&+	c #373986",
"*+	c #46475B",
"=+	c #6E6E6E",
"-+	c #535357",
";+	c #3A3B6C",
">+	c #242AA1",
",+	c #0F24B2",
"'+	c #202AA3",
")+	c #363870",
"!+	c #3A3A40",
"~+	c #383839",
"{+	c #313150",
"]+	c #313484",
"^+	c #0B22B2",
"/+	c #001EB2",
"(+	c #282C87",
"_+	c #40405D",
":+	c #434344",
"<+	c #43434A",
"[+	c #2F306B",
"}+	c #1F29AB",
"|+	c #1F2BAE",
"1+	c #25286F",
"2+	c #3F404B",
"3+	c #323457",
"4+	c #2A2D89",
"5+	c #1426B2",
"6+	c #363995",
"7+	c #2F305B",
"8+	c #333234",
"9+	c #2B2B39",
"0+	c #252769",
"a+	c #1729B3",
"b+	c #0C22B2",
"c+	c #001DB2",
"d+	c #37397C",
"e+	c #494957",
"f+	c #212123",
"g+	c #29292C",
"h+	c #262852",
"i+	c #21268E",
"j+	c #1D2498",
"k+	c #292A5C",
"l+	c #404043",
"m+	c #4B4B59",
"n+	c #3E3F76",
"o+	c #1E2DB3",
"p+	c #001BB2",
"q+	c #404285",
"r+	c #505060",
"s+	c #6A6A6A",
"t+	c #5D5D5E",
"u+	c #4C4C68",
"v+	c #2B2F99",
"w+	c #2E33A4",
"x+	c #515179",
"y+	c #5C5C60",
"z+	c #2C2D43",
"A+	c #2C2F77",
"B+	c #1F2BAF",
"C+	c #333688",
"D+	c #41425C",
"E+	c #424142",
"F+	c #37373C",
"G+	c #3D3E62",
"H+	c #494A79",
"I+	c #3C3C48",
"J+	c #707070",
"  . .       + @   # $ % # & * = = = = = = = = = = = = = = = = = = = = = = = = = = = = = = = = = = * &   -     ; > , ' )         ",
"- ! ~ { ! - ! ] ! @ $ ^ / ( { = = = = = = = = = = = = = = = = = = = = = = = = = = = = = = = = = = _ ) ! ~ : / < [ } | 1 { ! ) _ ",
", 2 3 ; 4 , 5 < 3 6 7 8 : ~ < = = = = = = = = = = = = = = = = = = = = = = = = = = = = = = = = = = % < ; 5 5 > 9 0 a b & a c 3 < ",
"< $ } ; d 5 3 e a f g 8 ] - 4 = = = = = = = = = = = = = = = = = = = = = = = = = = = = = = = = = = h 8 , $ ^ d i 0 a j a 5 } ^ ; ",
"8 ; % ^ % > k k a l f 8 & - 3 = = = = = = = = = = = = = = = = = = = = = = = = = = = = = = = = = = m e , n } e o 0 a p ; k % 8 5 ",
"} ^ > , q } n [ n g f r # @ $ = = = = = = = = = = = = = = = = = = = = = = = = = = = = = = = = = = s r m t [ 9 u v 8 w $ a 8 [ % ",
"x y s t i g z f v A x y 3 h t = = = = = = = = = = = = = = = = = = = = = = = = = = = = = = = = = = B A v i B B C B r   [ 9 7 A B ",
"D l v v D D D g E E z t 3 [ 0 = = = = = = = = = = = = = = = = = = = = = = = = = = = = = = = = = = i D u E i 7 a e l F 0 0 n t D ",
"& c , } 4 4 4 a > > > ; ^ > % = = = = = = = = = = = = = = = = = = = = = = = = = = = = = = = = = = c ; , > > ; $ } > > ; 2 < > % ",
"j + : @ # * G G @ #   * , % $ = = = = = = = = = = = = = = = = = = = = = = = = = = = = = = = = = = ! . )   ' ' ' '     G ' < a < ",
"~ % 5 ^ k 8 ^ ^ h ^ 3 k i n > = = = = = = = = = = = = = = = = = = = = = = H = = = = = = = = = = = $ ^ ; k ^ d $ k e , < d A e $ ",
"w ; } > n > [ 8 ^ h $ s i 0 e = = = = = = = = = = = = = = = = = = = = = I J = = = = = = = = = = = 8 ; > ^ e 8 8 ^ h > % 9 A 9 ^ ",
"/ k , 8 d h r 5 ^ [ 8 t i 0 [ = = = = = = = = = = = = = = = H = K K L M N O P = = = = = = = = = = $ k 5 [ d [ d 3 h > d Q A 9 % ",
"/ } h t e [ d $ y 8 , n i t 5 = = = = = = = = = = = = = K R S T U U V W X Y Z = = = = = = = = = = 8 h ^ 9 r ^ n $ y } a 9 i d ; ",
"# t g A l 0 7 y B l v x A n 3 = = = = = = = = = = = `  ...+.@.#.X $.%.X X &.*.= = = = = = = = = = F F D A l Q v y g 7 D f g e ; ",
"n l A D l g o u B B i E B d h = = = = = = = = = = =.-.;.X X X X X X X X X %.>.K = = = = = = = = = i B l o o x B g u x 9 h n ^ % ",
"G _ 2 < * * * ; 4 3 > > a c * = = = = = = = = = = ,.'.).X X X X X X X X X X !.~.= = = = = = = = = ^ * - ; @ 4 ' , % > 2 # c ^ 8 ",
"/ 1 / / . ) ) . &     & -     = = = = = = = = = ` {.].X X X X X X X X X X X X ^.K = = = = = = = = ( /.{ { ] ] { + * * ' + ) > 4 ",
"@ (., c } 5 k [ 2 , } $ # [ } = = = = = = = = ` _.:.X X X X X X X X X X X X X <.R = = = = = = = = [.: , 4 < > ^ 8 ; , } 5 * ^ 2 ",
"c G % ; d d 8 n 5 8 } } < s , = = = = = = = ` }.|.X X X X X X X X X X X X X X 1.2.K = = = = = = = ] < , 5 r s > 6 a > ^ $ 2 } - ",
"# @ > 5 0 ^ q h 5 r 6 5 e 6 m = = = = = = = 3.4.X X X X X X X X X X X X X X X X 5.6.= = = = = = = - ' ^ , n d n k , d m 5 8 > . ",
"@ ' t ^ 7 6 8 Q ^ m m } d n > = = = = = = = 7.8.9.X X X X X X X X 0._.a.$.X X X X b.= = = = = = = / ; 9 ^ Q n ^ Q h 8 q a k r ; ",
"2 G d F Q 7 7 l F y Q q Q Q l = = = = = = = c.d.e.X X X X X X X #.f.L g.h.X X X X i.= = = = = = = & c t F Q 0 7 l Q t F q y d $ ",
"a , q 7 0 0 0 0 v 0 7 7 F v l = = = = = = = L j.X X X X X X X X k.l.= K m.n.o.X X p.= = = = = = = , > 9 7 0 0 0 v v 0 7 F Q h % ",
"+ & & & c 3 3 a k d < ~ (.] ] = = = = = = = ` q.X X X X X X X X a.r.= = = = d.s.t.u.= = = = = = = + & & @ 4 , ; > % 3   . G 4 - ",
"@ & & * - & - & < e k v._ + . = = = = = = = K w.x.X X X X X X X y.z.= = = = `  .A.B.= = = = = = = ' ' @ & & * - & . + > [ r v.{ ",
"; > ; < G < 2 8 i n % v.[ ^ e = = = = = = = = C.D.X X X X X X X X E.` = = = = = = = = = = = = = = > e 3 } < 5 G $ 4 } z Q ^ v.> ",
"^ 8 5 k 5 k 5 n i q r p n ; ^ = = = = = = = = c.5.X X X X X X X X F.G.= = = = = = = = = = = = = = ^ h 8 h 5 ^ 5 h < [ o 0 h (.e ",
"3 h $ $ ; ^ 8 s f d $ 1 % [ k = = = = = = = = H H.x.X X X X X X X X 8.K = = = = = = = = = = = = = d r 5 k ^ , ; > k d i n } j 5 ",
"> r a r > 8 > n f d ^ / n 3 y = = = = = = = = = ,.I.X X X X X X X X J.A.= = = = = = = = = = = = = < k ^ e % 8 % 8 % r i n ^ w 6 ",
"x l y l l Q D x i n % G 9 h y = = = = = = = = = = K.L.M.X X X X X X N.S = = = = = = = = = = = = = d 7 x D 9 0 B y D g E 9 ^   q ",
"B B B B B B l D D t 5 3 v A z = = = = = = = = = = = O.q.P.X X X X X e.2.K = = = = = = = = = = = = l B B D B B B B l D D 0 $ ; q ",
"; . # G < ;   $ > > ; c > > 3 = = = = = = = = = = = = Q.Z j.Y X X X R.d.= = = = = = = = = = = = = 3 % , + * c 5 3   5 > > < ' 2 ",
"  S.- . _ + : G   '   c G ' G = = = = = = = = = = = = = = K T.'.U U.V.W.= = = = = = = = = = = = = 4 } > v.] . _ & : * ' * G 5 % ",
"& : [ } ^ d , ^ ^ > [ 9 , 8 % = = = = = = = = = = = = = = = = H = B.X.K = = = = = = = = = = = = = m i , ! > ^ > t 5 % 8 < m Q F ",
"  - s < q r q , n , r e < d % = = = = = = = = = = = = = = = = = = = = = = = = = = = = = = = = = = k z > ! d > n e n > n 5 e l D ",
"; : ^ < k e % [ } a a t % 8 % = = = = = = = = = = = = = = = = = = = = = = = = = = = = = = = = = = h z h ! a a % s $ h % 5 ^ s g ",
"@ _ r ^ ^ e r , m a ^ e 5 q 8 = = = = = = = = = = = = = = = = = = = = = = = = = = = = = = = = = = s z a w % h % m k > 6 5 [ t g ",
"# ; t d F t t 6 q q F Q n F v = = = = = = = = = = = = = = = = = = = = = = = = = = = = = = = = = = 7 z } G n n Q q y 6 q n F z o ",
"h ^ v 0 0 7 0 0 v 7 s t D o o Y.= = = = = = = = = = = = = = = = = = = = = = = = = = = = = = = = Y.D B 6 $ v 0 0 7 0 0 0 v q D C ",
". # # + # * 4 4 c _ ~ . # 4 , Z.`.= = = = = = = = = = = = = = = = = = = = = = = = = = = = =  +.+++' ' . ; @ @ G @ 4 #   ; < '   ",
"+ - - : 2 # ' # . G c   # 4 } $ @+#+$+%+= = = = = = = = = = = = = = = = = = = = = = = = %+$+&+*+' c # & _ & : c ' c # ^ [ k =+/ ",
"} r > % ^ d ^ s 4 n s ^ s m i [ ' -+;+>+,+= = = = = = = = = = = = = = = = = = = = = = = '+)+!+> [ > q ^ k [ a ^ m 8 % x q a j > ",
"5 q n $ 6 [ n a r n % t ^ 9 f [ 4 + ~+{+]+^+%+= = = = = = = = = = = = = = = = = = = /+(+_+:+6 [ q q m 5 6 y a m ^ s m A 7 a j e ",
"r k e t 6 ^ ^ h } 9 6 s } l f [ 4 ] 6 y <+[+}+ += = = = = = = = = = = = = = = = = |+1+2+e n } m > 9 % e > n m t $ r h o v > j 2 ",
"n > h y 8 h r n [ d e ^ 6 6 z k @ @ e n , s 3+4+5+= = = = = = = = = = = = = = %+6+7+8+r 9 } } m n h r y , m n h ^ n ^ f B n p d ",
"7 7 9 l g v l 0 q v 7 D 7 f f k # 3 g f y v l 9+0+a+b+= = = = = = = = = = = c+d+e+f+A t D y y v q 0 F v 9 v 7 x 0 D 0 u g ^ { Q ",
"l B l B l B l B B B B l l D D k ; % F 7 D D B B g+h+i+5+= = = = = = = = = j+k+l+a g D D B g o o u z B l B l B l B l z u i h 5 Q ",
"2 + + ' ' ' + * ' # a % c &   ' ' ' G ' - - - - + G m+n+o+b+= = = = %+p+q+r+* * G 5 5 # G + ' 4 4 2 k < @ ] ' ' ' & & ' G < % ; ",
"& s+~ { ! - ! ] ! @ $ ^ / ( { ) - : : + { _ _ { + : _ t+u+v+5+= = = w+x+y+~ { ~ . w w - . & - * . # < a s+p { ~ - w ) w - 5 k ; ",
"@ ! 5 ; 4 , 5 < 3 6 7 8 : ~ < $ $ % , $ > 5 2 } } $ $ c e z+A+B+= C+D+E+2 a [ 4 e 2 G % ; h ; e c d 9 > S.2 3 c , 5 < ; e Q d ; ",
"  + } ; d 5 3 e a f g 8 ] - 4 ; > % } > } 8 ^ r [ > 8 h y l F+G+H+I+e r , r h , h $ , 6 5 8 a r , 7 B > w ^ ; r , 3 k , l x d ; ",
"G & ^ ^ % > k k a l f 8 & - 3 3 k % 5 m 8 [ } n % [ d $ y f F > & 8 ^ , 8 e [ n 5 } } 8 ; > $ q 5 q g % : } 8 > 8 } e , F A d ; ",
"c G % , q } n [ n g f r # @ $ % q ^ k r ^ s 8 n h h h m y B F > & ^ n m ^ n s m n % 8 Q } s 8 [ % Q f % + % , s > e r m l A n a ",
"5 > q t i g z f v A x y 3 h t v D Q v 9 l D 0 D v i D g f z F ^ < F 0 F 7 7 7 7 v 0 B g Q D B 9 g D f ^ $ 6 t z x x A v f z F } ",
"> h v v D D D g E E z t 3 [ 0 l l D i i i g l o E E f D D D m 3 d 0 7 7 7 0 0 v 0 D A A i g l v g g g 8 ^ v 0 D g D B o u i F 5 ",
"_ < < } 4 4 4 a > > > ; ^ > % * & ' ; , ; & # # a 5 # 4 4 4 * < # & & & @ 2 % n a . & * ' & c ] 5 < } 2 c 4 < > > ; & c < m d _ ",
"(.. : @ # * G G @ #   * , % $ J+/ w _ { & ] + @ ) + & # G     G * * ' . - 4 $ k . s+{ : - : _ [.. _ + # @ # G & 4 . _ @ , h 8 J+",
"$ > 5 ^ k 8 ^ ^ h ^ 3 k i n > ( < < > 2 ^ $ ^ } } h $ e $ > 8 a 3 8 > ; G t v ^ @ w } 3 8 } 5 , a } a h > e > [ h 4 G ^ z d % 1 ",
"r ; } > n > [ 8 ^ h $ s i 0 e /.k $ > % k 6 k d $ 6 > ^ r s h ^ , t h < m v g d ' * } ; , ^ % 6 ; , > n $ r ^ % n ; ^ q i 9 8 (.",
", 8 , 8 d h r 5 ^ [ 8 t i 0 [ v.[ 3 ^ < q % r s a s , h r ^ e $ r r e $ < l z y # + > 5 e 3 [ $ ^ > > r r h a } n ; ; 6 o l e ! ",
"m a h t e [ d $ y 8 , n i t 5 p 2 6 h ^ 8 n t m n n > m n [ r h t ^ e d } v C t # 2 } } F % h n 3 n 6 r r 8 % s r a > n E g ^ ] ",
"l q g A l 0 7 y B l v x A n 3 . r y F F n y 9 F q v q 7 s 0 F 9 9 0 9 v Q A C e < 5 9 7 i 7 F g n g z l l Q Q l g 9 Q D C 0 k @ ",
"g D i g D f u u D B o C B d h , n Q v v v v Q t s s 0 l D o o o i l l A B g 0 ^ ; ^ D l g B B g D f f D g u u g B f g D B 6 < ; "};
