/* XPM */
static char *torch01w401743666765[] = {
/* columns rows colors chars-per-pixel */
"64 64 128 2 ",
"   c #1D1D1D",
".  c #201E1E",
"X  c #242424",
"o  c #2A2625",
"O  c #2C2C2C",
"+  c #322624",
"@  c #302827",
"#  c #392B27",
"$  c #332C2A",
"%  c #3D2E2A",
"&  c #3F302C",
"*  c #343434",
"=  c #3B3533",
"-  c #3D3836",
";  c #3B3B3B",
":  c #41312E",
">  c #543A2C",
",  c #593C2D",
"<  c #453532",
"1  c #463835",
"2  c #493A36",
"3  c #443D3B",
"4  c #4D3D3A",
"5  c #533E35",
"6  c #623F2D",
"7  c #45413F",
"8  c #4E403C",
"9  c #5F4133",
"0  c #51423E",
"q  c #58443D",
"w  c #564838",
"e  c #5B4C3D",
"r  c #61422E",
"t  c #6C432E",
"y  c #77482F",
"u  c #61522E",
"i  c #76502A",
"p  c #6B4530",
"a  c #6F4B37",
"s  c #774830",
"d  c #7A4B32",
"f  c #744C38",
"g  c #7A6827",
"h  c #6E6037",
"j  c #7A6C32",
"k  c #7C6E3A",
"l  c #434343",
"z  c #4B4543",
"x  c #4B4B4B",
"c  c #544542",
"v  c #574844",
"b  c #584946",
"n  c #534B4A",
"m  c #5D4E4A",
"M  c #57504E",
"N  c #5F504C",
"B  c #525252",
"V  c #5C5351",
"C  c #5B5B5B",
"Z  c #634E44",
"A  c #6D5140",
"S  c #6A5B44",
"D  c #61524E",
"F  c #645551",
"G  c #675854",
"H  c #695956",
"J  c #6C5D59",
"K  c #6F605D",
"L  c #71625E",
"P  c #626262",
"I  c #756562",
"U  c #796A66",
"Y  c #8D7F15",
"T  c #84761F",
"R  c #875E2D",
"E  c #825035",
"W  c #895438",
"Q  c #95672E",
"!  c #82742B",
"~  c #85782C",
"^  c #8A7D2D",
"/  c #8B7D31",
"(  c #83753F",
")  c #9A8718",
"_  c #A39715",
"`  c #AE9B13",
"'  c #A5991A",
"]  c #AD9F1F",
"[  c #AEA312",
"{  c #B3A810",
"}  c #998C22",
"|  c #90812C",
" . c #978A28",
".. c #A6992B",
"X. c #B6AB3E",
"o. c #C2AE0E",
"O. c #C1B60C",
"+. c #C4B808",
"@. c #C9BD0C",
"#. c #D4C902",
"$. c #D9CE02",
"%. c #DED301",
"&. c #DDD20A",
"*. c #E3D704",
"=. c #E3D806",
"-. c #EADE04",
";. c #E4DA0E",
":. c #EADF0C",
">. c #E0D715",
",. c #E9DE12",
"<. c #E4DA1A",
"1. c #ECE002",
"2. c #F2E80D",
"3. c #FAEF14",
"4. c #F8ED1E",
"5. c #EDE320",
"6. c #F7EF2D",
"7. c #FCF32C",
"8. c #F8F038",
"9. c #DCD54C",
"0. c #EDE952",
"q. c #FBF45A",
"w. c #F5F16A",
"e. c #FEF96F",
"r. c #FAF779",
"t. c #FDFA7D",
"y. c #FBFB96",
"u. c #FCFC9A",
/* pixels */
"l x x l l l x x l l ; 8 m F D m N N D N H H F H F N N D N b c b H H H H H G D D N m m N N F D N m N F N V l z l * ; l B l l l l ",
"x B B B B x B x B l l c J I H H H H H F H F H H F H H J F Z 4 b K K K K H J H K F J H F F F F F F H H J J M B ; * ; P C B B B x ",
"; l ; l 7 ; ; ; 7 * < 8 G J b b b c b b c b m v b b b m 0 1 8 b J m b b m b c m 0 m N c m 4 N c N c b m n b ; O X ; C l ; l ; ; ",
"; ; ; ; * ; l * ; @ < c G F m m c c v c b c c 8 8 c c 8 2 < 4 b H c 8 8 b 8 8 b 0 b b 4 m 0 b 4 b c 4 b b 0 1 . O ; C ; ; ; * l ",
"* l ; * ; * * * ; < : 0 F F b m 0 c b 4 0 0 c 4 c c 8 b 1 : < c F 0 0 Z c 8 0 4 b b c 0 Z v b 2 b 4 0 b 4 b 4 . X ; B l * ; * ; ",
"; * ; ; O ; O * 1 : : 4 m D b c 2 c 0 0 c 2 c 4 0 8 8 4 1 < 1 c F c 4 4 c 2 4 4 4 c c 1 c 1 c 0 c 4 4 4 2 0 1 + X * B ; ; * * ; ",
"X o O O       . < & : 2 b 0 2 < : 1 < 1 < < < : < % : : : : < c b < < 2 < 1 < 2 < < : : 1 : < 1 : < % < % < : # X * l * O X . . ",
"X X X X X X X O # % : 2 m 0 < < < : : % : : < % % % : < : < 4 b 4 < < 1 1 1 < : : % : < < < < < : % : % % % 1 b ; X O X X O O X ",
"l l ; ; l l l c c c c m c c c D F N m b b F m N b b N m m m D b N F F N H F m Z 4 4 F N F N N N b m m b c b m b 0 ; ; ; l ; ; ; ",
"C x B l l l l m F N D D b c b U H H H H F F F D H F F m D N D D F N N F N F F c 0 0 I K F F H F H H F H m N m N N l l l l ; ; ; ",
"B ; ; ; * * 3 c 0 c b 0 % 4 c I b b v Z c b c b c 0 b 0 c c c c b 0 v b b q c : 4 c K F 0 b 0 b b b c b 0 c 4 b c - ; ; O . * ; ",
"B ; * ; O ; 3 c c 0 b 2 % 1 0 J 8 b c c 0 4 0 4 b 4 c c 4 4 0 c b 4 0 b 4 c 2 : < 0 K b b m c b 4 c m c b 4 c 0 c 3 ; ; O . O * ",
"B * ; * O * 4 b c 0 0 2 : < 0 L 0 b c c 2 c 8 4 c 2 b 0 8 c 0 b 0 8 8 b 4 c 0 : : 4 H N c b v v c b 4 m 0 4 0 4 b 4 * * X   X ; ",
"B * * O * * 4 b 2 c b 4 % 2 b K D 4 c c c 4 2 4 4 4 c 4 4 0 4 0 1 v 8 4 b 8 8 : : 0 F v b 4 0 0 4 c 4 c 2 4 b 2 b 2 ; ; O . O l ",
"l O X   X o 1 2 : < < : : 4 b F 4 2 < 2 4 2 2 < 2 < 4 < 2 < < 2 1 < 1 < 1 < < # : 0 N v < : : 4 : < 1 < % 1 1 1 2 : O . . X * l ",
"O X   X X o % # < : % % : 8 0 b 4 2 < < < < 1 2 4 4 1 < < & % % : < < : : < : < 1 b m 2 : < : 1 : : : < % % % < : % X O * O * * ",
"l B l ; l n F b m b v c b m D m m m v b c b 0 c b F D F D b b b m m m F m m N N N m N b b m F N c c N H m F m N b v 3 ; l l * * ",
"x C x B x B H F D D D D F D V F m F M F F b b b H I F J H H H H F H F m m N m N F m F N m N m c c L H F F N N F N N n l x x ; l ",
"l C ; l ; z c 8 m v v b m 5 b c b v 4 m b 0 : 0 H J b N c c 0 c v c b 4 0 v 0 4 b 0 v b 4 v 4 : < K F b m b v q c Z 7 ; l l * l ",
"l l * 7 O = c 4 v c v b b 4 b 4 v v 4 5 c 1 : b K H b b 0 c c 4 b c v 0 b 4 v 4 4 b 0 v 0 v < % < F b b b 4 4 c 4 b 3 ; ; ; ; x ",
"l x ; ; o 3 4 8 b 5 4 b 0 4 4 b 4 b 4 v 4 < : b H F b 0 c 8 5 c 4 v 4 1 0 v 0 4 0 c v b 4 b 4 % < F N c b 4 4 4 0 b * * ; * ; x ",
"l l O * o * c 1 c 4 4 b 4 4 c 8 1 c 4 0 4 0 : 4 F H c b 4 v c c 4 0 c 2 4 1 0 < b 4 4 0 m 0 4 : 1 H m 1 v < 4 c 1 0 ; O ; * * l ",
"7 l O O o O < < 1 2 1 2 1 1 < : : < < 4 : % : 2 F m 2 4 2 2 < 2 1 < 1 1 2 1 < < 2 : 1 < 4 4 1 % < F m 1 < 1 1 1 < 1 $ X O O O ; ",
"; ; O o o O 1 < < < 1 1 1 < < < 2 4 < : < < : 0 b c < < 1 1 < < : : : : 1 2 4 < : : : < < < 1 : 1 b v 1 < < < 1 < < o O X X * ; ",
"x x l x l ; m v c 4 b J J F G D m m b v c b c b D m m D c D D m 8 8 v m N H F m Z b N m m m m F b F F m N b b F N N l x l x x l ",
"l x x l x x F F v 4 c I G F F G G F m D D V D m D D D D D V D c q b K H F F F H F F F N N N N N m N N m b 4 m H m b ; l l l x ; ",
"; ; ; ; l ; z c % 4 c J c c 8 b c v c b c 4 0 4 m 5 c c 0 c c < 4 m K N 1 c v v 2 b v 0 c c c b 4 b 4 c : 0 N N 0 4 O ; * * ; * ",
"* * l * ; * z 4 % 4 8 J 4 b c v c c 0 b c c c 2 c c c 4 v v v : 4 N U m 0 v v c b v b 0 b 4 c b c c 0 4 : 4 m N 1 = $ ; O O ; O ",
"l * ; ; ; * * 4 & 4 v L c 0 c v 0 4 c c 0 4 n 4 b 4 0 c 4 b c : 4 m I b b b c 4 b b 8 b 0 b v b 4 4 0 1 : 4 m F n O ; * ; O * O ",
"* * ; * ; ; ; 1 < 8 c J 4 b 2 v c 4 0 b 0 c 5 < 0 0 c c 0 b c : 2 v K N 4 Z c b 0 c b 0 b 4 0 b 0 b c 4 : < c m 1 * O O ; O O * ",
"  X O X X X X O % 4 c m 2 c 2 4 2 4 4 4 < 4 < < 4 1 2 < 4 2 : % 1 v H 0 1 4 4 4 4 4 4 2 4 4 2 4 1 4 1 < # 4 m b * o X X X X X X ",
"X X   X   X X X : 4 v b < % % : < 2 2 4 < % % % : < < < < < : < 2 v b 1 1 1 4 4 v 2 1 : : : < < 1 < : % % 1 c c . . X X X X X X ",
"; l 7 l l x l ; 7 c F b c v F H m D N N m F F N N v v b m S ] ^ N F F F b D D G H D D m b D N D N b c b F D m z ; z ; ; * ; l l ",
"l l l l l l l x z m m c c v I J H J F J F H H H H b q | J ( <.9.( F F F D m D m V N D m m D m D D m c c F m m x l x l l l l x l ",
"; O * ; O ; O ; ; 1 c % 8 v J m b D b m b b v m 8 1 w [ ..~ >.0.! 4 4 u b 0 0 0 5 c c 4 c c c c 4 4 : b D c 3 ; O ; * * ; O ; * ",
"* * O ; O ; O * * * 4 % 2 c H c m 4 b 8 v m c b < : q [ @.+.,.w.X.f 2 } w 4 b 2 c 4 c 4 b c 8 c 4 8 : c D 4 ; O * O ; O ; * ; O ",
"; X ; ; * ; * ; ; * = & < c G v c c c c c c 0 b < & 8 j &.:.7.t.<.' g _ e 4 2 0 2 c c c c c 4 b c 4 : 0 D 4 ; ; O ; * * * * * * ",
"* O O * * * O * * O ; + < c F c b 2 c 2 c q 8 4 < & 4 S *.3.e.y.6.;.%.[ e 4 4 v 1 c b 4 c c c c 1 4 : c m ; * ; O * ; * ; * * * ",
"X X   X X o X O O o O   4 c b 4 4 % : : : : : : : % < S #.-.q.u.t.7.-.[ 5 1 2 2 : 2 2 < 4 < 1 4 : 1 : c ; O O O O O * O O o * O ",
"    X X         X     X = c c < < : : < : : : % # : 2 w { =.7.y.y.8.%.) < 2 2 < : < : < # # : : < : : = ; X X X X X X X X O X X ",
"x l l x l l l l l x B x l x v v m D b b b m F D m v m F ~ #.4.t.r.5.#.k D D b b F m D m F m D D m F z l l l ; l x ; l l ; l l l ",
"x x x x ; l l l x l l l l l l b F L J F H F F F F m D m D  .$.2.=.O./ N b b 4 m G m m m F G D F m x l l * * * C x l l l x l l l ",
"; * ; ; * O * O ; O O ; O O   1 D F b c b 2 < 0 c c c 1 v e ) O.` g w 4 z : 0 m F 0 c 4 c c z c 7 O * ; X O ; B ; * ; O ; * O ; ",
"; O O ; * * * ; * * * O * O X * z F 0 4 b 2 4 b 4 c c b 4 q y Q R r 0 2 4 & 5 D F 4 2 4 b 4 1 7 O ; O *   X ; B * * * ; O ; * O ",
"* * * O O ; * * ; o O O ; o X * l B 4 2 b 4 4 v 4 c c 4 c 5 p W d r 2 c 1 : 4 m G v 1 v 4 c O * O ; * *   X * B l * * O * O * O ",
"O * * O * * * O * O * * O O   * l l * ; b 4 4 0 < c 0 < c w t d d r 0 < 4 : < v F 4 0 0 = ; * O * * O *   X O B O ; * O ; * * ; ",
"X X O X X X   X O X X X O   . * l l X   O % < < < 1 1 < < < , y p 5 < < : # 5 b b 4 % o X o o X X X X o     ; l X O X X X X X O ",
"X X X   X X X X X X X X X X X * ; ; X o X X o $ & : < : < < , s p : % < : # 1 c 7 .   X X X X X X X X       * l X X X X X X X   ",
"l x x l l l x x l l ; ; l l l x l l l l x x x x x l x n M c 9 s f D G V V B x l l l l l l x l l l ; * ; l x l l l x x l l ; ; l ",
"x C B x B x B x B x ; ; B C B x x B B x B x x B x B x B x ; > y a n C B B B B B x B x x x x x l x l ; ; C B B B x B x B x ; * ; ",
"l B ; l l ; ; ; ; O X * B B ; ; ; ; ; ; ; ; l ; ; ; ; l * X : p A 7 ; ; l ; * l * l l * l * l * l * O ; B l ; l ; ; ; l * X * l ",
"l x ; l * ; ; * ;   X * x x ; l * ; ; ; ; * * * * * ; * O X = 9 Z * * * ; * * ; * ; l O ; * ; * ; X X * B * l O ; l * ; X   * ; ",
"l x * ; ; * * * ; X   * x x ; l * ; ; O * * ; O ; * O ; O X o ; z * * ; * * * O ; ; ; * l * ; O ; O   ; x ; ; ; * ; * ; X   * ; ",
"l l ; ; O ; * * O X X O l l ; * O * * * ; O * O * * * O X X X ; x ; O * * O O * O * * O ; O * * ; O X ; x * ; O ; * O * X X O ; ",
"; * O O   X     X   X O l * O X X O X X X   X X X     X     X ; ; o o o X O O X X X X   X X X X X X   * ; O O     X   X X   X ; ",
"; * X X   X X         O ; * X X X X       X X         X X X * ; * X O X O X X X O X       X X X   X   * ; X X X   X         X l ",
"x ; ; ; ; l ; ; * * * l * * ; x x l ; ; l l l l ; l ; l x l x x ; ; O ; x x l l x l x l ; ; l l l l ; * l x l ; O * x x l l ; l ",
"B x B x l l x x x l l x ; ; ; P B B x B x x x l x x l l l l x x l ; * x C B x x x x B x x l l l l l l l x x x ; * * B x x l x l ",
"; ; ; * * * ; * * * l *   O * C ; ; * l ; ; * ; ; * ; ; * ; ; l O X * l B ; l * ; ; ; * ; ; * ; O ; * * l l *   O ; B ; * ; ; * ",
"* ; ; ; O ; * * * * ; O   X * C * ; ; ; * O * * ; * ; ; O * ; * X X * l l * l ; ; * * l l * O ; * * ; O ; * O   X ; x * * * ; * ",
"; * ; * O * * ; * * * O   X * C * ; ; ; O ; * O ; * ; * * * ; ;     O l x * ; * ; * ; * ; * * * * ; ; O l ; O   X * x ; * O ; * ",
"* ; * O * * O ; O * ; O   O ; B l O * * * O X * O * * X * * * * X   O l l ; ; X ; * O l O * O O * * O * ; ; O   X ; l O X * O O ",
"X O X   X X X O X X X   X O ; B * O X O * X O X O X O X X O X X     * ; ; O X   X X X O X   X X X X X X X O X   X * l O O X O X ",
"  X     X         X     X O * ; O O X X X X X O *       X X   X X X * l * X X X X X X X     X X       X   X   X O ; l X X O O   "
};
