/* XPM */
static char *torch05w101743666765[] = {
/* columns rows colors chars-per-pixel */
"64 64 119 2 ",
"   c #242424",
".  c #2B2B2B",
"X  c #30302F",
"o  c #343333",
"O  c #383836",
"+  c #3C3C3C",
"@  c #4A3E35",
"#  c #423D3A",
"$  c #44443E",
"%  c #4D4339",
"&  c #5C4535",
"*  c #6F432D",
"=  c #77482F",
"-  c #77522C",
";  c #644431",
":  c #6C4732",
">  c #644A34",
",  c #6D4934",
"<  c #634B3C",
"1  c #774830",
"2  c #7B4C33",
"3  c #77533E",
"4  c #6D6A34",
"5  c #79763A",
"6  c #444443",
"7  c #4B4441",
"8  c #4A4A45",
"9  c #4C4C4A",
"0  c #534A40",
"q  c #594F46",
"w  c #524E4C",
"e  c #555446",
"r  c #52524D",
"t  c #5C564D",
"y  c #5E5D4D",
"u  c #545452",
"i  c #5A5452",
"p  c #5A5A55",
"a  c #5D5D5A",
"s  c #6D584E",
"d  c #745847",
"f  c #605850",
"g  c #6D6B41",
"h  c #6A694A",
"j  c #706B49",
"k  c #77754C",
"l  c #616151",
"z  c #62625D",
"x  c #73695F",
"c  c #7F7D58",
"v  c #656561",
"b  c #6B6B66",
"n  c #6E6E69",
"m  c #746A61",
"M  c #747365",
"N  c #7B7A64",
"B  c #73736D",
"V  c #7F7E6A",
"C  c #757571",
"Z  c #797974",
"A  c #7E7E78",
"S  c #885F2E",
"D  c #825035",
"F  c #895438",
"G  c #95672E",
"H  c #807F64",
"J  c #AB9A16",
"K  c #A39D1F",
"L  c #AEA617",
"P  c #ADA61F",
"I  c #B6AE12",
"U  c #B3AC1C",
"Y  c #BEB511",
"T  c #878435",
"R  c #8E8A33",
"E  c #94903B",
"W  c #9D9838",
"Q  c #A39E30",
"!  c #AEA72C",
"~  c #AEA828",
"^  c #A9A431",
"/  c #C3AF0E",
"(  c #C4BB15",
")  c #C5BD18",
"_  c #CEC502",
"`  c #DDD204",
"'  c #CBC211",
"]  c #CAC11F",
"[  c #D3CB13",
"{  c #DBD31E",
"}  c #E0D506",
"|  c #E6DB02",
" . c #EDE10A",
".. c #F3E90E",
"X. c #CAC226",
"o. c #CCC433",
"O. c #E9E021",
"+. c #FBF22D",
"@. c #EEE635",
"#. c #F2EA34",
"$. c #FCF233",
"%. c #FDF439",
"&. c #87854A",
"*. c #88876C",
"=. c #82827C",
"-. c #CCC74B",
";. c #E4DF4C",
":. c #FCF443",
">. c #E9E450",
",. c #F6F056",
"<. c #FDF757",
"1. c #FAF775",
"2. c #F7F47B",
"3. c #FEFA79",
"4. c #878782",
"5. c #8A8A84",
"6. c #FDFB8C",
"7. c #FDFB91",
"8. c #FBFEB7",
/* pixels */
"u a a u u u a u u u 6 9 n n n n b b n b C C C C B b b n b v l z C Z C C C B n n b v v n n B n b b a p u a u u 9 6 9 u v u u u u ",
"a v v a v u v a v u u a C 4.C C C C C B C C C Z B C C Z B v u v =.A =.A A A C A B Z Z C B M C n B B b v v a v 9 6 6 Z n v v a a ",
"9 9 9 9 u 9 9 9 9 9 9 a C A v v z a v z z v b z z z z b p r p v Z b v a b z p b p b n z v a v p b a v a 9 9 6 o . 9 C u 6 u 9 9 ",
"9 9 9 9 + 9 9 + u 6 9 a C C v v z l z z z l p p p z a l r 8 u v Z l p p z u l v a z z u v l z p v u a v u $ +   X 6 n 6 9 6 6 9 ",
"+ 9 6 6 6 6 + u z 8 8 p n C v v p z v u p l z u a p p z e 6 e a n l l z p p p u v z l l v z z r v u p z u r $   o 9 v u + 6 6 9 ",
"9 6 6 9 + 6 + a r 8 $ p v n v a r a p p a u p r p p p u r 8 9 z n a u p z u r p p l a 9 a u l p z u p y r p +   . + v 6 9 + + 6 ",
"  o o o   X 6 6 9 $ 8 r v p u 9 8 r 8 r 8 8 9 8 9 $ 8 8 $ $ r p v r 8 9 r 9 9 e 9 9 8 8 r 8 8 r $ 8 $ 9 $ 8 8   . + u + o . . . ",
". . X X . + 9 6 $ $ 6 u v u 9 9 8 8 $ $ $ 8 8 $ $ $ $ 8 8 8 p v u 9 e 9 9 9 8 8 $ $ $ 8 9 8 8 8 8 $ 8 $ $ $ 9 p + . o o . + o . ",
"u u 9 6 p v b z l z z v z p z b M b b v v B b b z v b b v b n v b B n n C B b v p u n n B n b n v b b v a a v v 9 6 6 9 u 9 6 6 ",
"n a a p v n b n n b b B z z z 5.C C C C M B B M C B n b b n b b n n n B b n B z p p 4.=.B B C B Z Z n C n b n n n u u u u 9 6 9 ",
"v 6 9 9 a a z l p a v p $ r z =.v v a b a v p z z p z p v z l z v l a v z z z 8 u a A B p v l z v z a v a a u v a 6 9 9 +   + 9 ",
"v 9 6 p u z p p a p z r $ 9 p =.p z z a p u p p z u z p p r p a z u p v p a u $ 8 l Z z v b p v p a v a a a a a a u 6 6 o . o + ",
"v + u a p p p z l p p r $ w p =.p v p v r l p u z u z l p p p z p p p z u p l $ 8 u Z b a z z z p v p v a u a u v u 9 + o   o 6 ",
"v 6 9 9 p p u z r a z t 8 e z A b u l a p u r p u r a p u p p p r p p p z p u $ $ p B z z p p l u p p l 9 u a u v u u 6 o   + 9 ",
"u o 6 6 8 9 w r 8 8 8 8 $ u v B y r 9 r p r r 8 r 8 r 8 u e 9 r r 9 r e r e 8 $ 8 p B l 8 8 $ u 8 9 r 8 6 9 u 9 u 6 9 .     + u ",
"+ o 6 9 8 8 $ $ 8 8 $ $ 9 p p z u r 9 9 8 8 e r u u r 9 8 $ $ 6 $ 9 8 $ $ 9 8 8 r z v r 8 9 8 9 8 $ 8 8 6 6 6 6 9 + 6 + + + 6 6 ",
"u v v v n n n v b z z a z b n b b v z z z z l z v B n B b v z v v b b n v v b n b b n v z b b b a a n B v n b n z l z p r u 6 6 ",
"v Z Z Z B C C B n n n n B n n n b B b n B z z v Z =.C Z C C C C B C B b b n b b n b n n b b b z p =.Z B B n n B b n n v p a 6 9 ",
"u C v n a v p p b z a z b p z l z z p v z p 6 p Z Z v b l z p l z l z u p z p p v p z z p z u 8 8 A n z b z z p a b z p 9 u 6 9 ",
"9 b a v p p a u v p z z z u z p z z r p z r 6 v A Z v v p a a p z z z p z p a p p v p z l p r $ 9 B v v v p r z u z a p 6 u 6 a ",
"u b z v 9 l u p z p p v p u y z u z u z u 8 $ z Z B l p z p p a p z p r l a p r p l a v p z r 8 9 M b l z u p u p v u u 9 6 6 a ",
"u b u p 9 u p r p p p l p p a p r l p p p p 6 l B C z z u a l p r p p r r r p r z r p p v p r $ 9 Z v r p r r l 9 u a u 9 + + 9 ",
"r b p 9 e 9 9 8 e r e u 9 e 9 8 6 9 9 e 8 $ 8 r n b r u r r 8 r 9 r r r r 9 r 8 r 6 r 8 y p 9 $ 9 M b r r r 8 r 9 r u 9 o o + 9 ",
"6 z r 9 8 e 9 9 8 9 9 9 9 8 8 8 r r 9 8 8 6 8 p v l 9 9 9 8 e 9 8 $ 8 $ r r r 9 8 $ 8 8 8 8 9 8 8 v z r 9 9 9 8 9 9 9 9 o o + 6 ",
"p n B B b v v z p p z A A B B n n b z z z z z z n b b n v n n v p u z b n B B n b v b b v b b n z B B n b v v n b b n n 9 p u u ",
"p v n n B B B B z p p A B B B C C M b n n b b b n b b n b b b z z v A C M B B B B B B b n b n n b n b v z p b B b v v v u u p 9 ",
"9 u v v n z v l $ u z A p a p z a z p z a p p p v p a l p z a 8 r v =.b r z z z r z p p p a p z p z p p 8 p b n p z r r + 6 6 6 ",
"6 9 v p v p v u $ u p A u b l z z a l v a a l e a a a p z z z 8 p b 4.b p z z p z z b p z l a v z p p r $ p b n r r p u + O 6 + ",
"9 6 z z v a a u $ p v =.a p p z p p l a p p z r v p p z u z z 6 u n 4.z v z l u b z p v p z z v p u p r $ p b n a 9 a 6 6 o + o ",
"6 + a p z a l u $ p l Z u v r z a p p v p z p 9 p p a l p z l 8 r z A b p v a v p a z p v u l v p v p p $ 9 z b u p u o 9 + + + ",
". . 6 8 9 e 6 6 $ p a n r p r p r u u y 9 r 9 9 u e r r p r 5 T e z C l 9 p p p u p p r p r e r r p 9 8 $ r v v u 9 6 . o . X . ",
". . o 8 8 8 8 8 8 e z v 9 $ $ 8 8 9 u r 8 $ $ $ $ 9 8 8 8 4 o.-.4 l v r 9 9 r r l r 9 $ 8 8 9 8 8 8 8 $ $ 9 z z $ 8 o . . . . . ",
"9 u u v b B b v z z n z z z n C b n n b b n M n n z a v m ! #.;.) N n B v b n B Z n b b z n n b n z a z B n v z v b 9 6 6 9 u 9 ",
"u u u a b n v n b v n z z z =.A Z Z B A B Z C Z B v p z *.` :.,.' V B B n b b b b b b b b b b b n b z z n b b n b z r 9 u u u u ",
"6 o 6 8 r z p z z u a 6 p z A v z b v n z v z v p r p v V ) 1.>.K u p r z p p l p a p p z a a a u p $ z n a l a 9 9 6 6 6 + 6 6 ",
"6 + X 6 $ a r p p p r $ e z Z a z p z p z v a z 8 8 i z V X.1.{ L k r a p u z r z u l p v l p a r p 8 z b p z u 8 O 6 + 9 + 6 + ",
"6 o 6 6 + a a v z u p $ 9 l C z l z a a p z p z 9 $ p z H [ 2.@.` ) ~ h z p r p u z p a a a y z l p $ l n z a p + 6 + 6 6 6 + 6 ",
"6 o + + + 6 r a l p z + 9 a B a v u a t z p p t 9 $ l W ^ ` +.<.%.' R l a u u l e p z p z z p z r r $ z n a p 8 + 6 6 + 6 + 6 + ",
"X .   o . O O r r e e $ u a z p r $ 8 6 8 8 $ 9 6 $ e E _ | O.7.1.` I h 9 r r r 8 r e 9 r 9 9 r 8 9 8 z z r $ o o o + o o o + o ",
"    . .       O 8 $ $ 8 p l p r 9 8 8 8 $ 8 8 $ $ $ e l U  .:.8.6.Y 4 $ 9 r r 8 $ 8 8 8 $ $ 6 8 8 6 8 u z + X X o . X X X o X X ",
"a u u a u u 9 u a C Z n b b z z v n v z v b B n n v v B P ` $.7.:.( &.v n b v z B v n n B z B n v C v v v 9 9 u u 6 u u 9 u u u ",
"u a a a 9 u u u p v b n n v z z n =.Z B B B B B n n n v m U } ..` Q c b z z p b B b b b B C B b v n n v 6 + 6 v a u u 9 u u 9 u ",
"6 + 6 6 6 + + + 9 + 6 a u u $ p n B z z v e 9 p a a a w v j J / L y a u p 8 p b B p z r a p p z v u 9 6 . o 9 v 6 6 6 o 6 6 + 6 ",
"9 o + 9 + + + 6 + + 6 + a r 6 p b B p e z e u z i a a v i f - G - > p r u 6 p b B u e u v u r z u 9 o +   o 9 v + 6 6 9 + 6 6 o ",
"+ 6 + o + 6 6 + 8 o + O 8 6 8 p b C u r z p u z i a a u i i * F 2 > e l r 6 p v Z z r l p z u r + 9 + +   . 6 v u + 6 o + + 6 + ",
"+ 6 6 o + + + + + + + 6 + + O p n n p u v u u p w a i w i i * F 2 < p r p 6 9 z n u p p r z 8 + + 6 o 6 . . + a + 6 + o 6 + + 6 ",
". o o .   o . . O . . . . .   6 z z $ 8 r 9 8 e 7 w w w w i 7 1 , < 9 6 8 $ r v z e 9 9 + o . X . . . .     6 u o o o . . o . + ",
". . . . . . . . . . . . . . . 6 9 8 $ 8 8 8 8 8 9 7 9 7 7 7 ; 1 , % $ 8 $ $ 9 l z $ O X . . . . . . . .   . + 6 o . . . . . .   ",
"9 u a u u u u u u u 9 6 u u u u u u u u v C C C C C v C v v i 1 a v C C C C n v a 9 9 u u a u u u u + 9 u v u u u u u u u 9 6 9 ",
"u C v v v a v a v u 6 6 v n a v a a v u v a v v a v v C n v 7 1 i C C C C v v v a v v a v u a u u u 9 6 v v v v a v a v a 9 + 9 ",
"u v 9 9 u 6 9 9 u + . 6 v v 9 9 9 6 9 9 + 9 u 6 6 9 9 u + o + w v w 9 6 9 6 6 u + u u 6 9 + 9 + u + o 6 v u 9 u 9 9 9 9 + o + u ",
"u a 6 9 + 9 9 + 6 . . + a u u 9 6 6 6 6 6 6 6 + + 6 6 + o o + 9 i 6 + + 9 + + 6 + 6 6 + 9 6 9 + 6 o . 6 v 6 9 + 9 9 + 9 . . + 9 ",
"u a 6 6 6 6 + 6 6 . . + u a 9 9 + 6 9 + 6 + 6 o 6 6 + 6 o . o 6 i 6 6 9 6 + + + u 6 6 6 9 6 6 + 9 + . 6 a 6 6 6 6 6 + 6 o . + 9 ",
"u u 6 9 + 6 + + + . . + u u 9 6 + + + + 6 + + + + + + + o . o 6 i 6 + + + + + + + + + o 6 o 6 + 6 o   6 a 6 6 + 6 + + + . . + 6 ",
"9 6 o o         . . . o 9 + o o . o . o . . o . o . . . . . . 6 6 o o o o . o o o o o o o . o o   .   6 6 + o   . .   o   . o 6 ",
"6 + o . . . . .     . o 9 + o . . . . . . . o o o . . . . . + 6 + . o o . o . . . . . o . . o o . . . + 6 o . . . . .     . o 9 ",
"a 9 9 6 u u u 6 6 6 6 u 6 6 6 u u u u 9 9 u u u 9 u 6 u a u u u u 6 + 6 a u u u u u a 9 9 6 u u u 9 6 6 u u u 9 + + v u u u 9 u ",
"v u v u u u u u u u u u 9 6 9 C v v a a u v u a a u u u u u a a u 6 + a C a v a a v v a v u u u u u u u u a u 6 + + v a u u u u ",
"9 6 u + + + 6 6 + 6 9 + . + 6 C 9 6 6 u 6 6 6 6 6 6 6 u 6 6 9 u o . 6 u v 6 9 6 6 9 6 6 6 6 + 6 + 6 + + u u + . + 6 v 6 6 6 9 6 ",
"+ u 6 6 + 6 + + 6 + 6 + . o + v 6 6 6 6 + + + + 9 + 6 6 + + 9 + . . + u u 6 u 6 6 6 + u 9 6 + 6 + 6 + + u 6 +   o 6 a + + + 9 + ",
"6 6 9 + + + + 9 6 + + o . . + v + 9 6 9 + 6 + + 6 + 9 + + + 9 9 . . o u u 6 9 + 9 + 9 6 6 6 + + + 6 6 + u 9 +   o + a + + o 6 + ",
"+ 6 + + + + + 9 o 6 6 + . o 9 n 9 + + 6 + o o + + + + o + + + 6 .   o u u 6 6 o 6 + + 6 + + + + 6 6 + + 6 6 +   . 6 u + + + + + ",
". o o . . o o o . . . . . + 9 u + o . o + o o . o o o o o o . o .   + 9 9 o o . o . . + .   . . o o o . o . . . o + u o o o + o ",
". . . . .     . . .   . . + + 9 + o . o . . o o +   . . . .   . . . 6 9 6 . . . . .   .   . . .   . . . . . . . + 9 9 . o o o . "
};
