/* XPM */
static char *torch011743581659[] = {
/* columns rows colors chars-per-pixel */
"64 64 119 2 ",
"   c #070707",
".  c #0F0807",
"X  c #0B0B0B",
"o  c #140907",
"O  c #1C0A06",
"+  c #120D0C",
"@  c #1E0D09",
"#  c #14100F",
"$  c #1E110E",
"%  c #131313",
"&  c #1A1614",
"*  c #1B1B1B",
"=  c #260C06",
"-  c #2C0D06",
";  c #260E09",
":  c #2D0F08",
">  c #26110D",
",  c #2F110A",
"<  c #33140D",
"1  c #3A1B0D",
"2  c #211512",
"3  c #2D1611",
"4  c #231A17",
"5  c #2C1A15",
"6  c #221C1A",
"7  c #2B1D1A",
"8  c #361710",
"9  c #371812",
"0  c #3A1B14",
"q  c #301F1B",
"w  c #3E1F18",
"e  c #3E210D",
"r  c #26201E",
"t  c #3F2114",
"y  c #33201B",
"u  c #3E2019",
"i  c #222222",
"p  c #332923",
"a  c #401F16",
"s  c #4C2F09",
"d  c #54380D",
"f  c #402310",
"g  c #4A2C13",
"h  c #41231B",
"j  c #452A1E",
"k  c #4F2B1B",
"l  c #512D1E",
"z  c #59351F",
"x  c #462720",
"c  c #512F20",
"v  c #463127",
"b  c #5C3623",
"n  c #593827",
"m  c #573B2A",
"M  c #633B27",
"N  c #663D28",
"B  c #683D28",
"V  c #62490C",
"C  c #6D540D",
"Z  c #775F06",
"A  c #745C0C",
"S  c #604710",
"D  c #664D13",
"F  c #7B630B",
"G  c #65412D",
"H  c #6B422C",
"J  c #734C26",
"K  c #77482F",
"L  c #764730",
"P  c #774830",
"I  c #7C4C32",
"U  c #846F03",
"Y  c #846F0B",
"T  c #897408",
"R  c #937E0E",
"E  c #865C2B",
"W  c #825035",
"Q  c #895438",
"!  c #95672E",
"~  c #998706",
"^  c #9A8805",
"/  c #9E8A08",
"(  c #A59505",
")  c #AB9C04",
"_  c #AB960E",
"`  c #BCAE03",
"'  c #AB9C2D",
"]  c #C2AE0E",
"[  c #C2B403",
"{  c #D2C700",
"}  c #D5C902",
"|  c #D9CE02",
" . c #DED301",
".. c #DDD20A",
"X. c #E2D704",
"o. c #EADE04",
"O. c #E4DA0E",
"+. c #EADF0C",
"@. c #E0D715",
"#. c #E4DA17",
"$. c #E9DE12",
"%. c #E2D719",
"&. c #ECE002",
"*. c #F2E80D",
"=. c #FAEF14",
"-. c #F8ED1E",
";. c #EDE320",
":. c #F7EF2D",
">. c #FCF32C",
",. c #F8F038",
"<. c #D7CE45",
"1. c #EDE952",
"2. c #FBF45A",
"3. c #F5F16A",
"4. c #FEF96F",
"5. c #FAF779",
"6. c #FDFA7D",
"7. c #FBFB96",
"8. c #FCFC9A",
/* pixels */
"* * * * * & * * & & % % % * * * * * * * * i * * * * % * % % % % i * i * * * * * * % % * * * * * * * * * * * * * % % i i * % * * ",
"* * i i i * i * i * % % i i i * * i * * i * i * * i * i i % % % i i i i i i * i * i i * * * * * * * * i i * * % % % i i * i * * ",
"% * % * * % % % % X X % * i % % % % % % % % * % % % % * %   X % i * % % % % % % % % * % % % % X * % % % % * % X X % i * % * * % ",
"% % % % % % % % % X X % i * % * % % % % % X % % % % % % X X % % * % % X % % % % % % % % * % % % % % % % % % X   X % i % % % % % ",
"% % % % % % % % % X   % * * % % % % % % % % % % % X X % X X X % * % % % % % X X % % % % % % % X % % % % X % %   X % i * % % % % ",
"% % % % X % X X X     % * * % % X % % X % X % X % % % X X X X % * % X % % % X % X % % X % X % % % X X % X % X   X % * % % % % % ",
"X X X X       X X   X X * X X X   X X X     X         X     X % % X   X X X X X X X X   X X   X   X   X   X       % * X X X     ",
"X X X X X   X         X % % X X X X                     X   X * % X X X X X X           X X X               X % %   X X X % X   ",
"* * % % % % * % % % % % % % % * * % * % % * % * % % * * % * * % % * * * i * * % % X * * i * % * % * * % % % % % % % % * % % % % ",
"i * * * * * * % * % * * % % % i i i * i * * * * i * * % * % * * * * * * % * * % % X i i * * i * * i * * * * * * * * * * * % % % ",
"i % % % % % % % % % % %   % % i % % % % % % % % % X % # % % % % % % % % % % %   X % i i % % % % * % % % X % X % X X % % %   % % ",
"i % % % X % % % % % % X   X % i % % % % % X % % % % % % % X % % * X % % % % X     % i % % * % % X % % % % % % % % % % % X   X % ",
"i % % % % % X * % % % %   X % i % % % % X % % X % % % % % % X % % X % % X % %   X X i % % % % % % % % % % X % % % % % % X   X % ",
"* % % X X % X %   % % X   X % i * X % % % % X X X X % X X # % X X % X # % % #     % i % % X % % X % % % X % % X % X % % X   X * ",
"* X     X X X X   X X     X % * % X X X X X X X X X X X X X X X X X X X X X X     % * % X     X X X X     X X X X   X X     % % ",
"X X             X         % % % X X   X X X X % X X X + @ = = = ; > ; O . X     X % % X X X X                         X % X % % ",
"* * % % * * * % % % % % % * * % * % % % % % % % & q 0 w 0 0 0 0 0 0 0 0 0 9 5 4 % * * % % % * * % % * * * * % * % % % % * * % % ",
"i i * i i * i * * * * * * * * * * * * * * % % % y x a h u w w w w w w 0 0 0 0 9 * * * * * * % % % i i i i * * i * * * * * * % * ",
"* i % * % % % % * % % * * % % % % % % % % % X 5 a h 0 0 8 8 8 < 9 8 8 < 8 9 < < 8 % % % % % X X   i * % * % % % % * % % % * % % ",
"% * % % % X % X % % % % % X % % % % X % % + ; 9 h a 9 9 8 8 8 < 9 8 8 8 9 8 8 < 8 8 % % % % X   X i % % % % X % X % % % % * % * ",
"* * % % X % X X % % X % % X % % X % X % + ; : 9 a a 9 8 8 , 8 8 8 8 8 : 8 8 < < 8 < 8 % X % %   X * * % % X X X % % % % % % % * ",
"* * X %   % % X % % X % % X % % X % # # 3 < : < a a 8 9 8 8 8 8 : 8 8 < < , 8 : 8 < 8 > % # X X X * * X % X % %   X % X % % % % ",
"% * X X X X X X X X X X   X X   X X X @ : - : < a 8 < , - , , , , : : < < : , : < : < = $ # X   X * * X X X X X X X X X X X X % ",
"% % X X X X X   X   X X X X   X X X . : : : : < a 8 , , , , , : - - : = : < < : - : : : ; X X X X % % X X   X   X   X X X X % % ",
"* * * * * % % % % X % i i * * * * & * 9 9 9 9 0 0 0 0 a 8 a a 0 < < 9 0 w a w 0 0 0 0 0 0 4 % * % * * * * * % % % % % * * % * * ",
"* * * * i * * * % % % i * * * * * * q w 0 0 0 0 0 0 0 0 0 a 0 8 8 0 x a a w w a a a a 0 0 9 * * % * * * * * * * * * * % % % i * ",
"% % * % % % % %   X % i % % % % % & < 9 9 < < < 0 < 9 9 < 8 8 , < 9 h 0 < 8 8 9 < 8 8 < 8 8 # % % % % % % % % * % * %     % i % ",
"% % % % % % * X   X % i % % % % % 2 < 9 < < < < 8 8 9 < 8 < a - < 0 x 0 8 9 8 8 9 8 9 8 9 8 2 % % % % % X * % * % % %     % i % ",
"% % % % % % % %   % % i % % % % # > 8 8 < < 9 < 9 < 8 8 < 8 8 - < a x 9 9 9 9 < 9 9 8 9 8 8 5 % % % % % % % % % % X %   % % i % ",
"% % % % % % % X   X % i X % X % % , 8 9 < 9 < : < < 8 8 8 8 8 , < 9 a 0 < 9 8 9 8 < 9 8 8 8 8 % X % % % % % % % % % %   X % * % ",
"  X X X   X X     % % * X % X X X , , < , < : , < < - , < , , - : 9 a 8 : < < 8 < < < < < < 3 X X %       X X X X   X   X % * X ",
"    X   X     X   X % % X       X , < < , - - - - , , , , , - - < 8 9 < : < : < < < : : = : > X   X       X     X       X % % % ",
"% * * * % % * % % % % * % % % * * 0 0 a 0 0 8 8 0 9 8 9 0 g / A 0 0 w w 9 0 w a a a 0 0 9 0 0 * * % % % * * * % % * % % % % * * ",
"* i * * i * * * * * * % % * * * * 9 0 0 0 0 a 0 0 8 1 F x D #.<.D a a a 0 0 0 0 0 0 0 0 0 0 9 * * % % % i * * i * * * * * * % % ",
"* * % % % X % % % % % X % % % X # 3 8 0 , 0 8 < 9 : e ( R C %.1.A < 8 s 9 < 8 8 < 8 8 < 9 8 8 % X # X % * % % % % % % % % X X X ",
"* * X % X % X % X % % X % % % % X 3 , 8 , < < 8 < : 1 ( [ [ $.3.' d : T a < 9 < 0 , 8 < 0 8 ; % X %   % i X % X % X % X * %     ",
"* * % * % X % % % % % X % % % X % 2 8 9 < 1 0 < < - , V ..+.>.6.%.^ C ^ f < < < < 9 8 8 8 8 & % % % X % * % % % X % % % % % X   ",
"* * X % % % % % % % % % % X % X X % < 8 < 8 8 < 1 = - g  .=.4.8.:.+.| ( 1 < < 8 , < 9 < 8 8 % % X X   % i % % % X % % X % % X X ",
"* % X % X X X X X X X X X X X X   X ; < , , < - < - < g } &.2.8.6.>.o.( 1 - < - : , , : < ; X X X X   % * X % X X X % X X X     ",
"% % X X X X X X X X X X         . . o - - - - - - - < f ) X.>.8.7.,.X.U < < < , - , : : - o   X X   X X %     X X X X X X X     ",
"* % * * * * * % * * i * * * % % % * * 9 9 9 w w 0 9 0 0 F { -.6.5.;.{ S 0 0 0 9 0 0 0 0 9 # # % * * * * * * * % * * * * % % * % ",
"* * * * % * * * * * % * * % % % * i * 7 u w w u h 0 0 0 h Y } *.X.` A 9 9 9 < 0 j a w h 6 * * % * % * * * * * * % * * % % % i * ",
"% % % % % X % X * X X % X %   % * * % % 5 , : 8 < < < , < f R ] _ C 0 < < : < 9 h < < 3 X % % % X % X % % % % % % % %   X % i * ",
"* X X % % % X % % X % X % X   % * * % X * , , 8 < 9 < 9 < a J ! E z 8 < < : < w h < 3 # % % X % X X % % X X % % % X X   X % i % ",
"% % % X X % % X % X X X % X   X * * % X % # , 9 < < < < 8 f H Q W b 8 8 , - < 0 h 8 X % # X % X % X % X % % X X % X %   X % i * ",
"X % X X % % % X % X % % X %   % * * # X % # # 3 < < < < 8 0 M W L l 0 < < - , 9 u X X % X % % # % % % X % X X % % X %   X X i X ",
"X X X X   X X X X X X   X   X % % %   X X X X . @ , < - : < k K N 1 , - , - - 3 &     X X X X X X X X   X X X   X   X     % i X ",
"X     X   X     X   X X   X   % * % X X     X   X o - : : : c P B 8 - - - - O % % X   X X             X X   X X   X       % % X ",
"% * * * * * * * * % % % * * * * * * * * * * * * * * * * 5 9 c P H x q 7 * * * * * % * * * * * % * % % % * * * * % * * * * * % % ",
"* i i i i * i * i * % % * i * * * i * * i * i * * i * * * % x P G p i i i i * i * i * * * * * * * * % % i i i i * i * i * % % * ",
"* * % % % % * % % % X % * i * % % % % % % % * % % % % * % X 7 G m 6 % % % % % % % % * % * % % % * X X % i % % * % % % % % X X % ",
"* * % * % % % X %     % i * % * % % % % % % % X % % % % X X & m v % % % % % % * % % % X % % % % % X X % i % % % % * % %     X * ",
"* * % % % % % % %     % * * % % % % % % % % % % % % X % X X X 6 r % % % % % % X * % % % % % % X * X   % * % % % % % % % X   % % ",
"% * % % X % X % % X   % * * % % X % % X % X % X % # % X X X X % * % X # % X X X X % % X % % % % % X   % * % % X % % X % X   X % ",
"% % X X               X % % X X   X X X     X               X % % X X X X X X X X X     X   X X   X   % % % X         X     X % ",
"% % X X X X X         X % % X X X X                   X X   X % # X X X X X   X X           X X       % % X X               X * ",
"i % % % % * * % % % % % % % % * * * % % * * * * % % * % * % * % % * * * * % % % % * * * * * * * * % % % * * % % % % * * % % X * ",
"i * * * * * % * * * * * % % * i * i * i * * * * i * * * * * * * * * * * * * % % * i i * * * * i * * * * * % * * * * * * % % % i ",
"% % % % % % % % % % % %   % % i % % % * % % % % % % % X % % % % % % % % % X   % * i % % % % * % % % % % % X % % % % * %   % % i ",
"% % % % X % % % X % % X     % i % % % % % X % X % X % % % X X % % # % % % X X X * * % * % % % X * % % X % % % % X * % X   X % i ",
"% % % % % X % % % % % X   X % i % % % % X % % X % X % % X % % % X % % % % X   X * * % % % % % % % % % % X % % % X * % X   X % * ",
"% % % X X % X % X % % X   X % i * X X % % X X % X % % % X % X % X % X X % X   X * % % %   % % X % X X % % % % X % % % %     % * ",
"X X     X X X X   X X     X % * % X X X % X X X X X X X X X X X X X X X X     X % * X X   X X   %       X X X X   X X       % * ",
"                X         % % % X X X X   X X X X X X   X         X X   X   X % % %   X   X X         X         X     X   % % % "
};
