/* XPM */
static char *torch03w401743666765[] = {
/* columns rows colors chars-per-pixel */
"64 64 117 2 ",
"   c #1D1D1D",
".  c #20201F",
"X  c #242424",
"o  c #282727",
"O  c #2D2D26",
"+  c #2C2C2C",
"@  c #35352D",
"#  c #3C3C2E",
"$  c #343434",
"%  c #383330",
"&  c #3E3E32",
"*  c #3B3B3B",
"=  c #42362D",
"-  c #473E2D",
";  c #51392C",
":  c #403936",
">  c #57412E",
",  c #59422F",
"<  c #424235",
"1  c #4D4434",
"2  c #464639",
"3  c #4B4B3D",
"4  c #5F4835",
"5  c #534A3B",
"6  c #52523D",
"7  c #5F5A39",
"8  c #61432E",
"9  c #6F432D",
"0  c #77482F",
"q  c #76512B",
"w  c #674430",
"e  c #6C4731",
"r  c #6D4A34",
"t  c #774830",
"y  c #7A4C33",
"u  c #744F39",
"i  c #767322",
"p  c #716E35",
"a  c #7A783F",
"s  c #434343",
"d  c #4D4745",
"f  c #4E4E41",
"g  c #4B4B4B",
"h  c #525245",
"j  c #585041",
"k  c #5C5A42",
"l  c #565649",
"z  c #5A504A",
"x  c #59594C",
"c  c #525252",
"v  c #5E5E51",
"b  c #5B5B5A",
"n  c #634E44",
"m  c #6D5140",
"M  c #665C4D",
"N  c #767446",
"B  c #626255",
"V  c #666659",
"C  c #6A6A5C",
"Z  c #737254",
"A  c #626262",
"S  c #6C6C60",
"D  c #717164",
"F  c #767668",
"G  c #875E2D",
"H  c #825035",
"J  c #895438",
"K  c #95672E",
"L  c #9E8F18",
"P  c #BEAB0D",
"I  c #A7A11B",
"U  c #B3AC18",
"Y  c #BEB617",
"T  c #BBB41C",
"R  c #938F2B",
"E  c #9B9623",
"W  c #96902B",
"Q  c #9E9728",
"!  c #848135",
"~  c #87843F",
"^  c #888539",
"/  c #938F3A",
"(  c #999434",
")  c #ACA523",
"_  c #C4AF0F",
"`  c #C8BF06",
"'  c #C6BD09",
"]  c #C8BF0C",
"[  c #CDC307",
"{  c #CAC20D",
"}  c #D0C607",
"|  c #D3C903",
" . c #D3C909",
".. c #DFD404",
"X. c #DBD011",
"o. c #E2D603",
"O. c #E5DA03",
"+. c #E8DD05",
"@. c #F3E606",
"#. c #F6EB13",
"$. c #F9EE15",
"%. c #FCF118",
"&. c #EAE126",
"*. c #F0E930",
"=. c #898540",
"-. c #FEF746",
";. c #EBE550",
":. c #F4EF5D",
">. c #EFEC6F",
",. c #FDF965",
"<. c #F6F378",
"1. c #FDF980",
"2. c #FCFB8D",
"3. c #FDFB97",
"4. c #FDFB9B",
"5. c #FBFEB6",
"6. c #FBFDB8",
/* pixels */
"s g g s s s g s s s * * s g s g s s s s g g g c g s g s s * * * g c c g g g g g s * s s s g s s s s g s g g s s $ * s g s s s s ",
"g c c c c g c g c g * * g b c g g g c g c g g g g g g c g * $ * b c b c c c g c g c c g g g g s g g g c c g c * $ * A b c c g c ",
"* s * s s * * * * + o $ g c * * * * * * * * * * * * * s $ X @ * c s * * s * * s $ * s * * $ s $ s * * s * * $ + X * b s * s s * ",
"* * * * $ * s $ * . X $ g g s s * * * * * * * $ $ * * * & < f l C h 2 * * + $ * * * * + * * * $ * $ * * * $ $   + * b * * * * * ",
"$ s * $ * $ $ $ * X   $ g g * s $ * * + $ $ * + * 2 f l 3 & 3 l B h l x h 2 $ + * * * $ * * * + * + $ * + * $   X * b * $ $ $ * ",
"* $ * * + * + $ + .   $ s s * $ + * $ + $ + $ * f h f f 3 < < h B l 3 3 l f 3 * + * * X * + $ $ * + $ + + $ X   X $ c * * $ $ * ",
". o + +   .     o   . + * $ + X X X X o X X # < 2 & < & & # 2 l x < 3 < 2 2 2 2 # X X . X X X + . X   X   . .   X $ s $ o + . X ",
"X X X X X X X .       o s $ o X X X .   . # < & # # & < < < 3 v h < < 2 2 2 2 < & @ . X X X X X .   X       X * $ X + X X + + . ",
"s s * * s s s * $ * * s $ * * s s s s * x B v v l x B x v x B l v B B B V B v x f f v s g s s s * s s * $ * s * $ * * s s * * $ ",
"b g g g s s s s s s s s * * * A c c g B B V B B V B B v v v B v B v v V v B B l h f F S g g c g g c g c s s s s s s s s s * * * ",
"b $ * $ $ $ * $ $ * * $   + * b * * s x l x h l l f l h l l h l x h l x l l x # 3 l D B < * * * * * * * $ * + * $ $ * * $   $ * ",
"c * * * + $ $ $ $ $ * +   o $ c $ 2 l l f f f f l f h h 6 3 h l x 3 3 x 6 l 3 # 2 f S l x s $ * $ * * * $ $ * $ $ $ * $ +   + $ ",
"c $ * $ + $ $ * $ $ $ +   o $ b $ h h l 3 l h 3 l 3 l h 6 h h l 6 f h l 3 h h # < 3 C v h f * * $ * $ * $ + $ + * $ * + X   + $ ",
"c * $ + $ $ + * + $ * +   + * c s 3 h h h 3 3 3 3 3 l f 3 6 f f 3 h h 3 l h h # & f V l l f $ $ + $ $ * + + * + * + * * +   + s ",
"s + X   X X o + X X X . . + * g 2 3 2 2 3 3 3 < 3 2 3 < 3 2 2 2 3 < 3 < 2 3 < # & h B h < < @ + X X X X   X X X + . X X   X $ * ",
"+ X   X X .     . X     X $ $ * 3 3 < 2 < < 2 3 3 3 2 < < & & & # < < < # < < < 3 l x 3 < < < X .   X X     X X .     + $ $ $ * ",
"s g s * s s s s s * $ * * s s h v v l l l l h l x V v B v x l x x v v B x x v B v v B x l x B c $ * s g s s s s * * * s s s $ $ ",
"g b g c g c g g g s s g g s s v v B v B B l l l V F V C C V V C V V V v x B x v B v v v v v v f $ b c g g s s g s s s s g g * s ",
"g c * s * * $ $ s * * * s $ * h x l f x l h < h C C x v h l f l l h x 3 h l 6 f x f l x 6 l 6 # o c g * s * * * $ s * * * s $ * ",
"s s * * $ $ $ + * $ * * * + s 3 l l 3 f l 2 & l S C l x 6 l h 3 l h l f x f l 3 h x f l h h 2 & + g * * * $ o * + * * $ * s * g ",
"s s * * X $ + $ * $ $ * $ + * x 3 x 3 l 3 < & x C B l h h 6 6 l 6 l f 3 6 l h 3 f h l l 3 l 3 & $ g s * * + + + $ * $ + * * * g ",
"g s + $ X $ $ o $ + + * $ + f f 3 h 3 h f h & 6 V C l l 3 l h h 3 f h 3 3 2 h 2 x 3 3 h x h f & * c * o * o + * o $ $ + * $ $ * ",
"s s + + + o o X o + o + o o & < < < < 3 < & & 3 B x 3 f 3 2 2 2 2 2 3 2 3 2 2 2 3 < 2 < 6 3 2 # & g s + X o o o X + + X + + + * ",
"* * + o X o o X X o o o o X * < 3 3 < < < < < f l l < < 2 2 2 2 & & & & 2 3 3 < & # < 2 < < 2 < & * * X o X o o X X o o X o $ * ",
"s g g s s * * * * + * c c g V B v v l l h l l l B x x B x B v x 6 f h v B V B v x x v v x v v B c g s s s s * g s s s g s g s s ",
"g s g s g g c s * $ $ b g g B V V B v B B v B x B B B B v v v l l x D V B V V V B V B B v v v B b s s * * + s c s * * s s s s s ",
"* * s * s * * $ . + * b $ $ f x h l h l l f h 6 x f h h f l l < 3 x D v 3 l l h 3 l l f l h h l f * $ $ . $ s s $ * o * $ $ * * ",
"* $ * $ * * * + . + + c + s h l x h f x h h h 2 h l l 3 l l l < 6 v F v f l l h x l x h l f h x h $ $ +   $ s s + + + * + + * + ",
"* $ * * s $ $ + . + * b * $ f l 6 3 l h h 3 l 3 x 6 6 l 3 l l & 3 v F l x l l 6 x l 6 l h l l x f $ $ X   + s s * o $ $ * + $ + ",
"* $ * + * $ * + . $ $ c + * < l l f h x h l 6 2 f h l l h l h < 3 l D v 3 x h x h l l h l 6 h l 3 * $ $ . X * s + $ $ + * + + $ ",
"  X o X X o X .   + * s + $ * f 3 3 3 3 < 3 2 < f 2 2 2 f 3 < # 2 l V h 2 3 3 h 3 3 3 3 3 3 3 3 * + X X   + s * + X X X X X X X ",
"X X X . X X X . X + * * X   + * < 2 3 3 < & & & & < < 2 < < < & 3 h l 3 2 2 3 3 l 3 2 < & < 2 2 @ X .     X $ *   . X X X X X X ",
"* s s * s g s * $ * s * * * g V v v B B v B B B v l l x x B x ! ^ B B B x B B V C B v x x B B v g * * * g s s * s s s $ $ s s s ",
"s s s s s s s s s s s * $ * A S C C V C V C V C V x h l S V ( ;.+./ V B B x v x v v v v v v v v s s $ * s s s s s s s s s s s s ",
"* + * * + * $ * * + *   $ * c l x x x x x x l x 6 2 h x Z W &.2.O.6 6 2 l h h h f h f f l f l f + + . * g * $ * + * * $ * + $ $ ",
"* $ o * + * + $ $ $ +   o $ c s x h x 3 l x h x < < 3 x ~  .<.*.| R 2 h f 3 l 3 l 3 l f x h f 2 + $ . * s + * + $ + $ + * $ $ $ ",
"$ + $ * $ * $ * * + +   X * g * h l h l h l 6 x < & 3 x ~ [ >.:.O.` Y E l f 2 h 3 h h h h l 6 * $ $   $ s * * * + * $ * $ $ $ * ",
"$ + + $ $ $ + $ $ $ *   X * g * f 3 l 3 l 3 f 3 < < 3 T Q ` #.,.-.#.X.p h 3 3 l 6 f l f l l 2 * + + . * s $ $ $ + $ $ + * $ * + ",
"X o   o . + X + + o +   + $ * + @ # # # & < & < < & 2 a  .O.%.<.3.#...I 2 2 3 2 < 2 3 < 3 2 o + X X . * * + $ o + + $ + + o + + ",
"    X X         .     . $ $ * X X @ < < < < < # # & < h [ +.%.5.5.@.| i < 3 3 2 & < < < # O . X X X X + * X X o o o X o X + o o ",
"g s s g s s s s s g c g s s * * s g x x x x B B v x x B { | #.3.,...{ x v v x x B x v B V s g s s s s s s s * s s * s s * s s s ",
"s g g g s s s s g s s s s * * * s b b V V B B V B v B x N ) | #.O.U N v x x f v V x x v c g s g s s s s $ $ $ b g s s s g s s s ",
"* $ $ $ $ + $ + s + + $ + + . $ s g * 3 l 3 2 h l h l 2 l M L _ P 7 l 3 h & h x B h x & $ $ $ * $ + $ * X + * c * $ * + * * + $ ",
"* + $ * $ $ + * $ + * + * o . $ s g $ + h 3 3 l 3 h h x 3 6 q K G 4 h 2 3 & f v B 3 < $ * $ o * + * + + . o * c $ $ $ * + $ * + ",
"$ $ $ + + * $ $ * + + + * . . $ s g + + * 2 f l 6 h h 3 h 5 e J q 8 5 h 2 # 3 v V h o $ $ * + + + * $ $   X $ c s $ $ + $ + $ + ",
"+ $ $ + $ $ $ + $ + $ $ + $   $ g g $ + * @ 2 f 2 h f 2 h 5 w H y 4 6 2 h & 2 l b + $ $ + * $ + $ $ + $ . . + c + $ $ + * $ $ * ",
"X o X X . X X X + X X . o . . $ s * . . o X X $ < 3 3 < < 3 > t r 1 < < < # 3 f * + o o X o X o . X X o   . $ g + + o X . + X + ",
"X X X X X X X X X X X X X X . $ s * o o X X X X o @ < < < : > t e < # < # O O * *     X X . X X X X X .     $ * o . X . X X X   ",
"s g g s s s g s s s * * s s s s s s s s g g g g g s g g z l 4 t r v b b c g g g s * * s s g s s s * $ * g g s s s g g s s * $ s ",
"s b c c c g c g c g * $ c b c c g g c g c g g c g g g c g s ; t r c b c c c g c g c c g g g g s g s * * c c c c g c g c g * $ s ",
"s c * s s * * * * + + $ g c * * * * * * * * s $ * * * s $ X = u M s * * s * $ s $ s s * s $ * $ s $ + * c s * s * s * s $ o + s ",
"s g * * + s * $ * . X $ g g s s * * * * * $ * $ $ * $ $ + X % ; n $ $ $ * + $ * $ * * $ * $ * $ * X . * c $ s $ * * $ * X X + * ",
"s g * $ * $ $ $ * X   * g g * s $ $ * + $ $ * + * $ + * + . o * d $ $ * $ $ $ + * * * $ * * * + * + X * g * $ * $ * $ * o   $ s ",
"s s * * + * + $ + . . + s s * $ + * $ $ $ + $ + $ $ $ + + X o * g $ + $ * + + + + * $ o * + $ $ * o   * g $ * + $ $ $ + X   + $ ",
"* $ + +   .   . o . . + * $ + X X X X X X X X X X   . . .   X $ * o X o + X X + X X X X o X   o . X   $ * + +   X     X     o * ",
"* $ X X X X X .     X + * $ o X X X .   . X X .       X . X + s $ o o o X + X X X X       X X X . . X $ $ o o X   X X       o * ",
"g * * * * s * * $ * * * * * * s g s s * s g s s * s * s s g g s s $ + * g g s s g s g * * * s s s s * $ s s s * $ $ c g s s * s ",
"c g g g s g s s s * s s * * * A g c g g s g s g g g s s s s g g s * $ g b g c g g g c g g g s g s s s s g c s * $ $ c g s g g s ",
"* * * $ $ $ $ * $ * * $   + * b * * * * * * * * * $ * * * * s s o X * g c * * $ * s * $ * * $ $ + $ $ $ s s $   + $ c * $ * * $ ",
"$ s * * + * $ * * $ * +   o $ c $ * * * $ + $ + * $ $ * + $ * + X X + s s * s * $ $ $ s * * + * $ $ $ + s $ +   + $ c + $ + * $ ",
"* $ * $ + $ $ * * $ $ +   X $ b $ * $ * + $ $ + * $ * $ $ $ * * .   + s g * * $ s $ * * * * + $ $ * * + s s +   X $ g $ $ + * $ ",
"+ * $ + $ $ + * o $ * +   + * c s + $ * $ + + $ + $ $ + $ $ + * o   + s * * * X $ $ + * + + $ + $ * + $ * $ +   X $ g + + + + $ ",
"X + X   X X X o X X X   X + * g $ + X + + + + X + X X + X + o +     $ * * + o   o o X + X   X X o o X   + o X   X $ s o + X o o ",
"  X   X X       X .     X + * * + + X X X X X + +       X .   . . . $ s $ . X .   X X X     X       X X   X   X + * s X o + +   "
};
