/* XPM */
static char *torch02w601743666765[] = {
/* columns rows colors chars-per-pixel */
"64 64 125 2 ",
"   c #151515",
".  c #1C1C1C",
"X  c #21211F",
"o  c #242424",
"O  c #2A2A26",
"+  c #2C2C2C",
"@  c #3C2F27",
"#  c #302B28",
"$  c #303026",
"%  c #35352C",
"&  c #39392D",
"*  c #333333",
"=  c #3A3634",
"-  c #3E3E32",
";  c #3B3B3B",
":  c #4D3528",
">  c #443A2B",
",  c #553F2C",
"<  c #5F3E2C",
"1  c #483F30",
"2  c #413B39",
"3  c #57402D",
"4  c #5F452D",
"5  c #585628",
"6  c #424236",
"7  c #4D4334",
"8  c #46463A",
"9  c #4E463C",
"0  c #4A4A3D",
"q  c #5A4232",
"w  c #5B463C",
"e  c #51493B",
"r  c #5D5530",
"t  c #54513B",
"y  c #63422E",
"u  c #6D442E",
"i  c #77482F",
"p  c #75502A",
"a  c #6A4730",
"s  c #6C4834",
"d  c #664A39",
"f  c #754A32",
"g  c #7A4B32",
"h  c #686527",
"j  c #65632D",
"k  c #69672B",
"l  c #726F2A",
"z  c #7F7C2E",
"x  c #696731",
"c  c #75733B",
"v  c #434343",
"b  c #4D4D41",
"n  c #4A4A4A",
"m  c #515144",
"M  c #5C5244",
"N  c #555549",
"B  c #5A5A4E",
"V  c #535351",
"C  c #5D5D51",
"Z  c #717042",
"A  c #616155",
"S  c #656559",
"D  c #68685C",
"F  c #817D1E",
"G  c #875E2D",
"H  c #825035",
"J  c #895438",
"K  c #95672E",
"L  c #817D22",
"P  c #94851B",
"I  c #938F1E",
"U  c #989216",
"Y  c #9F9A1D",
"T  c #A49C0F",
"R  c #B5AC0C",
"E  c #BFAC0C",
"W  c #ABA414",
"Q  c #BBB311",
"!  c #848026",
"~  c #89852D",
"^  c #948F2E",
"/  c #989325",
"(  c #9E9925",
")  c #A39F2B",
"_  c #C4AF0F",
"`  c #C4BB07",
"'  c #C8BE06",
"]  c #C0B608",
"[  c #C2B90C",
"{  c #C8BE11",
"}  c #C2BA1A",
"|  c #CFC601",
" . c #CEC308",
".. c #D0C605",
"X. c #D7CD00",
"o. c #D9CE01",
"O. c #D9D003",
"+. c #CDC412",
"@. c #E2D600",
"#. c #E9DD03",
"$. c #E5DA0A",
"%. c #EBE007",
"&. c #F1E60F",
"*. c #F3E90E",
"=. c #F0E511",
"-. c #F8ED15",
";. c #FBF11A",
":. c #F5EB22",
">. c #F9EE20",
",. c #FFF530",
"<. c #E8E245",
"1. c #F8F246",
"2. c #FFF749",
"3. c #F4ED58",
"4. c #FFF752",
"5. c #FCF65B",
"6. c #FAF667",
"7. c #FDF965",
"8. c #F8F67A",
"9. c #FAF87E",
"0. c #FDFA83",
"q. c #FDFC89",
"w. c #FDFC95",
"e. c #FDFB9F",
"r. c #FBFDB5",
/* pixels */
"; ; ; ; ; ; ; ; ; * + + ; ; ; ; ; ; b N B B C B B N N N N m 0 b B C C B C B N N N m m N N B b * ; * ; ; ; ; * * + * * v ; ; ; * ",
"; v v v v ; v ; v ; + + v n v v ; v B B C B B C B C C C B m 8 m S S A S C S C S B C A B B B B ; ; v v v v v v * + + V n ; v ; v ",
"+ * * * * * * * * o . + v v + + * * m b 0 m m b 0 m b N 0 6 8 m C N b 0 m b 0 N 0 N B 0 m 0 m % * + * * * + + o X * n ; * * * * ",
"* * + * O + * o + . . + ; ; ; * + 8 b b m 0 0 0 0 0 0 0 6 - 8 b C 0 0 0 m 8 0 t 0 0 m 8 m 0 b 6 * + + + * + o   . + n * * + + * ",
"+ * + + + + + + * .   + ; ; + * $ b m 8 0 0 0 6 0 0 8 t 6 & - b N 0 0 b 0 0 0 8 m 0 b 0 m 0 b 6 * o + * o + o   . * v * + + + * ",
"+ + + + o * o + o . . o ; ; * + $ 0 0 8 0 8 0 8 0 0 0 8 6 - 6 b B 0 8 8 b 8 6 8 8 0 0 6 b 8 0 0 ; o o o X + X   . + v + + + + + ",
". o o o     .   .   . X * O o . $ - 6 6 6 & 6 & - & 6 - & & 6 0 b 6 - 6 - 6 - 6 - - - - 6 - - 6 $ .   .   . .   . + ; + o .   . ",
". . . . . . .         X * + . . & & & & % - - % % % & & - & 8 m 0 - - 6 - - - & & & & - - - - - %   .       . + o . X . . o . . ",
"; ; * + * * * + + + + * + + + ; N N m b m B N N m m N m N m N m N B N B B B N m 8 8 N N B N N N n * * * + + * + + + + * * + + + ",
"n ; ; ; ; ; ; * ; * * ; * + * V C C C C B B B B B B N N N N N m N N N B N B B 0 0 0 D S B B B B C n ; v ; * ; ; ; ; ; ; ; * + * ",
"v + * + + + + + o + * +   O + V m m b m 0 0 0 0 b 0 m 8 m 0 0 m m 0 0 m b b t & 8 0 S B 0 t 0 0 m ; + * + + o * + o + * +   + + ",
"v * + + o + + + + + * X   . + V 0 b b 0 0 8 0 0 m 8 0 0 8 8 0 0 b 8 0 b 0 0 8 & - 0 A 0 m N 0 m 8 ; * + + o + + + + + + .   o + ",
"v + + + o + o * + + + o   . + V 0 t 0 m 6 0 0 6 0 8 m 8 8 0 0 m 8 8 0 b 8 0 0 % - 8 A N 0 0 0 m 0 8 + + + o + o * + + + X   . + ",
"v + + o o + + + . + + o   o * C m 8 0 b 0 8 6 8 8 6 0 8 8 0 8 0 8 0 8 8 b 0 0 & & 0 C 0 b 0 8 0 8 8 + + X + + o + o + + o   + * ",
"* o .   . . . o . . . .   o * N 8 6 6 - 8 6 - 6 8 - 8 - 6 - - 6 6 - 6 - 6 - - % & 0 B 0 - - & 8 - & . .   . X . o   . .   . + * ",
"o .   . . .     . .     . o + n 6 6 - 6 6 - 6 6 8 8 - - - & & & & - - & & - - - 6 b m 6 - - - - & % . .       . .   . . + o + + ",
"; ; * + ; ; ; * ; + + + + ; ; n m m b m b b 0 b m B N B N m t m m N N N t N N N N N N m b m N N b 0 ; ; * ; * ; * + + * ; * + + ",
"v n v v ; v v ; ; ; ; ; ; ; ; N N B N N B b b m C S B A C B B C B B B N m N m N N N N N N N N b 0 S v ; ; ; ; ; * ; ; * ; v + * ",
"; v * ; + * O O * + + + ; O + b b b 0 m b 0 & 0 B A m N 0 m 0 0 0 0 m 8 0 0 0 0 b 0 b m 0 0 8 & - A ; * * * + + + * + * * ; + * ",
"* * + * O o + o * + * + + o * 8 b b 6 0 b 6 & m A C m m 0 0 0 8 m 0 0 0 m 0 0 8 0 m 0 b 0 b - & - B * + * o o + o * + + + * + v ",
"* ; + * . + o o * o o * o + o b 6 m 6 b 8 - & m C B m 8 0 8 8 b 0 0 0 6 0 0 0 6 0 0 0 m 8 b 8 & - B * + * o + o + + + o * + + ; ",
"; * o + X o + o + o O + + o + 8 6 0 8 0 8 0 & 8 B C 0 m 8 m 0 0 8 0 0 6 8 - 0 8 0 8 0 0 m 0 8 & - B * X + X o + . + + o + + + * ",
"* ; o o o X . . X o . o . o . * - - 6 6 & & & 6 N m 6 8 6 6 - 6 6 6 6 6 8 - - - 8 & 6 & 0 8 - & - N * o . X . X . X o . o X o + ",
"+ * o . . . . X . X . o . . . % 6 6 - - - - - 0 m 0 6 - - - 6 - & & & & - 8 8 - & & - - - - - - - 0 + o X . X . . . X . . o + + ",
"; ; ; ; ; * * + + + * v n ; v n N N m 0 b b b m N m N N m N N m 8 8 0 N N B N N m m N N m m N N n n ; ; ; * * ; ; ; ; ; * ; ; * ",
"; ; ; ; ; ; ; ; * o o n ; ; ; n B B N N N N N m N N m B m N N m 0 m S B B B B C B C B N N N N N N v ; * * o * ; * + * * ; ; ; + ",
"* + * * * * * +   o + n + + o ; 0 m 0 m b 8 0 8 m 0 b 0 0 b 0 - 8 m S N 8 b 0 b 8 0 0 0 0 0 0 b 8 ; o +   + * ; + + o + + + * + ",
"+ + + + + + * o   o o n o * + * 0 0 0 m b 0 0 6 0 b b 8 0 m m - 8 N D N 0 b b 0 m 0 N 0 m 0 0 t 0 * + o   o * ; o o o * o o + o ",
"* + + * * + + o   o + n + + + * 0 6 0 0 0 0 t 6 b 8 8 m 6 m b & 8 N D b m 0 0 0 m 0 0 0 0 b b 0 8 o + .   o ; ; + . + + + o + o ",
"+ o * o + + + o . + + v o * o * 0 0 0 m 0 0 8 - 0 0 0 m 0 b 0 & 8 0 S N 8 m 0 m 0 0 m 0 m 0 0 m 8 * + O   . + ; o + o o + o o + ",
". . . . . . . .   o + * X + X o % 6 6 8 6 6 6 - 8 - 6 - 8 6 & & - 0 B 0 6 8 8 0 8 8 8 8 0 6 8 6 * o . .   o * * o X . . o . .   ",
". . . . . . . . . X * * .       O 6 8 6 - & & & & - - - - - - 5 ! 0 m 6 - - 6 8 0 8 - & & - - - O . .     . + +   . . . . . . . ",
"* * ; * ; ; * * + + ; * + * ; v ; N N N N B N N m m b m N N m $.3.( N B m N N C C N N N m N N m ; * + + ; ; * * * ; * + + * ; * ",
"; * ; ; * ; * ; ; * ; + + + n v v B B A B C C B B m 0 b A C ^ =.8.+.Z B N m N m N N N N N N N b ; * + + ; * * ; * ; ; * ; * ; ; ",
"+ o + + o * o * + o +   + + n * * 6 m m m m m m 0 6 8 m B b W :.q.$.l k Y x 0 0 8 0 0 8 0 0 0 - o o   * ; + + + o * + + + o + o ",
"+ o X + o + X + o + o   o + v + * o m 8 0 m 0 m - & 0 b ) b W 1.3.| U I Q k b 8 m 8 0 0 m 0 0 + o + . + ; + + o o o + o * + + o ",
"+ o + + o * o * * o o   . + v + + + 6 b 0 b 8 m 6 & 8 b +.b W <.9.O.` ` | k 6 0 6 m 0 0 0 0 * * + O . O ; + * + o + + * + + + + ",
"+ o o + + + o + + o +   . + ; + * X * 8 b 0 8 8 - & 8 m @.Q R ;.0.,.-.+.! 8 8 0 6 0 m 6 b b * + . o   * ; + o + o + + o + o + o ",
". X   . . o . o o . o   o + + o o     $ - & & - & & 6 m X.X.%.2.e.5.&.` F - 6 6 - 6 6 6 6 & . o . . . + + o o X o X o o o . o o ",
"    . .         .     . + + + . X   . X & & - & & & - 0 Q X.&.7.r.7.%.T h 8 6 - & - & & % .   . . . . o * . . X X . . X . o X X ",
"; ; * ; ; ; * ; ; ; v ; * * * * * ; * + v N B N N m N N L O.@.4.w.:.X.~ N N m m N N N N n * ; ; * ; * ; ; * + ; ; * * ; * * * * ",
"; ; ; v * * ; * ; ; ; ; ; * + + ; n v v ; B B B B N N m B c Q %.*.| / N b m 8 N B m N m ; v ; ; ; ; * ; + + + n ; * ; * ; ; ; ; ",
"+ o + + + o + o * o o + o o   + ; ; * + * O - 0 b 0 0 6 b b r E ] P t 8 0 & 8 N B b b O + o o * + o + +   o * v + * + . + + o + ",
"* o + + o + o + o o + X + X   + * ; o o + X % b 6 0 0 b 6 e i K G 4 0 6 6 - 8 N B 6 % o * o o + o + o o   . + v o + + * o + + o ",
"o + + o o + + + + o o o + .   + * ; o o * o o v 0 0 0 6 b w u J g y 7 b - % 8 N B ; . + + + o O o * o +   X + v * + + o + o * o ",
"o + o o + + o o + o + + o o . + ; ; + o * o o o $ 0 0 6 b 2 y H g q 0 - 8 - - b n o + O o + O o o + o +   . o v o + o X + o + + ",
"X . . . . . . X o . . . X     + ; * .   X X . X . O 6 6 = 2 , f a 1 - - - % 6 6 % o . . . o . .   o . .     + ; o o o . . X . o ",
". . . . . . . . . . . . . . . + * + X . . . . . . . X % 6 & < f a > & - % $ o + +   . . . . . . . . .       + + X .   . . . .   ",
"* ; v ; ; * ; ; ; * * + * ; ; * ; ; ; ; ; v ; v ; ; * ; v 2 < f d M V n v v ; ; * * * ; ; ; ; * * * + * ; ; ; * ; ; ; * ; + + * ",
"; n v ; v ; v v v ; + + v n v v ; v ; ; v ; ; v ; v ; v ; * : f s v n n v v v v ; v v ; ; ; ; ; v * * + n v v v ; v v v ; * + * ",
"; v * * * * * + * o . + v v * + * + * + + * * + + * * * o X @ u d ; * + * * + * + * ; + * + * + ; o o + n * * * * * * * o o + * ",
"; ; * * o * * + + . . + v ; * * + + + + * + + + + + + + o . + < w + o + * o + * o * * o * + + o + . . + v + * + + * + + . . o * ",
"* ; + + + * + + * .   + ; ; * * + + + + + o * o + + + + o   o + 2 + + * + + o o * * + + * + * o * o . + v + + + + + o * o   o * ",
"* ; + + o + o o o .   o * ; * + o + + o + o + o o + o o o . o + ; + o o + o o o o + + o + o + + + o   + ; + + o + o + o .   o * ",
"* + o o   .   . .   . o + + o . . . . o . . . . .   . .     . + * X . X . . o . . . .   o   . o   .   + + o o   . .   . .   . + ",
"+ + . . . . .         o * + . . . .       . .         . . . o * o . X . o . . . o .         . . . . . + + o . . . . .       o * ",
"; * * + * * * * + + + * + + + ; ; ; * + * ; ; * + ; * * ; ; ; ; * + o + ; ; ; ; ; * ; * * + * ; * * + + * ; * * o o ; ; * * + ; ",
"v ; v ; ; ; * * ; * ; * * + * n v v ; v ; v ; ; v * ; ; ; ; ; ; * * + ; n v v ; v ; v ; v ; * ; ; * ; * ; v ; + + + n ; v ; ; ; ",
"* + * + + + + + + + + +   o + n * + + * + + + + + + + * + + * ; o . + ; v * * + * * * + + * o + o + + + * ; + . o + v * + * + + ",
"o * + + o + + + + + * o   o o n + * + + + o + o + + + * . + * o . . o ; ; + * + + + o * * + o * + + + o * + o   o + ; o + o + + ",
"* + + + + o + * + + + o   . + n + * + * o + + o * + + + + o * * .   X ; ; + * + * + + + + + o + + + + o * * o   . + v + o o + + ",
"o * + o o + o + . + + o   o * v * o o + + o X o o o + X + o o + .   o * * + + . + + o * o o + o + + o + + + o   . + * o o o o o ",
". o     . . . o . . . .   o * ; o o o . o o X X o . . X . o . .     o * * X .   . . . o . . . . o . . . . o .   . + * o . o o o ",
"  .   . .       . .     . o + + o o . . . . . o o       . . . . . . + * + . . . . . . .       .       .   . . . o + * . o . o   "
};
