/* XPM */
static char *torch06w601743666765[] = {
/* columns rows colors chars-per-pixel */
"64 64 118 2 ",
"   c #151515",
".  c #181817",
"X  c #1C1C1C",
"o  c #23231E",
"O  c #242424",
"+  c #2B2B25",
"@  c #2C2C2C",
"#  c #3C2F27",
"$  c #302B28",
"%  c #373726",
"&  c #34322B",
"*  c #3C3C2C",
"=  c #333333",
"-  c #3A3634",
";  c #3B3B33",
":  c #3B3B3B",
">  c #433927",
",  c #4D3528",
"<  c #483F2D",
"1  c #563F2B",
"2  c #5F3E2C",
"3  c #413B39",
"4  c #45452D",
"5  c #5F452B",
"6  c #5B592A",
"7  c #444434",
"8  c #4D4533",
"9  c #484837",
"0  c #44443B",
"q  c #4F453F",
"w  c #4C4C3C",
"e  c #5B4430",
"r  c #504F34",
"t  c #5B463C",
"y  c #514938",
"u  c #515134",
"i  c #53523A",
"p  c #63422D",
"a  c #6B452E",
"s  c #77482F",
"d  c #75502A",
"f  c #6C4834",
"g  c #664A39",
"h  c #764A32",
"j  c #7C4C32",
"k  c #766B24",
"l  c #7E7A27",
"z  c #73712C",
"x  c #676532",
"c  c #62613C",
"v  c #747234",
"b  c #7A7738",
"n  c #7B7938",
"m  c #434342",
"M  c #4C4C42",
"N  c #4A4A4A",
"B  c #594F40",
"V  c #545444",
"C  c #595945",
"Z  c #565648",
"A  c #5B5B4B",
"S  c #515151",
"D  c #595952",
"F  c #605F40",
"G  c #626252",
"H  c #686858",
"J  c #817B1D",
"K  c #875E2C",
"L  c #825035",
"P  c #895438",
"I  c #95672E",
"U  c #8A8414",
"Y  c #988916",
"T  c #958F1F",
"R  c #A29B15",
"E  c #AD9C12",
"W  c #B1A90E",
"Q  c #ABA411",
"!  c #A9A21C",
"~  c #848026",
"^  c #898527",
"/  c #84802B",
"(  c #918C24",
")  c #9F9A26",
"_  c #B2AD3C",
"`  c #C2AE0E",
"'  c #C3B907",
"]  c #C0B70A",
"[  c #C8BD0B",
"{  c #D4C902",
"}  c #D9CE02",
"|  c #DED301",
" . c #DDD20A",
".. c #E3D704",
"X. c #E3D805",
"o. c #EADE04",
"O. c #E4DA0E",
"+. c #EADF0C",
"@. c #E0D715",
"#. c #E9DE12",
"$. c #E4DA1A",
"%. c #ECE002",
"&. c #F2E80D",
"*. c #FAEF14",
"=. c #F8ED1E",
"-. c #EDE320",
";. c #F7EF2D",
":. c #FCF32C",
">. c #F8F038",
",. c #DBD54B",
"<. c #EDE952",
"1. c #FBF45A",
"2. c #F5F16A",
"3. c #FEF96F",
"4. c #FAF779",
"5. c #FDFA7D",
"6. c #FBFB96",
"7. c #FCFC9A",
/* pixels */
": : : : : = : : : = @ @ : : : : : = : : : : V A A V V V V w w w A A A A A A V C w = = = : : : = : : : : : : : @ @ = = m : : : = ",
": m m m m m m m m : @ @ m N m : : m m : m Z A A A A A G A V 7 V G G G G G G A G A Z m m : : : : : : m m m m m = @ @ S N : m m m ",
"@ = = = = @ @ @ @ @ X @ : N @ @ = @ = = 0 V V w w w w V 9 * w w G V V w V w w V w V M @ = @ = @ = @ = @ = = @ O X = S : = = = @ ",
"= = @ = @ = = + @ X X @ m : = : @ @ @ 7 w w w 7 w w w w 7 * 9 w A w 9 9 w 7 w w w w w ; = @ @ @ @ @ = @ @ @ O   X @ N = = @ @ = ",
"@ = @ @ @ @ @ + @ X X @ : : = = @ @ 0 9 w w w 7 w 7 7 w 7 * 7 w V w w w w w 7 7 w w w w 0 @ @ o = O O = O = O   X = m = O @ @ = ",
"@ @ @ @ O = O @ O X   @ = : @ @ o = 0 7 w 7 w 7 0 w w 9 7 * * w A w 7 7 w 7 7 w 7 w w 7 w @ @ @ = O @ O O O X   X @ m = = @ O @ ",
"X O O O   .     X X X X = @ O X X * * 7 * % * * * % * * % % 7 w w 7 * 7 7 * * 7 * 7 * * 7 % X o . X   X   X X   X O : O O X   X ",
"X X X X X X X X     X X = @ X X + * % % % * * % % % % * * * 7 V 9 * 7 * * 7 * % * % % * * * o X .   X       X = @ X O X X O O X ",
": = = @ = = = @ @ @ @ = @ @ @ : V V V w V V V V M i V V V V C M V A A V A C V V 9 7 C V A V V : @ : = = @ @ = @ @ @ @ = = @ @ @ ",
"N : m : = : : : : = = : = @ @ D G A A A A A A Z A A V V V V V V V V V A V A A w w 7 H G A A A m m m : : : : : : : : : : : = @ = ",
"m @ = @ @ @ @ @ @ @ @ @   O @ G w M w V w w w w w w w 9 w w w w M 9 w V w w M % 7 w G A w w w 9 = @ @ = O @ O = @ O = = @ . @ @ ",
"m = @ @ O @ @ @ @ O = O   O @ G w i w w 9 7 w 7 w 7 w w 9 7 9 w w 7 w w 9 w 7 % * w G w w M w V @ @ = @ @ @ @ @ @ O @ @ X . X @ ",
"m @ @ @ O @ O @ @ + @ O   X = H 7 V w M 7 w 9 7 i 7 M 9 9 w 9 w 9 9 9 w 7 w w % * 7 A V w w w w = @ @ = @ O @ O = @ @ @ O . O @ ",
"m @ @ O + @ @ @ X @ @ O   O M D V 7 7 w w 7 7 9 7 7 w 0 7 9 7 w 7 w 9 w w 9 9 % % w A w w 9 9 w : @ @ @ O O @ O @ O @ @ X . O = ",
": X X   X X X O X X X X X O M A 9 7 * 7 7 7 7 * 7 * 7 * 7 7 ; 7 * 7 7 * 7 7 * % % w V w * * * 7 % o X X   X X X O   O . . X @ = ",
"O X   X X X     X X     X @ 9 i 7 7 * * * * * 7 7 7 7 * * % % % % * * % % * * * 7 w V 7 * * * * * X X X     X X X   . X @ O @ @ ",
": : = @ : : : = = = @ @ @ m Z V V i w i M w 9 w V A V C V M w i V V V C M V V Z V V C M w V C V w ; : : = : = : @ @ @ = = = @ @ ",
"m N m m : m m : : : : : : M Z C Z Z V Z A w w V A G A G G A A A C A A V V V V V C V V C V V V w w A m : : : : : : : : : : m @ = ",
": m @ = @ @ @ @ = @ @ @ = 7 w w w i 0 V w 9 * 9 A G M V 9 w w w w w M 9 9 w 9 9 w 9 w M 9 w 7 * * D : = : = @ @ @ = = @ = : @ = ",
"= : @ : @ O @ O = @ = @ = : w 0 w w 7 9 w 7 * M G D i i 9 w w 7 w w w 9 w 9 w 7 w M 9 w w w 7 * * Z @ = = O O @ O @ @ @ @ = @ m ",
"= : @ = X @ X @ @ @ O = + 7 9 w 7 w 7 w 7 * * i A A w w w 9 9 w 9 w 9 7 9 w 9 7 w 9 w w 7 w 7 % * Z : @ @ O @ O @ @ O O = @ @ : ",
": : O @ X @ @ X @ + O @ + 7 w 9 7 w 7 9 9 9 * 0 C G w M 7 w 9 9 7 9 9 7 7 7 9 7 w 7 9 w V 9 0 % 7 A = o @ o O @ O @ @ O @ @ @ = ",
"= : @ X O X X X O o o O X : * * * * 7 7 * % * 7 C M 7 7 7 7 7 7 ; 7 7 7 7 * 7 * 7 * 7 % 9 9 7 % * C = O X O X X . O O O O O O = ",
"@ @ O X X X O X X X X X O * * * 7 7 * * * * * 7 w w * 7 * * * ; % * % % * 7 7 7 % % * * * * * * ; w @ O X X O X X X X X X X @ @ ",
"m : : : = = = @ @ O = m m A A Z Z V i w w i M M C V V Z M C C V 9 9 w V C A C V V w C V V V V Z M Z : = : = = : = : : : = : : = ",
": : : : m : : : = @ @ N : Z A A A Z V Z V V V M C V V C V V V w w M G A Z A Z A A A A V V V V C V N : = @ O : : = = = = : : : = ",
"= @ = @ : @ = @   O @ N @ 0 9 V w w 9 M w 9 9 0 M 9 w 9 9 w w * 9 w H V 7 w w w 7 w w 9 w w 9 w w 9 O @ . @ : = @ @ X @ O @ @ @ ",
"@ @ @ @ @ @ = O   O O m O w 9 w w w 9 i w w 9 7 w w i 0 i w w * 9 V H V w w w w w w M w w 9 w w w 7 @ O . O = : O O O = O O = O ",
"= @ = @ = @ @ O X O @ N @ = 9 M 9 7 w w 0 9 i 7 w 9 0 i 7 w w * 7 C H w w w w 9 w w w w w w w V 0 * O o   O = : @ O @ O @ O @ O ",
"@ @ @ O @ @ @ O   @ @ m + : 7 w w 9 9 i 9 w 9 * 9 9 w w w M w * 7 w G V 9 M w V w w w 9 w 9 w w 9 : @ O   X @ : O @ O O = O O O ",
"X X X X X X X X   O @ : X = 7 7 7 7 7 7 ; 7 * * 7 7 7 * 7 7 * % * w A w * 9 7 9 7 9 9 7 9 7 7 7 7 @ X X   O = @ O X O X O X X . ",
"X X X X X X X X X O @ = X X % * ; 7 7 7 * % * % * * * * * * * * 7 w w 7 7 * 7 7 w 7 * * % * * * ; X X     O @ =   . X X X X X X ",
"= = = = : : = = @ @ : = @ = V A V V V V Z C Z V C M w y Z F ! J C C C Z w V Z A A C V V i Z Z V M = @ = : : = = = : = @ @ = : = ",
": = : : = : = : = = : @ @ @ D G A G Z G A A A G Z i w ^ G n $.,.n Z A A C V V V V V V V V V V V 0 = = @ : = = : = : = = : : : = ",
"@ O @ = O = @ = = O @ . @ @ N M V V M V w i M V 9 7 w Q ) J @.<.l 7 9 6 w w w 9 9 w w 9 w w w w + O   = : @ @ @ O = @ @ @ O @ @ ",
"@ O X @ O @ X O O @ o   o @ m 0 i 9 M 9 i M 9 M * * i Q [ ] #.2._ x * T u 7 w 7 w 7 w 7 M w 9 7 O @   @ : @ @ O O O @ O @ @ @ O ",
"= X @ @ O = @ = = O O   X @ m : 9 w w w 9 w 9 i * * 9 z  .+.:.5.$.! l R i 9 * w 7 w 9 w w w 7 ; @ O . @ = = @ @ O @ @ = @ @ @ @ ",
"@ O O @ @ @ O @ @ O =   X @ : @ w 7 w 7 w 9 9 7 * * 7 c ..*.3.6.;. .} Q i 9 7 w 7 9 w 9 w w 9 @ o O . = : @ @ @ O @ @ O @ @ @ O ",
"O X . X X O X X O X X   O @ = O @ % * % * * * * % * * c { o.1.7.5.:.%.Q 4 * 7 * * 7 7 * 7 7 O O X X . @ @ O O O O O O O O O O O ",
"    X X .     X X     X O @ @ X o & * * * * * % % % 7 u W X.:.6.6.>.X.U 4 7 7 * % * * * % + . X X X X O @ X O X X X X X X O X X ",
": = = : : : = = = : m : = = = @ = m V M w V A V V M V Z ~ { ;.4.4.=.} v C V i i Z V V V Z : : : = : = = : = = : : @ = : = = = = ",
": : m : = = : : : : : : = : @ = : N V Z A Z Z A Z V V V C ( } &.| W / V M w 0 V A V V V m : : : = : : : @ @ @ N : : : = : : : : ",
"= O @ @ @ O @ O = O O @ O O   O = : = 7 w 7 7 9 w w w 7 w u Y ` E k i 7 w * 9 V Z 9 w * @ @ @ @ @ O @ @   O @ m @ @ @ O @ @ O @ ",
"= O O = O @ O @ @ O @ O @ O X @ = : @ O 9 7 7 w 7 9 9 w 7 w d I K 5 9 7 7 % 7 V A 7 ; O = O O = O @ O O   X = m @ @ @ @ O @ @ O ",
"O @ @ X O @ @ @ @ O O O = X   @ = : O O = ; 7 i 7 9 w 7 9 8 a P j 5 7 w < % 9 V A 7 o @ O @ O O O @ @ O   X @ m = @ @ O @ O @ O ",
"O @ @ O @ @ O O @ O O @ O O . @ : : @ O = O = 9 7 9 9 7 q 8 p L h e w * 0 % ; i M O @ @ O = O O @ @ O @   X O m O @ @ X @ O @ = ",
"X X O X X X X X O X X . X X . @ : = X . O X X + * 7 7 < * 7 1 s f 4 * * * % 7 3 = o X X X X X O X X X X   . @ : X O O X X X X O ",
"X X X X X X X X X X X X X X . @ = @ o X X X X X o + % * * * 1 s a > * * % o o @ =   . X X X X X X X X X     @ @ O X X X X X X   ",
"= : : : : : : : = : = @ : : : = : : : : : m : m : : : : m q 5 h f B N N m m : : = = = : : : : = = = @ = : : : : = : : = : = @ = ",
": S m m m : m m m : @ @ m N : m : m : : m : m m : m m m m = , h f m N N m m m m m m m : m : : : : : = @ N m m m : m m m : = @ = ",
": m = = : @ @ = @ O X @ m m = @ = @ = = @ = = @ @ @ @ : O X # a g : = @ = @ @ = O = : @ = O = @ : O X @ N = = = = @ = = O O O = ",
": : @ = O = = O @ X X @ : : : = @ @ @ @ = @ @ O @ @ @ @ O X $ 2 t @ O @ = O @ = @ = = O = @ @ O @ O X @ m @ = O = = @ @ X   @ = ",
"= : @ @ @ @ @ @ @ X   @ : : = = @ @ = O @ @ @ O @ @ @ @ X X O = 3 @ @ = @ @ O O @ = @ @ = @ = O = O X @ m @ @ @ @ @ O = O   @ = ",
"= : @ @ O = O @ O X X O : : @ @ O @ @ O @ O @ O O @ O O X X X @ : @ O O @ O O O O @ @ O @ O @ @ @ X   @ : @ = O @ @ O @ X   O @ ",
"= @ O O   X     X . X O = @ O X X X X X X X X X X   X X X X X @ = X X O O X X X X X X   O   X O X X   @ @ @ O   X     X     X = ",
"@ @ X X X . X X       O @ @ X X X X       X X         X X X O = + o X X X X O X O X         X X X X X @ @ X X X X X X       X = ",
": = @ @ = = = @ @ @ @ = @ @ @ : : : = @ = : : = @ : = = : : : : = @ O = : : : = : = m = @ @ = : = = @ @ = : = = O @ : : : = = : ",
"m : m : = : : : : : : : = @ @ S m m : m : : : : m = : : : : : : = @ @ : N m : m m : m : : m = : = : : = : : : = O @ m m : : : = ",
"= @ = @ @ @ @ @ O @ @ @   O @ N = = @ = @ = @ @ @ @ = = @ @ = : O X @ : m @ = @ = = @ = @ = O @ @ @ @ @ = : @   @ @ m @ @ @ = @ ",
"@ = = @ O @ O @ @ @ @ O   X @ N @ @ @ @ @ O @ O @ @ @ @ O O = O X X @ = : = = @ @ @ O = = @ O = O @ @ O = @ O   X @ m O @ O @ @ ",
"@ @ @ @ @ @ O = @ O @ O   X @ m @ @ @ = O @ @ O @ @ @ O @ O @ = X X X = : @ = @ = O @ @ @ @ @ O @ @ @ O = = O   X O : @ O O = @ ",
"O = @ O O @ O = O @ = O   O = N : O @ @ @ O O O O @ @ O @ @ @ @ X   O : = @ @ X @ @ O = O O O @ @ @ O @ = @ O   X @ : O O O O O ",
"X O     X X X O X X X   X O = : @ X X O O X O X O X X X X X X X     + @ = X O   X O X O X X X X X O X X O X     X @ : O O X O X ",
"X X   X X         X     X O @ @ O O X X X X X O O     X X X X X X X @ = @ X X X X X X X       X       X   X X X O = = X X O O   "
};
