/* XPM */
static char *torch01w101743666765[] = {
/* columns rows colors chars-per-pixel */
"64 64 137 2 ",
"   c #252525",
".  c #282726",
"X  c #2B2B2B",
"o  c #332E2D",
"O  c #382F2C",
"+  c #333333",
"@  c #3A3433",
"#  c #3C3C3C",
"$  c #423633",
"%  c #463936",
"&  c #4C3C33",
"*  c #433D3B",
"=  c #4A3D3A",
"-  c #553D30",
";  c #5B3F30",
":  c #45403F",
">  c #4E413E",
",  c #5C4032",
"<  c #54433C",
"1  c #5A463E",
"2  c #564A3C",
"3  c #64412F",
"4  c #6F432D",
"5  c #77482F",
"6  c #77512B",
"7  c #644531",
"8  c #6C4632",
"9  c #634739",
"0  c #774830",
"q  c #7B4C33",
"w  c #734F3B",
"e  c #685B38",
"r  c #77503C",
"t  c #7F6F2E",
"y  c #444444",
"u  c #4E4441",
"i  c #4D4847",
"p  c #4B4B4B",
"a  c #524542",
"s  c #554946",
"d  c #5D4C45",
"f  c #544D4B",
"g  c #5A4D4B",
"h  c #5F5345",
"j  c #56514F",
"k  c #5E514E",
"l  c #535353",
"z  c #5B5554",
"x  c #5A5857",
"c  c #5B5B5B",
"v  c #614E48",
"b  c #625546",
"n  c #62554B",
"m  c #65594B",
"M  c #6A5A4E",
"N  c #745847",
"B  c #625552",
"V  c #665956",
"C  c #645C5A",
"Z  c #6A5D5A",
"A  c #705E57",
"S  c #776B44",
"D  c #64605F",
"F  c #6D615E",
"G  c #766953",
"H  c #70635D",
"J  c #636363",
"K  c #6C6462",
"L  c #6B6B6B",
"P  c #726562",
"I  c #766966",
"U  c #776B68",
"Y  c #796C69",
"T  c #7E716E",
"R  c #737373",
"E  c #885E2D",
"W  c #825035",
"Q  c #895438",
"!  c #95672E",
"~  c #897D26",
"^  c #897D34",
"/  c #82763C",
"(  c #867A46",
")  c #827572",
"_  c #857875",
"`  c #897C79",
"'  c #91841A",
"]  c #9C8A1B",
"[  c #AF9C14",
"{  c #A79C1A",
"}  c #A99E1F",
"|  c #B1A616",
" . c #B6AB14",
".. c #B1A619",
"X. c #9F942A",
"o. c #8C8135",
"O. c #918533",
"+. c #978A34",
"@. c #93873A",
"#. c #94883C",
"$. c #9E9230",
"%. c #B2A626",
"&. c #ADA234",
"*. c #C2AE0E",
"=. c #C4BA0C",
"-. c #CBBF0F",
";. c #D4C903",
":. c #D9CE02",
">. c #DED301",
",. c #DDD20A",
"<. c #E3D704",
"1. c #E3D806",
"2. c #EADE04",
"3. c #E4DA0E",
"4. c #EADF0C",
"5. c #E0D715",
"6. c #E9DE12",
"7. c #E5DB1A",
"8. c #ECE002",
"9. c #F2E80D",
"0. c #FAEF14",
"q. c #F8ED1E",
"w. c #EDE320",
"e. c #F7EF2D",
"r. c #FCF32C",
"t. c #F8F038",
"y. c #8E824C",
"u. c #B9AF42",
"i. c #DED74E",
"p. c #EDE952",
"a. c #FBF45A",
"s. c #F5F16A",
"d. c #FEF96F",
"f. c #FAF779",
"g. c #FDFA7D",
"h. c #FBFB96",
"j. c #FCFC9A",
/* pixels */
"l c c l l l c l l l p g Z P F Z F F F F I I I I P F F F F B B B U U I I I P F P F V Z F F P P Z Z F P F K l l p y p l J l l l l ",
"c J J J J c J c J x f z U _ U U I U I P I I I I P I I Y I B g B ) ) ) T T T I T P Y Y P I P P P P I I Y Y K J p y y R L J J J c ",
"p p p p l p p p p # > k U Y V V B B B B B B Z B B B B F g > k B Y Z V B Z B k Z g Z F B V g Z g Z k V V V V y + o y R x y l p p ",
"p p p p # p p # p + = g I P Z V B B B k B k B g k B k k a > g B U k k g B g k B g B V s V k B g V g k V B k a . X p L p p y y p ",
"y p y y y y y # p = % g P I V V k k B g k g B g k g g B a % u B P k B B k k g s V B B g Z B B a V s g V s B g . X y L p y y y p ",
"y y p p + p # # u = = g Z H B B a k k k k a k a g k g g a = > B P B a s k s a g a B k a B a k g B s g s a g > O + y J p y y # y ",
". + @ @   . . X > % = a V g a = = a > > > = > = > $ = = = % u B B a > a > > > a > > = % > = = a = = % > % = = $ X # l # + X   X ",
"X X X X X . X + $ $ % s V g a = = = % % % = = % $ $ % = = = s V g > > > a > > = % % % = > > > = = % = $ $ % > B y X + X + # + X ",
"x l p y l j j z B B B V B B B Z P F V B Z P F Z B V F Z Z Z F V Z P P P I P Z B k a P F P F F F V Z V V B B V B z y y f l p y y ",
"L c c l l l l Z K Z H Z V g V ` U T I U P P P F U P F Z Z F F F F F Z P F P P B k g ` ) I I I P Y Y P Y F F F F F z l l l p y p ",
"J y p y # y f g g B V g % s B _ B B B Z k B k B B g B g B B k B B k B B B B B % a B T P k V B B V B k V g k g B k y i p #   # p ",
"J p y y # y i k g g V s % = g ) g B B B g s k g B s B k g s g B V a k V k B a % u g T B B Z k B g k V B k g k g k i y y +   + y ",
"J y p y # # g V B g g s % > g ) g B B B a B g a B s V g g k g B k g g B s k g % = g U F k B B B g B g V g g g g V f y # +   + y ",
"J y # + # # g B a g V s % a V Y Z g g B k s a g s s B g s g g g a k g g B g g $ $ g I B B g g k g k g k a g k s B s y y +   # p ",
"l + .   X + > s % = = = % s V I g a > a s a a > s > a > s > > a a > > > a > > $ % k P k > = % a = u a = % > > > a = + X     # l ",
"# X   X X o % % = = % % % g g V a a > > > > a a s a > > = % % $ % > > % % > = = a B V a = > = > = % = = $ % = = = $ X + y # y y ",
"l c l p l x F V Z V B B B Z F F Z V B V B B k k V P F F F V V V V Z Z P V Z Z P Z F P V B Z Z P k k P P V P V Z B k p f l l y y ",
"J L c J c J U P P F Z P P F F P F P F F P B B V I _ I ) I I I I I U P Z Z Z Z F P Z Z Z F Z F B g _ U P P P P P Z P C l c c y p ",
"x J p l y j k g Z B B B Z k B k B B g V B g = k I Y V F k B g B B k V s g B g g V g B V g B g % = ) P B Z V B k k V j y p l y p ",
"l l y p # u k s V k B B B s B g B B a k B a % V ) Y V V g B k s B B B g B g k g g V g B k k > % > P V B V g s B s B f y p p p c ",
"l x y p + i s g V g s B g s g B g B a B s = % V Y P B g B g g B g k g a k k g s g k k V g B s % > P P g B s g s g V y # p y y c ",
"l l + y X : k u k s g B g s k g a k g g g k % g P I B B s B k g s g k a s a k > B s g g V g s $ > U V a k a s k a g y + p # # p ",
"l l # + + @ > > a a a a a > > = = > > a = % = a P Z a s a a > > a > a a a > > > s % u = s g > $ > P Z a > a > > = a @ + + + # p ",
"p y + o X + > > > > > > u > = = a a > = = = = g B k > > > > a > = % % = > s s > % % = > > > > = > B B a > > > > > > + + + + # y ",
"c c c l l p V B k g B T T P I F F Z V B B B B V F Z Z F V F F V g g k Z P I P Z V V F Z Z Z Z P V P P F F V B P Z Z l c p l x l ",
"l l c l c l K P B g k ) I P P I I F F F F F F Z F F F F Z F F B k V ) U P P P U P I P F F Z Z P Z F F V B g F I Z B p l x l x p ",
"p y p p l p B k % s k ) g B k V k B k V k g g g V g B k g B B = s V _ Z s B k B a B B g k k k B g z g g = g Z F g f @ y y # y y ",
"y # p y p y j s % a g T s V k B B k k B k k k a k k B s B B B = s P _ Z g B B k V B V g B g k V B k g s % g F Z s * # p # + p # ",
"p y p y p y y s % g B ) B g k B g s k k g g B a B g g B s B B % s Z ` B V B B g V B g V k B B B g g g > % g Z P z + y # y # # + ",
"y # p # y y y y % g B U s V a B B g k V g B g > g k k B k B k = a B ) Z s V k V k k V g V g g V g V g g % > B Z i y # + y # # # ",
". X + X X + X @ % s k F a g a s a a s s > a > > s a a > s a = $ > B U g a s s g s g g a g a s s > g > = $ s V C * o + X + + X   ",
"X X X X X X X X = a V V > % % = > a s s = % % % = = = > = > = = s B V s > > a s k a > = % = > = > > = % $ > B B     X X X X X X ",
"p l p l l l l p f B F B B V F P Z H H Z Z P P Z Z V n V Z G %.@.F P P P V F F I Y P Z Z V Z F F F V z B P F Z z p l p y y p l l ",
"l l l l l l l l z Z Z B k B _ ) Y Y P Y I U U U P V n +.) y.7.i.( P P P A Z F V F Z Z F Z F F Z F Z B B F Z Z x l l l j l l l l ",
"y + y y # y # p y u B % g B ) V V Z B Z V V V V g a b ..&.^ 5.p.^ d g e B k g k g k g g B k B B s g % B P B f y + p y # y # y y ",
"y y + y # y + # # y a % a B Y k V g V g V V g V = % b | -.=.6.s.u.S > $.n s B s B s k s V k g v s g % B F f y # # # y # y y y + ",
"y + y y # p # p p # : % a z I B B B g B k B g B a % g / :.4.r.g.7.} ^ { M g < g s B g B g B s V g g % k F f y y + y # y y y # y ",
"y + # # # y # y y # i O = B P k V s B s B g g g = % s G <.0.d.j.r.3.:.| m s g z s g B g B B g B a s % B Z y # y # y y # y y y # ",
"X +   X X # X + + X +   a k V s s % % % = = % = % % a G ;.2.a.j.g.r.8.| 1 = a = = a a > s a a s = > % B p # + + + + # + + + # + ",
"    X X       . o     X u g k : a = % = % = = % % % a b  .1.r.h.h.t.1.' < s s = % = = % $ $ % % = = = : i X + o + + + X + + o X ",
"c l l c l l l l l c L c l l V B V P V V V Z P F Z V Z P O.;.r.f.f.w.;.( Z P V V P Z Z Z P V P P Z F c l l p y l l p l l p l l l ",
"c c c c p l l l c l l l l p f V P ) U I I P P I P Z F Z Z $.;.9.1.=.#.Z V V g Z I V Z Z P I P F Z c l l y y y L c l l l l l l l ",
"y # y y y # y + p + + y # #   i Z P V g V a = g B k z a B m ] *.[ t z s g = g Z I g V s z g k B f # y y   + y L y y y + y y + y ",
"p + # p + y + y y # y + y +   # z P g s V a s V s g v V s v 6 ! E 7 v a s % g Z P s a g V s a p # y + #   + y L # y y y # y y + ",
"# y y + # y y # y + + + y X   # j J s a B g s B g g B a v a 4 Q q 7 a v u % g Z I B a k g z # # + y # #   X y L p y y + y + y # ",
"# y # + y # # # y # y y # # . y l c # y V s s g a g g a B d 8 W q 9 g a g % = B P s g g * i # + # y # y   X # c # y y + y # y y ",
"X X + X X X X X + + X X +   . y l p . . @ $ = > = s s = = a ; 0 8 - a = = $ s V V s % + o + o o . + X X     y c X + + X X + X + ",
"X X X X X X X X X X X X X X . y l y o + X X + @ = = % = = = ; 0 8 & % = % $ > z f   . X X X X X X X X .     # p + X X X X X X   ",
"l c c l l l c l l l y y l c l l l l l l c c c c c l c c V z 9 0 N A L J L J c l l p p l l c l l l p y p l c l l l c c l l p y p ",
"c L L c L c J c J l y y J L c J c c J c J J c J c J c J c p - 0 q V L L J J J J c J J c c l c l c l p y L L J J c J c J c p y p ",
"l J p p l y p y p # X y c J p p p y p p y p l y y y p l # + = 8 N f p y p p y l # l l y p y p y l # + y L p p l p p p l # + # p ",
"l c y l # p p # y X X y c c p l y y y y y y y # y y y y + o * 9 M y y # p # # p # p p # p y p # p + X y J y p # y p y y X X # p ",
"l c y y y y y y y X   y c c p p y y p # y y y + y y # p + . X y z y y y y # # + p y y y p y p + p + . y c p y y y y # p +   # l ",
"l l y p # y + y # X   # l c y y + y y # y + y # # # # # + X + y l : # # y # # # # y y + p + y # y +   y c y p + y # # # X   + y ",
"y y + +       X X   X + p # + X X + X + X X +   X   . . X   + y p + X + + X + + + X X   + X X +   X . y y # +   X     + X   + y ",
"y y X X X X X X     X + p y X + X X                 . X X . # p # X + X X + X X X X       X X X . . X y y X + X X X         + p ",
"c p p y l p l y y y y l y y y l c l p p p c l l y l p l c l c l p y + p c x l l c l c p p y p l l p p y p c l p # # c c l l y l ",
"L c c l l l l l l l l l p y p R J c c J l c c l J l l c l l c c l p y c R c c c c c L c c l l l l l l p c c l p # y L c c l c l ",
"p y p y # y y y y y p y   # y R p p y p y p y y y y y p y y p l + X y l J y p y y p p y p y # y # y y # p l y   # y J y y y y y ",
"# p y y # y # y y # y +   X # L y p y y y + y # p # y p + # p # X X # l l p p p y y # p p y # p # y y # p y +   + y c # # # p # ",
"p y p y # # # p y # y +   X y L y p y p + y # + y # y # # # p p X   + l c y p # p # p y y y # # # y y # p p #   X # c y # + p # ",
"# y # + # y # p + y p +   + p L p # # y y # + # # # y + y # # y X   + l p p y + y # # p # # # # y y + # y y #   X y l + + # + y ",
"X + X   X X X + X X X X   # p c # + + + # + + + + + + + + + X +     # p p + +   X + X + X   X X + + + X + +     + # l + + + + + ",
"  X   X X       X X     X # # y # + X X X X + + +       X X   X X X y p y X X . X X X X X   X         X X   X X # p l X + + +   "
};
