/* XPM */
static char *torch021743581658[] = {
/* columns rows colors chars-per-pixel */
"64 64 110 2 ",
"   c #070707",
".  c #0A0A06",
"X  c #0B0B0B",
"o  c #14140B",
"O  c #1A1A0C",
"+  c #131313",
"@  c #1B1613",
"#  c #1C1C12",
"$  c #1B1B1B",
"%  c #211A17",
"&  c #2C1F17",
"*  c #201C1A",
"=  c #242406",
"-  c #2C2C06",
";  c #25250B",
":  c #2E2E09",
">  c #33330D",
",  c #39320F",
"<  c #222214",
"1  c #2C2C13",
"2  c #24231B",
"3  c #29291B",
"4  c #363611",
"5  c #3C3512",
"6  c #3A3A14",
"7  c #333318",
"8  c #3E3E19",
"9  c #222222",
"0  c #332923",
"q  c #442C1F",
"w  c #403B13",
"e  c #4F381B",
"r  c #513A1E",
"t  c #593F1F",
"y  c #463127",
"u  c #5A3B25",
"i  c #573B2A",
"p  c #4B4906",
"a  c #5C5907",
"s  c #56540A",
"d  c #58560B",
"f  c #5A580A",
"g  c #41411B",
"h  c #4A401D",
"j  c #504810",
"k  c #595814",
"l  c #605E12",
"z  c #64610A",
"x  c #6F6C0C",
"c  c #777306",
"v  c #79750C",
"b  c #464620",
"n  c #634027",
"m  c #66422B",
"M  c #6B442B",
"N  c #734F26",
"B  c #77482F",
"V  c #774930",
"C  c #7C4C32",
"Z  c #837F0E",
"A  c #8E7F0E",
"S  c #865D2B",
"D  c #825035",
"F  c #895438",
"G  c #95672E",
"H  c #898407",
"J  c #8A850B",
"K  c #918B04",
"L  c #938E0A",
"P  c #9F9802",
"I  c #95910E",
"U  c #A59D05",
"Y  c #B3AB04",
"T  c #BFAC0C",
"R  c #BDB502",
"E  c #B9B209",
"W  c #C4AF0F",
"Q  c #C3BA03",
"!  c #CDC301",
"~  c #CAC10C",
"^  c #D7CD00",
"/  c #D8CE00",
"(  c #E2D600",
")  c #E3D807",
"_  c #E9DD03",
"`  c #E4D908",
"'  c #EBE007",
"]  c #F1E60F",
"[  c #F3E90E",
"{  c #F0E511",
"}  c #F8ED15",
"|  c #FBF11A",
" . c #F5EB22",
".. c #F9EE20",
"X. c #FFF530",
"o. c #E8E245",
"O. c #F8F246",
"+. c #FFF749",
"@. c #F4ED58",
"#. c #FFF752",
"$. c #FCF65B",
"%. c #FAF667",
"&. c #FDF965",
"*. c #F8F67A",
"=. c #FAF87E",
"-. c #FDFA83",
";. c #FDFC89",
":. c #FDFC95",
">. c #FDFB9F",
",. c #FBFDB5",
/* pixels */
"$ $ $ $ $ + $ $ $ $ + + + $ $ $ $ $ $ $ $ $ 9 $ $ $ $ $ $ + + + 9 9 $ $ 9 $ $ $ $ $ + $ $ $ $ $ + $ $ $ $ $ $ $ + + $ 9 $ $ $ $ ",
"$ $ 9 9 9 $ 9 $ $ $ + + 9 9 $ $ $ $ $ $ $ 9 $ $ $ $ $ 9 $ + X + 9 9 9 9 9 $ $ 9 $ $ 9 $ $ $ $ $ $ $ $ 9 9 $ $ + + + 9 9 $ 9 $ $ ",
"+ $ + $ $ + + + + X X + $ 9 $ + $ + + + + $ + + + + + $ + X + + $ $ + + $ + + $ + + $ + + + $ + + + + $ + $ + X X + 9 $ + $ + + ",
"+ + + + + + + + + X X + $ $ + $ + + + + + + + + + + + + X X X + $ + + + + X + + + + + o + + + X + + + + + + X   X + 9 + + + + $ ",
"+ + + + + + + + + X   + $ $ $ + + + + X + + + + + X + + X   X + $ + + + + + + X + + + + $ + + X $ X + + X + +   X + 9 + + + + + ",
"+ + + + X + X X X     + $ $ + + X + + + + X + X + + + X X X X + $ + X X + X X X X + + X + X + + + X X + X + X     + 9 + + + + + ",
"X X X X       X X     X $ X X X   X X X     X               X + + X X X X X X X X X X   X     X X X   X   X     X + + + X X     ",
"X X X X X   X       X X + + X X   X                   X     + + + X X X X X X X         X X X X             X + +   X X X + X   ",
"$ $ + + $ + + + + + + + + + + $ $ $ $ + $ $ + $ + + $ $ 1 > 6 6 6 8 6 7 3 2 $ + + X $ $ $ $ $ $ + $ + $ + + + + + + + + $ + + + ",
"9 $ 9 $ $ $ $ $ $ + $ $ + + + 9 $ 9 $ $ $ $ $ $ $ 3 7 6 6 6 6 6 6 6 6 8 6 6 7 < o X 9 9 $ $ $ $ $ 9 $ $ $ $ $ $ $ + $ $ $ + + + ",
"9 + + + X + + + + + + + X X + 9 + + + + + + + $ > 4 4 > 4 4 4 4 6 4 4 6 6 4 4 - ; $ 9 $ + + + + $ + + + + + X + + + + + X   + + ",
"9 + + + X + + + + + + X   X + 9 + + + + + X # > 4 > 4 > > > > 4 4 : 4 6 > > > - > 7 3 + + $ + + X + + + + X + + + X + + X   X + ",
"$ + + + X + + + + + + X   X + 9 + + + + X < > > 4 > 4 > > 4 > 4 > 4 > 4 > 4 > - : > g < + + + + + + X + + + X + + + + + X   X + ",
"$ + + X + X X + X + + X   X + 9 + o + + # > > > > > 4 > > > > > > > > > 4 > > - - > 8 6 < o + + + + + + X X + X + X + + X X + + ",
"$ X X   X X X X X X     X X + $ + X X o > : : : : : > : > : : : : : : : > : : - - > 6 > : o   X   X X     X X X X   X     X + + ",
"X X             X       X X + $ o X X - : : : > > > : : : - : - - : : : - : : : > > 6 > : ; X . X     X       X       X + X + + ",
"$ $ + + $ $ $ + $ + + + + + $ $ $ + 1 4 4 4 > 4 4 g 6 6 6 6 4 6 6 6 6 6 6 6 6 6 6 6 6 6 4 6 > $ + + $ $ $ $ $ $ + + + + $ $ + + ",
"$ 9 9 $ $ 9 $ $ $ $ $ $ $ $ $ $ $ 2 6 8 8 4 4 6 g g g g 8 g 8 g 8 8 8 6 6 6 6 6 8 6 6 6 6 6 6 # + 9 9 $ $ $ $ $ $ $ $ $ $ $ + $ ",
"$ 9 + $ + $ + + $ + + + $ + + + + 1 > 4 6 > : > g g 4 6 > 4 4 > 4 4 4 > 4 6 > > 4 > 4 6 > 4 > = X 9 $ + $ + + + + + + + + $ + + ",
"$ $ + + X X + X + + + + + X + X @ 4 > 4 4 : - 6 g g 6 6 > 4 4 > 4 4 4 > 6 > > > > 6 > 4 4 4 : - o $ + $ + + X + + + + + + $ + $ ",
"$ $ + + X + X + + X + $ + + X $ ; 4 > 4 > : - 6 g 6 4 > 4 > > 4 > 4 > : > > > > > > 4 6 > 4 > - < $ $ + + + + X + + + X + + + $ ",
"$ $ X + X X + X + + X + X X + X : 4 > > > > : > g g 4 4 > 4 4 4 > > > > > > > > 6 > > > 6 > > - : $ + X + X X + X X + + + + + + ",
"$ $ X X X X X X X X X X X X X o - : - > > - : - w 6 > > : : : : : : > : : : : : > - : : > > : - : 2 $ X   X X X X X X X X X X + ",
"+ + X X   X X X X X X X X     O > > > - - - - > 4 4 : : : : : : - - - - : > > : - : : : : : : > : < + X X X   X X   X X X X + + ",
"$ $ $ $ $ $ + + + X + 9 9 $ $ 7 8 6 4 4 4 4 4 6 6 6 6 8 6 6 8 6 > > 6 6 8 8 8 6 6 6 6 6 6 6 6 8 4 7 $ $ $ + + $ + + + $ $ $ + $ ",
"$ $ $ $ $ $ $ $ + + + 9 $ $ $ 6 8 6 6 8 w 6 6 6 w 6 6 6 6 6 6 4 4 6 g g 8 8 8 8 6 g 6 6 6 6 6 6 6 7 $ $ $ $ $ $ $ $ $ + + X 9 9 ",
"+ + + + $ + + + X X + 9 + + X 7 4 4 > 4 6 > > > 6 > 4 4 > 4 4 : > 6 g 6 > 4 4 4 > > 4 > 6 > > > > > + + + + + $ + $ +   X + 9 + ",
"+ + + + + X $ +   X X 9 o + + 4 4 4 > 6 > 4 4 : 4 4 4 > 4 4 4 : > 6 g 8 > 4 4 > 6 4 6 > 4 > 6 6 4 4 X + + $ + + + + +   X + 9 X ",
"+ + + + $ + + X   X + 9 + + + 4 > > 4 > > > 6 : 4 > > 4 > 4 4 : > w b 4 6 4 4 > 6 4 > 6 > 4 4 4 > > + + + + + + + + X   X + 9 $ ",
"+ X + X + + + X X + + $ X + X 4 4 > > 6 > 4 > : > > 4 4 > 6 > - > 4 g 6 > 6 > 6 4 > 6 > 6 > 4 6 > 4 + + + + + + + + +   X + 9 X ",
"X   X X X X X     X + $ X X X > : > > > : > : : > : > : > > : - : 4 g > : > > > > > > > > > > : : > X     X X X X       X + $ X ",
"X X X       X     X $ + X X X = - > > : : - - - - : : : : : : p c 4 6 : : : > > > : : - - : : : : ; X     X     X   X   X + $ X ",
"$ $ $ $ + $ $ + + + + $ + + + 7 6 6 8 8 6 6 4 4 6 4 4 6 6 8 4 ) @.L 8 8 6 6 6 g g 6 6 6 6 6 8 6 6 1 + + $ $ + + + $ + + + + $ + ",
"$ 9 $ $ $ $ $ $ $ $ $ $ + $ $ 3 6 6 6 6 6 8 6 6 6 4 4 4 b 8 Z { *.Q k 6 6 6 6 6 6 6 6 6 6 6 6 6 6 1 + + 9 $ 9 $ $ 9 $ $ $ $ + + ",
"$ $ + + + X + + X + + X + + + o > 6 > 4 > 4 4 > 4 - 4 4 8 4 U | ;.) z a L f 4 > > 4 4 > 6 4 > 4 > #   + 9 + + + X $ + + + + X X ",
"$ $ X $ X X X $ X + X o + + + X - > > > > > > > > - > 4 I 4 U O.$.! K H R s 6 > 4 > 4 > 6 > > 4 : X X + 9 X + + X X + X + X X X ",
"+ 9 X $ + X $ X $ + $ X + + + X 1 4 > 6 > 6 6 > > - - 6 E 4 U o.=.( ! R ! f : > > 4 > 4 > 4 > 6 ; +   + 9 + + + X + + + + + X X ",
"$ $ + X + X X $ X + + X $ X + X o 4 > > > 4 > > 4 - - 6 ( R Y | -.X.} ~ c > > 4 > > 4 > 4 4 4 4 + X   + $ + X + X + + + + + X X ",
"$ + X X X X X + X X X X X X X X   = > > - > > - > - > 6 / / _ +.>.$.' R c : > : - : : : > : : ; X X . + $ X X X X X X X X X     ",
"+ + X X X X X X X X X X           o - - - - - - - - > 4 Y ^ ] &.,.%.' P a > > : : : - : - - : o   X   X + X X X X X X X X X     ",
"9 $ $ $ + $ + $ $ $ 9 $ $ $ + + $ $ 1 6 4 6 8 6 6 6 6 6 x / ) #.:. ./ v 6 6 6 6 6 6 6 6 4 : ; + + $ $ $ $ + $ $ $ $ $ $ + + $ + ",
"$ $ $ 9 $ $ $ + $ $ + $ $ + + + $ 9 9 8 8 8 8 8 8 6 6 6 8 l Y _ [ ! J 6 4 4 > 6 g g w g 8 6 $ + $ $ + $ $ $ 9 $ $ + + + + + 9 9 ",
"+ X $ + + X X X $ X X + X X X + $ $ + # 6 - - > > > 4 > 4 4 j T W J w > > : > 6 g > > 6 > # X + + + X + + + + + + + + X X + 9 + ",
"+ X X + X + X $ + X + X + X   + + $ + X < > > 6 > 4 > 5 > w N G S h 4 > > - 4 6 g > > > < + + + X X + + X X + X + X X   X + 9 + ",
"X + X X + + + + + X X X + X   + + $ + X + # > 6 > 4 > > 4 w M F D n , , : - > 6 g > : < X X + + + X + + + X + X + X +   X + 9 $ ",
"X + + X + X + X + X + + X X   + $ $ + X + X O > - 4 > : 4 5 n D B r , : 4 - - 4 8 > O + X + + X X + X X + X X + + X +   X X 9 + ",
"X X X X       X X X X   X X   + $ +     X X X X = : : : - : e B n , : : - - > 6 7 . . X X X X X X X X X X X X   X X X     + $ X ",
"X X   X X X   X X   X X   X   + $ + X X   X X . X O ; - : : e B M , - : - - = < + .     X           X X X   X X   X       + + X ",
"$ $ $ $ $ $ $ $ $ $ + + $ $ $ $ $ $ $ $ $ $ $ $ $ $ $ $ 2 1 u B M b g 7 3 $ $ $ $ + + $ $ $ $ $ + + + + $ $ $ $ $ $ $ $ + $ + + ",
"$ 9 9 9 9 $ $ $ $ $ + + $ 9 $ 9 $ 9 $ $ 9 $ $ 9 $ 9 $ $ $ @ q B m 0 9 9 9 9 $ 9 $ $ 9 $ $ $ $ $ $ $ + + 9 9 $ 9 $ $ $ 9 $ + + $ ",
"$ 9 + + $ + + $ + X X + $ 9 + $ + + + + + + $ + + + $ $ X X & m i 9 + + + + + + + $ $ + + + $ X + + X + 9 + + + + + + $ + X X + ",
"$ $ + + X $ + + +   X + $ $ $ + + + + + + + + X + + + X X X @ i y + + X + + + + + + + + + + + + + X X + 9 + $ + + $ + +   X X $ ",
"$ $ + X + + + X + X   + $ $ + $ + + + + + + + X + + X + X X X % * + + + + X + + + + + + + + + X $ X   + $ + + + + + + + X   X + ",
"+ $ + $ X $ X + X     + $ $ + + X + + X + X + X + X + X X X X + $ + X + + X X X X + + X + X + + + X   + $ + + X + + X X X   + + ",
"+ + X X         X     X $ X X     X X X X   X   X           X + + X X X X X X X X X X   X   X X X X   + + X X X   X   X     X + ",
"+ X X X   X X         X + + X X   X       X           X X   X $ X X X X X X X   X X         X X       + + X X X     X     X X + ",
"$ $ + + $ + $ + + + + $ + + + $ $ $ $ + $ $ $ $ + + + $ + $ $ + $ $ $ $ $ $ + X + $ $ $ $ $ $ $ + + + + + $ + + + + $ $ + X + $ ",
"9 $ $ $ + $ $ $ $ $ $ $ + + + 9 $ 9 $ $ $ $ $ $ 9 $ $ $ $ + $ $ $ $ $ $ $ + + + $ 9 9 $ $ $ $ 9 9 $ 9 + $ $ + $ $ $ $ $ + + + 9 ",
"+ + + + + + + + X + $ X   X + 9 + + + $ + + + + + + + X + + + + + + + $ $ X X + $ 9 + $ + + + + + + + + + + + + + $ $ +   + + 9 ",
"X $ + + X + X + + + + X   X + 9 + + + + + X + X + X + + + X + + + X + + X X X X $ $ + + + + + + + + + + + X + + X + + X   X + 9 ",
"+ + + + + X + + + + + X   X + 9 X $ + + X + + X + X + + X + + + X + + + + X   X $ $ + + + + + + + + + + + + + + + + $ X   X X 9 ",
"X $ + X X + X $ X X $ X   X + 9 $ X X + + + X X X + + X X + X + X + X X + X   X $ + + + X + + X + + X X X + + X X + + X     + $ ",
"X X     X X X X   X X     X $ $ + X X X X X X X X X X X X X X X X X X X X     X + $ X X   X X   X   X X   X X X X X X     X + $ ",
"                X       X + X + X X X X X X X X + X X X X         X X   X   X + + +   X     X   X     X       X   X X   X X + + "
};
