/* XPM */
static char *torch071743581659[] = {
/* columns rows colors chars-per-pixel */
"64 64 127 2 ",
"   c #070707",
".  c #080806",
"X  c #0B0B0B",
"o  c #110F0A",
"O  c #171407",
"+  c #14130C",
"@  c #181608",
"#  c #131313",
"$  c #191611",
"%  c #1B1A14",
"&  c #1B1B1B",
"*  c #231E05",
"=  c #221C14",
"-  c #2C1F17",
";  c #201C1A",
":  c #2C2606",
">  c #27220A",
",  c #2B250C",
"<  c #2E280E",
"1  c #352C05",
"2  c #382F05",
"3  c #362E09",
"4  c #393006",
"5  c #36300F",
"6  c #3D340A",
"7  c #242215",
"8  c #2E2911",
"9  c #25211D",
"0  c #312C13",
"q  c #332F18",
"w  c #373111",
"e  c #3D3511",
"r  c #3F3814",
"t  c #37321A",
"y  c #39331A",
"u  c #222222",
"i  c #332923",
"p  c #40370D",
"a  c #41380E",
"s  c #442C1F",
"d  c #453610",
"f  c #453C12",
"g  c #483E15",
"h  c #4D3D1D",
"j  c #553B1D",
"k  c #463127",
"l  c #5C3B25",
"z  c #573B2A",
"x  c #4B400F",
"c  c #554C05",
"v  c #594A0F",
"b  c #494016",
"n  c #4D441A",
"m  c #50471D",
"M  c #5D401E",
"N  c #51481E",
"B  c #665C07",
"V  c #60570A",
"C  c #635A0A",
"Z  c #635A13",
"A  c #6D6309",
"S  c #776E0C",
"D  c #7F7506",
"F  c #7F7609",
"G  c #6A6011",
"H  c #654027",
"J  c #694427",
"K  c #65412D",
"L  c #6C442B",
"P  c #744F26",
"I  c #77482F",
"U  c #774930",
"Y  c #7C4C32",
"T  c #81770C",
"R  c #875D2B",
"E  c #825035",
"W  c #895438",
"Q  c #95672E",
"!  c #8F8607",
"~  c #8B800D",
"^  c #968D04",
"/  c #91830C",
"(  c #978E0B",
")  c #9A9107",
"_  c #9B920E",
"`  c #A39902",
"'  c #A99E04",
"]  c #B6AC03",
"[  c #B8AD04",
"{  c #BFAC0C",
"}  c #BFB403",
"|  c #BDB309",
" . c #C4AF0F",
".. c #C1B602",
"X. c #C5BA03",
"o. c #CEC401",
"O. c #CBC20C",
"+. c #D7CD00",
"@. c #D8CE00",
"#. c #E2D600",
"$. c #E3D907",
"%. c #E9DD03",
"&. c #E5D908",
"*. c #EBE007",
"=. c #F1E60F",
"-. c #F3E90E",
";. c #F0E511",
":. c #F8ED15",
">. c #FBF11A",
",. c #F5EB22",
"<. c #F9EE20",
"1. c #FFF530",
"2. c #E8E245",
"3. c #F8F246",
"4. c #FFF749",
"5. c #F4ED58",
"6. c #FFF752",
"7. c #FCF65B",
"8. c #FAF667",
"9. c #FDF965",
"0. c #F8F67A",
"q. c #FAF87E",
"w. c #FDFA83",
"e. c #FDFC89",
"r. c #FDFC95",
"t. c #FDFB9F",
"y. c #FBFDB5",
/* pixels */
"& & & & & & & & & & # # # & & & & & & & & & & u & & & & & # # # u & & & & & & & & & # & & & & & & & & & & & & # # # & u & & & & ",
"& & u u u & & & & & # # & u & u & & & & u & & & & & u & & & X # u u u u u u & u & & & & & & & & & & & & u & & & # # u u & u & & ",
"# & # & & # # # # # X # & u & # & # # # # & & # # # # & X X X # u & # # & # # & X & & # & X & X & # & # & # # X X # u & # & # # ",
"# # # # # # # # # X   # u & # & # # # # # # X # # # # # X X # # & # # # # X # # # # & X & # # # # X # & # # X   X # u & # # # & ",
"# # # # # # # # # X   # & & # # # # # # # # # # # X X # X   X # & # # & # # # X # # # # & # # X # # # # X & X   X # & & # # # # ",
"# # # # X # X X o     # & & # # X # # X # X # X # # # # X X X # & # X X # X X X X # # X # X # # # X X X X # X   X # u # # # # # ",
"X X X X   X   X X     X # o X X   X X X         X           X # # X   X X X X X X X X   X   X X       X     X     X & # X X     ",
"X X X X X             # # # X X X X                       X X & X X X X X X X X         X X X X X   X       X # # X X X X X X   ",
"& & # # # # & # # # # # # # # & & & & & & & & & # # & & & # & # & & & & & & & & X X & & & & & & # & # & # # # # # # # & # # # # ",
"u & & & & & & # & # & & # # # u & & & & & & & & & & & # # & & & & & & & & & & # # # u u & & & & & u & & & & & & & & & & & # # # ",
"u # # # # # # # # # # #   # # u & # # & # # # # # # # # # # # # & # # # # # #   X # u & # # # # & # # # X # X # X # # # #   # # ",
"u # # # X # # # # # # X   X # u X # # # X # # X # X # # # X # # # X X & # # X   X # u # # # # & X # # # # # # # # X # # X   X # ",
"& # # # X # X & # # # X   X # u # & X # X # X X # X & # # # X # X # X # # # #   X X u & # # # # # # # & # X # # # # # X X   X # ",
"u # # X # # X # X # # #   X # u & X # # # # X # # X # X X # # X X # # X # X X     # & # # X X # X # X # X X # X # X # # X   X & ",
"& X       X X X           X # & # X X X X X X X X X X X X X X X X X X X X X X     # & # X     X   X X X   X X X X X X X   X # # ",
"X X     X         X     X # # # X X . X X X X X # X X . X     .   X X     X   X X # # X X X X X     X         X       X # X # # ",
"& & & # & & & # & # # # # & & & # & # # # # # # # & & & & # & # & & # & # & # & & & & # # & & & # # & & & & & & # # # & # & # # ",
"u u & u & & u & & & & & & & # & & & & & & # # # u u & u & & & & & & & & # & & & & # & & & & # # # u u & & & & & & & & & & & # & ",
"& u # & # # # # # # # # & # # # # # # # # # X # & u # & # # # # # # # # # # # X # # # # X # #   X u & & & # # # # & # # # & # # ",
"& # # # # X # X & # # # # X # # # # X # # X   # u u # # # # # X # # # X # # # # X # # # # # X   X & # # & X X # X # # # # & # & ",
"& & # # X # X # # # # # # # X # # # X # X X   # 9 & # # % < 4 e 6 6 8 o # # # X # # # # # # X   X & & # # X X # # # # X # # # & ",
"& & X # X X # X # X X # X X # # X # X # # #   # & 9 # 0 e a a e 6 r e 6 , X #   # X # # # # o   X & & X # X X # X X # X # # X & ",
"# & X X X X X   X X X X X X X     X X X       X & 7 6 6 6 6 6 6 4 6 6 6 6 3 + X X X X   # X X   X & & X X X X X X X X X X X # # ",
"# # X X X   X X X   X X X X X   X X X   X     # % e 4 6 4 4 6 4 4 4 4 4 6 6 6 o       X   X X   X # # X X X   X X X X X X X # # ",
"& & & & & # # # # X # u u & & & & # # # # # # % f f f b r x b f e p r f b b b r % # & & # & # & # & & & & # # & # # # & & & # & ",
"& & & & u & & & # # # u & & & u u & & & & & & 8 b g g g b x f f e x n n b b b b t & & & & # & & & & & & & & & & & & & # # # u & ",
"# # & # # # # #   X # u # # # # # # # # # X % 6 x a r e a a a 4 6 a N x 6 a a a 6 % # # # # # # X # # # # # # & # # #   X # u # ",
"# # # # # # & X   X # u X # # # # # # # # # 8 6 a a a 6 a x a 4 6 b N x a a f a f 8 # # # # # # # # X # # & # # # # #   X # u # ",
"# # # # # # # #   # # u # # # # # X # # X # f 4 f 6 p a 6 a a 4 e f N f x a a 6 f a + # # # # # # X # # # # # # # # #   X # u # ",
"# # # # # # # X   X # & X # X # # # # & # % p 4 p e a p a a p 4 6 f n x e f r x a a 7 # # # # # # # # # # # # # # # X   X # & # ",
"    X X X X       X # & X # X # X X X X X , 6 4 6 6 6 6 p 6 4 4 4 a b a 6 6 6 a 6 a 7 X # X X X X X X     X X X X X     X # & X ",
"  X X     X X   X X # & X         X # X   : 3 4 4 6 4 6 6 6 4 c D a f 6 4 6 6 6 e 6 : X     X X X X X   X       X     X X # & X ",
"& & # & # & & # # # # & # # # # # # & & & r a a b a a f f g f $.5.( g b f b b b n b r # # & & # & # # # & & & & # & # # # # & & ",
"& u & & & & & & & & & # & & & & & & & & # x b a f f a a n n ~ ;.0.X.Z b f f f f x f f & & & & # & & # # u & & & & & & & & & # # ",
"& & # # # # # # # # # X # # # X # # o # o f a p a 4 a f n f ' <.e.&.A A ) C e a a a r X # # # # X #   # & # # # # # # # # X X X ",
"& & X # X # X # X # # # # X # # X # o # X w e a 6 4 6 a _ f ' 3.7.o.^ ! } C f 6 a 6 e X # # # # X #   # u X # X # X # X & #     ",
"& & # # # # # # # # # # # # # X # # X # # e f a a 4 4 a | a ' 2.q.#.X...o.C 6 a 6 f 6 # # # # # # #   # & # # # X # # # # # X   ",
"& & # # # X X # X # # X # X # X # # # # X w e 6 f 2 6 f #.} ] >.w.1.:.O.F 6 6 a 6 e w # # # # # X X X # u # # # X # # # # # X X ",
"# # X # X X X X # X X X X X X X   X X X . : 6 4 6 4 6 f @.+.%.4.t.7.=.X.T 6 6 6 4 6 > X X X X X   X   # & X X X X X X X X X     ",
"# # X X X X X X X X X X X         X       O 4 4 4 4 p p [ +.=.9.y.9.%.` B 6 6 4 4 4 +         X X   X X # X X X X X X X X X     ",
"& & & & & & # & & & u & # & # # & & # # & & g b f f g b S +.#.6.r.,.@.T g f f f g g & # # X # # & & & & & & & # & & & & # # & & ",
"& & & & # & & # & & & & # & # # & u u & & & t b b f b f b G [ %.-.o./ f f f 6 g n t & 9 & & & # & # & & & & & & # & & # # X u & ",
"# X # # # X # X & X X # X #   # & & # # # X X r a a a 6 a a v  . ./ x 6 f 2 r f b + # # X # # # X # X # # # # # # # #   X # u & ",
"# # # # X # # # X # # X # X   # # & # X & X X 8 6 a a a 6 g P Q R M f 6 6 4 6 g t # # X # # X # X X # # X X # # # X X   X # u # ",
"X # X X # # # # # X # X # X   o & & # X # X o # 6 r a 6 d d L W E l p p p 2 p d u # X # # X # o # X # # # X # X # # #   X # u & ",
"X # # X # X # X # X X # # X   # & & X # # # # # + 6 a 6 f d H E Y j p p p 2 4 % u X X # X # # # # X # X # X X # # X X   X X u X ",
"X X X X       X X X X X X     # & #     X X     X + 4 4 4 6 j I J p p 4 2 1 + $ &     X X X X X X X X   X X X   X X X     # & X ",
"X X X   X X   X   X     X     # & # X X   X   X   X X > 4 4 j U J p 2 2 * . X # #                     X X   X   X         # & X ",
"# & & & & & & & & # # # # & & & & & # & & & & & u & & # ; 0 l U L h t u & & & & & # # & & & & & & # # # & & & & & & & & & # # & ",
"& u u u u & & u u & # # & u & u & u u & & u & u & & u u ; # s U K i u u u u & u & u & & & & & & & & # # u u & u & & & u & # X & ",
"& u # # # # # # # X X # & u # # # # # # # # # # # # # # #   - K z & # # # # X & # & & # # # # # & X X # u # # & & # # # X X # # ",
"& & # # # # & X # X X # & & & & # # # # # # # # # # # # X X $ z k # # # # # # & # # # # # # # # # X X # u # # # # & # # X X X & ",
"& & # # # # # # # X X # & & # & # # # # # # # X # X X # X   X & 9 # # # # X # X # # # # # # # X # X   # & # # # # # # # X   X & ",
"# & # # X # X # X     X & & # # X # # X # # # X # # # # X X X # & # X # # X X X X # # X # X # # # X   # & # # X # # X X X   X # ",
"# # X X X       X   X X # X X X   X X X     X   X           X # # X X X X X   X X X X   X   X X X     # # X X         X     X # ",
"# # X X   X X         X & # X X X X                     X   X & X X X X X X X X X X       X X X X   X # # X X X   X X     X X # ",
"& # # # & # & # # # # # # # # & & # # # # & # & # # & # & # & # & & & & & & # X # & & & & & & & # # # # # & # # # # & & # X # & ",
"u & u & # & & # & # & & # # # u u u u u & & u & u & & & & & & # & & & & & & # # u u u & & & & u & u & & & & & # & & & & # # # u ",
"# # # # # # # # # # # #   # # u # # # & # # # # # # # X # # # # # # # # # X X # & & # # # # & # # # # # # # # # # # & #   # # u ",
"# & # # X # # # # # # X   X # u # # # # # X # X # X # # # X # # # X # # + X X X & & # & # # # X # & # X # X # # X & # X   X # u ",
"# # # # X # X # # # # X   X # u # # # # X # # X # X # # # # o # # X # # # X   X & & # # # # # # # # # # # # # # # # & X   X X u ",
"X # # X # X # # X # # X   X # u & X X # # X X # X # # # X # X # X # # X # X   X & # # # X # # X & X # X X # # X X # # X     # & ",
"X X X   X X X X   X X     X # & # X X X # X X X X X X X X X X X X X X X X     o # & X X   X X   X       X X X X X X X X   X # & ",
"  X             X       X # # # X X X   X X X X X X X                   X   X # # #   X       X X     X         X         # # # "
};
