/* XPM */
static char *torch04w101743666765[] = {
/* columns rows colors chars-per-pixel */
"64 64 145 2 ",
"   c gray12",
".  c #252525",
"X  c #282724",
"o  c #2A2826",
"O  c #2C2C2C",
"+  c #312F2D",
"@  c #363229",
"#  c #3B362C",
"$  c #3E382C",
"%  c #343434",
"&  c #393631",
"*  c #3D3933",
"=  c #3C3C3C",
"-  c #413B2F",
";  c #4A3B2C",
":  c #443E32",
">  c #4A3E35",
",  c #423E3A",
"<  c #553D30",
"1  c #5A402F",
"2  c #474034",
"3  c #484236",
"4  c #45423C",
"5  c #4C4539",
"6  c #4F493D",
"7  c #514334",
"8  c #584134",
"9  c #514B3E",
"0  c #63452F",
"q  c #6F432D",
"w  c #77482F",
"e  c #76512B",
"r  c #644331",
"t  c #6C4631",
"y  c #614836",
"u  c #774830",
"i  c #7A4C33",
"p  c #734F3B",
"a  c #60593B",
"s  c #75503B",
"d  c #6E6837",
"f  c #6D653B",
"g  c #706432",
"h  c #444444",
"j  c #4A4640",
"k  c #4B4943",
"l  c #4B4B4B",
"z  c #544E42",
"x  c #594E40",
"c  c #514E4C",
"v  c #575045",
"b  c #595246",
"n  c #54514B",
"m  c #5C564A",
"M  c #5E584C",
"N  c #545454",
"B  c #595654",
"V  c #5C5954",
"C  c #5B5B5B",
"Z  c #655D43",
"A  c #615B4F",
"S  c #6D584E",
"D  c #745847",
"F  c #635D51",
"G  c #615F5B",
"H  c #685E58",
"J  c #77714E",
"K  c #7A734D",
"L  c #666054",
"P  c #696256",
"I  c #66625C",
"U  c #6C665A",
"Y  c #6F695D",
"T  c #716A5E",
"R  c #7D7654",
"E  c #636363",
"W  c #6B6B6B",
"Q  c #736D61",
"!  c #777165",
"~  c #797367",
"^  c #7B7569",
"/  c #7E786C",
"(  c #737373",
")  c #885E2D",
"_  c #825035",
"`  c #895438",
"'  c #95672E",
"]  c #867E3F",
"[  c #857F4A",
"{  c #807A6E",
"}  c #847E72",
"|  c #A89615",
" . c #A49A1F",
".. c #B7AF0C",
"X. c #BFAC0D",
"o. c #B6AC18",
"O. c #BCB211",
"+. c #958C27",
"@. c #8D863B",
"#. c #958D30",
"$. c #A79E2D",
"%. c #ACA322",
"&. c #BDB420",
"*. c #C1AD0E",
"=. c #C9BE07",
"-. c #C4BB09",
";. c #C2B817",
":. c #CBC107",
">. c #D3C902",
",. c #D9CE00",
"<. c #D1C60A",
"1. c #DCD206",
"2. c #E0D501",
"3. c #E5DA04",
"4. c #E1D60B",
"5. c #E8DD09",
"6. c #E5DB13",
"7. c #E8DE1B",
"8. c #EBE006",
"9. c #F0E60C",
"0. c #EDE316",
"q. c #EEE51E",
"w. c #D4CE36",
"e. c #F5EC25",
"r. c #F3EA2F",
"t. c #F9F026",
"y. c #FAF029",
"u. c #FEF63A",
"i. c #87804C",
"p. c #8A824D",
"a. c #87815C",
"s. c #EEE74D",
"d. c #FCF445",
"f. c #FEF748",
"g. c #F4EF52",
"h. c #FEF851",
"j. c #F4F05E",
"k. c #F6F162",
"l. c #F7F36C",
"z. c #FBF76C",
"x. c #F4F072",
"c. c #FDF974",
"v. c #FDFC8F",
"b. c #FDFB9B",
"n. c #FBFEB7",
/* pixels */
"N C C N N N C N N N l h N N N N N N N N C C C E C N C L P A m M T ! T ! T Y U U L N l N N C N N N N C N C N N l h l C E N N N N ",
"C E E E E C E C E N h h C ( E E C E G C E E C E C C Y ! Y F 9 A / ^ ^ ^ ! ^ T ~ Y Q E C C C C N C C C E E C E l = l ( W C E C E ",
"l l l l N l l l l = % h C E l l l h l l h l N h h c M I v 5 v F ! L M M L M m L v L B h l = N h N h l l l l h % % l ( N l N l l ",
"l l l l = l l = l . . h C C N l h h h h h h h = h b m b 6 2 v A ! m v v M v v F b M m = l h h = l = h l l h = . O h W l l h h l ",
"h l h h h h = h l O . h C C l l = h l = h = h = k v v M 6 : 5 m U b m F m v v 9 F M m h N h h = l = = l = h = . + h E N = h = l ",
"h h h l % l = = = . O = N N l h % h h = h % h % k v v 9 6 2 5 m Y m 9 9 m 9 9 9 9 m m * h % h = h % = = % h % . O h E l l h h h ",
"o % % % . O . O O . O % l = % O O % O % O O + O 4 $ 2 : : : 3 m A 5 3 5 5 5 6 5 3 3 2 $ % O O % O O . O . O O   O = N = % % . O ",
"O O + + O O O .     . = l = % O O O . . . O O X $ $ 2 2 2 2 v M v 3 5 3 5 5 5 2 - 2 * 4 O O + O O . O     . % h = + % + O % % O ",
"C l l h N l N h h h h N h h h N N N N l l N c C M F L L L L U F L Y U U T Y P A v 9 U P I N N N l N l l l h l h h h h l N l h h ",
"W C E N N N N N C N N N h h l ( C E C E C C C I T Y U P P P L L U P P Y P U Y m b v a./ I G C C C E C E N N N N N N N N N l h l ",
"E h l h = h h h = h l h . % h ( l l h l h l h M M v M v M m m m F b M F M M A : 6 m / W k l h l l l h l h h = l h h l l = . = l ",
"E l h h = h = h h = l % . % = W h l h h = = h k A 9 m m v 9 v m A 6 v A v m 9 - 5 b ~ m V N = l = h l h h = h h h = h h % . % h ",
"E h l h = = = l h = h % . % h W = l h l % h 4 9 M 9 A v v m v M v 9 v A 9 m b - 2 v ~ P m k h l = h h l h = = = l h h = % . % h ",
"E h = % h = = l % h l % . % l E l = h h h = 4 9 9 9 m v 9 v v v 9 m b 9 M v v - $ v Y m m h = h = h = h % = h % l % h h % . = l ",
"N % O . O O % % O O + O . = l C = % + % % % 4 5 6 5 6 5 9 5 5 5 6 3 6 2 6 3 3 $ 2 b U b 3 # . % O % % O . O % O % O O O O . = N ",
"% O . O O O .   O O .   O = = l = % + + + + 3 6 9 6 5 5 2 - $ 2 : 2 3 2 - 2 2 2 5 M L 6 2 * O + .   O O .   O O O   O % = = h h ",
"N C l l C N N l l l h h h N N N l l h l h h n m F T U Y P F F A L P P U A L L P L P P A M V N N h h N C l N N N l h l l N N h h ",
"E W C E C C E C C N C C C N N C C C N C C l M V T { T ! T T T T Y T Y P L P L P P P P P P L N h h W E C C N N C N N N N C C h l ",
"C E l N h l h = l l h l N = h h l h = l l = 2 b ! ~ F P m M b m M m A 9 v M v v F b M A v n = X O E N l N l h h h l l h l N h N ",
"N N h l = = = = l h h h l % l = h h % h k % : V ^ T M F b m m 9 M m M v A v M 9 b A v m m m % . % C l l l = % h % l h h l l h C ",
"N N h l % = % h l = = l h % = l % l % l = O : M ! Y M v m b v M 9 M v 6 m m v 6 m m m A v m % . O C N h l = = = h l = = l h h C ",
"N N % h % = = % h % = h = = h = % h = = = = : v Y T m A 9 m b v 9 b m 6 9 6 v 6 M 6 9 b F v = . O E l % = % = h % = h % l = = l ",
"l N = % % % % O % % % % % % O O O % + % O . : 6 U F 9 9 6 6 3 5 6 3 5 5 9 5 5 2 6 : 6 2 9 v %   % N N % % % O O O % % % % % = l ",
"l l % % O O % O % O % O % O O O % % + O O o : v M m 5 3 5 5 5 5 : : : : 3 9 9 3 : : 2 3 2 4 % O O l h % O % O % O O O % % % = h ",
"C N C N l l l h h = l E W C C N N N l h h l m V U L L U A U U F v v m P U T U U F F L L L L N N l C C N N l l N N N N C N N N N ",
"N C C N C C C C l = h W C C C C C C N N N N L F U P P P L P L M m A ^ Q U Y Y T Y T Y L P L N N N N N l l = N C l l l N N N C l ",
"l h l l N l N = . % h W = h = l h h = l h = v v A m m m v m m 2 9 F { I 9 M M m 6 M M v M v = l = h = = O = N N h h % h h = l h ",
"h h l = l = l = . % = W = l h l h h h l h h v 5 m m m 9 M M M 2 9 P a.E v m m m M M F v M z h l h h = = . = N N % % = l = % h = ",
"l h l h l h h % O = l W h = = l = = h h = = m 6 m v v m 9 M m 2 z I a.m F m m v A m v A m n h l h = = % . = N N h % h = h % = % ",
"h = h = h h h = O = h E = l % h h = h l h h k 3 v v m m m M b 2 6 F ( L v A m F m m M v A h h l = l = = . % h N = h = % l = = = ",
"O O % O % % . . . % h N % = % = % % % = O % = 3 9 3 6 5 9 6 2 $ 5 m ! b 3 v 9 v 9 v v 6 k , % % % = % O . % l l % O % O % O O O ",
"O O O O O O O O O % l l O . O O % % = % O . o * 2 3 3 3 3 3 v K d m A 9 3 5 6 9 m 6 3 2 2 + % O O O O .   % h l   O O O O O O O ",
"l l l N N C N l h h C l h l N C N N N N N C V P P A m A P R w.s.$.T U U A U U T ! U L L M B N N N l h l C N N l l N l h h l N N ",
"N N C N N N l N N l N h h h ( W E E C E C E C Q T A m A a.o.r.j.4.R T T P L U A P L P P L N N c N N h h N N N N N N N l N N N N ",
"h % h h % l = l l = h . = h W l l N l N l l l B v 5 v A p.<.d.c.6.a v 5 A b v v v m v v n = h h = = . l N h h h % l h h h = h h ",
"h h % h = h % = = = % O % h E h l = h = l l h n 2 2 v m [ <.z.g.>.+.6 m v 9 A 9 M 9 m v n h h h % h . h N = h = = = h = l = h % ",
"h % h h = l = l l = =   % h C h h h h h h h h l 5 : v m p.-.x.l.3.:.;.z m 9 9 v 6 m b m h h = l h = . = N l h h % h = h h h = h ",
"h % = = h h = h h = l   O h C h l % h = h = = = : - 9 @.%.:.t.h.f.0. .b m 9 z m 6 m m 6 h h h h % % . l N h = h = h h = h = h = ",
"O O . % O % O % % % %   = h l = % . . . O . X O @ : 5 @.>.2.7.k.b.e.2.v 5 3 6 5 3 6 k % % % + % O + . h l = = % % % = % = % = % ",
". . O O . . . . O . . O = = h O % O O O o O O . X * 5 f =.5.u.v.n.q...- 3 9 9 3 - 2 3 O   . O O O O O = h + O + % % % O O % + % ",
"C N N C N N N l l C W C l N l l N N l l l N N N N m H U o.,.y.c.c.3.#.L P P A A U L L N C l N N N N l N N l l N N l N N l N N l ",
"C C C C l N N N C N N N N l h h N W E C C C C C C V L L J %.1.9.8.O.@.P F M v L T L N N C C C N N N N N h h = W N N N N N N N N ",
"h = h h h = h % l = = h = =   h N C h h l % + = h h n 5 m Z | *.*.g b z v 2 v L Y v h % h = h h h = h h O % l E h h h % h h % h ",
"l % = l = = = l = = h % h % O = N C = = l + = l % h k F z b e ' ) 0 b 5 z $ v L Y = % = l = % l = h % = . % l E h h h h = h h = ",
"= h = % % h h = h % = % h O . = N C = % l = = h = = h 6 b 9 q ` i 0 9 m 3 - v L I k % h = h % = % l = = . O l E N = h % = = h = ",
"% h h % h = = = h = = h = = O h C N = = l % = = % h = % m x q _ i y b 5 v - 5 m N = = = % l = % = h % h . O % E = h h % h = = h ",
"% % % O . O O % % O O O O O . h N l O . % O O % O % % + + 5 8 w t 7 5 > 2 $ 6 c l % + % % % O % O O O O . O h C % % % O O % O % ",
"O O O O O O O O O O O O O O O h l h % + O O O O O O o O O + < u t ; - > - @ % h l . . O O O O O O O O O   . = l O O O O O O O . ",
"l C C N N C C N N N h h N N N N N N N N C C C C C N N N N l < u s L Q W E C N C N l l N N C N N N l = l N C N N N C C N N l h l ",
"C W E E E C E C E N l h E ( E E C E E C E C E E C C E E C l < i s L W E E E E E C E E C C N C N C N l l W E E E C E C E C l h l ",
"C E l l N h l l l = % = C E h l l h l l h l N h h h l N = % > t D l l l N l = N = N N h N = N = N = % h W N l N l l l l = % = l ",
"N C h l = l l = h O . h C C N l h h h h h h h = h h h = % O , r S h = = l = = l = l l = l h l = l O O h E h l = l l = l O . = N ",
"N C h h h h = h h O . h C C l l h h l = h h h = h h = h % O % h B h h h = = h = l h h h l h l % l % O h C h = h h l = l % . = N ",
"l N h l % h = = = O O = N N l h % h = = h % h % = = = = % O % h V h = = h = % = % l = % l % = h h % . h C h l = h = = = O . = h ",
"l h = % . O . O O . O % l = % % O % O % O O O O % . O O O . % h l % O + O % O % O O O O % O O % O O . h l = % . . O . O . O O l ",
"h = O % O O O . .   . = l = O O O O . . . . O .     . O O . = l = O % + % O % O % O . . . . O O O . O h h O O O . O O . . . O l ",
"C h l h l N N h h h h l h h h N N N l h l C N N h N l N C N C N l h % h C N N N N N C N l h N N N l h h N N N l = = C C N N l N ",
"W C E C N N N N C N N C l h l ( E E E E C C C N E N N C N N C C N l h C ( E C C C C E C C N N N N N N N N C N l = h E C N N C N ",
"h h l h h = h h = h l h . % h ( l l h N h h h h h h h l h h l N % O h N E h N h l l l l l l = h = h = = N N h O = h E l h h h h ",
"h l h h = h = h h = h % . % = W = l h h = = h = h = h l % = l = O O = N N l l h h h % l l h % l = h h = l h % . % h C = = = l = ",
"l h h h = = = l h = h % . % = W = l h l % h = % l h h = = = l l + . % N C h l = l = l h h h = = = l h = l N % . O = C h = = l = ",
"= h = % = = = l % h l % . % l W N = = h h = % = % = h % h = = h %   % N N h h % h = = l = = = = h h % = h l =   O h N % % = % = ",
"O % O . O % % % O O O O O % l C = % % % = % % % % % % % % % O % .   = l l % % . O % O % O . O O % % O O % % O   % = N % % % % % ",
"O O . O O .     O O .   O = = l % % O O O O % % % . . . O O . O O O h l h O O . O O O O O . O O   . . O . . O O = l N O O % = . "
};
