/* XPM */
static char *torch09w401743666765[] = {
/* columns rows colors chars-per-pixel */
"64 64 118 2 ",
"   c #1D1D1D",
".  c #242424",
"X  c #282727",
"o  c #2C2C2C",
"O  c #2E3333",
"+  c #343434",
"@  c #383330",
"#  c #363E3E",
"$  c #3B3B3B",
"%  c #42362D",
"&  c #51392C",
"*  c #403936",
"=  c #413E38",
"-  c #45413F",
";  c #48453F",
":  c #554235",
">  c #5F4733",
",  c #5B463A",
"<  c #5B483B",
"1  c #61402E",
"2  c #6F432D",
"3  c #77482F",
"4  c #75512C",
"5  c #634332",
"6  c #6C4732",
"7  c #6C4A36",
"8  c #774932",
"9  c #7C4C32",
"0  c #724F3C",
"q  c #676339",
"w  c #3C4444",
"e  c #434343",
"r  c #4D4745",
"t  c #454A46",
"y  c #4D4943",
"u  c #444C4C",
"i  c #4B4B4B",
"p  c #4E514F",
"a  c #545A47",
"s  c #52504D",
"d  c #5A504A",
"f  c #585C4C",
"g  c #4C5454",
"h  c #525353",
"j  c #5F5B54",
"k  c #535B5B",
"l  c #5A5B5B",
"z  c #634E44",
"x  c #6D5140",
"c  c #606545",
"v  c #636841",
"b  c #7A7C46",
"n  c #696E57",
"m  c #6D725C",
"M  c #737756",
"N  c #777B51",
"B  c #7A7E53",
"V  c #585F60",
"C  c #5C6464",
"Z  c #616361",
"A  c #636B6B",
"S  c #757C61",
"D  c #6B7273",
"F  c #717979",
"G  c #875E2E",
"H  c #825035",
"J  c #895438",
"K  c #95672E",
"L  c #A69617",
"P  c #B4AF0F",
"I  c #BFAC0D",
"U  c #B1AC1C",
"Y  c #B8B213",
"T  c #BDB81B",
"R  c #8D8B2C",
"E  c #9E9A25",
"W  c #8B8C36",
"Q  c #A09C31",
"!  c #A6A326",
"~  c #B7B323",
"^  c #C1AD0E",
"/  c #C2BB0B",
"(  c #C8BE08",
")  c #CCC30A",
"_  c #D3C902",
"`  c #D8CE00",
"'  c #DCD206",
"]  c #E0D501",
"[  c #E5DA04",
"{  c #E1D60B",
"}  c #E8DD09",
"|  c #E5DB13",
" . c #E8DE1B",
".. c #EBE006",
"X. c #F0E60C",
"o. c #EDE316",
"O. c #EEE51E",
"+. c #D0CD38",
"@. c #F5EC25",
"#. c #F3EA2F",
"$. c #F9F026",
"%. c #FAF029",
"&. c #FEF63A",
"*. c #818442",
"=. c #EEE74D",
"-. c #FCF445",
";. c #FEF748",
":. c #F4EF52",
">. c #FEF851",
",. c #F4F05E",
"<. c #F6F162",
"1. c #F7F36C",
"2. c #FBF76C",
"3. c #F4F072",
"4. c #FDF974",
"5. c #FDFC8F",
"6. c #FDFB9B",
"7. c #FBFEB7",
/* pixels */
"e i i e e e i e e e $ $ e e e e t t e k A C C C C k C k C k g g A A A C A C C C C k k C C u e e e i i e i e e e $ $ e i e e e e ",
"i h h h h i h i h i $ $ p l h h u g V C A A A A A A A A C k u k D A D A A A C D C C C C C k i e i i i h h h h $ + $ Z l h h i s ",
"$ e $ e e $ $ $ $ o X + i h $ $ w w k V g k k g g k k k g w g k A V k g V g g C g k C g k u e + e $ $ e $ $ $ X . $ l i $ e e $ ",
"$ $ $ $ + = $ + $ . . + i i e e w w g k g g g g g g g g w w u k A g g u k u g k g k g g k g g + $ + + $ $ + o   . $ l $ $ $ $ $ ",
"+ e + $ + $ + + $ . . + i i $ e w k k w g g k w g g u g u # u g C g g k g g g u C g g g k k k # $ o + $ o $ +   . $ h e + $ + $ ",
"$ + $ $ o $ o + o .   O e e $ $ w w w g g w g w g g g u w w w g C g u g g w u u w g g w g w g w $ o + o o + .   . + h $ $ + O $ ",
"  o o o         .   . X $ + X o w w w w w w w w w # # w w # w g k w w w u w w w w w w w w w w w . .   .     .   . O e + X X   . ",
". . . . . . . .     . o $ + . # w w w w w w w w # # # w w w g g g w u w w w w w # # w w w w w w O   .       . $ + . X X X o X . ",
"i e $ $ e e e $ + + $ e + $ $ l C V k k k C V V g k V C k k C k V C C C C C C k w g C k C C k C g e e $ + $ e $ $ + $ $ e $ $ $ ",
"l i i i e e e e i e e e $ $ e F A A A A C C A C A C C C C V V V C V V C C C C g g g F D C C C C A h i h e e e e e e i e e $ $ $ ",
"h + $ + O + $ + O + e +   o u D C k g k w V g k g w k w k w k k k g g k g g k # w g D C g k g k k u + $ + $ o $ + O $ * o . O $ ",
"h e $ $ o + + $ + + $ o   X u D w k g k k w g w k g g k k w w g k w g g g k w # w g A g k k g k i u - $ + + + + $ + $ + X   X + ",
"s + $ + o + + $ + O + o   o u D w C k k w V k w k w C k k k w k g u g g u g g # w g A V g k k k g g + $ O o + + * + $ O X   o $ ",
"i $ + o + O o * o $ $ o   $ k D V k w k k w w k w w k w w w g g w g g g g g u # # g C k k w w g u g $ $ o o $ o $ X $ + o   o - ",
"e o .   . . . . . . .     w k C w w g w w w w w w w w w w w w w w w w w w w w # w g C g w w w w w w O .   . X . o . X .   . O e ",
"o .   . . .     . .     . w u k k w w w w w w g w g w w w w w w w w w w w w w w w k k w w w w w w # O .     . .     . X + O + + ",
"e i - $ e i e e - $ $ $ $ g V V V k k k g g u k k C C C V k k k k C C C k k k C V V V k k k V C g g k i e e e e $ $ $ e e e + + ",
"s l h i i i i i i e e i i V V C V C V C C k k k C D C D C C C A C C C C k V V k C V V V V V V g u D V i i e e i e e e e e s + e ",
"e h $ e $ $ + + - $ $ $ e i g g k k w k k g # u C D k C k k g k g g k w g g g g k w k k u k g # w D V $ e $ $ $ + e $ $ $ e $ $ ",
"e e $ e O O + o $ O $ $ $ u V u g k u g k w # k D C k V w k g w k g g g V w g g g k u g g g w # w C h $ $ o o $ O $ $ + $ e $ i ",
"e i $ $ X + o + $ O o $ + u u V w k w k w w # k A C k w g g w k g g g w k g g w g g k k u k w # w C V + $ o o o O - o o $ $ $ i ",
"e e o + X o + o $ o + $ o u g i u g g g g g w w C A g k w g k k w g k w g w g w k w w g V g u w u A k X + o o # X + + o $ + O $ ",
"e e o X X X X . o o o o o w w w w w w w w # w w C k w g w w w w w w w w w w w w w w w w u u w # w C V o X X X X . X o X o o O $ ",
"$ $ o o . X . X . . . . . w w w u w w w # w w g k k w w w g w w w w w w w g w w w w w w w w w w w k g . X X . X . X X X . X + $ ",
"i i e i w $ - $ O + $ h h V A V C V k g g k g k C V k C k C V k w g g V C C C C V k V V V V V C V V V i i $ $ i e e e i $ i e e ",
"e i i e i i i i $ + + h i V V A A C V C V V V k V V V C k V V g g V D C C C C C V C V V V V V V V V g $ $ o - h e $ - e i e i $ ",
"$ $ $ $ e $ $ $   o $ l + u u V g g g k g g g g k g g g g g w w w k D V w g k g u k g g g g g g u g e +   + e e + + o + + O $ $ ",
"$ + - + $ $ $ o   X + h o u g k k g g g g g k w g g k w k g k w g C F k g g k g g g V u k u g k g g $ o . O e e o o + $ o o $ o ",
"$ + $ $ - + + o . o $ V + $ g g u w g g g w V w g w g k w k g w w V F g k k g w k g g k g g g V g g $ .   + - e $ X + + $ o o o ",
"$ O $ o $ $ $ o   + + p o e u g k g g k g k w w g k g V g k g w w g D V w C g C g g g g V u g g g g $ O   . $ w o O + o $ + o + ",
"  . X .   . .     o $ e o + e g w g w g w w w w w w w w w w w w w k A g w g w g u g u u u u u u u u . .   X - $ o X . . . . X . ",
". . . . . . . . . X $ - .   O # w w g w w # w # w w w w w w g S c k C w w w g w g u w # # w w w w +       . $ $     . . . . . . ",
"$ $ - - e i e - $ $ e $ + $ g Z V C V V C C C C k k g k k n +.=.Q A C C k C V C A C k k k C C k C e $ $ i e e $ $ i $ $ + $ e e ",
"i - u e w i $ e e e e $ $ $ Z A C A C A C A C C C k g k S ~ #.,.' m C A C k C k C V V V V k C k k e $ $ i $ $ i e i e e r e e e ",
"$ o $ $ o $ + $ $ o +   + + h g V V k k k k k k u u p k B ) -.4. .a w w g g g u u g g u g g g g $ O   # i $ + $ o $ $ + $ o $ + ",
"$ o X + o $ X O O + o   o $ h $ k u k u k k u k w w u k B ) 2.:._ R u k g g k w k u g u k g g g + +   + e o $ o O o + o $ + $ o ",
"$ X + $ + $ + - * o +   X $ i $ g k g g g k u k w # u k B / 3.1.[ ) T u g g w g u g g g g g u g + +   + e $ $ $ o $ + $ + + + $ ",
"+ o o + + + o + + O $   . + i $ w u k w g u u g w # u *.! ) $.>.;.o.E g g w w k w g k u g k g $ o o   $ e $ + + o + $ o $ + $ o ",
". .   X . X . o o X X   o $ $ o X # # # # w # w w # w b _ ]  .<.6.@.' u g w w g w u w w u w # o . .   $ $ o o o o o o o o X o o ",
"    . .         .       O + $ . . X w w w # w # # w w c ( } &.5.7.O.P w w w w w # w w w # # . . . . . o $ . X X X X X X . o . X ",
"i e e i e e e $ e i h i e e $ $ w i g k k V C V V V V V ! ' %.4.2...W k k C k k C k C k C p e i e e e - e e $ e e $ e i $ i e e ",
"i i i i $ i i e i e e e e $ $ $ e l h C C C C Z C V V k n ! ' X...Y b V k k g k C k k C C i i t e e e e + + + l i e e $ e e e e ",
"$ o $ $ $ o + o e o o + o o   + e i $ $ k u w g g g g w g a L ^ I q g w g # g V C g g u $ + + $ + O + $ . o $ h $ $ $ o $ $ o + ",
"$ o o $ o + o $ O o $ o $ X . + e i O o e w u k u g g V g s 4 K G > k w w # g V C u u + $ o o $ o + o O   . $ h O + + $ o + $ o ",
"+ + O o O $ + + $ X o o $ X   + e p o o $ $ u k u g g u g i 6 J 9 > t g w # u k C g O $ O @ o o o - O +   X $ h $ + $ o + o $ o ",
"o $ + X + + O o + o + $ o o   + e e $ o w o + u w g i w h i 6 H 0 < p w g w w g k + @ O o $ + o + + o +     o p + + + X $ o + $ ",
". X X . . . . X o . X   o     $ e e .   o . . X # u u w w u & 9 6 ; w w # # u g w o X X . X . .   . . X     $ t X o X . . X . o ",
". . .   . . . . . . . . . .   $ $ $ X X   . . . . o # # w # & 8 6 - # w # O o $ $     . . . . . . . .       + $ X . . .   . .   ",
"$ i i e e e i e e e $ $ e e e e e e e e i i i i i e e i h h , 8 x l Z V h i e i e $ $ e e i e e e - O $ i i e e e i i e e $ $ $ ",
"i l h h h i h i h e $ + h V h h i h h i h i i h i h i h i $ & 8 8 d h h h h h h h h h i h e i i i e $ $ h h p h i h p h i $ + e ",
"e h $ $ e $ $ $ - O X + h h $ $ $ $ $ $ $ $ e $ $ $ $ e + . % 2 x - $ $ $ $ + e + $ e $ $ + $ + e + o $ h e $ - $ - $ $ + . o e ",
"e i $ - O - $ + $   . + i i $ - + $ $ $ $ + + + + $ + + o . + 1 z $ + + $ + + $ + $ $ + $ + $ + $ X . + h $ $ + $ $ $ $ . . o - ",
"e i + $ + $ + + $ .   + i i $ - + $ $ o + + $ o + + o $ o   X * r + + $ + O + o - $ $ + $ $ $ o $ o . $ i $ + $ + $ + $ .   o w ",
"e e $ $ o $ o O o   . O e e $ $ o + + O + o + o + + + + o . X $ e $ o + $ o o O o $ + X $ o + + + X   $ i + $ o $ O + o . . o $ ",
"$ + o o         X     o $ + X X . X . o X . . . X           X $ $ X . X . X . X . . . . X . . o .     + $ + o     .   . .   X $ ",
"$ + X . . . . .       o e + . . . .         .         . . . o $ o X X X o . X X . .         . X . . . + + X . .   .         X $ ",
"i $ $ $ e e e $ + + $ e + + $ e e e e $ $ i e e $ e $ e e i i e e $ o $ i e e e i e i $ $ $ $ e e $ $ $ e e e $ o + h i - e $ e ",
"h i i r e e e e i e e e $ $ $ Z h h h i e h i e h e e i i e i i - $ + i V h h i i h h i h i e i e e e $ i h e $ + + h i i e i e ",
"$ $ $ + + + $ + + + e +   X $ l $ $ + e + $ + $ $ + $ $ + $ e e o . + i h $ $ + $ $ $ $ + $ + + + $ O + - e +   + $ h $ + $ $ + ",
"O e $ $ o $ + + + + $ o   X + l + $ $ $ + + + + $ + + $ o + $ o . . o e e $ e $ + $ o e $ $ o $ O + $ o e + o   X + i o + O $ O ",
"$ + $ $ O + + $ $ + + o   X + h + - $ $ o $ O o $ + $ o + + $ $ .   o e i $ $ + $ + $ $ $ + + o + $ $ o e $ +   . + i $ + o $ + ",
"o $ + X o + o $ X + $ o   o e h $ o O + + o o o o + + o + + o $ .   o e $ $ $ X + + o $ o o + + + $ o + $ + o   . + e o o o o + ",
". X .   . . X X . . .     o $ i + o X X o o X X o X X o X X . X     + $ $ X .   X X   o .   . . X X .   o X .   X + e o X X o . ",
". .   . .       . .     . + + $ o X . X . . X o o       . .   .   . + e + . X   . . . . .   .         .   .   . o $ $ X X o o   "
};
