/* XPM */
static char *torch02w801743666765[] = {
/* columns rows colors chars-per-pixel */
"64 64 111 2 ",
"   c #0E0E0E",
".  c #131313",
"X  c #181816",
"o  c #1C1C1C",
"O  c #241F1C",
"+  c #24241E",
"@  c #29291F",
"#  c #33261E",
"$  c #232323",
"%  c #2A2522",
"&  c #2C2C24",
"*  c #2B2B2B",
"=  c #312B29",
"-  c #323226",
";  c #3F3526",
":  c #35352A",
">  c #3F352F",
",  c #39392D",
"<  c #323232",
"1  c #3E3E32",
"2  c #3B3B3A",
"3  c #472F23",
"4  c #433B2C",
"5  c #543D2B",
"6  c #5D3C2A",
"7  c #443E30",
"8  c #4F3A30",
"9  c #7B761C",
"0  c #7C791C",
"q  c #504E20",
"w  c #5C4229",
"e  c #554D28",
"r  c #5E5C26",
"t  c #424236",
"y  c #494630",
"u  c #45453A",
"i  c #4A4A3D",
"p  c #504637",
"a  c #5E4231",
"s  c #66432E",
"d  c #6B432E",
"f  c #764C2C",
"g  c #605E23",
"h  c #684430",
"j  c #6E4934",
"k  c #774931",
"l  c #7C4C32",
"z  c #626021",
"x  c #6A6722",
"c  c #69672F",
"v  c #757325",
"b  c #636233",
"n  c #4D4D41",
"m  c #515144",
"M  c #555548",
"N  c #875D2C",
"B  c #825035",
"V  c #895438",
"C  c #95672E",
"Z  c #807C24",
"A  c #8D8918",
"S  c #948E12",
"D  c #918218",
"F  c #908B1E",
"G  c #999417",
"H  c #97921E",
"J  c #A19A0C",
"K  c #A79F10",
"L  c #B6AD0C",
"P  c #BFAC0C",
"I  c #BEB506",
"U  c #BEB60B",
"Y  c #A8A110",
"T  c #BCB515",
"R  c #8B8625",
"E  c #9A9622",
"W  c #C4AF0F",
"Q  c #C0B707",
"!  c #C5BC06",
"~  c #C5BB0D",
"^  c #CEC404",
"/  c #D7CD00",
"(  c #D8CE01",
")  c #CBC211",
"_  c #E2D600",
"`  c #E9DD03",
"'  c #E4D909",
"]  c #EBE007",
"[  c #F1E60F",
"{  c #F3E90E",
"}  c #F0E511",
"|  c #F8ED15",
" . c #FBF11A",
".. c #F5EB22",
"X. c #F9EE20",
"o. c #FFF530",
"O. c #E8E245",
"+. c #F8F246",
"@. c #FFF749",
"#. c #F4ED58",
"$. c #FFF752",
"%. c #FCF65B",
"&. c #FAF667",
"*. c #FDF965",
"=. c #F8F67A",
"-. c #FAF87E",
";. c #FDFA83",
":. c #FDFC89",
">. c #FDFC95",
",. c #FDFB9F",
"<. c #FBFDB5",
/* pixels */
"* * * * * $ * * * $ o o $ * * * * * , u i i i i i u u i u t 1 1 i m i i i i i i u u t u u i 1 $ $ * * $ * $ * $ o $ $ * * $ * $ ",
"* * * * * * * * * * $ $ * < * * * * n i n n n n i i n n i u , t m m m m m m i i i n n i i i u * * * * * < * * $ o o 2 < * < * * ",
"o * $ * $ $ $ $ $ X   o * * $ $ + & t u 1 u u t t t t u , , , t i u u t u t t u 1 t u 1 u 1 u & $ o $ $ $ $ o . . o 2 * o $ $ $ ",
"$ o o $ . $ $ o $     o * * $ $ o , 1 t 1 1 1 , 1 1 1 1 , : , u m 1 , , t 1 , u 1 t t , u 1 1 : $ o o + o o o   . o < o $ $ o $ ",
"o $ o o $ o o o $ .   o * * $ $ o 1 u , 1 1 1 , 1 1 , t , : : 1 u 1 1 t 1 , 1 , t 1 t 1 y 1 t , $ o X $ X o X   . $ < $ o $ o $ ",
"o o o $ . $ o o X     o $ * $ o + 1 , , 1 , 1 , 1 1 1 , : : , 1 i 1 , , 1 , , , , 1 1 , 1 , 1 , * . o X . o .   . o * o o o o o ",
"  . X X               . $ o .   @ : - , , - : - : - - - - - : 1 t , - , : : , , - , , - , - : , + .   .   . .     o * o . .     ",
". . .       .         . $ o . . - - - - - - : - & & : - : - , u , , , : : : , - - - - - - , : : &           . o o . . . . X . . ",
"$ $ $ o $ $ $ $ o $ o $ o o $ $ i u u t u i u u 1 t u u u t i t t i i i i i u t 1 , i u i u u i 2 * $ $ o o $ o o o o $ $ o o $ ",
"< * * * $ * $ $ * $ * $ $ o $ 2 m i i i i i i i i i i u u i u u u i u i u u i t 1 1 M m i i i i n < * * * $ * * $ * * $ $ $ o $ ",
"< o $ o o o o o X o $ o   . $ 2 u t 1 u 1 t 1 t t 1 t , t 1 , t t 1 1 t t t 1 - , t m i 1 t 1 1 u * o $ o o o o o o o $ o . o o ",
"< $ $ o . $ o o o o $ .   . . n 1 1 1 1 , , 1 , t , t 1 , , 1 1 t , 1 t , 1 , - , t i 1 u u 1 u 1 & $ o o o o o o o o $ .   . o ",
"* o $ o X o X $ o o o X   . o n , u 1 u , 1 , , t , t 1 , 1 1 t 1 1 , t , 1 1 - - , m u 1 1 1 t 1 < o $ o . o X $ o o . .   . o ",
"* $ o . o o o o . X $ X   . o n t , 1 1 1 , , , , , 1 , , 1 1 1 , 1 1 , t 1 , - - , i 1 t 1 , 1 , : o o . o o o $ . $ $ .   . * ",
"$ .     . . . .   . .     X $ 2 , , , : , , , : , : , : , : : , , , , - , , - - - 1 u 1 : : - , - - .     . . . .   .       o $ ",
"o .   . .       .         o o 2 , , : : : , : , , , : : - - - - - : - - - - , - , t y , : : - : - -   .       .     . . o o o o ",
"$ * $ $ $ * $ $ $ $ o o $ $ * 2 u t t t 1 t 1 1 t i u i u t u t y u u i t u u u u u u u 1 u u u 1 1 * * $ * $ $ $ o o $ $ * o o ",
"* < < * * * * * * $ $ * * $ * u u i u i i t t t i M n m i i i i i i i u u u t u u u u i u u u 1 1 m * * * $ $ * $ * * $ * * o $ ",
"* < $ $ o o o o $ $ $ o $ o $ 1 t 1 , t t , - 1 i m u u 1 1 1 1 1 1 t , 1 1 1 1 u 1 1 t 1 1 1 - : n * o $ $ $ o o $ $ o $ $ o $ ",
"$ $ o $ o o o o $ o o $ $ . $ < t t , 1 t , - t m i t t 1 t 1 1 t t 1 1 t 1 1 , , t 1 t 1 1 - - : u $ $ $ o . o o o o o $ $ $ * ",
"$ $ o $ . o . o $ o . $ X X X 1 , t , t , : - t m i 1 1 1 1 , 1 1 1 1 , 1 1 1 , 1 t 1 t , 1 , - , u $ o $ X o . o $ o o $ o o * ",
"* * . o . o o . o o o o X . $ 1 , t , , , 1 - 1 i i 1 u , t 1 1 , 1 1 , , : 1 , t , 1 1 t 1 1 - , i $ . o . o o . o o . o o o $ ",
"$ * o . . . . . . . . X . . . & - : : , : - - , u y , , , , : , , : : , , : : : , - : - 1 1 , - : u $ X . . . .   . . . o . o o ",
"$ o . . . . . . . . . . . .   & , , : : - - : , t 1 : : : : : : - - - - : , , : - - : : - : : : : , o . . . . . . . . . . . o o ",
"* * * $ $ $ $ o o o o < < * * 2 t t t t t t , t i t i i t i u u 1 , 1 u u i i u t t u u u u u u u 2 * * $ $ o * $ $ $ * $ * * $ ",
"$ * * * * * * * o o o < * * * 2 i i u i i i i t i t t i u u i 1 1 t m i i i i i i i i u u u u i t < $ $ o o $ * $ $ $ $ * $ * $ ",
"$ o $ o * o $ o   . o < o o o * , t , t , , , , t , t 1 , 1 t - , t m u , 1 t t 1 1 1 1 1 1 1 1 1 * o o   o $ * o o . o o o o o ",
"o o $ o $ o $ .   . o < . $ o * t t t t t 1 t , t 1 t , 4 t t - 1 u M u 1 t t 1 t t t 1 t 1 1 u 1 + o .   o $ * . o o $ X . o o ",
"$ o $ o $ o o o . o $ < o o o $ , , 1 t , , t , t , , t , t t - 1 u M t t 1 1 1 t 1 1 t 1 1 t t 1 X X .   o $ * o . o o o . o . ",
"o o o o o o o .   . o * . $ . o , 1 1 t 1 t , - t , t 1 , 1 t - , t i u 1 t 1 t 1 1 t 1 t 1 1 t , $ o o   . o $ o o o . $ o . o ",
"  . .   . .   .   . $ $ . o . o & , , , : , : : , : , : , , : & : 1 i 1 : , 1 1 , , 1 , 1 , , , & . . .   . $ $ . . . . . . .   ",
".   . . . . .   . . $ $ . .     + : , , : - - - : : : : : : : q 0 1 t , : : , , 1 , : - - - : : o .       . o $       .   . . . ",
"$ $ $ $ $ * $ $ o $ $ $ o $ * * * u u u u u i u u t 1 t u u u ' #.H u i t u i i n i u u t u u u * $ o $ * $ $ $ o * $ o o $ $ $ ",
"$ $ * $ $ * $ $ $ $ $ o o o < < * u i m i m i m i u 1 t m i R } =.) b u u u u u u u u u u u t 1 * $ o o * $ $ * $ * $ $ * $ $ * ",
"o o o $ . $ o $ $ X $   o $ < $ $ - t u t t t t 1 : 1 t n t K  .;.' x z G r 1 1 , 1 1 1 t , t & X X   $ * o o o . $ o o o X o o ",
"o o . o o o . o o o .   . o < o $ o t 1 t t t t : - , t E 1 K +.%.^ S A I r 1 1 t , 1 , t t , + X o   o * o o X o . o o o o o o ",
"o . o o o $ X $ $ X o   . o * o o o : 1 1 1 1 t : - , t T 1 Y O.=._ ^ I ^ r 1 1 , 1 1 1 1 1 * $ o o   o $ $ $ o . $ o o o o o o ",
"o o o o X o . o o . o   . $ * o $ . $ , t , , , : - , u _ U L  .;.o.| ) 0 , 1 1 , 1 t , 1 1 $ o . .   o * o o o o o o o $ o o o ",
". .   . . . . . . . .   . o $ . .   . + - : - : - - : u ( / ] @.,.%.] ! 0 : : , - , : : , & . X . .   $ o X X . . . o . . . . . ",
"    .           .     . o o o . .   . X - - - - & - , , L / [ *.<.&.] J g , , - - : : : & .     .   . X $   . . . . . . . o . . ",
"* $ $ * $ $ $ $ $ * < * $ $ $ o $ * $ $ < u i i t t u i v ( _ $.>.../ Z u u u t i u u u 2 $ * * $ * $ $ $ $ $ $ * o $ * o $ $ $ ",
"$ * * * $ * * $ * $ $ * $ $ o $ * < * * * u i i i u i t u c L ] { ^ F t t t , u i u u t * * * $ $ * $ * o o o < * * $ * * * $ * ",
"o o $ o o . o o $ . o o o o   o $ * $ o $ o : 1 1 1 1 , t 1 e P Q D u , 1 - 1 u i 1 1 o o o o o o o o o   . o < o o o . o o . o ",
"$ . . $ o o o o o o o . o .   o $ * X X + X $ t , t 1 t , y f C N w t , , & 1 u i , + o $ X . $ . o . o . . o < o o o $ o o o o ",
"o o o . . o o o o . o . o .   o $ * X . $ X X < , 1 t , > 8 d V l 6 , t : - 1 t i - . o o o X X . $ o o   . o < * o o . o . $ . ",
". o o . o o o o o X o o X X   o * * o X o X X o $ 7 , , 1 4 s B k w 7 : , - : t 1 o o o . $ X X o o . o   . . < . o o . o o o $ ",
". . . .   .   . . . . . .     o $ $ .   . . . . . o : : - , 5 k h 4 : - : - : - $ . . . . . . .   . . .     o * . . . . . . . . ",
". . .   . .   . . .     . . . o $ o . .   . .   .   o & : - 5 k h ; - : - @ X o o     .   .   .   . .       o $ . . .   .   .   ",
"$ * * $ $ $ * $ * $ o o $ * $ * $ * $ * * * * * * $ * $ = < 8 k j p 2 2 < * $ * $ $ $ * $ * * $ $ $ o $ $ * $ * $ * * $ $ $ o $ ",
"* < < * * * < * * * $ o < < * * * * * * * * * * * * * < * $ 3 k h 2 < < < < * < * < * * * * * $ * $ $ o < < * < * * * * * $ o $ ",
"* * $ $ $ $ $ $ $ . . o * < $ $ $ o $ o $ $ $ $ o $ $ $ o . # h 6 * $ o $ $ o $ o $ $ o $ o $ o * . . o < $ $ $ $ $ o $ o . o $ ",
"$ * o $ o o $ o o . . o * * $ $ $ o o o o o o o o o o o . . O 6 8 o o o o o o o o $ $ . $ o $ o o . . $ < o $ o $ $ o $   . . $ ",
"$ * o $ o o o o o     o $ * $ $ o o $ o o o $ . o o . $ .   . $ = o o $ o o o o o o $ o $ o o . $ . . o * o o o o $ o $ .   o $ ",
"$ * o $ . $ . o o .   o $ * o o o o o o o . o o o o o o . . . o * o . o o . . o o o o . $ . o o $ . . o * $ o o o . o . .   . o ",
"$ o . .   .     .   . . $ . o .   . . . .   .   .     .     . o $ . . . . . . . . . .   . . . .   .   o o o .         .     . $ ",
"o o . . .     .       . $ o . . .         .             .   o $ X . . . . . .   . .         . . .     o o . .     . .       . $ ",
"* $ $ o $ $ $ o o o o $ o $ o $ * $ $ $ $ * $ $ o * $ $ * * $ * $ o X o * * $ $ * $ * $ o o $ $ $ $ $ o $ * $ $ o o * * $ $ $ $ ",
"< * * * $ * $ $ $ $ $ * $ o $ 2 * * * * * * * * * $ $ * * $ * * $ $ o * < < * * * * < * * * $ * $ $ $ $ * * $ $ o o < * * $ * * ",
"o o $ o o o o o o o $ o   . o < $ $ o $ o o o o $ o o $ o o $ $ . . o * * $ $ o $ $ $ $ $ $ o o o o o o $ $ o   . o < o o o o o ",
"o $ o o o $ o o o o $ .   . o < o o $ o o o o o o o o $ . o $ . .   o $ * o $ $ o o . $ o o . $ o o o o $ o .   . o * o o o $ o ",
"$ o $ o o o o $ o o o .   . o < o $ o $ . $ o . $ o o o o o $ $     . $ * o $ o $ o o o $ o o . o $ o o $ $ o   . o * o o . o o ",
". $ o . . o . $ . o $ .   . $ < $ . o o o . . o . o o . o o . $ .   . $ $ o o . o o . $ . . o o o o . o o $ .   . o $ o . o . o ",
". .     . . . . . .       o $ * o . . . o . o . o . . . . . . .     o $ $ o .   . .   o .   . . . . . . . .     . o * . . . o . ",
".     . .         .     . . o $ o . . . .   . . .       .     .   . o $ o   .   . .     .           .         . o o $ . . . .   "
};
