/* XPM */
static char *torch051743581659[] = {
/* columns rows colors chars-per-pixel */
"64 64 113 2 ",
"   c #070707",
".  c #080807",
"X  c #0B0B0B",
"o  c #131306",
"O  c #14140D",
"+  c #1B1B0B",
"@  c #131313",
"#  c #1B1613",
"$  c #1A1A13",
"%  c #1B1B1B",
"&  c #211A17",
"*  c #2C1F17",
"=  c #201C1A",
"-  c #222206",
";  c #2C2C06",
":  c #24240C",
">  c #2E2E09",
",  c #33330D",
"<  c #39320F",
"1  c #3B3A0C",
"2  c #232312",
"3  c #2C2C13",
"4  c #24221C",
"5  c #2C2C1B",
"6  c #363611",
"7  c #3C3512",
"8  c #3A3A14",
"9  c #323219",
"0  c #3E3E19",
"q  c #222222",
"w  c #313120",
"e  c #403816",
"r  c #4F381B",
"t  c #523A1E",
"y  c #593F1F",
"u  c #463127",
"i  c #423921",
"p  c #5A3B25",
"a  c #573B2A",
"s  c #48470C",
"d  c #4A490C",
"f  c #514F0A",
"g  c #575305",
"h  c #595607",
"j  c #54520D",
"k  c #434215",
"l  c #4D4C16",
"z  c #41411B",
"x  c #4A401D",
"c  c #4D4C19",
"v  c #514C10",
"b  c #555312",
"n  c #52521A",
"m  c #64620F",
"M  c #777308",
"N  c #78740C",
"B  c #656210",
"V  c #7A7715",
"C  c #464620",
"Z  c #634027",
"A  c #664328",
"S  c #6B442B",
"D  c #734F26",
"F  c #77482F",
"G  c #774930",
"H  c #7C4C32",
"J  c #827E0B",
"K  c #865D2B",
"L  c #825035",
"P  c #895438",
"I  c #95672E",
"U  c #8D870A",
"Y  c #968F04",
"T  c #928D0C",
"R  c #9B9507",
"E  c #9F9806",
"W  c #9A930A",
"Q  c #A39C05",
"!  c #A4930E",
"~  c #A9970D",
"^  c #ABA304",
"/  c #B8AF04",
"(  c #BAB104",
")  c #C3AF0E",
"_  c #C5BC06",
"`  c #C3BA12",
"'  c #C3BB19",
"]  c #CCC203",
"[  c #DDD203",
"{  c #D6CD14",
"}  c #DAD11B",
"|  c #E6DB02",
" . c #EDE10A",
".. c #F3E90E",
"X. c #C7C028",
"o. c #E9E021",
"O. c #FBF22D",
"+. c #EEE635",
"@. c #F2EA34",
"#. c #FCF233",
"$. c #FDF439",
"%. c #C7C240",
"&. c #E4DF4C",
"*. c #E8E24D",
"=. c #FCF443",
"-. c #F6F056",
";. c #FDF757",
":. c #FAF775",
">. c #F7F47B",
",. c #FEFA79",
"<. c #FDFB8C",
"1. c #FDFB91",
"2. c #FBFEB7",
/* pixels */
"% % % % % % % % % % @ @ @ % % % % % % % % q % % % % % % % @ @ @ q % % % % % % % % % @ % % % % % @ % % % % % % % @ @ % q % % % % ",
"% % q q q % % % % % @ @ % q % q % % % % q % q % % q % % % % X @ q q q q q q % q % % q % % % % % % % % q q % % @ @ @ q q % q % % ",
"@ % @ % % @ @ @ @ @ X @ % q @ % @ @ @ @ @ @ % @ @ @ @ % @   @ @ q % @ @ % @ @ % @ @ % @ @ @ % @ @ @ @ % % @ @ X   @ q % @ % @ @ ",
"@ @ @ @ @ @ @ @ @ X   @ % % % @ @ @ @ @ @ @ @ X @ @ @ @ X X X @ % @ @ @ @ X @ @ @ @ @ @ @ @ @ X @ @ @ @ @ @ X   X @ q % @ @ @ % ",
"@ @ @ @ @ @ @ @ @     @ % % % @ @ @ % @ @ @ @ @ @ @ @ @     X @ % @ @ @ @ @ @ X % @ @ @ % @ @ X % X X @ @ @ @     @ q % @ @ @ @ ",
"@ @ @ @ X @ X X X     @ % % @ @ X @ @ X @ X @ X @ X @ @ @   X @ % @ @ X @ X X X X @ @   @ X @ @ @ X @ @ X @ X   X @ % @ @ @ @ @ ",
"X X X X       X X X X X @ X X X   X X X     X .             X @ @   X X X X X X X X X   X   . X   X               @ % @ X       ",
"X X X X X   X         X % @ X X X                           @ @ @ X X X X X X     . .   X   X X     X       X @ @   X X   @ X   ",
"% % @ @ @ @ % @ @ @ @ @ @ @ @ % % % $ @ @ % % @ @ % @ % % @ % @ % % % % % % % % X X % % % % % % @ % @ % @ @ @ @ @ @ @ @ @ @ @ @ ",
"q % % % % % % @ % @ % % @ @ @ q % q % q % % % % % % % $ % % % % % % % % % % % @ @ @ q q % % % % % q % % % % % % % % % % % @ @ % ",
"q @ @ @ @ @ @ @ @ @ @ @ X X @ q @ @ @ % @ @ @ @ @ @ @ @ @ @ @ @ % @ @ @ @ @ @ . X @ q % @ @ @ @ % @ @ @ @ @ X @ @ @ @ @ @   @ @ ",
"q @ @ @ X @ @ @ @ @ @ X   X @ q @ @ @ @ @ @ @ X @ X $ 2 : : , , 3 : + % X @ @ . X @ q @ @ % @ @ X @ @ @ @ X @ @ @ X @ @       @ ",
"% @ @ @ X @ X % @ @ @ X   X @ q @ @ @ @ X @ @ O 2 > 8 6 , 6 , 1 , , , 8 > 2 O . . @ q % @ @ @ @ @ @ @ @ @ X @ @ @ @ @ @ X   X @ ",
"q @ @ X @ @ X @ X @ @ X   X @ q % X X @ @ X + > , , 6 , , , , , > 6 , , 6 , , o   @ % @ @ X X @ X @ @ @   @ @ X @ X @ @ X   @ % ",
"% X     X X X X . X X     X @ % @ X X X @ ; , > , > > > , > > > > > , > , > > ; + $ % @ X .   @   X X     X X X X   X       X % ",
"@               X       X @ @ @ X X X X : > > > , , > > > ; ; ; ; > > ; ; > > > > > @ X X X . X     X         X       X @ X @ @ ",
"% % % @ % % % % % @ @ @ @ % % @ % @ @ 3 8 , , 6 8 0 8 8 8 8 8 6 8 8 8 8 8 8 8 8 8 8 9 @ @ % % % @ @ % % @ % % % @ @ @ % @ % @ @ ",
"% q % % % % % % % % % % % % % % % % 5 8 0 8 6 8 z z z z 0 z 0 z 0 0 0 8 8 8 8 8 8 8 8 5 % @ % @ @ q q q q % % q % % % % % q @ @ ",
"% % @ % @ @ @ @ % @ @ @ @ @ @ @ @ 2 6 8 8 , ; , z z 8 8 , 6 , 6 6 6 6 , 6 6 6 , 8 6 6 6 O @ X .   q % @ % @ @ @ @ @ @ @ @ % @ @ ",
"% % @ % @ X @ X @ @ @ @ @ X @ @ $ 6 , , , , ; 8 z z 6 8 , 6 6 , 6 6 6 6 6 6 1 , , 8 6 6 6 $ X . X q @ @ @ @ X @ X @ @ @ @ % @ % ",
"% % @ @ X @   @ @ @ X @ @ X X @ : 6 , 1 , , ; 8 z 0 6 , 8 , , 8 , 6 , > 6 6 , > 6 6 6 1 , 2 @   X % % @ @ @ @ X @ @ @ @ @ @ @ % ",
"% % X @ X @ @   @ X @ @ X @ @ O > , , , , , ; , 0 z 6 6 , 6 , , , , , , , , , > 6 > , , 8 , X .   q @ X @ X X @ X X @ X @ @ X % ",
"@ % @ X X X X . X X X X X X X + > > > , ; ; ; , 8 8 , , , ; , ; > > > , > > > > , ; > > , , + . X % % X   X X X X X X X X X @ @ ",
"@ @ X X X   X X X X X X X X . : > , > > > ; ; , 1 , > > > > > > ; ; ; ; > , , > ; ; > > > > ; X X @ @ X X X   X X     X X X @ @ ",
"% % % % % @ @ @ @ X @ q q % % 0 8 8 6 6 , 8 , 8 8 8 8 8 8 8 0 8 , , 6 8 0 0 0 8 8 8 8 8 8 8 8 = @ % % % % % @ @ @ @ @ % % % @ % ",
"% % % % % % % % @ @ @ q % % 5 0 0 0 8 0 0 8 0 8 0 8 8 0 8 8 8 6 1 8 z z 0 0 0 0 8 0 0 8 8 8 8 4 % % % % % % % q % % % @ @ X q q ",
"% @ @ @ % @ % @   @ @ q @ @ : 6 , 6 , 8 8 , , , 8 , , , , 6 , > > 8 z 8 , 6 6 6 , 6 6 , 6 6 , 3 X @ X @ @ @ @ % @ % @   X @ q @ ",
"@ @ @ @ @ @ @ X     @ q X % > 8 8 6 , 6 , , , , 6 , 8 , 6 8 6 > 6 8 c 8 , 6 6 , 8 6 8 , 6 , 6 > @ @ @ @ @ @ @ @ @ @ @   X @ q X ",
"@ @ @ @ % @ @ X   X @ q @ @ 3 8 , , , , , , 6 , 8 , , 1 , 6 6 > , 8 C 1 8 6 6 , 8 6 , 8 6 6 6 9 @ X @ @ @ @ @ @ @ @ X   X @ q % ",
"@ X @ @ @ @ @ @   @ @ % @ @ > 6 6 , , 8 , 8 , ; , , 6 6 , 6 6 9 , 6 z 8 , 8 6 8 6 , 8 , 6 , 6 6 @ @ @ @ @ @ @ @ @ @ @   X @ q X ",
"    X X   X X     @ @ %   @ > , , , , , , , ; , , > , > , , m V , 6 0 6 ; 6 > 6 , , , , , , > > X X X     X X X X       X @ % X ",
"  X X         X   X @ @ X   - ; > > , > ; ; ; ; ; > > > > h X.X.f 6 8 > > > , > , , > ; ; ; > 3 X X   X   X     X   X X X @ @ X ",
"% % % @ @ % % @ @ @ @ % @ @ 9 8 8 8 8 0 8 8 6 6 8 8 , 8 8 W @.&.( l 8 0 8 8 0 0 z 8 8 8 6 0 8 6 % @ @ @ % % % % @ % @ @ @ @ % @ ",
"% q % % % % % % % % % % $ $ 9 8 0 8 8 8 8 0 8 8 0 , 8 , n [ $.-.] l 0 0 8 8 8 8 8 0 8 0 8 8 8 9 % % @ @ q % % % % % % % % % @ @ ",
"% % @ @ @ @ @ @ @ @ @   @ @ 3 > , 6 , 8 , 6 8 , , ; , 8 c ` :.*.Y , , > 6 6 6 6 , , , , 6 6 6 2 X @ . @ q @ @ @ X % @ @ @ @ X X ",
"% % @ @ X X X @ X @ X @ @ @ 2 , , 6 , , , , , , , ; , 8 c ' :.} Q j > 6 , , 8 > 6 , 8 , 1 , , 2 X @ . @ % @ @ X @ X @ X @ @     ",
"@ % @ % @ X @ @ @ @ @ @ @ @ @ , , , , 8 , 8 8 , , ; ; , n { >.+.[ / E d 6 , > 6 , , , , , 6 , $ @ @   @ % @ @ @ X @ X @ @ @ X   ",
"% % @ @ @ @ @ @ X @ @ X % X @ : , , , 6 , , , , 8 ; , U T [ O.;.$.] M 1 6 > , 1 , , 8 , 6 6 3 @ X X   @ q @ @ @ @ @ @ @ @ @ @   ",
"% %   @ X X X @ @ X X X X X . + ; > > , > > , > , ; 1 M ]  .o.<.,.[ ^ d > > > > ; , > > , > + X . X   @ % X @ X X X @ X X X     ",
"@ @     X X     . X X X .     . ; > ; ; ; ; ; ; ; ; , 1 Q  .=.2.<./ h > > > , > ; > > ; ; ; . . .   X @ @ .     X     X X X     ",
"% @ % % % % @ % % % q % % % @ @ 3 8 8 6 8 8 8 0 8 7 8 k E [ #.1.=./ m 6 8 8 8 6 8 8 8 8 , 2 X @ % @ % % % % % % % % % % @ @ % @ ",
"% % % % @ % % % % % % @ % @ @ @ 4 z z 0 0 0 8 0 0 8 8 8 z ^ [ ..[ U b 8 8 8 , 8 z z 0 z 0 % % % % % % % % % % % % % % @ @ @ q % ",
"@ @ @ @ @ X @ X % X X @ X @   @ % 4 6 6 1 , > 6 , 6 6 > , v ~ ) ~ e , , , ; , 8 z , , 6 + @ @ @ X @ X @ @ @ @ @ X @ @   X @ q % ",
"% X X @ @ @ X @ X @ @ X @ X   @ % % : , 6 > , 6 , 6 , 1 , e D I K x 8 > , ; , 8 z , , : @ @ X @ X X @ @ X   @ X @ X X   X @ q @ ",
"X @ @ X X @ @ X @   @   @ .   @ $ % @ : 6 , , 6 , , , , 6 e S P H Z < , > ; , 8 z , : @ @ X @ @ @   @ @ @ X @ X @ @ @   X @ q % ",
"X @ @ X @ @ @ X @ @ @ @ @ X   @ % % @ X 3 , , 6 , , , , 6 7 Z L D t 7 > , ; , 6 z ; X @ X @ @ X @ @ @   @ @ X @ @ X @     @ q X ",
"X X X X   X     X X X     . . @ % @ . . X : > > > > , > > > r G A 7 > > > ; , 8 9     X X X X X X X   X X X X             @ % X ",
"X     X   X   X X   X X       @ % @ X X . . + ; > > ; > ; > r G A 7 ; ; ; ; > $ @   . X .           X   X   X   X         @ % X ",
"% % % % % % % % % % @ @ % % % % % % % % % % % q 5 9 0 0 8 7 p G S x z z 9 5 % % % @ @ % % % % % % @ @ @ % % % % @ % % % % @ @ % ",
"% q q % q % % % % % @ @ % q q % % % % % % q % % % % 4 5 9 3 r G S i w q q q q q % % q % % % % % % % @ @ q q q q % q % q % @ @ % ",
"% q @ % @ @ @ @ % @   @ % % @ @ @ @ @ @ @ % @ @ @ @ @ % @ X * S a % @ @ % @ @ @ @ @ % @ @ @ @ @ @ @ X @ q @ @ % @ @ @ @ @ X X @ ",
"% % @ @ @ @ % X @     @ q % % % @ @ @ @ @ @ @ @ @ @ @ O X   # p u @ @ X @ @ @ @ @ @ @ @ @ @ @ @ @ X X @ % @ % X @ % @ @     X % ",
"@ % @ @ @ @ @ @ @     @ % % @ @ @ @ @ @ @ @ @ X @ @ X @ X   X % 4 @ @ @ @ X @ X % @ @ @ @ @ @ X % X   @ % @ @ @ @ @ X @ X   @ @ ",
"% % @ @ X @ @ @ @     @ % % @ @ @ @ @ X @ X @ @ X @ @ @ X . X @ % @ X @ @ X X @ X @ @ X @ X @ @ @ X   @ % @ % X @ @ @ @ X   X @ ",
"@ @   @             X X @ @ @     X X X     X   .     X     X @ @ X X X X X X X   X X   X X   X       @ @ @ X         X     X @ ",
"@ @ X       X         X @ @   X X                       X   @ @ X X X X X X   X X X         X       X @ @ X X       X         % ",
"% % @ @ @ @ % @ @ @ @ % @ @ @ % % % % @ @ % % @ @ @ % % % @ % @ % % % % % % @ X @ % % % % % @ q @ @ @ % @ % @ @ @ @ % % @ X @ % ",
"q % % % % % % @ % % @ % @ @ @ q % q % q % % % % % % % @ @ % % % % % % % % % @ @ % q q % % % q q q % % @ % @ % % % % % % @ @ @ q ",
"@ @ @ @ @ @ @ @ @ @ @ @   @ @ q @ @ @ @ @ @ @ @ @ @ @ @ @ @ @ @ @ @ @ $ % X   @ % q @ @ @ @ @ @ @ @ @ @ @ @ @ @ @ @ % @   @ @ q ",
"@ @ @ @ X @ @ @ @ X @ @     @ q @ @ @ @ @ @ @ X @ X @ @ @ X X @ @ X @ @ @ X . X % % @ % @ @ @ @ @ @ @ @ @ X @ @ X % @ X   X @ q ",
"@ @ @ @ X @ X @ @ @ @ X   X @ q @ @ @ @ X @ @ X @ @ @ @ @ @ X @ X @ @ @ @ X   X % % @ @ @ @ @ @ @ @ @ @ @ @ @ @ X % @ @     @ q ",
"@ @ @ X @ @ @ @   @ @ @   X @ q @ @ @ @ @ X   @ @ X @ X X @ @ @ X @ X @ @     @ % @ @ @ X @ @ X % X @ X X @ @ X @ @ @ X     @ % ",
"X X     X X X X   X       X @ % X X X X @ X X X X X X X X X X X X X X X X     X @ % X X   X X   X X     X X X X   X X X   X @ % ",
"                X         @ @ @ @ X X   X   X X @ X X   X           X         @ @ @   X     X   X               X         X @ @ "
};
