/* XPM */
static char *torch08w601743666765[] = {
/* columns rows colors chars-per-pixel */
"64 64 202 2 ",
"   c gray22",
".  c #505050",
"X  c gray35",
"o  c #565656",
"O  c gray34",
"+  c gray33",
"@  c #4E4E4E",
"#  c #4C4C4C",
"$  c #585858",
"%  c #5B5B5B",
"&  c #5A5A5A",
"*  c #4B4B4B",
"=  c gray36",
"-  c #5D5D5D",
";  c #515151",
":  c gray32",
">  c gray31",
",  c gray24",
"<  c #606060",
"1  c #5F5F5F",
"2  c gray40",
"3  c gray27",
"4  c #646464",
"5  c #626262",
"6  c gray38",
"7  c #494949",
"8  c gray30",
"9  c gray42",
"0  c #3E3E3E",
"q  c gray19",
"w  c #535353",
"e  c gray25",
"r  c #484848",
"t  c gray28",
"y  c gray29",
"u  c #414141",
"i  c #686868",
"p  c #313131",
"a  c #3A3A3A",
"s  c #3C3C3C",
"d  c gray26",
"f  c #393939",
"g  c gray20",
"h  c gray17",
"j  c #464646",
"k  c #434343",
"l  c gray18",
"z  c #444444",
"x  c #3F3F3F",
"c  c gray37",
"v  c #2D2D2D",
"b  c #191919",
"n  c gray23",
"m  c gray21",
"M  c #1B1B1B",
"N  c gray10",
"B  c #555555",
"V  c #6A6A6A",
"C  c gray39",
"Z  c #2F2F2F",
"A  c #373737",
"S  c #343434",
"D  c #252525",
"F  c #272727",
"G  c #353535",
"H  c gray15",
"J  c #2C2C2C",
"K  c gray13",
"L  c #222222",
"P  c #202020",
"I  c gray16",
"U  c #656565",
"Y  c #2A2A2A",
"T  c #323232",
"R  c #282828",
"E  c gray14",
"W  c gray11",
"Q  c gray12",
"!  c #1D1D1D",
"~  c #1E1E1E",
"^  c #232323",
"/  c #7E7B39",
"(  c #827E3C",
")  c #676767",
"_  c #938E35",
"`  c #EBE550",
"'  c #E7DB03",
"]  c #8C883C",
"[  c #686755",
"{  c #908B2D",
"}  c #EAE026",
"|  c #FCFB8D",
" . c #E2D705",
".. c #4B4B43",
"X. c #7F7C42",
"o. c #D2C80A",
"O. c #F6F378",
"+. c #F0E930",
"@. c #D2C800",
"#. c #8E8A2E",
"$. c #817D41",
"%. c #CCC207",
"&. c #EFEC6F",
"*. c #F4EF5D",
"=. c #E5D900",
"-. c #C5BC0A",
";. c #BBB319",
":. c #979227",
">. c #B7B11E",
",. c #99922A",
"<. c #C8BF06",
"1. c #F5EB12",
"2. c #FDF864",
"3. c #FEF746",
"4. c #F4E912",
"5. c #DAD011",
"6. c #6A6739",
"7. c #181818",
"8. c #737142",
"9. c #D1C706",
"0. c #E3D801",
"q. c #F6ED17",
"w. c #FDF980",
"e. c #FDFB9B",
"r. c #F9EE15",
"t. c #DFD404",
"y. c #A39D1D",
"u. c #151515",
"i. c gray9",
"p. c #161616",
"a. c #CFC508",
"s. c #E5D906",
"d. c #FCF118",
"f. c #FBFDB8",
"g. c #FBFEB6",
"h. c #F3E606",
"j. c #D3CA02",
"k. c #737028",
"l. c #C7BE0D",
"z. c #D4CA00",
"x. c #F7EC12",
"c. c #FDFB97",
"v. c #FDF965",
"b. c #E1D500",
"n. c #C9C00E",
"m. c #6F6D4A",
"M. c #A8A125",
"N. c #D3C905",
"B. c #F6EC11",
"V. c #E8DD05",
"C. c #B0A91A",
"Z. c #6D6B48",
"A. c #545246",
"S. c #9D8E19",
"D. c #C4AF0F",
"F. c #BEAB0D",
"G. c #59533E",
"H. c #514945",
"J. c #75502B",
"K. c #95672E",
"L. c #875E2D",
"P. c #5F4531",
"I. c #4E4947",
"U. c #4D433E",
"Y. c #6F432D",
"T. c #895438",
"R. c #7F4E34",
"E. c #60402F",
"W. c #47423F",
"Q. c #4C4642",
"!. c #664331",
"~. c #825035",
"^. c #784B34",
"/. c #5B4537",
"(. c #4D4A48",
"). c #553F31",
"_. c #77482F",
"`. c #694733",
"'. c #49403A",
"]. c gray8",
"[. c #574033",
"{. c #774830",
"}. c #6A4633",
"|. c #443A34",
" X c #5C4538",
".X c #714D3A",
"XX c #5F554E",
"oX c #584034",
"OX c #784930",
"+X c #714D39",
"@X c #615751",
"#X c #3C2F27",
"$X c #6B442E",
"%X c #664A39",
"&X c #3A3634",
"*X c #302B28",
"=X c #5F3E2C",
"-X c #5B463C",
";X c #212020",
":X c #37302D",
">X c #413B39",
",X c #131313",
/* pixels */
"  . X o o o X O o + @ # + $ O o o o o o % % % % & o o o o . * @ = - - = = % O O o ; ; o o & O + + O $ o & o o : # > o = o o #   ",
", & < = 1 & 1 % 1 O @ * - 2 = = % = = X - = = - X = = 1 & ; 3 . 4 5 5 5 1 6 - 6 & 1 1 % & $ % O & % = 1 < = - . 7 8 9 4 = 1 o 0 ",
"q @ ; : w > . . ; 3 e * = < . > > # . > # ; : 8 8 > > + r e t . 1 w ; 8 : @ y + 7 : o # : 7 : 7 + # . ; . . # u e @ i $ @ + # p ",
"p * 8 ; t . ; r @ a s * % & w : # # 8 # @ * * r y # * 7 d 0 t . - * 7 r . t 7 . 7 > . 3 ; * @ r . 7 * > @ * t f e @ 2 @ . 8 r g ",
"h . # * # # y y @ 0 a * O & ; ; y # . j * 7 8 3 # 7 t @ d a e # O * * > * r 7 3 . 8 8 * ; # @ k . j r > 3 8 r   e @ 5 : y # 7 p ",
"l * # > k 8 3 7 3 s a t + O @ # k * y t * z * 3 7 7 7 j d , e # $ * 3 j * 3 z j 3 # * u 8 z * 7 # z t j k 7 u   x * c @ @ * r v ",
"b d z k f s a a x a n d ; 7 k x s u x u 0 s e s x f s s a a e * . e e e e e e e x e , s u s , u s , a x f , , m , t o 7 u e a M ",
"N , x x s s s s m m a k ; 7 e 0 0 s f f f s 0   m m a s s s j ; t e e e e e e n a f a , x 0 0 0 n f s   m f e @ r 0 e e e 3 d N ",
"a : > 8 w w w @ # # # : * # # O O o : > ; $ + + @ . + w w w O . + $ $ $ % $ o ; t 3 O B X o o o . + : > # # ; @ 8 # # : : . 7 v ",
"* o = O + O B B O + o O > # @ V - c % = O % X O = X O + B o o B O O o X B O X 8 y 7 i 4 & = = & - 1 X = o o o o o o o B o . y p ",
"z r . * y * * * 7 * ; y f 3 # 2 . . # : * @ * 8 8 7 @ r @ # * @ ; * # ; @ @ . a 3 * C X 7 . * @ ; @ * ; y * t @ y r > . t a k Z ",
"d * 8 # 3 # 7 * * 7 @ z f e r 5 y @ # # y 3 y t @ 3 # * t z 7 * > k 7 . r # z f e 7 6 @ . : * . t * ; # * r * * * 7 # # u a a h ",
"u e > * t 7 t . * 7 * k f e 7 C 7 ; * . k # t z @ z > 7 t * r @ t t r @ 3 y y   s 3 1 + * @ 8 @ 7 @ y . 7 t 7 t ; 7 # t u a A v ",
"u e 7 k r 7 t @ d * > 3 f k . 5 : 3 7 * * 3 k j 3 3 # j 3 7 t 7 k * r t @ r 7     7 % 8 @ t t * t * 7 * u t * 3 @ d 8 @ u f f S ",
"m q s a 0 e e d , 0 x n a 3 ; X t d e e 3 d u e k x k e z e e u u e u x u e 0 m a y O * 0 0 a 3 s e e s a 0 u x d s e s a s m S ",
"D F a s 0 s     , , f m , t 7 . 3 u x e x e u k 3 z e x 0 f f f a 0 0 a a 0 , , k @ ; k , 0 , e s f , 0     n , s   n u 7 3 m v ",
"A k : . O O O ; w ; # # @ + O + w : @ . 8 @ 7 # . % o X o ; > . : + + O ; w w O + B B ; @ w O o * * O & : O w o > # # : + + q h ",
"u 7 = - X = = X O o o O & o o O o X + O X . @ . - 2 = 1 = = % = & = X + : o w + O + o o B B B # y 2 c X X O O X B O O o X % v G ",
"a 3 r + 8 . y 7 : > 8 @ + 7 8 # > @ t ; > r n * - < . o * @ 7 * # * > 3 r 8 7 t . 7 @ . t 8 t a 0 6 O > w . # * * : > 8 . . h S ",
"m A e ; t t * 3 . * 8 8 . z > j # @ z r @ u a . 6 c > . 7 # * j @ # @ r . t # j r . 7 8 * # u f x % . > . t z # 3 @ # * @ t l , ",
"m a f . e * k 7 . t 3 . r 3 j > 3 > z @ 3 0 a . c X 8 7 # r r 8 t # t d * # 7 z y * # . t 8 3 f e & o * > 3 t 3 y > t j . m v s ",
"a   H y e 3 * u * j j 8 t 3 # r k * t 7 t 7 a t & - # > 3 # * 7 3 7 * k 3 u y u > k j y ; 7 3 f e - ; u * u 3 * u 7 * k @ J F S ",
"S A F a u e e 0 e d u k u u 0 , s e e d , f n d O : k 3 u u e u u e d u k e e x 3 s u s j j u A x O + k e u e e 0 u k e , K F Z ",
"Z q L q e e e e x e e e e x 0 0 k k e , s s s 7 @ * x e e e e e a a a a e z z e f f s 0 0 e e , e > # u e e e e x x e e p P I v ",
"s n n u + ; ; @ y t . < 6 % % O o + . 8 8 @ # . O w w O . O O : r t # + O % O o : . B + w w w O . X $ B B ; . O w o o X n a a A ",
"a a a f o $ & O . r y C % X X % % O o O O + o : O B B O + o o 8 * ; C = X & & = $ % X B o + o O + o o ; . t + % : . ; . a A a p ",
"g v g p t . : * f 3 # C 7 * r . * @ y . # t y t ; r # * 7 # # , 3 . U + z # # 8 k @ # r # * y @ r # r 7 n 7 + o y # k s Y I Z J ",
"h h p Y m y . 3 f k t 5 3 ; * @ @ * 7 . * * * u * # 8 3 @ @ @ 0 j o i + 7 8 8 * > 8 ; 7 @ 7 * . # * 7 z a t + o z k j G D K Z H ",
"T I Z Z g d * z a t @ 4 # 7 y . r 3 * * 7 t @ k @ t t @ 3 @ # a 3 o i @ . @ # j ; 8 r > * @ # > 7 t t e a j w O # u z R v E H L ",
"v F Z F v S # 3 a t * - 3 ; d @ # t y ; 7 # t x 7 7 * # * @ * s k @ 5 + j ; * ; * * > 7 . t * . r . y t a e 8 + 3 7 q K q H E I ",
"b W K W W P G n f 3 # B u 7 d j d z z 3 e k e x 3 e d e 3 k , m e # = * e 3 3 r 3 t t k t k k z u t e 0 A z ; . z f Q ! P ! ~ b ",
"M M M M M M F s s k . ; x a a a e u 3 z 0 f f f a 0 0 x 0 0 , s z # . k e e k 3 * k e n a , e 0 x 0 ,   m e # @   ^ M W M W M W ",
"T G G G f n m * # # O @ # . O % o o o o o O O o B . # . + o + / ( O O X . O O = 1 O + w > O O + O ; # > X O + . *   p v v p   S ",
"A m f   m   G k B w o # # @ ) 5 = < & < & c = c & . y @ 5 % _ ` ' ] & X o w o : o + o B + o B w B w 8 # O w : O x a G S f A f   ",
"v ^ v l E q F p j 3 # a r # 5 : ; + > + > . . ; r u t ; [ { } |  ...t u @ 7 7 y t * 7 t 8 * * # 3 j f > O # * 3 L p v h v H v h ",
"v R P v E v P R v t k a u # c * ; t > t > ; y > 0 n t @ X.o.O.+.@.#.u # t 3 > 3 @ 3 # j . * y * z y a # o t * I R E v D Z R v D ",
"v P h J I p R T p g j f e # = 8 * # * # * 8 r > e a t @ $.%.&.*.=.-.;.:.8 j u 7 z 8 7 # * # 3 > y 7 a 7 o @ , v ^ Z I v h h I v ",
"h ^ D h I J ^ h Y D j G 0 # X # > z # z # r t j 0 a 3 >.,.<.1.2.3.4.5.6.* 3 j # k y @ j # # * # u z a @ o k I v H Y v D v I v D ",
"! ~ 7.~ W L ! P L ! E S z * @ 3 k a n a n n a x a a e 8.9.0.q.w.e.r.t.y.e e u u 0 d d x z e e z 0 e a 8 7 H D P L K D L E Q D L ",
"u.u.W M i.u.u.7.W p.p.K j * * x e s s s s s ,   A f e r a.s.d.f.g.h.j.k.x k k x a , , , A A a s , s , z S ! ~ ~ ~ ~ ~ ~ ! L ~ ~ ",
"s m m s m f G G m 0 z s x : > @ w O ; > . + X O + > + O l.z.x.c.v.b.n.w B B ; . O w o o X : O O B O : x   S p     q m a p f G G ",
"s , , x S m   m s A m   m 0 8 > O 4 - = % X $ % $ B B w m.M.N.B.V.C.Z.+ ; . t + % : + + O % $ O + B x m J I Y 7 s A A G f f m   ",
"l F v v h F h ^ G E ^ h ^ H L y o X > * > k e 7 * * # u 8 A.S.D.F.G.* 3 7 n 7 + & y # k * y 7 @ * q h v b L Z 3 v J v P l v E J ",
"p L D Z D I D Z F D v L J P 7.T : X t 3 > u 3 @ z * * > 3 H.J.K.L.P.I.d z a t + & z k j . 3 d # l h ^ H i.~ Z 3 R h h q D J h E ",
"F Y R L D J J I l P D ^ l W 7.Y n O 3 k > t 3 @ t y * k * U.Y.T.R.E.W.* e a j w % # u # r # e h L Z F I u.! v z S Y J L h ^ v D ",
"D v I K h I F E I F R J D D 7.h a n s 3 . 3 j 7 e * 7 u # Q.!.~.^./.(.u t a e 8 $ 3 7 t d u F E I h E J 7.M E e F h I P v F I l ",
"~ ~ P W N ! W ~ L ! ~ N ~ 7.7.h A g N P s x 0 e 0 d d x , d )._.`.'.e s 0 A z ; . z e a E P ! ~ b ~ N ~ ].N J n P K K ! M K M ^ ",
"W M W M W M W M M M M W W N N h S v Q ~ M H f 0 0 , , , , , [.{.}.|.  ,   m e # @ T ^ M W M W M W M W 7.].p.I p P M M M M M W p.",
"S s s       s f   m Z v m a             0 0 0 3 8 w o o B >  X{..XXX= = = & B * x T T A   s   G G S Y p a 0       a a   A p v g ",
"a # z e k , k 0 k a Z J u * e e 0 e e s u x x u s e z > . * oXOX+X@X- $ > y u 3 , k k 0 , n 0 a , m p Z t j e z , d e d , p Y S ",
"a k p S G q p p T D ~ h x z p q q v p q v T S l l q q m R Q #X$X%X&XT l S Z Y m I S   v S I S I m F P v t S T m q p p g R P F S ",
"  s l g F p T R Z 7.N h 0 , G S v v l v Z h J R Y v h I K W *X=X-Xh I R p F I p I q p D T h Z R p ~ M v d J g F q T Y q W b F S ",
"A n J J v v Y Y Z W 7.h a , T T Y v p H h I l E v I F Z K 7.;X:X>Xh h q h R I D p l l h g v Z L p L N v x l h v h l R q Q i.F g ",
"m A v q L l D I D N 7.F m a Z v L J Y F J ^ h E I I I H K M Q v n J E H J D ^ H D v h P l ^ h I v P 7.v s v q ^ v R F H W i.E Z ",
"p v L L p.N 7.7.! i.b K T I L ! N P ! P W N ~ N ! p.N N 7.7.Q J p Q ~ Q ~ ~ ~ ~ ! ~ M N P N M P N N 7.h Z D L 7.b b i.! 7.7.Q l ",
"v I ! ! N N N N ,X,X7.L T I ~ W W N p.p.p.N W u.,X,X7.N N N H T F ~ ~ ~ ~ ~ ~ ! ~ N i.i.p.N W ! N N N h J ! ~ N N N M u.].p.Q p ",
"0 p p l G G G Z v v v S J v v f a   S q g n m m Z f p m n n n a S v E Z s a f   a m 0 p p l S m G p v v g n m p H F 0 n m m Z f ",
"3 s x a m f A A a m   f q v Z . u d 0 e a 0 s a e   A f f   s , G Z Y s # e x , x 0 3 s 0 s m a m A a G s 0 a q I h 3 0 s a n   ",
"Z v p h Y h J h I J T Y p.E v * p p v S J Z h l l h Z T h v g A L ! h a d l T h l p q Z l Z I v R v I I G A J 7.F v k Z h l l h ",
"F S l v D v I h h I Z ^ p.~ R t Y Z v v Y D Y F Z I J q L I p H ! N F   f l S q J v D g q v E Z F h v D S h L p.P h x D Y F Z I ",
"q h q h F I F p h I h L p.~ I r I T J p L v F ^ Z R Z F F R Z p W 7.K m s v p R T I Z J v v F F I Z l D S g D u.W R 0 v F ^ Z R ",
"H Z I L R I F Z K h q E p.L p j S D I J h E L H E F I L h R F l ! ,XL m S l l Q v I E T D D F F h v ^ F Z v D ,XN h f E L H E F ",
"W L N i.W ~ ~ K M W ! b i.D T s F K Q Q D K P Q L Q P P ~ P ! P i.,XR p p P ~ p.~ Q N D N 7.W W P P W N P P N ,X~ Y m K P Q L Q ",
"N N p.N N 7.].].N M u.,XM F I q E P ! ! ! ! P L ^ u.u.p.W W i.M N ~ h g h N W N M M N N 7.7.N N ].].N M 7.N N M D p g ! P L ^ u."
};
