/* XPM */
static char *torch061743581659[] = {
/* columns rows colors chars-per-pixel */
"64 64 113 2 ",
"   c #070707",
".  c #0F0F06",
"X  c #0B0B0B",
"o  c #141407",
"O  c #14140A",
"+  c #1E1E0B",
"@  c #131313",
"#  c #1B1613",
"$  c #1C1C13",
"%  c #1B1B1B",
"&  c #211A17",
"*  c #2C1F17",
"=  c #201C1A",
"-  c #242406",
";  c #2C2C06",
":  c #23230D",
">  c #2E2E09",
",  c #33330D",
"<  c #39320F",
"1  c #3C3B0D",
"2  c #252513",
"3  c #2B2B14",
"4  c #23211B",
"5  c #2D2D1A",
"6  c #363611",
"7  c #3C3512",
"8  c #3A3A14",
"9  c #34341A",
"0  c #3E3E18",
"q  c #222222",
"w  c #332923",
"e  c #442C1F",
"r  c #403816",
"t  c #4F381B",
"y  c #513A1E",
"u  c #593F1F",
"i  c #463127",
"p  c #503920",
"a  c #5A3B25",
"s  c #573B2A",
"d  c #4C4A09",
"f  c #54520D",
"g  c #404010",
"h  c #484714",
"j  c #4B4A12",
"k  c #41411B",
"l  c #4A401D",
"z  c #605E10",
"x  c #62600C",
"c  c #6C620F",
"v  c #6E6A0A",
"b  c #706D0B",
"n  c #777106",
"m  c #75710D",
"M  c #7B770B",
"N  c #666413",
"B  c #464620",
"V  c #634027",
"C  c #66422B",
"Z  c #6B442B",
"A  c #734F26",
"S  c #77482F",
"D  c #774930",
"F  c #7C4C32",
"G  c #847E03",
"H  c #847F0B",
"J  c #865D2B",
"K  c #825035",
"L  c #895438",
"P  c #95672E",
"I  c #898408",
"U  c #94850E",
"Y  c #928D0E",
"T  c #9A9306",
"R  c #9E9708",
"E  c #A59E05",
"W  c #AB9A0E",
"Q  c #ABA304",
"!  c #BCB303",
"~  c #ABA62D",
"^  c #C2AE0E",
"/  c #C0B602",
"(  c #C4BA04",
")  c #D1C700",
"_  c #D4C901",
"`  c #D9CE02",
"'  c #DED301",
"]  c #DDD20A",
"[  c #E2D704",
"{  c #EADE04",
"}  c #E4DA0E",
"|  c #EADF0C",
" . c #E0D715",
".. c #E4DA17",
"X. c #E9DE12",
"o. c #E2D919",
"O. c #ECE002",
"+. c #F2E80D",
"@. c #FAEF14",
"#. c #F8ED1E",
"$. c #EDE320",
"%. c #F7EF2D",
"&. c #FCF32C",
"*. c #F8F038",
"=. c #D7D245",
"-. c #EDE952",
";. c #FBF45A",
":. c #F5F16A",
">. c #FEF96F",
",. c #FAF779",
"<. c #FDFA7D",
"1. c #FBFB96",
"2. c #FCFC9A",
/* pixels */
"% % % % % @ % % % % @ @ @ % % % % % % % % % % % q % % % % @ @ @ q q % % q % % % % @ % % % % % @ % % % % % % @ @ @ @ % q % % % @ ",
"% % q q q % q % % % @ @ q q % % % q % % q % % q % % % % % @ X @ q q q q q % % q % % % % % % % % % % % q q q q @ @ @ q q % q q % ",
"@ % @ % % @ @ @ @ X X @ % q % @ @ @ @ @ @ @ % @ @ @ % % @ X @ @ % @ @ @ % @ @ % @ % @ @ % @ @ @ % @ @ @ @ @ @ X X @ q % @ @ @ @ ",
"@ @ @ @ @ @ @ @ @ X X @ % % @ % @ @ @ @ @ @ @ X @ @ @ X X X X @ q @ @ @ @ X @ @ @ @ @ @ @ @ @ @ @ X @ % @ @ @   X @ q % % @ @ % ",
"@ @ @ @ @ @ @ @ @ X   @ % % % @ @ @ @ @ @ @ @ X @ @ @ @ X   X @ % @ @ @ @ @ @ X % @ @ @ @ @ @ X @ @ @ @ X @ X     @ q @ @ @ @ @ ",
"@ @ @ @ X @ X X X     @ % % @ @ X @ @ X X @ @ X X @ @ X X X X @ % @ X X @ X X X X @ @   @ X @ @ @ X X @ X @ X   X @ q @ @ @ @ @ ",
"X X X X       X X     X % X X X   X X X X   X   X           X @ @ X X X X X X X X X X   X X X X   X       X X     @ % @ X X     ",
"X X X X X   X       X X @ @ X X X X         X         X     @ @ @ X X X X X X X         X X   X     X       X @ @   X X X X X   ",
"% % @ @ % @ % @ @ @ @ @ @ @ @ % % % % % @ % % @ @ @ % % = 3 9 6 6 0 0 9 5 4 % % X X % % % % % % @ % @ % @ @ @ @ @ @ @ @ % @ @ @ ",
"q % % % @ % % @ % @ % % @ @ @ q % q % % % % % % % % 5 6 8 8 8 8 0 0 8 8 8 g 6 2 @ @ q q % % % % % q % % % % % % % % % % % @ @ @ ",
"q @ @ @ @ @ @ @ @ @ @ @ X X @ q @ @ @ @ @ @ @ @ $ , 6 , 6 6 6 1 6 6 6 6 6 6 6 ; > $ q % @ @ @ @ % @ @ @ @ @ X @ X X @ @ @   @ @ ",
"% % @ @ X @ @ @ @ @ @ X   X @ q @ @ @ @ @ X @ : 6 , 6 6 , , , , 6 > 6 8 , 6 , ; > 6 9 @ % @ @ @ X @ @ @ @ X @ @ @ @ @ @ X   X @ ",
"q @ @ @ X @ X @ @ @ @ X   X @ q @ @ @ @ X @ : , 6 , 6 6 , , , 8 6 , , 6 , 6 , ; > , k 3 @ @ @ @ @ @ @ @ @ @ X @ % X @ @ X   X @ ",
"% @ @ X @ X @ @ X @ @ X   X @ q @ @ @ @ @ : , , , , 6 , , , 6 , , 6 , , 6 , , ; ; 6 k 6 2 @ @ @ X @ @ @ X X @ X @ X @ @ X   @ @ ",
"% X     X X X X X   X     X @ % @   X X + > , > , > > > , > ; , > > , > , > > ; ; 6 8 6 > o   X   X X     X X X X   X X     @ @ ",
"X X   X X         X     X @ @ @ @ X   . > > > > , , > > ; ; ; ; ; > > ; ; > > > > 6 6 > > > . X X     X       X       X @ X @ @ ",
"% % % @ % % % % % @ @ @ @ % % @ % @ @ 9 6 8 , , 8 8 8 8 8 8 8 6 8 8 8 0 8 8 8 8 8 8 8 8 6 8 9 $ @ @ % % % % % % @ @ @ @ % @ @ @ ",
"% q % % % % % % % % % % % % % % % % 2 8 8 8 6 8 k k k k 0 k k k 0 0 0 8 8 8 8 g 8 8 0 8 8 8 8 $ @ q q % % q % % % % % % % q @ @ ",
"% % @ % @ @ @ @ @ @ @ @ @ @ @ @ @ @ 3 8 8 , ; , k k 8 8 , 6 , 6 6 , 6 , 6 6 , 6 8 , 6 6 , 6 , - X q % @ @ @ @ @ @ % @ @ @ % @ % ",
"% % @ % @ X @ X % @ @ @ @ X @ @ @ $ , , , , ; 8 k 0 8 8 , 8 , , 6 6 6 6 6 , , , , 8 6 6 6 6 ; ; O % @ % % X X @ X @ @ @ @ @ @ % ",
"% % @ @ X @ X @ @ @ X @ X @ X % X 3 , , , , ; 8 k k 6 , 6 , , 8 , 6 , > 6 6 , , , , 6 6 , 6 , ; : % % @ @ X X @ @ @ X @ % @ @ % ",
"% % X @ X X @ X @ X X % @ X @ X O , , , , , ; , 8 k , 8 , 6 , , , , , , , > , > 8 , , , 8 6 , ; > % % X @ X X @ X @ @ X @ @ @ @ ",
"@ % X X X X X X X X X X X X X   O > ; , ; ; ; , 8 8 , , , , > > > > , > > > > > , ; , ; , , > ; > 4 % X X X X X   X X X X X X @ ",
"@ @ X X X X   X X X X X X X X   + , , > > ; ; , 8 , ; > > ; > > ; ; ; ; > , , > ; ; > > > > > > > 2 @ X X   X X X X X X X X @ @ ",
"% % % % % @ @ @ @ X @ q q % % % 5 8 8 6 8 6 , 8 8 8 8 k 6 0 8 8 , , 6 8 0 0 0 8 8 8 8 8 8 8 8 0 6 9 % % % % @ % @ @ @ % % % @ % ",
"% % % % % % % % @ @ @ q % % % q 8 8 8 0 8 8 8 8 8 8 8 8 8 8 8 8 6 g k k 0 0 0 0 0 0 8 8 8 8 8 8 8 9 % % % % % % % % % @ @ X q q ",
"@ @ % @ % @ @ @ X X @ q @ @ @ @ 6 6 , 6 8 , , , 8 , 8 , , 6 , > , 8 k 8 , 6 6 6 , 6 6 , 6 , , 6 , 6 X @ @ @ @ % @ % @   X @ q @ ",
"@ @ % X % X % @   X X q X @ @ @ 6 6 , 8 , 6 , > , , 8 , 6 1 8 > , 8 k 0 , 6 6 6 6 6 8 6 6 6 6 1 6 6 @ @ @ @ @ @ @ @ @     @ q X ",
"@ @ @ @ % @ @ X   @ @ q @ @ @ @ , , 6 , , , 6 , 8 , , 8 , , 8 ; , 0 B 6 1 6 6 , 1 6 , 6 6 6 6 6 , , @ @ @ @ @ @ @ @ @   X @ q @ ",
"@ X @ X @ X @ X X X @ % X @ X % 6 , , , , 8 , ; , , 8 , , 8 , ; , 6 k 8 , 8 6 8 6 , 6 6 6 , 6 8 , 6 @ @ @ @ @ @ @ @ X   @ @ % @ ",
"X   X X X X       X @ % X X X X > , > , , , ; , , ; , ; , , ; ; > 6 0 , > , , , , , , , , , , > , ,       X X X X       X @ % X ",
"  X X X X X X     X % @ X X X   : , , , ; ; ; ; ; , ; , ; , ; ; , 6 1 , > > > , 6 > > ; ; > > > > :   X   X     X   X   X @ % X ",
"@ % % % @ @ % @ @ @ % @ @ @ @ % 9 8 8 0 8 8 6 6 8 1 , 8 8 h E b 8 8 0 0 6 0 8 0 0 0 8 8 6 0 8 8 g 5 @ @ % % % @ % % @ @ @ @ % % ",
"% q % % q % % % % @ % % @ % % @ 3 8 8 8 8 8 8 8 8 6 8 M B N o.=.N 0 0 0 8 8 0 8 8 8 8 8 8 8 8 8 8 2 @ @ q % % % % % % % % @ @ @ ",
"% % @ @ @ X % @ @ @ @ X @ @ @ X $ 6 , 6 , 8 6 , 6 ; 1 E Y b  .-.n , , d 1 , , 6 , 6 6 , 6 , 6 6 6 O X @ q @ @ @ X @ @ @ @ X   X ",
"% % X @ X @ X @ X @ X @ @ @ @ @ X , , 6 > , 6 , , ; < E ( / X.:.~ f > I 1 , 6 , 6 , 6 , 8 6 , 6 > @   @ % @ @ X @ X @ @ % @ X   ",
"% % @ @ X @ @ @ @ @ @ X @ @ @ X @ 3 , 6 , 8 6 , , ; , x ] | &.<. .T v T g , > , , 6 , 6 > 6 6 6 : @   @ q @ @ @ X @ X @ @ @ X   ",
"% % @ @ @ @ X @ @ @ @ @ % X @ X X $ , 6 < , , , 6 ; ; j [ @.>.1.%.} ` R g , , 6 , , 6 , 6 6 6 6 O X   @ % @ @ @ @ @ @ @ @ @ @   ",
"% @ X @ X X X @ X X X X X X X X   X ; > ; , , > , ; , j _ { ;.2.<.&.O.Q 1 ; , > ; > > > , > > ; X X   @ % X @ X X X @ X X X     ",
"@ @ X   X X   X X X X X         X   o ; ; ; ; ; ; ; , 1 Q [ &.2.1.*.' I , , , ; ; > > > ; ; > o X X X . @ X     X     X X X     ",
"% % @ % % % % @ @ % q % % @ @ @ % % @ 9 6 8 0 8 8 8 8 8 m _ #.<.,.$.) z 8 8 8 6 0 8 0 8 , > 3 @ % % % % % % % % % % % % @ @ @ % ",
"% % % q @ % % % % % % % @ % @ @ % q % = 0 0 0 0 8 8 8 8 0 I ` +.[ ! m 8 8 6 , 8 k 0 0 0 0 8 $ % % @ % % % % % @ @ % % @ @ @ q % ",
"@ @ @ @ @ X @ X @ @ X @ @ X   @ % % @ @ 2 , > , 6 6 6 > 6 8 U ^ W x 1 , , ; , 8 0 , , 6 , 2 X @ X @ X @ @ @ @ @ @ @ @   X @ q % ",
"@ X X @ @ @ X @ @ X @ X @ X   @ @ % @ @ @ + , 6 > < 6 6 , 8 A P J V 6 > , ; 6 8 k 6 , , 3 @ X @ X X @ @ X   @ @ @ X X   X @ q @ ",
"@ X @ X X @ @ X @ X X X @ X   @ % % @ X @ @ : 6 , , 6 , < r Z L F V < 6 > ; , 8 k 6 > 2 X X @ @ @   @ @ @ X @ X @ @ @   X @ q @ ",
"X @ @ X @ @ @ X @ @ @ @ X X   @ % % @ X @ X @ : > 6 , > , 7 C K D t < , , ; > 6 0 , + @ X @ @ X @ @ X X @ @ X @ @ X @     @ q @ ",
"X X X X   X   X X X X X X     @ @ @   X X X   X o ; , > > , t S C 1 > > > ; > 6 6 .   . X X X X X X X X X X X       X     @ % X ",
"X     X   X   X   X     X X   @ % @ X X     X   X   + ; ; ; y D C < ; ; ; ; > 2 @ X X   X X         X     X X   X         @ @ X ",
"@ q % % @ % % % % @ @ @ @ % % % % % % % % % % % q % % % = 2 p D Z l k 9 5 % % % % % @ % % % % @ % @ @ @ % % % @ % % % % % @ @ % ",
"% q q % q q q % q % @ @ q q q % % % % % % q % % % % % % % @ e D C w q q q q % q % % q % % % % % % % @ @ q q q q % q % q % @ @ @ ",
"% q @ @ @ @ @ @ @ @ X @ % q @ @ @ @ % @ @ % @ @ @ @ % % @ X * C V % @ @ % @ @ @ @ @ % @ % @ % @ % X X @ q @ @ % @ % @ @ @ X X % ",
"@ % @ % @ @ % X @     @ q % % @ @ @ @ @ @ @ @ @ @ @ @ X X X # a i @ X @ @ @ @ @ @ @ @ X @ @ @ X @ X X @ q @ @ @ @ @ @ @     @ @ ",
"% % @ @ @ @ @ @ @ X   @ % % @ % @ @ % X @ @ @ @ @ @ @ @ X   X % q @ @ @ @ X @ X @ @ @ @ % @ @ X % X   @ % @ @ @ @ @ @ @ X   @ @ ",
"@ % @ @ X @ X @ X     @ @ % @ @ X @ @ X @ X @ X X @ @ X X   X @ % @ X @ @ X X @ X @ @ X @ X @ @ @ X   @ % @ @ X @ @ X @     X @ ",
"@ @ X X       X X     X @ X X X   X X X     X   X     X     X @ @ X   X X X X X X X X   X   X X     X @ @ @ X         X     X @ ",
"@ @ X X X   X         @ @ @ X X   X                     X   @ @ @ X X X X X X   X X         X X       @ @ X X               X % ",
"q @ @ @ @ % % @ @ @ @ @ @ @ @ % % % % % @ % @ % @ @ % % % @ % @ % % % % % @ @ X @ % % % % % % % @ @ @ % @ % @ @ @ % % % @ @ X % ",
"q % % % % % @ % % % % % @ @ @ q % q % % % % % % % % % @ @ % % % % % % % % % @ @ % q q % % % % q % % % @ % @ % % % % % @ @ @ @ q ",
"@ @ @ @ @ @ @ @ X @ @ @   @ @ q @ @ @ @ @ @ @ @ @ @ @ @ @ @ @ @ @ @ @ @ % X X @ % q @ @ @ @ @ @ @ % @ @ @ @ @ @ X % % @   @ @ q ",
"@ @ @ @ X @ @ @ @ @ @ X   X @ q @ @ @ @ @ @ X @ @ X @ @ @ X X @ @ X @ @ @ X   X % % @ % @ @ @ @ @ @ @ X @ @ @ @ X % @ X   X @ q ",
"@ @ @ @ @ X @ @ @ @ @ X   X @ q @ @ @ @ X @ @ X @ X % @ @ @ X @ @ X X @ @ X   X % % @ @ @ @ @ @ @ @ @ @ X @ @ @ X % @ X   X @ % ",
"X @ @ X X @ X @ X @ @ X   X @ q @ @ @ @ @ X X @ @ X @ X X @ @ @ X @ @ @ @     X @ % @ @ X @ @ X % X @ X @ @ @ X @ @ @ @     @ % ",
"X X X     X X X X   X     X @ % X X X X X X X X X X X X @   X X X X X X X     @ @ % X X   X X   X       X X X X   X X       @ % ",
"  X     X         X       @ @ @ @ X X   X X X X @ X X               X         @ @ @   X     X   X   X           X   X     @ @ @ "
};
