/* XPM */
static char *torch07w401743666765[] = {
/* columns rows colors chars-per-pixel */
"64 64 143 2 ",
"   c #1D1D1D",
".  c #242424",
"X  c #282727",
"o  c #2B2A27",
"O  c #2C2C2C",
"+  c #34322B",
"@  c #343434",
"#  c #383631",
"$  c #3C3A34",
"%  c #3B3B3B",
"&  c #42362D",
"*  c #403D2F",
"=  c #51392C",
"-  c #403936",
";  c #413F38",
":  c #5D442F",
">  c #464332",
",  c #4A4634",
"<  c #4B4836",
"1  c #45433D",
"2  c #4E4A39",
"3  c #504331",
"4  c #5E4531",
"5  c #564A37",
"6  c #524E3C",
"7  c #5B4E3B",
"8  c #53503E",
"9  c #62422E",
"0  c #6F432D",
"q  c #77482F",
"w  c #77522B",
"e  c #6B4630",
"r  c #634934",
"t  c #6E4934",
"y  c #774830",
"u  c #7B4C33",
"i  c #76503A",
"p  c #67612F",
"a  c #756F2E",
"s  c #76722E",
"d  c #6B6036",
"f  c #746F35",
"g  c #777235",
"h  c #7F7931",
"j  c #777338",
"k  c #434343",
"l  c #4D4745",
"z  c #4C4A42",
"x  c #4B4B4B",
"c  c #514F43",
"v  c #565241",
"b  c #5A5544",
"n  c #5B5846",
"m  c #54534B",
"M  c #59554C",
"N  c #5E5B49",
"B  c #525252",
"V  c #5E5C52",
"C  c #5A5A5A",
"Z  c #634E44",
"A  c #615543",
"S  c #6D5140",
"D  c #665F44",
"F  c #625E4C",
"G  c #6C5F4E",
"H  c #615E52",
"J  c #63604E",
"K  c #666351",
"L  c #696554",
"P  c #6C6857",
"I  c #62615F",
"U  c #6A6759",
"Y  c #6E6A59",
"T  c #716D5C",
"R  c #73705E",
"E  c #626262",
"W  c #767361",
"Q  c #797564",
"!  c #7C7867",
"~  c #7E7A69",
"^  c #885F2D",
"/  c #825035",
"(  c #895438",
")  c #95672E",
"_  c #837E4B",
"`  c #99891D",
"'  c #A0981A",
"]  c #BCAE0D",
"[  c #A9A111",
"{  c #B2A817",
"}  c #B2AA18",
"|  c #BFB612",
" . c #8C8623",
".. c #8D8628",
"X. c #918A2C",
"o. c #9C9623",
"O. c #8C8735",
"+. c #968F34",
"@. c #A29B2B",
"#. c #A09935",
"$. c #A8A022",
"%. c #A9A22B",
"&. c #AFA932",
"*. c #C4AF0F",
"=. c #C4BB0A",
"-. c #C0B714",
";. c #C5BC10",
":. c #C9C006",
">. c #D0C601",
",. c #D5CB02",
"<. c #D9CE01",
"1. c #D0C509",
"2. c #DAD004",
"3. c #CEC414",
"4. c #C9C01E",
"5. c #E2D600",
"6. c #E9DD03",
"7. c #E5DA0A",
"8. c #EBE007",
"9. c #F1E60F",
"0. c #F3E90E",
"q. c #F0E511",
"w. c #F8ED15",
"e. c #FBF11A",
"r. c #F5EB22",
"t. c #F9EE20",
"y. c #FFF530",
"u. c #868044",
"i. c #E8E245",
"p. c #F8F246",
"a. c #FFF749",
"s. c #F4ED58",
"d. c #FFF752",
"f. c #FCF65B",
"g. c #FAF667",
"h. c #FDF965",
"j. c #F8F67A",
"k. c #FAF87E",
"l. c #FDFA83",
"z. c #FDFC89",
"x. c #FDFC95",
"c. c #FDFB9F",
"v. c #FBFDB5",
/* pixels */
"k x x k k k x x k k % % k k x k k k k k B Y Y T Y P L L L J F F T R T T T Y P P L J J L z x k k k x k k x k k k @ % k x k k k k ",
"x B B B B x B x B k % @ B C x B x x B B R Y Y R Y T T R Y J 8 J ! R W W W W T W T R R T Y x x k x x B B B B B % @ % E C B B B x ",
"% k % k k % % % % @ . @ x B % % % $ % N N J K N F J J K b 8 b J R K F F J F N K b J L N K v k @ k % % % % % @ X X % C x % k % % ",
"% % % % @ % % @ % . . @ x x k k % $ m N J N N n n N N n 8 2 b F R D n n J n n F N J F v J F v @ % @ % % % @ @   X % C % % % @ k ",
"@ k @ % @ % @ @ % .   @ x x % k # 1 J b N n J 8 N n b F 8 , 6 F P N F J N n n b F F N N J N F $ % @ @ % O % @   . % B k @ % @ % ",
"% @ % % O % @ @ O .   @ k k % % O n n n N 8 N 8 n n n b 8 2 6 N P N 7 8 N v 8 v b N N 6 F 8 N b % o @ O O @ .   . @ B % % @ @ % ",
". X o o   .     .     O % @ O . + 8 6 8 2 2 6 < 2 , 2 < < < 8 N J 6 6 6 6 6 6 6 6 6 6 < 6 < < 8 + .   .     .   . @ k @ O .   . ",
". . . X .   .         O k @ . . < < , , , 2 5 , > > < 2 2 < b J b 6 8 6 6 6 8 < , , , < 6 6 6 < >   .       . % @ . O . . O O . ",
"k k % % k k k % @ % % % % @ % B P L J J J P L K F J L K K L L J K P P P Y P L J b 8 P L Y L L L F m k % % @ k % @ % % % k % % % ",
"C x x x k k k k k k k x % % % ! T R T T P T P P Y Y P K L L L K L P L Y K P Y F N b _ ! P T T T R U x B k k k k k k k k k % % % ",
"B % % @ @ @ % @ @ % % @   O % ~ J J N K N J J J F n J n J D n J J N F J F F J , 8 F ~ E N F N F H F k % @ @ @ % @ @ % % O   @ % ",
"B k % % O @ @ @ @ @ % O   X 1 Q b J J N n 8 n 8 J 8 N n b 8 n J J 8 b J n F 8 > 6 N W H J J N F n n x % @ @ @ @ @ @ % % O   O @ ",
"x @ % @ @ @ O % % @ @ O   X z Q n J N J 8 J n 8 J 8 J N n J 8 J b b b J b b N , < b T L N F F F n J c % @ O @ @ % @ % O X   O @ ",
"B % @ O @ @ @ % o @ % O   O J W J b n N F 7 8 8 8 8 N b 8 n 7 N 8 N b b J b b , , N T F F b b N b n b $ X @ @ O % O % % O   O k ",
"k O     . X X X . . .     @ J Y n 8 6 6 b 8 8 8 8 6 8 8 8 8 6 8 8 6 8 6 8 8 2 > , N P N 2 2 , v , 8 2 O   . X . O . X . . . @ k ",
"O .   . .       .       . > n J 8 8 2 6 6 6 8 8 8 8 6 8 < , , , , 6 2 , , 2 2 2 6 F J 8 < 6 < 6 2 , 2 +       .       X @ O @ @ ",
"k x k % k k k k k % % % % m P K K K F J N F n N J Y L Y L J J J J L L P J L J P L L L J J K P L N N P V k k k k % % % k k k @ @ ",
"B C x B x B x x x k k x x V L T L Y L P Y F F J R ~ Y R T R Y T Y T Y L J L K L P J L L L L L J n ~ T K x k k x k k k k x x % k ",
"x B % k % % @ @ k % % % k c N N J N b J J n < n R R J L n J b J J n J 8 n J n b J b J J 8 J 8 < 2 W U n k % % @ @ % % % % k @ % ",
"k k % % @ @ @ O % @ % % % 8 J v N F v n F 6 < J R R J J n N N 8 J D J n J 8 N b b J n N n D 8 , 2 Y K N % @ O % @ % % @ % k % x ",
"k x @ k . @ O @ % @ O % @ b v J 8 J 8 J 8 2 < J R Y N n N n b F 8 F b 8 N F n 8 N N N J b J 8 < c Y L n % O @ O @ % O O % % % x ",
"k k O @ . @ @ X % O O % O v N n 8 N b n n n < b Y R N J b N n n b b N 8 8 8 n 8 J 8 8 N J n 8 < 6 R K 6 % X O @ O @ @ O % @ @ % ",
"k k O X X X X . X O X O o 8 2 2 2 8 2 8 2 , < 8 Y J 8 8 8 8 6 8 8 8 8 8 8 8 6 2 b 2 8 2 8 n 8 > 6 P K v X X . X X X O X O O @ % ",
"% % O X X X X . . . X X X 2 2 2 8 8 8 2 < 2 < n J N 6 6 6 6 6 6 , , , , 8 8 8 6 , , < 5 2 6 6 2 6 J N 6 . X X X . X . X X X @ @ ",
"x x k x k % % % @ O % C B T T L L L J F F J N J P K K P F L P J b b N L L R L L J J L J K K J P J Y P H k k % x k k k x k k x k ",
"k x x k x x x x % @ @ C x L Y T T L L L P P L J L L L P L L L F N J W R Y Y Y R Y Y Y L L L L L K L L N % O k x k % % k x k x % ",
"k % % % k % k @   O @ C @ v n J n J n J n 7 n n J n N N b N F 2 b J Q K 8 N N N 8 J N n N N n J n N n c . @ k k @ @ O % @ @ % @ ",
"@ @ % @ k @ % O   O @ B O m n F J N b J F n F 8 N N J 8 F F F 2 b L ~ L N N F N J F J b J n N J N N M 1   O k k O O O % O O % O ",
"k O % % k @ @ O   O % C % k n J 8 8 J n n 8 J 8 J 8 8 J 8 J n < b L ~ F J J N 8 J F b J n F F J n b b #   O k x @ O % O % O @ O ",
"@ @ % O @ @ @ O . @ @ B O k c F J n N J n J 8 2 n n N N N J D 2 8 F W K b J N J N N J n J n n J n J n $   . % k @ @ O O % O O @ ",
". . X . X X . .   O @ k X @ c b 8 7 8 n 6 8 8 6 b 8 8 6 8 8 2 > 6 N T N 6 b b b 8 n b 8 b 8 8 8 c b 6 .   X k % O . . . X . X . ",
". . . . . . .   . X % k .   * < 6 8 8 8 2 , , , < 2 2 8 6 6 2 p ..N J 8 2 8 8 b F 8 6 < < < 8 2 6 2 *     O @ %     . . . . . . ",
"% k k % k x k % % @ x % @ % N T L L L L L P P L L J N K K L K 7.s.%.P Y J L P T R Y K J J P P K P J 2 % x k k % k k % @ % % k k ",
"k k k k k k k k k k k @ % % E W T R T R P R T R Y J n N W Y #.q.j.3._ Y L K L K L L L L L L L K L J ; % k k k k k x k k k k k k ",
"% O % % O % @ % % O %   @ @ B H J L F K J J F J n 8 b K R J { t.z.7.) s $.j n n b n b b F n F F b c   % x @ % @ X % % @ % O % @ ",
"% @ X % O % O @ @ @ O   o % B k J b J b J J N F 2 , n N &.N } p.f.:.' o.=.s J 8 F 8 F b F n n n v 1   % x O @ O @ O % O % @ % O ",
"@ O @ % @ % @ % % @ O   X @ B % N F N N N N b J 6 , n J 4.F } i.k.5.:.=.1.j 8 n 8 J n N N N b J b @   @ k % % % O % @ % @ @ @ % ",
"@ O O @ @ @ O @ @ O %   X % x @ z 8 F 8 N N b b 2 , b K 5.=.] e.l.y.w.3.X.v v N 8 n F b N N n N $ O   % k % @ % O @ % O % @ % O ",
". .   O . X . O O X O   O @ % O O , < , < < , 6 , , 2 K <.,.6.a.c.f.0.=. .6 8 8 2 8 8 6 v 8 6 6 . X   % % O O X O O O O O X O O ",
"    . .         .       @ @ @ X X + < < < 2 2 , > , 6 n | ,.9.h.v.g.6.[ s v 8 6 < 2 < 2 > > , + .   . O % X X X X . X X . O X . ",
"x k k x k k k k k x B x k % % % 1 k M J J K Y L L F K P O.2.5.d.x.r.,.+.L L K F U K P K Y K V k k k % k k % % k k % k x % x k % ",
"k x x x k k k k B k k k k k % % k C B U Y Y Y Y L L L K P u.| 8.0.1.@.K J J b K Y K K L L U x x k k k k % @ % C x k k % k k k k ",
"% @ @ % @ O @ O % O O @ O O   @ k x % % F 8 6 n F N N 8 F F d *.=.` J 8 b < b L Y n N b N % @ % % O @ % . O % B % @ % O % @ O % ",
"% O O % @ @ O % @ O % O @ O . @ k x @ O k 6 b F 8 N N J 8 A w ) ^ r n 8 b , b K Y v v v k O O % O % O @   . % B @ % @ % O % % O ",
"@ @ O O O % @ @ % X O O % .   @ k x O o % 1 b N b n N 8 N 7 0 ( / 9 7 N 6 , b K Y N 6 1 @ % O @ O % @ @   . % B % @ @ O @ O @ O ",
"O % @ O @ @ @ O @ O @ % O @   % x x @ @ % O # b 6 N n 8 N v e / u r n 8 b , 6 N U v % + o % O O @ @ O @   . O x @ % @ X % @ @ % ",
". X . . . . . . O . X   X     @ k % .   O X . X > 8 v 2 2 c 4 y e 5 6 2 5 > 8 K M O X X X o X . . . . X     @ x X O O . . X . O ",
". . . . . . . . . . . . . .   @ k % X X     . . . o $ 2 5 < 4 y t 3 , < > , > 1 %     . .   . . . . .       @ % . . .   . . .   ",
"% x x k k k x x k k % % k x k k x k k k x x x x x k k k M m 4 y i J I E C B k x k % k k k x k k % k @ % x x k k k x k k k % % k ",
"x C B x B x B x B k % % x C x B x x B x B x x B x x B B x % = u t m C B B B B B x B B x x x x k x k % % B B B B x B B B x % @ k ",
"k B k % % % % % % O O @ x B % % % % % % @ k k % % % % k @ X & y d k % % % % @ k @ % k % % @ k @ k @ O % B k % k % % % k @ O O k ",
"k x % k @ k % @ % .   @ x x k k @ % % % % @ @ @ @ % @ @ o . # = Z @ @ @ % @ @ % @ % % O k @ % @ % . . @ B % % @ % % @ % .   @ % ",
"k x @ % % @ @ @ % .   @ x x k % @ % % O @ @ % O @ @ @ % O   O % l @ @ % @ @ @ O k % @ @ % % % O % O . @ x % @ % @ % @ % .   @ % ",
"k k % % O % O @ O .   @ k k % % O @ @ @ @ O @ O @ @ @ O O . . % x @ @ @ @ O O @ O % @ X % O @ @ @ O   % x % % O % @ @ O .   O % ",
"% @ O O         X     O % @ O . . . . O . . . . .   .       . % % X . X . O X X . . . . X . . . . .   @ % @ O     .   . .   O % ",
"% @ . . . . . .     . O % @ X . . .       . .         . . . O % @ . X X O . . . X .         . . .   . @ @ . . .   .         . % ",
"x % % % k k k % @ @ % k @ @ % k x k k % k x k k % k % k k x x k % % O % x k k k x k x % % % k k k % % % % x k % O @ B x k k % k ",
"C x x x k k k k x k k x % % % E B B x x k x x k x x k k k k x x k % @ x C B B x x B B x x x k k k k k % x x x % @ @ B x k x x k ",
"% % % @ @ @ % @ @ @ % @   O % C % % % k @ % @ % % @ % % @ % k k O . % k B % % @ % % % % % % @ % @ % @ @ k k @   O % B % @ % % @ ",
"@ % % @ @ @ @ @ @ @ % O   X @ C @ % @ % @ @ @ @ % @ % % O @ % O .   @ k k % k % @ % O k % % O % @ @ % O k @ O   O @ x O @ O % @ ",
"% @ % % O @ @ % % @ @ O   . @ C @ % % % O % @ O % @ % @ @ @ % % .   O k x % % @ % @ % % % @ @ @ @ % % O k % @   . @ x % @ O % @ ",
"O % @ O @ @ O % O @ % O   O % B % O @ @ @ O O O O @ @ O @ @ O % .   O k % % % X % @ O % O @ O O @ @ O @ % @ O   . @ k O O O O @ ",
". O .   . . . O . . .     O % x @ O . O O O O . O . X O X O . .     @ % % X .   X X . O .   . . X X . . O X     . @ k O O X O . ",
".     . .         .     . @ @ % O O . . . . . O O       . .   .   . @ k @ . . . .   . .     .         .     . . @ % % . X O O   "
};
