/* XPM */
static char *torch07w101743666765[] = {
/* columns rows colors chars-per-pixel */
"64 64 149 2 ",
"   c gray12",
".  c #252525",
"X  c #2C2C2C",
"o  c #33322F",
"O  c #333333",
"+  c #3B3A33",
"@  c #3C3C3C",
"#  c #4A3E35",
"$  c #423D3A",
"%  c #553D30",
"&  c #474437",
"*  c #4C4837",
"=  c #44423C",
"-  c #4E4A39",
";  c #5F4733",
":  c #554935",
">  c #514D3C",
",  c #5B4F3C",
"<  c #53503E",
"1  c #6F432D",
"2  c #77482F",
"3  c #77532C",
"4  c #654431",
"5  c #6D4732",
"6  c #644A33",
"7  c #6F4B33",
"8  c #664E3A",
"9  c #774830",
"0  c #7B4C33",
"q  c #734F3B",
"w  c #79533C",
"e  c #6C6634",
"r  c #71673D",
"t  c #7A7533",
"y  c #7C7834",
"u  c #7B763C",
"i  c #7F7A3C",
"p  c #444444",
"a  c #4A4643",
"s  c #4C4B45",
"d  c #4B4B4B",
"f  c #504E46",
"g  c #524E4C",
"h  c #565241",
"j  c #595544",
"k  c #5B5846",
"l  c #53524C",
"z  c #59574F",
"x  c #5E5B49",
"c  c #535353",
"v  c #5A5452",
"b  c #5E5C54",
"n  c #5B5B5B",
"m  c #615541",
"M  c #625E4C",
"N  c #6A5C4D",
"B  c #745847",
"V  c #625E51",
"C  c #605F5C",
"Z  c #685E58",
"A  c #64604F",
"S  c #6E674D",
"D  c #7F7A40",
"F  c #666351",
"G  c #6A6654",
"H  c #6B6856",
"J  c #65635A",
"K  c #6E6A59",
"L  c #726E5C",
"P  c #74705F",
"I  c #636363",
"U  c #6D6C62",
"Y  c #6B6B6B",
"T  c #706D61",
"R  c #767261",
"E  c #797564",
"W  c #7B7866",
"Q  c #787568",
"!  c #7E7A69",
"~  c #737373",
"^  c #885F2D",
"/  c #825035",
"(  c #895438",
")  c #95672E",
"_  c #817D6C",
"`  c #A39B1D",
"'  c #BFAC0C",
"]  c #ACA313",
"[  c #B5AC1A",
"{  c #BBB110",
"}  c #9C8C20",
"|  c #918B2B",
" . c #868138",
".. c #948E3D",
"X. c #969032",
"o. c #9E973B",
"O. c #A19B27",
"+. c #ACA526",
"@. c #A8A131",
"#. c #AFA831",
"$. c #A8A13C",
"%. c #B5B039",
"&. c #C4AF0F",
"*. c #C5BB0B",
"=. c #C8BE0A",
"-. c #C4BB15",
";. c #CAC107",
":. c #D0C602",
">. c #D5CB02",
",. c #D9CE01",
"<. c #D1C60A",
"1. c #DBD104",
"2. c #CFC416",
"3. c #D0C715",
"4. c #E2D600",
"5. c #E9DD03",
"6. c #E6DB0A",
"7. c #EBE007",
"8. c #F1E60F",
"9. c #F3E90E",
"0. c #F0E511",
"q. c #F8ED15",
"w. c #FBF11A",
"e. c #CDC423",
"r. c #F5EB22",
"t. c #F9EE20",
"y. c #FFF530",
"u. c #8F8A4E",
"i. c #8D8956",
"p. c #84806F",
"a. c #868371",
"s. c #898574",
"d. c #8B8876",
"f. c #8E8B7A",
"g. c #E8E245",
"h. c #F8F246",
"j. c #FFF749",
"k. c #F4ED58",
"l. c #FFF752",
"z. c #FCF65B",
"x. c #FAF667",
"c. c #FDF965",
"v. c #F8F67A",
"b. c #FAF87E",
"n. c #FDFA83",
"m. c #FDFC89",
"M. c #FDFC95",
"N. c #FDFB9F",
"B. c #FBFDB5",
/* pixels */
"c n n c c c n c c c d p c n c c c c c c I W ! W W P P P P K G H ! p._ ! ! W P E P K L P b n c c c c n c n c c d d d n I c c c c ",
"n I I I I n I n I c p p I Y I n n C I n _ ! W ! W ! ! a.W L A H s.p.s.a.p.p.p.p.W p.p.W E C C c n n C I I n I d @ p ~ Y n I n I ",
"d d d d c d d d g @ o p n I d d d p d G G H P H H K K P A k A K p.L K S P H A P F L P G L M l @ c p d d d d p O O p ~ c p c d d ",
"d d d d @ d d @ d . . p n n c d p p b G K F G A A H F F k < A H p.A A A H A A K F K H M H G b @ d @ p d d p @ . X d Y d d d p d ",
"p d p p p p p @ p X X p n n d d = l H M F A F M G A A K k > j H E F F K F A A x H H H F L G H & d @ @ d @ p @ . X d Y d @ p @ d ",
"p p p d @ p @ @ @ X . @ c c d p + F F A F M F M A A A M k < j G E F M M G A k A M F F k G M F A p O @ @ O p O . X @ I d d p p p ",
"X O O O . . . . X . X O d p O X + k < k < < k < , > < < < < j F K j j j j j , k j j < < j < < M + X . X . X X   X @ c @ O O . X ",
"X X X o X X X X . . . O d @ O X < < < - < < < - > - > < < < A K A < j j j j j < > > < < j < , < > . X .   . o p p X O O X O O X ",
"c c d p d c c p p p p d p p p I W P L H L W P P H K P L P P P K P E E E ! W P K A M P P W P P P K n d d d p d d p p p d c d p p ",
"Y n I c c c c c c c c c d p d f.! p.W ! E W W P p.! P P P P P P P E P W P P W H F F f.d.W ! ! ! _ ! n C c c c c c c c c c d d d ",
"I p d p @ p p p @ p d p . @ d s.K K G L F K F H S A H A L H F H K F H K H G K > M F a.W F K F H K K d d p p @ p p @ d d @ . @ d ",
"I d p p @ p @ p p @ d O . o s a.F H G G F M A A G A G A A A A F K x A K A G M > < F p.H K L F K A F c p p @ p p p @ p p O   O p ",
"I p d @ @ @ @ d p @ p O . o z a.F H G H x G M M G k K A A F A H A A A K A A F - < A p.P F H H H A H x d p @ @ @ d @ p @ O . O p ",
"I p @ O p @ @ d O p d O . O H a.L M M G F x x M M M F A A F A A k F A F H A A > - A ! H H A A F A F A p O @ p O d O p d O . @ d ",
"c O X . X X o O X X o X . $ K W M x j j M k j j x < x , A < k k k j k < k k < - < F P F < < < M < k j o . X O X O X X X X . p d ",
"@ X . X X X .   X X .   X s F K M x < j j < k k M M j j < - - - < < < < > < < , x H P k < , < k < - h + . . X X X   X O @ @ p p ",
"c n d d c c c d c d p p p J R R P L K K G K A G K W P E P L K K L P P E L P P P P P P P H P P P F F R U d c c c d p d d c c p p ",
"I Y I I n I I n c c c n n U R R R E P E E K H K _ d.! p.! ! ! ! W ! W P L P P P P P P P P P E G F d.p.T n c c n c c c c n n p d ",
"n I p c p d @ p d d p p c x G G H G A K K A > F _ p.L P F H A F G F H A A H A A L F H H A H A > < a.R J c d p p p d d p d c p c ",
"c c p d @ @ @ @ d p d p d k H A G K x A H k > K p.p.H H A G G A H G S A K A F M A L A H F G j - j W H H d @ O p @ p p p d d p n ",
"c n p d O p O @ d @ @ d $ x A H M K x K x < < K _ W G A G A A H A F A k F F A M A G G K A G M > j W R F d + @ @ p d @ @ d p p n ",
"c c O p X @ p O p @ @ p @ x G A k A A A A A < A W ! G K M G F A M A F k M k F k K k A A L A M - j _ K j p O O p O @ p O d @ @ d ",
"c c @ O O O O X O O O O O k h h < j j k < - < k E L k M k k , x x , k k M j k j M < , < M M k - < E P k o O X O X O O O O O @ d ",
"p p O X X O X X X O X o O f h h x k j < < < < A G G j h j j k < < > < < < k M < - > < k < j j < j K G j X o X O X X X O O O @ p ",
"n n c n c d d p p @ d I I W ! R P P K G H H H K E P P P K P P L A M H P P ! P P L H R P L P L E H W E P c d d n c c c n d c n c ",
"n c n c n n n c d @ p Y C R Q ! ! E P P P P P P P P P W P P W H F L a.! W W W p.E E E R R P R R P P P J d @ c n d d d c c c c d ",
"d p d d c d c @ . O p Y @ z A K F H F L G M F M K A H F A G H < M K d.P M G S K k K G A G F F K F G F z . @ c c p d O p @ p d p ",
"p p d @ d @ d @ . @ @ I @ F F H K F A K G F F k G G S A H H H < M P f.P M H G F K G L A K M G H G G F d . @ c c O O @ d @ O p @ ",
"d @ d p d p p O . @ p Y p d F K A M G F A A K k H M A H M G G < A P f.H K H H M K K A K F H H H A A A & . @ c c p O p p p O @ O ",
"d @ d @ p p p @ X @ p I @ c k H G A A K A G A j A A G G F H G < M H a.P M K G K F F K A K A F H A K F = . O p c @ @ @ O d @ @ @ ",
". X O X X O X . . @ p c O $ k M k A k A , k j < M k k j M M < - < H W F k M M A M M A k A k k M k A h X   O d d O O O X O X O . ",
"X X X X X X X X X O d d X . = < < k M k j > > > < < < j < < < e | H H x j < k M G k j < > h j h h h - .   O p d . . X X X X X X ",
"d c d c c n g d p p n d p d J ! R P R R R R E R R K G K P R P 6.k.#.R W K P E ! p.P P P K R R P R L l s n c c d d c d p p d c d ",
"c c c n c c c c c c c p p d ~ a.! p.W p.W _ ! _ W K F G a.W $.0.v.3.i.E P P P P P P P P P P P P R P d p c c d c c n d c n c c c ",
"p O p p O d @ d p @ p . @ p Y J K P K P K K K K A j A L ! H [ w.m.6. .y +.D A A A F A A K S F G M k . d c p p p O d p @ p @ p p ",
"p @ O p O p O @ @ @ + . O p I l K A H F K K F K h < M H %.H [ h.z.:.` O.*.y K M H M G M K G F F x l . p c @ p @ @ @ p @ d @ p @ ",
"p O p p @ d @ c d O @ . O p n p F H F G S G A H j > M H e.G [ g.b.4.;.*.<.i k A x H A G F G M K M $ X @ c p d p @ p @ p p p @ p ",
"p O O p p p O p p @ d   X p n p z x G x G A A M j > M L 4.-.{ w.m.y.q.2.X.x x H k F H M G G F H = @ . p c p @ p @ p p @ p @ p @ ",
"X O . O X O X O O X O . O p d @ O * < < < < < < < > j L ,.>.5.j.N.z.8.;.| h k k h k k h x j h k X X X p d @ O O O O @ O @ X @ O ",
". . X X . . . X X . . X @ p p X o + < < < < < > * > j A -.>.8.c.B.x.5.] y x x h > h h < - - - + X X X @ d X o X O X O X X @ X o ",
"n c c n c c d c c n I n c d d p g n J H L P E R T L L R ..1.4.l.M.r.1.o.P P L K R P P P W K U n c n c c c c d c c d c c d c c c ",
"n n n I d c c c n c c c c c p d c Y I Q ! E E ! E R P L R u.-.5.9.:.@.P K K A P ! P P P R Q n c c c d d p @ p Y n c c d c c d c ",
"p @ p p p @ p O c O @ p O @ . p c n d p J x j A F F G k H G r &.&.} S x A < A P W A G x F p @ d p @ p p . O p I p p p O p p @ p ",
"d O @ p @ @ @ p @ @ p O p O . @ g n @ O l k x H M F F K M N 3 ) ^ 6 A k x > A P W M k A c @ O p @ @ @ @ . O d I @ p p d @ p p O ",
"@ p @ @ @ p p @ p O @ O p X . p c n @ O d s x H M F G x F m 5 ( / 4 k G j < M P W G k l @ p O @ O d @ @ . X p I d @ p O p O p @ ",
"@ p @ O p @ @ O p @ @ p @ @ X @ c n @ @ d + p M k F M k G N 5 0 0 8 A k A > j H E k p @ O d @ @ @ p @ p . X @ I @ p p O p @ p p ",
"X O O X . X X O O X X X X X . p c d X . O X X o & x k h f k 4 9 9 , j < < - x L F @ X o o o X o X X . O   X p n O O O X X O X O ",
"X X X X X X X X X X X X X X X @ c p o o X X X X X + & h < < 6 9 7 : - < - - - s s . . X X X X X X X X . . . @ d O X X X X X X . ",
"c n n c c c n c c c p p c c c c c c c c n n n n n c c n C V 8 9 w L Q Y Y I c c c d d c c n c d c d p d c I c c c c c c c d p d ",
"c Y I I I n I n I n d p n ~ I I n I I n I n I I n n n I n d % 9 q Z Y Y I I I I n I I n n n n n n c d p Y I I I n I I I n d p d ",
"c I d d d d d d d @ O p n I d d d p d p p d d p p d d c @ O # 4 B g d d d d p c @ c c p d p d @ c @ O p Y c d d d d d d @ O @ d ",
"c n d d @ d d p p . . p n n c d p p p p d p p @ p p p @ O X $ 4 N p @ @ d @ @ d @ d d @ d p d @ d X X p I p d @ d d @ d X . @ c ",
"c n p p p p p @ d X . p c n d c p p d @ p @ p O p @ @ d O X O p v @ p d p @ @ @ d p p p d d d O d O X p n p p p p d @ d O . @ c ",
"c c p d O p O p O X . p c c d p O p p @ p @ p @ p @ @ @ O X O p v p @ @ p @ O @ @ p @ O p O @ p p O . p n p d @ p @ @ @ X . @ p ",
"d p O O . X . X X . X O d @ O X X O X O X X X X X . X . . . O p d O X o O X O O O X X X O X X O X X . p d @ O . . X . X . . O p ",
"p @ O X X X X . . . . O d p X X X X . . . . X       X X X X @ d @ X o o O X X X X X . . . X X X . X X p p X X X . X X . . . O d ",
"n d d p c d c p p p d d p p p c c c d d d n c c p c d c c n n c d p @ p n n c c c c n d d p d c c d p p d n c d @ @ I c c c p c ",
"Y n n c c c c c c c c c d p d ~ I I n I c n n n I c c c c c n n d d @ n ~ n n n I n I n n n c n c c c c n n c d @ p I n n c n c ",
"d p d p @ p p p @ p d @ . O d Y d d p d p p p p p p d d p p d c O O p c I d d p p d d p p d @ p @ p p @ c c p . @ p I d p p p p ",
"@ d p p @ p p @ p p d O . O @ Y p d p p p @ @ @ d @ p d O @ d @ O . @ c c p d d p p @ d d p @ p @ p p O d p O . O p I O p @ d @ ",
"d p d @ @ p @ d p @ p O . O @ Y p d p d O p @ O p @ d @ @ @ d d X . O c n p d p d @ d p p p @ @ @ p p @ d c @ . X @ n p @ O d @ ",
"@ p p O @ @ @ d O p d @ . O d Y d @ @ p p @ O @ @ @ @ O p @ @ p O   O c d p p O p @ @ d @ @ p @ p p @ @ p p O . X p c @ O @ @ @ ",
"X O . . X O O O X X X . . @ d n @ O X O @ O O O O O O O O O X O .   @ d d O O . X O X O . . X X O O X X O O X   X p c O O O O O ",
"X X . X X .   . . X .   X @ @ d @ O X O X X O O O . . . X X . X . O p d p X X . X X X X X X . X   . . X X . X . @ d d X O O O . "
};
