/* XPM */
static char *torch091743581659[] = {
/* columns rows colors chars-per-pixel */
"64 64 116 2 ",
"   c #070707",
".  c #0B0B06",
"X  c #0B0B0B",
"o  c #121207",
"O  c #13130B",
"+  c #1E150E",
"@  c #1C1C0A",
"#  c #131313",
"$  c #1B1613",
"%  c #1B1B13",
"&  c #1B1B1B",
"*  c #211A17",
"=  c #2C1F17",
"-  c #201C1A",
";  c #252506",
":  c #2C2C06",
">  c #23230B",
",  c #2E2E09",
"<  c #33330D",
"1  c #38330F",
"2  c #252512",
"3  c #2C2C14",
"4  c #26201E",
"5  c #2A2A1C",
"6  c #363611",
"7  c #3C3512",
"8  c #3A3A14",
"9  c #30301A",
"0  c #3E3E19",
"q  c #222222",
"w  c #302620",
"e  c #332923",
"r  c #373723",
"t  c #422B1E",
"y  c #403816",
"u  c #4F381B",
"i  c #523B1E",
"p  c #593F1F",
"a  c #452E21",
"s  c #463127",
"d  c #5A3B25",
"f  c #573B2A",
"g  c #603C28",
"h  c #43420C",
"j  c #4F4D0C",
"k  c #55530E",
"l  c #444214",
"z  c #4F4E14",
"x  c #41411B",
"c  c #514F16",
"v  c #5B5210",
"b  c #58571B",
"n  c #615F15",
"m  c #65620F",
"M  c #6E6B0E",
"N  c #7C770C",
"B  c #626016",
"V  c #464620",
"C  c #634027",
"Z  c #65412B",
"A  c #6C422C",
"S  c #734F26",
"D  c #77482F",
"F  c #774930",
"G  c #7C4C32",
"H  c #69682C",
"J  c #817C08",
"K  c #865D2B",
"L  c #825035",
"P  c #895438",
"I  c #95672E",
"U  c #958E07",
"Y  c #9B9509",
"T  c #948D11",
"R  c #A3920E",
"E  c #A9A106",
"W  c #ADA609",
"Q  c #B4AC04",
"!  c #BFAC0D",
"~  c #BFB702",
"^  c #C1AD0E",
"/  c #C6BC02",
"(  c #CCC202",
")  c #D3C902",
"_  c #D8CD00",
"`  c #DBD104",
"'  c #E0D501",
"]  c #E5DA04",
"[  c #E0D60A",
"{  c #E8DD09",
"}  c #E5DB13",
"|  c #E8DE1B",
" . c #EBE006",
".. c #F0E60C",
"X. c #EDE316",
"o. c #EEE51E",
"O. c #C9C426",
"+. c #F5EC25",
"@. c #F3EA2F",
"#. c #F9F026",
"$. c #FAF029",
"%. c #FEF63A",
"&. c #EEE74D",
"*. c #FCF445",
"=. c #FEF748",
"-. c #F4EF52",
";. c #FEF851",
":. c #F4F05E",
">. c #F6F162",
",. c #F7F36C",
"<. c #FBF76C",
"1. c #F4F072",
"2. c #FDF974",
"3. c #FDFC8F",
"4. c #FDFB9B",
"5. c #FBFEB7",
/* pixels */
"& & & & & & & & & & # # # & & & & & # & & & & q & & & & & # # # & q & q & & & & & # & & # & & # & & & # & & & # # # q & & & & & ",
"& & q q q & & & & & # # & q & q & q q & & q & q & & & & & # X & q q q q q q & q & q q & q & q & & q & q q q & # # # q q q & & & ",
"# & # & # # # # & X X # & q # # # # & # # # & # # # # & # X # # q # & # & # X & # # & # # # # X & # # & # # # X X # q & # & # # ",
"# # # # # # & X # X X # & & & & # # # # # # # X # # # # X X X # & # X # # X # # # # # X # # # # # X # # # # #   X # q & # # # & ",
"# # # # # # # # # X   # & & # & # # # X # # # X # # X # X X X # & # # # # # # X # # # # # # # X # # X # # # X   X # q & X # # & ",
"# # # # X # X # X     # & & # # X # # X # X # X # X # O @ ; , 6 8 6 , > % X X X X # # X # X # # # X # X X # X   X X q # # # X # ",
"X X X X         X     X # # X X   X X X X   X   X o ; : , : , 6 8 , , , 3 : @ X X X X   X X   X X X   X   X     X X & X X X X   ",
"X X X X X   X         # # X X X X X         X X ; : : : , , < 6 9 , , , , , , ; o       X X X X             X # # X X X X X X X ",
"& & & # & # # # # # # # # # # & & & # # & & 3 8 6 8 8 8 8 8 0 6 8 0 0 0 0 0 8 6 < > & # & & & & # # & # # # & # # # # & # # # # ",
"q & & & & & & & & # & & # # # q & q q & & 9 0 8 0 8 l 8 8 8 8 8 8 8 8 0 8 l 0 6 < 6 r q & q & & q q & q & # & & & & & & & # # # ",
"q # # # # X # # # # # #   # # q # # # # 2 6 6 6 6 < 6 < 6 6 6 6 8 < < 8 6 6 6 : < 6 x 5 # # # # # # # # X # X # X # # # X   # # ",
"q # # # X # # # # # # X   X # q # # # % < < < < 8 < 6 6 < < < 6 8 < < 6 6 6 , : , 6 x 6 % & # # X # # # # # # # # X # # X   X # ",
"& # # # # X # # # # # X   X # q # # # 6 , 6 < < 6 < 6 < < < < 6 < < < 6 < 6 < : , < 0 8 < # # # # # # & # X # # # # # X X X X # ",
"& # # X X # X # X # # X   X # q # O 2 8 6 < , < < < < < < < 6 < < < < < 6 < < : : < 0 6 6 2 X # X # # X X X # X # X # # X X X # ",
"& X X     X X X   X X     X # & # O , , < , , , < , < , < , , , < , , , , , , : : < 0 6 < , o X   X X X   X X X X X X X   X # & ",
"X X     X       X       X # # # X : , , , , , < < < , , , : : : : , , : , , , , , 6 8 , , , ;       X         X     X X X X # # ",
"& & # # & & & # & # # # # # & # & 8 6 8 6 6 < 6 8 0 8 0 8 8 8 6 8 8 8 8 8 8 6 l 8 8 8 8 6 8 8 2 # # & & # & & & # # # # & & # # ",
"& q q & & q & & & & & & & & & & 3 0 8 8 0 6 6 8 x x 0 x 0 0 x x 0 0 0 8 8 8 8 8 0 8 8 8 8 8 8 2 # q q q q & & q & & & & & & # # ",
"& q # & # # # # & # # # & # # # 6 6 < 8 6 < : < 0 x 8 8 < 8 < < 6 6 8 < < 6 < < 6 6 6 8 < 6 < ;   q & # & # # # # & # # # & # # ",
"& & # # X # # X # # # # # X # # 6 6 < < 6 < : 8 x x 6 8 < 6 < < 6 6 6 < 6 6 6 < < 6 < 6 6 6 , : o q # # # # X # X # # # # & # & ",
"# & # # X # X X # # X # # X # 2 < 8 < 6 < < : 6 0 0 6 < 6 < < 8 < 6 < , < 6 < < 6 < 6 6 < 6 < : @ & & # # # X X X # X # # # # & ",
"& & X # X # # X # # # # X X # 2 , < < < < < : < 0 x < 8 < 6 < < , 6 6 < < < < , 6 < < 6 8 < < : > & # X # X X # X # # X # # # & ",
"# & # X X X X X X X X X X X X > : , : < , : : < l 8 < < < , , , , , , , , , , , < : , , < < , : > & & X X X X X X X X X X X X # ",
"# # X X   X X X   X X X X X X : < < < : , : : < 6 < , , , , , , : : : : , < < , : : , , , , , , , # # X X   X X X X X X X X # # ",
"& & & & & # & # # X # q q & & 8 8 8 8 < < 8 < < 0 8 8 8 6 0 8 8 6 < 6 8 0 0 0 8 8 6 8 8 8 8 8 8 6 & & & & # # & # # # & & & # & ",
"& & & & & & & & # # # q & & & 0 0 8 8 0 0 0 0 8 0 8 8 0 8 0 8 6 6 6 x x 0 0 0 0 0 0 0 8 8 8 8 l 6 & & & & & & & & & & # # # q & ",
"# # & # & # # #   # # q # # # 6 < 8 < 8 < < < < 8 < < < < < 6 , < 8 x 8 < 6 6 6 < 6 6 < 6 6 < 6 3 # # # # # # & # & #   X # q # ",
"# # # # # # # #   X X q X # # 6 8 < < 6 8 < < : < < 8 < 8 < 8 : < 8 x 0 < 6 6 < 6 6 8 < 6 < 6 6 6 # X # # & # # # # X   X # q # ",
"# # # # # # # X   X # q # # O 6 < < < < < < 8 < 8 < < 6 < 6 8 : < 0 x 6 8 6 6 < 8 6 < 8 6 6 6 8 3 X # & # # # # # # X   X # q # ",
"# # # # # # # X   # # & # # X 9 < < < 8 < 8 < : < < 8 < < 6 < : , 8 x 8 < 6 6 8 6 < 6 < 8 < < 6 , # X # # # # # # # #   X # & # ",
"    X X X X X     # # & X X X > < < < < < < : < < : < : < < : : , 6 l 6 , 6 < < < < < < < < < , > X X X   X X X X       X # & X ",
"  X X       X     X # # X     O : < < : : : : : : < : < < : 0 H k 6 6 , , , , < < < , : : : , < O X X     X     X   X X X # & X ",
"& & & & # & & # # # & # # # # & 8 8 8 0 8 8 8 < 0 6 6 8 8 z O.&.T l 0 0 6 0 8 0 0 8 8 8 8 8 8 8 - # # # & & # # # & # # # # & # ",
"& q & & & & & & & # & & # & & # 8 8 8 8 8 0 8 8 8 < 6 6 b W @.:.` c 0 0 8 8 8 8 l 6 8 8 8 8 8 6 & & # # q & q & & q & & & & # # ",
"& & # # # X # # # # # X # # # X 2 6 < 8 < < 6 < 6 : 1 6 n ( *.2.X.h 6 , 6 < 6 < 6 6 < < 6 6 < 2 X # . # q # # # X & # # # # X X ",
"& & X # X # X # X # X # # # # # O 6 < < < < < < < : < 6 n ( ,.-.) J < 6 < < 8 , 6 , 6 < 8 6 < % X X X # q # # X X X # X # X X X ",
"# & # & # X # # # # # X # # # X # 3 < 8 < 8 8 < < : , 6 n / 1.,.] ( Q < 6 < , 6 < 6 6 6 < 6 3 # # #   X q # # # # # X # # # X X ",
"& & X # # # # # # # # # & X # X X % < < < < < < 6 : , M Y / #.;.*.X.Y 6 6 < < 6 , 6 6 < 6 6 % # X X X # q # X # X # # # # # X X ",
"& # X # X X X X X X X X #   X X   X > < : < < : < : < m ) ' | >.4.+.` 6 , , , , , , , , < > X X X X   # & X X X X X X X X X     ",
"X # X X X X X X X X X X         . .   ; : : : : : : < j / { %.3.5.o.Q : , , < , : , , : ;       X X   X # X X X X X X X X X     ",
"& & & & & & # & & & q & & & # # # & & % 8 8 8 0 8 6 8 0 E _ $.2.2.] N 8 8 8 8 6 8 0 8 8 % X X # # & & & # & & # & & # & & # & & ",
"& & & & # & & & & & # & & # # # & q & & 5 0 0 0 0 8 8 8 z Y ` .. .Q m 8 8 6 < 8 x 0 0 5 & & & & & # & & q & q & & # & # # X q q ",
"# # # # # X X # & X # X X #   X & & # # # > : < < < 6 , 6 l R ^ ^ v < < < , 1 8 0 < > # X # # # # # X # X # # # X # #   X # q # ",
"& X X # # # X # # X # X # X   # & & # X # X > 6 < 1 6 8 < 8 S I K c 8 , < : < 8 x @ # # & # X # X X # # X X # # # # X   X & q X ",
"X # X X X # # X #   #   #     # # & # X & # X % , 9 < < < y A P L d 1 1 , : < 6 q # X # # X # X # X # # # # X X # # X   X # q & ",
"X # # X # # # X # # # # # X   # & & # # # X X # X @ , , 6 7 g L D u 1 , 1 ; O # 4 X X X X # # X X # # X # X X # # X #   X X q X ",
"X X X X   X X   #   X X       # & #     X X X   X X X X @ : u D g y ; @ o   X # &     X X X X X X X X   X X X   X X X     # q X ",
"X X   X   X   X   X     X     # & # X X   X   X   X X   X X t D g *         X # #     X X X         X   X   X   X         # # X ",
"& & & & & & & & & # # # # & & & & & & & & & & & q & & & & # a D Z w & & & & & & & # # & & & & & # & X # & q # # & & & & & # # & ",
"& q q & q & q & q & # # & q & q & & & & & q & & & & & & & # a D Z e q q q q & q & q q & & & & & q # & # q q q q & q & q & # # # ",
"& q # & # # & # # X X # & q # & # # & # # & # # # # & & # X = A f & # # # # # & # # & # # # & X & X X # q # # & # & # # # X X & ",
"& & # # # # # X # X X # & & & # # # # # # # # # # # X # X X $ d s # # # & X # # X # & X # # # # # X X # q # # # # # # # X X X # ",
"# & # # # # # # # X   # & & # & X # & X # # # X # # X # #   X - q # # # # X # X & # # # & # # X # X   # & # # # X # X # X   # # ",
"& & # # X # X # X     # & & # # X # X # X # # X # X X # X X X # & # # X # X X # X # # X # X X # # X   # & # # X # # # #     X # ",
"# # X X X       X     X # X X X   X X X X X X   X           X # # X X X X X X X   X X   X X   X X     # # X X   X     X     X # ",
"# X X X X   X         X & # X X X X                   X X   X # X X X X X X   X X X         X X X   X # # X X X X           X & ",
"q # # # # & # # # # # # # # # & & & & # & & & & # # & # & # & # & & & & & # # X # & & & & & & & # # # # & & # # # # & & # X # & ",
"q & & & & & & & & & & & # # & q & q & & & & & & & & & & & & & & & & & & & & # # & q q & & & & q & q & & & # & & # q & & # # # q ",
"# # # # # # # # # # # #   X # q # # # & # # # # # # # # # # # # # # # # & X X # & q # # # # # & # # # # # X # # # # & #   # # q ",
"X # # # X # # # # X # X   X # q # # # # # X # X # # # # X X X # # X # # X X X X & & # & # # # X & # # # # X # # X & # X   X # q ",
"& # # # # X # # # # # X   X # q # # # # X # # X # # # # # # # # # X X # # X X X & & # # X & # # # # # # # # # # X & & X     X q ",
"# # # X # X X #   # # #   X # q & X X # # X X # X X # X X X X # X # # X # X   X & # # # X # X X # X X # X # # X X # # X     X q ",
"X X     X X X X   X       X # & # X X X # X X X X X X X X X X X X X X X X     X # & X X X X X   #         X X X X X X     X # & ",
"                X       X X # & X X   X X X X X X X X X X         X X   X   X # # #   X   X X         X         X X X     # # # "
};
