/* XPM */
static char *torch03w801743666765[] = {
/* columns rows colors chars-per-pixel */
"64 64 98 2 ",
"   c #0D0D0D",
".  c #10100F",
"X  c #131313",
"o  c #191916",
"O  c #1C1C1C",
"+  c #241F1C",
"@  c #23231C",
"#  c #28281E",
"$  c #33261E",
"%  c #232323",
"&  c #2A2522",
"*  c #2C2C23",
"=  c #2B2B2B",
"-  c #312B29",
";  c #323225",
":  c #3E3423",
">  c #363629",
",  c #3F352F",
"<  c #3A3A2D",
"1  c #323232",
"2  c #3E3E31",
"3  c #393939",
"4  c #472F23",
"5  c #433C2D",
"6  c #533C2A",
"7  c #5D3C2A",
"8  c #4F3A30",
"9  c #6D6A18",
"0  c #48462E",
"q  c #4F4A2A",
"w  c #57402D",
"e  c #5B4229",
"r  c #5F5D2F",
"t  c #424235",
"y  c #464639",
"u  c #4A4A3C",
"i  c #504637",
"p  c #5E4231",
"a  c #585739",
"s  c #66422D",
"d  c #6B432D",
"f  c #764C2C",
"g  c #605D25",
"h  c #684430",
"j  c #6E4933",
"k  c #774931",
"l  c #7C4C32",
"z  c #605E30",
"x  c #67652B",
"c  c #726F2B",
"v  c #757126",
"b  c #75712B",
"n  c #4E4E41",
"m  c #525244",
"M  c #875D2C",
"N  c #825035",
"B  c #895438",
"V  c #95672E",
"C  c #807C27",
"Z  c #85811D",
"A  c #88831E",
"S  c #9A8B13",
"D  c #918C1A",
"F  c #9E9913",
"G  c #A19A18",
"H  c #BEAB0D",
"J  c #ABA411",
"K  c #B4AE12",
"L  c #898423",
"P  c #C4AF0F",
"I  c #C5BC05",
"U  c #C6BD09",
"Y  c #CDC305",
"T  c #D0C705",
"R  c #D3C901",
"E  c #D9CF0F",
"W  c #DFD404",
"Q  c #E2D603",
"!  c #E5D902",
"~  c #E8DD05",
"^  c #F3E606",
"/  c #F6EB13",
"(  c #F9EE15",
")  c #FCF118",
"_  c #E9DF25",
"`  c #F0E930",
"'  c #EAE44F",
"]  c #FEF746",
"[  c #F4EF5D",
"{  c #EFEC6F",
"}  c #FDF965",
"|  c #F6F378",
" . c #FDF980",
".. c #FCFB8D",
"X. c #FDFB97",
"o. c #FDFB9B",
"O. c #FBFEB6",
"+. c #FBFDB8",
/* pixels */
"% = = % = % = = = % % O % = % % = = % = = = = = = = = = % % O O = 1 = = = = = = % % % = % = = % % = = % = = = % O O % = = = = % ",
"= 1 1 = = = = = = = % O = 3 1 = = = = = = = = = = = = = = % o % 1 1 1 1 1 = = = = = = = = = = % = = = = = = = % O % 3 1 = = = = ",
"% % % % % % % % % X X O = = % % % O % % O % % O O % % % o X o @ = % % % % O O = O % % O % O % O % O % % % % O X X O 3 = % % % % ",
"O % O % X % % O O . X O = = % % O O O O % O O O O % O % ; ; < t n 2 * % % O o % O % % O % O O O % O O % O O O   X O 1 % % O O % ",
"O % O O % O O O O X   O = = % % O O % o O O % o % = < t > ; < < y 2 2 2 2 * % X % O % O % O % o % o O O o O O   X O = % O O O % ",
"% O O O X % X O O . . O % = O O O O O O O o o @ < < < < < ; ; t y 2 < < 2 < > * o O O . % X O O O X O O o O X   X O 1 % O O O O ",
"  X o o . . . . X     X % O X X . X X X . . * ; > * ; ; ; ; ; < t > > > > > > > * . . . X . . X . X   .     X   X O = O X X   X ",
". X X . . . . .       X % O X X . .       * ; ; ; * ; ; ; ; < t < > > ; > > > * ; = . X . . . X .   .       X O X X X X X X o   ",
"= % % O % % % % O O O % O O % % = = % % 2 y y y t t y t y t y t t u u y u u t t < < t * = % = % % % % % O O % O % O O % % O O % ",
"1 = = = % % % % % % = % % O % 3 = = = 2 y u y y u y y y y y y y y y y u y y u 2 2 < m y = = = = = = = = = = % % % % = % = % O % ",
"= % % O O O O O O O % O   X O 3 % % * t 2 2 2 2 2 < 2 < 2 2 2 2 t 2 2 t 2 2 0 ; < 2 m y * % o % % % O % O O O % O O O % O   O O ",
"= % O O O % O O O O % X   X O 1 o = 2 2 2 < 2 < t < 2 2 < < < 2 t > < t < 2 > ; > 2 n 2 2 = O % O O % O O O O O % O O O X X X O ",
"= O % O X O O % O O O X   X O 1 o < < t < < < < 2 < t < < 2 < 0 < < < t < < < ; ; > u y 2 > % O O O O % O X O X % O O O X   X O ",
"= % O X O O X % X O % X   X % 1 # < < 2 < < < < < > 2 < < < < < > 2 < < t < < ; ; < u 2 2 < O O O O O O X O O O % X O O X   O % ",
"% X X   X X X X X X X     X O = * < > > < < > ; < ; > > < ; > > > > < ; > > ; * ; 2 y 2 ; ; @ o   X X     X X X X X X X     O % ",
"O X     X         X     X O O % < < ; > ; ; > > < < > ; ; * ; ; ; ; ; ; ; ; ; > > 2 t < > ; ; o     X X       X       X O O O O ",
"% = % % = % = % % % O O % % = 1 t t 2 t 2 2 < 2 t u u u y t t t t y y y t y y 0 t y y t 2 t y > O % % = % % % % % O O % % % O O ",
"= 3 = = = = = = = % % = = % % 2 y u y y u t 2 t u m u u u u u u u u u t t y y y y y y y y y y > O 1 = = = % = = = % = % = = O % ",
"% 1 % % O % O O % % % O % O % 2 t 2 < t t < ; < u u t y 2 2 < 2 2 2 t < < 2 < < t 2 2 t < 2 < ; X 1 = % % % % O O % % % % = O = ",
"% = O % O O O X % O O % % X = < 2 2 < < 2 > ; t m u 2 t 2 2 2 < 2 2 2 < t < 2 < < t < 2 2 2 ; ; O = O % % O X O o O O O O % O = ",
"% = O % X O X O % O X % o o # t > t > t > > ; t u u t < 2 < < 2 < 2 < > < t < < < 2 2 t < 2 < * O = % O % o O X O O O O % O O = ",
"= % O O X X O X O O O O o o > 3 > t > < < < ; < u u 2 t < 2 2 < < < < < < > < > t > < < y < < ; = = % X O X O O X O O X O O O % ",
"% % O X X X X X X X X X X X * ; ; > > > ; ; ; > y t > < > > > > ; ; > < < ; > ; < ; > ; < < > * * = % o X X X X X X o X o o O O ",
"O % X X X X X X X X X X X X ; ; > < > ; ; > ; < 2 2 > > > > > > ; ; ; ; ; < < ; ; ; ; > ; > > > * % O X X X X X X X X X X X O O ",
"= = = = % % O O O X % 1 1 = y y y 0 t t 2 t 2 t y y t y 0 y y t < < 2 y y u y y y t y y 0 t t y 3 = = % % O % = % % % = % = = % ",
"= % = % = = = = % O O 1 = = u u u y y y y t y t y y y u t y y 2 < y m y y u u u y u y y y t y y y % % % % O % = % % % % % % = % ",
"% O % O % % % O   X O 1 O O < t 2 2 < t 2 < < < t < 2 5 2 2 2 ; < t a y < 2 2 2 < 2 2 < 2 2 2 2 < O O O   O % = O O O O O O O O ",
"O O % O % O % O   X O 1 o % < 2 t 2 < t 2 2 2 > 2 2 < < 2 2 2 ; < y m y < 2 2 2 t 2 y < t < 2 t 2 O O X   O % % o X O % O X O O ",
"% O O % % O O X   O % 1 O O < t < > 2 5 < < 2 < 2 < < 2 < 2 2 ; < y m 2 t 2 2 < t 2 < t 2 2 2 t < o o X   X % = O X O O O O O X ",
"O O O O O O O O   O O = X % * 2 t < 2 t < 2 < ; 2 < 2 2 < 2 2 ; > t n y < t 2 t < 2 t < t < < 2 1 % O O   X % % O O O X % X X O ",
"    X X X X X     O O % X O = 3 > > < < > > > ; < > > > < > ; * > 2 u < > < < < < < < > < < < > = O X     X % % X X X X X X X   ",
"X X X X X   .     X % % X   O ; > > < > ; ; ; ; ; > > ; > > > ; > 2 t > > > > < 2 > > ; ; ; > ; O X .     X O %       X X   X X ",
"% % % % % = % % O % % % O % 1 u y y y u t u u y y t 2 t t y t v v u y u t y y u n y t t t y y t = % O % = % % % % % % % O % % % ",
"% % = % % % % = % % % O O % 1 m u u u u u u u u u t < t n u L ' ~ C u u y t t 0 y t y y y y y t = % O O = % % = % = % % = % = % ",
"O O O % O % O O % o %   o O 1 3 t y t t t t t t < > < t a L _ ..W < < > 2 < 2 2 < 2 < < 2 < 2 < X o . % = O O % X % % O % O O O ",
"O O X O o O X O o O X   X % = % t < 2 < t t 2 t ; ; < 2 b Y | ` R Z > t < < 2 < t > 2 < t 2 < * O O . O = X O X O X O X O X % X ",
"O X O O O % O % % O o   X O = % < 2 < 2 < 2 < t > ; > t b Y { [ ~ I K D 2 < > 2 < 2 < 2 2 2 < % O O . O % % % O X % O % O % X % ",
"O o O O O O X O O X O   X O = % < < 2 < 2 < < < ; ; < K D I ( } ] / E g 2 < < 2 > 2 t < 2 2 ; O X X . O % O O % X O O O % X % X ",
"X X   X   X X X X X X   o O O o o ; ; ; ; ; ; ; ; ; > x T ! (  .X./ W F > > > > ; > > > < ; X O X X . % % X X X X X X X O X X X ",
"    X           X     X O O O X X @ ; ; ; ; ; ; # ; > < Y ! ) O.O.^ R 9 ; < > ; ; ; > ; * @ . X X . . X % . X X X X X X X X X X ",
"= % % = % = % % % = 1 = % % % O % = t t t t u t y t t y I R / X.} W Y t y y t t y y y y u * % % % = % % % % % % = % % = % % % % ",
"% = = = % % % % = % % % = % O % = 1 3 u u u u u u y y t x G T / ~ J r t t t > y u t y t 1 = = = % % = % O O O 3 = = % % % = % = ",
"% O O O O o O O % O O O X O   O % = % > 2 < > < t < 2 > 2 0 S P H q 2 < < > < t y t < * O O O O O O O O   X % = O O % X % O X O ",
"% X o % o O O O O X O X O o   O % = o o < < < 2 > 2 2 t < 5 f V M e 2 > > ; < y u > ; O % O X O O O X O X X O 1 O O O % X O % X ",
"O O O X o O O O O X O X O X . O % = O X % > < 2 < 2 2 > < 8 d B l e < t ; ; > y u > X O O O X O X % O O   X O 1 % O O X O X % X ",
"X O O X O O O o O O O O O o   O = % O o @ X = 2 > 5 < > 2 5 7 N k w 5 > > ; > t t o O o X % O X O O X O   X X = O O O X % X O % ",
"X X X X   X . X X X X   X     O % % . . X X X @ ; > > > ; > 6 k s < > ; ; ; > ; % X o X X X X X   X X X     O = X X X X X X X X ",
"X X X   X X   X X   X X X   . O % % X X X . . . o # ; ; ; ; 8 k d : ; ; ; @ o O O     X X X . X X   X       O % X X . X . . X . ",
"% = = % % % = % = % O O = % = % % = % = = = = = = = = 1 , 5 8 l j i 3 1 = = = % % % % % % = % % % % O % = = % % = = = = % % O % ",
"% 3 1 = 1 = 1 = = = % O = 3 1 = = = = = = = = = = = = = = % 4 l h 3 1 1 1 1 = 1 = 1 = = = = = = = % % O 1 1 = 1 = = = = = % O % ",
"= = % % % O % % % O X O = 1 % O % O % % % % % O O % % % O X & h 7 = % O % % O % O % % % % O % O % O X O 1 % % % % % % % O X X % ",
"% = O % O % O O O     O = = % % % O O O O O O O O % O O X X + 7 8 O O O O O O % O % % X % O O O % X X O = O % O O % O O X   O % ",
"% = O O % O O O O     O = = O % O % % X O O O O O O O O X   O % - O O % O O O X % O % O % O % X % X   O = % O O O % O % X   o % ",
"% = O % X % X O O X   O % = % O X O O O O O O X O O O O X X X O = O X o O X X O X O O X % X O O O X X O = O % X O X O X X   X O ",
"% O X X       X X   X X O O X X   X X X .   X . .     . .   X O % X X X X X X X X X X   X   X X X     O % X X         X     X % ",
"O O X X X   X         X % O X X X .       . .           . X O O o X X X X X X X X X       X X X   X X O O X X X   X X       X % ",
"= % % O % % % O O O O % O O O = = % % % % = % % % % % % = = = = % O O O = % % = = % = % O O % % % % % O % = % % O O = = % % O = ",
"1 = = = % % = = = % = = % O O 3 = = = = = = = = = = % % % % = = % % O = 1 1 = = = = 1 = = = % = % % = % = = = % O O 1 = = = = = ",
"O O % O O O O O O O % O   X O 3 % % O % O O O O O O % % O O % % X X O % 1 O % O % % % O % O O O O O O O % % O   X O 1 O O O O O ",
"O % O O O O O O O O O X   X O 1 O O % O O O O O % O O % X O O O X X O % % O % % O O X % % O X % O O O X % O X   X O = O O O O o ",
"% O % O X O O % O O O X   X O 1 O % O % X O O X O X % O O O O % X . X % = % % O % O O O O O O O O O % X % % O   X O = O O X % O ",
"O O O X O O O O X O % X   X % 1 % X O O O O X O O O O X O O O O X   X % % O O X O O O % O O X O O O X O O % X     O = X X O X O ",
"X X     X X X X X X X     X % = O X X X O X X X X X X X X X X X     O % % X X   X X X X     X   X X X X X X     X O = X X X X X ",
"      X           X     X O O O O X X X . X X X O       X .   .   X O % O . X     X X X     X         X     X X X % % X X X O   "
};
