/* XPM */
static char *torch03w101743666765[] = {
/* columns rows colors chars-per-pixel */
"64 64 118 2 ",
"   c gray12",
".  c #252525",
"X  c #282827",
"o  c #2C2C2C",
"O  c #34342E",
"+  c #333333",
"@  c #3D3D35",
"#  c #3C3C3C",
"$  c #4A3E35",
"%  c #423D3A",
"&  c #553D30",
"*  c #434336",
"=  c #4D4332",
"-  c #464639",
";  c #4B4B3D",
":  c #5C4532",
">  c #534A39",
",  c #594F3F",
"<  c #6F432D",
"1  c #77482F",
"2  c #77522B",
"3  c #644431",
"4  c #6C4731",
"5  c #644A31",
"6  c #6D4932",
"7  c #634D3A",
"8  c #774830",
"9  c #7B4C33",
"0  c #734F3B",
"q  c #77523C",
"w  c #7B7827",
"e  c #79763D",
"r  c #444444",
"t  c #4B4441",
"y  c #4E4E41",
"u  c #4B4B4B",
"i  c #544F40",
"p  c #524E4C",
"a  c #525245",
"s  c #5C5646",
"d  c #5B5B46",
"f  c #565649",
"g  c #5A5A4C",
"h  c #545453",
"j  c #5A5452",
"k  c #5E5E51",
"l  c #5B5B5B",
"z  c #605849",
"x  c #6D584E",
"c  c #745847",
"v  c #685E58",
"b  c #676241",
"n  c #65634B",
"m  c #626255",
"M  c #666659",
"N  c #6B6B5D",
"B  c #716757",
"V  c #636363",
"C  c #6E6E61",
"Z  c #6B6B6B",
"A  c #727265",
"S  c #767668",
"D  c #79796C",
"F  c #737373",
"G  c #7D7D71",
"H  c #885F2D",
"J  c #825035",
"K  c #895438",
"L  c #95672E",
"P  c #817F51",
"I  c #A0921A",
"U  c #BEAB0D",
"Y  c #ABA51F",
"T  c #B7B01C",
"R  c #8D893E",
"E  c #9B9731",
"W  c #A39D2C",
"Q  c #A29D3B",
"!  c #B1AA28",
"~  c #BFB920",
"^  c #C4AF0F",
"/  c #C7BE0B",
"(  c #C1B91B",
")  c #C9C007",
"_  c #CCC30C",
"`  c #D3CA03",
"'  c #D1C708",
"]  c #D4CB0A",
"[  c #DFD404",
"{  c #DBD111",
"}  c #E2D603",
"|  c #E4D902",
" . c #E8DD04",
".. c #F3E606",
"X. c #F6EB13",
"o. c #F9EE15",
"O. c #FCF118",
"+. c #EBE227",
"@. c #F0E930",
"#. c #858248",
"$. c #918E43",
"%. c #928E4A",
"&. c #9B9743",
"*. c #818061",
"=. c #838375",
"-. c #878779",
";. c #FEF746",
":. c #ECE651",
">. c #F4EF5D",
",. c #EFEC6F",
"<. c #FDF965",
"1. c #F6F378",
"2. c #FDF980",
"3. c #FCFB8D",
"4. c #FDFB97",
"5. c #FDFB9B",
"6. c #FBFEB6",
"7. c #FBFDB8",
/* pixels */
"h l l h h h l l h h u r h h h h h h h h l l l l l h h h h u r r V V V l V l l h h u u h h l h h h h h h l h h u r u h V h h h h ",
"l V V V V l V l V h r r l F V V l V V l V l V V l V l V l u # u Z V Z Z V V V Z l V V l l l l l l l V V V l V u # u F Z V V l V ",
"u u u u h r u u u # o r l V u u u r u u r u h r r u u h # + # y V h u r h r # h # h h r u # h # h r u u u u r + + u F l r h u u ",
"u u u u # u u # r o o r l l h u r r r r r r r # r r r r ; ; f M D k u r u # r r # u u # u r u # u # # u u r # . o r Z r u r r u ",
"r u r r r r # r u o X r h l h u r r u # r r u + r a g m a - a m C k k m k a r @ u u r # u r u + u # # u # r # . o u Z u r r r u ",
"r r r u + u # # + X X # h h r r + # r # r + # y g g d g a - ; k A k a d k a a r + r r + u + r # r + # # + # + . o # V u r r # r ",
"X + # + X o X X + . X + h # + + o + o + o o - - y * - - - - ; k m y ; a a ; ; a * + o o + o o + o o X o X o o   o # h # + o X o ",
"X o o o o X o X     X + u r o o o o X . . * - * * @ - ; ; ; g M d ; a ; ; a ; - - @ . o o o o o o . o   . . + r r o + + o # + o ",
"h h u r u h h r r u r h r r r h h h u u m C N N m M N N N M C m N A C C A A N M d a N h l h h h u h u u r u u r r r r h u u r r ",
"Z l l h h h h h h h h h r r u F V V V Z C A A C S C C N N C C N C C C A C C A k g k -.G l l V l l V l V h h h h h h h h h u u u ",
"V r u r r r r r # r u r X + u Z u u a N k m k m m g m g m k k m M k k M m k M - a k G A y u r r u u r u r r # u r # u u # . # u ",
"V h u r + r # r r # u + . o r Z r u k k g f g g m a m k g a g k m a d M g m a * y g G m m h r u # r u r r # # r r # r r + . + r ",
"V # u r # r # u r # r + . + r Z # k k M a m g a m a m g g k g m g f g m a g g - ; d D N k f r u # r r u r # # # u # r # + . + r ",
"V r # + # # # r + r u + . + u V h f f k g a a f a d m f d k f d a k g g m g d - * f S m M f r r # r # r + # r # u + u r +   # u ",
"h + o . o + + + o o + X . # u l a a ; a f a a y a y a y a ; ; a a ; a y a y ; @ - g A g ; ; @ + X + + X . o + o + o + X . o r u ",
"# o . o o X .   o o .   o # # u f a ; y ; ; y a d a y ; - - - - * ; ; - - ; ; ; a m M a ; ; ; o X . o o .   o o o   o + # # r r ",
"h l h u h h h u u u u r u u h l N M M m k m g k m S C A N M m m M N N C M N N C N N C M m N C m r r h l u l u h u r r h h h # # ",
"V Z l V l l V l l h h h l l g V N A N C A M M m S -.A D S S S S A S A N M N N N C N N N N N N g # F V l l h h l h h h h h V r h ",
"h V u h r u r # u u r u u # u k M m f M m g - k S D M C g m g k k k m f d m g g M g m m f k g - o V h u h u r r r u u u u h r h ",
"h h r u # # r # u r r r u # u g k m a g m , - m G S m m d m k f m m m g M f k f d M g m k k y - + l u u u # + r # r r r u u r l ",
"h h r u o r + r u # # u # # r m a m a m a ; - M S A m g m g d m f m f a g k g a g k k m f m a * # l h r u # # # # u # # u r r l ",
"h h + r + + r + r # # r # # g g a k g k g g - g A D k M f k k g f d k a d a g a M a f g N g f - - V u + # + + r + # r + u # # u ",
"h h # + + + o o + + + + + + - ; - ; ; a ; - - a A M a f y a ; a a y a y a ; y ; d - a ; d f y * - h h + + + o + o + + + + + # u ",
"r u + + o o + o o o + o + o - y a a ; ; ; - - d m k y ; ; y y ; - - - - y f a y * - - ; ; ; y - r u r + + o + o o + o + + + # r ",
"l l l h u u u r r # u V V l A C C N m m k m m M C N N C m C C M d g k C C A C C M M C N M N N C m l l h h u u h h h h l h h l h ",
"h h l h l l l l u # r Z l l A A S C N C C N N M C C N C N N N m k M G S A A A A A A A N N N C N C h h u u # h l u u u h h h h u ",
"u r u u h u h # . # r Z # r k m k m g M k g d g M d k k d m k ; f M =.N a k m k a m k g k k g m f r # # X # h h # r + r # # u # ",
"r # u r u # u # . + # V # u k m m k g m k k k y k k m a m m m ; f N -.N g m m k m m M k m d k M k r r + X # h h # + # u # + u # ",
"u r u u u r r + o # r Z r r g m g d k k g g m a m f g m a m k - f N -.m M m k f M k g m g m k m f # # + . # h h u + r # u # # + ",
"r # r # r r r # . # r V + u t m k g d M g m g ; g g k m k m k ; a m G N d M k M k k m g M g k M h u # # X + r h # # # + u + + # ",
"o o + o o + X . . # r h + # r g a a a g ; a ; ; f a a ; a a ; * ; m S g a f d g d f d a f a a a - # + o   + u u + + + o + o + o ",
"o o o o o o o o o + u u + . + - ; a a a ; - - - - ; ; ; ; ; ; - d k M a ; ; a a k a y - - ; y ; @ o o .   + r u . . o o o o o o ",
"u h u h h l h u r r h u r u l A C N N N C C C N N m m m N N N R $.C C A m C N S D C N N m N C N l u r u l h u u u h u r r u h u ",
"u h l h h h u h h h h r r r F G D D A D A D S D S M g m D A Q :. .&.A A N N C M N N N C N N N M h u u r l u u l h l h u l h h h ",
"r # r r # u # u u # r X # r Z m m N m N M M M m d a g m *.E +.3.[ d f a m g d g g g g f m g k k # # . u l r # r + u r # r # r r ",
"r # + r + r + # # # + . + u V u M g M f M m g m ; ; g m %.] 1.@.` E a k f f M a m a m g M k g a + # X r h # r # # # r # u # r # ",
"r + r r # u # u u # # . + r l u g m g m g m g M y - f m %._ ,.>.| ) ( W m g y g a M g k k k f u r # X # h u u r # u # r # r # r ",
"r + # # # r # r # # u   o r l r k a m a n d g f ; - g T W ) X.<.;.X.{ e k a f m a g m f k m f r + # . u h r # r # # r # u # r # ",
"o o X + o + + + + o + . + r r # @ - - - - ; - ; - - ; #.] | O.1.5.o.[ Y a ; a y ; y a ; a y + + X + . r r # # + + + # + # + # + ",
". . o o . . . X o . . X # r r o o @ ; ; ; - ; * * - a g _  .O.7.6...` w ; a a ; - ; ; ; * O o o o X o # u o o o + o + o o + o + ",
"l h h l u h h h h l V l h h u u u l M m m N C C N m N C ) ` X.4.<.[ _ N N N M m A N N C A u l h h h u h h h u h h u u l u h h u ",
"l l l l h h h h l h u h h h r u l Z Z A S A C A A C N N #.! ] X. .T P N M m g N A M N N M l l h h h h h r # r Z l u l u h h h h ",
"r # r r r # # + h + # r + # . # h l u f m a y g k k v a m n I ^ / , k a g ; g N A k n ; r # # u r # r r X + u V u r r + r r # r ",
"u + # u # # # r # # r + r + X # u l # @ k a a M a g g m f d 2 L H 5 g a a - f N A a y # u # + r # r + # . + r Z # r # u # r # # ",
"# r # + # r r # r + # + r o X r h l # + u a a m f g k a g i < K 9 5 , k y * f N A g + r # u + # + r # # . o r V h # r + # # r # ",
"# r # + # # # # r # # r # # X # h h # # u # y g a g g a v s 4 J 9 7 d a f - y m V # # # + u # # # r # r X o # l # r # + r # # r ",
"+ o + o o o o + + o + o o X X r h u X X + o o # - a a ; ; a : 8 6 > ; ; ; * a k u + o + o + o + o o o o   o # l + + + o o + o # ",
"o o o o o o o o X o o o o o X r h r + + o o o o O @ ; - ; ; : 8 6 = - ; * O + r u . X o o o o o o o o X . X # u + o o o o o o . ",
"h h l h h h l h h h r r h l h h h h h h l l l l l h h l v v , 8 c N Z V V l h l h u u h h l h u h u r u h l h h h l l h h r r u ",
"h F V V V l V l V h r r V Z V l l l V l V V l V l V l V l u & 8 0 v Z Z V V V V l V V l l l l l l h u r Z Z V V l V V V l u # h ",
"h V u h h u u u u # o r l V u u u r u u r u u r r r u h # + $ 6 c p u u h r # h r u h r u # u # h # + r Z u u h r u u u # + # h ",
"h l r u # u u # u X o r l l h u r r r r r r r r r r r r + + % 3 x % # # u # # u # u u # u r u # r + o r V r u # u u # u o X # u ",
"h l r r r r r # r o X r l l u u # r u # r # r # r r # u + . o r j r r u # # r # u r u r h r r # u + X r l r r r r u # u + . # u ",
"h h r u + r # # # X X # h h u r + r r # r + r + # # # # + o + r h r + # r # + # # r # + r + r # r + . r l r u + r # # # o X # r ",
"u r + + X o . X o X X + u # + o o + o + o o + o o . o X o . + r r + o + + o + + o o o o + o o + o o . r u # + X X X X o X X + r ",
"r # o + o o o X .   X + h # + o o o . . . o o . .   X o o X # u # + o + + o o o + o . . . . o o o X o r r o + X X o o .   . + u ",
"l u u r h u h r r r r h r r r h l h u u u l h u r h u h l h l h p r + u l h h h l u l u u r h h h r r r u l h u # # l l h h u h ",
"V l V h h h h h l h h h u r u F l V l V h l l l V h h l h h l l h u r l F l V l V l Z l l l h h h h l h l l h u # r Z l h h l h ",
"u r u r # r r r # r u # . # r F u u r u r r r r r r r u r r u h + o r h V u u r r u u r r r # r # r r # h h r . # r V r r u r r ",
"# u r r # r # r r # r # . o # Z r u r r r # # # u # r u + # u # o X # h h r u u r r # u u r # u # r r + u r + . + r l # # # r # ",
"u r r r # # # u r # r + . + # Z r u r u + r # + r r u # # # u u o . + h l r u r u r r r r r # # # r r # h u # . + # l u # + u # ",
"# u # + # r # u + r r # . + u Z u # # r r # + # + # # + r # # r +   + h u r r + r # # u # # # # r r + # r r + . . r h + + # # # ",
"o + o . o o + + o o o o X + u l # + o + # + + + + + + + + + o + .   # u u + o . o + . # o . o o o + o o + + o . o r h + + + + + ",
"o o . X o o     o o .   o # # u # + o + o o + + + . . . o o . o . + r u r o o o o o o o X X o o . . o o X o X o + u u o + + + . "
};
