/* XPM */
static char *torch06w801743666765[] = {
/* columns rows colors chars-per-pixel */
"64 64 109 2 ",
"   c #0D0D0D",
".  c #131313",
"X  c #1B1B16",
"o  c #1C1C1C",
"O  c #241F1C",
"+  c #22221C",
"@  c #2E2E1F",
"#  c #33261E",
"$  c #232323",
"%  c #2A2522",
"&  c #2C2C24",
"*  c #2B2B2B",
"=  c #312B29",
"-  c #343424",
";  c #3F3523",
":  c #3D3C24",
">  c #35352B",
",  c #3F352F",
"<  c #3C3C2C",
"1  c #323232",
"2  c #3C3C32",
"3  c #393939",
"4  c #472F23",
"5  c #423926",
"6  c #433D2C",
"7  c #523B27",
"8  c #543E2A",
"9  c #5D3C29",
"0  c #4F3A30",
"q  c #70661E",
"w  c #7B7517",
"e  c #75721E",
"r  c #7C781E",
"t  c #44442B",
"y  c #49492D",
"u  c #5B4228",
"i  c #525021",
"p  c #5C5A27",
"a  c #54532F",
"s  c #434333",
"d  c #4D4334",
"f  c #484837",
"g  c #45453A",
"h  c #4B4B3B",
"j  c #5E4231",
"k  c #525132",
"l  c #66432D",
"z  c #6B432D",
"x  c #764C2C",
"c  c #684430",
"v  c #6D4933",
"b  c #774931",
"n  c #7C4C32",
"m  c #696724",
"M  c #686629",
"N  c #6F6C2C",
"B  c #7B7722",
"V  c #4C4C40",
"C  c #525242",
"Z  c #817D1F",
"A  c #875D2C",
"S  c #825035",
"D  c #895438",
"F  c #95672E",
"G  c #9D960F",
"H  c #868010",
"J  c #8A841C",
"K  c #8E8919",
"L  c #958714",
"P  c #9C9612",
"I  c #97921E",
"U  c #A69F0F",
"Y  c #A29B16",
"T  c #AC9A11",
"R  c #AAA20D",
"E  c #BDB508",
"W  c #AEA937",
"Q  c #C2AE0E",
"!  c #C1B706",
"~  c #C5BB08",
"^  c #D4C902",
"/  c #D9CE02",
"(  c #DED301",
")  c #DDD20A",
"_  c #E2D704",
"`  c #EADE04",
"'  c #E4DA0E",
"]  c #EADF0C",
"[  c #E0D715",
"{  c #E4DA17",
"}  c #E9DE12",
"|  c #E3DA1B",
" . c #ECE002",
".. c #F2E80D",
"X. c #FAEF14",
"o. c #F8ED1E",
"O. c #EDE320",
"+. c #F7EF2D",
"@. c #FCF32C",
"#. c #F8F038",
"$. c #D9D349",
"%. c #EDE952",
"&. c #FBF45A",
"*. c #F5F16A",
"=. c #FEF96F",
"-. c #FAF779",
";. c #FDFA7D",
":. c #FBFB96",
">. c #FCFC9A",
/* pixels */
"$ * * $ $ * * * $ $ o o * * $ $ $ * $ * * * 2 h h s h s s s < s h h h h h h h f 2 $ $ $ $ * $ $ $ * * $ * $ * $ o $ $ * * * * $ ",
"* 1 1 * 1 * * * * * $ o * 3 1 * * 1 * * > g h h h h h h h s < s C h C h h C h h h s 1 * * * * * * * * 1 1 * * $ o o 3 1 * * * * ",
"$ $ $ $ $ $ $ o $ . . o * 1 $ o $ o $ $ > s s s < s s f < - : s h s s s s s s s < s 2 $ $ o $ o $ o $ $ $ $ o . . o 3 * $ $ $ $ ",
"+ $ o $ . $ $ o $   . o * * $ $ o o o > s < < < < s < < - - < s h s < < s < < s < s s & $ o o o $ o o o o o o   . o 1 $ $ o o $ ",
"o $ + o o o o o o .   o * * $ o o o > < < < s : s < < s - - - s g < < s < < < : s s < < > $ o X $ o o o o o o   . o 1 $ o o o $ ",
"+ o o $ . $ o o . .   o $ * $ o X $ < < s > < > < < < < - - - s h < < < < < < < < < < : 2 o o o o . X X . o .   . o * $ o o o o ",
"  . o .         .     . $ o . . . @ - : - - - - - - - - - - - < s - - : - - - - - < - @ : & . . . .   .     .     o * o . .   . ",
"    . .   . .         . $ o . . X - @ @ @ - - - @ @ - @ - @ < s < - - > : - < @ @ - @ - - - X .             . o o . . . . . X   ",
"* * $ o $ $ $ o o o o $ o o $ $ s f s s s f s s < s f s s s f s s h h s h f f s < < s f h s s $ $ $ $ $ o $ $ $ o o o $ $ $ o o ",
"1 * * * $ $ * * * $ $ * $ o o V h h h h f h h s h f f s f f f f h s s h s s f s < < C C h h h > * * * * $ $ $ $ $ * * $ $ $ o $ ",
"* o $ o o o o o o o $ o   o o V s s s s < s < s s < s < s < < s s < s s s s s - < < C h < s < - $ $ o $ o o o o o o $ $ o   o $ ",
"1 $ o o o o o o o o $ .   . o V < s < < < < < < < < s < < > < < s - < s < 2 : @ - < h s s s < s o o $ $ o o o o o o o o .   . o ",
"* o $ o X . o $ o o o .   . * V < s < s : < < : s < s < < < < s < < < s < < < @ - < h s 2 s s s * $ o $ o o o o $ o o o .   . o ",
"* o o . o o o o . o $ X   . 2 V s < < s < < > < : > < < < < < < < < < < < < s @ @ < h s s < < < & o o o . o o . o . $ o .   o $ ",
"$ . .   . .   X .         o s f < - > : < > < - > - - - - - - - - > - - : - - @ @ < h < - - @ < - . .     . .   . . . .     o $ ",
"o .   . .         .     . o < s < - - - - - - - < < : - - - - @ @ : - - @ > - - : s s - - - - - - . .         .       . o o o o ",
"$ * $ $ * $ * $ $ $ o o $ > f f s s < s 6 2 < < s h f h f s s s s s s f s s f f s f f s 2 s f f < & * * $ $ $ $ $ o $ $ $ $ o o ",
"* 1 * * * * * * * $ * $ * 2 f f f f f f h s s s h C h h h h h h h h h s s f s f f s f f f f s s < g * * * * $ * $ * $ $ * * $ $ ",
"* 1 o * o $ o o $ $ o $ $ - 2 < s 2 < f s < - < h C s s < < < s < < s < < < < < s < < s < s < @ - g * o $ o o o o $ $ $ $ * o $ ",
"$ * o $ o o o . $ o o o o > s < < s - < s - @ s h h s s < s < < s s s < s < < < < s < s < < - - - g $ $ $ o X o o o o o o $ o * ",
"$ * o $ . o . o $ o . $ o - < s - s - s - - - s h h s < s < < s < < < - < < < > < < s s < < < @ - g * o $ . X o o o o o $ o $ * ",
"* * . o . . o . o o o o o > 2 < : s < < < < - < h h < s < < < < < < < < < > < : s - < < s < < @ - h $ . o . X o . o o . o o o $ ",
"$ $ o . . . . . . . . X . - - - - - - - - @ - - h s : < - - - : : - - - : - : - < - - - < < - @ - f $ . . . . . . . o . . . . $ ",
"o $ . . . . . . . . . . . - - - : > - - - - - < s < - - > - > - - @ - - - < > - @ @ - - - : > - - s $ . . . . .   . . . . . o o ",
"* $ * * $ $ o o o . $ * 1 f f f f s s s s < s s f s s f s f f s < < < f f h f f s s s s s f s f 2 g * $ $ $ $ $ $ $ $ * $ * * $ ",
"* * * $ * * * * $ o o 3 * f f h h f f s f f f s f s f f s f f < < 2 C h f f f h f h h s h s f f s g $ $ $ o $ * $ $ $ $ * $ $ $ ",
"$ o $ $ $ $ $ o   . o 1 o > < s < s < s < < < < s < < < < s s - < s C s < < 2 s - s < < < < < s < < o o   o $ * o o o o o o $ o ",
"o o o o $ o $ o   . o 1 X 2 < 2 s < < s s < < - < < s < < s < - < f C f < s 2 < s s s < s < < s 2 > o .   o $ * o . o o o . o o ",
"$ o o $ $ o o . . . $ 1 o * 6 s < > < < < < s - s < < s < < < - < f C < s < s : s s < s < s < s < & o .   o $ * o . o o o o . . ",
"o o o o o o $ .   o o * o * - 6 < < < s < s < - < < < s < s < - - 2 C f < s < s < < s < s < < s < & o o   . o $ o o o . $ . o o ",
". . . . . .       . $ $ . $ > < - < - < - - - - < - - - < - - @ - s h < - < < < < < < < < - : > : o . .   . $ $ . . . . . . .   ",
"  . .   . . .   . . $ $ .   - @ - < < - - - - - - - - - - - - - < < s < - - - < < - - - @ - > - - .       . o o     .   . .   . ",
"$ $ $ $ $ * $ $ o o * $ o $ s f f f f f f f f s s s 6 s s k Y r f f f f s f f h h f f s s f f s 2 $ o $ * * $ o $ * $ o o o * $ ",
"* $ * * $ * $ * * $ $ o o o g C h h f h f h h h f s t Z V N { $.N h f f f s s s f s f s s f f f > $ $ o * $ $ * $ $ $ $ * * * $ ",
"o . o o . $ . $ o o o . o o 1 f s s s s s s s s < > t U I e [ %.w > < i y < < < < s < < 2 < s < o o   $ $ o o o . $ o o o . o o ",
"o o . o o o . o . o . . . o * > s < s < s s < s - - t R ~ ! } *.W p : K t > s < < < < < s < < - . o   o * X $ o o . o o o o o o ",
"o . o o o $ o $ $ . o   . o * * 2 6 < < < s < s - @ < m ) ] @.;.| P e P y < - < - s < < < s < & o o   o * o o o o o o o o o o o ",
"o o o o o o . o o o o   . o * $ 2 < < < 6 : < < - - : a _ X.=.:.+.' / R y > < s < < s < < 2 < o . .   o * o o o o o o o $ o o o ",
". .   . . . . . . . .   . o o o o @ - - @ - - - - - - k / ` &.>.-.@. .R : - : - - - : - < - o . . .   o o . o . . . . . o . o . ",
"    .                 . o o o . . @ - - - - - @ @ @ - y R _ @.:.:.#._ H : > - - @ - - - - + .   .   . X $ . . . . . . . . . . . ",
"* $ $ * $ $ $ $ $ * * * $ $ $ o $ & s s s g f f s s f f B ^ +.;.-.O.^ M s f s s f s f f h $ * $ * $ $ $ * $ $ $ * o $ * o * $ $ ",
"* * * 1 $ * $ * * * * $ * $ o $ * 1 2 f h f f f f f s s f J ^ ..( E B s s s > s h s f s 2 * * * $ * $ * o o o 1 * * * $ * $ $ * ",
"o o o o o o o . * . o o . o   o * * o > s - > < 6 6 6 - s y L E U q s < < - < f f s 6 & o o o o o o o o   . o 1 o o o . o o . o ",
"o . o o o o o o o . o . o .   o $ * o X < - < s > s < s - t x F A u s - < @ < s f - & o $ o . o o o . o   . o 1 o o o $ o o o o ",
"o o o . . o o o o . o . o .   o $ * o . $ > < < < < < < 6 6 z D n u : 6 > - < s f < . o o o . o . o o o   . o 1 $ o o . o o o . ",
"o o o . o o o . o X o o o o   o * $ o X $ . & < < 6 < - 2 6 l S b u < - < @ - s < o o o . $ o . o o . o   . . * o o o . o o o o ",
". . . .   . . . . . . . .     o $ $ .   . . . + - - - - - - 7 b l 5 > - - @ : = $ . . . . . . .   . . .   . o * . . . . . . . o ",
".     . . .   . . .     .   . o $ o . . .   .   . + - - - - 7 b l ; - - @ X X o o     . .   . . . . .       o o . . .   .   .   ",
"$ * * $ * $ * * $ $ o o * * $ * * $ $ * * * * * * $ * 1 , > 8 b v f 3 1 * * $ * $ $ $ * $ * * $ o $ o $ * * $ $ $ * * $ * $ o $ ",
"* 1 * * 1 * * * * * o o 1 1 * * * 1 * * * * * 1 * * * * * $ 4 b c 2 1 1 1 1 * 1 * 1 * * * * * $ * $ $ o 1 1 * 1 * * * * * o o $ ",
"* 1 $ $ $ o o o $ o . o * * $ o $ o $ $ o $ $ o o $ $ $ O . % c j % $ o $ $ o $ o $ $ o $ o $ o $ o . o 1 $ o * $ o $ $ o . o $ ",
"$ * o $ o $ $ o o .   o * * * $ o o o o $ o o o o o o o . . O 9 0 + o o o o o o o $ $ . $ o $ o $ . . o 1 o $ o $ $ o $     o $ ",
"$ * o $ o o o o o . . o * * $ o o $ $ . o o $ . o o . $ .   . % * o o $ o o o o o o $ o $ o o . $ . . o * o o o o o o $ .   o $ ",
"$ * o o . $ o o o     o $ * $ o . o o o o . o . o o o o . . . o * o . o o . . o o o o . $ . o o o .   o * o o . o o o . .   . o ",
"o o o . .       .     . o o o .   . . . . . . . .     .     . o $ . . . . . . . . .     . . . . .     o $ o .         .     . o ",
"o o . . .   .         o o o . . . .                     .   o $ . . . . . . . . . .         . . . . . o o . . .   . .     . . $ ",
"* o $ o $ $ $ o o o o $ o $ o * * $ $ $ $ * $ $ o $ o $ * * * * $ $ . o * * * $ * $ * $ o o $ $ $ $ o o $ * $ o o o * * $ $ $ $ ",
"1 * * * $ $ * * $ $ * $ o o o 3 * 1 * * * * * * * * * * $ $ * * $ + o * 3 * * * * * 1 * * * $ * $ $ * $ * * * $ o o 1 * * $ * * ",
"$ o $ o o o o o o o $ o   o o 3 $ o o * o $ o o o o $ $ o o $ * . . o * 1 o $ o $ $ $ $ $ o o o o o o o $ $ o   . o 1 o o o o o ",
"o $ $ o o o o o o o o o   . o 1 o $ o o o . o o $ o o o . o $ . .   o $ * $ $ o o o . $ $ o . $ o o o o $ o .   . o * o o o o o ",
"o o $ o . o o o o o o .   . o 1 o $ o o . o o . o o $ o o o o $ .   . * * o $ o $ o o o o o o o o $ o o $ $ .   . o * o o o o o ",
"o o o . o o o o . o $ .   . $ * $ o o o o o . o . o o . o o o o     . $ o o o . o o . $ o . o . o o . o $ o o     o * o . o . o ",
". . .   . . . . . . .     o $ * o . . . o . . . . . . . . . . .     o $ $ . .   . . . . .   . . . . .   . .     . o $ . . . . . ",
".     .           .       o o o . . . . . . . . o         .   .   . o $ o   . . . .   .     .         .   .   . . $ $ . . . o   "
};
