/* XPM */
static char *torch031743581659[] = {
/* columns rows colors chars-per-pixel */
"64 64 103 2 ",
"   c #070707",
".  c #0A0A06",
"X  c #0B0B0B",
"o  c #161607",
"O  c #1C1C05",
"+  c #13130D",
"@  c #1B1B0A",
"#  c #131313",
"$  c #1B1613",
"%  c #1A1A13",
"&  c #1B1B1B",
"*  c #211A17",
"=  c #2C1F17",
"-  c #201C1A",
";  c #222206",
":  c #2C2C06",
">  c #222209",
",  c #2E2E09",
"<  c #33330D",
"1  c #39320F",
"2  c #39390D",
"3  c #222213",
"4  c #2C2C14",
"5  c #24231A",
"6  c #2A2A19",
"7  c #363611",
"8  c #3C3512",
"9  c #3A3A14",
"0  c #34341B",
"q  c #3E3E19",
"w  c #222222",
"e  c #282821",
"r  c #332923",
"t  c #442C1F",
"y  c #403B13",
"u  c #473E1D",
"i  c #4F381B",
"p  c #523B1E",
"a  c #593F1F",
"s  c #463127",
"d  c #5A3B25",
"f  c #573B2A",
"g  c #5A570B",
"h  c #494410",
"j  c #41411B",
"k  c #504F1A",
"l  c #575512",
"z  c #585613",
"x  c #5F5D10",
"c  c #696604",
"v  c #6E6B0E",
"b  c #6E6A13",
"n  c #797510",
"m  c #464620",
"M  c #634027",
"N  c #66422B",
"B  c #6B442B",
"V  c #734F26",
"C  c #77482F",
"Z  c #774930",
"A  c #7C4C32",
"S  c #827D0B",
"D  c #865D2B",
"F  c #825035",
"G  c #895438",
"H  c #95672E",
"J  c #8D8807",
"K  c #8D860C",
"L  c #988A0C",
"P  c #9C9606",
"I  c #9C9509",
"U  c #A8A106",
"Y  c #AEA807",
"T  c #B4AC05",
"R  c #BEAB0D",
"E  c #C4AF0F",
"W  c #C4BB02",
"Q  c #CDC302",
"!  c #D1C701",
"~  c #D3C900",
"^  c #D8CE0C",
"/  c #DFD404",
"(  c #E2D603",
")  c #E5D902",
"_  c #E8DD05",
"`  c #F3E606",
"'  c #F6EB13",
"]  c #F9EE15",
"[  c #FCF118",
"{  c #E8DF22",
"}  c #F0E930",
"|  c #EAE44E",
" . c #FEF746",
".. c #F4EF5D",
"X. c #EFEC6F",
"o. c #FDF965",
"O. c #F6F378",
"+. c #FDF980",
"@. c #FCFB8D",
"#. c #FDFB97",
"$. c #FDFB9B",
"%. c #FBFEB6",
"&. c #FBFDB8",
/* pixels */
"& & & & & & & & & & # # & & & & & & & & & & & w & & & & & # # # w & & & & & & & & & # & & & & & # & & & & & & & # # & & & & & & ",
"& & w w w & & & & & # # & w w & & & & & & w & & & & w & & & X # w w w w w w & w & & w & & & & & & & & w w & & # # # w w w & & & ",
"# & # & # # & # & X X + & w # # & # # # # & # # # # # & #   # # w & # # & # # & # & & # # # & # & # # & & # # X X # w & # & & # ",
"# # # # # # # X # X X # & & & & # # # # # # # # + # # # X X X # & # # + # X # # X & # X # # # X # X # # # # X   X # w & # # # # ",
"# # # # # # # # #   X # & & # & # # # X # # # X # # X # X X X # & # # # # # # X # # # # & # # X & X X & X # X   X # w # # # # # ",
"# # # # X # X # X X   X & & # + X # # + # X # X X # + + X X X # & # X # # X X X X # # X # X # X # X # X X # X     # w # # # # # ",
"X X X X         X   X X # X X X   X   X     X . X     o @ : , 7 7 , > o X X X X X X X   X X X X X X   X   X X   X X & # X X   X ",
"X X X X X   X         X & + X X X X     . X X .   @ , , , , < 7 7 , , , < > X X         X X X X             X # # X X X X X X   ",
"& & # # # # & # # # # # # # # & & & # # $ & & 4 7 7 9 9 9 9 q 7 7 q q 9 q y 9 4 + X & & & & & & # & & # # # # # # # # # & # # # ",
"w & & & & & & # & # & & # # # w & w & w & w 0 q j q q q 9 9 9 q q 9 9 q 9 q q 7 < % w w & & & & & w & & & & & & # & & & & # # # ",
"w # # # # # # # # # # # X X # w # # # & % 7 < 7 2 < 7 < 7 2 7 7 7 7 7 9 7 7 7 : < < e & # # # # # # # # # # X # # # # # X   # # ",
"w # # # X # # # # # # X   X # w # # # % < < < < 7 < 7 < < < < < 9 , 7 7 < 7 < : , 7 q & # & # # # # # # # X # # # X # # X   X # ",
"& # # # X # X # # # # X X X # w + # # 7 < < < < 7 < 7 < < < < 7 < < < 7 < < < : , < j 9 % # # # # # # # # X # # # # # X X   X # ",
"w # # X # X # # X # # X   X # & & + 4 < < < < < < < 7 < < < < < < 7 < < 7 7 < : : < q 7 4 # # # X # # # X X # X # X # # X X X & ",
"& X     X X X X X   X   X X & & + @ , , < , , , , , < , < , , < , , < , < , , : : < 9 < , O . X   X X     X X X X X X X   X # # ",
"X     X X         X     X X # # + , , , , , , < < < , < , : , , : , , : : , , , < 7 9 < , : . . X     X       X       X # X # # ",
"& & # # & & & # & # # # # & & & 6 7 7 7 7 7 < 7 9 j 9 q 7 9 7 7 9 9 9 9 9 9 9 9 9 9 9 9 7 9 6 & # # & & # & & & # # # # & & # # ",
"& w w & & w & & & & & & & & & & 9 q 9 q j 7 7 7 j j j q j j q j q q q 9 9 9 9 9 9 9 9 9 9 9 7 + # w w & w & & w & & & & & & # # ",
"& w # & # # # # # # # # # # # 3 7 7 < 7 2 < < < j j 7 q < 7 < 2 7 7 9 < < 7 < < 9 7 7 9 7 7 < O X w & # & # # # # & # # # & # # ",
"& & # # X # # X & # # # # # # 3 7 7 < < 7 < , 7 j j 7 7 < < 7 < 7 7 7 < 2 7 7 < < 7 < 7 7 7 , ; X & & # # # X # X # # # # & # & ",
"# & # # X # X X # + + # X # + 7 < 7 < 2 < < : 7 j q < < 7 < < < < 7 < < < 2 < < 7 7 7 7 < 7 < : X & & # # X # X # # X # # # # & ",
"& & X # X # # X # + X # # + % < < < < < < < , < j j 2 7 < 7 2 < < < < < < < < , 7 < < < 9 < < : # & & X # X X # X # # X # # X & ",
"& & X X X X X X X X X X X X @ , , , , , , : , , q 7 , < < < , , < , , , < : , , < : , , < < < : @ & & X X X X X   X X X X X # # ",
"# # X X X X X X   X X X X X ; , , < , : , , , < 7 < , , , , < < : : : : , < < , : : , , , , , , > # # X X   X . X X   X X X # # ",
"& & & & & # # # # # # w w & 0 q 7 7 7 7 < 7 2 7 q q 7 q 7 q q 7 < < 7 9 q q q 9 9 2 9 9 9 9 9 9 4 & & & & & # & # # # & & & # & ",
"& & & & & & & & # # # w & & 0 j j q q q q q q 7 q 7 7 q 7 q q < 7 2 j j q q q j q q q 9 9 9 9 q 7 & & & & & & & & & & # # X w & ",
"# # # # & # # # X X # w + # 7 7 < 7 < 2 7 < < < 7 < 2 7 < 7 < , < 9 j 9 < 7 2 7 < 7 7 < 7 7 < 7 7 # # # # # # & # & #     # w # ",
"# # # # # # # #   X # & + # 7 7 7 7 < 7 < < < < 7 7 7 < 7 7 2 , < 9 j q < 7 7 < 7 7 9 7 7 < 7 7 7 # X # # # # # # # #   X # w # ",
"# # # # & # # X   X # w # # 7 7 7 < 2 7 < < < < 7 < < 7 < 7 < , 7 9 j 7 9 7 7 < 9 7 < 7 7 7 7 7 7 X # # # # # # # # X   X # w # ",
"# # # X # # # X   # # & X & , 7 7 < < < < 7 < , < < < < 2 7 < , < 9 j 9 < 9 < 9 < 7 7 7 7 < 7 7 < # # # # # # # # # #   # # & # ",
"    X X X X X     X # & X # 3 < < < , < < < , , < , < , < < , : , 7 q 7 , < < 2 < < < < < < , < 4 X X     X X X X   X   X # & X ",
"X X X       X   X X # # X   > : , < < < , : : : , < , , < , , : < 7 7 < , , < , 7 , , : : , , , ; X X     X     X       X # & X ",
"# & & & # # & # # # % # # # 4 9 q 7 q q 7 7 7 2 q 7 7 9 9 q 9 v v 9 q q 2 9 q q j 9 9 9 7 q q 9 6 # # # & & & # & & # # # # & & ",
"& w & & w & & & & & & & # & 5 7 9 q 7 9 q q q 9 9 < 7 7 m q S | ) n q 9 9 9 9 9 9 9 9 q 9 9 9 7 5 & # # w & & & & & & # & & # # ",
"& & # # # X # # + # # X # # # , < 7 < 7 < 2 7 < 7 , < 9 k S { @.) 2 2 < 7 < 7 < < 7 < < 7 7 < 7 # X   % w # # # X # # # # # X X ",
"& & X # X # X # X # X # # # # 4 < 7 < < < < < < < : , 7 b Q O.} ~ n , 7 < < 2 < 7 < 7 < 7 7 7 , X #   # w X # X # X # + # X X   ",
"& & # # # X # # # # # X # # # # < < 7 7 < 7 9 < < , , < b Q X...) W T J 7 < < < < 7 < 7 < 7 < 3 # #   # & # # # X # # # # # X X ",
"& & # # # # # # # # # # # X # + < < < 2 < < < < < : < Y K W ' o. .' ^ g 7 < < 7 < < 7 < 7 7 < # X X   # w # # # X # # # # # X X ",
"& # X # X X X X X X X X X X X X o , < < , , < , , : < x Q ) [ O.$.] / P , , , < , , , , < , @ #   X   # & # X X X X X X X X     ",
"# # X X X X X X X X X X         X : : : : : , : : , < < Q ) [ %.%.` ~ c , < , , : , , : : :       X   # #     X X X X X X X     ",
"& # & & & & # & & & w & & & # # % 6 7 7 9 9 q 9 9 9 9 q W ~ ] #.o.) W 9 q 7 9 7 q q 7 7 < @ # # # & & & # & & # & & & & # # & # ",
"& & & & # & & # & & # & & # # # & w q q q q q q y 9 9 9 z I Q ] ) U l 9 7 2 < 9 j j q j 0 & & % & & # & w & w # & # # # # # e & ",
"# # # # # X # X & X X # X #   # & & # < 7 , , < < 7 < < 7 y L E R h < < < , < 7 j < < 7 + # # # # # X # # # # # # # # X # # w # ",
"# # X # X # # # X # # X # X   # & & # + 7 < < 7 < 7 < 7 < y V H D M 7 , < , < q j < 7 + # # X # X X X # #   # # # X X   X # w # ",
"X # X X # # # # # X # X # X   + # & # X & < < 7 < < 2 < 1 y B G A M 1 < < : < 7 j < + # # X # X #   # # # X # X # # #   X # w # ",
"X # # X # X # X # X X # + X   # & & # X # + , < , < < , 2 1 M F V i 2 , < : < < 0 + X # X # # # # # # X # # X # # X #     # w # ",
"X X X X   X   X X X X X X   . # & #     X X X > , < , , , , p C N 8 , , , : , 4 &   . X   X X X X X     X X X       X     # & X ",
"X X X   X   X     X     X X   # & # X X   X X X X ; , , , , p C N 1 : , : O + # $ X     X             X   X   X   X       # # X ",
"# & & & & & & & & & # # # & & & & & & & & & & & & & & 5 0 7 d C B s 0 e w & & & & # # & & & & & # & # # & & & # & & & & & # # # ",
"& w w w w & & & & & # # w w & & & w & & w & & w & w & w & $ r C N r w w & w & w & w & & & & & & w # # # w w w w & w & w & # # & ",
"& w # # # # # # # # X # & w # # # # # # # # & # # # # & X X = N M & # # & # # # # # & # # # # # # # X # w # # # # # # & # X # # ",
"& & # # # # & X # X   # & & & & # # # # # # # X # # # X X X $ f s # X # # # # # # # # # # # # # # X X # w # & # # # # #     # # ",
"& & # # # # # # # X X # & & # & # # # # # # # X # # X # X X X & w # # # # X # X & # # # # # # X # #   # & # # # # # # #     # # ",
"# & # # X # X # X     X & & # # X # # X # X # X X # # X X X X # & # X X # X X # X # # X # X # # # X   # & # # X # # X # X   # # ",
"# # X X         X   X X # X X X   X X X X   X   X     X     X # # X X X X X X X X X     X X X X     X # # # X         X X     # ",
"# # X X X X X         # # # X X X         X           . X   X & # X X X X X   X X X           X       # # X X               X # ",
"& # # # & # & # # # # # # # # & & & & # & & & & # & # & # & & & & & & & & # # X # w & & & & & & # # # # & # # # # # & & # # X & ",
"w & w & # & & # & # & & # # # w & w & & & & & & & & & & & # & & & & & & & & # # & w & & w & & w & w & # & & & # & & & & # # # w ",
"# # # # # # # # # # # #   # # w # # # & # # # # # X # X # # # # # # # # & X X # & & # & # # # # # # # # # # # # # & & #   # # w ",
"# & # # X # # # # # # X   X # w # # # # # X # X # # # # # X X # # X # # X X . X & & # # # # # # # & # # # X # # X # # X   X # w ",
"# # # # # X # # # # # X   X # w X & # # X # # X # X & X X # # # # X # # & X   X # & # & # # # # # # # # # # # # X & # #   X X w ",
"X # # X X # X # X # # X   X # w & X X # # # X X X # # X X # X # X # # X # X   X & & # # X # # X # # # X X # # X # # # X     # & ",
"X X X     X X X X   X     # # & # X X X X X X X X X X X X X X X X X X X X     X # # X X   X X   X X     X X X X   X X       # & ",
"  X     X         X       X # # X X X X X X X X # X X X X           X       X # # #   X     X   X               X   X     # # # "
};
