/* XPM */
static char *torch10w101743666766[] = {
/* columns rows colors chars-per-pixel */
"64 64 125 2 ",
"   c gray12",
".  c #252525",
"X  c #2C2C2C",
"o  c #32322E",
"O  c #3B3B2F",
"+  c #333333",
"@  c #3B3B32",
"#  c #3C3C3C",
"$  c #4A3E35",
"%  c #423D3A",
"&  c #454536",
"*  c #4D4331",
"=  c #44443C",
"-  c #4C4C3C",
";  c #5C4532",
":  c #544B39",
">  c #55533D",
",  c #5A503E",
"<  c #64442F",
"1  c #6F432D",
"2  c #77482F",
"3  c #77522B",
"4  c #644331",
"5  c #6C4731",
"6  c #624934",
"7  c #6D4932",
"8  c #644D39",
"9  c #774830",
"0  c #7B4C33",
"q  c #77533C",
"w  c #6E6A2D",
"e  c #6E6C39",
"r  c #797634",
"t  c #444444",
"y  c #4B4441",
"u  c #4E4E41",
"i  c #4B4B4B",
"p  c #524E4C",
"a  c #545444",
"s  c #5D5745",
"d  c #5F5D44",
"f  c #54544B",
"g  c #5B5B4C",
"h  c #545454",
"j  c #5A5452",
"k  c #5C5C53",
"l  c #5B5B5B",
"z  c #615948",
"x  c #6D584E",
"c  c #745847",
"v  c #616147",
"b  c #6A6941",
"n  c #716C41",
"m  c #777544",
"M  c #636353",
"N  c #656559",
"B  c #6C6C5C",
"V  c #736957",
"C  c #72685B",
"Z  c #7F7D50",
"A  c #74735B",
"S  c #7C7B5A",
"D  c #636363",
"F  c #6C6C63",
"G  c #6B6B6B",
"H  c #737363",
"J  c #7F7E60",
"K  c #757569",
"L  c #7B7B6B",
"P  c #737373",
"I  c #885F2D",
"U  c #825035",
"Y  c #895438",
"T  c #95672E",
"R  c #807F5B",
"E  c #AB9A14",
"W  c #A39D1B",
"Q  c #B6AE0F",
"!  c #BEB50F",
"~  c #AEA614",
"^  c #AEA71B",
"/  c #B3AC18",
"(  c #87852F",
")  c #8E8A2D",
"_  c #959135",
"`  c #9D9932",
"'  c #A39E2B",
"]  c #AEA823",
"[  c #ACA62A",
"{  c #C3AF0E",
"}  c #C4BC14",
"|  c #CEC501",
" . c #DDD204",
".. c #CBC210",
"X. c #CAC11D",
"o. c #D3CB12",
"O. c #DBD31D",
"+. c #E0D506",
"@. c #E6DB02",
"#. c #EDE10A",
"$. c #F3E90E",
"%. c #CAC224",
"&. c #CCC431",
"*. c #E9E021",
"=. c #FBF22D",
"-. c #EEE635",
";. c #F2EA34",
":. c #FCF233",
">. c #FDF439",
",. c #878643",
"<. c #888764",
"1. c #818172",
"2. c #888878",
"3. c #CCC749",
"4. c #E4DF4C",
"5. c #FCF443",
"6. c #E9E450",
"7. c #F6F056",
"8. c #FDF757",
"9. c #FAF775",
"0. c #F7F47B",
"q. c #FEFA79",
"w. c #FDFB8C",
"e. c #FDFB91",
"r. c #FBFEB7",
/* pixels */
"h l l h h h l h h h t t h l h h h h h h l l l l D N B B B N g M K L K K F l h l h i i h h l h h h h l h l h h i i i h D h h h h ",
"l D D D D l D l D h i t D G l D l l D l D D l F B L K L H N g N 1.L 1.1.L L F D l D D l l l l l l l l D D l D i # t P G D D l l ",
"i i i i h i i i i # X t l D i i i t i i t i M M M M M B g - g N L B N v B M g N # h h t i # h # h t i i i i t + o t P l t h i i ",
"i i i i # i i # i X X # l l h i t t t t i a k g g M g g > - g M L g g g M g g N f i i @ i t t # i # t i i t # . X i G i i i t i ",
"t i t t t i t # i o . t l l i i t t i # f g M a M g g M a & u M H g g M g g g a N g t t i t i + i # # i + i # . + t G i t t t i ",
"t t t i + t # # + . X # h h i t + t t t g a g a g f g a a - u M H M a g g g a g a M i + i + t # t + # # + # + . X # D i t t # t ",
"X + + + . X . . o . X + i # + o X o o - - - - - - & & - & & a v M - u u u - - - - - & X + X X + X X . o X X X   X # h # + + . X ",
"X X X X X X X X     . # i # o X X X @ & & - - & & & & - - & a N g - - u > u > - - & & # X X o X X . X     . o t t X + + X + + X ",
"l i i t h i h t t t t i t t t l h l N M B A B B M N B B B B B N B H H H H H B N g a H B N h h h i h i i i t i i t t t i h i t t ",
"P l l h h h h i l h h h i t t P D K K K B H H F L B B B B B B B B B B H B B H M g g 2.1.F l l l D D l l h h h h h h h h h i t i ",
"D t i t t t t t # t i t . # t P f M M N v M v M M g M g M M g M N g v N M M N & a M 1.H g h t i i i t i t t # t t # i i # . t t ",
"D i t t # t t t t # t # . X t G f M g M k f g g M a M g g a v g N a g N g M a & - g L v M k = i # t i t t # t # t # t t + . + t ",
"D t t t # # # i t t t + . X t G g N v M a g g a M a N g g M g M g g g M a g g & - a L B g M i t # t t i t # # # i # t # + . + t ",
"D t t + t # # t + t t + . + i G B a g M g a a g a a g g a g g f a g g g M g f & & g K M M g t t # t # t + # t # i + t i + . # i ",
"i + X . X X + + X X o X . # i F g a - a g a a - a - a > a - u > > - a - a - - & & g H g - - O + X + X X . X + X + X X X . X t i ",
"# X . X X X .   X X .   X # # M a a - - - - u a g a - - - & & & & - - & & - - - a M N a - - & o . . X X . . . X X . X + # # t t ",
"h l i i h h h i h i t t t h k B N N M M M k g M M H B H B N M N N N B A N B N A B B B N M B B h t t h l i h h h i t i i h h t t ",
"D G D D l D D l h h h l l h k H B H B H H M M M L 1.L L L H H K H K H B N A N B A B B B B B B i t G D l l h h l h h h h l l t i ",
"h D i h t t t # i i i t h t f k N M d N M g - v L L N B v M g M M v M a g M g g N g M N g M g O X D h i h i t t t i i t i h t i ",
"h h t i t # # # i t t t i + k f k M a g M u & M L L N N g g g g M M M g N g g g g N g M g g - O X l i i i # + t # t t t i i i l ",
"i l t i + t + # i # # i # # u M a M g k g - & M L H M g M g g M g k g u g M g g g g M N g g a & + l h t i # # # t i # # i t t l ",
"l h + t X # t + t # # t # # g g a g g g g g & g H L g M a g g g a g g a a a g - M a g g N g g O X D i + t + + t + # t + i # # i ",
"i h # + + + + X + + + + + o - - - - u a - & - > A N a g a a - a - - a u a - - - a - - - g g - & X h h + X + X + X + + + + + # i ",
"t i + X X + X X o X o o + X - - a > - & - - & g N g - - - - u - - - & - - a g - & & - - - u - - + i t + + X + X X X X + + + # t ",
"l l h l i i i t t # i D D l K B B B M M M M g N A B B B M B B B g g M N B H H B N N B B B B B B i l l h h i i h h h h l i h l h ",
"l h l h l l l l i # t G l l H K H H B B B B B B B B B B B B B M M M 1.K H H H H H H H B B B B B h h h i i # h l i i i h h h h i ",
"i t i t h i i t . + t G # t s N g M g N M g g f N g M g g M M - a M 1.B a v M M > M g g g g g M # t # # X # h h t t # t t # i t ",
"t t i t t t i # . # # D # i g M M v g N M g g > g M M f M g M - g B 2.B g M M M N M N g M g v N t t t + . # h h + + # i # + t # ",
"i # i i i t t + X # t G t t f N g a g M g g M a M g g M a M M & g B 2.M N M M g B M g M g M g M t # # + . # i l t + t # t + # + ",
"t # t # t t t + X # t D # i - M k g g N g g g - g g g M g M v - u M L B a N g M g g M g N g g k # i # # . + t h # t # + i # # # ",
"X X + X X + X X . + t h + # t f a a a g - a a - a - > u a g r ( > M K v - g g g a g f > g a f t + # + X . + i i + + + X + X X X ",
"X X X X X X X X X + i i X . + & > u a a - & & & - - - - - w &.3.e M M g - - u a M a - - & - u + X X X . . + t t . . X X X X X X ",
"i h i h h l h i t t h i t i l H B F B A B A A B B M M N V [ ;.4.} S H H M B A K L B B B M B F h h i t i l h h i i h i t t i h h ",
"h h h h h h i l h h h t t t P L L L H L H L K L H M g M <. .5.7.o.S H H B B B N B B B B B B B h h h t t h h i l h h h i h h h h ",
"t + t t + i # i t # t X # i G k N B M B M N M N g > g N J X.9.6.W a g - M g g g g g g g M g a t # # . i h t t t + i t t t # t t ",
"t # + t # t + # # # + . + t D i N g M g M N g M - - g M S %.9.O.~ m - M a g N a M a M a N M u # + t . t h # t # t + t # t # t # ",
"t + t t # i # i i # # . o t l t g M g M g M g M - & g M S o.0.;. .} ] b M g - g a M g M M k # i = # . # h i t t + i # t t t # t ",
"t # # # t t + t t # t   X t l t g a M a k f g g - & d ` [  .:.8.>...) v v f a M a g M f M f t t + + X t h t # t # t t # t t t # ",
"X X . o X + o + @ X + . # t i # @ & - & - - & - & & > _ | @.*.w.9. .Q b a - a u - a > - a + X + o o . t i # # + + + # + + + # + ",
". . X X . . . . X . . X # # t X o & & - & - - & & & > v / #.5.r.w.! w - - a a - & & - - O . X X X X X # t X X o X + X + X # X X ",
"l h h l h h h i h l D l h i i i i l B M N B H B B M B A ^  .:.e.5.! ,.N B B N M H B B B l i l h h h h i h h i h h i h h i h h h ",
"l l l l i h h h l h h h h h t t l G H H H H H H A B B N A / +.$. .' Z B N M s B H B B M l l l h h h h h t # t G l h h i h h h h ",
"t # i t t # t + h + + t + # . t h l i g M a - g g M k > M n E { E d g f g - g B H g k @ t # t t t # t t X + t D t t t + t t + t ",
"i + # t # # # i # # t + t + X # h l # # M a a M g g g M g s 3 T I , v a a & g B H a # # i # + t # # # # . X i D # t t i + t t # ",
"# t t + # t t # i + # + t X . t h l # + k a f M g g k a g , 5 Y 3 < a g > & g N H f + t t t # # + i # # . X t D h # t + t # t # ",
"# t # + # # # # # # # t # # . # h h # # i u g g u g g a k s 5 U 0 8 g u g & u M B # # # + i # + # t # t . X # D # t t + t # # t ",
"X + + X X X X X + X + X + . . t h i . X + o & - - : u - - a ; 9 7 : > & - & a M i + o o X + X + X X X X   X t l + + + X X + X + ",
"X X X X X X X X X X X X X X X t h t o o X X X + - - - - - - ; 9 7 * & - & O @ t i . . X X X X X X X X . . . # i X X X X X X X . ",
"i l l h h h l h h h i t h h h h h h h h l l l l l l F B B M 8 9 q V K K G l h l h i i h h l h h h i t i h l h h h l l h h i t i ",
"l G D l D l D l D h t t D G D D l D D l D D l D l D N G F M ; 0 q B P G D D D D l D D l l h l l l h i t D G D D l D l D l i t i ",
"h D i h h i i i i # X # D D i t i t i t t i i t t i i i # + $ 5 c i i t h t # h t h h t i # i # h # + t G i i h i i i i # + # i ",
"h l t i # i i # i X X t l l h i t t t t t t t t # t t t + X % 4 x t t # i # t i # t i # i t i t i X X t D t i # i i # i X X # h ",
"h l t t t t # # i X . t h l i i t t t # t # t # i # # i + . + y j # t i t # # + i t i # h t i + i + X t l t t t t t # i X . # i ",
"h h t i # t # t # . X # h h i t + t t # t + t + # # # # + X + t l t + # t + # # # t t + t + # # t + . t l t i + t # # # X X + i ",
"i t # + . . . . X . X + i # + + X + X + X X + X o . X X . . + t i + o + X + X + X + X . + X X + X . X t i # + X X X . X X . + t ",
"t # X X X X X X     X + i # + X X X . . . X X . .   . X X X # i # X + X + X + X + X . . . X X X X X . t t X X X . X X . . . + i ",
"l i i t h h i t t t t i t t t h l i i t i l i h i l i i h l l h i t + i l h h h h h l i i t i h i i t t i l h i # # D l h h i h ",
"G l l h h h h h l h h h i t i P D D D D l l l l l h h l h h l l i i t l G D l l D l D l l l h h h h l h l l h i # t D l h h l h ",
"t t i t # t t t # t i t . # i G i i t i t t t t t t t i t t i l + X t h D t i t t i i t i t # t # t t # h h t . # t D t t t t t ",
"# h t t # t t # t # i + . + # G t i t t t # # # t # t i + # t # + X # h h i i i t t # i i t # i # t t + i t + . + t l # t # t # ",
"i t t t # t # i t # t + . X t G t t t t + t # + t # t t # # t i X . + h l t i # i # i t t t # # # i t # i i # . X # l t # + i # ",
"# t # + # # # i + t t # . + i D i # t t t # + # # t # + t # t t o   + h i i i + t # # i # # # # t t + # i t #   X t h # + # # # ",
"X + X . X X + + X X X X . # i l # + X + # + + X + + + + o + X + .   # i i + X . X + X + X . X X + + X X + + X   X t h + + + + + ",
"X X . X X X     X X .   X # # i # + X + X X + + # . . . X X . X X o t i t X X X X X X X X . X X     X X . X . X # i i X + + + . "
};
