/* XPM */
static char *torch08w101743666765[] = {
/* columns rows colors chars-per-pixel */
"64 64 220 2 ",
"   c gray33",
".  c gray42",
"X  c gray45",
"o  c #6D6D6D",
"O  c #727272",
"+  c #6F6F6F",
"@  c #6C6C6C",
"#  c gray39",
"$  c #606060",
"%  c #717171",
"&  c gray43",
"*  c gray46",
"=  c #656565",
"-  c #5F5F5F",
";  c #626262",
":  c gray47",
">  c #797979",
",  c #777777",
"<  c #747474",
"1  c #686868",
"2  c gray38",
"3  c #646464",
"4  c gray40",
"5  c #5B5B5B",
"6  c #7C7C7C",
"7  c #7B7B7B",
"8  c gray48",
"9  c #848484",
"0  c #767676",
"q  c gray34",
"w  c gray51",
"e  c gray50",
"r  c #808080",
"t  c gray49",
"y  c gray36",
"u  c #8B8B8B",
"i  c #5D5D5D",
"p  c #494949",
"a  c #676767",
"s  c #6A6A6A",
"d  c gray31",
"f  c DimGray",
"g  c #505050",
"h  c gray35",
"j  c #515151",
"k  c #4E4E4E",
"l  c #868686",
"z  c gray29",
"x  c #484848",
"c  c gray37",
"v  c gray32",
"b  c #4C4C4C",
"n  c #5A5A5A",
"m  c gray27",
"M  c gray30",
"N  c #414141",
"B  c #4B4B4B",
"V  c gray44",
"C  c #585858",
"Z  c #565656",
"A  c #464646",
"S  c #555555",
"D  c #535353",
"F  c #444444",
"G  c gray16",
"H  c gray28",
"J  c gray17",
"K  c #2A2A2A",
"L  c gray26",
"P  c gray54",
"I  c #888888",
"U  c #393939",
"Y  c gray21",
"T  c #7E7E7E",
"R  c gray24",
"E  c #3C3C3C",
"W  c #434343",
"Q  c #343434",
"!  c #323232",
"~  c #3E3E3E",
"^  c #838383",
"/  c gray25",
"(  c #3F3F3F",
")  c #3A3A3A",
"_  c gray23",
"`  c gray22",
"'  c #353535",
"]  c #2C2C2C",
"[  c #2D2D2D",
"{  c #313131",
"}  c gray18",
"|  c gray20",
" . c gray19",
".. c #8D8A48",
"X. c #928E4D",
"o. c gray52",
"O. c #A29D44",
"+. c #ECE651",
"@. c #E8DC04",
"#. c #9C984C",
"$. c #373737",
"%. c #82816F",
"&. c #9C9739",
"*. c #EBE228",
"=. c #FCFB8D",
"-. c #E2D705",
";. c #5C5C54",
":. c #918E54",
">. c #D5CB0C",
",. c #F6F378",
"<. c #F0E930",
"1. c #D2C800",
"2. c #9A963A",
"3. c #949054",
"4. c #CEC409",
"5. c #EFEC6F",
"6. c #F4EF5D",
"7. c #E5D900",
"8. c #C8BE0C",
"9. c #C1B91F",
"0. c #A19D31",
"q. c #C0B926",
"w. c #A49E35",
"e. c #C9C008",
"r. c #F5EB12",
"t. c #FDF864",
"y. c #FEF746",
"u. c #F4E912",
"i. c #DBD113",
"p. c #797748",
"a. c #2F2F2F",
"s. c #272727",
"d. c #858354",
"f. c #D2C908",
"g. c #E3D801",
"h. c #F6ED17",
"j. c #FDF980",
"k. c #FDFB9B",
"l. c #F9EE15",
"z. c #DFD404",
"x. c #ABA525",
"c. c gray14",
"v. c gray15",
"b. c #232323",
"n. c #252525",
"m. c #D1C70A",
"M. c #E5D906",
"N. c #FCF118",
"B. c #FBFDB8",
"V. c #FBFEB6",
"C. c #F3E606",
"Z. c #D4CA03",
"A. c #7C7931",
"S. c #CBC110",
"D. c #D4CA00",
"F. c #F7EC12",
"G. c #FDFB97",
"H. c #FDF965",
"J. c #E1D500",
"K. c #CDC411",
"L. c #818181",
"P. c #82805D",
"I. c #B1AA2E",
"U. c #D4CB07",
"Y. c #F6EC11",
"T. c #E8DD05",
"R. c #B7B021",
"E. c #817F5C",
"W. c #666458",
"Q. c #A1921D",
"!. c #C4AF0F",
"~. c #BEAB0D",
"^. c #68634D",
"/. c #282828",
"(. c #615955",
"). c #77522D",
"_. c #95672E",
"`. c #885F2E",
"'. c #644A36",
"]. c #5F5A57",
"[. c #5A504A",
"{. c #6F432D",
"}. c #895438",
"|. c #7F4E34",
" X c #644433",
".X c #55504D",
"XX c #5D5753",
"oX c #694634",
"OX c #825035",
"+X c #794D36",
"@X c #634C3F",
"#X c #5E5B59",
"$X c #5B4537",
"%X c #77482F",
"&X c #6C4936",
"*X c #544B45",
"=X c #222222",
"-X c #5C4538",
";X c #774830",
":X c #6D4835",
">X c #4D433D",
",X c #644D40",
"<X c #77523F",
"1X c #736963",
"2X c #5F473B",
"3X c #784930",
"4X c #77533F",
"5X c #776D67",
"6X c #4A3E35",
"7X c #6E4731",
"8X c #745847",
"9X c #524E4C",
"0X c #423D3A",
"qX c #644331",
"wX c #6D584E",
"eX c #323131",
"rX c #4B4441",
"tX c #5A5452",
"yX c gray13",
"uX c #202020",
/* pixels */
"  . X o o o O + o @ # $ @ % & o o o o o * * * * X o o o o = - ; : > > , , < + + o 1 1 o o X & . . & % o X o o 1 2 3 o , o o 4   ",
"5 , 6 : 7 X 7 < 8 + # - > 9 : : < , , X > 0 0 > X , 0 7 X 1 q = w e r e 7 t > t X 8 8 < X % < + X * , 8 6 0 > = y ; u w : 8 O i ",
"p = a 1 s 3 4 = a q d i 0 6 = 3 3 $ = 3 2 a f ; ; 3 3 @ 5 g h 4 7 s a ; f # y . 5 f o $ 1 y 1 5 @ $ = 1 4 4 2 j k ; l % ; . # z ",
"z 2 ; 1 h 4 a 5 ; x p i < X s 1 2 $ ; 2 ; c - 5 y 2 c y v b h = > c 5 5 = n y = y 3 = q a c # 5 = 5 i 3 # c h m k ; 9 ; 4 ; y M ",
"N 4 $ - $ 2 y y ; B x i V X a a y $ 4 C i y ; Z $ y h # v x g 2 V i c 3 i 5 y q 4 ; ; i 1 2 #   4 C 5 3 q ; 5 m k ; e 1 y $ y B ",
"A c 2 3   ; q y q p x n @ + # $   - y n - S i Z 5 5 5 C v B g 2 % - Z C - q S C q $ i j ; S i y $ S n C D y j F M i > # ; i 5 F ",
"G v S D m p H x M A p v a 5 D M z j M j b z k z M m z p x H g - = g k g d d d g M k B p j z B j p B A M m B B N B n o y j d A J ",
"K B M M z z z p L L H D a y k b b z m m m p B m L L x z z z C a h k d d d d d p H m A B M b b b p m z F L m d ; 5 b g k k Z v K ",
"q f 3 ; s s s ; 2 2 2 1 - 2 $ & V o 1 3 1 % @ @ ; 4 @ s s s & = @ % % % * % o a n q + o X o o o 4 . 1 3 2 2 1 # ; 2 2 1 f = c F ",
"& V 0 + @ & o o + @ o & 3 $ # P > > * : V < O + , O V @ o o o o & & o X o V O ; y y I w X 0 0 X > 8 X , o o o o o o o o o = - z ",
"= y 4 c y i - c 5 - a y m Z 2 9 = = 2 f - # c ; ; 5 # 5 # 2 i ; a i 2 a ; ; = H Z - r X y 4 c # a # - 1 y c h # y 5 3 = h A Z x ",
"; ; ; 2 q 2 y i c 5 # S m k 5 r y # 2 $ y q y h # q 2 c n S 5 - 3 D 5 = 5 2 S m k y t ; 4 1 i 4 n i 1 2 - 5 i i c 5 2 $ j A B L ",
"2   3 i h 5 n 4 c y i D m k y r y a - =   $ n S ; S 3 5 n - 5 # n n 5 # q y y m z q 8 @ c ; ; ; 5 # y 4 y h y h a 5 2 h j A x F ",
"2 Z 5 D 5 y h # v i 3 Z m D 4 e f q 5 - i Z D C Z Z 2 C Z y n 5 D c 5 h ; 5 5 m m 5 * ; # n n i h i 5 c j n - Z # v ; ; j m b k ",
"v L p A b k d v B B M p A q a X n v g g q v j g   M   d S k g j j k j M j g b N H y V i b B A Z p g g z A b j M v p d z x p B k ",
"U Y A z B p m F B B m L B h 5 = Z j M k M k j D Z S d M B m m m A b b x A b B B   # 1 D B b B k p m B B m m p B p F p j 5 q b F ",
"D 2 f = & & & 1 s a 2 2 ; . & @ s 1 ; = ; ; y $ = < o O o 1 3 = 1 . @ + a s s + @ o o 1 ; s & o - - & X 1 + s o 3 $ 2 f @ . A N ",
"2 @ : > X , , X V o o V X o o V o X @ + X = # = > 9 0 7 , 0 * : X , X @ f o s @ & . o o o o o 2 y 9 > O O & & O o & & o O 0 m g ",
"Z 4 c . ; 4 y y f 3 ; # @ y ; $ 3 ; h 1 3 5 p i > 6 4 o i ; y - 2 c 3 q 5 ; y n 4 y ; = h ; h H b T V 3 s = 2 - i 1 3 ; 4 f L d ",
"j D S 1 h h i q 4 i ; ; = S 3 C $ ; S 5 ; j H = T > 3 4 5 $ c C # 2 ; 5 = n $ C 5 4 5 ; i $ j m M < = 3 4 n S 2 q ; 2 - # - A 5 ",
"v Z d 4 k c   5 4 n q 4 5 q C 3 Z 3 S ; Z b H = > X ; 5 2 5 5 ; h 2 n v i $ y S y c $ 4 h ; Z m k X o c 3 Z h q y 3 h C 4 B m n ",
"Z   U c d q i j c C C ; h Z 2 5 D c h y n y H n X > 2 3 q $ i 5 q 5 i D Z j y j 3 D C y 1 5 q m d > 1 j c j Z - j 5 i   ; L R k ",
"d D E z j d d b g v j   j j b B p k k v B m p v V 1   q j j k j j g v j D d g M Z p j z C C j W M V . D g j k d b j D g k Q E x ",
"H p Y N k k k k M k d d g M B B D D k B z z p 5 # - M k k d d k x H H x d S S k m m z b b k d B k 3 2 j d k k k M M k d L ! ~ F ",
"h C C i . a a ; y h = 6 t < < & o . = ; ; # 2 4 V s s + = & & 1 5 h 2 @ & * V o 1 4 o . s s s + = O % o o a = V s o o X   Z Z D ",
"Z q q S V % X V = 5 y r * O X * * + o & & @ o f & o o + . o o ; - a r 0 X X X 0 % < O o o @ o & @ o o a = h @ * f 4 a 1 Z D q B ",
"M m M z 2 = f i m Z $ r y - 5 4 c ; y 4 $ n y h a 5 $ c y 2 2 B q 4 ^ @ S 2 2 ; D # $ 5 $ c y ; 5 2 5 y p 5 @ o y 2   j / ( H W ",
"L N B / d y 4 q m   n e q 1 c ; # c y = - i c j c $ ; q ; ; ; B C o I @ 5 ; ; - 3 ; 1 y # 5 c 4 2 - 5 S A n @ o S   C d ) Q H _ ",
"b ~ x x M Z i S x h # w $ y y = 5 Z - - y h # D # h n ; q ; $ x q o I ; 4 ; 2 C a ; 5 3 i ; 2 3 y h n g A C s + 2 j C ~ m ` _ ' ",
"m R H R m p 2 Z x h - > Z a v ; 2 n y a y 2 h M 5 5 - $ i ; c z D ; e @ C a c a c - 3 y 4 n i = 5 = y n A d ; @ q 5 m Q p _ ` ~ ",
"G ] Q [ [ ! W p m Z $ o j 5 v C v S S q k D d M q g v d q   B L k 2 0 i g q q 5 Z h h   h D D S j h d B W S 1 4 S x { } | }  .G ",
"J J J J J J Y z z D 4 a M A H x k j Z S B m m m x b b M b b B z S $ =   k k D q - D k p H B d b M b B F L d 2 # F { J ] J ] J ] ",
"b g g g S C j ; 2 2 + # $ = + < o o o o o V V o o = $ 4 . o . ..X.V V X = & & 0 8 + . s 3 & & @ & a $ 3 O & . 4 ;   B m m z   d ",
"D v S   j   g c o s o 2 $ ; o.e : 6 X 6 X > , > X 4 y # e < O.+.@.#.X O o s o 1 o . o o @ o o s o s ; 2 + s 1 + n q g k S D S   ",
"F $.m A ` p E z 5 q 2 A 5 2 e f a . 3 . 3 4 = 1 5 j h 1 %.&.*.=.-.;.n j ; y 5 y n c y h ; i - 2 q C m 3 + 2 c n ' B F N m _ F N ",
"F ~ ! F ` F | ~ L n   A j 2 > - 1 n 3 n 3 a y 3 B p h ; :.>.,.<.1.2.j 2 h q 3 Z ; Z $ C 4 c y i S y H 2 o h $ R ~ ` m U H ~ m U ",
"F | N W ~ z ~ b B H C m d $ 0 ; i 2 i 2 i ; 5 3 g A h # 3.4.5.6.7.8.9.0.; C j 5 S ; y 2 c $ q 3 y 5 H 5 o ; D F $.x ~ F L L ~ F ",
"N $.U N ( W $.N / ) y / b $ O $ 3 S 2 S 2 5 n C b A Z q.w.e.r.t.y.u.i.p.- Z C 2 D y ; C $ 2 i 2 j S H ; o C ~ F _ / m ) m ( m ) ",
"} a.s. .[ Y } | Y } $./ S c # q D H p H p p A M x H g d.f.g.h.j.k.l.z.x.d d j j B v v M S g k S B d H ; c ) U ! Y Q ) Y ` { ) Y ",
"c.c.] J v.b.b.s.] n.n. .h i - M k z p z p z B m W m g 5 m.M.N.B.V.C.Z.A.M D D M A B B B W W x z B z B Z b } a.a. .a.a.a.} Y a.a.",
"n v v h v S g g j i = n n f 3 ; s + 1 3 4 . O & @ 3 . + S.D.F.G.H.J.K.s o o a = V s o o X 1 + + o + f h   k z     p j Z z S g g ",
"h 5 5 c d v   v n D j   v C 2 3 V L.> 0 * O % < % o o s P.I.U.Y.T.R.E.. a = h @ * f . @ V * % V . o h v W ( / . n D D g S S j   ",
"A R m F L E L $.g ` $.L $._  .y o X 3 c 3 D k 5 - - 2 j ; W.Q.!.~.^.- Z y p 5 @ X y 2   - y y ; - F N F G Y H 4 m W m | A F ` W ",
"B Y U x ) ( U H R U F ' W | /.H f O n Z 3 j q # S c c 3 q (.)._.`.'.].v S A n @ X S   C 4 q v 2 L L $._ v. .H 4 ~ L L p U W L ` ",
"R / ~ ' ) W W ~ A | ) $.A [ /./ S O q D 3 h q ; h y -   i [.{.}.|. X.Xc g A C s * 2 j $ 5 2 v / ' x R ~ c.} m = d / W Y N $.m U ",
"U m ~ Q N ~ R ` ( E ~ W ) ) s.N q C d Z = Z C 5 g c 5 j $ XXoXOX+X@X#Xj n A d ; % q 5 n v C E ` ~ L ` W /.J ` $ E L ~ ! F R ( A ",
" . .| ] G } ] a.Y }  .K  ././.N D M G  .M M b k B v v M B v $X%X&X*Xk z B W S 1 4 S k z ' | }  .G a.K a.=XG W C ! Q Q } J Q J $.",
"] J ] J ] J ] J J J J ] ] K K N k F {  .J Y H B B B B B B B -X;X:X>Xm B F L d 2 # ~ { J ] J ] J ] J ] s.=Xn.~ B ! J J J J J ] n.",
"d h h       h S   v H F j q             y y y ; 1 . o o o 3 ,X;X<X1X: 0 0 X o = n b b D   n   g g d / z Z y       q q   D z F M ",
"q V = $ 3 5 3 y # Z x W 2 + $ $ y - - n 2 c c 2 n - ; & . ; 2X3X4X5X6 , & s 2 4 5 # # y 5 C y Z 5 v z H f 1 $ = 5 ; - ; 5 B / k ",
"Z 3 B k g p B z b )  .N c = z p p F z p m b d A A p p v ~ { 6X7X8X9Xb A d x / j ~ d   F k ( k ~ v E | m f d b j p B z M ~ ! E k ",
"  h A M E B b ~ H /.G N y 5 g k m F A m H L W ~ / m L ( Q [ 0XqXwXL ~ ~ z R ( z ( p z ) b L x ~ z  .J m ; W M R p b / p ] G E k ",
"D C W W F m / / H ] /.N q 5 b b / F B _ N ( A ` F ( E x Q /.eXrXtXN L p N ~ ( U B A A N M m x Y B Y G F c A N m N A ~ p { v.E M ",
"j D F p Y A U ( U G /.R v Z x F Y W / R W $.N ` ~ ~ ~ _ Q J { m C W ` _ W U $._ U F N ! A $.N ( F ! /.F h F p $.m ~ R _ [ v.` H ",
"B m Y ' n.G s./.} v.G Q b ~ ' } K ! } | [ K a.K } n.K G /.s.{ W z { a.{  . . . .} a.J G ! K J | G K /.L x ) ' s.G G v.} /.s.{ A ",
"m ~ } } K K K G yXyXs.' b ( a.[ [ K n.n.n.G ] c.yXyX/.K K K _ b E a. . . .a.a.} a.K v.v.n.G [ } G G G N W } a.K G K J c.=Xn.{ B ",
"i z z A g g g H m m m k W m F S q   k p M C v v H S z v C C C Z d F ` H n q S   q j y B z A d j g z m m M C j z _ E i C v v H S ",
"4 n c Z v S D D Z v   S p F x 0 2 ; i $ q y h Z -   D S S   n 5 g x / n V $ c 5 c i a n i h v Z v D q g n i Z p ~ N 4 y h Z C   ",
"x m B L / N W L ~ W b / n.` m + z z m d W x L A A N H b N m M D ' } L Z ; A b N A B p H A H ~ m ~ m ( ~ g D W s.E F 3 x L A A N ",
"R k A m U m ( N L ~ x $.n.a.~ s / x m F / ) / E x ~ W p ' ~ z _ } G E   S A k p W F ) M p m ` x R L F U k L Y n.| N c ) / E x ~ ",
"p N p N E ~ R B L ( N ' n.a.( s ( b W z Y F R $.H ~ x R R ~ x z [ s.Q v h m B ~ b ( x W m m R R ~ H A U k M ) c.[ ~ y F R $.H ~ ",
"_ H ~ ' ~ ( E x Q N p ` n.' B 1 d ) ~ W N ` ' _ ` R ~ ' L ~ E A } uX' v d A A { F ~ ` b U ) R R N F $.R H m U yXG L S ` ' _ ` R ",
"] Y G v.[ a. .Q J ] } G v.U b n R Q { { U Q | { Y { | | a.| } ! v.uX~ z B |  .n. .{ G U G s.] [ ! ! [ G | ! K uXa./ j Q | { Y { ",
"G K n.G K /.=X=XK J c.uXJ E ~ p ` ! } } } } ! ' $.c.c.n.] ] v.J G a.L M L K [ G J J G K /./.K G =X=XG J /.G K J ) z M } ! ' $.c."
};
