/* XPM */
static char *torch02w101743666765[] = {
/* columns rows colors chars-per-pixel */
"64 64 130 2 ",
"   c gray12",
".  c #252525",
"X  c #2C2C2C",
"o  c #31312F",
"O  c #333333",
"+  c #3C3C35",
"@  c #3C3C3C",
"#  c #4A3E35",
"$  c #423D3A",
"%  c #553D30",
"&  c #424236",
"*  c #4D4334",
"=  c #45453A",
"-  c #4A4A3D",
";  c #5C4533",
":  c #544B3C",
">  c #6F432D",
",  c #77482F",
"<  c #77522C",
"1  c #644431",
"2  c #6C4732",
"3  c #644A32",
"4  c #6D4933",
"5  c #624B3A",
"6  c #774830",
"7  c #7B4C33",
"8  c #734F3B",
"9  c #77523D",
"0  c #636133",
"q  c #6A623C",
"w  c #747233",
"e  c #75733C",
"r  c #7F7C38",
"t  c #444444",
"y  c #4B4441",
"u  c #4D4D41",
"i  c #4B4B4B",
"p  c #524E4C",
"a  c #515145",
"s  c #5A5040",
"d  c #555549",
"f  c #5D5748",
"g  c #5A5A4E",
"h  c #545453",
"j  c #5A5452",
"k  c #5D5D52",
"l  c #5B5B5B",
"z  c #61594B",
"x  c #6D584E",
"c  c #745847",
"v  c #685E58",
"b  c #66634D",
"n  c #777540",
"m  c #616155",
"M  c #656559",
"N  c #6A6A5E",
"B  c #706659",
"V  c #636363",
"C  c #6D6D61",
"Z  c #6B6B6B",
"A  c #727266",
"S  c #75756A",
"D  c #79796D",
"F  c #737372",
"G  c #7D7D71",
"H  c #7A7A78",
"J  c #885F2D",
"K  c #825035",
"L  c #895438",
"P  c #95672E",
"I  c #9E991D",
"U  c #BFAC0C",
"Y  c #A8A113",
"T  c #B2AA1A",
"R  c #B8B010",
"E  c #8A8627",
"W  c #8C882D",
"Q  c #998A20",
"!  c #9D9827",
"~  c #8E8B3D",
"^  c #918D32",
"/  c #98943C",
"(  c #A39F31",
")  c #A39E3D",
"_  c #A8A326",
"`  c #ABA632",
"'  c #B1AD39",
"]  c #C4AF0F",
"[  c #C4BB0B",
"{  c #C2BA15",
"}  c #C9C007",
"|  c #D0C602",
" . c #D5CB02",
".. c #D9CE01",
"X. c #D0C60A",
"o. c #DAD104",
"O. c #CFC416",
"+. c #E2D600",
"@. c #E9DD03",
"#. c #E5DB0A",
"$. c #EBE007",
"%. c #F1E60F",
"&. c #F3E90E",
"*. c #F0E511",
"=. c #F8ED15",
"-. c #FBF11A",
";. c #CAC323",
":. c #F5EB22",
">. c #F9EE20",
",. c #FFF530",
"<. c #88864E",
"1. c #868557",
"2. c #818175",
"3. c #848478",
"4. c #88887B",
"5. c #E8E245",
"6. c #F8F246",
"7. c #FFF749",
"8. c #F4ED58",
"9. c #FFF752",
"0. c #FCF65B",
"q. c #FAF667",
"w. c #FDF965",
"e. c #F8F67A",
"r. c #FAF87E",
"t. c #FDFA83",
"y. c #FDFC89",
"u. c #FDFC95",
"i. c #FDFB9F",
"p. c #FBFDB5",
/* pixels */
"h l l h h h l h h h t t h l h h h h M C S S S S A C C C C M b m D D S S S S C A C M M A N A M h h h l h l h h i t i h V h h h h ",
"l V V V V l V l V h i t V Z l V l V S A D S S D A D S G A N d M 2.2.2.2.G G D G S D D S A A S h l l l V Z l V i @ t H Z V V V l ",
"i i i i p i i i p @ o t l V i i i i M M m M N m m M m C k - g M G N M m N M g N g N C m N g M - h t i i i i t O o i F l t h i i ",
"i i i i @ i i @ i . X @ l l h i t g m m m k k g g m k g d - g M S k g g M g g M g M m g M m M d i @ t i i t @ . o t Z t i t t i ",
"t i t t t t @ t i X . t l l i i t k M d k k m d m g g m a - a m A g k M g g g g M m m g M m m d i @ @ i @ t @ . O t Z i t t @ i ",
"t t t i O i @ @ @ X . @ h h i i & m g g k d k g k g g g a - - m A b d g k d d g g m k a m d k g i O @ @ O t O . X t V i t t t t ",
"X O O O . . X X X . X O i @ o X & a - - - - - - - = - - - = - k M a - d a - - a - - - - a - - d + X . X . X X   X @ h @ O O . X ",
"X X X o X X X .     . @ i @ O X - - - = = - - & & & - - - - g N g - a - a a - - - = - - - - - - = . X .   . o t @ X O X o O O X ",
"h h i t i h i i i t t i i t t h A C M M M A C C m M C N N N C M C A A A S A C M g d A C A A C C V i i i t i i t i t t i h i t t ",
"F l l h h h h h h h h h i t i H S D S D A A A C S A A C N C C C C C C A N A A m g g 4.2.A S S A S Z l V h h h h h h h h h i t i ",
"V t i t t @ t t @ t i @ . @ t F M M m N k M k k m g m g m m k m N g m M m m M = d m 2.A g M m m M h t i t t @ i t @ i i @ . @ i ",
"V i t t @ i @ t t @ i @ . o @ F k m m b k d k g m g m k g d g k M d g M g m d = - g G m M N g M g a i t t @ @ t t @ t t O . O t ",
"V @ i t @ @ @ i t @ t O . o @ H g M k M d k g d m d M g g m g M g g g M g g g = - g D C m m m m g k @ i @ @ @ @ i @ t @ O . O t ",
"V t @ O @ @ @ i O @ i O . O i D N g k k k d d g d d b g d k g g d g g g m g g = = g A m m g g m g d @ t O t t @ i O i t O . @ i ",
"i O X X X X o O X o o X . @ i Z g a a a d a a - d - a - d - a : a u a u a a - = = k A m - - - g - t O X . X O X O X X X . X t i ",
"@ X . X X X . . X X .   X @ @ M d d - - a - a d d g - a - = = & = - - - = - - - a M M a - - - - - & X X .   X X X   X O @ @ t t ",
"h l i i h h h i i i i i i i h C C M m M m m k m M A C A C M M M N N N A M N N A N C N N m N C C k k h l i l h h t t t h h h t t ",
"V Z V V l V V l l h h h l h h C C Z C C A M m M D 3.S G D S S D A S A C N N N N C N C C N C N m k 3.V l l h h l h h h h h l t i ",
"h Z i i i i @ t i i t t h @ t l M m g M m g - k D G M N k m g k m k M d g m g g M g m M g m g = u G h i i i t t t i i i i h t h ",
"h h t i @ @ @ @ i @ i i i @ i d m m d g m a = M G D M M g m k g m m m g M g m d g M g m g m a = u A i i i @ @ t @ t t t i i t l ",
"h h i i X t O @ i @ @ i @ @ @ m d M d m d - - M D A m g m g g m g m g a k m g d g k m M g m d = u A l @ i @ @ @ t i @ @ i @ t l ",
"h h O t o @ t o t @ @ t @ @ t g a k g g g k = g A D m M d m k k d g k d d a g a M d g g M g d = u S i O t o O t O @ t O i t @ i ",
"i h @ X O O o X O O o @ o o X = - - a d - = - a C N d g a a - a a a a a d a a a d - - - g g a = u C h O o O X O X O O O @ O @ i ",
"i i @ X X o o X X o X o o X X = d d - - - - - g M m - - a - a u = = = - - d d - = - - - - a - - u k t O o o o X X X X O X O @ t ",
"l l h l h i i i @ @ i Z Z l l V C N M m m M m M A N N C M A C N g g m N A S A N M M C N N N N C M V h h h i i l h h h l i h l h ",
"h h l h l h l h i @ @ Z l h l Z S C C C C N N N C N N A N N N m b M 2.D A A S S A S A C C N C C C V h i i @ h l i i i h h h h i ",
"i i i i h i i @ . O t Z @ t t h k m k M m g k g M g m k g m m - d M 2.N d m m m a M m g m g g m g h @ t . @ h h t t @ t t @ i t ",
"t t i @ i t i @ . @ @ Z @ i t i M k g M k k k a k m m d m M m - g N 4.N g m m k m m N g m g m N m t @ @ . @ h h O O @ i @ O t @ ",
"i @ i t i t @ @ . @ i Z t @ @ i g d k k g g m a M g g m d m m = g C 4.m M m m g N m g M k m m M g @ @ o . @ h h t O t @ t O @ O ",
"i @ i @ i @ t @ X @ t l @ i O i k g k M g m g a g g k m k m m - a m 2.N g M k M k k m g M g g M d i t @ . X t h @ @ t O i @ @ @ ",
". X O X X O . X . @ t h O @ @ @ = d d d a a - - d : d a d d - & - m S k a g d g d g g d g a a d t @ o X   @ i i O O O X O X X X ",
"X X X X X X X X X O i i X . . . + a d d - = - = - - - u - u - 0 W m M d - - d d k d - - - - a - + X X . . O t t . . X X X X X X ",
"i h h i h h h i t i h i t i h h h C C C C A A C C M k M N C C #.8.` A A M C C S D Z N N M C C C h i t i l h h i i h i t t i h i ",
"h h h h h h h h h i h t t i F Z V S S D A D S D A M k m G A ) *.e.X.1.A C N C N C N C C N C N M h h t t h h i h h l h i h h h h ",
"t O t i @ i @ i t @ t X @ t Z i i k M N M M M M g a g N D m T >.y.#.r w _ e g g g k g g m k k p @ @ . i h t t t O i t t t @ t t ",
"t @ O t O t O @ @ @ O . O i V t i @ m g M M k m - - g m ' m T 6.0.| I ! [ e M d m d k g M m g = O t . t h @ t @ @ @ t @ i @ t @ ",
"t O @ t @ i @ i i @ @ . X t l i t t p k g m g M a = g m ;.m T 5.r.o.} [ X.e a g d m g m k m t i @ @ . @ h i t t O t @ t t t @ t ",
"t @ @ t t t @ @ t @ t   X t l t i @ i g m g g g - = g N o.} R -.t.,.=.O.^ d g m a k m g m m t t O @ X t h t @ t @ t t @ t @ t @ ",
"O X . X X O X O O X O . @ t i @ O . . + - - - - - = a N o.o.$.7.i.0.*.[ E u a a u a a u d - X @ X o . t t O @ O @ O @ O @ O @ O ",
". . X X X   . X X . . X @ @ t X o X X o - - - & & & a g R ..%.w.p.w.$.Y w a a u = - - - & . X X X X X @ i o o o O X O X X O o O ",
"h h h l h h h i h l Z h h h i t p h i i l C A C N M N C ~ o.@.9.u.:.../ C N N M Z N C C V h h h h h i h h i i h h i i h i h h h ",
"l l l l i h h h h h h h h h t i l Z l V l A A S A C N N C <.R $.&.| ( C M M f N S N N N l l l h h h h h t @ t Z h h h h h h h h ",
"t @ t t t @ t @ i @ O t O @   t h l i @ i + u g k k m a m m q U ] Q b d g - g N A g m + t @ @ t t @ t t X O i V t t t O t t @ t ",
"i @ @ t @ @ @ t @ @ t O t O X @ h h @ + i O t m d k k M g f < P J 3 g a d = g N S d = @ i @ O i @ t O @ . O i V t t t t @ t t O ",
"@ t t O @ t t @ t o @ @ t X X @ i V @ O i @ @ d g k k a j s > L 7 3 a m a = g N S d o t @ i O @ O t @ t   X i V i t t O t O t @ ",
"@ t @ O @ @ @ @ t @ @ t @ @ . t h h @ @ i O @ @ = k g a v f 2 K 7 5 g a f = u m M @ @ @ o i @ @ @ t O t X X @ l @ t @ O t @ @ t ",
"X O O X X X X X O X o X O . . t h h X . O X o o X @ a u - a 5 6 4 : a - - & a k i O o O X O X O X X X X   X t h O O O X X O X @ ",
"X X X X X X X X X X X X X X X t i t o o X X X X X X o = y - % 6 4 * & - = + O t t . X X X X X X X X X X . . @ i O X X X X X X . ",
"i l l h h h l h h h t t h l h h h h h h l l l l l h h h v h 5 6 c B Z Z V l h h h i i h h l h h h h @ i h l h h h h h h h i t h ",
"h F V l V l V l V l t t V Z l V l V l l V V l V l V l V l i % 6 8 V Z Z V V V Z l V V l l l l h h h i i Z Z V V l V l V l i t i ",
"h V i h h t i i i @ X t l V i i i t i i t i h t t i i h @ O $ 2 c p i t h i @ h @ h h t i @ h @ h @ O t Z i i h i i i i @ O @ i ",
"h l t i @ i i @ i . X t l l h i t t t t t t t @ @ t t t O o $ ; x $ @ @ i @ @ i @ i i @ i t t t i X X t V t i @ i i t i X X @ i ",
"h l t t t t @ t t o . t l l i i t t i @ t t i O t t @ i O . O t j t t i @ @ @ @ i t t t h t t O i O X t l t @ t t i @ i O X @ i ",
"h h t i O i @ @ @ . X @ h h i t O t @ @ t O t O @ @ @ @ O X O t h t O @ t @ @ @ @ t t O t O t @ t O . t h t i @ t @ @ @ X . @ t ",
"i t @ O . X . X o . X O h @ O o X O X O X X o X X . X . X . O t i o o O X O o o X O X . O X X O X X . t i @ O . X . . X . . O t ",
"t @ X X X X X .     . O i @ o X X X . . . . X . .   X X X X O i @ o o o O X X o o X . . . X X X X . X t t O X X X X X . . . O i ",
"l i i t h i i i t t i h @ t t h h h i t i l h h i h i h l l h h i t @ t l h h h l h l i i t i h h i t t i l h i @ @ l l h h t h ",
"V l l l h l h h h h h h i t i H V V V V l l l h l h h h h h l l i i t l Z V V l l l V l l l h l h h h h l l h i @ @ V l l h l h ",
"i t i t @ t i @ @ t i @ . @ t Z i i t h t i t t i t t i t t i h O X t h V i i t t i i t t i @ t @ t t @ i h t . @ t V i t t t t ",
"@ i t t @ t @ t t t i O . O @ Z @ i t t @ @ @ @ t @ t i O @ i @ o X @ h h t i i t t @ h i t @ t @ t t @ i t O . O t l @ t @ i @ ",
"i @ i t @ @ @ i t @ t O . o @ Z @ i t i O t @ O i t t @ @ t t i X . O i l t i t i @ i t t t @ @ @ t t @ i i @ . X @ l t @ O i @ ",
"@ i @ O @ @ @ i O @ i O . O i Z h @ @ t t @ O @ O @ t O t @ @ i O . O h i t t o t @ O i @ @ t @ t t @ @ t t @ . X t h @ O @ @ @ ",
"X O X . X X X O X X X X . @ i l @ O o o @ O O O O o O O X O X X . . @ i i O o . o O X @ . . X X O O X X O O .   X t h O O O O O ",
"X X . X X X . . X X .   X @ @ i O O X o o X O O O . . . X X X X X X t i t X X X X X . X . X X .   . . X . X X X @ i i X O O O . "
};
