/* XPM */
static char *torch07w801743666765[] = {
/* columns rows colors chars-per-pixel */
"64 64 118 2 ",
"   c #0D0D0D",
".  c #131313",
"X  c #1C1B16",
"o  c #1C1C1C",
"O  c #241F1C",
"+  c #24231C",
"@  c #33261E",
"#  c #232323",
"$  c #2A2522",
"%  c #2D2B25",
"&  c #2B2B2B",
"*  c #312F22",
"=  c #312B29",
"-  c #333125",
";  c #3A3727",
":  c #3C3827",
">  c #33322C",
",  c #3C362E",
"<  c #3E3A29",
"1  c #323232",
"2  c #3D3B32",
"3  c #3A3A39",
"4  c #472F23",
"5  c #423E2C",
"6  c #4B3F2B",
"7  c #573F2C",
"8  c #5A3D2A",
"9  c #403D32",
"0  c #4F3A30",
"q  c #43402E",
"w  c #4B412F",
"e  c #5D432C",
"r  c #5A5623",
"t  c #5E532A",
"y  c #464331",
"u  c #4A4634",
"i  c #4B4836",
"p  c #464439",
"a  c #4E4A39",
"s  c #504532",
"d  c #5E4231",
"f  c #534D31",
"g  c #514D3C",
"h  c #54503F",
"j  c #63412C",
"k  c #6C452E",
"l  c #77482F",
"z  c #755029",
"x  c #684430",
"c  c #754931",
"v  c #7A4B32",
"b  c #656026",
"n  c #6A6523",
"m  c #686329",
"M  c #726D24",
"N  c #7D7727",
"B  c #6C6835",
"V  c #726C30",
"C  c #565241",
"Z  c #595544",
"A  c #5B5846",
"S  c #595648",
"D  c #5E5A49",
"F  c #837C1D",
"G  c #875E2C",
"H  c #825035",
"J  c #895438",
"K  c #95672E",
"L  c #948418",
"P  c #948E1C",
"I  c #999113",
"U  c #9D961B",
"Y  c #A59C0D",
"T  c #B5AC0A",
"R  c #BFAC0C",
"E  c #BAB10E",
"W  c #ABA211",
"Q  c #878125",
"!  c #918A25",
"~  c #A09A23",
"^  c #C4AF0F",
"/  c #C0B606",
"(  c #C4BB06",
")  c #C8BE05",
"_  c #C1B70C",
"`  c #C4BA0B",
"'  c #C0B715",
"]  c #CFC504",
"[  c #D7CD00",
"{  c #D9CE01",
"}  c #CCC311",
"|  c #E2D600",
" . c #E9DD03",
".. c #E5DA09",
"X. c #EBE007",
"o. c #F1E60F",
"O. c #F3E90E",
"+. c #F0E511",
"@. c #F8ED15",
"#. c #FBF11A",
"$. c #F5EB22",
"%. c #F9EE20",
"&. c #FFF530",
"*. c #E8E245",
"=. c #F8F246",
"-. c #FFF749",
";. c #F4ED58",
":. c #FFF752",
">. c #FCF65B",
",. c #FAF667",
"<. c #FDF965",
"1. c #F8F67A",
"2. c #FAF87E",
"3. c #FDFA83",
"4. c #FDFC89",
"5. c #FDFC95",
"6. c #FDFB9F",
"7. c #FBFDB5",
/* pixels */
"# & & # & # & & & # o o # & # & # & # & 1 h Z h h h h g g i i i h Z h h h h h h g a g g > & # # # & & & & # & # o # # & & & & # ",
"& 1 1 & & & & & & & # o & 3 & & & & & 1 C h h h h h h Z h a w i A A A A Z Z h Z h C h h g > & & & & & & 1 & & # o o 3 1 & & & & ",
"# # # # # # # # # . . o & & # # # o # y i a g i i i i g y q u i Z a a i a a i a u g g i a 5 # o # o # # # # o . . # 1 & # # # # ",
"o # o # . # # o o . . o & & # # # o < i i u u y u i u u q 5 y i h i u y a y u a u i i q a u 2 o # o o + o o o   . o 1 # # o o # ",
"o # o o o o o o o .   o & & # # o > i y u u i y i y y i q 5 5 i h u u i u y u y a i i u a i a + # . o o o o o   . # 1 # o o o # ",
"# o o # . # . o o   . o # & # o . y u y u q u q u u y q q 5 q u h u y y i q w y q u u q i y u y o X X X . o .   . o & o o o o o ",
"  . X .   .     .     . # o . . + q 5 q 5 < 5 < 5 < 5 < 5 : q u i q 5 q 5 5 q q < q q < q < < q # .   .     .     o & o . .   . ",
".   . . .     .     . . o o . . : < < < < < < : : ; : 5 : 5 y f y q 5 5 5 5 q : < < < < 5 < q < ;           . o o . . . . . o   ",
"& # # o # # # o o o o # o o # , h g i i g g g g i i a g g g g i f h g h h h g a y y g g h h a h a 1 # # o # # # o o # # # # o o ",
"1 & & & # & # # # # & # # o # S C Z C Z h h h h C h g g g g g g g g g h g g h i i y D Z h C C h C a & & # # # # # & # # # # o # ",
"& # # o o o o o o o # o   X # S i i u g u i i i i u i y i u u i i u i a i i i < q i A h i i i i a i # # o o o o o o # # o   o o ",
"& # o # . # o o o o # .   . % S u i i i u q u w i q i i y q u u i q u i y i w < q y A a a f y a u u 1 # o o o o o o o o .   . o ",
"& o # o o o o # o X o .   . , A y g u i q i u q i y i u y i y i u y y i y u i : < q h h i i i i u i < # o o o o # o o o .   . o ",
"& # o . . o . # . o # X   . i A g q y u u q q q y q u u w y y u q i y y i y y : 5 y h i i y y y q u u o . o o . o . # o o   o # ",
"# . .   . . . . . .       + a h u q 5 q w q q q q 5 q 5 q q q q q 5 q 5 q 5 5 ; : i h u q < : q < 5 5 X   . . . . . . .   . o # ",
"o .     .       .       . % u i q q 5 5 5 5 q q y q 5 5 < < < < 5 5 5 : 5 5 5 < q i i q 5 5 5 q < < 5 +               . o . o o ",
"# & # # & # & # # # o o # 2 g a a a i i i i u i a h h h h a i i i g g h a a a h a h g a i g g g u u g p # & # # # o o # & # o o ",
"& 1 & & & & & & & # # & & p h h h h g h h i i i h D h Z h h h Z h h h g a h a h h a g h g g a i u D C p & # # & # & # & & & o # ",
"& 1 # # o # o o # # o o # < i i i i y a i u 5 u h Z a g u i u u i u a y u i y y i u i i y i w < < Z g y # # o o o # # o # & o # ",
"# & o # o o o . # o # # # , a y i i q u i 5 < i Z Z i a u u u w i i i y i w i y y a y i u i q < 5 C a u # o . o o o o o o # # & ",
"# & o # . o o o # o . # X y y a q a q i q 5 < i Z h i u i y y i u u u q i i y q u i i a y i y : 5 C g u # . X o o # . o # o o & ",
"& # . o . . o . o o o o . y i u q u y w u u < y h h u a q i u y q u u q q q u q i q w u a y y < 5 C g 5 o . X o . o o o o o o # ",
"# # o . . . . . . . . . . y 5 < < q 5 q 5 < < q h f q q q q 5 q q 5 5 q q 5 5 5 q < 5 5 w y q : 5 g a 5 . . . .   . . . o . o o ",
"o # . . . . . . . . . . . < 5 , q q 5 5 < < < u i y q 5 q q 5 q 5 < < < 5 q y 5 < < < 5 5 5 5 5 5 a i 9 . . . . . . . . . . o o ",
"& & & & # # # o o . # & 1 C C g h a i i i i u i h g a h i g h a q y i a h h h g a a g a a g a h i C g i # # # & # # # & # & & # ",
"& # & # & # & & # o o 1 & i a C h h g h g g g g g g g h g g g i i a D C h h h h h C h g h g g h a g g p # o # & # # # # & # # # ",
"# o # # # # # o   . # 1 X 2 y a u i u i u y u u a w u u u u u < q i A g w u i i q i i y i u u i u u y <   o # # o o . o o o # o ",
"o o # o # o # o   . o 1 X 2 u i i i u i u u u q u i i q i i i 5 y h D f u i i u a i a y i y u i u u p %   o # & o . o # o . o o ",
"# o o # # o o .   o # 1 o & u a y q i u y y i q i w u i q i u < q g D i i i i q g u w a u u i a u y u +   o # & o . # o o o . . ",
"o o o o o o # .   o o & . & q i i u u a y i q 5 u u u u u i u 5 q i Z g u i u a u u i u i u u i u i u #   . o # o o o . # . o o ",
"    . . . . .     o o # . o y y q q q w q q 5 5 q q q 5 q q 5 ; q i h i q w y u q u y q u 5 q q q y 5 .   . # # . . . . .   .   ",
"  . . . .     .   . # # .   * < 5 q q y 5 < < : < 5 5 5 5 5 5 r Q u i q 5 q q q u q 5 < < 5 5 5 5 < -     . o o       . . . .   ",
"# # # # # & # # o # # # o # 2 C g g g g g h h g g i i i a g g ..;.U g h i g h h C h a a a g g a h i > + & # # # # # # o # # # # ",
"# # & # # & # # # # # o o o 3 C C Z h C h C C C g g u i S C ! +.1.( B g h a h a g g g g g h g g g a # o & # # & # & # # # # # & ",
"o o o # o o o # # X #   o o 1 p a a a g a a i a u 5 q g C i W %.4...M n U m y u u u u y i u u u y ,   # & o o # . # o o o o # o ",
"o o . o o o . o X o .   . # 1 > a u i u a i i a 5 5 u i ~ i W =.>.] I P E b a q i q u y i u u u y %   + # o o . o . # . # o o . ",
"o . o o o o o # # o .   . o 1 o y i y i u i u i 5 < q i E a W *.1.| ] E [ n q y q i u u u i y a y o   o & o # o . # o o o o o o ",
"o o . o o o . o o . #   . o & o > y i q u w y w 5 < q g | _ T #.3.&.@.} F q y i q u u u i i y i # X   o & o o o o o o o o o o o ",
". . . . . . . . . . .   . o # . . ; < < < < < < < < 5 g { [  .-.6.>.o.( F q q q 5 5 5 5 q q 5 < . .   + o . X . . . o . . . o . ",
"      .         .       o o o . . + 5 < < < 5 < : < q w E [ o.<.7.,. .Y n q q q < < 5 5 ; < < O     . X # . . . . . . . . . . . ",
"& # # & # & # # # & 1 & # # # o # & 2 a a g g g g i g g N { | :.5.$.{ Q g g a i h a g g C a p & # & # # # # # # & # # & # # # # ",
"# & & & # # & # & # # # & # # o & 1 1 a C g h C g g g g g V E  .O.] P g a a y g h g a g g a & # # # & # o o o 1 & # # # # & # & ",
"# o o o o . o o # . o o o o   o # & + # i y 5 i i u i q i i t ^ _ L f y y < u a h u i q y # o # o o o o   . # 1 o o o . o # o o ",
"# . o o o o o o o o o . o .   o # & o . & 5 q i q u u a y s z K G j u q y < y g h y q y & o . o o o . o . . o & o o o # o o o . ",
"o o o . . o o o o . o . o .   o # & X . + & q i u u u w u u k J H 8 6 u 5 < y a C u 5 % o o . o . # o o   . o 1 # o o . o . o o ",
". o o . o o o o o o o o X o   o & # o o # . + q 5 i y 5 u 0 x H v e i q y < q i C 5 # X . # X . o o . o     o & o o o . o o o o ",
". . . .   .   . . . .   .     o # #     . . . . * 9 5 5 5 5 7 l x 6 5 < 5 : q a 2 X . . . . . .   . . .     o & . . . . . . . . ",
". . .   . .   .   . . .   .   o # # . . . .   .   X * 5 5 5 8 l k 6 : < < ; - $ #       .   . . .   .       o # . . .   . . .   ",
"# & & # # # & # # & o o # & # & # & # & & & & & & # & & , , 7 c c g C p 3 & # & # # # # # & # # # # o # # & # # # # # # & o o # ",
"# 1 & 1 1 # 1 & & & # o & 3 & & & & & & & & & 1 & & & & & # 4 v x 1 1 1 1 1 1 & & 1 & & & & & & & # # o 1 1 1 1 & 1 & 1 & # o # ",
"& & # # # # # # # . . o & & # # # o # o # # # o o # # # o . @ k 7 & o o # o o # o # # # # o # o # o . o 1 # # # # # o # o . o # ",
"# & # # o # o o o . . o & & # # # o o o o o o o o # o o . . O 8 0 o o o # o o # o # o o # o o o # . . o 1 o # o o # o #     o # ",
"# & o # o o o o o   . o & & # # o o # o o o o o o o . # .   . $ = o o # o o o o # o # o # o # . # .   o & # o o o # o # .   o # ",
"# & o # . # . o o .   o # & o o o o o o o o o . o o o o . . . o & o . X o . o . . o o . # . o o o . . o & o # . o . o . .   . o ",
"# o . .   .     .     . # o . .   . . .     .         .     . o # . . . .   . . . . .   .   . . .     o o o .         .     . # ",
"o o . . .     .       . # o . . .         . .           .   o # o . . . . . . . . .       . . .   . . o o . . .   . .       . # ",
"& # # o # # # o o o o # o # o # & # # # # # # # o & # # # & & & # o o o & & & # & # & # o # # # # # o o # & # # o o & # # # o & ",
"& & & & # & # # # # # & # o # 3 & & & 1 & & & & & # # # & # & & # o o & 1 & & & & & 1 & & # # & # # & # & & & # o o 1 1 & & & # ",
"# o # o o o o o o o # o   o o 1 o # # # o o o o # o # # o o # # o . o # 1 o # o # # # # # o o o o o o o # # o   . o 1 o o o o o ",
"o # o # . # o o o o # .   . o 1 o # o o o o o o # o o # . o o o .   o # # o # # o o . # # o . # o o # . # o .   . o 1 . o o # o ",
"# o # o o o o # o o o .   . o 1 o # o o . o o . o o # o o o o #     . # & o # o # o o o o # . o o o # . # # o   . o & o o . o o ",
". # o . . o . # . o # .   . # & # o o o o o . o . o o . o o o o .   o # # # o . o o . # o . o o o o o o o # .   . o # o . o . o ",
". .     . . . . . .       o # & o . . . o . . . . . . . . . . .     o # # . .   . . . .     . . . . .   . .     . o & . . . o . ",
"      . .         .     . . o # . . . . . . . . o       .     .   . o # o   .   .   . .               .       . o o # . . . .   "
};
