/* XPM */
static char *torch04w801743666765[] = {
/* columns rows colors chars-per-pixel */
"64 64 118 2 ",
"   c #0D0D0D",
".  c #13110F",
"X  c #131313",
"o  c #181614",
"O  c #1F1C17",
"+  c #1C1C1C",
"@  c #221E16",
"#  c #211E1A",
"$  c #24211C",
"%  c #2C261B",
"&  c #2E281C",
"*  c #33261E",
"=  c #302A1E",
"-  c #3C2D1E",
";  c #232323",
":  c #292622",
">  c #2C2925",
",  c #2B2B2B",
"<  c #342D22",
"1  c #312D2A",
"2  c #373125",
"3  c #393226",
"4  c #36322A",
"5  c #3C3529",
"6  c #3E382D",
"7  c #323232",
"8  c #3A3730",
"9  c #3E3932",
"0  c #393939",
"q  c #472F23",
"w  c #423526",
"e  c #4C3425",
"r  c #453F21",
"t  c #443629",
"y  c #413A2E",
"u  c #503724",
"i  c #5B3E26",
"p  c #543B29",
"a  c #5D3B29",
"s  c #443D32",
"d  c #4F3A30",
"f  c #5D511F",
"g  c #4A4127",
"h  c #524B21",
"j  c #554F2C",
"k  c #595120",
"l  c #58502F",
"z  c #474135",
"x  c #494236",
"c  c #4B4539",
"v  c #4F493D",
"b  c #5E4231",
"n  c #514B3F",
"m  c #5E5733",
"M  c #66422C",
"N  c #6B432D",
"B  c #764B2C",
"V  c #665E29",
"C  c #6A4531",
"Z  c #774931",
"A  c #7C4C32",
"S  c #6A6223",
"D  c #67602B",
"F  c #736B20",
"G  c #6B663B",
"H  c #847B15",
"J  c #80771B",
"K  c #865D2C",
"L  c #825035",
"P  c #895438",
"I  c #95672E",
"U  c #978D12",
"Y  c #978E1D",
"T  c #9D9414",
"R  c #A49211",
"E  c #ABA20E",
"W  c #B2AA07",
"Q  c #B4AB09",
"!  c #BCAD0D",
"~  c #AFA612",
"^  c #C1AD0E",
"/  c #C0B705",
"(  c #C7BC04",
")  c #C8BD04",
"_  c #CDC205",
"`  c #D3C902",
"'  c #D8CD00",
"]  c #DBD104",
"[  c #E0D501",
"{  c #E5DA04",
"}  c #E1D60B",
"|  c #E8DD09",
" . c #E5DB13",
".. c #E8DE1B",
"X. c #EBE006",
"o. c #F0E60C",
"O. c #EDE316",
"+. c #EEE51E",
"@. c #CBC52D",
"#. c #F5EC25",
"$. c #F3EA2F",
"%. c #F9F026",
"&. c #FAF029",
"*. c #FEF63A",
"=. c #EEE74D",
"-. c #FCF445",
";. c #FEF748",
":. c #F4EF52",
">. c #FEF851",
",. c #F4F05E",
"<. c #F6F162",
"1. c #F7F36C",
"2. c #FBF76C",
"3. c #F4F072",
"4. c #FDF974",
"5. c #FDFC8F",
"6. c #FDFB9B",
"7. c #FBFEB7",
/* pixels */
"> , , , ; , , , , ; + + ; , , ; , ; , ; , , , , , , , z y 6 5 5 x x x z z z z z s ; ; ; ; , ; ; ; , , ; , , ; ; + ; ; , , ; , ; ",
", , , , , , , , , , ; + 7 7 7 , , , , , 7 , , , , , z x z y 2 5 v c c c c c z z z s 7 , , , , , , , , 7 7 , , ; + + 0 7 , 7 , , ",
"; ; ; ; ; ; ; ; ; + X + , 7 ; + ; + ; ; + ; ; ; + > 5 9 3 < 2 y c y 6 5 6 6 5 6 3 6 > + ; + ; + , + ; ; ; ; + X X + 0 , + , ; ; ",
"; + ; ; + + ; + +     + , , ; ; ; + + + + + + + + 2 5 3 < = 2 5 z 5 3 3 6 2 5 6 2 6 4 + ; + + + + + + + + + +   X + 7 ; ; + + ; ",
"+ ; + + + ; + + + X   + , , + ; + + ; X + + ; X ; 5 2 5 2 & < 5 z 3 3 6 5 2 5 2 6 5 6 # ; + ; X ; + + + + + +   X + 7 ; + + + ; ",
"+ + + ; o + X + o X   + ; , ; + + + + + + X + + > 3 5 2 2 & < 5 z 3 2 2 5 < < 2 2 5 3 # ; X + + + X + + X + X     + 7 + + + + + ",
"  X o X   X   X X   X X ; + X X X X   X X   X   & % & & & & < 5 6 = < < < = < < < = & $ X     +   X         X   X + , + X X   X ",
"X X X X X             X + + X X     X X       . % % & & & & 2 6 3 = = < = < = & & % & 2 X   X       X       X + +   X X X X +   ",
", ; ; + ; ; ; ; + + + ; + ; + , , , + + ; , ; 4 5 5 9 6 6 6 z 6 g z z 6 z z z 6 2 2 z 6 7 ; > ; ; ; ; ; + + ; ; + + + ; ; + + + ",
"7 , , , , ; ; ; , ; , , + + + 0 , 7 , 7 , , , 9 x z z g z z 6 y 9 z 6 z 6 z z 3 5 2 n c 8 , , , , , , , , , ; ; , , , , ; ; ; ; ",
"7 + ; + + + + + + + ; +   X + 0 ; + + ; + ; + 4 5 3 5 3 5 5 5 5 6 3 5 6 5 5 6 & 2 5 v z 2 ; + ; ; + + ; + + + + + + + ; +   + + ",
", ; + + + + + + + + + o   X + 7 + ; + + + X ; 2 5 2 5 5 2 < 5 5 6 2 5 6 2 5 2 % & 3 c 5 5 ; + ; + + ; + + + + + + + + + X   X + ",
", + ; + X + + ; + + + X   X + 7 + ; + ; o + $ 2 5 2 5 3 2 5 2 5 3 3 3 5 3 3 5 % & 2 x y 5 $ + + + + + ; + + + + ; + + + X   + + ",
"7 + + X + + + + X + ; o   X ; 7 ; o + + + o $ 2 3 2 5 3 2 2 2 5 2 3 3 3 5 3 3 % % 5 z 5 6 $ + + + + + + X + + X + + + + X   + ; ",
"; X X   X X X X X X       X ; , + X X X o X $ 2 2 & 2 & 2 < < 2 2 = 2 = 2 2 & % & 5 z 3 & #   +   X X     X X X X   X       + + ",
"+ X       X       X     X + + + + X X X X X % < 2 2 2 & & % % % % & & & % & & < 2 5 6 < & $   X     X X       X       + + + + + ",
"; , ; ; , ; , ; ; ; + + ; ; ; ; ; ; ; + ; ; , 8 5 x y z 6 6 6 5 6 6 6 z 6 6 6 z 6 z z 6 5 4 ; , + + , , + , ; ; + + + ; , ; + + ",
", 7 , , , , , , , ; ; , , ; , , , , ; , , + 5 6 x v x c x x z x z z z 6 y s 6 g z y 6 z z 9 ; + + 0 , , , , , , , , ; , , , + ; ",
", 7 ; ; + ; + + ; ; ; + ; + + + ; + + ; ; + : 5 x c 5 z 4 5 5 5 5 5 6 3 3 5 3 3 5 3 5 6 2 2 +     7 , + , + + + + , + ; + , + , ",
"; , + ; + + + X ; + + + ; + ; X + + X + + X & 6 c x 6 6 3 5 5 2 6 5 5 3 6 3 5 2 3 6 4 5 3 4     X , ; ; + + + + X + + + + ; + , ",
"; , + ; X + X + ; + + ; + + + ; X ; o + o X % 5 x z 5 3 5 3 3 5 3 5 3 < 3 5 3 < 3 3 5 6 3 3 o   X , , + + + + X + + + + ; + + , ",
", ; + + X X + X + + X ; X X + X o + + + + + % 3 z x 5 6 2 5 3 3 2 3 5 < 2 < 5 < 6 2 2 5 6 3 +   X , ; X + X + + X + + X ; + + ; ",
"; ; + X X X X X X X X X X X X X X X X X     & 2 z 6 < 2 2 < < < < < < < < = < & 2 = < & 3 2 X   X , , X X X X X X X X X + X + + ",
"+ ; X X X X X X X X X X X X   X X X X   X X & 3 5 5 & < < & = < & & & & < 2 < < & & & & < > X   X + + X X X X X X X X X X X + + ",
", , , , ; ; ; ; + + ; , 7 , , , , ; ; + + ; 4 6 z y y z 5 z z 6 3 2 5 y z z s s 6 6 z 6 y 6 ; , + , , ; , + ; , ; ; ; , ; , , ; ",
", ; , ; , ; , ; ; X + 7 , , , , , , ; , > ; 6 y s y y y 6 z y 5 5 5 c x z s z z z x z 6 z 6 ; , ; ; , ; + + ; , ; ; ; ; , ; , ; ",
"; + ; ; ; ; ; +   + + 7 + + + ; + + + ; + + 2 3 6 3 5 5 3 5 5 = 3 6 v 6 2 5 5 5 2 5 5 3 5 2 + + + + + +   + ; ; + + X + + + + + ",
"+ + + + ; + ; +   X + 7 X ; + + ; + + + + + 1 < 3 5 5 2 5 5 5 = 3 y v s 3 5 5 3 6 5 6 3 5 < + ; + + + X   + ; , X + + ; X X + + ",
"; + + ; ; + + X   + ; 7 + + + ; + X + + + o 4 2 5 3 3 5 2 5 5 = 3 s n 5 6 5 5 3 6 5 3 6 4 4 + ; + + + X   + ; , + X + + + X + X ",
"+ + + + + + ; X   X + , X ; X + + + + ; + + % = 5 3 5 5 5 5 3 & < 5 c y 3 6 5 6 3 5 6 3 6 ; + + + ; + +   X + ; + + + X ; + + + ",
"    X X X X X     X ; ; X + X + X + X + X X + > 3 < 2 = 2 2 & % = 5 z 5 < 2 2 3 2 2 3 2 3 # X + X +   X   X ; ; X X X X X   X   ",
"X X X X X     X X X ; ; X   X   X X + X X   o % & = & = = = y G k 5 6 < = = < 2 3 2 = & % o X X   X       X + ;       X X X X   ",
"; ; ; ; ; , ; ; + + ; ; + ; , , ; , > ; ; > , y s 5 5 y y j @.=.Y x z y 5 y z z x z 6 y 6 : ; ; , ; + ; , ; ; ; ; ; ; + ; ; ; ; ",
"; ; , , ; , ; ; , ; , + ; + 7 7 , , , 7 , 7 , z x y 3 5 m ~ $.,.} l z z z y y 6 z y y y 6 , , > ; ; ; + , ; ; , ; , ; ; , ; , ; ",
"+ + + + o ; + ; + + ;   + + 7 ; ; ; + ; ; ; ; 4 2 < 2 y D _ -.4. .g 2 < 5 3 3 5 3 3 3 3 1 + + + o o   + ; + + + X ; + + + X + + ",
"+ + X + + + X + + + X   X + , + ; + ; + + ; + > = = 2 5 V _ 2.:.` H < 5 3 < y < 3 2 5 3 > + + + + + X + , + + + + X ; X ; + ; X ",
"+ X + + + + + ; + X +   X + , ; + + + ; + ; + ; < & 2 5 V / 3.1.{ _ ! 2 5 3 < 3 < 5 3 3 ; + X ; + +   + , + ; + X ; + + + + + + ",
"+ X + + + + X + + + +   X + , + ; X + X + + o + & & 2 F T ) %.>.;.O.U 3 5 < 3 5 2 3 5 < + + + ; X X   ; , + + + + + + + + + + + ",
"X X   X   + X X X X X   + + + + X   X         X @ & = S ` [ +.<.6.#.[ 3 < < < < = 2 2 + X X X X X X   + + + X X X X + X + X + X ",
"    X           X       + + +   X X   X   X     . & < h / | *.5.7.+.W & = < < = & > & X       X   X   + + X X X X X X X   X X X ",
", ; , , ; , ; ; ; , 7 , ; ; ; + ; , ; ; ; ; , ; > 4 9 s E ' &.4.2.{ F z y s 6 5 z y 5 > , ; ; ; ; , ; , ; ; ; ; , + ; , + , ; ; ",
", , , , ; ; ; ; , ; ; , ; ; + ; ; 7 7 , , , , , , 1 s y j T ] o.X.Q S g y 5 3 y z y , ; , , , , ; ; ; ; + + + 7 , , , ; , ; ; ; ",
"+ + + + + + + + ; X + + + +   + , , ; + ; X X + + + 4 < 5 g R ^ ^ f 5 2 3 & 3 y z > + X + + + + + + + +   + + 7 + + + X + ; + + ",
"; X + + X + + + + + + X + X   + ; , o X ; X + + o + : 6 < t B I K h 5 < 2 & 3 y z + X + ; + X + + + X +   X + 7 + + + ; + + + X ",
"+ + + X + + + + + X + X + X   + ; , + X + + + + + + + > 5 w N P L a 3 3 < * 3 y 9 + X ; o + X + X ; + +   X + 7 ; + + + + X + + ",
"+ + + X + + + X + + + + + +   + , , + + ; X + + X + + o 4 q M L Z p 5 < 2 & < 4 : + + o X ; + X + + X +     + , + + + X + + + + ",
"  X X X   X   X X X X   X     + ; ;     X X   X   X X X o < p Z M q & = = % = : ; X X X X X X X   X   X     + ,   X X X X X X X ",
"  X X   X X   X X X   X X     + ; + X X X   X   X   X . . o e Z N - % & % @ o + ;     X X   X X X   X       + ; X X X   X   X   ",
"; , , ; ; , , , ; ; + + ; , ; , , , ; , , , , , , ; ; , ; ; q Z C x z 0 7 ; ; , ; ; ; ; ; , ; ; ; ; + ; ; , , ; ; , , ; , + + ; ",
", 7 7 , , , , , , , ; + , 0 , , , , , , , , , 7 , , , 7 , ; q Z C 5 7 7 7 7 7 7 , 7 , , , , , , , , ; + 7 7 , 7 , , , , , ; + ; ",
"; 7 ; ; ; ; ; + ; + X + , , ; ; ; + ; ; ; ; ; + + ; ; ; + . < C b : ; + ; ; + ; + ; ; ; ; + ; + ; + X + 7 ; ; ; ; ; + ; + X + ; ",
", , + ; X ; ; + ;     + , , ; ; + + + + + + + + + + + + o . # d d + + + + + + + + ; + + ; + + + ; X X + , + ; + ; ; + ;     + ; ",
"; , + + + ; + + + X   + , , ; ; + ; ; + + + ; X + + X ; X   X ; 1 + + ; + + + + ; + ; + ; + ; X ; X   + , ; + + + ; + ; X   + ; ",
"; ; + ; X + + + +   X + ; , ; + X + + X + X + X + + + + X X X ; , + o o + X X + X + + X ; X + + + X   ; , + ; + + X + +     X ; ",
"; + X X   X     X     X + + X X   X X X X X X X X       X   X + ; X X X X X X X X X X   X X X X       + ; + X         X     X ; ",
"; + X X X     X       X ; + X X X X                       X X ; + X X X X X X X X           X X   X X + +   X   X             ; ",
", ; ; + ; ; ; ; + + + ; + ; + ; , ; ; ; ; , ; ; + ; + ; , , , , ; + X + , , ; ; , ; , ; ; + ; ; ; ; + + ; , ; + + + , , ; ; ; ; ",
"7 , , , ; , ; ; ; ; ; , ; + ; 0 , , , , , , , , , , , , ; ; , , ; + + , 7 7 , , , , 7 , , , ; , ; ; , ; , , , ; + + 7 , , ; , , ",
"+ + ; + + + + + + + ; +   + + 7 ; ; + ; + ; + + + + + ; + + ; , o X + , , ; ; + + ; ; + + + + + + + + + ; ; +   X + 7 + + + + + ",
"+ ; + + + + + + + + ; X   X + 7 + ; + + + X + + ; + + ; X + + + X X + ; , + ; ; + + + ; ; + + + + + + + ; + X   X + , + + + ; + ",
"; + ; + + + X ; + + + X   X + 7 + ; + ; X ; + + + + + + + o + ; X   X ; , + ; + ; + ; + + + X + + ; + + ; ; X     + , + + X + + ",
"+ + + X + + + + X + ; X   X ; 7 ; + + + + X X + + + + X + + + + X   X ; ; + + X + + X ; X + + + + + X + ; + +   X + , X X + X + ",
"X X     X X X X X X       + + , + X X X + X X X o X X X X X X X     + ; ; X X   X X   + X   X X X X     + X     X + ; + X X X X ",
"X     X           X     X X + ; X X X   X X X X o       X     X   X + ; +   X X   X   X     X         X       X X ; ; X X X +   "
};
