/* XPM */
static char *torch08w401743666765[] = {
/* columns rows colors chars-per-pixel */
"64 64 209 2 ",
"   c gray27",
".  c #5D5D5D",
"X  c #656565",
"o  c gray38",
"O  c #646464",
"+  c #626262",
"@  c #5F5F5F",
"#  c #585858",
"$  c #565656",
"%  c gray39",
"&  c #686868",
"*  c gray40",
"=  c #606060",
"-  c gray35",
";  c #555555",
":  c gray34",
">  c DimGray",
",  c #6A6A6A",
"<  c #676767",
"1  c gray36",
"2  c gray37",
"3  c #4B4B4B",
"4  c #6D6D6D",
"5  c #6C6C6C",
"6  c gray42",
"7  c #747474",
"8  c #4E4E4E",
"9  c #727272",
"0  c #6F6F6F",
"q  c gray44",
"w  c gray43",
"e  c #515151",
"r  c #797979",
"t  c gray30",
"y  c #3C3C3C",
"u  c #5B5B5B",
"i  c #5A5A5A",
"p  c gray28",
"a  c #535353",
"s  c gray31",
"d  c gray32",
"f  c #494949",
"g  c #464646",
"h  c gray46",
"j  c gray25",
"k  c gray26",
"l  c gray33",
"z  c gray29",
"x  c #505050",
"c  c #3F3F3F",
"v  c gray45",
"b  c #353535",
"n  c #444444",
"m  c #4C4C4C",
"M  c #3E3E3E",
"N  c gray24",
"B  c #393939",
"V  c #434343",
"C  c #484848",
"Z  c gray22",
"A  c #202020",
"S  c #414141",
"D  c gray23",
"F  c #222222",
"G  c #777777",
"H  c #717171",
"J  c gray21",
"K  c gray18",
"L  c #2F2F2F",
"P  c #313131",
"I  c gray19",
"U  c #2A2A2A",
"Y  c #3A3A3A",
"T  c gray17",
"R  c #282828",
"E  c gray20",
"W  c #343434",
"Q  c #373737",
"!  c #323232",
"~  c #2D2D2D",
"^  c #232323",
"/  c gray14",
"(  c #272727",
")  c #252525",
"_  c gray16",
"`  c #858240",
"'  c #898543",
"]  c #9A953C",
"[  c #EBE551",
"{  c #E7DC03",
"}  c #948F44",
"|  c #2C2C2C",
" . c #747361",
".. c #969133",
"X. c #EAE127",
"o. c #FCFB8D",
"O. c #E2D705",
"+. c #53534B",
"@. c #87844A",
"#. c #D3CA0B",
"$. c #F6F378",
"%. c #F0E930",
"&. c #D2C800",
"*. c #949034",
"=. c #8A864A",
"-. c #CDC308",
";. c #EFEC6F",
":. c #F4EF5D",
">. c #E5D900",
",. c #C6BD0B",
"<. c #BEB61C",
"1. c #9C972C",
"2. c #BBB421",
"3. c #9E982F",
"4. c #C9BF07",
"5. c #F5EB12",
"6. c #FDF864",
"7. c #FEF746",
"8. c #F4E912",
"9. c #DBD112",
"0. c #716F40",
"q. c gray15",
"w. c #1E1E1E",
"e. c #7B794A",
"r. c #D2C807",
"t. c #E3D801",
"y. c #F6ED17",
"u. c #FDF980",
"i. c #FDFB9B",
"p. c #F9EE15",
"a. c #DFD404",
"s. c #A7A121",
"d. c gray11",
"f. c #1B1B1B",
"g. c #1D1D1D",
"h. c #D0C609",
"j. c #E5D906",
"k. c #FCF118",
"l. c #FBFDB8",
"z. c #FBFEB6",
"x. c #F3E606",
"c. c #D4CA02",
"v. c #77742C",
"b. c #C9BF0E",
"n. c #D4CA00",
"m. c #F7EC12",
"M. c #FDFB97",
"N. c #FDF965",
"B. c #E1D500",
"V. c #CAC20F",
"C. c #787653",
"Z. c #ACA529",
"A. c #D3CA06",
"S. c #F6EC11",
"D. c #E8DD05",
"F. c #B3AC1D",
"G. c #767451",
"H. c #5D5B4F",
"J. c #9E901B",
"K. c #C4AF0F",
"L. c #BEAB0D",
"P. c #605B45",
"I. c gray12",
"U. c #59514D",
"Y. c #76512C",
"T. c #95672E",
"R. c #875E2E",
"E. c #624833",
"W. c #56514F",
"Q. c #534943",
"!. c #6F432D",
"~. c #895438",
"^. c #7F4E34",
"/. c #624231",
"(. c #4E4946",
"). c #544E4A",
"_. c #684432",
"`. c #825035",
"'. c #784C35",
"]. c #5F483B",
"[. c #555250",
"{. c gray13",
"}. c #584134",
"|. c #77482F",
" X c #6B4834",
".X c #4E453F",
"XX c gray10",
"oX c #594235",
"OX c #774830",
"+X c #6C4734",
"@X c #483E38",
"#X c #60493C",
"$X c #744F3C",
"%X c #685E58",
"&X c #5B4337",
"*X c #784930",
"=X c #74503C",
"-X c #6A605A",
";X c #42362D",
":X c #6D4630",
">X c #6D5140",
",X c #45413F",
"<X c #383330",
"1X c #61402E",
"2X c #634E44",
"3X c #282727",
"4X c #403936",
"5X c #4D4745",
"6X c #191919",
/* pixels */
"  . X o o o O + o @ # $ @ % + o o o o o & & & & * o o o = - ; : > , , & & < + + = 1 1 = = * + 2 2 + % o * o o 1 $ - = & o o #   ",
"3 < 4 > 5 * 5 < 6 + # ; , 7 > > < & & X , & & , X & & 5 * 1 8 - 9 0 q w 5 4 , 4 * 6 6 < * % < + * & & 6 4 & , - e : r 9 > 6 % t ",
"y # u 1 . - i - u 8 p a & 4 - - - $ - - $ u 1 : : - - @ e p s i 5 . u : 1 # d 2 e 1 = $ 1 e 1 e @ $ - 1 i i $ f g : h % : 2 $ y ",
"y $ : 1 s i u e : j k a < * . 1 $ $ : $ : l ; e d $ l e z   s - , l e e - x e - e - - 8 u l # e - e a - # l s c g : v : i : e c ",
"b i $ ; $ $ d d : n j a % * u u d $ i 8 a e : m $ e s # z j p $ % a l - a e e t i : : a 1 $ # 3 i 8 e - t : e M g : w 1 d $ e N ",
"B l $ - 3 : t e t k j x @ + # $ 3 ; d x ; 3 a m e e e 8 z V p $ % ; m 8 ; t 3 8 t $ a C : 3 a e $ 3 x 8 3 e f N   a 6 # : a e Z ",
"A z 3 3 c k j j   j S z u e 3   V C   f   V g V   c V k j j p ; - p g p p p p p   g V k C V V f k V j   c V V D V x o e f p j F ",
"F V     V V V k y y j 3 u e g     V c c c k n M y y j V V V 8 u s g p p p p p S j c j V         S c V N y c p : e   p g g m z F ",
"C . - : . . . : $ $ $ 1 ; $ $ + % = 1 - 1 % @ @ : i @ . . . + - @ % % % & % = u x t + = X = = = i 2 1 - $ $ 1 # : $ $ 1 1 - a Z ",
"u + & + @ + = = + @ o + - $ # r , 6 & > % < O + & O % @ = o o = + + = X = % O : d e G 9 * & & * , 6 X & o = = = = o o = = - l y ",
"a d i l d a ; l e ; u d c m $ 7 - - $ 1 ; # l : : e # e # $ a : u a $ u : : - j m ; H X e i l # u # ; 1 d l s # d e - - s j m D ",
"e ; : $ t $ e a l e # 3 c g e q d # $ $ d 8 d s # 8 $ l x 3 e ; - 3 e - e $ 3 c g e 4 : i 1 a i x a 1 $ ; e a a l e $ $ f j k J ",
"x f - a s e x i l e a 3 c g e H e u ; - 3 $ x 3 : 3 - e x ; e # x x e # 8 d d M V 8 6 @ l : : : e # d i e s e s u e $ s C j c Z ",
"x z e 3 e e s # z a - m c 3 i w 1 8 e ; a m 3 8 m m $ 8 m e x e 3 l e s : e e M M e & : # x x a s a e l f x ; m # z : : f c S j ",
"V B k j   g p z V n   S j t u X x z p p t z f p 3   3 p 3 g p f f g f   f p   D j d % a   n j m k p p V j   C   z k p V j k c j ",
"K K j V n k M N V V c y V s e - m f   g   g C 3 m 3 p   n c c c j     j j   V V 3 # 1 3 V   V g k c V n M M S V k N S f e t S Z ",
"n e 1 - + + + 1 . u $ $ : 2 + @ . 1 : - : : e $ - < = O = 1 - - 1 2 @ + u . . + @ = = 1 : . + o ; ; + * 1 + . = - $ $ 1 @ 2 D b ",
"x - > , X & & X % o o % * o o % = X @ + X - # - , 7 & 5 & & & > * & X @ 1 o . @ + 2 o o = = = $ d 7 6 O O + + O = + + = O < Z S ",
"p l a 2 : i d e 1 - : # @ e : $ - : s 1 - e S a , 4 i = a : e ; $ l - 8 e : e x i e : - s : s j   w % - . - $ ; a 1 - : i 1 J j ",
"k n z 1 s s a t i a : : - 3 - 8 $ : 3 e : C j - w 6 - i e $ l 8 # $ : e - x $ 8 e i e : a $ C c   < - - i x 3 $ 8 : $ ; # e B 3 ",
"V p V i g l 3 e i x 8 i e 8 8 - m - 3 : m   j - 6 X : e $ e e : s $ x z a $ e 3 d l $ i s : m c g * = l - m s t d - s 8 i c Z z ",
"p n L l p 8 a C l 8 8 : s m $ e 3 l s e x e j x * , $ - 8 $ a e t e a 3 m C d C - 3 8 d 1 e t c p , 1 f l C m ; C e a 3 : J P j ",
"j n I S C p p   p z C 3 C C   V k g g z V c S z % 1 3 t f f g C C p z f 3 p p   m k C V 8 8 f y   % 2 3 p C g p   C 3 p   U I D ",
"Y y T B g g g g   g p p p   n n 3 3 g V V V k e # ;   g g p p g j j j j p 3 3 g c c V     g p V g - $ f p g g g     g p B R E Z ",
"f C C 8 2 u u : d s - 4 4 < < + = 2 - : : # $ i % . . + - + + 1 e s $ @ + & % = 1 i = 2 . . . + - O % = = u - % . = = X g p p n ",
"p C C g + % * % - e d H & O X & & + = + + @ = 1 + = = + 2 = o : ; u H & X * * & % < O = o @ = + @ = = u - s @ & 1 i u u p n C N ",
"c Z c y a - 1 a c m $ H e ; e i l : d i $ x d s u e $ l e $ $ V t i v @ 3 $ $ : 3 # $ e $ l d : e $ e e S e @ o d $ 3 g W E Y Q ",
"J b N W S d i t c 3 x w t 1 l : # l e - ; a l f l $ : t : : : n 8 o G @ e : : ; - : 1 e # e l i $ ; e 3 j x @ o 3 3 8 S L U Y L ",
"M E D D c m a 3 j s # 9 $ e d - e m ; ; e s # 3 # s x : t : $ j 8 = G : i : $ 8 u : e - a : $ - e s x p j 8 . + $ f t ! Z ~ L T ",
"Z P Y P Z N $ m j s ; , m u z : $ x d u e $ s   e e ; $ a : l V 3 : 0 @ 8 u l u l ; - e i x a - e - d x j p : @ t e Y U y L ~ E ",
"A ^ U / / R y S c m $ = f e z 8 z 3 3 t g 3 p   8 p z p t 3 V y g $ & a p 8 8 e m s s 3 s 3 3 3 f s p n y 3 1 i 3 j ( ) _ ) ( A ",
"F F F F F F ~ V V 3 i u   j j j g C m 3 n c c c j           V V 3 $ - 3 g g 3 t ; 3 g S j V p       V N y p $ # N _ F ^ F ^ F ^ ",
"M S S S g C k ; $ $ + # $ - + < = = = = = % % = = - $ i 2 = 2 ` ' % % X - + + & 6 + 2 . - + + @ + u $ - O + 2 i ;   N Z Z y n j ",
"n V g n k   S x = . = $ $ : h w > 4 * 4 * 6 & 6 * i d # w < ] [ { } * O o . = 1 = 2 = = @ o = . = . : $ + . 1 + m C S j g n g n ",
"Z | Z B ~ y I y s t $ j e $ 0 1 u 2 - 2 - i - 1 e C s 1  ...X.o.O.+.x f : e e d x l e s : a ; $ 8 8 c - + $ l s T N Z b Z L Z b ",
"Z ! R Z ~ Z _ ! J x 3 j f $ 6 ; 1 x - x - u d - n S s : @.#.$.%.&.*.C $ s 8 - m : m $ 8 i l d a 3 d j $ o s l ! ! ~ Z K Y ! Z K ",
"Z _ b Q E y ! M N N 8 c p $ & : a $ a $ a : e - p j s # =.-.;.:.>.,.<.1.: 8 f e 3 : e $ l $ 8 - d e j e o : p Z | D E Z J J E Z ",
"b | K b E Q | b W L e Y   $ O $ - 3 $ 3 $ e x 8   j m 2.3.4.5.6.7.8.9.0.; m 8 $ 3 d : 8 $ $ a $ f 3 j : o t E Z L W Z L Z E Z L ",
") q.w.( / T ) _ T ) ~ B 3 l # 8 3 j S j S S j   j j p e.r.t.y.u.i.p.a.s.p p f f n z z   3 p g 3 n p j : a L K R T U L T ~ ( L T ",
"d.d.^ F w.f.f.w.^ g.g.R 8 a ;   g V k V k V V M y c p e h.j.k.l.z.x.c.v.  3 3   j V V V y y j V V V V t c ) q.q.( q.q.q.) T q.q.",
"z V V f V g S S k t a z 3 1 - : . + 1 - i 2 O + @ - 2 + b.n.m.M.N.B.V.. = = u - % . = = X 1 + + = + 1 3   j y n   y k p y g S S ",
"f 3 3 t j V n V z n k   V f $ - % 9 , & & O % < % = = . C.Z.A.S.D.F.G.2 u - s @ & 1 2 @ % & % % 2 @ z V Q E W - z n n S g g k   ",
"B P Z Z J I J | S ~ | J | L R d o X - l - 3 g e ; ; $ f : H.J.K.L.P.; m e S e @ * d $ 3 ; d e : ; B b Z A T Y l Z Q Z _ B Z ~ Q ",
"N T K D L E K Y P K Z T Q _ I.D . O x m - f t # 3 l l - t U.Y.T.R.E.W.z 3 j x @ * 3 3 8 i 8 z $ Q J | L w.( Y l ! J J y K Q J ~ ",
"P W ! T L Q Q E B _ L | B / I.W p X 8 3 - s t : s d ; 3 a Q.!.~.^./.(.l p j 8 . & $ f $ e $ C W T D P E d.) Z a j W Q T b | Z K ",
"K Z E U b E P ~ E I ! Q L L w.b C f   t - m 8 e p l e C $ )._.`.'.].[.f x j p : % t e x f m I ~ E J ~ Q I.F ~ s I J E R Z P E B ",
"( ( _ ^ {.) ^ q.T ) ( F ( I.I.b n c {.( n     g n z z   V z }.|. X.Xg V n y 3 1 i 3 g S | _ ) ( A q.F q.XX{.Q C R U U ) F U F | ",
"^ F ^ F ^ F ^ F F F F ^ ^ F F b j Z ( ( F ~ c n n V V V V V oXOX+X@XM V N y p $ # Q R F ^ F ^ F ^ F ^ w.XXg.E N R F F F F F ^ g.",
"j f f n n n f g n V Y Z k C         n   m m m d i . = = = - #XOX$X%X> & & * = : 3 M M n n z   S S j W y p m n n n C C n n y Z c ",
"C . a s d 3 d m e p D Q x 1 s s m 8 8 z x t t x z 8 d . . $ &X*X=X-X6 * . - x l 3 e e m 3 C m p 3 V y Y $ ; s a 3 e 8 e 3 N W j ",
"p d N j S y N y M L ( b t a y y y Z y y Z M j B B y y V ! ( ;X:X>X,XM B j D W k E j n Z j E j E V I _ Z $ j M k y N y c ! R I j ",
"  f B c I N M ! Y I.{.b m 3 S j Z Z B Z Y J Q ! W Z J E U / <X1X2XJ E ! y P E y E y y L M J D ! y ( F Z e Q c P y M W y ^ A I j ",
"n C Q Q Z Z W W Y ^ I.b C 3 M M W Z N L b E B ~ Z E I D U I.3X4X5Xb J y b ! E K N B B b c Z D T N T {.Z t B b Z b B ! y ( w.I c ",
"k n Z y T B K E K {.I.P V p D Z T Q W P Q | b ~ E E E L U F ( Z C Q ~ L Q K | L K Z b R B | b E Z R I.Z f Z y | Z ! P L / w.~ Y ",
"N Z T T g.{.w.I.) w.A U M E T ) F R ) _ / F q.F ) g.F {.I.w.( Q y ( q.( ( ( ( ( ) q.F {.R F F _ {.F I.J D L T w.A A w.) I.w.( B ",
"Z E ) ) F F F {.XXXXw.T M E q./ / F g.g.g.{.^ d.XXXXI.F F F L M I q.( ( ( q.q.) q.F w.w.g.{./ ) {.{.{.b Q ) q.F {.F F d.XXg.( N ",
"t y y B S S S Y Z Z Z j Q Z Z g C n j y c C V V Y g y V C C C p j Z ~ Y z C g n C k m N y B j k S y Z Z c C k y L I t C V V Y g ",
"l z t p V g n n p V   g y Z D + x e t s C m f p 8   n g g n z 3 S D W z . s t 3 t t ; z t f V p V n C S z t p y E b l m f p C   ",
"D Z N J W b Q J E Q M W g.~ Z 1 y y Z j Q D J B B b Y M b Z c n T ) J p e B M b B N y Y B Y E Z ! Z E E S n Q w.I Z d D J B B b ",
"P j B Z K Z E b J E D | g.q.! : W D Z Z W L W I D E Q y T E y L ) {.I n g B j y Q Z L c y Z ~ D P J Z K j J T g._ b t L W I D E ",
"y b y b I E P N J E b T g.q.E # E M Q y T Z P | Y ! D P P ! D y / w.U V f Z N ! M E D Q Z Z P P E Y B K j c L d./ ! m Z P | Y ! ",
"L Y E T ! E I D U b y ~ g.T N ; j L E Q b ~ T L ~ P E T J ! I B ) 6XT V j B B ( Z E ~ M K L P P b Z | P Y Z K XX{.J g ~ T L ~ P ",
"^ T {.w./ q.( U F ^ ) A w.K M z P U ( ( K U _ ( T ( _ _ q._ ) R w.6X! y N _ ( g.( ( {.K {.w.^ / R R / {._ R F 6Xq.W k U _ ( T ( ",
"{.F g.{.F I.XXXXF F d.6XF I E y ~ R ) ) ) ) R T | d.d.g.^ ^ w.F {.q.J c J F / {.F F {.F I.I.F {.XXXX{.F I.{.F F L y c ) R T | d."
};
