/* XPM */
static char *torch06w101743666765[] = {
/* columns rows colors chars-per-pixel */
"64 64 129 2 ",
"   c gray12",
".  c #252525",
"X  c #2C2C2C",
"o  c #32322A",
"O  c #3B3B2E",
"+  c #333333",
"@  c #3A3A34",
"#  c #3C3C3C",
"$  c #4A3E35",
"%  c #423D3A",
"&  c #553D30",
"*  c #454535",
"=  c #4D4331",
"-  c #484837",
";  c #43433D",
":  c #4C4C3C",
">  c #5C4531",
",  c #544B38",
"<  c #594F3E",
"1  c #54523C",
"2  c #64442F",
"3  c #6F432D",
"4  c #77482F",
"5  c #77522B",
"6  c #644331",
"7  c #6C4731",
"8  c #644A31",
"9  c #6D4932",
"0  c #634C39",
"q  c #774830",
"w  c #7B4C33",
"e  c #734F3B",
"r  c #76523C",
"t  c #7F752D",
"y  c #686638",
"u  c #444444",
"i  c #4B4441",
"p  c #4C4C43",
"a  c #4B4B4B",
"s  c #524E4C",
"d  c #545444",
"f  c #5C5644",
"g  c #5F5F45",
"h  c #55554B",
"j  c #5B5B4B",
"k  c #535353",
"l  c #5A5452",
"z  c #5D5D53",
"x  c #5B5B5B",
"c  c #615947",
"v  c #6D584E",
"b  c #745847",
"n  c #685E58",
"m  c #626145",
"M  c #63624B",
"N  c #68684D",
"B  c #777543",
"V  c #636353",
"C  c #6E6455",
"Z  c #64645B",
"A  c #6C6C5C",
"S  c #767553",
"D  c #70705F",
"F  c #636363",
"G  c #6E6E63",
"H  c #6B6B6B",
"J  c #737363",
"K  c #767669",
"L  c #7B7B6B",
"P  c #737373",
"I  c #7C7C74",
"U  c #885F2D",
"Y  c #825035",
"T  c #895438",
"R  c #95672E",
"E  c #918A1A",
"W  c #9C8D1A",
"Q  c #AF9E14",
"!  c #A7A11A",
"~  c #A9A31F",
"^  c #B2AB15",
"/  c #B1A919",
"(  c #898426",
")  c #9F9A2A",
"_  c #898534",
"`  c #8C8935",
"'  c #82803C",
"]  c #918D33",
"[  c #938F3A",
"{  c #979334",
"}  c #9E9830",
"|  c #B2AB25",
" . c #ADA834",
".. c #C2AE0E",
"X. c #C4BB0C",
"o. c #CBC10F",
"O. c #D4CA02",
"+. c #D9CE02",
"@. c #DED301",
"#. c #DDD20A",
"$. c #E3D704",
"%. c #E3D806",
"&. c #EADE04",
"*. c #E4DA0E",
"=. c #EADF0C",
"-. c #E0D715",
";. c #E9DE12",
":. c #E5DC1A",
">. c #ECE002",
",. c #F2E80D",
"<. c #FAEF14",
"1. c #F8ED1E",
"2. c #EDE320",
"3. c #F7EF2D",
"4. c #FCF32C",
"5. c #F8F038",
"6. c #868446",
"7. c #8E8B4B",
"8. c #B9B442",
"9. c #828272",
"0. c #DED94E",
"q. c #EDE952",
"w. c #FBF45A",
"e. c #F5F16A",
"r. c #FEF96F",
"t. c #FAF779",
"y. c #FDFA7D",
"u. c #FBFB96",
"i. c #FCFC9A",
/* pixels */
"k x x k k k x k k k a u a k k k k k k k x x A K J A A A A V V V K K K J K J D D Z a a k k x k k k k x k x k k a a a k F k k k k ",
"x F F F F x F x H k a u F P x F x F F x F G K K J J K L K V d V 9.9.9.L L L L L J K H x x x x x x x x F F x F a # u I H F F F x ",
"a a a a k a a a a # + u x H a a a u a a j V A V V V V A j : j V L A V V A V j A j N A u a # k # k u a a a a u + + u P k u k a a ",
"a a a a # a a # a . . # x x k a u u u j V z j j j j V j d : j V K g j j V j j V j Z V p a u u # a # u a a u # . X a H a a u u a ",
"u a u u u u # # a X . u k x a a u u z d j j V j V j d V d - 1 z D g z V j j j d Z V z j z u a @ a # u a + u # . X a H a u u u a ",
"u u u a # u @ u # . X # k k a a + u j j j d j d j j j j d - : V D z d j g d d j d V j 1 z # u # u + # # + u + . X # F a u u # u ",
"X + + @ . . . . X . X + a # + X X : : d : - : - - * * - - - d V V d 1 : 1 p : d : : : - : * X + X X . X . X X   X # k # + + . X ",
"X X X X X X X X     . # a # X + @ - * * - - - * * * * - - - d V j : p : : : : - - * * : : : @ X X . X     . + u u X + + X + + X ",
"x a a u k a k u a u u a u a u k A A A V V J A A V V A A A A D V A D D D J D A V j d D A J A A k a k a a u a a u u u u k a a u u ",
"H x F k k k k k k k k k a u a I L L J K D J J A K D D A A D A A A A A J A A D V j j 9.9.D J K Z x F x F k k k k k k k k k a a a ",
"F u a u # u u u # u a # . # u I V V M A V V j V V j V j z M M z V z V V V V V - d V 9.J j Z j j a a u a u u # a u # a a # . # a ",
"F a u u # u # u u # a # . X u I j V z z j d j j V d z j j d h M V d j V j V d * : j L V V A j V # u a u u # u u u # u u + . + u ",
"F u a ; # # # a u # u + . + u I j V j V d V h d V d V j j M h V j j j V d j j * : d L A g V V V a u u a u # # # a u u # + . + u ",
"F u u + # u # a + u a + . @ V I A d j M j d d j d d M j d j j j 1 z j j V j j * * j J V V j j V p u # u + # u + a + u a + . # a ",
"k + . . X X X + X X X X . # V J j d d : d d d : d d d : d : : 1 d : 1 : p : : O - j D z : : * d - o + X . X + + + . + . . X # k ",
"# X . X X X . . X X . . X ; j V d d : 1 : : : d d d : : : * * * - : : - - : : : d V V d - : - : - X X X . . . X . . . + u + u u ",
"k x a a k k k a k a u a u x D A A A V V M V j z V J D J A A V A A A A D V A A D A A A N V A D A z a k x a k k k a u u k k a u u ",
"F H F F x F F x k k k k x Z A D A D A D J V V V L 9.J L J J J J D J J A A A A A A A D A A A A z j I F x x k k x k k k k x F u a ",
"k F a k u a # u s a u u k d z M V z j V V j - M L L V A j V j V j j V d d V j j Z j V Z j j j * : K k a k a u u u a a u a k u a ",
"k k u a # # # @ a u a u a p V h z V d j V p - V L L V V j V j d V V V j V j j j j V j V j j 1 * : A a a a # + u # u u u a a u F ",
"k k u a + # + # a # # a # h h V d V d V d : - V L D V j M j j V j z j d j j j d j j V V j V d * : J k u a @ # # u a # # a u u x ",
"k k + # + # # + u # # u # d M j d M j j j j - j J L V V d j j j d j j d d d j d V d j j Z j d * : K a + u + @ u + # u + a # # a ",
"k k # + + + + + + + + @ + d : : - : : d : - - p D V d h d d : 1 d : d : d : 1 : d - : : j d d * : D k + + + + X X + + + + + # a ",
"a a + + X X + X X + X X + - : - d d : - - - - j V V : : : : : : - - - - p d d : - * - : : : : - p V u + X X X + X X X + + + # u ",
"k x x k k a a u u # a F F J J J A A V V M V j V D A A G V G A A j d j A D J D A A V A A N A A D Z J k k k a a k k k k x a x k k ",
"k k x k x k x x a # # H x G J J J D A G G A G A A A A A A G A V j A 9.J J J J J A J J A F A A G A F k a a # k x a a a k k k x a ",
"a u a a k a a # . + u H # j j V z V j V z j j j V j M j j j V - d A 9.A d j V V d V j j V j j V j j # u . u k k u a + u # u u u ",
"u u a u a u a # . # # H # z j V V M j V M j j d j V V d V V V : j A 9.A j V V j N V Z j V j j N V h u + . # k k + + # a # + u # ",
"a # a u a u # # X # u H u a j V j d j V j d V d V j j V d V V * d A 9.V V V V d Z V j V j V V V j : # + . # k k u + u # u + # + ",
"a # a # u u u # . # u F # k d V M j j A j V j : j j j V j V j - d V 9.D j V j A V j V j V j j Z j h # # . + u k # # # + a # + u ",
". X + X X + X . . # u k + u d j p d d d : d : : d : d : d d : * : V K j : j d j d j j d j 1 d d d u + X . + a a + + + X + + + . ",
"X X X X X X X X X + a a X . - - : d d d : * * * - : : : : : : - d j N d : : d d j d : - - - : : : X X     + u a . . X X X X X X ",
"a k k a k x k a u u k a u a G J D A D D D D D D A V V V A S | [ D J D J V A A K L G A A M G A A V a u a x k k a a k a u a a k a ",
"k k k k k k k k k k k u u u I L J L J L J L J L J V M { L 7.:.0.7.J J J D A G N A A A A A A A A V k u u k k a k k x a a k k k k ",
"u + u u + a # a u @ u X # u H A V A V A V V V V j p m /  .` #.q.( d j y V j j j j j j d V j V V # # . a k u u u + a u u u # u u ",
"u # + u # u + # # ; + . + a F h A j V j V V j V : - m ^ o.X.=.e.8.B : ) g j V d V d V j V j j h + u . u k # u # # # u # a # u # ",
"u + # u # a # a a + # . + u x a j M j z j V j V 1 - j ' #.>.4.u.:.~ _ ! N d d j d z j V z M d k u # X # k u a u + a # u u u # u ",
"u # # u u u # # u # a   X u x u z d V d z j h j : * d S @.<.r.i.3.*.+.^ N d j j d j V d M z j u + @ . u k u # u # u u # u # u # ",
"+ X . X X + X + + X + . + u a # # - - - - - * - - - : S O.>.w.i.t.3.>.^ 1 : 1 p : d d : d p @ + X X X u a # + + + + # + # + # + ",
". . X X . . . X X . . X # u u X + * - - - - : * * * 1 m ^ %.4.i.u.5.%.E 1 d d : - - - - * O X X X X X # a X + X X + X + X + X + ",
"x k k k k k k a k x F x k a a u a x A z V A J A A V A D ` O.1.y.t.2.O.6.A A C V D A A A J k k k k k k k k a a k k a k k a k k k ",
"k x x F a k k k x k k k k k u a k H G J J J D J D G A A D ) +.,.%.X.[ A V V j A J A A A F x x k k k k k u u u H x k k a k k k k ",
"u # u u u # u # a # + u + # . # k x a h V d : j z M z d z N W ..^ R j d j * j A D j M : u ; # u u + u u X + u F u u u + a u + u ",
"a # # u # # # u # # u + u + . u k x # @ z d d V d c j V d c 5 R t , j d d * j A J d p # a # + a # u + + . + a F # u u a + u u + ",
"# u u + # u u # u + # # u X X # k x # + a d h z j j j d j < 3 T q 2 d j d * j Z J z + u # u + # + u # # . X u H a # u + u + a + ",
"# u # + # # # # # # # u # # . u x k # @ a @ p j p j j 1 c f 7 Y w 0 c d j * : V F @ # # + a # # u u + u . X + F # u u + u # u a ",
"X + + X X X X X + + X X X X . u k a . X + o X @ : d p p : d > 4 8 , : - - * d k a @ X + X + + X X X X + . X u k + + + X X + X + ",
"X X X X X X X X X X X X X X X u a u + + X X X X o @ - : - : > q 9 = * - * o o u a   X X X X X X X X X X   . u a + X X X X X X . ",
"a k x k k k x k k k u u k k k k k k k k x x x x x k k F n z < q b C H F x x k k k a k k k x k k a k # a k x k k k k k k k a u a ",
"x P F F F x F x F k a u F P F F x x F x F x x F x x x F x s & q e Z H H H F F H x F F x x x x k x k a u H H F F x F x F x a u k ",
"k F a a k a a a a # X # x F u a a u a a u a a a u a a k # + $ 7 b s a u k u # k # k k u k # a # k # + u H a a k a a a a # + # a ",
"k x a a # a a # a X X u x x k a u u u u a u u # u u u # + X % 6 v u # # a # u a # u a + a u a u a + X u F u a # a a u a X X # a ",
"k x u u u u u # a X . u x x a a u u a # u # a + u # # a + . + u l u u u u # # + a u u u k u u + a + X u x u u u u a # a + . # a ",
"a k u a + u + u + . X # k k a u + u u # u # # # # # # # + X + u k u @ # u + # # # u u + u + u # u + . u k u a + u # # # X . # a ",
"a u + + . X . . + . X + a u + X X + X + X X + . + . X X . . + u a X X + + + + X X + X . + X . + X X . u a + + . X . . X . . + u ",
"u u X + X X X X   . . + a # + X X X . . . . X . .   . X X X # a # + X + X + X + X X . . . X X X . X X u u + + X X X X . . . + a ",
"x a a u a k k u u u u a u u u k k k a a a k k k u k a k x k x k a u # u x k k k k k x a a u k k k a u u a x k a # # x x k k u k ",
"F x x x k k k k x k k k a u a P F F F F x x x k x k k k k k x x k a u x P x F x F x H x x x k k k k k k x x k a # # F x x k x k ",
"a u a u u # u u # u a u . + a P a a u k u a u u a u a a u u a k + X u k F a a u u a a u u u # u # u u # k k u . # u F a u u u u ",
"# k u a + u # u u # a + . X # H # a u u # # # # a # u a + # a # X X # k k u a a u u # a a u # a # u u + a u + . + u x # u # a # ",
"a u a # # # # a u u u + . + u H # a u a + u # + u # a # # # a a X . + a k u a # a u u u u u # # # u a + k a # . X # x u # + a # ",
"+ a # + # u # a + u a + . + a F a # # u u # + # # # # + u # # u +   # k k u a + u # # a # # # # u u # # u u + . X u x + + # # # ",
"X + X . + X + + . X X X . # a x # + X + # + + + + + + + + + X + .   # a a + + . X + . # X . X X + + X X + + .   X u k + + + + + ",
". X . X X .   . . X .   X # # a # + X + X X + + + . . . X X . X X X u a u X X . X X X X . X X . . . . X . X X X # a a X + + + . "
};
