/* XPM */
static char *torch04w401743666765[] = {
/* columns rows colors chars-per-pixel */
"64 64 135 2 ",
"   c #1D1D1D",
".  c #201F1D",
"X  c #22211E",
"o  c #242424",
"O  c #282725",
"+  c #2F2C25",
"@  c #2C2C2C",
"#  c #302C23",
"$  c #322F2A",
"%  c #373125",
"&  c #383226",
"*  c #34312C",
"=  c #3C3529",
"-  c #3F392D",
";  c #343434",
":  c #383634",
">  c #3D3A35",
",  c #3B3B3B",
"<  c #44372B",
"1  c #413A2E",
"2  c #4B3D2E",
"3  c #543B2B",
"4  c #443D32",
"5  c #413F3B",
"6  c #533C30",
"7  c #474034",
"8  c #494236",
"9  c #46423C",
"0  c #4C463A",
"q  c #4E493D",
"w  c #514334",
"e  c #5D4431",
"r  c #514B3F",
"t  c #585133",
"y  c #5D543A",
"u  c #62422D",
"i  c #6C452E",
"p  c #77482F",
"a  c #6A5D2B",
"s  c #75502A",
"d  c #6D4630",
"f  c #6F4B37",
"g  c #774830",
"h  c #7A4B32",
"j  c #724C38",
"k  c #645C32",
"l  c #66602F",
"z  c #7D7536",
"x  c #434343",
"c  c #4A4745",
"v  c #4D4A44",
"b  c #4B4B4B",
"n  c #544E42",
"m  c #565044",
"M  c #585246",
"N  c #55514A",
"B  c #5C564A",
"V  c #5F594D",
"C  c #525252",
"Z  c #5B5750",
"A  c #5C5850",
"S  c #5B5B5B",
"D  c #634E44",
"F  c #6D5140",
"G  c #655648",
"H  c #615B4E",
"J  c #635D51",
"K  c #6C6643",
"L  c #716A48",
"P  c #767146",
"I  c #7D7541",
"U  c #79734E",
"Y  c #666054",
"T  c #696256",
"R  c #6C665A",
"E  c #6F685C",
"W  c #706A5E",
"Q  c #626262",
"!  c #736D61",
"~  c #875E2D",
"^  c #825035",
"/  c #895438",
"(  c #95672E",
")  c #847C32",
"_  c #A69414",
"`  c #A0961B",
"'  c #A79E1E",
"]  c #A89F1D",
"[  c #B5AD0A",
"{  c #BFAC0D",
"}  c #B9B00F",
"|  c #B2A915",
" . c #BFB514",
".. c #B9B01B",
"X. c #8F8620",
"o. c #8E8629",
"O. c #A29928",
"+. c #C1AD0E",
"@. c #C9BE06",
"#. c #C3BA08",
"$. c #C9C006",
"%. c #CFC508",
"&. c #D3C902",
"*. c #D9CE00",
"=. c #DCD205",
"-. c #E0D501",
";. c #E5DA04",
":. c #E1D60B",
">. c #E8DD09",
",. c #E5DB13",
"<. c #E8DE1B",
"1. c #EBE006",
"2. c #F0E60C",
"3. c #EDE316",
"4. c #EEE51E",
"5. c #D1CB33",
"6. c #F5EC25",
"7. c #F3EA2F",
"8. c #F9F026",
"9. c #FAF029",
"0. c #FEF63A",
"q. c #EEE74D",
"w. c #FCF445",
"e. c #FEF748",
"r. c #F4EF52",
"t. c #FEF851",
"y. c #F4F05E",
"u. c #F6F162",
"i. c #F7F36C",
"p. c #FBF76C",
"a. c #F4F072",
"s. c #FDF974",
"d. c #FDFC8F",
"f. c #FDFB9B",
"g. c #FBFEB7",
/* pixels */
"x b b x x x b b x x , , x x x x x x x x b C C b b x b B B m q m Y Y Y Y Y H V V N 9 x x x b b x x x b x b x b x ; , x b x x x x ",
"b C C C C b C b C x , ; C S C C b C C b C b b C b b A T H m 8 m R T R T Y T Y T J J C b b b b x b b b C C b C , ; , Q S C C b C ",
", x , x x , , , , @ @ , b C , , x ; , x ; x x , , x m B 0 7 0 m T M M r m m q M q m x , , ; x ; x ; , x x , , O o , S b , x x , ",
", , , , ; , , ; , o   ; b b x x ; , ; , , ; ; @ ; q q q 7 - 0 m Y q 0 q m 0 0 m q m q @ 5 ; , ; , ; ; , , ; @   o , S , , , ; , ",
"; x ; , , ; ; , , o   ; b b , x ; ; x @ ; ; , @ , 0 8 m 7 & 1 r V q q r q q q 8 M n r , , , , @ x @ ; ; ; ; ;   o , C x ; , ; , ",
", ; , , @ , @ ; @ o   ; x x , , @ , ; @ , @ ; @ 9 0 q 8 7 - 7 r V r 8 0 q 8 8 8 8 r q * , @ ; ; ; @ ; @ @ ; O   o ; C , , ; ; , ",
"o O @ @   o     o   o @ , ; @ o o o o O o o o o - & - - = = 7 q m 7 7 - 7 1 7 - 1 1 - * O o o @ o o   o   o o   o ; x ; @ o   o ",
"o o o o X X o         @ , ; o o o o       X o X % % - - - - 8 m 0 1 - 7 - 7 1 - = = = - o o o o o   o       o ; ; o @ o o @ @ o ",
"b x , , , x x , ; , , , , , ; x x x x , x x x v r m B M M M V m B V V V Y B B m 0 8 V B N x x x , x x , , , x , , ; , x , , , , ",
"S b b b x x x x x x x b , , , Q C C b b b b b B Y H V B B B B B B V B H B Y V r q q ! E N C b b b C b b x x x x x x x x x , , , ",
"C ; , ; ; ; , ; ; , , ;   @ , S , x ; x ; , ; v r q r q m r r r m q r M r r r = 8 r E V 9 , ; , , , , x ; ; @ , ; ; , , @   ; , ",
"C x , , @ , ; , ; ; , @   o ; S ; , , ; ; ; ; q r 8 r r 0 7 q r m 8 0 m q r 8 = 7 q T r m x ; , @ , , , ; ; ; , ; ; , , @   @ ; ",
"b ; , ; @ ; ; , ; ; ; @   o ; S ; , ; x @ : > 8 m 7 m q 0 r 0 n 0 0 0 r 0 q q & - 8 Y M r 5 , , ; , ; , ; @ ; @ , ; , @ @   @ , ",
"C , ; @ ; ; @ , @ ; , @   @ , C x @ ; ; ; @ : 8 8 7 r 8 8 q 0 0 7 q 0 0 r q 0 = & 0 Y r r : ; ; ; ; ; , @ @ , @ , @ , , o   ; , ",
"x @     o o o o o o o o   @ , b ; @ O O @ @ - > 7 - 7 1 7 1 1 7 7 7 7 - 8 7 - % = q V q 7 +   @ o o o o   o o o @   o o o   ; , ",
"@ o   o o o     o o     o ; ; , @ @ o O o O - 7 8 7 7 1 1 = = & & 1 = = = 1 = - 8 r M 8 = % o o     o o     o o o   o o ; @ , , ",
"x b x , x x x x x , , , , x x x x , , , , , x n m H B H V M m m M M B B M M M V B B B m n v x b , ; b b x x x x , , , , x x ; ; ",
"C S b C b C b b b x x x b x x b x b x x b , n n Y W H T J H J J Y Y H B M B M M B N V V B N x ; ; S C b b x x b x x x x b b , x ",
"b C , x , , ; ; x , , , x ; , , , , ; , , ; - v Y T m B r r r r r r m 8 q r q 0 M q n n 0 q ;   o S x , x , ; , ; x , , , b ; x ",
"x x , , ; ; ; @ , ; , , , @ , @ , , @ ; , O = n T Y m m q r r 8 r r r 0 m 0 r 8 0 m 0 n q q O   o b , , , ; @ , @ , , , , , , b ",
"x x , , o ; @ ; , ; @ , ; @ @ , @ , @ , @ o = n T H n q r 0 0 n 0 r 0 7 q r q 7 q r r m 0 r @ . o b x ; , @ @ @ ; , @ ; , ; , b ",
"x x @ , o ; ; O , @ @ , @ @ , ; @ , @ ; ; ; = 0 H J r n 0 r r 0 8 q q 7 8 7 q 4 r 8 8 q m q @ . o C x o ; @ @ , o ; , @ , ; @ x ",
"x x ; o @ o O o @ @ @ @ @ o o o   o O @ o   = 4 H M 7 0 4 4 1 4 1 7 7 7 8 1 7 1 8 - 7 - 9 0 o   o b x @ o @ o @ o @ @ o @ @ @ , ",
", , @ o o @ o o o o o o @ o o o @ @ o o . o - q n r 1 4 1 4 4 1 = = = & 1 7 7 1 & = - - 1 > o o @ , ; @ @ o o o o o o o o @ ; , ",
"b b x b x , , , , @ , C C b b b x x , , , , n n A M M V n H B M 0 0 r M B Y B B M m B B M M x b , b b x x x , b x x x b x b x x ",
"x b b x b b b b , ; ; S b b b b C x x x x x M M H B B V B B B n r m R Y H Y H Y B Y H B B M x x x x x , , @ x b x , , x x x b , ",
", , , , x , , ;   @ , S ; , ; , , , ; , , @ 0 0 m 0 r r 0 r r = 8 M E B 8 r r r 7 r r 0 r 0 ; , @ , ; ;   ; x b ; , @ , ; ; , , ",
", , , , , , , @   @ @ C @ , , , , ; , , , ; 0 4 r r n 8 n n n 1 8 B ! B q r r r m r m 0 m 8 ; 5 ; , ; @   ; x x @ @ @ , @ @ , @ ",
", ; , , , , , @ o @ , S , @ ; , @ @ , ; ; @ v 4 n 0 0 n 8 n r = 8 B ! m m r r 0 m r q m q x , , ; @ ; o   @ x x , @ , ; , @ @ @ ",
", @ , ; , ; , @   ; , C @ , @ , , ; ; x ; , > - 0 0 r r 0 n r 1 8 r R M 8 m r M r r m q m , ; , ; , ; ;   o , x @ ; @ @ , @ @ ; ",
"  o o o o o o     @ , x @ , o @ o @ @ @ o @ $ 4 0 4 4 4 8 4 1 & 1 r H r 7 8 8 q 8 8 8 7 0 ; @ @ o ; o o   @ x , @ o o o @ o @   ",
"o o o o   o o o o @ , , o     o o @ @ @ o   o = = 1 1 4 1 1 r P l r m 7 1 1 7 8 r 8 1 - = O @ o o o o     o , ,       o o o o o ",
", x x x x b x x ; , x , , , b b x x x x x b b B M m r m M K 5.q.O.Y H H m B V Y Y V M M m c x x x , , , b x x , x x , ; , , x x ",
"x x x x x x , x x x x , , , S C C C b C b C b T H m q m U ..7.y.=.L H B B M B m V M B B M x x x x x , , x x x x x x x x x x x x ",
"; @ , , @ , ; , , @ ;   ; ; C x , x , x , , , v q 7 0 m I %.w.s.3.t 8 7 r q q q q q q 0 9 : , , @ ;   , x , ; , @ , , ; , @ , ; ",
", ; o , @ , o ; ; ; @   @ , C ; , ; , ; , x : x - = 9 m I %.p.r.&.X.8 r 0 0 r 8 r 7 r 8 x : ; ; @ ;   ; x ; , @ ; @ ; ; , ; , @ ",
"; @ ; , ; , ; x , @ @   o , b , : , ; , ; , ; 5 7 = 0 m z @.a.i.1.$. .0 r 0 7 0 7 n 0 q ; , @ , ; ;   ; x , , ; @ , ; , ; ; ; ; ",
"; @ @ ; ; ; @ ; ; ; ,   o , b , , @ , @ , ; @ @ = & 8 ) O.$.9.t.e.2.` 0 r 8 8 r 7 q n 9 , , ; , O @   , x , ; , ; ; ; @ , ; ; ; ",
"o o   @ o @ o @ @ o @   @ ; , ; @         X   o + = 1 z &.-.3.u.f.6.=.0 4 1 7 7 - 7 7 @ @ o o @ o o   , , @ ; @ @ O ; @ @ o ; @ ",
"    o           o       ; ; ; o o X o o o X o   . % 7 k @.>.0.d.g.4.[ = 1 7 7 1 = - - o     o o o o o @ , o o o @ o o @ o @ o o ",
"b x x b x x x x x b C b x x , , x x , , x x b x x n M V | *.8.s.s.;.o.M B B m m B M N x b x x x x x x x x x , x x , x x , x x x ",
"b b b b x x x x b x x x x x , , x S C C b x b b x c B B K ' =.2.1.} z N m m 0 B J M x x x C b x x x x x ; ; ; S b x x x x b x x ",
", ; ; , ; ; ; @ x @ @ ; @ @   ; x b , ; , @ o ; ; , v 4 n y _ +.{ l r 8 0 - 0 B Y 9 > @ ; ; ; , ; @ ; , o @ , C , ; , @ , , @ ; ",
", @ @ , @ ; @ , ; @ , @ ; @   ; x b ; @ , @ @ , @ , > n 7 r p ( ~ u q 8 7 = 0 B H @ @ @ x @ @ , ; ; @ ;   o , C ; ; ; , @ , ; @ ",
"; ; ; @ ; ; ; ; , @ @ @ , o   ; x C ; @ x @ @ , ; ; , 4 v 6 d / h u 7 r 1 = 8 M B , o , ; ; @ @ @ , ; ;   o ; C x ; ; @ ; @ ; @ ",
"@ ; ; @ ; ; ; @ ; @ ; ; @ ;   ; x x ; @ , @ ; ; O ; @ @ r w i ^ s u q 7 0 = 4 q b @ ; ; @ , ; @ ; ; @ ;   o @ C @ ; ; @ , ; ; , ",
"@ o @     o o o @ o @   @     ; x x     @ o o o o O @ o O 4 3 g d 2 1 - 1 & 7 x , @ O O o O o o o o o o     ; b @ @ @ o o o o @ ",
"o o o o o o o o o o   o o o o ; x ; @ o X o o o o o . o o O 3 g d < = - & # O > ,     o o o o o o o o       ; , @     o o o o   ",
"x b b x x x b x x x , ; x b x x x x x x b b b b b x x x x , 6 g f G J S C b b x x x , x x b x x x x ; , b b x x x x b x x , , x ",
"x S C b C b C b C b , , C S C b b b C b C b b b b C b C b 5 6 g f M S C C C C C b C C b b b b x b x , ; C C C C b C b C b , ; x ",
"b C , x x , , , , ; o ; b C , , , , , , , , x , , , , x ; o < d F x x ; x , ; x ; , x , , ; x ; x ; @ , C x , x , , , x ; @ @ x ",
"x x , x ; , , ; ,     , b b x x ; , , , , , ; ; ; , , ; @ o ; e D ; ; ; , @ ; , ; , , @ x ; , ; , o o ; C ; x ; , x ; ,     ; , ",
"x b ; , , ; ; ; , o   ; b b , x ; , , @ ; ; , @ , ; ; , @   o , c ; ; , ; ; ; @ , , ; ; , , , @ , @ o ; C ; ; , ; ; ; , o   ; x ",
"x x , , @ , ; ; @ o   ; x x , , @ ; ; ; , @ ; @ ; @ ; @ @   o , c , @ ; ; @ @ ; ; , ; @ , @ ; ; ; @   , b , , @ , ; ; ; o   @ , ",
", ; @ @         o   o @ , ; @ o o @ o @ o   o o o     o     o , , @ o O o @ o @ o o o   o o   @ o o   ; , ; @         o     o , ",
", ; o o   o o o       @ , ; o o o         o o         o o o ; , ; o O O @ o o o @ o       o o o   o o ; ; o o o o o         @ , ",
"C , , , x x x , ; , , , , ; , x x x x , , b x x , x , x x b b x , , @ , b x x x b x b , , , x x x , , ; x b x , @ ; b b x x , x ",
"C b b x x x x x x x x b , , , Q C C b C b b b x b b x x x x b b x , ; b S C C b b b C b b b x x x x b x b b x , ; ; C b b x b x ",
", , , , ; ; , ; ; , , ;   @ , S , , ; x , , ; , , , , , , , x x @ o , b C , , ; , , , , , , ; , ; ; ; ; x x ;   ; , C , ; , , ; ",
"; , , , @ ; ; ; ; ; , @   o ; S ; , , , ; @ ; ; , ; ; , @ ; , @ o   @ x x , x , , ; ; , , , @ , ; ; ; @ x ; @   o ; b ; ; ; , ; ",
", ; , ; @ ; ; , ; ; ; @   o ; S ; , , , @ , ; @ , ; , @ ; ; , ,     @ x b , , ; , ; , , , , ; ; ; , , @ x , ;   o ; b , ; @ , ; ",
"; , ; @ ; ; @ , @ , , @   @ , C x @ ; ; ; @ @ @ @ ; ; @ ; ; @ , o   @ x x ; , o ; ; ; , @ @ @ ; ; ; @ ; , ; @     , x @ @ @ @ @ ",
"o @     o @ o @ o o o     @ , b @ @ @ o @ @ o @ @ o @ o o @ o o     ; , , @ o   o @ o @     o o @ o o   @ @     o ; x o @ o @ @ ",
"  o   o         o       o ; ; , @ @ o o o o @ @ @       o o   o o o ; x ; o o o o o   o   o         o o     o o ; , x o o @ @   "
};
