/* XPM */
static char *torch041743581659[] = {
/* columns rows colors chars-per-pixel */
"64 64 117 2 ",
"   c #070707",
".  c #0C0A06",
"X  c #0B0B0B",
"o  c #100F0C",
"O  c #151007",
"+  c #13110D",
"@  c #1A150C",
"#  c #1F190E",
"$  c #131313",
"%  c #1B1613",
"&  c #1B1813",
"*  c #1B1B1B",
"=  c #251B06",
"-  c #281D07",
";  c #261D0B",
":  c #2A1F0A",
">  c #231D13",
",  c #2C1F17",
"<  c #201C1A",
"1  c #2D220D",
"2  c #34250D",
"3  c #3F330D",
"4  c #262015",
"5  c #2C2312",
"6  c #25211C",
"7  c #2B251A",
"8  c #312610",
"9  c #392711",
"0  c #352914",
"q  c #392D17",
"w  c #352C1B",
"e  c #3A2E19",
"r  c #3E3317",
"t  c #3C311C",
"y  c #222222",
"u  c #292621",
"i  c #332923",
"p  c #4A3F0D",
"a  c #442C1F",
"s  c #413512",
"d  c #4A3F14",
"f  c #41331E",
"g  c #4E331C",
"h  c #50351F",
"j  c #583B1F",
"k  c #433524",
"l  c #4F3420",
"z  c #5A3925",
"x  c #573B2A",
"c  c #623D27",
"v  c #52470F",
"b  c #4C4016",
"n  c #584810",
"m  c #54491C",
"M  c #5E5316",
"N  c #615610",
"B  c #6B600F",
"V  c #796E0C",
"C  c #7F7409",
"Z  c #66402A",
"A  c #6B432C",
"S  c #734D26",
"D  c #77482F",
"F  c #665D2D",
"G  c #774830",
"H  c #7C4C32",
"J  c #865C2B",
"K  c #825035",
"L  c #895438",
"P  c #95672E",
"I  c #938708",
"U  c #998F0A",
"Y  c #928712",
"T  c #A89D06",
"R  c #A3900E",
"E  c #ABA10A",
"W  c #B1A702",
"Q  c #B3A905",
"!  c #BFAC0D",
"~  c #BFB502",
"^  c #C1AD0E",
"/  c #C6BB02",
"(  c #CBBF02",
")  c #CBC002",
"_  c #D3C902",
"`  c #D8CD00",
"'  c #DBD104",
"]  c #E0D501",
"[  c #E5DA04",
"{  c #E0D50A",
"}  c #E8DD09",
"|  c #E5DB13",
" . c #E8DE1B",
".. c #EBE006",
"X. c #F0E60C",
"o. c #EDE316",
"O. c #EEE51E",
"+. c #C8C127",
"@. c #F5EC25",
"#. c #F3EA2F",
"$. c #F9F026",
"%. c #FAF029",
"&. c #FEF63A",
"*. c #EEE74D",
"=. c #FCF445",
"-. c #FEF748",
";. c #F4EF52",
":. c #FEF851",
">. c #F4F05E",
",. c #F6F162",
"<. c #F7F36C",
"1. c #FBF76C",
"2. c #F4F072",
"3. c #FDF974",
"4. c #FDFC8F",
"5. c #FDFB9B",
"6. c #FBFEB7",
/* pixels */
"* * * * * * * * * * $ $ * * * * * * * * * * y * * * * * * $ $ $ y * * * * * * * * * $ * * * * * * * * * * * * * $ $ * y * * * $ ",
"* * y y y * * * * * $ $ * y y * * y * * * y * * * y * * * * X $ y y y y y y * y * * y * * * * * * * y * y * y $ $ $ y y * y y * ",
"$ * $ * * $ $ $ * X X $ * * $ $ $ $ $ $ $ * $ $ $ $ $ * $   X * y * $ $ $ $ $ * X * * $ $ $ $ X * $ $ $ $ $ $     $ y * $ * $ $ ",
"$ $ $ $ $ $ $ $ $   X $ y * * * $ $ $ $ $ $ $ $ $ $ $ $ X   $ $ * $ $ $ $ $ $ $ $ $ $ $ * $ $ $ $ $ $ $ $ $ $   X $ y * $ $ $ * ",
"$ $ $ $ $ $ $ $ $ X   $ * * $ $ $ $ $ X $ $ $ X $ X X $ X   X $ * $ $ $ $ $ $ X $ $ $ $ * $ $ X $ $ $ $ X $ $     $ y $ $ $ $ $ ",
"$ $ $ $ X $ X X $     o * * $ $ X $ $ $ $ X $ $ $ $ $ $ X   X $ * $ X $ $ X X X $ $ $ X $ X $ $ $ X $ X X $ X     $ y $ $ $ $ $ ",
"X X X X   X   X       X $ $ o X   X X X     X               X $ $ X X X X X X X X X     X     X       X     X   X $ * $ X X     ",
"X X X X X             X * o X X X X                   X X   $ $ X X X X X X X         X   X X X     X       X $ $   X X X X X   ",
"* * $ $ $ $ * $ $ $ $ * $ $ $ * * * * * $ * * * $ $ * $ * $ * $ * * * * * * * * $ X * * * * * * $ * * * $ $ $ $ $ $ $ * $ $ $ $ ",
"y * * * * * * $ * * $ * $ $ $ y * y * * * * * * * * * * $ * * * * * * * * * * $ X $ y y * * * * * * * * * * * * * * * * * $ $ $ ",
"y $ $ $ $ $ $ $ $ $ $ $   $ $ y $ $ $ * $ $ $ $ $ $ $ $ $ $ $ $ $ $ $ $ $ $ $   X $ y * $ $ $ $ * $ $ $ X $ X $ X X $ $ $   $ $ ",
"* * $ $ X $ $ $ $ X $ $     $ y $ $ $ $ $ X $ X $ $ $ $ X $ o $ * X $ $ X $ $   X $ y $ $ * $ $ X $ $ $ $ $ $ $ $ $ $ $ X   X $ ",
"y $ $ $ X $ X $ $ $ $ X   X $ y $ $ $ $ X $ $ X $ X * X o $ o $ $ X o $ o $ o     $ * * $ $ $ $ $ $ $ * $ X $ $ $ $ $ $ X   X $ ",
"* $ $ X $ $ $ $   $ $ $   X $ y * X X $ $ X X $ X o $ $ o o o $ X $ o o $ o o     $ y $ $ $ $ $ X $ X $ X $ $ X $ X $ $ X   X * ",
"* $     X X X X   X X     X $ * $ X X X X X X X X X X X . @ # 1 4 ; @ . o X X     $ * $       X   X X       X X X   X X     $ $ ",
"X       X                 $ $ $ X X X X X X X o X o X + = 1 = 1 = 1 1 @ + X X     $ $ X   X X X       X       X       X $ X $ $ ",
"* * $ $ * * * $ * $ $ $ $ * * * $ * $ $ $ $ $ $ $ * * w q 0 8 0 0 q q q 8 * * * $ * * $ $ $ * * $ $ * * $ * * * $ $ $ * * * $ X ",
"* y y * * y * * * * * * * * * * * * * * * $ $ $ y u t t t q e t e e q q 0 0 * $ * * * * * * $ $ $ y y y y * * * * * * * * * $ * ",
"* y $ * $ $ $ $ * $ $ $ $ $ $ $ $ $ X * $ $   $ * i 0 q 8 0 8 8 8 8 0 1 5 0 4 o $ $ $ $ o $ $ X X y * * * $ $ $ $ $ $ $ $ * $ $ ",
"* * $ $ $ $ $ X $ $ $ $ $ X * X $ $ X $ $ X   $ 7 e 0 0 1 8 8 1 0 8 0 1 0 1 0 + $ $ $ $ $ $ X     * $ $ * X X $ $ $ $ $ $ * $ * ",
"* * $ $   $   $ $ $ X $ $ X $ $ X $ X $ $ X   $ w e 0 1 0 1 1 0 1 0 1 1 1 5 8 ; $ $ $ $ $ $ X   X * * $ $ X X $ $ $ X $ * $ $ * ",
"* * X $ X $ $   $ $ $ $ X X $ $ X $ $ X X $   $ q t 8 0 1 8 8 1 1 5 8 1 1 1 2 1 $ X o $ $ $ X   X y * X $ X X $   $ $ X $ $ $ $ ",
"$ * $ X X X X   X X X X X X X   X X X X X     & q 0 1 1 1 1 1 = = 1 1 1 1 1 1 : &   X   $ X       * * X X X X X X X X X X X X $ ",
"$ $ X X X   X X   X X X X X     X X X X     X 5 8 1 1 1 = 1 1 1 = 1 = = : 1 1 1 ;     X   X X X X $ $ X X   X X X   X X X X $ $ ",
"* * * * * $ $ $ $ X * y y * * * * * $ $ $ $ % 0 q 0 0 q 0 q q 0 1 2 0 0 q e q q 0 & * $ * * * * $ * * * * * $ $ $ $ $ * * * * * ",
"* * * * * * * * $ $ X y * * * y * * * * * $ 6 0 q q q q q q 0 0 8 0 r t t e e e q 6 * * * $ * * * * * * * * * * * * * $ $ X y * ",
"$ $ * $ * $ * $   X $ y $ $ $ * $ $ $ $ $ $ > 1 0 5 8 8 8 8 8 = 1 0 f q 8 8 8 0 1 > $ o $ $ o $ X $ X * $ $ * * $ * $   X $ y $ ",
"$ $ $ $ $ $ $ X   X $ y X $ $ $ $ $ $ $ + $ > 1 8 8 0 1 8 0 8 1 1 0 k q 1 8 8 8 0 4 * $ $ o $ $ $ $ $ $ X * X * $ $ $   X X y $ ",
"$ $ $ $ * $ $ X   $ $ y $ $ $ $ o o $ $ $ X 5 1 0 1 1 0 1 0 0 = 1 e t 8 0 8 8 8 0 5 + $ $ $ $ $ X X $ * $ $ $ $ $ X $   X $ y * ",
"$ $ $ $ $ $ $ $   X $ * X $ X $ $ o X * $ $ 1 : 1 1 8 8 8 8 8 = 1 q t 0 8 0 8 0 0 5 $ $ * X $ * $ $ X $ $ $ $ $ $ $ $   X $ y X ",
"    X X   X X     X $ * X $ X X X o X X X X > : 1 1 1 1 1 1 = = 1 8 e 8 1 1 1 1 1 1 $ X X X X X X $ X     X X   X X     X $ * X ",
"    X         X   $ $ * X       X X X $     : : 1 1 = = 1 1 r F v 8 8 1 1 1 1 1 5 4   X     X X   X   X X   X   X       X $ * X ",
"$ * * * $ * * $ $ $ $ $ $ $ $ * $ $ * * $ * 8 8 0 0 1 0 q b +.*.Y r e t 0 q q e t q * $ $ * * $ * $ $ $ * * * * $ * $ $ $ $ * $ ",
"* y * * * * * * * * * * $ * * * * * * * * * 0 0 q 8 0 0 m E #.>.' b q q 0 0 q 0 q 0 * * * * * * * * $ $ y * * * * * * * * * $ $ ",
"* * $ $ $ $ $ $ $ $ $ X $ $ $ X $ $ $ $ X $ 5 1 8 1 1 0 M ) =.3.o.3 5 1 0 8 8 5 1 5 $ o $ $ $ $ $ o   $ y $ $ $ X * $ $ * X X X ",
"* * X $ X $ X $ X $ X $ $ $ $ $ X $ o $ X o 1 0 1 = 1 0 M ) 1.;._ C 1 0 1 1 0 1 5 > $ o $ o o $ X $   $ y X $ X $ X $ X $ $     ",
"* * $ $ $ $ $ $ $ $ $ X $ $ $   $ $ $ $ o $ 4 5 1 - 1 8 M ~ 2.<.[ ( Q 1 0 1 1 1 1 4 $ $ $ $ X * $ X   $ y $ $ $ X $ $ $ $ $ X   ",
"* * $ $ $ $ X $ $ $ $ $ * X $ X X $ $ $ o $ & 1 8 = 1 B U / $.:.-.o.I 8 8 1 1 0 1 & $ o $ $ $ $ X X   $ * $ $ $ X $ $ $ * $ X   ",
"* $ X $ X X X $ $ X   X $   X     X   X X X O = 1 = 1 N ) ] O.,.5.@.' 1 = 1 1 1 ; X X X X X X X X X   $ * X X X X X X X X X     ",
"$ $ X     X   X   X X X         X             = 1 = 1 p / } &.4.6.O.W = 1 1 1 1 ; X               X   $ $ X X X X X X X X X     ",
"* * * * * * $ * * * y * * $ $ $ * * * $ $ * * 6 q 0 0 q T ` %.3.3.[ C 0 0 q 0 0 7 * * $ $   $ $ $ * * y * * * * * * * * $ $ * * ",
"* * * y $ * * $ * * * * * * $ $ * y * * * * * y q q q 0 b U ' X...W M q 0 0 1 q 6 * * y * * * $ * $ * * * * * * * * * $ $ $ y * ",
"$ $ $ $ $ $ $ X $ X X $ X $   $ * * $ $ * o X o 5 2 2 1 8 s R ^ ! n 8 1 1 = 0 7 * $ o $ $ $ $ $ $ $ X $ $ X $ $ X $ $   X $ y $ ",
"$ X X $ X $ X $ $ $ $ X $     $ * * $ X $ X o $ + 5 2 0 1 e S P J j 2 1 1 1 1 & y o $ o $ $ X $ X X X $ $ X $ X $ X X   X $ y $ ",
"$ X $ X X $ $ $ $   $ X $     $ * * $ X $ $ X $ X > 2 1 2 a c L H z 2 2 1 = ; * y $ X $ $ X $ X $ X $ $ $ X X X $ $ $   X $ y * ",
"X $ $ X $ $ X X $ $ X $ $ X   $ * * X $ $ o X $ X $ 5 1 2 a c K H h 8 1 1 = o $ * X X o X $ $ $ X $ $   * X $ $ $ X $   X X y X ",
"X X X X   X   X $   X X       $ * $     X   X   X X o : = : g D Z 9 1 1 = . o $ * X   X   X X X X X X   X X X   X         $ y X ",
"X     X   X   X   X     X     $ * $ X X X X   X   . X X - - g D Z 2 = = .   X $ $   X   X           X   X   X   X         $ $ X ",
"* * * * * * * * * $ $ $ * * * * * $ * * * * * * * * * $ * < l D A t u * * * * * * $ * * * * * * * $ $ $ * * * * * * * * * $ $ $ ",
"* y y * y * * y y * $ $ * y * y * y y * y * * y * y * y * $ a H Z i y y y y * y * y * * * * * * * * $ $ y y y y * * * * * * X * ",
"* y $ * * $ $ $ $ $   $ * y $ * $ $ * $ $ $ $ $ $ $ $ * $ X , c x y * $ $ $ $ * $ $ * $ * X * X * X X $ y $ $ * $ $ $ * $ X $ * ",
"* * $ $ X $ * $ $     $ * * * $ $ $ $ $ $ $ $ $ $ $ $ $ X X < x k $ $ X $ $ X * $ $ $ X * $ $ $ $ X X $ y $ $ X $ * $ $     X $ ",
"* * $ $ $ $ $ X $     $ * * * $ $ $ $ X $ $ $ X $ X X $ X X X * y $ o $ $ X $ X * $ $ $ * $ $ X * X   $ * * $ $ $ $ X * X   X * ",
"* $ $ $ X $ $ $ $     $ * * $ $ X $ $ X $ X $ X $ $ $ X X X X $ * $ X $ $ X X $ X $ $ X $ X $ X $ X   $ * $ * X $ $ $ X X   X $ ",
"$ $ X X             X X $ $ X X   X X X X   X   X           X $ $ X X X X X X X   X     X X   X     X $ $ $ X         X     X $ ",
"$ $   X X   X         X $ $   X X X         X         X X   X $ X X X X X X   X X X         X X       $ $     X             X * ",
"* $ $ $ * $ * $ $ $ $ $ $ $ $ * * * $ $ * * * * $ * $ * * $ * $ * * * * * * $ X * * * * * * * * * $ $ * * * $ $ $ * * * $ X X y ",
"y * y * $ * * $ * * * * $ $ $ y * y y * * * * * * * * * * * * * * * * * * * $ $ * y * y * * * y * * * * * * * * * * y * $ $ $ y ",
"$ $ $ $ $ $ $ $ $ $ $ $   X $ y $ $ $ * $ $ $ $ $ $ $ o $ $ $ $ $ $ $ $ * X X $ * * $ $ $ $ $ * $ $ * X X X $ X X * * $   X $ y ",
"X * $ $ X $ $ $ $ X $ $   X $ y $ $ $ $ $ X $ X $ X $ $ o X o $ $ X $ $ X X   X * * $ * $ $ $ X * $ $ X $ $ $ $ X * X X   X $ y ",
"* $ $ $ $ $ X $ $ $ $ X   X $ y $ $ $ $ X $ $ X $ X $ $ X $ $ $ X $ $ $ $ X   X $ * $ * X * X * $ $ $ $ X $ $ * X $ * $   X $ y ",
"X $ $ X X $ X * X $ $ $   X $ y * X X $ $ X X $ o $ $ X X $ X $ X $ X X $ X   X * * $ $ X $ $ X $ X $ X $ $ $ X $ $ $ X     $ * ",
"X X     X X X X           X * * $ X X X $ X X X X X X X X X X X X X X X X     $ $ $ X X   X X   X         X X X   X X X   X X * ",
"  X             X       X X $ $ X X   X X X X X X X X X X         X X   X     $ * $   X     X   X   X           X         X $ * "
};
