/* XPM */
static char *torch02w401743666765[] = {
/* columns rows colors chars-per-pixel */
"64 64 123 2 ",
"   c #1D1D1D",
".  c #242424",
"X  c #282727",
"o  c #282826",
"O  c #2C2C2C",
"+  c #34342D",
"@  c #3C3C2F",
"#  c #343434",
"$  c #383330",
"%  c #3E3E32",
"&  c #3B3B3B",
"*  c #42362D",
"=  c #483E2E",
"-  c #51392C",
";  c #403936",
":  c #58412F",
">  c #5E5C2E",
",  c #424236",
"<  c #4E4536",
"1  c #46463A",
"2  c #4A4A3E",
"3  c #5A4433",
"4  c #5F4836",
"5  c #544C3D",
"6  c #61432E",
"7  c #6F432D",
"8  c #77482F",
"9  c #76512B",
"0  c #6B4630",
"q  c #6D4A34",
"w  c #774830",
"e  c #7A4C33",
"r  c #744F3A",
"t  c #635B36",
"y  c #6E6B2D",
"u  c #6E6C35",
"i  c #787530",
"p  c #434343",
"a  c #4D4745",
"s  c #4D4D42",
"d  c #4B4B4B",
"f  c #515145",
"g  c #595142",
"h  c #5D5A43",
"j  c #565649",
"k  c #5A504A",
"l  c #59594D",
"z  c #535352",
"x  c #5D5D52",
"c  c #5B5B5B",
"v  c #634E44",
"b  c #6D5140",
"n  c #665C4E",
"m  c #7E7C44",
"M  c #7B7A4B",
"N  c #616155",
"B  c #66665A",
"V  c #6A6A5E",
"C  c #646462",
"Z  c #6D6D61",
"A  c #717165",
"S  c #767669",
"D  c #875E2D",
"F  c #825035",
"G  c #895438",
"H  c #95672E",
"J  c #96871D",
"K  c #9B9519",
"L  c #A59E10",
"P  c #B7AE0E",
"I  c #BFAC0C",
"U  c #AEA616",
"Y  c #AFA818",
"T  c #BDB513",
"R  c #868225",
"E  c #8A872B",
"W  c #989322",
"Q  c #9D982B",
"!  c #858335",
"~  c #908C34",
"^  c #9B9635",
"/  c #A39E21",
"(  c #A49F2B",
")  c #AAA632",
"_  c #C4AF0F",
"`  c #C8BF06",
"'  c #C1B709",
"]  c #C4BB09",
"[  c #C3BA10",
"{  c #C6BE1E",
"}  c #CFC409",
"|  c #D0C704",
" . c #D7CD00",
".. c #D9CE01",
"X. c #DAD004",
"o. c #CDC313",
"O. c #E2D600",
"+. c #E9DD03",
"@. c #E5DA0A",
"#. c #EBE007",
"$. c #F1E60F",
"%. c #F3E90E",
"&. c #F0E511",
"*. c #F8ED15",
"=. c #FBF11A",
"-. c #F5EB22",
";. c #F9EE20",
":. c #FFF530",
">. c #E8E245",
",. c #F8F246",
"<. c #FFF749",
"1. c #F4ED58",
"2. c #FFF752",
"3. c #FCF65B",
"4. c #FAF667",
"5. c #FDF965",
"6. c #F8F67A",
"7. c #FAF87E",
"8. c #FDFA83",
"9. c #FDFC89",
"0. c #FDFC95",
"q. c #FDFB9F",
"w. c #FBFDB5",
/* pixels */
"p d d p p p d d p p & & p d p p p p z N B B B V B N N N N l j l V V V B V B N N N l l N N B j p p p d p d p p p & & p d p p p p ",
"d z z z z d z d z p & # z c d z d z B B Z B B B B B B Z B x 2 l A Z A Z V Z V Z B V V B B N B d d d d z z z z & # & C c z z z d ",
"& p & p p & p & & O X # d z & p & 1 l l j l x j j l l N f 1 2 l Z x l j x j j x f x N j N f x % p & & p & & # o . & c d & p & & ",
"& & & & # & & # & . . # d d & p & s j l l j j s f j j f 2 1 f l V j f f l f f l f l l s l f l 2 & # # & & # #   . & c & & & # p ",
"# p # & # & # # & .   # d d & p + j l 2 j f l 2 j f 2 l 2 , 1 j N j j l f f f 2 l j j f l j l 2 & # # & O & #   . & z p # # # & ",
"& # & & O & O # O .   # p d & # @ j f f j 2 j 2 f f j 2 2 , 1 j B j 2 2 j 2 2 f s h f 2 j 2 j f p O # O o # .   . # z & & # # & ",
"  O O O   .     X     O & # O . @ 1 1 2 , , 1 , 1 % 1 , , % 1 j h 1 1 2 1 1 2 1 1 1 1 , 2 , % 2 + .   .   .     . # p # o o . . ",
". . . . .   .         X p # X . , , % % % , , % @ @ % , , , 2 N f 1 1 1 2 2 1 , % % % % 1 1 1 1 @   .       o & # . o . o O o . ",
"d p & # p p p & # # & p # # & d N N x l l N N x j l N N x x N l N N N N B B x l f 2 N N B N N x c p p & & & & & & # & p & & & & ",
"c d d d p p p p d p p p & & & C V V B V N V B N V B N N N N N N N N N B N N B j f f S A B B B B C z d d p p p p p p p p p & & & ",
"z & & & # # & # # # p #   O & C l l j x j l j l j f l 2 j j f l l f j x j h l % 2 j A B f l j l l p & & # & # & # # & & #   # & ",
"z & & # O & # # # # & O   . # B f l j j f 2 j 2 l 2 l j 2 2 f j l 2 f l f j 2 % 1 f Z l l x f l f 2 & & & O # # & # # & o   O # ",
"z # & # O # # & # # # O   . # C f x j l 2 l f 2 l 2 x f f j 5 l f f f l 2 j f % 1 2 Z N f l j j f d # & # # # # & # & O o   o & ",
"d & # O # # O & O # & O   O & C N 2 2 l j 2 2 2 2 2 l 2 2 f f f 2 f f 2 l f f % % f B j l s f j s s # # . # # O & o & & O   # & ",
"p O .   . . . X . . .   . O 1 N f 2 2 1 2 2 2 1 2 1 2 2 2 1 1 2 2 1 2 1 2 1 1 @ % j N f 1 , % 2 , , o .   . . . O . O .     # & ",
"O .   . . .     . .     . O # l 2 2 , 1 1 2 2 2 2 2 1 1 , % , % % 1 1 % % , , 1 2 l x 2 , 1 , 1 , @ . .     . .       O # O & & ",
"p d p & p p d & p & & # & p p N x x l l j j f j l B N B N l l l l N N N l x x N N x N x j l N N j f p d p p p p & & & p p p # # ",
"z c z d d d z d d p p d d p p N x B N N B l l l V S B V B B B V B B B N x N x x N x N N N N N j f A z d d p p d p p p p p z # p ",
"p z & p & & # # p & & & p # & j l l s l l f % f V Z l N j j f j j j l s f j f f l f j l s j s % 1 Z d & p & & # # p & & & p # p ",
"p p & p O # # O & # & & & O & d j j 2 f j 2 % l Z V l l f j j 2 j j j s h f j s f l f j j j 2 % 1 B & & & # O & O & & # & p & d ",
"p d & & X & O # & # O & # # O j 2 l s j s , % l V B j f j f f j s j f 2 f j f s f f j l s j s % 1 B p & & O # O # & # O & # & d ",
"p p O # X O # X & O O & O O & f 2 j s f f f % f B V j l 2 j f f s f j 2 2 2 f 2 l 2 f f l f s % 1 V & o & o O # O # # O & # O p ",
"p p # . X X X . X O X O X X . % , 1 1 2 , % , 2 N x 2 2 2 2 1 2 2 2 2 2 2 1 1 1 2 , 2 , s s 2 @ 1 N p O o o . O . . O . O O # & ",
"& & O X . X X . X . X X X . . % 2 2 1 , , , , f l j 1 1 1 2 1 1 % % % % 2 2 2 2 % % , 1 1 1 2 , 1 f # O . o o . . . O . . . # & ",
"d p d d p p & & # O & z z d d z N N l j j j j l N x x N l N N x f s j N N B N N l l N x x l x N j c d p p & & d p p p d p d p p ",
"p d d p d d d d & # # c d d d c B N N N N N N x N N N N x N N j j l A B B B B B B B B N N N N N c z p & & O p z p & & p p p d & ",
"& & & & p & p #   O & c # & # p j j f l j f f f l f j j f j j , s l A N 2 j j j 2 l j f j j f j s p # # . # p p # & O & # # & & ",
"# & & # & # & O   X # z O & # p l j f l j f j 2 j j j 2 l h j , s N S N f j j j l j l f j f j l j & # O   # p p O O O & O O & O ",
"p # & & p # # O   # & c # # # p s s j j f s l 2 l 2 2 l 2 l j , s N S j l j j s l j f l f j j l f # + .   O p p # O # # & O # O ",
"# # # # & # & O . O & z O & X & f s f l f j 2 1 f f j j j l j , 2 j A N s x j l f j l f l f f j s & # #   . & p O # # O & O O # ",
"  . X . . X .     O & p O # O O % s 2 s 1 2 1 1 f 1 2 1 2 2 , @ 1 j V f 1 s s f s s d s f s 2 s % O . .   O & & O . . . . . . . ",
". . . . .   . . . X & & .     . # 1 s 2 1 % % % , , 1 1 1 1 , > R j l 2 1 1 2 s j 2 1 % % , 2 , + . .     o & &   . . . . . . . ",
"& p p p p p p p # & p & & & d d p N N N N N N N N l j l x x x @.1./ N B l N N B V N N x l N N x p & & & d p p & & d & # & & p p ",
"p p p p p p p p p p p & & & c z z B N V B V V V B l f l A B ^ &.6.o.M N N x N x N x N N x N N j p p & & p p p p p d p p p p p p ",
"# O # & O & O p & O &   # # z p & f l x l x l l f 2 f l V j U ;.9.@.i y / u f f f f f f f f j p # O   & p & # & X & & # & O & # ",
"& # O & O # O O # # X   o & z # & # l f l l f l , , s j ) j U ,.3.| K W T u l s l 2 j s x f f @ O #   & p # & O # O & O & # & O ",
"& O # # # p O p & O #   X & d & # & s j f l f l 1 % s l { j Y >.7.X.` ] | u 2 f 2 l f j j j & & # #   # p & & # O & # # # # # & ",
"# O O # # # O # # # &   . & d & & O & s f 5 f s 1 % 2 x O.[ P =.8.:.*.o.E 2 s j 2 f j s j j & & X O   & p & # & O # & # & # & O ",
". . . X . X X X O . X   O # & # O     + , , , , , % 2 x .. .+.<.q.3.#.` R 1 2 2 , 2 2 1 2 , . O . X   & & O O X O O # X O X O O ",
"    . .         .       # # # X . . . O , , , % @ % 2 s T  .%.5.w.5.#.L y 2 2 1 , , , , @     . .   . O & o o o X . . X . O X . ",
"d p p d p p p p p d z d p p & & & d p & f x B x N l x N ! X.O.2.0.-. .~ N N l l N x x N l p p d p p p p p p & p p & p p & d p p ",
"p d d d p p p p d p p p p & & & p c z d d N B B N x x x N m T #.%.| Q x l l f x V x x x d d d p p p p p # # # c d p p p p p p p ",
"& O & & # O # O p O O # O O   # p d & # & # 1 f j j j 1 j j t I ' J h s f , f x B f j + & # # & # # # & . O & z & & # X & # O # ",
"p X O & # # O & # O & O & X   # p d # O & O & j 2 j j l s g 9 H D 4 f 2 2 % f x B 2 % O & O O & # # O O   X & z # # # p O & # O ",
"# # # O O & # # & O O O & .   # p d O O & # O f s f j s f 5 7 G e 6 2 j 1 ; s x B s X & # # O O O & # #   . # z p # # O # O & O ",
"O # # X # # # O # O # # O #   & p d # O & O O # % f f 1 j 5 7 F e 6 f 2 5 , 2 j z O # # O & # O # # O #   . O z O # # X & # # & ",
"X . X . . . . X O . o . o     # p p   . O . . . . $ 2 1 1 2 - e q < 1 , , % 2 p & O o o . X . . . . . .     & p O O X X . O . O ",
". . . . .   . . . .   . . . . # & & o . . . . . . . . % , , 3 w q = % , % + O % &     . . . . . . . .       # & X . . .     .   ",
"p d d p p p d p p p & # p p p p p d p p d z d d d p p p d s 3 w r x C c z d d d p & p p p d p p p & # & p d p p p d d p p & & & ",
"p c z z z d z d z d & & z c z z d d d d z d d z d d d z d p = w q z z z z z z z d z z d d d d p d p & & c z z z d z d z d & # p ",
"p z & p p & & & & # X # z z & & & & & & & & p & & & & p # X $ 0 b p & & & & # p # p p & & # p # p # O # z p & p & & & p # X # & ",
"p d & & # & & # &     & d d p & # & & & & # # # # & & # O . $ 3 v # # # & # # & # & & O p # & # & . . & z # p O & & & & . . O p ",
"p d & # & & # # & .   & p z & & # & & O # # & O & # # & X   X & d # & & # # # O & & & # & & & O & O . & d & & & # & # & .   # & ",
"p p # & X & # # O .   O p p & & O # # # # O # O # # # O O . X # d # O O & O O O O # # O & O # # & X   & p & & O & # # O .   O & ",
"& & O O   .     .   . O & # O X . X . O X . . . .     .     . & & X X X . O . O . . .   . .   O       # & O O         .     O & ",
"& # . . .   .         O & # X . . .         .           . . # & # X X X . O . . X .       . . . . . . # & . . .   . .       X & ",
"d & & & p p p & & # & p & # & p p p p & p p p p & d & p d p d d & & O & d p d p d p d p & & p p p & # & & d p & O # z p p p & p ",
"z d d d p p p p p p p p & & & C z z d d d d d p d p p p p p d d p & # d c z d d d d z d d d p p p p p p d d d & # & z d d p d p ",
"& & & # # # & # # # & #   O & c p & & p # & # & & # & p # & & p O . # p z & & # & & & & & & # & # & # # p p #   O & z & # & & & ",
"# p & & O # # # & # & O   . # z # & # # # # # # & # # & O # & # . . # p p & p & # & O p & # O & # # & O & & O   O # d O # O & # ",
"& # & # # # O & # # # O   X # c # & # & O & # O & # & # # # & & .   O p d & & # & # & & & & # # # & # O & & #   . # d & # O & # ",
"O & # O # # # & O & & O   O & z p O # & # O O O O # # X # # # # .   O p p # & o & # O & O O O O # & O # & & O     & p O O O O O ",
"  O .   . . . X . . .     O p d # O X X O O X X O . X X o X . o     # & & X o   X X . O .   . . O . . . O X .   X # p O X X O O ",
". .   . .       .       . O # & O X . X . . X O O       . .   .   . # p # . .     . . .     .         .     . . O & & . X O O   "
};
