/* XPM */
static char *torch09w601743666765[] = {
/* columns rows colors chars-per-pixel */
"64 64 118 2 ",
"   c #151515",
".  c #1C1C1C",
"X  c #242424",
"o  c #272A2A",
"O  c #2C2C2C",
"+  c #3C2F27",
"@  c #302B28",
"#  c #37302D",
"$  c #2D2F30",
"%  c #2E3535",
"&  c #333333",
"*  c #3A3634",
"=  c #3E3934",
"-  c #303738",
";  c #343C3C",
":  c #3B3B3B",
">  c #4D3528",
",  c #5F3E2C",
"<  c #423D39",
"1  c #533F32",
"2  c #3E443F",
"3  c #5F402F",
"4  c #44423E",
"5  c #4F453F",
"6  c #574437",
"7  c #5C4531",
"8  c #5B463C",
"9  c #4C523F",
"0  c #595E3E",
"q  c #6D442E",
"w  c #77482F",
"e  c #74502B",
"r  c #654331",
"t  c #694733",
"y  c #6C4834",
"u  c #664A39",
"i  c #774931",
"p  c #7C4C32",
"a  c #704C39",
"s  c #625E34",
"d  c #5D613A",
"f  c #72753E",
"g  c #7A7C3B",
"h  c #383F40",
"j  c #3C4444",
"k  c #424343",
"l  c #464947",
"z  c #4A4945",
"x  c #444C4C",
"c  c #4A4B4B",
"v  c #515545",
"b  c #56504A",
"n  c #4C5454",
"m  c #505252",
"M  c #545B55",
"N  c #535B5B",
"B  c #5F654D",
"V  c #6E7348",
"C  c #707549",
"Z  c #636751",
"A  c #6C7254",
"S  c #585F60",
"D  c #5A6262",
"F  c #616969",
"G  c #875E2D",
"H  c #825035",
"J  c #895438",
"K  c #95672E",
"L  c #A59516",
"P  c #B3AE0E",
"I  c #BFAC0D",
"U  c #AEA918",
"Y  c #B3AF1F",
"T  c #B6B011",
"R  c #BAB518",
"E  c #888727",
"W  c #9B9721",
"Q  c #9B982C",
"!  c #858630",
"~  c #A29E22",
"^  c #C1AD0E",
"/  c #C7BD07",
"(  c #C8BF07",
")  c #C1BA0A",
"_  c #CCC309",
"`  c #D3C902",
"'  c #D8CE00",
"]  c #DBD206",
"[  c #E0D501",
"{  c #E5DA04",
"}  c #E1D60B",
"|  c #E8DD09",
" . c #E5DB13",
".. c #E8DE1B",
"X. c #EBE006",
"o. c #F0E60C",
"O. c #EDE316",
"+. c #EEE51E",
"@. c #CDCB35",
"#. c #F5EC25",
"$. c #F3EA2F",
"%. c #F9F026",
"&. c #FAF029",
"*. c #FEF63A",
"=. c #EEE74D",
"-. c #FCF445",
";. c #FEF748",
":. c #F4EF52",
">. c #FEF851",
",. c #F4F05E",
"<. c #F6F162",
"1. c #F7F36C",
"2. c #FBF76C",
"3. c #F4F072",
"4. c #FDF974",
"5. c #FDFC8F",
"6. c #FDFB9B",
"7. c #FBFEB7",
/* pixels */
": : : : : : : : : * $ $ * : : : - ; * n n N N N N n n N n x j n N S S N N N n n n j N n j j ; * * : : : : : * & O & : < : : * : ",
": k k k k : k : k : @ O k c k : j j n N N N N S n N N S N n j n D D D D D D N D N D D N D j ; 2 : h : k k k k $ O O m c h k k : ",
"& - & & * $ & @ $ o . O k k $ $ % - N j x n n x x x x n j j j x D n n n n n j N j N N n N j j $ : O & & & $ O . . $ b : $ * $ & ",
"& @ O & o $ & o $   . O h < & * j j j N x x x j x x x x j j j n N j j j n j j x j N j j j j j % & X O & O O O   . $ c $ $ O O & ",
"O & O O $ O O O @ .   O : : & & - j j j j j j j x x x x j ; 2 j N n j j j x x j j j n j N j j o O X o @ o O O   . $ k & O @ O & ",
"O O $ @ X $ X O X . . X * : $ O j j j j j j j j x j j j j ; j x N j j j j j j j j j j j j j j j O X o X X O .   . O k $ $ O O O ",
"  X X X         .   . X & o X X - j j j j j j - ; - ; ; - - j j j j j j j - j j j j - - j j j j X .   .   . .   . O : o X .     ",
". . . . . . . .       X $ O . % j - % - ; j j j % % ; ; ; ; j n j j - h h 2 2 ; - - - j j j j j o   .       . O o . X . . X X . ",
": : $ O & & & $ $ O $ & O @ $ m N n j j N N j N j j n N N j S j n N n N S N j N j j D N N j S j x * & & O O & O @ $ O & & $ O O ",
"c : : : * : * * : & & : $ $ h F D F D D N N D D F N N D N N n N n N n N n D D j j j F D N S S N S z h k : * : : * * : * : & $ & ",
"k $ $ O O O @ O O O & O   X j F S j j N j j j j j j j j j j j N n j j n N j j - j j D N j N j j x h O & o O X # O X & $ X . o $ ",
"k & $ $ X $ o O O o @ X   . k S j j n j j j N j N j N j j j n j n j j n j j j - j j D j N j N N l h & O O X O O O O O $ X   . O ",
"k O $ O X O o & O O O X   o x S j j n N j j j j j j N j j j j j j j j j j j j h j j D j j N j j x c O $ o X o o # o $ X .   X O ",
"4 O o X o O X $ . O $ X   $ x S j j j j j j j j j j j j j j j j j j j j N j j % j j S N j j j j h x $ O X o O X O X $ # X   o & ",
"& X .   . X . . . . .     - n N j j j j j j j j j j j j j 2 j j j j h j j j - % j j N j j j h j h h o .   . X . X   . . . . X & ",
"X .   . . .     . .     . h x x j j - j j j j j j j j j j % % j j j - - j j - j j j j j j j j - h - O .       . .   . . o X $ @ ",
"* : & & : : : & * & O o $ c n n n n x n x n h x j D n N n j j n n n n n j n n N n n n n n n n n j x x h & : & * & O O & & * O O ",
"k c k k : : 4 h h * * h : m n N n N n N N x x n S D S S S D S D N N N N N n n S N n n n n n n j x S m h h * : : & : : : h : O * ",
": k & & # & o o * $ $ $ h k x n x x j n n h h j S S j N j N j n j j N j j n j j j j n x j j j h h S m & & & O O O & & O & : O & ",
"* * O & X X O X $ @ $ O $ k c h x x h x x h h n D D n n j j j j j n j j n j n j j n j n j n h % h m x & # o X O X & O O O * O h ",
"& h O & . O X X & X X & o x h x j n j x h h h x S N j j n j j j j j j j j j j j n j x n j n h h h N n $ & X o o O $ o X & O O h ",
": * X O X X O X O X o $ o h x h j j j j j x h j N S j n j n j j j n n j j h j j n h j j n j j h h S x X $ . X $ X o @ X O O X & ",
"& * X X X . . . . X . X X h h h h h h h h % h h N n j j j j j j j h j j j h h h h h j h h j h % - N x X . . . . . . X . X . o # ",
"$ $ X . . X . . . X . . . h h h j j h - h h h j j j - j j j j j - - h h h h h h % h h h h h h h h x x . . X X . . . X . . X o O ",
"h < * h * & & O @ o & k k m S n n n x x j n j j S n n N j S N n j j j N N N n n x x N n n n n N x N c h h # # : * h h h $ h h # ",
"* h h * : h : h & X o c h m N N N n n N N N N n N n n n n S n j j j D N N N N N N S N n n n n n n m c # O X h : * $ & * * * h & ",
"# O # & & & # O   X O c O h h n j n j n n j j j N j j j j j j - j n F n j n j j h n x x j x x x k x h X   @ & h o @ X @ O X @ O ",
"O o & o & o & X   X X k o j x x n j j n j n j j j j n j n n j j j D F n j j N j x x n h n h x n x x h X   X # h X X X $ X X & X ",
"& o $ $ # O O X . X O c O & x c j j n j x j j j N j j n j j j j j S F j n j n j n x h n x n x x x h h .   o & : O X O o O X X X ",
"O o $ o O O O X   @ O k X & h c n j j j j n j h j j j j j n j j j j F S j n j n x x n j x h x n h n $ X     & & X O X X & X X o ",
". . . . . X   .   X O & X o h h j j j j j h h h j j j h j j j - j j D j j j j j h x h h x h h h h h . .   X & # X . . . X . . . ",
". . . . . . . . . X & & .   O h h j j j h h - - j j h h j j j A B j j j j j j j x h h h h h h h h $ .     X O O   . . . . . . . ",
"& * & & : : & & O O : $ $ $ k N n n n n n n N n n x j n n B @.=.Q S N N j n N N D N n n x n n n n : O & : : * $ & : & O O & : & ",
"& & : : & : & : * * : $ @ $ m S S D N D N S S D N n x n A Y $.,. .Z N N N n n n n n n n n n n n n - O O : & & : & : * & : - : * ",
"$ X O O X & o # $ X $   O O l k j N j S j n N n j j j n C _ -.4. .v j j n j j j j x x x x x x x - X . O : O O O . & O O @ X O O ",
"O o X O X O . o o O X   . O k & n j n j N j j j - 2 j x C _ 2.:.` E 2 j j j n j x j x j n x j x O O . O : o O o O X O X & o O X ",
"O X o O o # o & $ X o   . @ k $ j j j n j j j n 2 - j n V I 1.1.{ _ R j n j j j j x x x x x j c O o . O * $ O O X $ O @ O O X $ ",
"O X X o O $ X O O X @   . O : $ j j j j j j j n - - j g ~ _ %.>.;.O.W j j j j n j j x j x x x - . X   $ : O O @ X O O X O O $ X ",
". . . . . X . . X . X   X O $ X X % j j 2 - % j - - j f ` ] +.<.6.#.] j 2 2 j j h j j ; j h - X . .   @ O X o X X . X X o . X X ",
".   . .       . .       o O @ . . . - j - - j - - % j d / | *.5.7.+.U - - j j 2 - ; ; ; % % .   . . . o $ . . . . . X . . X . . ",
": * : : * h & & & k k : : & $ & - ; j x n n n n n x n N ~ ' &.4.4.X.! n n n x n n n n n N j : : & h & & * * $ * : & & h & : & & ",
"< h : : & * h * < - & : * & $ $ ; x k N N N N N N n n n Z ~ ] o.X.P f n n n j n N n n n n < : : & * h * O o O c : : : * * : & : ",
"O X O O @ X o X * X X @ X X   O ; : & & x j ; x x x x h x b L I I d j j j ; j n N j x j $ O O @ O o O O   X $ z O O @ . $ $ X O ",
"& X X & X o X $ X o $ . $ .   $ * : X X : j j x h x x n j z w K G 7 x j j ; j n N j j o $ X X @ X @ X o   . $ k o O O $ X O O X ",
"o o X X X @ O O O . o X $ .   O * : X X & & j x h x x h k 5 q J p 3 2 x 2 - j n N x o O O O X o X $ o o   . O k & o @ X O X O X ",
"X O o X O O X X o O O O X o   O : : O X $ X % j h h x h c k r H i 6 j 2 j - j x n o O X X $ o o o O X O . . X k X o o X O o o $ ",
". X X . . . . X . . . . . .   O - & .   . . . X h h h h h h 1 w t 4 2 ; h - j j & X . . . . . . . . . .     O < X X . . . X . X ",
". . . . . . .   . . . . . . . O * @ X . . . . . . X $ h h h 1 w t = % ; - o X % O   . . . . . . . . .       o # . . . . . . .   ",
"# : : h h * h : h & & O h : h & h h # * k : k : : : * k k k 8 i a m m m k : : : h & & : : : & h * & O & h : * * h * h * & & O # ",
"h c k k k : < : k : O O k k k < k : : : k k : k : k : k : h > i y 5 k k k k k k * k k : : : : : : * & O c k k k : k k k : & O & ",
": k $ # & & & # # X . O : k # $ $ # # $ O # & $ $ # & h X . # q a h $ $ h # O & O & * $ * O & X & o X O c & & * & & $ & X X X h ",
"h : $ # o & & X #   . O : h # h O $ $ O $ O $ X O O O X X . @ , 8 X O X # X O & O $ $ X & O # X & . . O k O & X O # O $ .   X & ",
"* h O O O $ X O # .   O : : $ & O O $ X O O O X O X O O . . X # < O O # O O X X $ $ # O & O $ X & X . O k O @ O O O O $ X   X & ",
"& * O $ X $ X @ X . . X h * $ # X O O X O X O X O O X X . . . O * $ X X O X X X X O O . O X O O O .   O : O $ X O O X O .   X & ",
"& O X X   .     .     X $ O X .   X . X .   . . .   . . . . . O $ X . X . X . . . . . . X . . X . .   O $ X X .       .     . # ",
"O o . . . . . .     . X $ O . . . .       . .         . . . X & X . . . . . X X . .         . . . . . o $ . . . . . .       . & ",
": & $ # $ h & O O O $ h O O O * : : & & & : * h # & & * : : : * h O X $ : * : * * h * # & $ $ * & O O O h * * $ o X : : h h O * ",
"c : : : * * * h h h * * O O $ m : k : k : : : * : h h * : : : * & O O : c k k : k k k : : : h * * h * h * k : $ O O k h : * * h ",
"$ O $ O O O O O X @ $ O   X O c $ & O & $ $ O $ $ O $ & O $ & h X . O : k $ & O $ $ O @ $ $ O O O O O X h $ O   X O k # O # O O ",
"X h $ O X O @ O X @ $ X   . O c O # O $ O X O X O O O $ . O $ O . . O & h $ & # O O X h $ # X $ X O # X $ @ X   X O k X O X O O ",
"# O # O X O O $ O O O X   . O c O # $ $ X $ X X $ X # X O X $ # .   X & * $ $ X $ @ $ O O O X O O O $ X h O X   . O : O X X $ O ",
"X $ O . X O X O . O $ X   X # k & X X $ O X X X X O X X O X X $ .   X h & $ $ X O O X & X X O X O O X O $ O X   . O * X X X X X ",
". X .   . . . . . . . .   X & : X X X . X X . X X X X . . X . .     X $ # X .   . . . X . . . . X . .   . X     . O & X X . X . ",
"  .   . . .     . .     . X O $ X X . . . . . X X       . . . . . . O # O . . . . .   . .     .     . .   . . . X # h . . X X   "
};
