/* XPM */
static char *torch03w601743666765[] = {
/* columns rows colors chars-per-pixel */
"64 64 110 2 ",
"   c #151515",
".  c #181817",
"X  c #1C1C1C",
"o  c #21211F",
"O  c #242424",
"+  c #2B2B24",
"@  c #2C2C2C",
"#  c #3C2F27",
"$  c #302B28",
"%  c #303026",
"&  c #35352B",
"*  c #3B3B2D",
"=  c #333333",
"-  c #3A3634",
";  c #3E3E32",
":  c #3B3B3B",
">  c #4D3528",
",  c #433928",
"<  c #483F2F",
"1  c #563F2C",
"2  c #5F3E2C",
"3  c #413B39",
"4  c #726F1E",
"5  c #5F452C",
"6  c #424235",
"7  c #4D4534",
"8  c #4A4A35",
"9  c #464639",
"0  c #4F453F",
"q  c #4B4B3D",
"w  c #5C4532",
"e  c #5B463C",
"r  c #50483A",
"t  c #585332",
"y  c #53513A",
"u  c #63422D",
"i  c #6D442E",
"p  c #77482F",
"a  c #75502A",
"s  c #6A4630",
"d  c #6C4834",
"f  c #664A39",
"g  c #764A33",
"h  c #7C4C32",
"j  c #69672D",
"k  c #7D7A2E",
"l  c #6D6B3C",
"z  c #727036",
"x  c #7E7B37",
"c  c #434343",
"v  c #4E4E41",
"b  c #4A4A4A",
"n  c #535345",
"m  c #5C5243",
"M  c #565649",
"N  c #5A5A4C",
"B  c #505050",
"V  c #5E5E50",
"C  c #676648",
"Z  c #626254",
"A  c #67675A",
"S  c #875E2D",
"D  c #825035",
"F  c #895438",
"G  c #95672E",
"H  c #817D34",
"J  c #9C8E16",
"K  c #97921F",
"L  c #A39D17",
"P  c #BEAB0D",
"I  c #AFA815",
"U  c #A7A01E",
"Y  c #BBB314",
"T  c #B7B118",
"R  c #8D8925",
"E  c #908B25",
"W  c #938E2C",
"Q  c #989223",
"!  c #8B8732",
"~  c #C4AF0F",
"^  c #C8BF05",
"/  c #C6BD09",
"(  c #CEC306",
")  c #C9C00B",
"_  c #D1C705",
"`  c #D3C902",
"'  c #D2C808",
"]  c #DFD404",
"[  c #DAD010",
"{  c #E2D603",
"}  c #E5D903",
"|  c #E8DD05",
" . c #F3E606",
".. c #F6EB13",
"X. c #F9EE15",
"o. c #FCF118",
"O. c #EAE025",
"+. c #F0E930",
"@. c #FEF746",
"#. c #EBE550",
"$. c #F4EF5D",
"%. c #EFEC6F",
"&. c #FDF965",
"*. c #F6F378",
"=. c #FDF980",
"-. c #FCFB8D",
";. c #FDFB97",
":. c #FDFB9B",
">. c #FBFEB6",
",. c #FBFDB8",
/* pixels */
": : : : : : : : : = @ @ = : : : : : = : : : c : : : : : : = @ @ c c c c c : : : : = = = : : : = : : : : : : : = @ @ : c = = : : ",
": c c c c : c : c : = @ c b : c : c c : c c : c : c : c : = O = b c c b c c c c : c c c : : : : : : c c c : c = @ @ B b c c c : ",
"@ = = = = = @ = = O X @ c c = = = @ = = @ = = @ @ = @ : @ X + = c = = @ = = @ = O = : @ = @ = @ = @ = = = = @ X X = B : @ : = @ ",
"= = @ = O = = @ =   X @ : : = = @ @ @ @ @ @ @ @ @ @ @ = & * 9 v V 9 ; = = O @ = @ = @ O = @ = O = @ @ @ @ @ @   o @ b @ = @ @ = ",
"@ = @ @ @ @ @ O = X . @ : : = = @ @ = O @ @ @ O @ ; 9 q 6 * ; q M q q y q : @ O = @ = @ = = = O = O @ @ O = @   O @ c = @ @ @ = ",
"@ @ @ @ O = O @ O X . O - : = @ o @ @ O @ O @ & 9 q 8 9 6 * ; q M q 6 9 q 6 6 & O @ @ o @ O O O @ O O O o @ X   X @ c @ @ @ @ @ ",
"X O O O     .   X   X o = O o X X o X o X X & * ; & * * * & 6 q v 6 ; ; ; ; ; ; & X X X o . X o X X   X   X X   X O : @ o X   X ",
"X X X X X X X X     . o = @ o X X X .   . % ; & & & * * * * 9 v 9 ; ; ; ; ; ; * * % . X X X X X X   X       X @ @ X O X X O o X ",
": = = @ = = = = @ @ @ = @ @ @ : : : = = v M n n v v n n n v M v v N M N N M M y 9 6 n : : : : : = = = @ @ @ = @ @ @ @ = = = @ @ ",
"b : : : = : : = : = : = = @ = B : c : n M N M M N M M n n M M v M M M M M N N q q 9 A V : : c : c c : c : = : : : : : = : = @ = ",
"c = = @ @ @ @ @ @ @ = @   O @ b = = : v q v q v v q v 9 v q q v y q q v q q q * 9 q Z M * = @ @ = @ @ = @ @ O = @ @ @ = O   @ @ ",
"c = = @ O @ O @ @ O = O   X @ c @ = q q q 6 9 9 y 6 q q 9 6 9 v v 6 q v q q 6 * ; 9 V v q : @ = @ @ = @ @ @ @ @ @ O @ @ O   O @ ",
"c O = @ O @ O = @ O @ O   X @ b + 9 q v 6 q 9 6 v 6 v 9 9 q 9 y 9 9 9 q 9 q 8 & * 6 V M q 6 @ = @ @ @ = @ O @ O = @ @ @ X   O @ ",
"c @ @ o O @ @ = o @ = O   O = c ; 6 9 v q 9 6 9 6 9 q 9 6 q 9 8 6 q 8 9 q 9 8 & & q N q q 9 + @ O @ O @ O O @ O @ O @ @ O   O = ",
"= o X   X X X o X X X . . O = : ; ; ; ; 6 6 6 ; 6 ; 6 ; 6 ; ; ; ; ; 6 ; 6 ; * & * q M q ; * + O . O X X   X X X O   X X . X @ = ",
"O X   X X X     X X     X O @ = 6 6 ; ; ; ; ; 6 6 6 ; ; * * * * * * ; & * ; * ; 6 q v 6 ; ; * o X   X X     X X X     O @ O @ @ ",
": : = = : : : = = = = = @ = : 9 v n q n q q q q y N M M M v v v n n n M v n n M n n M v v n M q @ @ : : = : = : = @ @ = : = @ @ ",
"c b c c : : c : : = = : : : : v M M n M N q q n V A N V V N N N N N N n n M n n M n M n n n n 6 @ b c : : : : : = : : = : c @ = ",
": c = = @ = @ O = @ @ @ = @ = c v c 9 n v 8 * q N V v M q v 9 q q q n 6 9 q 8 9 v q v v 9 v 9 * X c : = = = @ @ @ = @ = = : @ = ",
"= : @ = O @ @ O = @ = @ = O = 9 v v 6 9 q 6 * q Z V v v 9 q q 9 q q q 9 v 9 q 9 9 v 9 q q q ; * O : = @ = O O = O = @ @ @ = = : ",
"= : @ = X @ O @ = O O = @ O * v 9 q 8 q 9 * * q V M v 9 q 9 9 q 9 q 9 6 8 q q 6 q q q v 9 q 9 & @ c = @ = O O O @ @ O O = @ @ : ",
": : O @ o O @ X @ O @ = O O 6 9 6 q 9 9 9 q * 9 N N q v 9 q q q 9 q q 6 6 6 q ; q 6 9 q v 8 6 * @ c = X @ O O @ O @ @ O @ @ @ = ",
"= = O X O X X X O o o O o o & * * ; ; 6 * * * 6 M n 6 9 6 ; ; 6 ; ; ; ; 6 ; ; ; 6 * 6 * 9 8 ; & * : = O X O X X X X O O o O O @ ",
"= = O O X X X O X X X X o X * * 6 6 ; ; * * * 9 y q * ; ; ; * 6 * * * * ; 6 6 ; * * * * * ; ; ; * @ = O X X X O X X X X X O @ @ ",
": : : : : = = = O O = c b : N M n n y v q q q v M n n M v M n n 9 9 q n M N M M n q M n n n n M b c : = = = @ : = : : : = : : : ",
": : : = : : : : = @ @ b : : N N N M M M M n M n M n n M n M M q q y Z N N N N N M V N n M n M N v = : = = @ = c = = = = : = : = ",
"= @ = = = = = @   O @ c @ @ 9 v q q 9 v q 9 q 9 v q q q q q q * 9 q A n 9 q q q 6 q q q q q q q 9 @ @ @ X O = : @ @ O @ @ @ @ @ ",
"@ @ = @ @ @ = O   O O b O = q q q q q v q 8 q 6 q q q 9 q v q * 9 M A n q q q q q q n q q 8 q q q @ O O   @ = : O O O = O O @ O ",
"= O = @ = @ @ O   @ = b @ @ 9 v q 6 q q 9 9 q 6 q 9 9 q 9 q q * 9 M A q q q q 9 q q q q q q q v 9 O O o   O = : @ X @ O @ O @ O ",
"= O @ @ @ @ = O   O @ c O = - v q 9 q y q q q * q q q q q y q * 6 q Z M 9 n q n q q q q n 9 q v : = @ O X X @ : O @ @ O @ O O @ ",
"  X O X X X X     O @ = X @ = 9 6 6 6 9 ; 6 ; * 6 ; 6 6 9 6 * & * q N q ; 9 6 9 6 9 9 6 9 6 6 6 * O o X   O = = O X X X O X X . ",
"X X   X X X X X X O = = X   O = ; 6 6 6 * * & * * * * * ; * * ; 9 q y 6 ; * 6 9 q 6 ; * * * ; * @ X X     X @ @   X X X X X X X ",
"= = : = : : = = @ @ : @ @ = : N M n n M n M N M M v q n M n n k H M M N q M M N V M n n q M N n : = @ = : : : @ = : = @ @ @ : = ",
": = : = = : = : : = : @ @ @ B Z N Z N Z N V N N N v 8 q Z N W #.| ! N M M n M n n M M n n M n v : = @ @ : = = : = : = : : : : : ",
"@ O @ = O = O = @ O @ . O @ c b n n q n v v v n 9 ; 9 n C R O.-.{ 8 9 6 q q 9 8 9 q 8 9 q q q 9 O O . = : @ @ @ O = @ @ @ @ @ @ ",
"@ O o @ O @ X @ O @ O X O @ c : n 9 v 9 q n q v * * 9 q x ' *.+.` R 6 q 9 9 q 9 q 9 q 9 y q q - O @ . @ : O = O O O @ O @ O @ o ",
"= o @ @ @ = O = = O O . X = : @ 8 v q q q q 8 q 6 * 9 q x ( %.$.{ / Y K q 9 6 9 6 q q q q q 6 = @ @ . @ : @ @ @ o @ @ = @ @ @ @ ",
"@ o O @ @ @ o @ @ O =   X @ : = 6 6 q 6 q 8 9 9 * * 9 T Q ^ ..&.@...[ j q 9 9 q 6 8 q 9 q q : @ o o . @ : @ @ @ O @ @ O @ @ @ O ",
"X X   X X o X o O X o   O @ = O O & * * * * * * * * ; z ' } o.*.;...{ L ; ; ; 6 * 6 6 6 9 ; o O X X . = @ O O O O o O O O o O O ",
"X   X X .     . X   . . O @ @ X o % - * * * * & & & 6 9 ( | o.>.>. .` 4 ; 6 6 * * * * * * o . X X . X O = X X X X X X o X O X X ",
": = = : : : = = = c c : = : = @ = : v v v M N M n q n M ) ` ..;.&.] ) v M n v q N n M M M : : : = : = = = = = = : = = : = : = = ",
": : : : = = : : : : = : = = @ = : b b V N N M N M M M n l U ` ..| I l n n v 9 n N n n n 9 : : : = : : = @ @ @ b : = = = : : = : ",
"= O = @ = O @ O = O O @ O O X @ : : = 6 q 6 * 9 q q q 6 q y J ~ P t q 6 9 * 8 n M q 8 * @ @ @ @ @ O @ = X O = c = @ = X @ = O @ ",
"= O O = O O O = O O @ o = X   @ = : + O q 6 9 q 6 q q q 9 r a G S 5 q 6 6 * 9 n M 6 ; O = O O = O = O O   X @ b O @ @ = O @ @ O ",
"O O O O O = @ O @ o O O @ X   @ : : O o = ; 9 q 9 8 q 6 0 7 i F h 5 7 q ; * 9 n V 9 O @ @ @ O O O @ O @   X = c = @ @ O @ O = O ",
"O = @ O @ O O O @ O @ @ O O   @ : : @ O = O ; 9 ; q 9 6 q 7 u D g w 8 6 9 & ; q b O @ O O @ O O @ @ O @   X O : O @ O O @ O @ @ ",
"O X X X X X X O o X X X o X X @ = = X . O X X % ; 6 6 ; * 6 1 p s 6 ; * * * 6 9 = O X X X O X X X X X X   X @ : O O o X X X X O ",
"X X X X X X X X X X X X X X X @ = @ o X X X X X o % * * ; * 1 p s , & * * o o % @ . X X X X X X X X X X     O = X X X X X X X   ",
"= : : = = : : : = = @ @ = : = : = : : = c c : : : : : c b 0 w p d m b b c c : : = = = : : : : = = = @ = : : : : : : : : : @ @ = ",
": B b c c : b : b : = @ c b c : : c c : c : c c : c : c : = > h f c b c c c c c : c c : : : : : : = = = b c : c : c : c : = @ : ",
": c = = = = = = = O X @ : b = = = @ @ = @ = = @ @ @ = = @ X # i f : = @ = @ @ = @ = : @ = @ = @ = @ X @ b = = : = = = = O O O = ",
"= : @ = O = = O =   X @ : : = = = @ @ @ @ @ @ @ @ @ @ @ X X $ 2 e @ @ @ @ @ O = @ = = O = @ @ O = X X @ c @ = O @ = O = X X O = ",
": : @ @ @ @ @ @ = X X @ : : = = @ @ = O @ @ @ O @ @ O @ O   O = 3 @ @ = @ @ @ O = @ @ @ = @ @ O = o X @ : @ @ @ @ @ @ = o   @ = ",
"= = @ = X = O @ O X   O : : = @ O @ O @ @ O @ O @ @ @ O O X O @ : @ O O @ O O O O @ @ O = O @ @ @ o X @ : @ @ o @ @ O O X   O @ ",
"= @ O O     X   X   X X = O o X X X X X X X X X X     X     X @ = o X o O X O X X X   X O     O X X   @ = O O X       X X   O @ ",
"= @ X X X X X       X O = @ X X X X X     X X         X X X O = O X o X X X X X O X       X X X X X X O @ X o X X X X       X = ",
": = = @ = = = @ @ @ @ = @ @ @ : : : = @ = : = = @ : = : : : : : = @ O = : : : = : = : = = @ = : = = @ @ = : = @ O @ c : = : @ : ",
"c : : : = : : : : = : : = @ = B c c c c : : c : c : = = : = : c = = @ : b c c : c : b : : : = : : = : = : c : = @ @ c : : : : : ",
"= @ = @ @ @ @ @ O @ = O   O @ b = @ @ = @ @ @ @ @ @ = = @ @ = = O X @ : c = = @ @ = = @ = = @ @ @ @ @ @ = : @   O @ c = @ = @ @ ",
"O = = @ O @ O @ = O = O   X O b @ = @ @ @ O @ O @ @ @ @ O @ = O X X O : : @ = @ @ @ O = @ @ O @ O @ @ O = @ O   O @ : O @ O @ @ ",
"= @ = @ O @ O = @ O @ o   X O b @ = @ @ O @ O O @ O @ @ O @ @ = X   O - : @ = O = O = @ = @ O @ @ @ @ O = = O     @ : @ O O @ @ ",
"O = @ o O @ @ = O @ = o X o = b = O @ @ @ O O O O @ @ O @ O @ @ X   O = = @ @ O @ @ O = O O O @ @ @ O @ = @ O   X @ : O O O O O ",
"  O X   X   X O   X X X X O = : O O X O O O X O O X X X X O X X     O = = o X . X O X O     X X O O   X O O     X @ = O O X O X ",
"X     X X X     X X     X O O = O O X X X X o O O     . X X X X X X @ = @ X X X X X X X   X           X     X X O = = X O O O   "
};
