/* XPM */
static char *torch08w801743666765[] = {
/* columns rows colors chars-per-pixel */
"64 64 189 2 ",
"   c #272727",
".  c gray25",
"X  c gray29",
"o  c gray28",
"O  c #494949",
"+  c #484848",
"@  c gray27",
"#  c #414141",
"$  c #4B4B4B",
"%  c #464646",
"&  c gray26",
"*  c #3F3F3F",
"=  c #4C4C4C",
"-  c #444444",
";  c gray24",
":  c #2A2A2A",
">  c #4E4E4E",
",  c gray30",
"<  c #535353",
"1  c #3A3A3A",
"2  c #515151",
"3  c #505050",
"4  c gray31",
"5  c gray34",
"6  c gray17",
"7  c gray13",
"8  c #434343",
"9  c gray21",
"0  c #3E3E3E",
"q  c #3C3C3C",
"w  c #373737",
"e  c gray23",
"r  c gray22",
"t  c gray33",
"y  c gray20",
"u  c #343434",
"i  c #353535",
"p  c #313131",
"a  c gray32",
"s  c #232323",
"d  c gray11",
"f  c #393939",
"g  c #222222",
"h  c gray12",
"j  c gray19",
"k  c #1E1E1E",
"l  c gray6",
"z  c #323232",
"x  c #2F2F2F",
"c  c #111111",
"v  c #101010",
"b  c #282828",
"n  c #555555",
"m  c #202020",
"M  c gray18",
"N  c #1D1D1D",
"B  c #2D2D2D",
"V  c #2C2C2C",
"C  c #252525",
"Z  c gray16",
"A  c #181818",
"S  c gray15",
"D  c gray14",
"F  c gray10",
"G  c #191919",
"H  c #151515",
"J  c #161616",
"K  c gray8",
"L  c #1B1B1B",
"P  c gray9",
"I  c gray7",
"U  c #131313",
"Y  c #74712F",
"T  c #767331",
"R  c #8A852C",
"E  c #EAE450",
"W  c #E6DB03",
"Q  c #817D31",
"!  c #595846",
"~  c #898426",
"^  c #E9DF26",
"/  c #FCFB8D",
"(  c #E2D705",
")  c #404038",
"_  c #737036",
"`  c #D0C708",
"'  c #F6F378",
"]  c #F0E930",
"[  c #D2C800",
"{  c #868226",
"}  c #767236",
"|  c #CBC106",
" . c #EFEC6F",
".. c #F4EF5D",
"X. c #E5D900",
"o. c #C3BA08",
"O. c #B7AF15",
"+. c #918C21",
"@. c #B2AC19",
"#. c #918B22",
"$. c #C7BE05",
"%. c #F5EB12",
"&. c #FDF864",
"*. c #FEF746",
"=. c #F4E912",
"-. c #D9CF10",
";. c #615E30",
":. c #0E0E0E",
">. c #686637",
",. c #D0C605",
"<. c #E3D801",
"1. c #F6ED17",
"2. c #FDF980",
"3. c #FDFB9B",
"4. c #F9EE15",
"5. c #DFD404",
"6. c #9F9919",
"7. c gray5",
"8. c #0C0C0C",
"9. c #CEC406",
"0. c #E5D906",
"q. c #FCF118",
"w. c #FBFDB8",
"e. c #FBFEB6",
"r. c #F3E606",
"t. c #D3C902",
"y. c #6D6A22",
"u. c #C5BC0B",
"i. c #D4CA00",
"p. c #F7EC12",
"a. c #FDFB97",
"s. c #FDF965",
"d. c #E1D500",
"f. c #C6BE0B",
"g. c #615F3C",
"h. c #A19A1E",
"j. c #D2C804",
"k. c #F6EC11",
"l. c #E8DD05",
"z. c #ABA415",
"x. c #605E3B",
"c. c #49473C",
"v. c #9A8B17",
"b. c #C4AF0F",
"n. c #BEAB0D",
"m. c #504B35",
"M. c #473F3B",
"N. c #744F2A",
"B. c #95672E",
"V. c #875D2D",
"C. c #5C422D",
"Z. c #433E3C",
"A. c #463C36",
"S. c #6F432D",
"D. c #895438",
"F. c #7F4E34",
"G. c #5E3E2D",
"H. c #3F3A37",
"J. c #433D39",
"K. c #64412F",
"L. c #825035",
"P. c #774B33",
"I. c #563F32",
"U. c #413E3C",
"Y. c #523B2E",
"T. c #77482F",
"R. c #674531",
"E. c #423933",
"W. c #533C2F",
"Q. c #774830",
"!. c #694431",
"~. c #3F352E",
"^. c #574033",
"/. c #6E4936",
"(. c #534943",
"). c #533B2F",
"_. c #784930",
"`. c #6E4A36",
"'. c #33261E",
"]. c #6A432D",
"[. c #5E4231",
"{. c #2A2624",
"}. c #241F1C",
"|. c #5C3A29",
" X c #4F3A30",
".X c #161515",
"XX c #2A2320",
"oX c #312B29",
"OX c #0B0B0B",
/* pixels */
"  . X o o o O + o @ # . @ O o o o o o o $ $ $ $ X o o o % & * . = = = $ $ $ + + % - - % % X o @ @ o O o X o o - . & % $ o o ;   ",
": + > = > X > $ , + # * = < = = $ $ $ X = $ $ = X $ $ > X - 1 & 2 3 2 3 > 4 = 4 X , , $ X O $ + X $ $ , > $ = & ; . 5 2 = , @ 6 ",
"7 . 8 - @ & 8 & 8 1 9 0 $ > & & & . & & . 8 @ . . & & @ q w e 8 > @ 8 . @ # 0 @ ; @ % . - ; - ; @ . & - 8 8 . r 9 . t O . @ 0 7 ",
"7 0 . - e 8 8 q . y u 0 $ X @ - . . . . . * * q 0 . * ; r i e & = * ; q & q ; & ; & & 1 8 * # q & ; 0 & # * e p 9 . a . 8 . q s ",
"d & . * . . 0 0 . u y 0 + X 8 8 0 . 8 e 0 ; . 1 . ; e # r y w . + 0 * & 0 q ; 1 8 . . 0 - . # f 8 e q & 1 . q p 9 . 3 - 0 . q g ",
"h 0 . & f . 1 ; 1 u y q @ + # . f * 0 q * 1 0 1 ; ; ; e r u w . O * 1 e * 1 1 e 1 . 0 w . 1 0 ; . 1 q e f ; r j i 0 , # . 0 q k ",
"l r 1 f p u z y i z y r 8 ; f i u w i r i u 9 u i p u u y z w * & w 9 w 9 9 9 w i 9 u u w u u r u u z i p u u x u q o ; r 9 z c ",
"v y i i u u u u x x z f 8 ; 9 i i u p p p u u p x x y u u u e 8 e 9 9 9 9 9 9 y z p z u i i i i y p u j x p 9 . q i w 9 9 1 r v ",
"b - & . @ @ @ . . . . - * . . o + % - & - O @ @ . 8 @ @ @ @ o & @ O O O $ O % 8 q 1 + % X % % % 8 @ - & . . - # . . . - @ & ; k ",
"u % $ + @ o % % + @ o o & . # 5 = , $ = + $ O + $ O + @ % o o % o o % X % + O . 0 ; n 2 X $ $ X = , X $ o % % % % o o % % & q 7 ",
"x e 8 * 0 0 * * ; * 8 0 p 1 . < & & . @ * # * . . ; # q # . 0 . 8 0 . 8 . . & z 1 * 2 X ; 8 * # 8 # * - 0 * e # 0 q & & e z w m ",
"M ; . . 1 . ; 0 * ; # 1 p 9 q 2 0 # . . 0 1 0 e # 1 . * q 1 ; * & f ; & q . 1 p 9 ; 4 . 8 - 0 8 q 0 - . * q 0 0 * ; . . r z j N ",
"B y & 0 e ; q 8 * ; 0 f p 9 ; 2 ; 8 * & f . q 1 . 1 & ; q * q # q q q # 1 0 0 p u 1 , @ * . . . ; # 0 8 ; e ; e 8 ; . e w z B k ",
"B z ; f q ; e # r 0 & 1 p f 8 3 @ 1 ; * 0 1 f e 1 1 . e 1 ; q ; f * q e . q ; p p ; $ . # q q 0 e 0 ; * r q * 1 # r . . r p V s ",
"C C u z i 9 9 r u u i y z 1 8 X q r w w 1 r r w f i f 9 1 9 w r r 9 r i r w i x z 0 + 0 i u z 1 u w w u z i w i r u 9 u y u Z s ",
"A N z u u u p j u u p x u e ; & 1 r i 9 i 9 w f 1 1 9 i u p p p z i i y z i u u f # - f u i u 9 u p u u p p y u u j y r ; 1 b k ",
"S j @ & o o o - @ 8 . . . @ o @ @ - . & . . ; . & $ % O % - & & - @ @ + 8 @ @ + @ % % - . @ o o * * o X - + @ % & . . @ @ @ g d ",
"B y $ = X $ $ X + o o + X o o + % X @ + X & # & = < $ > $ $ $ = X $ X @ @ o @ @ o @ o o % % % . 0 < , O O o o O % o o % O X k D ",
"b j e @ . 8 0 ; @ & . # @ ; . . & . e - & q y 0 = > 8 % 0 . ; * . * & 1 q . ; q 8 ; . & e . e z i 4 + & @ & . * 0 - & . 8 . N D ",
"C S y - e e 0 1 8 0 . . & 1 & e . . 1 q . w z & 4 , & 8 ; . * e # . . q & q . e q 8 ; . 0 . w p i $ & & 8 q 1 . 1 . . * # r h : ",
"C b 6 8 9 * f ; 8 q 1 8 q 1 e & 1 & 1 . 1 i z & , X . ; . q q . e . q r 0 . ; 1 0 * . 8 e . 1 p 9 X % * & 1 e 1 0 & e e 8 b k : ",
"b S F 0 9 1 0 w * e e . e 1 . q f * e ; q ; z q X = . & 1 . 0 ; 1 ; 0 f 1 w 0 w & f e 0 - ; 1 p 9 = - r * w 1 * w ; 0 f . k F s ",
"D S G p w 9 9 i w r w f w w i u u 9 9 r u p y r + - f 1 r r 9 w w w r r f 9 w i 1 u w u e e r j i + @ f w w 9 9 i w f w z H G m ",
"h 7 J S 9 9 9 9 i 9 9 9 w i u u f f 9 u u u u ; # * i 9 9 9 9 9 y z z y 9 1 1 9 p p u i i 9 9 u 9 & . r 9 9 9 9 i i 9 9   K L k ",
"Z Z Z j @ 8 8 . 0 e & > 4 $ $ o % @ & . . # . 8 + @ @ + & o o - q e . @ o $ + % - 8 % @ @ @ @ + & O O % % 8 & + @ % % X : b b S ",
"b b b   @ O X + & q 0 2 $ O X $ $ + % o o @ % @ o % % + @ % o . * 8 2 $ X X X $ O $ O % o @ % o @ % % 8 & e @ $ @ 8 8 # b S b g ",
"s k s 7 w & @ 0 p 1 . 2 ; * q 8 * . 0 8 . q 0 e 8 q . * ; . . u 1 8 a @ 1 . . . f # . q . * 0 . q . q ; y ; @ o 0 . f M d L h N ",
"N d g d   0 8 1 p f q 3 1 - * . # * ; & * 0 * r * . . 1 . . . u e o n @ ; . . * & . - ; # ; * 8 . * ; 1 z q @ o 1 f e   A H h G ",
"g L m m s i 0 1 y e # 2 . ; 0 & q 1 * * ; e # f # e q . 1 . . y 1 % n . 8 . . e 8 . q & 0 . . & ; e q w z e @ + . r 9 F k P G J ",
"k F h F k S . 1 y e * = 1 8 r . . q 0 8 ; . e i ; ; * . 0 . * u f . 3 @ e 8 * 8 * * & ; 8 q 0 & q & 0 q z 9 . @ 1 ; D H 7 G P L ",
"l c H I I K V y p 1 . % r ; r e r 1 1 1 9 f 9 i 1 w r 9 1 f u x 9 . $ 0 w 1 1 q 1 e e f e f f 1 r e 9 u j 1 - 8 1 x K I H I U l ",
"c c c c c c d u u f 8 8 i z z y 9 w 1 1 u p p p y i i i i i u u 1 . & f 9 9 f 1 * f 9 y z u 9 i i i u j x 9 . # j G c c c c c c ",
"g D D D   Z C ; . . + # . & + $ % % % % % + + % % & . 8 @ % @ Y T + + X & o o $ , + @ @ & o o @ o 8 . & O o @ 8 ;   g k k 7 S D ",
"S C   S C   D z % @ % . . . < 3 = > X > X , $ , X 8 0 # 3 $ R E W Q X O o @ % - % @ % % @ o % @ % @ . . + @ - + x b D s   S   S ",
"k P k h P 7 G 7 r 1 . z q . 3 @ 8 @ & @ & 8 & - q w e - ! ~ ^ / ( ) q r . ; ; 0 q * ; e . 0 * . 1 e p & + . * r J g k d k G k d ",
"k F K k P k H F h e f z r . , * - q & q & 8 0 & u y e . _ ` ' ] [ { w . e 1 & 1 . 1 . e 8 * 0 0 1 0 z . o e 0 N F P k A h F k A ",
"k H d N L 7 F g g   e p 9 . $ . 0 . 0 . 0 . q & w z e # } |  ...X.o.O.+.. e r ; 1 . ; . * . 1 & 0 ; z ; o . M k P m L k N N L k ",
"d P A d L N P d d A f x i . O . & 1 . 1 . q q e i z 1 @.#.$.%.&.*.=.-.;.* 1 e . f 0 . e . . 0 . r 1 z . o 9 L k G d k A k L k A ",
"I U :.U I J I H J I A V 1 * # 1 f z y z y y z i y z w >.,.<.1.2.3.4.5.6.9 9 r r u r r i 1 w 9 1 u 9 z . e G A K J H A J P K A J ",
"7.7.c c :.8.8.:.c 7.7.P e 0 * i 9 u u u u u u p j p w q 9.0.q.w.e.r.t.y.i f f i z u u u j j y u u u u f C I U U U U U U I J U U ",
": C C Z C   D D C 6 x : x - & . @ + - & 8 @ O o @ & @ + u.i.p.a.s.d.f.@ % % 8 & + @ % % X - + + % + - M   s 7 S   7 C b 7   D D ",
"Z : : V D C S C : S C   C M . & + 2 = $ $ O O $ O % % @ g.h.j.k.l.z.x.@ 8 & e @ $ @ @ @ + $ O + @ % M C N L d y : S S D     C   ",
"h F k k N G N P D P P N P G G 0 o X & * & f 9 ; * * . r . c.v.b.n.m.* 1 ; y ; @ X 0 . f * 0 ; . * D d k l J h j k N k H h k P N ",
"g J A m A L A h F A k J N H l D - O q 1 & r 1 # 1 * * & 1 M.N.B.V.C.Z.r 1 z q @ X 1 f e 8 1 r 0 7 N P G :.U h j F N N 7 A N N P ",
"F d F J A N N L h H A P h I l d : o 1 f & e 1 . e 0 * f 0 A.S.D.F.G.H.* w z e @ $ . r . q . i h J m F L 7.I k x D d N J d P k A ",
"A k L H d L F P L G F N A A :.d b Z x 1 & 1 e ; w * ; w . J.K.L.P.I.U.r q z 9 . O 1 ; q r u F P L N P N l c P B G N L K k F L h ",
"U U H c v I c U J I U v U l l d S s v P p i i 9 u r r i u r Y.T.R.E.9 u u j 1 - 8 1 9 j F H I U l U v U 8.v N Z K H H I c H c P ",
"c c c c c c c c c c c c c v v d s k K U c N x u u u u u u u W.Q.!.~.p u j x 9 . # : G c c c c c c c c :.8.7.L g K c c c c c c 7.",
"D Z Z S S S Z   S C h k C b         S   6 6 6 y q 8 % % % & ^.Q./.(.= $ $ X @ e M g g S S :   D D D d 7 b 6 S S S b b S S 7 k s ",
"b i x B x : x 6 M b m N B i B B 6 V V : B V V B : V z q * ; )._.`.(.$ % q 9 B j : M M 6 : Z 6 b : C 7 h p p B x : M V M : g d s ",
"b x g s D 7 g 7 g A U d V x 7 7 7 k 7 7 k g D h h 7 7 C F K '.].[.{.g h D m d C L D S k s L s L C G H k p D g C 7 g 7 s F K G s ",
"  Z h s G g g F h l v d 6 : D s k k h k h N N F d k N L H I }.|. XN L F 7 F L 7 L 7 7 A g N m F 7 U c k M N s F 7 g d 7 c l G s ",
"S Z N N k k d d h c l d b : g g d k g G d L h P k L G m H l .XXXoXd N 7 d F L A g h h d s k m J g J v k V h d k d h F 7 K :.G s ",
"C S k 7 J h A L A v l F C b m k J N d F N P d P L L L G H c K k Z N P G N A P G A k d K h P d L k K l k Z k 7 P k F F G I :.P h ",
"g k J J 7.v :.l I :.l H g L J I v K I H I v U v I 7.v v l :.K N 7 K U K U U U U I U c v K v c H v v l N m A J :.l l :.I l :.K h ",
"k L I I v v v v OXOX:.J g L U I I v 7.7.7.v c 7.OXOXl v v v G g G U U U U U U I U v :.:.7.v I I v v v d N I U v v v c 7.8.7.K g ",
"6 7 7 h D D D h k k k s N k k   b S s 7 s Z C C h   7 C Z Z Z b D k P h : b   S b C 6 g 7 h D C D 7 k k s Z C 7 G G 6 Z C C h   ",
"j : V b C   S S b C     7 k m f B M 6 B b 6 Z b V   S     S : : D m d : i B V : V 6 j : 6 Z C b C S b D : 6 b 7 L d j 6 Z b Z   ",
"m k g N d d N N L N g d 7.P k i 7 7 k D N m N h h d h g d k s S J I N b M h g d h g 7 h h h L k F k L L D S N :.G k x m N h h d ",
"F s h k A k L d N L m P 7.U F z d m k k d A d G m L N 7 J L 7 G I v G S   h s 7 N k A s 7 k P m F N k A s N J 7.H d V A d G m L ",
"7 d 7 d G L F g N L d J 7.U L z L g N 7 J k F P h F m F F F m 7 I :.H C Z k g F g L m N k k F F L h h A s s A 7.I F 6 k F P h F ",
"G h L J F L G m H d 7 P 7.J g p D A L N d P J G P F L J N F G h I OXJ C D h h K k L P g A A F F d k P F h k A OXv N   P J G P F ",
"c J v :.I U U H c c I l :.A g : F H K K A H H K J K H H U H I K :.OXF 7 g H U 7.U K v A v :.c I K K I v H K v OXU d C H H K J K ",
"v v 7.v v l 8.8.v c 7.OXc G L 7 P K I I I I K J P 7.7.7.c c :.c v U N s N v I v c c v v l l v v 8.8.v c l v v c A 7 s I K J P 7."
};
