/* XPM */
static char *torch01w801743666765[] = {
/* columns rows colors chars-per-pixel */
"64 64 114 2 ",
"   c #0E0E0E",
".  c #110F0F",
"X  c #131313",
"o  c #181616",
"O  c #191817",
"+  c #1C1C1C",
"@  c #221D1C",
"#  c #26211F",
"$  c #2E221F",
"%  c #33261E",
"&  c #232323",
"*  c #2B2423",
"=  c #2F2826",
"-  c #2B2B2B",
";  c #322623",
":  c #362926",
">  c #3D2C24",
",  c #342C2A",
"<  c #3A2D2A",
"1  c #3E3224",
"2  c #37302F",
"3  c #3E312E",
"4  c #323232",
"5  c #3B3332",
"6  c #393939",
"7  c #452F25",
"8  c #43342C",
"9  c #46392B",
"0  c #493C2D",
"q  c #523627",
"w  c #533628",
"e  c #563A2B",
"r  c #5C3C29",
"t  c #423532",
"y  c #463936",
"u  c #4D3C33",
"i  c #453B39",
"p  c #493D3A",
"a  c #503E35",
"s  c #643F2C",
"d  c #705F1E",
"f  c #7B6E17",
"g  c #756A1F",
"h  c #7C701E",
"j  c #534622",
"k  c #5C4F27",
"l  c #4E413E",
"z  c #534631",
"x  c #5E4231",
"c  c #544830",
"v  c #67422E",
"b  c #6B422D",
"n  c #764B2C",
"m  c #695E24",
"M  c #685D29",
"N  c #6B4632",
"B  c #774831",
"V  c #7C4C32",
"C  c #6F622C",
"Z  c #7B6F23",
"A  c #4F4340",
"S  c #514441",
"D  c #554845",
"F  c #877A10",
"G  c #81751F",
"H  c #8A7E1C",
"J  c #875D2C",
"K  c #825035",
"L  c #895438",
"P  c #95672E",
"I  c #9D920F",
"U  c #8E8219",
"Y  c #958414",
"T  c #978C1E",
"R  c #9D9213",
"E  c #A69C0F",
"W  c #A89E0D",
"Q  c #A29616",
"!  c #AC9911",
"~  c #AEA30C",
"^  c #BDB308",
"/  c #AFA538",
"(  c #C2AE0E",
")  c #C1B606",
"_  c #C5B909",
"`  c #D4C902",
"'  c #D9CE02",
"]  c #DED301",
"[  c #DDD20A",
"{  c #E2D704",
"}  c #EADE04",
"|  c #E4DA0E",
" . c #EADF0C",
".. c #E0D715",
"X. c #E4DA17",
"o. c #E9DE12",
"O. c #E3D91B",
"+. c #ECE002",
"@. c #F2E80D",
"#. c #FAEF14",
"$. c #F8ED1E",
"%. c #EDE320",
"&. c #F7EF2D",
"*. c #FCF32C",
"=. c #F8F038",
"-. c #D9D249",
";. c #EDE952",
":. c #FBF45A",
">. c #F5F16A",
",. c #FEF96F",
"<. c #FAF779",
"1. c #FDFA7D",
"2. c #FBFB96",
"3. c #FCFC9A",
/* pixels */
"& - - & - & - & - & + < y p y y y y y p p p p p p y y y y y t t p p p p l p y p y y t y y p y y y y p y y - & & + & & - - - & & ",
"- 4 4 - - - 4 - - - , 3 p D l p p p p p l p p p p l p A p y : t S S A A l A p A p p l p p p p y p p p l l 5 - & + + 6 4 - 4 - - ",
"& & & & & & & & & + , 3 p l t t t t t t t t y t t t y y < : < t l y t t t t t y < y t t y 3 y 3 t t t y t t # X X + 6 - + - & & ",
"@ & + & O & @ + + + : 5 p p y y < t t t t 3 3 < < t t < : : < t l t < < t < t t t t t : t 3 t < t < t t t 3 ;   X + 4 & & + + & ",
"+ & + + + & + + * ; ; 5 p p t y t 3 t < t < t < t < < t : ; : t y t t t t < t : t t t t t t t : t 3 3 t < t < . X + 4 & + + + & ",
"@ + + & O + O + * ; ; < y y t 5 : t 3 < < : t < t < < t : : : 3 y t : < < < < < : t 3 : t < 3 t t < < < < < : @ X + - & + + + + ",
"  X O O       X : ; ; : y < < ; : : : : : ; : ; ; $ : ; ; ; : t t : : < : : : : ; : ; : : ; ; : ; ; ; : ; ; : $ X + & + o X   X ",
"X X X       X + % * ; < t 8 : ; ; ; ; ; ; ; ; ; $ $ ; ; : ; < y < : : : : : : ; ; ; ; ; : ; : : ; $ ; ; $ $ : t & X X X X O o . ",
"- & & + & & & 2 < t t y 3 < t y y y y t y y y y 8 t y y y y y t y p p p p p y t < < y y p y y y t y y t 3 t t t 2 + + & & & + + ",
"4 - - - & - = y y y y y t t t D p p p l p p y y p p y t y y y y y p y p y y p t t < D S p p l p p l p p y y y y i - - & - + + & ",
"4 + & + + + * 5 < t y < ; < t S t t t t t t t t t < t < t t < t t t t t t t t ; : 3 S p 3 t 3 t t t 3 y 3 3 < t 3 # & & +   + & ",
"- & + + + + = 3 t < t < ; : < A t t < t < < 3 < t < t t < : t < t < < t < 3 < ; : 3 l t t t 3 t 3 3 t 3 t < 3 3 3 = + + X   X + ",
"- + & + o + : t 3 3 3 : $ : 8 l t t 3 t : t t < t < t t t t : t < < < t < t 7 $ : < l y 3 t t t 3 t 3 t 3 < < < t , + + X   o + ",
"4 + + o + + < t : 3 t < ; : y l t < < t t : : < : < t < : t < t : t t < t < t $ $ 3 y t t < < 3 < 3 3 3 < < t < t , & + X   + & ",
"& O .   X o : : : ; : ; ; < t p t : < : : : < : < ; : ; < : : < : : < ; : : : $ ; 3 y t ; : ; < ; : : ; ; : : : , : o . . . + & ",
"O .   . . o ; ; ; : ; $ ; < 3 t < : : : : : : : < < : : : $ $ $ ; : : ; $ : ; : < t t < ; : ; : ; ; ; : $ ; ; : ; $ X o + o + + ",
"& - & & - 4 y t y y 3 t t y y y y y t t t t < t y p y p y y t t t y y p t y y y y y y t t t y y 5 3 y p t p y y t 3 * & - & + + ",
"4 4 - - - 4 l p y y y y y y y y y p y y y t t t p S p A p p p p p p p t y y t t y y y t y y y t t S l p p y y p y y 2 & - - + & ",
"- 4 & & + , 3 3 y t t t y < t t t t : y t < ; 3 p A y y t t < t t t t < t t < t y t t t < t < ; : S y t y t t 3 t t = + + - + & ",
"& & + & + & 3 < y < 3 3 t < t < t t : 3 t : ; t A p t t t < t < t < t < t < t < < t < t t t : ; : p t t t 3 : 3 < t = + + - + - ",
"& - + & X * < 3 y < < y < < < y : t : t : : ; y A p t < t : : t < 3 < : t t < < t t < t < t < ; : p y t t : < < 3 t & O & + + - ",
"- & o + X @ 3 : t < < t < < 3 < < t < t 3 < ; < y p t t : t t t < t t < < < < : t : < t t 3 < $ : p t < t : < t < 2 & o & + + & ",
"& & + X X O : : : : : < : < : ; ; : : : ; $ ; : y y < < : < : : : : : : : : : : < : : ; < 3 : $ : p y : : : : : : : + X o o o + ",
"+ & o X X o : : : : : : : : : ; < < : ; : ; ; t t t : : : : : : ; ; ; ; : < < : $ $ ; : : : : : : t t : : : : : : : o X o o + + ",
"- - - - & & 5 t 3 < y l l p p p y y y t t t 3 t y y y y t y y y < < t t y p p y y t y y y t y y t p p y y t t p t y - - & - - & ",
"- & - & - - y y t < t A p p p p p y y y y y y y y y y y y y y t t y S p p p p p y p p y y y y y y y y t t < y p t 3 # & & & - & ",
"& + & + & & 2 3 ; < < A 3 3 3 t 3 t < y t < t < y < t t < t t ; < t S y < < t t : t t < t t 3 t < t 3 3 : 3 y y 5 , X + + + + + ",
"+ + & + & + , < $ < < A < t 3 t t t < t 3 3 3 : 3 3 t < < t t ; < y D y 3 3 t t t t t t t < 3 t < t < < ; < t i < @ + & o o + O ",
"& + & & & + & : ; < t A t < 3 t < : t 3 < < t < t < < t : t t ; < t D t t t t < t t < t < t t t t < < : ; < y p 5 X + + + o O o ",
"+ + + + + + + = ; < 3 p : y : t t < < y < t < : 3 < t t < t t ; < t S t < t t t t t t < t < t t < t < t ; : t t = + + X & + O + ",
"  . X X . X   + ; < t y : 8 : < : < < < : : : ; < : < : < < ; $ : t p t : < : < : < < : < < : < < < : ; ; : t t & X X X O X X   ",
"X . X . X . X X ; < t y : ; ; ; : : < < : ; ; ; ; ; : ; : ; : ; : 3 t < : : < < t < : ; ; ; : : : : : $ $ : t t     X X     X   ",
"& & & & & - & & ; t y t 3 y y p y y y y y y y y y t 8 t y z Q Z y p p p 8 i y l p p y y t y y y y y 3 t p y y 2 & & & + + + - & ",
"& & - & & - & & - y y t t t S A p A p p p A p p p t 8 G l C X.-.C p p p y y y t y y y y y y y t y y 3 t p t t - & - & & - - - & ",
"+ + + & O & O & + * t $ < t A y y y t y y y y y < : 9 E T g ..;.g < < j 8 3 3 3 < t 8 < t 3 3 t < < $ y p 3 , + o & + + + + + + ",
"+ + o + o + X + + + : ; : 3 p 3 y < y < t t < t : ; 9 W _ ) o.>./ v : U 9 < t < 3 < 3 < t 3 3 3 < < ; 3 y < & O + o + o + + + o ",
"+ o + + + + + & & O * ; : t p t 8 t 3 3 8 t < y : ; < m [  .*.1.O.R g I 9 < , 3 < t < t 5 3 < t t < ; < y = & + O & + + + + + + ",
"+ o O + + + o + + O + @ : 5 y t t : t : t < < < : ; < z { #.,.2.&.| ' W 9 < < 8 : t t < t 3 3 3 : < ; t y + + + O + + O + + + + ",
"X X   X . o X X X X o . : 3 t < < ; ; ; ; ; ; ; ; ; < z ` } :.3.<.*.} W 1 : : < : : < : : : : < : : ; t & O O X X X o X o X + o ",
"    X X         X     X # 3 3 : : ; ; ; ; ; ; * % ; : 9 ~ { *.3.2.=.{ F > < , : ; ; ; ; $ ; ; ; ; ; ; @ + X X X X X X X X o X X ",
"& & & - & - & & - - - - & 4 5 t y y y y t y p y y t y y Z ` $.1.<.%.` M y y y t y y y y p t p p i i 4 & & & & & - & & - & & & & ",
"- - - - & & - & - & & - & & , 5 p S p p p y p p y y y y u H ` @.{ ^ Z y t t < y p y y y p p p y i 4 & & + + + 4 - & - & & - & - ",
"+ O + + + O + X & X O + O +   - y p t 3 y < : t t 3 3 : t 8 Y ( ! d 8 < 8 ; < y p 3 3 : 3 3 3 3 = + + +   + + 4 + + + X & + X + ",
"& o + & O + O & + + + O + X   + , p 2 < t : : t : t 5 t < t n P J r 8 : < ; < y p < < < t < : - O + X +   X + 4 + + + & O + + + ",
"+ + + + O + + + + O O X + X . + & 2 : , t < < t < 3 3 < 3 w s L V r < 3 : ; < y p 3 < 3 < 3 + O X & O +   X + 4 & + + X + X + + ",
"X + + X + + + X + O + + O O   + - - + * t : < 3 < 3 3 : t 8 s K V e t < < ; : 5 p < 3 < # & O o + + O +     + - + + + X + + + + ",
"X X X X   X   X X X X X X . . + & & . . o $ ; : ; : : : ; : w B v 7 ; ; ; ; : y t < # O X X X X   X . X     + - X X X X X X X O ",
"X   X   X X   X X X     X . . + & + X X . X X @ ; : ; : ; : w B N > ; ; ; % ; 3 = . . . . X . X X X .       + & X X X X   X     ",
"& & - & & & - & & & & + & - & & - - & - - - - - - - 4 4 5 3 w B N l i 6 6 4 - & & & + - & - - & & & + & & - & & & - - & & & + & ",
"& 6 4 4 4 - 4 - 4 - + + 4 4 4 4 - - - - - - - - - - - 4 - & 7 B s 6 4 4 4 4 - 4 - - 4 - - - - - - & & + 4 4 4 4 - - - - - & + & ",
"& 4 + & & + & + & + X + - 4 + & & + & & + & & + + & & & + X : s s - + + & + + & + & - + & X & + & + X + 4 & & & & & + & + X + & ",
"- - + & + & & + +     + - - & & + + + + & + + + + + + + X X @ a a + + + & + + & + & + + & + + + & X X + - + & + & & + &     O & ",
"& - + + + + + + +     + & - & & + + & + + + + + & + O + O   + & , + + & + + + X & & + + & + & X & X   + 4 + + + + + + + X   + & ",
"& & + & + & + + + X   + & - + + X + + + + + + X + O + O O X X + - + o O + + X + X + + X & X + + + X X + - + & O + + + + X   O + ",
"& + + X         X     X & + +     X X X X   X   X           O + & X X X X X X X X X X   X X X X X X   + & O O         X     X + ",
"& +   X     X         + + + X X X X         X               X & o X X X X X X   X X         X X   .   + + X X     X         O & ",
"- & & + & & & & + + + & + + & & - - & & & - & & + - & & - - - & & + O + - - & & - & - & + + & & & & & + & - & & + + - - & & + - ",
"4 & 4 - & - & & & & & & & + & 6 - - - - & - - - - - & & & & - - & & + - 6 - - - - - 4 - - - & - & & - & - - - & + + 4 - - - - & ",
"+ + & + + + + + + + & +   X + 6 + & & & + + + + & + + & + + & & o X + - - & & + & & & + & + + + + + + + & & +   O + 4 + + + + + ",
"+ & + + + + + + + + & +   X + 4 + & + + + + + + + + + & O + & O X   O & & + & & + + X & & + X & + + + X & + X   X + - O + + & + ",
"& + & + + + + & + + + X   X + 4 + & + + X + + X + + + + + + + & X   O & - + & + & + + + + + + + + + & X & & +     + - + + X + + ",
"+ + + X + + X + X + & +   X & 4 & + + + + + X + + + + X + O + + X   O & & & + X + + + & + + X + + + X + + & X   X + - + X + X + ",
"X X     X X X X   X       X + - + X X X + X X X X X X O X X X X     + + & O X   X X X X       X X X X X X X     X + - X X X + X ",
"X     X           X     X + + & X X X X X X X O O       X X       X + & +   X . X   X X     X         X     X   + + & X X X X   "
};
