/* XPM */
static char *torch09w101743666765[] = {
/* columns rows colors chars-per-pixel */
"64 64 124 2 ",
"   c gray12",
".  c #252525",
"X  c #2C2C2C",
"o  c #333333",
"O  c #363B3B",
"+  c #3C3C3C",
"@  c #4A3E35",
"#  c #423D3A",
"$  c #553D30",
"%  c #47433D",
"&  c #574437",
"*  c #594538",
"=  c #5F4C3F",
"-  c #6F432D",
";  c #77482F",
":  c #76522D",
">  c #634432",
",  c #6B4733",
"<  c #624A36",
"1  c #6B4935",
"2  c #774830",
"3  c #7A4C33",
"4  c #734F3B",
"5  c #75523F",
"6  c #3D4545",
"7  c #444444",
"8  c #4B4441",
"9  c #4E4B45",
"0  c #444C4C",
"q  c #4B4B4B",
"w  c #534F4B",
"e  c #4D524E",
"r  c #4C5454",
"t  c #535353",
"y  c #5A5452",
"u  c #545957",
"i  c #5A5955",
"p  c #535B5B",
"a  c #5B5B5B",
"s  c #6D584E",
"d  c #745847",
"f  c #685E58",
"g  c #5C624F",
"h  c #6E6940",
"j  c #696E4B",
"k  c #626556",
"l  c #777C5A",
"z  c #585F60",
"x  c #5B6363",
"c  c #636363",
"v  c #6A6660",
"b  c #646C6C",
"n  c #6B6B6B",
"m  c #6C736D",
"M  c #747A62",
"N  c #7A7F68",
"B  c #6A6F70",
"V  c #6B7373",
"C  c #737373",
"Z  c #727A7A",
"A  c #885F2E",
"S  c #825035",
"D  c #895438",
"F  c #95672E",
"G  c #A79718",
"H  c #BFAC0D",
"J  c #B6B111",
"K  c #BBB415",
"L  c #B5B01F",
"P  c #929131",
"I  c #93933D",
"U  c #A29E29",
"Y  c #ABA72C",
"T  c #ABA82A",
"R  c #BCB828",
"E  c #A5A236",
"W  c #C1AD0E",
"Q  c #C4BC0C",
"!  c #C9BF09",
"~  c #C1BB1E",
"^  c #CAC20A",
"/  c #D3C902",
"(  c #D9CE00",
")  c #D0C70D",
"_  c #D0C80C",
"`  c #DCD306",
"'  c #E0D501",
"]  c #E5DA04",
"[  c #E1D60C",
"{  c #E8DD09",
"}  c #E5DB13",
"|  c #E8DE1B",
" . c #EBE006",
".. c #F0E60C",
"X. c #EDE316",
"o. c #EEE51E",
"O. c #D3D03B",
"+. c #F5EC25",
"@. c #F3EB2F",
"#. c #F9F026",
"$. c #FAF029",
"%. c #FEF63A",
"&. c #83864F",
"*. c #8A8D4B",
"=. c #82875C",
"-. c #85895E",
";. c #848A70",
":. c #EEE74D",
">. c #FCF445",
",. c #FEF748",
"<. c #F4EF52",
"1. c #FEF851",
"2. c #F4F05E",
"3. c #F6F162",
"4. c #F7F36C",
"5. c #FBF76C",
"6. c #F4F072",
"7. c #FDF974",
"8. c #7A8182",
"9. c #808788",
"0. c #828A8A",
"q. c #FDFC8F",
"w. c #FDFB9B",
"e. c #FBFEB7",
/* pixels */
"t a a t t t a u t t q 7 w a t t t t u b V V V V V b b b b x x x V Z Z V V V V b b x b b b p t e t t a t a t y q 7 q y c t t t t ",
"a c c c c a c a c t 7 7 c B c c z x b m Z Z V Z V Z Z Z V x p x 8.8.8.Z Z 8.Z Z V Z Z V V x a u a a k c c z c q 7 7 Z n c c c a ",
"q q q q w q q q q + o 7 c c 7 q 0 r x x z x b z x x x x p r p x Z b x z x x p b p b b z x p r 6 t 7 q q q q 7 o X q B t 7 w q q ",
"q q q q + q q + q . . 7 a a t q 6 p x x z z z u p z z z r 6 p x V x p p x p p x p x x p b p z + q + 7 q q 7 + . o 7 n q q 7 7 q ",
"7 q 7 7 7 7 # 7 q X . 7 t a q q 6 x b r z p x r z p p x r 6 0 x V p z x x p p r x x x x x x x 6 q + + q + 7 + . X q n w 7 7 7 q ",
"7 7 7 q O 7 O # + . X + t t q 7 r x p p z r z p p p p z r 6 0 x b x r p z r r p p x p 6 x r p p 7 O + + o + o . X + c 7 7 7 + 7 ",
"X o o O . X . . X . X o q + o o 6 r 6 p 6 6 6 6 0 6 6 6 6 6 r x x 0 0 r 0 r 6 r r r 6 6 6 6 6 p X X . X . X X   X + t 7 O X . X ",
"X X X X X X X X .   . O q + o 7 r 6 6 6 6 6 6 6 6 O 6 0 6 0 p x p 0 0 r 0 0 r 6 6 6 6 r 6 r 6 6 o . X . . . o 7 7 X o X X + o X ",
"t t q q t w t 7 7 7 7 t 7 7 7 b V b b x b V b b x x b b b x V x b V V b V V b x r r V b V b b b z t q q 7 7 q q 7 7 7 t w q 7 7 ",
"n a a t t t t t t t t t q 7 t 0.V 8.V V b V V V V V b b b b b b V b b V b V V z z p 8.8.V V Z V Z c z c t t t t t t t t t q 7 q ",
"c 7 q 7 + + 7 7 + 7 w + . O p 8.x x p b z x z z x p x p x x p x x p x x x x x 6 r z 8.V p x p x c p 7 q 7 7 + q 7 + q q + . + q ",
"c w 7 7 O q + 7 7 + q O . X p 8.p x z x p r p p x r z p p r p z x r p x p x r 6 6 p Z x x b p x z t q 7 7 + 7 + 7 + 7 7 o . o 7 ",
"c + q 7 + + + q 7 + + O . O p 8.p b z x r x p p x r x p p x p z p p p x r z z 6 6 z Z b p x x x r z + q + + + + w + 7 + o . o 7 ",
"c 7 + o + 7 + q O + q + . + c Z b z p p z p 6 p r r z p r p p p r x p p x p p 6 6 p V x x p p p p z 6 7 o + 7 + q o 7 q o . + q ",
"t o X . X X X o X X o . . 7 x V p 6 p 6 r r p 6 p 6 r 6 p r 6 r 0 r r r 0 r 6 6 6 p V p 6 6 6 p 0 0 + . . o o X o X X X . . + t ",
"+ X . X X X . . X X .   X r z x p r 6 p 6 6 6 r p p 6 r 6 6 6 6 6 6 6 6 6 6 r 6 p x x r 6 r 6 p 0 6 + X . . . X X   X O + + 7 7 ",
"t z q q y t y q t q 7 7 q c B b b z z x x x z z x V b V b x x x b b b V x b b b b b b b x b b b z z z z q t t t q 7 7 t t t + 7 ",
"c n c c a a c z t t t t z b b b B V b B V x x x Z 8.Z Z Z V V Z V V V b b b b b b b b b b b b z z 8.B a a t t a t t t t a z 7 w ",
"t c q t 7 q + + t q 7 q t z z z z x z x x p 6 z Z Z x b p x p p z p x r p z p p x p z x p z p 6 0 Z b 7 t q 7 7 7 w q 7 q t 7 t ",
"t t 7 q + + 7 + q 7 7 7 q r z p z z r p z r 6 x 8.Z x x p z p p x z z p x p z p p x p x p z r 6 0 C z q w + o 7 O 7 7 7 q q 7 a ",
"t a 7 q o 7 o + q + + q + p r z r x r z r 0 6 x Z V x p x p p x r z p 6 z z p p p z z x p x r 6 r B b 7 0 O + + 7 q + # q + q a ",
"t t o + o o 7 o + + + 7 + r z z r z p p p p 6 z V Z x x r x p p r z z p r p p 6 x r p p x p r 6 0 Z x o 7 o o 7 o + + O q + + q ",
"w t + o o o o X o o o o o 0 0 0 6 0 r r 0 6 6 r V x r r 0 r 6 r 6 r 6 p p 6 r 6 p 6 6 6 p p r 6 0 B b o X o X o X o o o O o + q ",
"7 q o o X X o X o X o X o 0 0 0 r r 0 0 0 6 6 p x x 6 r 0 0 r 0 6 6 6 6 6 r p r 6 6 6 r 0 0 0 6 r z z o o X o X X X X X o o + 7 ",
"z p y z w q q 7 7 + q c c B C B b b x x x x x x V b x V x V V x x z z b b V V b x b b b b b b B x B B y t q q y t t t z w t p t ",
"y y y t z a z y q + 7 n z b V V Z b b b b b b x V b b b x b b x z b 8.V V V V Z V V B b b b b b b b c q 7 + t z w q q t y t y q ",
"q 7 q q t q q 7 . O 7 n 6 r p b z x z x p p p p x p x p p x x 0 r x 8.b 6 z z z r x z p p p p x z z r + X 7 t t + 7 o 7 + 6 7 7 ",
"7 7 q 7 7 7 q + . o + n O t z z x z p x x p x 6 p x p p x x x 6 p b 8.V x z z z x z x z x p z x z z 7 O . + t t + o + q + o q + ",
"q + q 7 t 7 7 o . + 7 B 7 7 z z p r z z p p x r x p p x r x p 6 p b 8.z b x z p z z z z z z z z p p 6 o . + t t 7 o 7 + 7 o + o ",
"7 + 7 + 7 7 7 + X + 7 c O t r z z p z x p z p r p p p x z x x 6 6 z 8.b p x p x z z z z z z z b p z 6 + . o 7 t + + + o q + + + ",
"X X o X X o . . . o 7 y o 7 q t r r r p 6 p r 6 p r r p r p 6 6 6 b 8.p 6 z p p r p p r p r r r q r X X . o w q o o o X o o o . ",
"X X X X X X X X X o q q X . O 0 6 r r r 6 6 6 6 6 6 6 6 6 6 p N j x x p r 6 p 6 z r 0 0 6 6 0 0 0 6 X .   o 7 7 . . X X X X X X ",
"q q t t t t t q 7 7 t q + q z C b b b V b b V b B x x x b M O.:.E V V V x b b Z Z B b x x B b b V u 7 0 a t t q q t q 7 q q t q ",
"t t t t t t t t t t t 7 7 q C Z Z Z V Z V Z Z Z V x p x ;.R @.2.} N V V b b b x b x b b b B b x x r q 7 u w q t t a q w t t p t ",
"7 + 7 7 + q + q 7 + 7 . + q n z x b x b x x x x p r u x -.^ >.7.} g p r x p p p p z z r x p x x 7 O . q y 7 7 7 O q 7 7 7 # 7 7 ",
"7 + o 7 o 7 o + + 7 O . o 7 c q x p x z x x p x 0 6 p x -._ 5.<._ P 6 x p p x r x r z p x x p p + 7 . 7 t + 7 + + o 7 + q + 7 O ",
"7 o 7 7 + q 7 q q + + . X 7 c 7 z x z z p x p x 0 6 p x -.Q 6.4.] ^ ~ p x p 6 z r z p x z z r z 7 + . 7 t q 7 7 + 7 + 7 + 7 + 7 ",
"7 o o 7 + 7 o 7 + + q   X 7 a 7 r r z r x z r p 0 6 r *.T ^ #.1.,.X.U p p r p x r p x r z z z e o O . 7 t 7 7 7 + 7 7 + 7 7 7 + ",
"o X . o X o o o o X o . + 7 q + o 6 6 6 0 6 6 0 6 6 r &./ ' o.3.w.+.' p r 6 6 r 0 r r 0 r 0 7 o X o . q 7 O + o o o + o O o + o ",
". . X X . . . . X . . X + + 7 X o o 6 0 0 6 0 6 6 6 0 j Q { %.q.e.o.~ 6 6 r r r 6 0 0 6 6 6 X X X X . + q X X X o X o X X + X X ",
"a w t y t t t t t a c a t w q 7 e u z x x b B b b z b b T ( $.7.4.{ I b b b x x V b b b V a u u t t w t t q q t t q w t q t t t ",
"y z a c q t t t a t t t t t 7 q u n c B C V V V B b b b M Y ` .. .J &.b x x p b Z x b b n z a t t t t t 7 + 7 n a t t t t t t t ",
"7 + q 7 7 + + o t o O 7 o + . 7 t a q 7 x r 0 z z z z r z k G H J h p r p 0 p b V p x r 7 + # q 7 O 7 7 X o 7 n 7 7 7 o 7 7 o 7 ",
"q o + 7 + + + q + O 7 o 7 o . + t t + + r r r x r z z x u a ; F A < p r r 6 p b V r r 6 q + o 7 O 7 o + . o 7 n + 7 7 8 O 7 7 O ",
"+ 7 + o O 7 7 + q o + o q X X + t z O O 0 7 r z r z z r z w - D 3 < e p e 6 p x V p + 7 + 7 O + o 7 7 + . X 7 c w + 7 o 7 o 7 + ",
"+ 7 + o + + + + + + + 7 + + . 7 t t # + q O 7 p 0 z p 0 z y > S 4 < u r p 6 0 x b + + + o q + O + 7 O 7 . X O c + 7 + o 7 + 7 7 ",
"o o o X X X X X o X o X X . X + t w . . o X X o 6 r r 0 0 q * 2 1 9 e 0 0 6 r p q o o o X o o X X o X X   X 7 y o o o o X o X o ",
"X . X X X X X o X X X X X X . 7 w 7 o o X X X X X o 6 0 0 0 * 2 1 % 6 6 6 O o 7 q . . X X X X X X X X . . . + q o X X X X X X . ",
"w z y t y t a y t t q 7 t y t t t t t t a a a a a t t a c a = 2 d c n n c a t t t q q t t a t t q w 7 7 y z t t t y a t t q 7 q ",
"y C c z c z c z c t 7 7 z n c c a c a a c c a c a a c c a q $ 2 4 f n n c n c c a c c a a y a t a t q 7 n c c c a c a c a q + t ",
"y c q t t 7 q q q + o 7 z c 7 q q 7 q q 7 q t 7 7 q q t + o @ , d q q q q q 7 t + t t 7 t + q + t + o q n t q t q q 7 q + o + t ",
"t z 7 q + q w + 7 X . 7 a a t t 7 7 7 7 7 7 7 + 7 7 7 + o X # > s 7 + + q + + q + q q + q 7 q + q o X 7 c 7 q + 7 t 7 q X . + q ",
"t a 7 7 7 7 7 + 7 o . 7 y a q q 7 7 q + 7 + 7 + 7 + + q o X X 8 y + 7 q 7 + + o q 7 7 7 q q q + q o X 7 a q + 7 7 q + q o . + t ",
"t t 7 q o 7 o 7 O . X + t t q 7 o 7 + + 7 o 7 o + + + + o X o 7 y 7 + + 7 o + + + 7 7 o 7 o + + 7 o . 7 t 7 q + 7 + + o X . o q ",
"7 7 o o . X . X X . X o t + o o X o X o X X o X o . X . . . o 7 q o X o o o o X X o X . o X X o . X . 7 q + o . . X . o . . o 7 ",
"7 7 o X X X X .   . . o q + X X X X . . . X X       X X X X + q + X o X X o X o X X . . . X X X X . X 7 7 X o . . X X . . . o q ",
"a q q q t q t q 7 q q t + 7 7 t t t t q q a t t q t q t t a y t q 7 + 7 a y t t t t a q q q q t t q 7 7 q a t q + + a a t t q t ",
"n a a t t t t t t w t t q 7 q C c c a a y a a t a t t t t t a a w q 7 a B c a a c a n y z t t t t t t t a a t q + 7 c a y t a t ",
"q 7 q + + + 7 7 + q q + . o q B q q 7 t 7 q 7 7 q + q q 7 7 q t o o + t c 7 q 7 7 q q q q 7 + 7 + 7 + 7 t t 7 . + 7 c q 7 7 7 7 ",
"+ q 7 q o q + 7 7 + q o . o + n + q 7 7 7 + + + q + 7 q o + q + o . + t t 7 t q 7 7 o q q 7 + q + 7 7 o t + o . o 7 a + + + q + ",
"q + q + + + + q 7 + 7 o . o + n + q 7 q o 7 + o q + q + + + q q X X o t a 7 q + q + q 7 7 7 + + + q 7 o q q + . o + z 7 + + q + ",
"+ q + o + + + q o 7 q o . o q n t + + 7 7 + o + o + 7 o + + + q X   o t q q 7 o 7 + + q + + + + 7 7 + + q 7 +   . 7 y o o + o + ",
"X o X . X o o o X X o . . + q y + o X o + o o o o o o o o o X o .   + q q o o . X o X o . . X o o o X X o o X   o + t o o o o o ",
"X X . X X .   . X X .   X + + q o o X o X X o o o . . . X X . X X o 7 q + X X X X X X X X X . X   . . X . X . X + q q o o o o . "
};
