/* XPM */
static char *torch07w601743666765[] = {
/* columns rows colors chars-per-pixel */
"64 64 135 2 ",
"   c #151515",
".  c #1C1C1C",
"X  c #23221F",
"o  c #242424",
"O  c #2D2B24",
"+  c #2C2C2C",
"@  c #3C2F27",
"#  c #302B28",
"$  c #32312C",
"%  c #39372D",
"&  c #3C392C",
"*  c #333333",
"=  c #393732",
"-  c #3C3A34",
";  c #3B3B3B",
":  c #4D3528",
">  c #423F2D",
",  c #5F3E2C",
"<  c #413F37",
"1  c #413B39",
"2  c #44402F",
"3  c #4C402C",
"4  c #5B432E",
"5  c #464331",
"6  c #4A4634",
"7  c #4C4837",
"8  c #43423D",
"9  c #4A463B",
"0  c #4E4A39",
"q  c #514632",
"w  c #5E4633",
"e  c #534936",
"r  c #5B463C",
"t  c #524E3C",
"y  c #594E3C",
"u  c #53503E",
"i  c #5E573C",
"p  c #63452D",
"a  c #6B442E",
"s  c #77482F",
"d  c #615C2A",
"f  c #76512A",
"g  c #6D4731",
"h  c #6C4833",
"j  c #664A39",
"k  c #764A32",
"l  c #7A4C32",
"z  c #655B31",
"x  c #6D682F",
"c  c #716B2B",
"v  c #7A742B",
"b  c #716C32",
"n  c #7D783C",
"m  c #424242",
"M  c #484742",
"N  c #4D4B41",
"B  c #4A4A4A",
"V  c #514F43",
"C  c #565241",
"Z  c #595544",
"A  c #5C5847",
"S  c #55534A",
"D  c #5E5B49",
"F  c #515151",
"G  c #625644",
"H  c #615D4C",
"J  c #615E50",
"K  c #64604F",
"L  c #787542",
"P  c #666251",
"I  c #696554",
"U  c #6B6856",
"Y  c #6E6A59",
"T  c #716D5C",
"R  c #885E2D",
"E  c #825035",
"W  c #895438",
"Q  c #95672E",
"!  c #88821F",
"~  c #97871B",
"^  c #9D9517",
"/  c #99921E",
"(  c #A89F0F",
")  c #A49C1E",
"_  c #B7AE0D",
"`  c #BFAC0C",
"'  c #AFA614",
"]  c #B0A715",
"[  c #BDB411",
"{  c #8A8326",
"}  c #86802F",
"|  c #90892E",
" . c #9D9626",
".. c #9A932E",
"X. c #A39C26",
"o. c #A8A22B",
"O. c #C4AF0F",
"+. c #C9BF06",
"@. c #C1B708",
"#. c #C4BB0A",
"$. c #CABF11",
"%. c #C5BC1A",
"&. c #CFC408",
"*. c #D0C703",
"=. c #D7CD00",
"-. c #D9CE01",
";. c #DAD003",
":. c #CEC513",
">. c #E2D600",
",. c #E9DD03",
"<. c #E5DA0A",
"1. c #EBE007",
"2. c #F1E60F",
"3. c #F3E90E",
"4. c #F0E511",
"5. c #F8ED15",
"6. c #FBF11A",
"7. c #F5EB22",
"8. c #F9EE20",
"9. c #FFF530",
"0. c #E8E245",
"q. c #F8F246",
"w. c #FFF749",
"e. c #F4ED58",
"r. c #FFF752",
"t. c #FCF65B",
"y. c #FAF667",
"u. c #FDF965",
"i. c #F8F67A",
"p. c #FAF87E",
"a. c #FDFA83",
"s. c #FDFC89",
"d. c #FDFC95",
"f. c #FDFB9F",
"g. c #FBFDB5",
/* pixels */
"; ; ; ; ; ; ; ; ; * + + * ; ; ; ; ; * * M P K P J D D D D u u i K P K K K K K H D A A H 8 ; ; * * ; ; ; ; ; * * + * ; m * ; * ; ",
"; m m m m ; m ; m ; * + m B m m ; 8 m m P P P P K K P P K A u A Y U U I I U K I K P P K K 8 ; ; 8 ; m m m m m * + + F B m m m ; ",
"+ * * * * * $ * * o . + m m + * * + * u C Z D Z Z Z A D u 7 u A I D A Z D u u D u D D Z A 0 * + * + * * * $ + o . + B ; $ * * * ",
"* * + * o $ * o *   . + ; ; * * + + 9 Z Z u C 0 u Z u u 0 5 t A P u u u A u u A u Z Z t A u 9 + * + + + * + o   . * B * * + + * ",
"+ * + + + + + + + .   + ; ; * * + - Z 0 Z u Z 0 u u u u 0 2 7 u H u u i u u u 0 Z u Z u D u Z $ * o + * o + o   . * m * + + + * ",
"+ + + + o * o + o . . o ; ; $ + o u u u u 0 u 0 u u u u 0 7 7 Z K Z 0 t u u 0 t t u u 0 u 0 u 0 + o o o o + .   . + m * + + o + ",
". o o o         . . . o * + o . O 7 7 7 7 5 7 5 7 2 2 2 2 2 7 u Z 7 6 7 6 7 7 7 0 7 6 5 0 5 5 0 O .   .   .     . o ; o o .   . ",
". . . . . . . .       o + + . . 5 5 2 2 2 5 3 2 & 2 2 7 3 6 0 D t 7 6 7 6 7 7 2 2 2 2 5 7 6 6 6 <   .       . * + . X . . o o . ",
"; * + + * * * * + + + * + + + B K D D A A H D D u Z D D D D H Z D K H H K H H A u t H H K D D H A m * * + + * * + + + * * * + + ",
"B ; m ; * ; ; * ; * * ; * + * Y P I K K H K K H P H H H D H D D D D D K H H H u u u T U K K K K P D ; m ; * ; * ; ; ; * ; * + * ",
"m $ * + + + + + o + * +   o * U A u u D u u u Z Z u Z u u Z u Z A u u A u Z A 2 t u U H u Z u u D Z * * + + o * + + + * o   + + ",
"m * * + o + o + + + + o   . = U u Z A u u t u u Z t u u t 0 u u u 0 u A u u t 2 7 u U u Z D Z Z t u m + + o + + + o + + o   o + ",
"m + + + o + o * + + + o   X 9 U u A u A 0 u u 0 u 0 Z u t u u Z u u u u t u u 2 3 u I H u Z Z Z u Z 0 * + o + o * o + o .   o + ",
"m + + o + + o * . + + o   o Z U D 0 u u u 0 0 t t t u t 0 u u u t u u t Z u u 2 2 u K u Z t u u t u 0 + o o + o + o * + o   o * ",
"* o     . . . X . . . .   + A H u 7 7 7 t 0 7 7 0 6 0 7 e 7 7 0 7 0 7 7 7 7 6 > 2 u H u 6 6 2 0 5 7 7 X   . . . o . . . . . + * ",
"o .   . . .     . .     . = t A 0 7 3 7 6 7 7 0 0 e 7 6 6 2 2 2 2 3 6 2 2 6 6 2 0 Z A 0 2 7 6 6 5 2 6 O     . . .   . o o o + + ",
"; ; * * ; * ; * * * + + + B D D D D Z A C C u C Z K H K D D Z Z A D D D A D A H D D D A Z D H D Z C D S * ; * ; $ + + * ; * + + ",
"m B m m ; m m ; ; ; ; ; ; S D H D H D D H A Z A P T K I K K K I K K K D A D D D D D D D D D D Z u Y P Z ; ; ; ; * ; ; * ; m + * ",
"; m * * + * + + * + * + * 0 Z C A C t D A t 5 C K I Z D u Z u u Z u Z 0 u u u u A u Z Z u u u 2 6 I D V * * $ + + * + * * ; + * ",
"* ; + * o o + o * + + + * 7 Z 0 C Z 0 t C 7 2 Z I I Z Z u u u u C Z Z u i u u u t A u Z Z u 7 2 6 K Z S * o o $ o * + + + * + m ",
"* ; + * . + o + $ o o * + 0 0 A 0 A 0 Z 0 6 5 A P K Z u C t t Z t Z t 7 u u u 0 u u A A u u 0 2 7 K D u $ o o o + * + o * + + ; ",
"; * o + X o + . + o + + o 0 C V 0 u t u t u 2 t K P u A t C C u 0 u u 0 t 7 u 0 u 0 t u A u 0 5 7 K A 6 + . o + . o + o + + + * ",
"* ; + . o . . . o o . o o 6 6 5 5 6 6 0 6 2 5 0 H A 0 t 7 0 6 0 7 7 0 7 0 7 7 7 0 3 7 2 0 u 0 2 6 H D 0 o o . o . o o . . o o + ",
"+ * o . . . o . . X . X . 5 6 6 0 0 6 6 5 5 5 u Z u 6 6 6 6 6 6 2 6 2 2 7 0 7 7 5 2 2 7 3 7 7 2 7 Z u 7 . . . . . . . o . o + + ",
"; ; ; ; ; * * + + + + m B D P D D D Z Z u Z u Z H D D H A D H A u t u H H K H H A A H G D D D H A K H S * * + ; * ; ; ; * ; ; * ",
"; ; ; ; ; ; ; ; * o + B ; D H P K H D D H D H D H D D H D D D Z u A U K H K K K K K K A D A D H D D D C * + * m * * * * ; ; ; * ",
"* + * * * * * +   o + B + 9 t Z u Z u A u u u t D u u u t C C 5 t Z U D t u u u t u u u u u u Z u u 0 9 . o * ; + + o + o + + + ",
"+ + + + + + * o   o + m o 9 u Z Z u u Z Z u u 7 u u C t Z C A 6 t H T D u Z A u A u A u A u u A Z u C ; . o * ; o o o + o o * o ",
"* + + * * + + o   o + B + ; u A u t C C u t Z 0 Z t t Z t C C 5 0 D Y Z A u u u A u u Z u Z u Z u t t O . o * ; + . + o + o o o ",
"+ o + o + + + o   + + m o ; 7 Z u t C A u Z t 6 u t Z u u Z C 5 0 A U D t A u G u u A u A u u Z u A u $   . + ; o + + o * o o + ",
". . o . . . . .   o + * . + 0 u 0 0 e 0 6 0 7 6 t 0 0 6 t e 6 > 7 u K u 7 t u u t u u 0 t 0 0 0 7 t 7 .   o * * o o . . o . . . ",
". . . . . . . . . o * * .   % 2 6 0 0 0 5 2 2 2 2 6 5 6 6 5 5 d { Z A 0 3 7 7 t u 0 7 5 2 3 6 6 7 7 &     . + +     . . . . . . ",
"* * * * ; ; * * + * ; * + * N P H D D D D K K D D Z Z Z D D D <.e.X.D D D D D P P H D D C H H D D A < * ; ; ; * * * * + + * ; * ",
"; * ; ; * ; * ; * * * + + + F I K I K I K P K P K Z u Z I P ..4.i.&.n K D D D D H D D D D H G D D D * + ; * * ; * ; * * ; * ; ; ",
"+ o + + o * o * * o +   + + B C A D Z D Z A Z A u 7 u A P Z ' 7.s.<.v x ) b V u t V t t u C C Z 0 6   + ; + + + o * + + + o + + ",
"+ + o + o + o o o + o   X + m ; A u Z 0 Z A u Z 5 5 0 Z o.C ' q.t.*.^ / [ x Z 0 A 0 C t Z u u u 0 - . + * + + o + o + o + + + o ",
"+ . + + + * o * * o o   . + m * 0 u u A u Z t A 7 2 t Z :.C ] 0.p.>.+.@.*.b 0 u t C t C C C 0 A t +   + ; + * + o * + + + + + + ",
"+ o o + o + o + + o *   . + ; + 8 0 u 0 Z u t 0 6 5 0 D ;.#._ 6.a.9.5.:.{ 0 u u 0 t A t C C t C $ o   * ; + o + o + + o + + + o ",
". . . . . o . . o . X   o + * o X > 3 5 5 6 5 5 5 2 7 A -.-.1.w.f.t.2.+.! 6 0 7 5 0 0 6 t 6 6 9 . .   $ $ o o o o . o o o o o o ",
"    . . .     . .       o + + . . O 6 6 5 5 5 2 2 2 7 u [ =.3.u.g.y.,.( c 0 0 6 5 6 5 6 > > 5 O . . . o + . o . o . . . . o . . ",
"; ; ; ; * ; * * * m m ; * * * + * ; 0 Z Z D K D D Z D H Q ;.;.r.d.7.-.| D D Z Z H D D D J D S ; ; ; * ; * * * ; * * * ; * ; * * ",
"; ; ; m * ; ; * ; ; * ; * ; + + ; B m J P J J K H D D D H n [ 1.3.*. .D A A t D H D D D D D ; ; * ; * * + + + B ; * * * ; ; * ; ",
"* o + + + + + o * o o + o o   + ; ; * * Z 7 7 u C C C 7 C C d [ @.~ i 0 t 5 t D K t C 0 V $ + $ + o + + . o + m * + + o + + o + ",
"* o o + o + o + o o + X + o . + * ; o o - 7 0 Z e C C C t u f Q R p t 0 0 5 t D K 0 0 t ; o . + o + o o   . * m + + + + o + + o ",
"o + o o o + + o + X o o * .   + * ; o o $ * 0 Z t C C t V e g W E p t t 6 5 t D K u 0 - o $ o + o + + +   . + m * + + o + o + o ",
"o + + o + + o o + o + + o o   + ; ; + o * X + t 6 C t 7 C e g E k j t 0 t 5 6 C H 0 $ o o $ o o + + o +   . o m o + o o + + + + ",
"o . . . . . . o X . . . . .   + ; * . . o . . X > 6 7 6 6 7 , k g q 7 5 6 > t A 9 o X X . o . . . .   .     + ; o o . . . o . o ",
". . . . . . . . . . . . . . . + * + . . . . . . . o % 6 5 6 , k g : 5 5 > > & = *     . . . . . . . . .     + * . . . . . . .   ",
"* ; ; ; ; ; ; ; ; * * + * ; ; ; ; * ; ; ; ; m ; ; ; ; ; m 9 , k k G D S B m ; ; ; * * * ; ; * * * * + * ; ; ; * ; ; ; * * + + * ",
"; B m m m ; m ; m ; + + m B m ; ; m m ; m m ; m ; m ; m ; * : k j N m B m m m m ; m m m ; ; m ; ; * * * B m m m ; m m m m * + * ",
"; m * * * * + * * o . + ; B * + * + * * + * * + + * * * o o @ a j = * + * * + * + * * + * + * + * + . + B * * * * * * * + . + * ",
"; ; + * o * * + *   . + m ; * * + + + + + + + + + + + + o . # , C + o + * o + * + + * o * + * o * . . + m + * + + * + + . . o * ",
"; ; + + + + + o + .   + ; ; * * + + * o + + + o + + o + o . o $ 1 # # + + + + o * + + + * + + o * o . + ; + + + + + o * .   o * ",
"* * + * o + o + o . . o * ; * + o + + o + o + o + o + o . . o + ; + o o + o o o o + + o + o + + + .   + ; + + o + o + o . . o * ",
"* + o o   .     .   . o * o o . . . . . . . . . .       .   . + * . o . . . . o . . . . . . . o . .   + * o o . . .   . .   . + ",
"+ + . . . . . .       o * + . . . .       . .       . . . . o * + . o . o . . . . .       . . . . . . + + . . . . . .       o * ",
"; * * + * * * * + + + * + + + ; ; ; * * * ; * ; + ; * * ; ; ; ; * + o * ; ; ; * ; * m * * + * ; * * + + * ; * * o o m ; * ; + ; ",
"B ; ; ; * ; ; * ; * * ; * + * F ; m ; m ; ; ; ; m ; * ; ; ; ; ; * + + ; B m m ; ; m m ; m ; * ; * ; ; * ; m ; + + + m ; ; ; ; ; ",
"+ + * + + + + + + + * +   o + B * * + * + * + + + + + * + + * ; o . + ; m * * + + * * + + * + + + + + + * * + . o + m * + + + + ",
"o * * + o + o + + + + o   . o B + + + + + o + o + + + + o + * o . . + * ; + * + + + o * + + o + o + + o * + o   o + ; o + o + + ",
"* + * + + o + * + o + o   o o B + + + * o + + o * + + o o + + * .   o * ; + * + * + + + * + o + + + + o * * o   . o ; + + o + + ",
"o * o o o + o * o + * o   o + B * o + + + o o o o o + o + + o + .   o * * + + . + + o * o o o o + + o + + + o   . + ; o o o o o ",
". o .   . . . o . . .     o * ; + o o . o o o . o . o . . o . . .   o * * . . . . . . o .   . . o . . . . o .   . + ; o o . o . ",
"  .   . .         .     . + o * o . . . . . . o o       . .   . . . + * + . . . . . . .   . .       . . .   . . o * * . . o o   "
};
