/* XPM */
static char *torch01w601743666765[] = {
/* columns rows colors chars-per-pixel */
"64 64 121 2 ",
"   c #161515",
".  c #181717",
"X  c #191817",
"o  c #1C1C1C",
"O  c #221E1E",
"+  c #242424",
"@  c #2B2423",
"#  c #2C2C2C",
"$  c #362926",
"%  c #3C2F27",
"&  c #322D2C",
"*  c #3A2D2A",
"=  c #37302E",
"-  c #3E312E",
";  c #333333",
":  c #3B3533",
">  c #3E3836",
",  c #3B3B3B",
"<  c #44342B",
"1  c #4A362B",
"2  c #473A2D",
"3  c #563A2C",
"4  c #5F3E2C",
"5  c #423532",
"6  c #463936",
"7  c #4B3B34",
"8  c #453D3B",
"9  c #4A3D3A",
"0  c #5B3F30",
"q  c #513E38",
"w  c #603E2C",
"e  c #5F412B",
"r  c #5B4D2A",
"t  c #4E4234",
"y  c #45403E",
"u  c #4E413E",
"i  c #514434",
"p  c #52453A",
"a  c #5B463C",
"s  c #55493A",
"d  c #66412E",
"f  c #6B442E",
"g  c #764C2D",
"h  c #6C4834",
"j  c #664A39",
"k  c #754932",
"l  c #7A4B32",
"z  c #675A32",
"x  c #62553C",
"c  c #766524",
"v  c #73672D",
"b  c #7E7227",
"n  c #746834",
"m  c #7A6D38",
"M  c #7B7039",
"N  c #434343",
"B  c #4F4340",
"V  c #4B4B4B",
"C  c #524542",
"Z  c #564946",
"A  c #5A4A44",
"S  c #554B49",
"D  c #5A4D4A",
"F  c #5E514E",
"G  c #515151",
"H  c #605441",
"J  c #615552",
"K  c #665956",
"L  c #695C59",
"P  c #8A7E14",
"I  c #81741D",
"U  c #875D2C",
"Y  c #825035",
"T  c #895438",
"R  c #95672E",
"E  c #847827",
"W  c #897D27",
"Q  c #84772A",
"!  c #85782C",
"~  c #988617",
"^  c #95891F",
"/  c #A29615",
"(  c #AC9D12",
")  c #A99C1C",
"_  c #B1A60F",
"`  c #ABA111",
"'  c #918524",
"]  c #9F9426",
"[  c #B2A93C",
"{  c #C2AE0E",
"}  c #C3B707",
"|  c #C0B50B",
" . c #C8BC0B",
".. c #D4C902",
"X. c #D9CE02",
"o. c #DED301",
"O. c #DDD20A",
"+. c #E3D704",
"@. c #EADE04",
"#. c #E4DA0E",
"$. c #EADF0C",
"%. c #E0D715",
"&. c #E9DE12",
"*. c #E4DA1A",
"=. c #ECE002",
"-. c #F2E80D",
";. c #FAEF14",
":. c #F8ED1E",
">. c #EDE320",
",. c #F7EF2D",
"<. c #FCF32C",
"1. c #F8F038",
"2. c #DBD44B",
"3. c #EDE952",
"4. c #FBF45A",
"5. c #F5F16A",
"6. c #FEF96F",
"7. c #FAF779",
"8. c #FDFA7D",
"9. c #FBFB96",
"0. c #FCFC9A",
/* pixels */
", , , , , , , , , ; & 8 Z D Z Z Z Z Z Z D D D D D Z Z Z Z u 9 9 D F D D F D D Z Z B C Z Z D Z C Z Z D Z S , ; ; # ; ; N , , , ; ",
", N N N N , N , N , > 9 D K D D D F D D F D D F D D D F D u 6 C K J J J F J D J D F F D D D D Z D D D F J B N ; # # G V , N , N ",
"; ; ; ; ; ; # ; ; # : 9 D F C C u 9 B u u C C u u u C Z 6 5 6 C F C C u C u 9 Z 9 C Z 9 C 9 C 9 Z 9 B C u u & O o ; V , ; ; ; ; ",
"; # # ; + ; ; + # @ * 9 D D C C u 9 u u u 8 9 6 9 9 9 8 5 5 6 u F 9 9 6 C 6 6 C 9 u B 5 u 9 u 6 u 9 9 u u 9 :   o # V ; ; # # ; ",
"# ; # # # # # # : * * 9 D D C C 9 9 B 6 9 9 u 6 9 9 6 u 5 * 5 9 Z 9 9 u 9 6 9 6 B u u 9 B u u 5 B 6 9 u 6 u 9 . o ; N ; # # # ; ",
"# # # ; + ; + # : * * 6 C Z 9 9 6 9 9 6 9 5 9 6 9 9 9 6 5 - 5 9 D 9 5 6 9 6 5 6 5 9 9 5 u 5 9 6 u 5 6 5 5 9 5 O o # N # # # + # ",
"X + + +   o . o * * * 5 u 9 6 - * 5 - 5 - * - * - $ * - * * 5 9 u 5 5 - 5 - 5 5 - 5 5 * 5 * - 5 5 * * 5 $ - * $ o # , # O o . o ",
"X o o o . X o @ $ $ * 5 C 9 - - - * * $ * - - $ $ $ * * * * 6 C 6 5 - 5 * 5 * * * * $ * - 5 - - $ * * * $ * 5 u ; o O o O + + o ",
", ; ; # ; ; ; 8 9 9 9 C 9 9 9 D Z Z C u C D C Z u u C C C C Z u C Z D Z D Z Z u 7 6 Z Z D Z Z Z u C C u 9 9 C u 8 # # ; ; ; # # ",
"V , N , , , , C D Z Z Z B 9 C L F F D D Z D D Z F D Z Z Z Z Z Z Z Z Z D Z Z D u 9 8 L J D F D D F F D F Z Z Z Z Z , ; , , ; # ; ",
"N # & # # # : 9 9 9 B 9 * 6 9 K u C 9 C 9 u 9 u u 9 u 6 u 9 9 u u 9 9 C u u u * 6 9 J D 9 u 9 u C u 9 C 9 9 9 9 8 & & ; + . # # ",
"N ; # # + # : 9 9 9 9 6 * * 9 J 9 u u 9 9 6 9 6 u 5 u 9 6 6 9 9 u 5 9 u 8 u 5 * < 9 J u u C 9 u 6 9 C 9 9 9 9 9 9 : # # O . O # ",
"N # # # + # 5 C 9 9 9 5 * : 9 J 9 u 9 C 5 9 6 5 u 5 u 9 6 9 9 u 9 6 8 u 6 9 9 $ * 6 J C 9 u u u 9 u 9 u 9 6 8 8 B > # + +   + # ",
"N # # + # # 6 9 5 9 q 6 $ 5 C J C 6 9 9 9 6 6 5 6 6 u 6 5 9 6 9 5 9 6 6 u 6 8 $ $ 8 D 9 u 6 6 9 6 9 9 9 5 6 9 5 B : ; ; O   # ; ",
"; + o   o O : 5 - - : * * 6 q D 6 5 5 - 6 5 : 5 5 - 5 - 6 - 5 5 5 < - - 5 5 - $ * 9 D 9 < 5 $ 5 * 5 5 * * - - - 5 * O o     # ; ",
"+ o   o o O * $ - * * $ * 6 9 B 5 5 * 5 - 5 5 5 6 6 - - - $ $ * * 5 - * * < * - 5 u C 5 * 5 * 5 * * * < $ * * - - $ o + # + # # ",
"; N ; ; , 8 Z C C C 9 9 9 Z Z Z C C 9 C 9 9 9 9 u D Z D Z B u C C Z C Z u C C Z C Z Z C u C Z Z 9 9 Z D C Z C Z u 9 ; ; : ; # # ",
"N V N N , V D D Z Z Z Z D Z Z Z Z D Z Z D C 9 C F K D J F D D D D D D Z C Z Z C Z C Z Z Z C Z 9 9 K F D D Z Z D C D y , , N # ; ",
", V # ; # , 9 9 C C 9 C Z 9 9 9 9 9 9 C 9 9 * 9 F F C Z 9 u 9 9 9 9 B 5 9 u 9 6 B 9 u u 6 u 6 * 5 J Z u C B 9 9 9 C 5 # ; , # ; ",
"; ; # ; # = 9 5 C 9 9 9 C 5 C 6 9 C 6 6 C 5 * C J F u u 8 9 9 6 u u B 6 B 6 u 6 9 u 9 9 9 u 5 * - D B B B 6 6 u 6 u > # # ; ; , ",
"; , # ; o ; 5 9 C 6 6 C 6 6 6 C 5 C 6 9 5 * * C F D 9 9 9 9 9 9 6 9 6 5 9 u 6 5 9 9 u u 6 u 6 * 5 Z Z 9 u 6 6 6 9 B # # ; # # , ",
", ; + # O & 9 5 9 6 6 9 6 6 9 9 5 9 6 9 6 9 * 9 D F u u 6 9 9 9 6 9 9 5 5 5 9 5 u 5 6 9 B 9 5 * 5 F u 5 9 5 5 6 5 9 ; O # # # ; ",
"; , + O O + * 5 5 5 5 5 5 5 5 * * 5 * 6 * * * 5 Z C 5 6 5 5 - 5 5 5 5 5 5 5 5 - 6 * 5 * 6 6 5 $ - Z C 5 5 5 5 5 - - @ O + + + ; ",
"# ; + o O O - < * 5 * 5 5 * * : 6 5 5 5 * * * 9 u 9 - - - - - - $ * * * - 5 5 - * * * 5 * - 5 - - B 9 5 5 * * 5 - - + o o o # # ",
", , , , ; ; B u 9 9 B F F D D Z Z Z 9 9 9 u u B Z C C Z B Z Z C 9 6 u C Z D Z Z C u Z C C Z C Z u D D C Z B B Z C Z , , ; , , , ",
", , , , N , Z Z B 6 9 J D D D D D Z Z D Z Z Z C Z Z Z D Z Z Z u 9 C J F D D D F D D D C Z C Z Z C Z Z C u 6 Z D C 9 ; ; , ; , & ",
"; # ; ; ; ; 8 9 * 6 9 K 9 9 6 C 9 9 9 B u 6 9 6 C 9 9 9 9 q 9 * 5 C K C 5 9 9 u 5 u 9 9 u 9 9 u 6 u 8 9 * 9 C Z 9 > + # # + ; # ",
"# # # # & # , 6 $ 5 6 J 6 C 9 9 B 9 9 B 9 9 9 5 9 9 9 6 u u u 5 6 Z K C 9 u u 9 u u C 9 u 9 9 u 9 9 9 5 * 6 Z Z 5 # + ; + + # + ",
"; # ; # ; # # 6 * 6 u J u 9 9 B 9 6 9 9 9 6 u 5 9 9 6 u 6 u 9 * 6 Z K u B u 9 6 B u 6 u 9 u u u 9 6 6 5 $ 6 C Z N O # # ; + + + ",
"# + # + # # # : * 6 9 F 6 B 5 u 9 6 9 C 9 9 6 - 6 9 9 9 9 u 9 * 5 u J C 6 C 9 C 9 9 u 9 u 6 9 B 9 u 9 6 * 5 B C : # + O # + + # ",
"o o O o o + o + * 6 u Z 5 9 5 6 5 5 5 6 < 5 5 - 6 5 5 - 6 5 * $ 5 9 D 9 5 6 5 9 6 6 6 5 6 6 5 5 5 6 5 < $ 5 u B & o + o + + O . ",
"o o o o o o o o * 5 B B - $ * * : 5 6 5 - $ $ * * - * 5 - - 5 * 6 9 u 5 5 5 5 5 9 5 5 * * - - - - - - $ $ - u B . . . o . o o o ",
"; , ; ; , , ; ; 6 9 Z u u B Z D Z Z Z Z Z Z Z Z Z B y B A A ) Q Z Z A D u A S F F Z Z C u Z Z Z Z u 9 C D Z Z 8 ; ; ; # # ; , ; ",
"; ; , , ; , ; , , Z Z 9 9 u K J D F D F D J D D F B t ! J m *.2.m D D D S C S u Z Z Z Z C Z Z C Z C 9 9 Z C C , ; , , ; , ; , ; ",
"# + # ; + ; + ; # * 9 * 9 9 J C C Z C Z C u C C 8 < t ( ] b %.3.I 6 6 d p 9 8 9 6 9 9 9 9 9 9 9 6 6 * C Z u , # + & # # # + # # ",
"# + o # + # + + # # 5 * 5 9 F 9 C 6 9 9 u B 9 9 - * t ( ..} &.5.[ j 5 ' t 6 u 5 u 6 9 6 C 9 9 9 5 9 * 9 Z 8 & + # + # + ; # # + ",
"# + # # # # # ; ; + & * < 9 D u 9 9 9 9 9 u 9 C : * 7 v O.$.<.8.*./ b / s 6 5 9 5 9 9 9 9 9 6 C 9 9 * 9 Z : # # + # # # # # + # ",
"# + + # # # O # # + # @ : 9 D u 9 6 9 6 9 9 6 6 - * 5 x +.;.6.9.,.#.X.` s 5 6 u 5 9 u 6 9 9 9 9 5 5 * u C # # # + # # + # # # + ",
"o + . o o + o O + O + . 5 9 9 6 6 * * * * - * - * * : x ..=.4.0.8.<.@.` 2 - - 5 < 5 5 5 6 5 5 5 - - * 9 ; + + O + + + + + o # O ",
"    o o .       o     o & 9 9 : 5 * - * * * * * $ * < i _ +.<.9.9.1.+.P 2 5 5 - * : * * $ $ * * * - - # # O O O o o o + o + O o ",
", , , , ; , ; ; ; , N , ; N B u C Z C B B C D Z Z u Z Z Q ..<.7.7.:...n Z Z u u Z Z Z Z D C Z Z Z Z N ; , ; # , , ; ; , # , ; ; ",
", , , N ; , , ; , , , , ; ; : B Z K F D D D D D Z Z C C A ' ..-.+._ ! C u C 6 Z D C Z C Z D D Z C N ; , # + # V , , , , , , ; , ",
"# + # # # + # + ; + o # + +   : Z D 9 9 9 5 * 9 9 9 9 5 q p ~ { ( c u 6 9 * 9 C D 9 9 5 9 9 9 9 , + # # o + # V # # # o # # + # ",
"; + + ; + # + # # + # + # + o # 8 D 9 5 C 5 6 B 6 9 9 u 6 q g R U e u < 5 * 6 Z D 6 5 6 B 6 5 , @ # + +   o # V + # # ; + # # + ",
"+ # + + + # # # # + + + # O   # ; N 5 5 p 6 6 u 6 9 9 5 9 7 f T l w 2 9 5 * 6 C D 9 5 9 9 9 # + + ; + #   o # N ; + # + # + # + ",
"+ # # + # # + + # + # # + +   # , , # = B 6 6 9 : 9 9 5 9 7 d Y k e 9 5 6 $ 5 9 D 6 9 6 & & + + + # + #   o + N # # # + # # # # ",
"o o + o o o o o O o o o O o o # ; ; o   O # - - - 5 5 - < 5 3 g f 1 : * 5 $ 5 u u 5 $ + o O o O o o o O     # , o + o o o + o + ",
"o o o o o o o o o o o o o o o # ; # O O o o O @ * - * - < * 3 k f < * * $ $ 5 9 , . . o o o o o o o o       # ; o o o o o o o   ",
", , , , , , , , , ; ; # ; , , ; ; , ; , N , , N , , , N N u e k h A S V V N N , , ; ; ; , , , ; ; ; # ; , , , , , , , , ; ; # ; ",
", V N N N , N , N , # # N V N N N N N , N N N N , N N N , ; 1 g h B N V N N N N , N N N , , , , , , ; # V N , N , N , N , ; # ; ",
", N ; ; ; ; # ; ; + o # N N ; # ; # ; ; # # ; # # # ; ; @ O = f j > ; # ; ; # ; # ; ; # ; # ; # ; # O # V ; ; ; # ; # ; # o + ; ",
", , # ; + ; ; + # o o # N , ; ; # # # # # # # # # # # # O o & 3 a # # + ; + + ; + ; ; + ; # # + ; o o # N # ; # ; ; # ; o o # ; ",
"; , # # # # # # # o   # , , ; ; + # ; + # # # + # # + ; O . + ; 8 # # # # # # + ; # ; # ; # ; + ; o o # , # # # # # # ; o . # ; ",
"; , # # + ; + # + o   # ; , # # + # # + # + # + + # # + + o o # , # + + # + + + + # # o # + # # # +   # N # # + # # + + o . + # ",
"; # + +   o     o o o o ; + + o o + o o o o o o O     o   . o # ; o + O + o o o o o o o +   o + o o   # # + +   . o   o . . o ; ",
"# # o o o . o o       + ; # + o o o       o o         o o . # ; + + o o o o + o + o       o o o o . o # # o + o o . o       o ; ",
", ; ; # ; ; ; # # # # ; # # # , , ; ; # ; , ; , # , ; ; , , , , ; # + # , , , ; , ; , ; ; # ; ; ; ; # # ; , ; ; + # , , , ; ; , ",
"N , , , ; , , ; , ; , , ; # # G N N N N ; N , , N , ; , , , , , ; ; # , G N N , N , N , N , , , ; ; , ; , N , # + # N N , , , ; ",
"; # ; # # # # # # # # #   + # V ; # # ; # ; # # # # # ; # # ; ; + o # , N ; ; # ; ; ; # # # # # # # # # ; , # o # # N # # # # # ",
"# ; ; # + # # # # # # +   + + V # ; # # # + # + # # # # + # ; + o o # ; , # ; # # # + ; ; # + # # # # + ; # +   o # N + # # # # ",
"; # ; # + # + ; # # # +   o # V # ; # ; + # + + ; # # + + # # ; o   O , , # ; # ; # # # # # + # + ; # + ; ; +   o + N # + + ; + ",
"+ # + + + # # # + # # +   + ; N ; + + # # + + # + + # + # # + ; o   + ; ; # # o # # + ; + + # + # # + # # # +   o # , + + + + # ",
"o +     o + o +   o o o   + ; , + + + o + + + o + o + o + o o o     + ; ; O o . o o o + o   o o + o o   o + .   o # ; + + o + o ",
"o o   o         o o     o + # # + + o o o o o + +       o o . o o o # ; # o o o o o o o   o o       o o   o o o + ; ; o o + +   "
};
