/* XPM */
static char *torch06w401743666765[] = {
/* columns rows colors chars-per-pixel */
"64 64 125 2 ",
"   c #1D1D1D",
".  c #242424",
"X  c #282727",
"o  c #2A2A25",
"O  c #2C2C2C",
"+  c #343427",
"@  c #31312D",
"#  c #3E3E2E",
"$  c #343434",
"%  c #383330",
"&  c #393935",
"*  c #3B3B3B",
"=  c #42362D",
"-  c #473E2B",
";  c #51392C",
":  c #403936",
">  c #57412D",
",  c #59422E",
"<  c #444434",
"1  c #4E4533",
"2  c #484837",
"3  c #43433B",
"4  c #4C4C3C",
"5  c #5E4734",
"6  c #534937",
"7  c #5F4834",
"8  c #524E3D",
"9  c #56553A",
"0  c #58503F",
"q  c #59583C",
"w  c #61432E",
"e  c #6C442E",
"r  c #77482F",
"t  c #76512A",
"y  c #6C4730",
"u  c #6D4A34",
"i  c #774830",
"p  c #7A4C33",
"a  c #734F39",
"s  c #615E30",
"d  c #7A7028",
"f  c #6E6C3A",
"g  c #7A7834",
"h  c #7C7A3C",
"j  c #434343",
"k  c #4D4745",
"l  c #4D4D43",
"z  c #4B4B4B",
"x  c #545444",
"c  c #5B5B42",
"v  c #54544B",
"b  c #5A504A",
"n  c #5B5B4B",
"m  c #525252",
"M  c #5D5D54",
"N  c #5A5A5A",
"B  c #634E44",
"V  c #6D5140",
"C  c #63594A",
"Z  c #6B6A45",
"A  c #696849",
"S  c #636353",
"D  c #66665A",
"F  c #6B6B5B",
"G  c #70705F",
"H  c #626262",
"J  c #6A6A62",
"K  c #737363",
"L  c #875E2D",
"P  c #825035",
"I  c #895438",
"U  c #95672E",
"Y  c #857F21",
"T  c #837F2C",
"R  c #827F40",
"E  c #8D8616",
"W  c #9A8B18",
"Q  c #A49D16",
"!  c #AE9D13",
"~  c #A59F1B",
"^  c #ADA713",
"/  c #AFA814",
"(  c #B3AB11",
")  c #85822E",
"_  c #8A862C",
"`  c #908C2D",
"'  c #999424",
"]  c #97922A",
"[  c #8B8732",
"{  c #ADA620",
"}  c #A6A12D",
"|  c #B6B03F",
" . c #C2AE0E",
".. c #C3BA0B",
"X. c #C9BF0D",
"o. c #D4C902",
"O. c #D9CE02",
"+. c #DED301",
"@. c #DDD20A",
"#. c #E3D704",
"$. c #E3D806",
"%. c #EADE04",
"&. c #E4DA0E",
"*. c #EADF0C",
"=. c #E0D715",
"-. c #E9DE12",
";. c #E4DB1A",
":. c #ECE002",
">. c #F2E80D",
",. c #FAEF14",
"<. c #F8ED1E",
"1. c #EDE320",
"2. c #F7EF2D",
"3. c #FCF32C",
"4. c #F8F038",
"5. c #848241",
"6. c #DCD74D",
"7. c #EDE952",
"8. c #FBF45A",
"9. c #F5F16A",
"0. c #FEF96F",
"q. c #FAF779",
"w. c #FDFA7D",
"e. c #FBFB96",
"r. c #FCFC9A",
/* pixels */
"j z z j j j z z j j * & j z j j z j j z z z M D S S n S S c x v F F F F S F S S v 3 j j j z j j j z j j z z j j $ * j z j j j j ",
"z m m m m z m z m j * $ m N z m z z z z m D D F S F D F S n 4 n K F G G F F F F S D m z z z z j z z z m m z m * $ * H N m m z m ",
"* j * j j * * * * O X * z m * * * * * 3 l n n c x n c n x < 4 v F n n x n n x n x n n * 3 $ j $ j * * j * * * . . * N z * j j * ",
"* * * * $ * * $ * . . $ z z j j $ * * l v x x 4 x x x x 2 2 4 n F x 4 x n 4 4 n 4 n v 3 * & * $ * $ $ * * * O   X * N * * $ $ j ",
"$ j * $ * * * $ * .   $ z z j * $ * l 4 x x x 4 x x 4 n 2 < 2 x S x x n x x 4 4 n v x 9 l * * O * $ $ * O * $   . * m j $ * $ * ",
"* $ & * X * O $ O .   $ j j * * o * x 4 x 4 x 2 x 4 4 4 2 < 2 x S x 4 4 x 4 4 4 4 x x 2 v @ $ $ & O $ O O $ .   . $ m * * $ $ * ",
". X O O   .     .   . O * $ O . . < < < < < 2 < < # < < # # < x n < 2 2 2 3 2 2 < < < < 2 # . o . .   .     .   . $ j $ O .   . ",
". . . . .   .         O * $ X . o < # # # < < # # # # < < < 4 n l < < 2 2 2 < < # # # < < < O .     .       . * $ . O . . O O . ",
"z j * & j j j * $ * * * * $ * j n S n c n S S n x c n n n n M c S S S S D S S n 4 4 S n S S n j * j j * $ $ j * $ * $ j j * $ * ",
"N z z z j j j j j j j z * * * J D F D F S S S S F D S S S n S S S n n S n S S x x x K K S D S m m m j z j j j j j j j j j * * * ",
"m * * $ $ $ $ $ $ * * $   O * J n n x n x v x x x x n 4 c x x x n x x n x n c # 4 x K S x c x x j $ $ j $ $ O j $ $ * j $   $ * ",
"m * * * O & $ * $ $ * O   X & J x n x x x 4 x 4 n 4 x x l 4 x x n 4 4 n x x 2 # < x J c v n x n $ $ j * * $ $ $ $ $ * $ X   O $ ",
"m $ * $ O $ $ * * $ $ O   X 3 J x n x n 2 x l 4 x 4 n x 4 x x v 4 4 x c 4 x x < < 4 F S 9 v x c j * $ * $ O $ $ * $ $ $ O   O $ ",
"z * $ O $ $ O * X & * O   O x G n 4 4 x x 4 4 4 4 4 x 4 4 l 4 x 4 x 4 4 v l 4 # # x S v v 9 4 x 3 $ $ & O O * O * O * * .   $ j ",
"j O .   . . . . . . .     O v S l 4 3 2 4 2 2 2 2 < 4 2 2 2 2 2 2 < 2 < 2 < < + # x S x < < # 4 # . X .   . . . O . . .   . $ j ",
"O .   . . .     . .     . & x n 4 2 < 2 < 2 2 4 4 4 2 < < # # # < < < < < < < < 2 v n 2 < < < < < . . .     . .       O $ O $ $ ",
"j z j * j j j j j * * $ * z n S n n n x x n 4 x n D n S S c c n n n n S c n n S S n M n x c S S x 3 z z * z j j * * * j j j $ $ ",
"m N m z z z m z z j j z z v S S n S n S D n n n F K D F D D D F S F S S M S n n S n S M S S M x l J m z z j j z j j j j z z * j ",
"j m * j * * $ $ j * * * j 4 v x n x 4 n n l # 9 F F n S x v x x c x c l 9 x l l c l v c 4 x l # < D j * j * * $ $ * * * * j $ j ",
"j j * j $ $ $ O * $ & * * 3 n 4 x n 4 x x 2 # n G F x v 9 x x 4 n x x l n l c 4 l c x c x x 2 # < S * * * $ O * $ * * $ * j $ z ",
"j z $ j . $ O $ * $ O * $ 4 4 n 4 n 4 x 4 2 # n F S x 9 x l 9 x 4 x l 2 x x l 4 x x x n l x 4 # 2 D j * * O $ O $ * O O * * * z ",
"j j O $ X O $ X & O $ * @ 4 x 8 4 x 4 x 4 x # 4 D F x n 4 x x l 4 x x 4 4 2 x 2 c 4 l l n x 4 # 2 D * o $ O O $ O $ $ O * $ $ * ",
"j j $ . X X X . X O X O X 2 < # < < < 3 < # < 2 S n 4 4 4 2 2 2 2 2 2 2 4 2 2 < 4 # 2 < 4 4 2 # < S j O X O . O . O O O O O $ * ",
"* * O X . . X X . . X X X < < < 2 2 2 # < # < x x x 2 3 2 2 2 2 # < # # 2 2 4 2 # # < < 2 < < < 2 v & o X . . X . . . . . O $ $ ",
"z j z z j j * * $ O * m m D D S S n n x x n x n S n n D n S S n l l c n S D S n n n n n M n n S n M z j j j * z j j j z j j z j ",
"j z z j z z z z * $ $ N z S S F D S n S S n n n S n n S n M n x x n G F S S S F S D S M S S n S n M j * * O j m j * * j z j z * ",
"* * * * j * j $   O * N $ l l n 4 n x n x x x 4 n 4 x x x x x < 4 c K n 4 x c x 2 n x x 9 x x x l x $ $ . $ j j $ $ O * $ $ * $ ",
"$ * * $ * $ * O   X $ m O x x x n x 4 n x x x 2 x x n 4 x n x < 9 M K M l n x x c x n l x x x c x l $ O   O j j O O O * O O * O ",
"j $ * * j $ $ O   $ * N * j x n 4 4 x x x 4 v 4 n 4 4 n 4 x x # 4 M K n n x x x n v x n x c x n x 3 @ X   $ j j $ O $ $ * O O O ",
"* O * O * $ * O . O * m O j 2 n n 4 x n x x 4 < 4 x x x x n x # 4 v G n 4 n x c x x c l n l x v 4 l $ @   . $ j O $ $ O * $ O $ ",
"  . X . . . .     O * j X * 4 4 2 4 2 4 2 2 2 < 4 2 2 2 4 2 < # 2 x D x 2 4 4 x 4 4 l 2 4 2 4 4 < $ X .   O j * O . . . O . O   ",
". . . . . . . . . X * * .   # # 2 2 4 4 < # # # < < 2 < < < < < 4 x n 2 2 2 2 4 x 2 2 < # < < < < . .     . $ *   . . .   . . . ",
"j j * j j z j j $ * j * * * n S n S n S n S S n n n x v M A / [ n S S S n S S F F S n n n S S n n * * * z j j * j j * * $ * j j ",
"j j j j j j * z j j j * & * J J F G S F S F F F S n x ` F 5.;.6.5.F S S n n n n S n n S n n S n v j * * j j j j j j j j j j j j ",
"$ O * * O * O * & O *   $ * N n n n x n n n x n x 2 0 ^ } ) =.7.Y 4 4 s c l 9 x 4 x x 8 x x x x $ O   & z * $ * O * * $ * O * $ ",
"* $ X * O * X $ $ $ O   . * m l n 4 n 4 n n x n < < x / o...-.9.| f 2 ' 9 4 n 4 n 4 x 4 n x x 4 O $   * j O * O $ O * O * $ * O ",
"$ X $ * $ * $ * * $ O   X * z * x x x x x x 9 n < # 9 g @.*.3.w.;.~ ) Q c x 2 x 4 x x x x x 4 3 $ $   * j * * $ O * $ $ $ $ $ * ",
"$ O O $ O * O * $ O *   . * z * v 4 x 4 x 4 l 4 < # 4 Z +.,.0.e.2.&.O.^ c 4 4 x 2 x v 4 x x x & X O   * j * $ * O $ * $ * $ * O ",
". .   O . X X X O X O   O $ * O @ # < # # < # < < & 2 Z o.:.8.r.q.2.:.^ 4 2 2 2 < 4 4 < 4 2 @ O . X   * * O O X O O O O O X O O ",
"    . .         .       $ $ * X X # < < < # < # # # 2 9 ( $.3.e.e.4.+.E 2 2 2 2 # # < # # +   . . .   O * . X X X . X X . O . X ",
"z j j z j j j j j z m z j j * * j z n n n n S S S n n S _ o.3.q.q.1.o.h n S n n S n S n D j z j j j j j j j j j j * j j * j j j ",
"z z z z j j j j z j j j j j * * z m M S S S S S S n n n S ] O.>.$...[ n n x 4 n S n n S m z z z j j j j $ $ $ N z j j j z j j j ",
"$ $ $ * $ O $ O j O O $ O O   $ j z * 4 n 4 2 x x x x 2 x c W  .! d x 4 x < 9 S S x x < * $ $ * * O $ $   O * m * * $ X * * O $ ",
"j X O * $ $ O * O O * O $ O   $ j z $ O x 2 4 v 4 x x n 4 0 t U L 9 x 3 4 & 4 M S 4 < @ * O O * $ $ O $   X * m $ $ * * O $ * O ",
"$ $ $ O O * $ $ * X O O * X . $ j z $ O * 4 4 v 4 x x 2 x 6 e I t w 1 x 2 # 4 n D x X & $ $ O O O * $ $   . * m j $ $ O $ O $ O ",
"O $ $ X $ $ $ O $ O $ * O O   $ z j $ O * O < x 2 x l 2 x 8 e P p w 9 < x # 2 x v O $ $ O * O O $ $ O $   . O z $ $ $ X * $ $ * ",
"X X O . . X . X O X X   X .   $ j * .   X . . @ < 2 2 < < 2 > i u 1 < < # # 2 l * O X . X X . X . . . .     $ z X O O . . X . O ",
". . .   .   . .   . . . . . . $ j & X . . . . . X + < & < < > i u < # < # o O $ *   . . . . . . . . .       $ * . .   . . . .   ",
"j z z j j j z j j j * * j j j j j j j j z z z z z j j z v x 5 i a n N N z z z z j j * j j z j j j * $ * z z j j j z z j j * * * ",
"j N m z m z m z m z * $ m N m m z z m z m m z m z m z m z * ; i u m N m m m m m z m m z z z z z z j * * m m m m z m z m z * $ j ",
"j m j * j * * * * $ X $ z m * * * * * * $ j j * * * j j $ X % y B 3 j $ j * $ j $ * j * * $ * $ j O O * m j * j * j * j $ X $ * ",
"j z $ j O * j $ *   . $ z z j j * * * * * $ $ O $ $ $ $ O X % 5 b & $ $ * O $ * $ * * O j $ * $ * X . $ m * * $ * * $ * . . O j ",
"j z $ * $ * $ $ * .   $ z z * j $ $ * O $ $ * O * $ $ * O   X * k $ & * $ $ $ O * * $ $ * * * O j O . $ z * $ * $ * $ * .   $ * ",
"j j * * O * O $ O .   $ j j * * O $ $ $ * O $ O $ $ $ O O . X $ z $ O $ * O O O $ * $ O * O $ $ * . . * j * * O * $ O $ .   O * ",
"j $ O O         .   . O * $ O . . O . O .   . . .           X $ * X X X X X . O . . . . . . . O . .   $ * O O     .   . .   O * ",
"$ $ X . . . . .       O * $ . . X         . .         . . . O j $ . X X X X . . . .       . . .   .   $ * . X .   .         . * ",
"z * * * j j j * $ * * * * $ * j z j j * j j j j * j * j z j z z * & O * z z j j z j z * * * * j j * * $ * z j * O $ z z j j * j ",
"N z z j j j j j j j j z * * * H m z z z z z z j m j j j j j z z j * $ z N m z z m z m z z z j z j j j j z z z * $ $ m m z j z z ",
"* * * * O $ * $ $ * * $   O * N * j * j * * $ * * $ * j $ * j j O X $ j m $ j $ * * * * * * $ $ $ * $ $ j j $   O * m * $ * $ $ ",
"$ * * * O * $ $ $ $ * O   . $ N $ * $ $ $ O $ $ * $ * * O O * O X   $ j j * j * $ * O j * * O * $ $ * O j $ O   O $ z O $ $ * $ ",
"* * * $ O $ $ j $ $ $ O   . $ N $ * $ * O * $ O * $ * $ O $ * * .   O j z $ * $ * $ * $ $ * $ O $ * * O * j O   . $ z * O O * $ ",
"O * $ O $ $ O * O * * O   O * m j O $ * $ O O O O O $ O * O $ * .   O j j * * X * $ O j O O $ $ $ $ O $ * * O     * j O O $ O O ",
". O     . X . O . . .     O j z $ O X X O O X X O X X X X X . X     $ * * X X   . . . O .   . . X . . . O X     . $ j X X X O X ",
"  .   .         .       . O $ * O X X . . . X O O       . .   .   . $ j $ . X   . .   .   .   .       .     . . $ * j . X O O   "
};
