/* XPM */
static char *torch10w601743666766[] = {
/* columns rows colors chars-per-pixel */
"64 64 118 2 ",
"   c #151515",
".  c #1C1C1C",
"X  c #22221E",
"o  c #242424",
"O  c #2B2B23",
"+  c #2C2C2C",
"@  c #3C2F27",
"#  c #302B28",
"$  c #353526",
"%  c #33322C",
"&  c #3B3B2C",
"*  c #333333",
"=  c #3A3634",
"-  c #3F3F30",
";  c #3B3B3B",
":  c #443A28",
">  c #483F2E",
",  c #553F2B",
"<  c #5F3E2C",
"1  c #413B39",
"2  c #46462E",
"3  c #48472E",
"4  c #57402C",
"5  c #5C432D",
"6  c #5F5D2B",
"7  c #444434",
"8  c #4D4534",
"9  c #4E4C34",
"0  c #43433C",
"q  c #4B4B3C",
"w  c #5C4532",
"e  c #5B463C",
"r  c #514938",
"t  c #505035",
"y  c #5A5931",
"u  c #63422D",
"i  c #6B452E",
"p  c #77482F",
"a  c #615E20",
"s  c #75502A",
"d  c #664A39",
"f  c #744A33",
"g  c #7A4B32",
"h  c #625D32",
"j  c #646123",
"k  c #706D2A",
"l  c #676532",
"z  c #6B693B",
"x  c #767532",
"c  c #424242",
"v  c #4F4F41",
"b  c #4B4B4A",
"n  c #545444",
"m  c #5D5444",
"M  c #5B5A44",
"N  c #54544B",
"B  c #5B5B4B",
"V  c #505050",
"C  c #5F5F51",
"Z  c #656444",
"A  c #686743",
"S  c #6D6C4A",
"D  c #626252",
"F  c #686858",
"G  c #875E2C",
"H  c #825035",
"J  c #895438",
"K  c #95672E",
"L  c #807D28",
"P  c #9D9614",
"I  c #A79513",
"U  c #AB9911",
"Y  c #A49E1C",
"T  c #A9A10F",
"R  c #B2AB0B",
"E  c #BDB40D",
"W  c #A7A015",
"Q  c #ABA312",
"!  c #AFA813",
"~  c #BFB710",
"^  c #848022",
"/  c #878328",
"(  c #908C26",
")  c #999320",
"_  c #9D9821",
"`  c #C3AF0E",
"'  c #C0B70F",
"]  c #C8BF0D",
"[  c #C7BE1A",
"{  c #C7BE21",
"}  c #CEC401",
"|  c #CEC40D",
" . c #DDD204",
".. c #D6CD14",
"X. c #DBD21D",
"o. c #E0D506",
"O. c #E6DB02",
"+. c #EDE10A",
"@. c #F3E90E",
"#. c #CAC22F",
"$. c #E9E021",
"%. c #FBF22D",
"&. c #EEE635",
"*. c #F2EA34",
"=. c #FCF233",
"-. c #FDF439",
";. c #CAC546",
":. c #E4DF4C",
">. c #E9E34F",
",. c #FCF443",
"<. c #F6F056",
"1. c #FDF757",
"2. c #FAF775",
"3. c #F7F47B",
"4. c #FEFA79",
"5. c #FDFB8C",
"6. c #FDFB91",
"7. c #FBFEB7",
/* pixels */
"; ; ; ; ; ; ; ; ; * * + ; ; ; ; ; ; * ; ; ; ; ; c q n N n q q q C C C B n ; ; ; ; * * ; ; ; ; * * ; ; ; ; ; ; * + + ; ; ; ; ; ; ",
"; c c c c ; c ; c ; + + ; b c ; ; c c ; c c 0 b B B B C B n 7 v D D D D C C b c ; c c ; ; ; ; ; ; c ; c c ; c * + + V b ; c c ; ",
"+ * * * = * * * * o . + c c * + * + * % + * 0 q q q q n 7 - q v C n v q n q q q + * ; + * + * + ; + * * * * + . . * b ; + ; * + ",
"* * + * o + * o + . . + ; ; ; * + + + + * 7 q q q q q q 7 - 7 v C 9 q 7 v 7 q v 7 + * o * + + + * o + * + + +   X + b * * + + * ",
"+ * + + + + + + + . . + ; ; * * + + * o - q q 7 q q 7 q 7 & - t B q q q q q q 7 v 0 + + * + + o + o o * o + +   o + c * + + + * ",
"+ + + + o * o + o .   o ; ; + + X + + + q 7 q 7 q q q 7 7 & 7 q n q 7 7 q 7 7 7 7 q * X + o + o + o + o o + .   . + c * + + + + ",
". o o o         . . . . * + o . . X X - - & - & & & & & & & & q q 7 - 2 - - - - - - & . o . . X . .   .   . .   . o ; o o .   . ",
". . . . . . . .     . . * + . . . . O $ & & - $ $ $ & & & & 7 q q - - - - - - & & $ & O X . . . .   .       . + + . o . . o o   ",
"; ; * + * * * * + + + * + + + ; ; 0 v v v B n n q q n n n v n v v B n B B B n q q 7 n n c ; * ; * ; * * + + * + + + + * * * + + ",
"b ; ; ; * ; ; * ; * * ; * + + V c B B B n B B B C B n n n B n n B n n B n B B q q q F D n 0 c ; ; c ; ; * ; ; ; ; ; * ; ; * + * ",
"c + * + + + + + + + * +   o + b ; q q n q q q q q q q q q q q q q q q q q q t & 7 q D B q * + + * * + * + + o * + + + * o   + + ",
"c * + + o + + + + o * o   . + b 7 q q q q 7 q 7 q 7 q q q 7 q q v 7 q q q q 7 $ - q D q v 0 + * o + * + + + + + + o + + o   o + ",
"c + * + + o + * + + + X   . + b 7 v q q 7 q 7 7 q 7 q q 7 q q q q q q q 7 q q $ & 7 C n q q % + + + + * + o + o * + + o .   o + ",
"c + o o o + o + . + + o   o * b n 7 q q q 7 7 7 q 7 q 7 7 9 7 q - q q 7 q 7 q $ & q B q q 7 % + o + + + . + + o + o + * o   o * ",
"* o .   . . . o . . . .   o * v 7 7 - - 7 7 2 - 7 - 7 - 7 - - - - - 2 & 7 - - & & q n q - - O o   o .     . o . o   . .   . + * ",
"o .   . . .     . .     . o + v 7 2 - - - - - 7 7 7 - - - $ & & & & - & & & & & - q q q 2 & & . .   . .       . .     o + o + + ",
"; ; * * ; ; ; * * * + + * * ; n n n q n q q q q q B n M n v q v n n n N v n n M n n n n q n M ; + + ; ; * ; * ; * + + * ; * + + ",
"c b c c ; ; c ; ; ; * ; ; ; 0 B n n n B B q q n C D C C C B B B B B B M n n v n N n n n n n n = + b c ; ; ; ; ; * ; ; * ; c + * ",
"; c * * + * + o * * + * * + ; q v q q q q 7 & q C C v n q q q q q q v 7 q q q 7 q q q v q q 7 O . c ; * * * + + + * + * * ; + * ",
"* ; + * o + + o * + + + * o 0 7 q q 7 q q 7 & q D D q q q q q 7 q q q q q 7 q 7 q v q q q q 7 O o ; * + * o o + o * + + + * * ; ",
"* ; + * . + o o * o o * + o - q 7 q 7 q q - & q C n q q q q 7 q q q 7 - q q q 7 q q q q 7 q 7 $ . ; ; + + o + o + + + o * + + ; ",
"; * o + o o + o + o o + o o q q 7 q 7 q 7 q & q M C q n 7 q q q 7 q q 7 7 - q - q 7 7 q n q 7 $ o c * . + o o + . + + o + + + * ",
"* ; o o o . . . o o . o X X & - - - - 7 & & & 2 n n 7 7 - 7 - 2 - & 2 - 2 - - - 7 & 7 & 7 7 - $ . ; * o . o . . . o o . . o o + ",
"+ * o . . o . . X . . o . . & & 7 7 - & & & & 7 q q - - - - - - & & & & - 7 7 - $ & & - - - - & . * + o . . o . . . . . o o + + ",
"; ; ; ; * * * + + o * c b ; B N n n q q q q q v B n n n v n B n q 7 q n B B n n v q B n n t n M * ; ; * * * * ; * ; ; ; * ; ; * ",
"; ; ; ; ; ; ; ; * + + b ; ; B B B n n B B n n n n n n n n n n q q q D B B B B B B C B n N n N n * ; ; + * + * ; * * * * ; ; ; * ",
"* + * * ; * * +   o + c O + q v q q q q q 7 q 7 q q q q q q q & 7 q F n 7 q q q 7 q q q q q q q + + + +   + * ; + + o + o + + + ",
"+ + + + + + * o   o o b o * 0 q q q q n q q q - q q q q v q q & q n F n q q q q v q v q q q q q + + + o   o * ; o o o + o o * o ",
"* + + + * + + o   + + b + + 0 q q 7 q q q 7 q 7 q q q q 7 q 9 & 7 B F q q q q q q q q t q q q 0 + o + .   o * ; + . + o + o o o ",
"+ o * o + + + o   o + c o * & q q 7 q v q q q & 7 q q q q q 9 2 7 q D n q q q n q q q q v 7 q 0 o * + +   . + ; o + + o * o o + ",
"  . o . . o   .   o + * o + + 7 7 7 - 7 - 7 & - 7 2 - - q 7 k x 2 q C q - 7 7 q 7 7 7 7 q 7 7 * o o . .   o * * o . . . o . . . ",
". . . . . . . . . o * * .   o & - 2 7 7 & & & $ & - - & - j #.;.6 q q 7 - & 7 7 q 7 - & & & - o . . .     o + +   . . . . . . . ",
"* * * * ; ; * * + + ; * + * ; B n n n n n B B n B q q n m Y *.:.~ Z M B q n M B C n n n n n n ; ; * % * ; ; * * * * * + + * * * ",
"; ; ; ; * ; ; ; ; * ; + + * b C B D B D B C B B B q q q S o.,.<.| A B B n n n n n n n n n n n * * * + + ; * * ; ; ; * * ; ; ; ; ",
"+ o + + o + + + + o +   + + b 0 q B q B q q n n q 2 q q Z [ 2.>.P 7 7 - q q q 0 q q 7 q q q - + o o   * ; + + + o * + + + o + + ",
"+ o o + o + . + o + o   X + c * n 7 q q q n q q & & 0 q Z { 2.X.T l 7 q 7 q q 7 q 7 q 7 n q * + o + . + ; + + o o o + o * + + o ",
"+ o + + + + + + * o o   X + c * q q q q q q q q & & 7 q A ..3.&. .~ Y y q q - q 7 q q q q q + * + o . o ; + + + o + + + + + o + ",
"+ o o + + + o + + o +   . + ; + 7 7 q 7 q 0 7 7 & & t ( _  .%.1.-.] ^ t q 7 7 q 7 q q 7 q ; + + X o . + ; + + + o + + o + + + o ",
". .   . . o . X o . o   o + * o o & & & & & & 2 & & 3 / } O.$.5.2. .R 6 - - - - & 7 2 - 7 X . o . . . + + o o X o o o o o . o o ",
"    . .         .     . o + + . . $ & & & & & $ $ $ 7 9 Q +.,.7.5.E a & - 7 7 - & & & & O     . . . . o * . . X . . o . . o o . ",
"; ; ; ; ; ; * * ; ; c ; * * * + = 0 n q v n B n n q n Z W  .=.6.,.E x v n n v n n n n n c * ; ; * ; ; * ; * * ; ; * * ; * ; * * ",
"; ; ; ; * * ; ; ; ; ; ; ; * + + ; b N B B B n B n n n n M ! o.@. .) z n v q 7 n B n n q ; ; ; ; ; ; * * + o + b ; * ; * ; * * ; ",
"* o + + + o + o * o o + o o   + ; ; * 0 q 7 - q q q q 7 q h U ' I 9 q 7 q & q n B q q o + + + * + o + +   o + c + + + o * + o + ",
"* o o * o + o + o o + o + . . + * ; o % q 7 7 q 7 q q q 7 q s K G 5 q 7 7 & 7 n B 7 + o * o . + o + o o . . * c + + + + o + + o ",
"o + + . o + + + + . o o + . . o ; ; o o 0 q 7 q 7 q q 7 q 8 i J g 5 2 q 2 $ 7 n B - . + + + o + o + o +   . + c * + + o + o + o ",
"o + + o + + o o + + + + o o   + ; ; + o * & 7 q - q q - q 8 i H g w q - 0 & - q v o + + . * o o + + o +   . o c o + + . + + + + ",
". . o . . . . . . . . . X . . + * * .   o . $ - - 7 7 & & 1 , p i : - & - $ 7 q * o X . . o . . . . . .   . + ; o . o . . . . o ",
". . . . . . . . . . . . . . . + * + X . . . . O & & & > & & , p i 2 $ - $ $ O % +     . . . . . . . . .     + + o . . . . . .   ",
"* ; ; ; ; ; ; ; ; * + + * ; ; ; ; ; ; ; ; c ; c ; c N n n r w p f m C N V ; ; ; ; * * ; ; ; ; * * * + * ; ; * * ; ; ; ; * * + * ",
"; V c ; c ; c ; c ; * + c b c ; ; c ; ; c ; ; c ; c 0 N b q w g f n V b c b ; c ; c ; ; ; ; ; ; ; * * * b c c b ; c ; c ; * + * ",
"; c * * * + * * * o . + c c * + * + * * + * * * + * + ; + . @ i d ; * + * * + * + * ; + * + * + * + . + b * * * + * + * + . + * ",
"; ; * * + + * o *   . + ; c * * + + + + * + + o + + + o X . # < e + + o * o o * + * * o * + + o * . . + c + * + * * + * . . o * ",
"* ; + + + * + + + .   + ; ; * * + + + o + + + o + + + + o   X * ; + + * + + + o + * + + * + * o * o . + ; + + + + + o * .   o * ",
"* ; + + o + o + o . . o * ; * + o + + o + o + o o + o o o . o + ; + o o + o o o o + + o + o + + + .   + ; + + o + o + o . . o * ",
"* + o o   .     .   . o * + o . . o . o .   . . .   . .     . + * . . X o . . . . .     o     o . .   + * o o   . .   . .   . * ",
"+ + . . .   . .       . * + . . .         . .         . . . o * + X . . . . o . o . .     . . . . . . + + . o .   . .       . * ",
"; * + + * * * * + + + * + + + ; ; ; * * * ; * ; + ; * * ; ; ; ; * + o + ; ; ; ; ; ; ; * * * * ; * * + + * ; * * o + ; ; * ; + ; ",
"b ; c ; * ; ; * ; * * ; * + * V ; c ; c ; ; ; ; ; ; * ; ; ; ; ; ; + + ; b c ; ; ; ; c ; ; ; * ; * ; ; * ; ; ; * + + b ; ; ; ; ; ",
"+ + * + + + + + + + * +   o + b * * + * + + + * * + * * o + * ; o . + ; c + * + * * + * * * + + + + + + * ; +   o + c * + * + + ",
"o * * + o + o + + + + o   . o b + * + + + o + o + + + + o + * o . . o ; ; + ; + + + o * + + o + o + + o * + o   o + ; o + o + + ",
"* + + + + + o * + o + o   o + c + * + + o + o o + o + + o + + * .   o * ; + * + * + + + + + + o + + + + * * o   . + ; + o o + + ",
"o * + o o + o * o + * o   o + b * o + + + o o o o + + o + + o * .   . ; * + + . + o o * + o o + + + o o * + o     + ; o o o o o ",
". . .   . . . o . . .     o * ; o o . o o o . o o o . . o . . . .   o * * . . . . o . o     . . . o . . o .     . + * o o . o . ",
". .   . .         .     . o + * o o . . . . . o o       . .   . . . + * + . . . . . . .   .   .       .   . . . o * * . o o o   "
};
