/* XPM */
static char *torch09w801743666766[] = {
/* columns rows colors chars-per-pixel */
"64 64 109 2 ",
"   c #0D0D0D",
".  c #131313",
"X  c #171919",
"o  c #1C1C1C",
"O  c #241F1C",
"+  c #33261E",
"@  c #1E2121",
"#  c #232323",
"$  c #2A2522",
"%  c #272C2C",
"&  c #2B2B2B",
"*  c #312B29",
"=  c #3C352F",
"-  c #2C3434",
";  c #323333",
":  c #363A36",
">  c #3E3A34",
",  c #303738",
"<  c #343C3C",
"1  c #393C3B",
"2  c #472F23",
"3  c #4F3C2F",
"4  c #5C3C2B",
"5  c #4F3A30",
"6  c #403E3A",
"7  c #523E32",
"8  c #59422D",
"9  c #5B572D",
"0  c #424835",
"q  c #49443E",
"w  c #464A3A",
"e  c #5E4231",
"r  c #4F5434",
"t  c #555932",
"y  c #50573F",
"u  c #51583F",
"i  c #63412F",
"p  c #6D432D",
"a  c #754C2D",
"s  c #674531",
"d  c #684430",
"f  c #6C4936",
"g  c #774931",
"h  c #7C4C32",
"j  c #7D7D27",
"k  c #676A33",
"l  c #62663B",
"z  c #64683C",
"x  c #6F7230",
"c  c #3B4343",
"v  c #404747",
"b  c #454C46",
"n  c #424A4A",
"m  c #545942",
"M  c #4A5252",
"N  c #5A6046",
"B  c #686D4B",
"V  c #865D2D",
"C  c #825035",
"Z  c #895438",
"A  c #95672E",
"S  c #95921C",
"D  c #9B971C",
"F  c #9C991B",
"G  c #A39314",
"H  c #B2AD0D",
"J  c #BFAC0D",
"K  c #AAA514",
"L  c #ADAA19",
"P  c #B6B114",
"I  c #818020",
"U  c #959226",
"Y  c #C1AD0E",
"T  c #C6BD06",
"R  c #C0B808",
"E  c #CCC308",
"W  c #D3C902",
"Q  c #D8CD00",
"!  c #DBD105",
"~  c #E0D501",
"^  c #E5DA04",
"/  c #E0D60B",
"(  c #E8DD09",
")  c #E5DB13",
"_  c #E8DE1B",
"`  c #EBE006",
"'  c #F0E60C",
"]  c #EDE316",
"[  c #EEE51E",
"{  c #CAC732",
"}  c #F5EC25",
"|  c #F3EA2F",
" . c #F9F026",
".. c #FAF029",
"X. c #FEF63A",
"o. c #EEE74D",
"O. c #FCF445",
"+. c #FEF748",
"@. c #F4EF52",
"#. c #FEF851",
"$. c #F4F05E",
"%. c #F6F162",
"&. c #F7F36C",
"*. c #FBF76C",
"=. c #F4F072",
"-. c #FDF974",
";. c #FDFC8F",
":. c #FDFB9B",
">. c #FBFEB7",
/* pixels */
"# & & # & & & & # # @ o # & & # % @ % c c c M c c M c c c c c c c c c M c c M c c c c c c - % # # & & $ & $ # # @ @ $ & & # & # ",
"& ; ; & * & & & & & O o * , & * % % c c M M c c M c M M c c < c M M M c M M c M c c M c c < % % % % & - ; & & # o @ : ; & ; & & ",
"# # # # # @ # O # X . o & & # # @ % c c c c c c c c c c < - < c M c c c c c c c < c c c c c % X # o O # O @ @ . . O : & # # # # ",
"O # o # X # @ o @   . o & & # # @ , < c < < c < < < c < , - < c c c c < c c c c < c c < c c , X # o o @ @ @ X   . @ ; o # o o # ",
"o # o o @ o o o @     o & & # # % c c < , c c , < < , < , - , < c < < c < < < < c c < < c c c @ # X o O X O X   . # ; # o o o # ",
"@ o o # X @ X o X .   o # & @ o - < < , c - c , < < < , , - , < c < , < < < , < , c < , c , < - o X X . X X .   . o & @ o o o o ",
"  . X .         .     X # X X o - - - - - - , - , - - - - - - < c < , , - , - , - - - - - - - , . .   .           o $ o . . . . ",
"  . . .   . .         . # X . % - - - - % - , - - % - - - - < c < < - , , - - - - % - - - - , < @   .       . @ o . . . . X .   ",
"& # # o # # # @ o O O # o o @ v c c c c c c c c c c c c c c c c c c c M c c c c c < c c c c M c c # # # @ @ # @ o o o # # # o o ",
"; & & & # & $ # # # # # # @ & M c c c M c M c c c c c c c c c c c c c c c c M c < < M M c c c M n ; & & # # # # & # & # # # O # ",
"* @ # o o o o o o o # o   X , M c c c c c c c c c c c , c c < c c < c c c c < - , < M c < c < < c - o # O o o O o o @ # o   o @ ",
"& # @ o X @ o o o o @ X   . < M , c c , c c , , c c < c < c , c c < c c < < , - , c M c c c < c < ; # o o o o o o o o o .   . o ",
"& o # o X o X # o o o .   X < M c c c c - c c - c , c c < c , c < < < < < < < % - < c c c c c c < 1 o # o X o o # o o X .   X o ",
"& # o . X o X O . o @ X   @ 1 M c , , c c - - c - , c , - c < < < < < < < < < - - < c c c c < < < < @ o . X o . @ . @ O .   X # ",
"$ . .   . . . . .   .     & c v c - , , - - - , , - - - < - < < , - < - < - - - - < c < - - - < - , @ .   . . . . . .     . o # ",
"X .     .       . .       - < c , , - , - , - - c , - - - % - - - - - - - - - - - c c , - - - - - - @         .     . . o X o o ",
"$ & $ # % % # # # # o o # 1 v c c c c c < < < c c c c M c c c c c c c c c c c c c c c c c c c c < < < & # & # # # o o # # # o o ",
"& , & & & & & & & # & # & v v n v n c n n c < c M M M c M c c c M c c c c c c c n c c c c n c < < M c & & # # & # & & # & * @ # ",
"& ; @ # o # o o # @ o # # < c < c c , c c < - < c M c c c c < < c c c < c c < < c c c c < c , - - M c @ # @ o o o # @ # # & o # ",
"# $ @ # X X o X # o @ o # , c , < c , < < - - c M c c c c c < < c < c < c < < < < c < c < c , % - n < # # X X O X O o o o # @ & ",
"# & O # . o X o # o X # X < , c , c , c < - - c M c c c c , < c < < < < < < < < < < c c < < < - - v v o @ X X X o # X X # o o & ",
"& # . o . X o . o X X @ X < < < , < < < < < - < c c c c , c < < < < < , , , < < c , < < c < < - , n c . O . X o . o o X @ o X # ",
"# # X . . . . . . . . . . , - - - - - , - % % , c c , < - , , , , , , , , , , - - - , - < , , - - v c . . . . . . . . . . . X # ",
"O # . . . . . . . . . . . - - ; , , , - - - - < c c - - , - < < - % - - , , , - - - - - - , - , , c < X . . . . . . . . . . O o ",
"& & & & # # # @ o X # * ; v n v c c c c c c c c c c c c c c c c , < c c c c c c c c v c c c v c c n c # # # # & # # # & # & $ $ ",
"& # & # & $ & # # X o ; & < v n n n c c c c c c c c c M c c c c < c M c c M M M n n c c n n c n c n 1 # # X # & # # # # & # % # ",
"# o # @ # # # o . . o ; o ; < c < c c c < < < < c < c c < < < - < c M c , < c c , c < < < < < c < < & o   X # & o O . o o o o o ",
"o X # o # o # X   X X ; X , < < c < < c c < < , < < c < c < c - < c M c c < c c c < c < c < < c c < & X   X # $ X . o # . . # X ",
"# o @ O # o o X   X # ; o # < c < , < < < < c , c < < c < < c - c c M c c c < < c c < c < c < c < , # .   X # & O . @ X @ . o . ",
"O X @ X o o o X . X @ & X # , c < < < c < c < - < < < < < c < - < c c c , c < c < < c < c < < c < c o o   . @ # X o X . # X . o ",
"  . . . . .   .   X O # . o ; , , , < < , , - - < - , , < , - % - c c c - < , < , < , , < , , , , - . .   . # # . . . . . . . . ",
".   . .   . .     . # # .   # - , , , , - - - % - - - - - - c B r c c < - - , < < , , - - - , - - # .     . o #     .   . .   . ",
"# # # # $ & # # @ o & @ o # ; v c c c c c c c c c c < c c u { o.U c n n c c n M M n c c c n c c c - @ @ & # # # # # # o o # # # ",
"# # & # # $ # & # # # o @ @ ; M M M M c n M M c c c < c N L | $./ m c c c c c c c c c c c c c c c % @ o & # # & # $ # # # & & # ",
"@ X @ @ X @ X O O X O   X o ; < c c c c c c c c c , < c z E O.-.) 0 < < c < c < < < < < c < c c & X   @ & o o o X # o o o X o o ",
"o o . @ . @ X X X o X   . @ * # c < c c c c < c - - , c l E *.@.W j < < < , c < < , c < c c < < o o   O # o @ o o . @ o O o o o ",
"o . o o o # X # # X X   . o & @ < < < c < c < c - - , c l J &.&.^ T P < < < , < , c < < < c , < o X   o & o o o X @ X O o o o @ ",
"o X o o o o . o o X O   . o & @ - , < , < < < , - - , x D E  .#.+.' S < < < < < , < c , < < c # . X   o & o o o X o O X o o o X ",
". .   . . . . . .   .   X o @ X X % - - % - - , - - - k W ~ [ %.:.} ! < , , , , - , , - , , % o . .   O o . o . . . X . X . X . ",
"      .         .     . o X O .   X - - - - - % % - , r R ( X.;.>.[ H - - , , - - - - - % - .   .   . X # . . . . . . . . X . . ",
"* # # & # & # # # & ; % $ # @ o @ % : c c c n c c c c n L W ..-.-.` j c c c c c n c c n v ; & & # & # & $ # # # & @ # & # & # # ",
"& & & * # # # # & # # $ # # O @ # : & b n n n n c c n c u U ! ' ` H k c c c < c n c c c c & & # $ # # # o o X ; & $ # # # # # # ",
"o o o o O X @ X # X X o X X   o % & @ @ c , - < < c < , c w G Y Y t < , < - < c n < c , @ o o @ @ X o o   X @ ; o o @ . @ o o @ ",
"@ X X O X o X o X X O X @ . . o $ % X X % , < c , < c c : 6 a A V 8 < , , - < c n , , @ # X . o o o X X   . o ; X @ O @ X o O X ",
"o o X . X O o o o . X . o . . o # & X . # # , c < < < , 1 6 p Z h 8 : 1 , - < c n < o o X @ . o . # X o   . @ ; # o o . o . @ X ",
"X O o . o X X X o o o o o X   o & # o o @ X # , , < < , 1 6 i C g 8 1 - , - - c c o o o . # o X o o . o     . * o o o . o o O o ",
". . . .   . . . . . .   .     o $ #     . . . . % , , - - ; 5 g s > - - - % < - # . . . . . . .   . . .     o & . . . . . .   X ",
".   .   . .   . .   . . .     o # @ . . . .   . . o % - - - 5 g s : - - % % X @ #     .   . .   .   .       o # . . .   .   .   ",
"# & & # # & & & # # o O # & & # & & # & & & & & & & # ; ; 1 5 g d q 1 1 ; & $ & # # # & # & & # # # o # & & # # # & & # % @ o # ",
"& ; ; & & & & & & & # o * ; ; & & & & & & & & & & & & * & # 2 g d 6 ; ; & ; * ; & * & & & & & $ & # @ @ ; ; & ; & * & & & # X # ",
"& & # # # # # # # X . o & ; @ @ # o # # @ # # @ o # # # X . + p i $ @ @ # @ o # o # # o # X # X $ X . O ; # # # # # o # o . X # ",
"# & o # X O # X #     o & & # # O o o o o o o o o @ o o X   O 4 5 o o o @ o o O o # # X # o # o # .   @ * o # X # # o # .   X # ",
"& & o o o # o o o . . o & & @ # o o # o o o # . @ X X # .   X $ * o o # o X o X # o # X # @ # . # .   @ * # o O o O X # .   X # ",
"# # o # . o X o X     o # & o o . o o X o . o X o o o . . . . o & o X X o . X X X o o . o . X o @ .   o & o # X o o X X .   X O ",
"# o X .         .     . # o X .   . . . . . .   .     .     . o # . . . . . . . . . . . . . . .       @ @ X .     .   . .   . o ",
"o o . . . . .         . # X . . . .         .           .   o # X . . . . . . . .           . . .   . o o . .   .           . # ",
"& # # o # # # # o o @ # o o o & & # # # # & # $ # # # # & & & & # o X o & & & # & # & # O o # & # # @ O # & # # X X & & # # @ # ",
"* & & & # & # $ & # # & # o O 1 & & & & & & & & & & # # # # & & # # o & ; * & & & & ; & & & # # # # & # & & $ # X o * & & & & & ",
"@ o # o o o o o o o # o   X @ ; # # o # o # o o O o @ # o o # # . . o & * @ @ o o # # @ @ o o o X o X o # # o   X O ; # o o o o ",
"o # @ o X @ o X o o O .   . X ; o @ O o X X o X @ o o # . o # . .   X $ & o # # o # . # # o X # o o @ X # o .   . o & X o X @ o ",
"# o # o X o o # o o o .   . o ; o O o # X o X X @ X # X X o # # . . . # & @ @ X # o O o o O X o o # o X # # X   . o & o o X o o ",
"X o o . o X X O . o # .   . # ; $ o o o o X . o . o o . o o X O .   X # # o o X o o . # X . o X o o X X @ O X   . o & X . o . o ",
". . .   . . . . . . .     X # $ o . . . X . . . . . . X . . . .     X # # X .   . .   X .   . . . . .   . .     . X # . . . . . ",
"  .               .     . X X # . . . . . . . X X         .       . o # X   . . .   . .       .       .     . . . # $ . . X X   "
};
