/* XPM */
static char *torch081743581659[] = {
/* columns rows colors chars-per-pixel */
"64 64 99 2 ",
"   c #070707",
".  c #0B0B07",
"X  c #0B0B0B",
"o  c #14140D",
"O  c #1B1B0C",
"+  c #131313",
"@  c #1B1613",
"#  c #1B1B13",
"$  c #1B1B1B",
"%  c #211A17",
"&  c #2C1F17",
"*  c #201C1A",
"=  c #212104",
"-  c #2C2C06",
";  c #25250C",
":  c #2E2E09",
">  c #33330D",
",  c #39320F",
"<  c #39390D",
"1  c #232312",
"2  c #2C2C11",
"3  c #25241A",
"4  c #2C2C1A",
"5  c #363611",
"6  c #3C3512",
"7  c #3A3A14",
"8  c #33331A",
"9  c #3E3E19",
"0  c #222222",
"q  c #3F3522",
"w  c #403B13",
"e  c #4F381B",
"r  c #523A1E",
"t  c #593F1F",
"y  c #463127",
"u  c #5A3B25",
"i  c #573B2A",
"p  c #5A570B",
"a  c #494410",
"s  c #41411B",
"d  c #4A401D",
"f  c #504F1A",
"g  c #575512",
"h  c #585613",
"j  c #5F5D10",
"k  c #696604",
"l  c #6E6B0E",
"z  c #6E6A13",
"x  c #797510",
"c  c #464620",
"v  c #634027",
"b  c #664328",
"n  c #6A442B",
"m  c #734F26",
"M  c #77482F",
"N  c #774930",
"B  c #7C4C32",
"V  c #827D0B",
"C  c #865D2B",
"Z  c #825035",
"A  c #895438",
"S  c #95672E",
"D  c #8D8807",
"F  c #8D860C",
"G  c #988A0C",
"H  c #9C9606",
"J  c #9C9509",
"K  c #A8A106",
"L  c #AEA807",
"P  c #B4AC05",
"I  c #BEAB0D",
"U  c #C4AF0F",
"Y  c #C4BB02",
"T  c #CDC302",
"R  c #D1C701",
"E  c #D3C900",
"W  c #D8CE0C",
"Q  c #DFD404",
"!  c #E2D603",
"~  c #E5D902",
"^  c #E8DD05",
"/  c #F3E606",
"(  c #F6EB13",
")  c #F9EE15",
"_  c #FCF118",
"`  c #E8DF22",
"'  c #F0E930",
"]  c #EAE44E",
"[  c #FEF746",
"{  c #F4EF5D",
"}  c #EFEC6F",
"|  c #FDF965",
" . c #F6F378",
".. c #FDF980",
"X. c #FCFB8D",
"o. c #FDFB97",
"O. c #FDFB9B",
"+. c #FBFEB6",
"@. c #FBFDB8",
/* pixels */
"$ $ $ $ $ $ $ $ $ $ + + + $ $ $ $ $ $ $ $ $ $ 0 $ $ $ $ $ + + + 0 $ $ $ $ $ $ $ $ $ + $ $ $ $ $ $ $ $ $ $ $ $ $ + + $ 0 $ $ $ $ ",
"$ $ 0 0 0 $ $ $ $ $ + + $ 0 $ 0 $ 0 $ $ $ 0 $ $ $ $ $ 0 $ $ X + 0 0 0 0 0 0 $ 0 $ $ 0 $ $ $ $ $ $ $ 0 $ 0 $ $ + + + 0 0 0 $ $ $ ",
"+ $ + $ $ + + + + + X + $ 0 + $ + + + + + $ + + + + + $ +   + + 0 $ + + $ + + $ + + $ + + + + X $ + + + + $ + X X + 0 $ + $ $ + ",
"+ + + + + + + + + X   + $ $ $ + + + + + + + + + + + + + X X X + $ + + + + X + + + + + + $ + + + + + + + + + X   X + 0 + + + + + ",
"+ + + + + + + + + X   + $ $ $ + + + + X + + + X + X X + X   X + $ + + + + + + X + + + + + + + X + + + + X + +   X + 0 $ + + + + ",
"+ + + + X + X X X     + $ $ + + X + + + + X + + + + + + X X X + $ + + X + X X X X + + X + X + + + X + X X + X   X + $ + + + + + ",
"X X X X       X X   X X + X X X   X X X     X               X + + X X X X X X X X X   X X X X X   X   X   X       + $ X X X     ",
"X X X X X   X         X $ + X X X X                     X   + + X X X X X X X           X X X X             X + +   X X X + X   ",
"$ $ + + $ + $ + + + + + + + + $ $ $ $ + + $ $ + + + $ + $ + $ + $ $ $ $ $ $ $ $ X X $ $ $ $ $ $ + + $ + + X $ + + + + $ + + + + ",
"0 $ 0 $ $ $ $ + $ + $ $ + + + 0 $ 0 $ 0 $ $ $ $ $ $ $ $ + $ $ $ $ $ $ $ $ $ $ + + + 0 0 $ $ $ $ 0 0 $ $ $ $ $ $ $ $ $ $ $ + + + ",
"0 + + + X + + + + + + + X X + 0 + + + + + + + + + + + + + + + + + + + + + + +   X + 0 $ + + + + + + + $ + + X + X + + + X   + + ",
"0 + + + X + + + + + + X   X + 0 + + + + + + + X + + 1 2 2 : 5 : 2 O + + + + X     + 0 + + $ + + X + + + + X + + + X + + X   X + ",
"$ + + + X + + + + + + X   X + 0 o + + + X + o ; 5 : 5 5 > < > 7 5 5 > 5 ; @ o   X + 0 $ + + + + + $ X $ + X + + $ X + X X   X + ",
"$ + + X X + X + X + + X   X + 0 $ X + + + O > > > > 5 > > > > > > > > > 5 > #     X $ + + X X + X + X + X X + X + X $ + X X X $ ",
"$ X X   X X X X X   X     X + $ + X . o ; > : : > : : : : : : : : : : : : : : = X + $ + X     X   X X X   X X X X   X       + $ ",
"X X     X         X     X X + $ X X X ; : : > : > > : : : - : : : : : : - : : : ; @ + X X X X X     X         X       X + X + + ",
"$ $ + + $ $ $ + $ + + + + $ $ + $ + 2 7 5 5 5 5 7 9 7 9 7 7 7 5 7 7 7 9 7 7 7 7 8 5 $ + + $ $ $ + + $ $ $ $ + $ + + + + $ $ + X ",
"0 0 0 $ $ 0 $ $ $ $ $ $ $ $ $ $ $ 8 5 9 9 7 5 5 s s 9 s 9 9 9 s 9 9 9 7 7 7 7 7 9 7 2 $ $ $ + + + 0 0 0 0 $ $ 0 $ $ $ $ $ $ + $ ",
"$ 0 + $ + + + + + + + + + + + + 1 5 > 5 7 > : > s s 7 7 > 7 > 5 5 5 5 > 5 5 5 > 5 5 5 1 X + X X   0 $ + $ + + + X $ + + + $ + $ ",
"+ $ + + + + + X $ + + + + + + o 5 5 > > 5 : - 7 s s 5 7 > 5 > > 5 5 5 5 < > 5 > > 5 5 5 + + X   X $ $ + + + X + + + + + + + + $ ",
"$ $ + +   + X X + + + + + X X 2 > 5 > < > > - 5 9 9 5 > < > > 7 > 5 > : > < 5 > 5 5 5 5 1 + X   X $ $ X $ X + X + $ + X $ + + $ ",
"$ $ X + X + + X + X X + X o + > > > > > > > : > 9 9 < 5 > 7 > > > > > > > > > - 5 > > > 5 + X X   0 $ X + X X + X X + X + X X $ ",
"+ $ + X X X X X X X X X X X O : : : : : : - : : 9 7 > > : > : : : : : > : : : : 5 - > - > # X   X $ $ X X X X X   X X X X X + + ",
"+ + X X   X X   X X X X X X ; : > : : : : : : > 5 > : : : : : : - - - - : > > : - - - - : - X   X + + X X   X   X X X X X X + + ",
"$ $ $ $ $ $ + + + X + 0 3 0 9 7 7 7 < 5 5 5 > 5 9 7 7 9 7 7 9 7 > > 5 7 9 9 9 7 7 7 7 7 7 7 # $ + $ $ $ $ + + $ + + $ $ $ $ + $ ",
"$ $ $ $ $ $ $ $ + + + 0 $ 3 9 9 9 9 7 7 9 7 9 7 7 7 7 9 7 7 7 5 > 7 s s 9 9 9 9 9 9 7 7 7 7 3 $ $ $ $ $ $ $ $ $ $ $ $ + X + 0 0 ",
"$ + + + + + + +   + + 0 + 1 > 7 5 5 > 7 5 > > > 7 > > > > 5 > : > 7 s 7 > 5 5 5 > 5 5 5 5 5 ; + X + X $ + $ + $ + $ +   X + 0 + ",
"+ + + + + + $ X   X X 0 o 2 5 5 5 > > 7 5 > 5 : < > 7 > 5 < 7 : > 7 f 7 > 5 5 5 5 5 7 > 5 5 : $ + + + + X + + + X $ X   X X 0 X ",
"+ + + + + + + +   + + 0 + 2 5 5 > > < > > > < > 5 > > 5 > 5 > : > 9 s 5 7 5 5 > 5 5 5 5 5 5 5 + + X X $ + + + $ + + X   X + 0 $ ",
"+ X + + + + + X   X + $ X 7 : 5 7 > > 5 5 5 > : 5 > < 5 5 5 > : > 7 s 7 > 7 5 7 5 > 5 5 5 > > + X $ + + X + + + + + +   + + 0 X ",
"  X X X   X X     + + $ X 5 : > : > > > : : : : > : : : > > : - - 5 9 5 - 5 > > > > > > > > : X X X X     X X   X       X + $ X ",
"X     X   X   X   X + + X - - - : > > : : : : - : : : : : : : : > 5 < > : - : > 5 : : : - : 2 X X X X   X   X X   X     X + $ X ",
"$ $ $ $ + + $ + + + + $ + 5 5 7 7 7 7 9 7 5 < 5 7 5 5 7 7 7 7 l l 9 9 9 < 9 7 9 9 9 7 7 7 7 5 $ $ $ + + $ $ $ $ + $ + + + + $ + ",
"$ 0 $ $ 0 $ $ $ + $ $ $ $ 8 7 7 9 7 7 7 7 9 7 7 7 5 5 5 c 9 V ] ~ x 9 9 7 7 7 7 9 7 7 7 7 7 8 + $ + + + 0 $ $ $ $ $ $ $ $ $ + + ",
"$ $ + + + X + + + + +   + ; 5 > 5 5 > 5 > 5 5 > 5 : , 5 f V ` X.Q < 5 : 5 > 5 5 > > > > 7 7 ; + + X   + $ + + + + + + + + X X X ",
"$ $ X + X + X + X + + + + O 5 > : 5 > 5 : 5 5 > > - > 5 z T  .' E V : 5 > > 5 > 7 > 7 > > > 1 + X +   + 0 X + X + X + X $ +   X ",
"+ $ + $ + X + + + + + X + + < > < > > 5 > 5 5 > > - : < z T } { ^ P P D < > : 5 > > > > 5 5 + + + +   + $ + + + X + + + + + X   ",
"$ $ X + + + + + + + + + + o 2 : > 5 > 5 > < 5 > 5 - : L F Y ( | [ ( W p 5 > > 5 > > 7 > 5 : + + X X X + 0 + + + X + + + + + X X ",
"+ $ X + X X X + X X X X X X O : - : : > : : > : : - : j T ~ ) ..o._ Q H > - - > : : : : > O X X   X   + $ X X X X X X X + X     ",
"+ +   X X X   X X X X X X     ; : : - - - - : - - : 5 > T ~ _ +.+./ E k - > > - - : : - -       X   X X + X X X X X X X   X     ",
"$ $ $ $ $ $ + $ $ $ 0 $ + $ + 2 7 7 7 5 7 7 9 7 7 7 7 7 Y E ( o.| ! Y 7 7 7 7 7 7 7 7 7 1 X + + + $ $ $ $ $ $ + $ $ $ $ + + $ $ ",
"$ $ $ 0 + $ + $ $ $ $ $ + $ + + 9 s 9 9 9 9 9 9 9 9 7 7 h J E ( ^ K g 7 7 > > 7 s s 9 9 $ $ $ $ $ $ $ $ $ $ $ $ $ + $ + + X 0 $ ",
"+ X + + + X + X $ X X + X +   + 3 9 < > 5 > : 5 > > > > 5 w G U U a < > > : > 7 s > > 1 X + + + + + X + + + + + + + +   X + 0 $ ",
"+ o X + X + + + X + + X + X   + $ 8 > > 5 : > 5 > 7 > > > w m S C d 5 : > : > 7 s > 1 X + + X + X X X + +   + + + X X   X + 0 + ",
"X + X X + + + + + X + X + X   + $ $ : : 7 > > < > > > > , w n A Z u , < : - > 7 s :   + + X + X + X + + + X + X + + +   X + 0 + ",
"X + + X + X + X + X X + o X   + $ $ + 2 5 > > > > > > > 5 7 v Z M r 6 : , - > < 8 + X + X + + + X + +   + + X + + X +     + 0 + ",
"X X X X   X   X X X X X X     + + +     ; : : : : : : : : : e N b w - - : - : 2 $     X X X X X + X   X X X X       X     + $ X ",
"X X X   X   X     X     X     + $ + X X . o : : : : : : : : e N n , - - - - o + +     X X                 X   X   X       + + X ",
"+ $ $ $ $ $ $ $ $ $ + + + $ $ $ $ $ $ $ $ $ $ 4 9 7 7 7 7 7 u N n d s 8 4 $ $ $ $ $ + $ $ $ $ + + $ + + $ $ $ $ + $ $ $ $ $ + + ",
"$ 0 0 0 0 $ $ $ $ $ + + $ 0 $ 0 $ $ $ $ $ 0 $ 0 $ 0 4 8 8 5 e M n y 0 0 0 0 $ 0 $ $ 0 $ $ $ $ $ $ $ + + 0 0 0 0 $ 0 $ $ $ + + $ ",
"$ $ + + + + + + $ X X + $ 0 + + $ + + + + $ + + + + $ $ +   & n v $ + + $ + + + + + $ + $ + + + + + X + 0 + + $ + + + $ + X X + ",
"$ $ + $ + + $ X + X X + $ $ $ $ + + + + + + + X + + + X X X @ u y + + X + + + + + + + X + + + + + X   + $ + $ X + $ + +     X $ ",
"$ $ + + + + + + + X X + $ $ + $ + + + + + + + + + + + + X   X $ 3 + + + + X + X + + + + $ + + X $ X   + $ + + + + + + + X   + + ",
"+ $ + + X + X + X     X $ $ + + X + + X + X + X X + + X X   X + $ + X X + + X + + + +   + X + + + X   + $ + $ X + + X + X   X + ",
"+ + X X X       X   X X + X X X   X X X         X           X + $ X X X X X X X X X     X X   X       + + + X         X     X + ",
"+ + X X X   X         X $ + X X X X                   X X   + + X X X X X   X X   X         X       X + + X   X     X         $ ",
"$ $ + + $ + $ + + + + + + + + $ $ $ $ + $ $ $ $ + + $ $ $ + $ + $ $ $ $ $ $ + X + $ $ $ $ $ $ $ + + + + $ + + + + + $ $ + + X $ ",
"0 $ $ $ + $ $ + $ $ $ $ + + + 0 $ 0 $ $ $ $ $ $ $ $ $ $ $ $ $ $ $ $ $ $ $ + $ X $ 0 0 $ $ $ $ 0 $ 0 $ $ $ $ $ $ $ $ $ $ + + + 0 ",
"+ + + + + + + + X + + +   + + 0 $ + + $ + + + + + + + X X + + + + + + $ $ X   + $ 0 + + + + + + + + + + + + + X + + $ +   + + 0 ",
"X $ + + X + + + + + + X   X + 0 X $ X + X + X + $ X + + + X + + + X + + X X X X $ $ + + $ + + + + $ + X + X + + X $ + X   X + 0 ",
"+ + + + X + X + + + + X   X + 0 + $ X + X + + X + X $ X + + X + X + + + + X   X + $ + $ + + + + + + + X + + + + X $ + X     + $ ",
"+ + + X + X + + X + + X   X + 0 $ X + + + X X + X X + + X + + X X + X X + X   X $ $ + + X + X + + + X + + + + X + + + +     + $ ",
"X X     X X X X X X       + + $ + X X X X X X X X X X X X X X X X X X X X     X + + X X   X X   +       X X X X   X X X   X + $ ",
"      X         X       X X + + X X X X X X X X X X X X         X X X     X X + $ +   X     X         X                   X + $ "
};
