/* XPM */
static char *torch05w601743666765[] = {
/* columns rows colors chars-per-pixel */
"64 64 115 2 ",
"   c #151515",
".  c #1C1C1C",
"X  c #242424",
"o  c #292926",
"O  c #2C2C2C",
"+  c #3C2F27",
"@  c #302B28",
"#  c #33322E",
"$  c #333333",
"%  c #3A3634",
"&  c #3A3A35",
"*  c #3C3C3A",
"=  c #43392F",
"-  c #553E2F",
";  c #5F3E2C",
":  c #483F35",
">  c #413B39",
",  c #563F30",
"<  c #5F452F",
"1  c #464637",
"2  c #484737",
"3  c #42423D",
"4  c #4D453B",
"5  c #4E4D3E",
"6  c #5B4334",
"7  c #5B463C",
"8  c #5F5D33",
"9  c #5A5939",
"0  c #60402E",
"q  c #6D442E",
"w  c #77482F",
"e  c #615E28",
"r  c #75502A",
"t  c #664330",
"y  c #6A4631",
"u  c #664A39",
"i  c #774931",
"p  c #7C4C32",
"a  c #714D39",
"s  c #625D39",
"d  c #64602B",
"f  c #6F6C31",
"g  c #67653A",
"h  c #767539",
"j  c #464642",
"k  c #4A4A45",
"l  c #4E4E49",
"z  c #514940",
"x  c #52524D",
"c  c #5C554B",
"v  c #5D5C4D",
"b  c #565650",
"n  c #5A5A54",
"m  c #5E5E59",
"M  c #6A6844",
"N  c #64634D",
"B  c #68674C",
"V  c #666550",
"C  c #6D6C52",
"Z  c #62625C",
"A  c #656560",
"S  c #686863",
"D  c #875E2D",
"F  c #825035",
"G  c #895438",
"H  c #95672E",
"J  c #827E2B",
"K  c #9D9619",
"L  c #A79514",
"P  c #AB9912",
"I  c #A49E1F",
"U  c #B2AB0E",
"Y  c #BBB20E",
"T  c #AAA214",
"R  c #AFA816",
"E  c #A7A018",
"W  c #BFB712",
"Q  c #87832E",
"!  c #908C2B",
"~  c #989225",
"^  c #9D9826",
"/  c #A49D22",
"(  c #C3AF0E",
")  c #C8BF0E",
"_  c #C0B711",
"`  c #C7BE1B",
"'  c #C7BE23",
"]  c #CEC401",
"[  c #CEC40E",
"{  c #DDD204",
"}  c #D6CD14",
"|  c #DBD21D",
" . c #E0D506",
".. c #E6DB02",
"X. c #EDE10A",
"o. c #F3E90E",
"O. c #C9C230",
"+. c #E9E021",
"@. c #FBF22D",
"#. c #EEE635",
"$. c #F2EA34",
"%. c #FCF233",
"&. c #FDF439",
"*. c #CAC548",
"=. c #E4DF4C",
"-. c #FCF443",
";. c #E9E350",
":. c #F6F056",
">. c #FDF757",
",. c #FAF775",
"<. c #F7F47B",
"1. c #FEFA79",
"2. c #FDFB8C",
"3. c #FDFB91",
"4. c #FBFEB7",
/* pixels */
"& * * * $ * * * $ $ $ $ x b b b b b b b n n n n n b x b b l k l n m m n n n b b b x x x b n b x x j * & * * $ $ O $ $ j $ $ * $ ",
"* j j * j * j * j * * k m A m n v m n n m n n m b m m m n x 3 x Z Z Z Z m Z m Z n m m n n b n b n n l j j * j $ O O x l j j j * ",
"$ $ $ $ $ $ $ $ $ * * k n m l l l k l l k x x l l l k x j * 3 x m x l l x k k x j x b l x k x k x k l j $ $ O X . $ l * $ $ $ $ ",
"$ O O $ o O $ o j $ * k n n x x k l l l k k k j k k k k 3 * 5 l m k k 3 l 5 k l k l l 3 l k l 3 l j k l * O X   . O l O $ O O $ ",
"O $ O O O O O * l * * k n n l l j k l j k k l 3 k k 5 k 3 & 3 k b k k l k k j 3 x l k j x k l 3 l j j l 1 * o   X O j $ O O O $ ",
"O O O O X O O j 3 & & j x b l l 1 k k j k 3 k 3 j j k 3 3 & * l n k 3 3 k 3 3 j 3 k k 1 l 3 k j l j j j 3 k o   . O j O O O X O ",
". X X X   X $ % * & * * x j 3 * & 3 & 1 * & * & * & & & & & 3 k l * * 1 * 1 3 3 & 1 * & * * & 3 * * & & & & & . . X $ O X .   . ",
". . . . . $ * * & # % 3 x k * * * & & & & * * & & $ & & & & 3 x 3 3 * 1 * * * & & & & & * * * * & $ & & $ & * j O . X . . X X . ",
"* $ # O * x x l k k l x k l k b b b x l l b x x k l x x x x b l b n b n n n b l k 3 b b n b b b l x x l l k l l $ O O $ $ $ O O ",
"l * * * x b x b b x x b l k l S m m v m b m n b m m b x b b b b b b b b x b b l k j S A n n n n m m b m x b b b l * * $ $ $ O $ ",
"j O # & k k k k k k x k & 3 k Z l l k x k l k l k k l j l k k k l k l l l l l & 3 k Z n k l k l l l l l k k j l j $ $ $ X   O O ",
"j $ O k 3 k j k k j l 3 $ 3 k Z k l k l k 3 k 3 l 3 l k j 3 k k l 3 k l j k 3 & * k m l l x k l j k l l k j k k l j O O X   X O ",
"j O * j j j j l k k k 3 & 3 3 Z j x k l 3 k j 3 l 3 l k j k j k 5 3 j l 3 k j & & 1 m x k l l l k l k l j j j j l j $ X X   X O ",
"* O * j 5 3 k l 3 k l 3 $ 1 x Z x 3 j l k 3 3 j 3 3 l j 3 k j k 3 k j 5 l j 1 & & k n k l j 1 k j k j k 3 k l j l j * $ X   X $ ",
"$ X $ $ & 3 3 3 & & & & & 3 l n j 3 * 1 j 3 1 3 3 * 1 * 1 * 3 * 3 * 3 * 3 * * & & k b k * * & 1 & * 3 * $ * j * * * $ . . . X $ ",
"o X $ * 3 & # $ & 3 & # 3 3 k l j 1 * * * * 3 3 3 3 * * & & & & & & * & & & * & 3 k x 3 & * * * & & & * $ $ * * * $ * X O X O O ",
"$ l x l b b b x x l l k l x b b x x l l l l k k l n x b b l l l x x b b x x x b x b x x l x b b k k b n x b x b l k l * $ & O O ",
"j n m m n n m b b b b b v b b b b n x b b l l l m A m m m m v m n n n x x b x b b x b b x b x l k A Z b n b b n b b b k * 3 O $ ",
"* n l x l l j j x l k l x k l l l l 3 x l j & k m m l b j l j l l k l 3 1 l j j l k l l 1 l 3 & * m b l x l k k k x l j $ $ O $ ",
"$ x l l k k j j l k l l l 3 l 3 k l 3 k l 1 & l Z m l x j l k 3 l k l k l j l j j l j l k l 3 & * m l l l 5 3 l 3 l k j $ $ $ * ",
"$ b k l * k 3 j l k 3 x j 5 3 l 3 l 3 l 3 & & l m b l j l 3 j l 3 l j 3 k k k 3 k k k l 3 l 3 & * v b k l 3 k 3 k l j j $ O O * ",
"* b 1 k * j k 3 k 3 3 l j 3 l j 3 k j j j k & j v m k l 3 l k 3 1 k k 3 1 3 j 3 l 3 j k x k 3 & * m x 3 k 3 3 k * k k 3 O O X $ ",
"$ x k * 3 * * * 1 3 3 3 3 3 & * & 3 * 1 & & & 3 b x 3 j 1 1 * 3 3 * 3 * 3 * 1 * 3 & 3 & 5 3 1 $ * b x * * * * * * * 3 * X X o O ",
"O l 1 * * * 3 * * * & 3 * * * * 3 1 3 * & & & k l l * * * * 1 * & & & & * 3 3 * & & * * & * * * 3 l l 1 * 1 1 * * * 3 $ . X O O ",
"* b n b x x l l k j l m m n n b b x x k l l k l b x x b l b b x j 5 l x b n b b x l b x x x x b l n b b x x x b b b b b $ $ * $ ",
"* l b b n b n b l 5 k Z n n n n n b b b b b b x b b x v x b b l k l A n b n n n b n n x b b b b x b b l l j x n x l x l * & * $ ",
"$ * x x b l x k & 3 k Z k k j l k k k l k 3 k k x j k k j l l * 3 l A x 3 k l l 3 l l j k k k l j l j k * k x b k k 3 * O X O O ",
"O $ x j l k x 3 & 3 j Z 3 x k l k k j x k k k * k k l j l k l * j b S x k l l k l k x k l j k l k k k 3 & 3 x b 3 3 j * X X $ o ",
"$ O l k x k k 3 & j l Z l k k l k 3 k k k j k 3 l 3 3 l 3 l k & 3 b S l l l k 1 x l 3 l k l l l k 3 k 3 & 1 x b k 3 l O O X X X ",
"O O k j k k l j & 3 k m 3 l 3 k k j k l k k 5 * k k l l l l k & 3 l Z x 3 x k x k k l k x 3 k l 3 x k 3 & * l x j j 3 X $ X X O ",
". . # * * 3 & & & 3 l x 3 k 3 1 3 3 3 j * * * * 3 1 * * 1 1 f J 1 k n k 3 1 j j 3 j 5 3 3 3 3 3 1 3 1 & & 3 x l 3 * O . X . . . ",
". . X * & * & & & 3 l x & & & & 3 3 3 3 * & & & & * * * * d O.*.8 l l 3 3 * 3 3 k 3 * & & * 3 * * * * $ $ * l k $ * X . . . . . ",
"$ $ & l b n x x k l b l k x b n b b x b x b b x x l l l c I $.=.W N b b x b b n m b x x l b b x b l l l n b x l x x $ O O $ $ $ ",
"$ $ * j x b x b b x b k l l Z Z n m n m n Z n m n l j l C  .-.:.[ N n b b x b x b b b b x b x x b x l k b x x b x j $ $ * $ * * ",
"O X O O * l j l l 1 k & 3 l Z x x x l x l x l x k 3 j x N ` ,.;.K 3 j 3 l k j k 3 k j k l k k k 3 3 & l b l k k & # O O O X O O ",
"O o X O O l 3 j j j * & 1 l m k x j l 5 l l k l & & j l N ' ,.| T g 3 l j 1 l 3 l 3 l 3 l k k k 3 5 & k b j l j # X O o $ O O X ",
"O X O O o k j l l 3 j & * l n l k k k l k l 3 x 3 & 3 l B } <.#.{ W I 9 l j * k 3 l k l k l 3 l l k & k b l l 3 X $ O O O O O O ",
"O X X O o # 3 k k j l $ * k b l l 3 k 3 l j k 3 & & 5 ! ^ { %.>.&.[ J 5 k j 1 k 3 k k j k l k l 3 3 & l b k j # X O O X O o O X ",
". .   . . X o * 1 3 3 & 3 k k j 3 & & & & & & 1 & & 2 Q ] ..+.2.,.{ U 9 * * 3 3 & 3 1 * 3 * * 1 & 3 & l l 1 O . X X X X X X X X ",
".   . .       o & $ & & j k k * & 3 & & & & & $ # % 3 5 T X.-.4.2.Y e & 3 3 3 * & * & & # & & & & & & 3 k O . X . . . . . X . . ",
"* $ $ * * * $ * j n Z n x x l l x n x l l x n x x l b n I { %.3.-.W h x x x x x b x b b n x b b x n x x j $ $ $ $ $ $ * $ $ $ $ ",
"* * * * $ $ * $ * k x b x x l l b Z m n n n n n b b x x c R  .o.{ ~ M x x l j x n x x x b n n b x b x l O O O l * $ $ $ * * $ * ",
"$ X O O O X O X $ X # k j j $ k b n l l l 3 3 3 k k l * l s P ( K 5 k 3 j & k x n k l 3 k k k l l j $ O   X O l $ O O X $ O X O ",
"$ X X $ X O X O o X O O j j * j x n 3 3 l 3 3 l 3 k k l j z r H D < k 3 3 & j x n 3 3 3 l 3 3 l j $ X O   . O j X O O $ X O O X ",
"O O O X X O O O # . o X O & & k x n 3 3 l k 3 l j k k j j > q G p 0 1 k 3 % 1 x n l 3 l 3 l 3 * X O X O   . O j $ O O X O X O X ",
"X O X . O O X X o o o O o o o k n b k 3 l 3 3 k > l j 3 l 7 t p p 6 k 3 5 $ 3 k n 3 k 3 3 l & o O O X O   . X j X O O . O X O $ ",
". . X . . . . . X . . . .     O j x & & 3 3 3 3 * > > > > > - i y 1 3 & & $ 3 x l 3 * 3 @ X . . . . . .     O * . X X . . . . X ",
". . . . . . . . . . . . . . . O $ O # & & & & & * * * % > > - i y = # & & # 3 k l # o . . . . . . . .       O O X . . . . . .   ",
"$ * * * * $ * * * $ O O $ * $ * $ * $ * l l n n n b b b b l 7 i b b n n n n b l * $ $ $ * * $ $ $ $ O $ * * * * $ * * $ * $ O $ ",
"* l j * j * j * j * O O j l * j * * j * j * * j l l l n b l ; i 7 n n n l l * j * j j * * * * $ * $ $ $ j j * j * j * * * $ O $ ",
"* j $ $ $ $ $ $ $ X . O * j $ $ $ O $ $ O $ $ O O O $ $ X X $ 7 7 > O O $ $ O $ O $ $ $ $ O $ O $ X . O l $ $ $ $ $ O $ X X O $ ",
"$ * O $ X O $ X O . . O * * $ $ O O O O $ O O O O O O O X . O j 7 O O O O O O $ O $ O O $ O $ X $ X . O j O $ X $ $ O $ . . X $ ",
"* * O O O O O O O . . O * * $ $ O O O X O O O X O O X $ X   X O > O O $ O O X X $ $ O O $ O O X $ X . O * O O O O O X $ X . X $ ",
"$ $ O O X O X X X . . X $ * $ $ X O O X O X O X O O O X . . X O > O X X O X X X X O O X O X O O O .   O * O O X O O X X . . X O ",
"$ O X X   . . . . . . X $ O X . . . . X . . . . X . .   .   . O $ . X X X . . . . . X . X . . . . .   O $ X X   . .   . . . . O ",
"O O . X . . .       . . $ O . . . . . . . . X . . . . . . . X $ X X . . . . X . X . . . . . . X . . . O O . X . . . .       X $ ",
"* $ $ $ $ $ $ O O O $ $ O O O $ * $ $ $ $ $ $ $ $ $ $ $ * * * * $ O X $ * * * $ * $ * $ $ O $ * $ $ O O $ * $ $ X X * * $ $ $ $ ",
"j * * $ $ * * $ * $ $ $ $ O $ b * * j j * * * * j * $ * * $ * * $ $ O * l * j * * * l * * * $ $ $ $ $ $ * * $ O O O j * * * * * ",
"$ O $ O O O O O O O $ O . X O l O $ O $ $ O O O O O O $ O O $ $ X . O * j O $ O O $ $ O $ $ O O O $ O O $ * O . X O j $ O $ $ O ",
"O $ O O X $ O O O O O X . . O j O $ O O O X O X O O O O X O $ X . . X $ $ O $ $ O O X $ O O X O O O O O $ O X   X O * X O X O O ",
"O O O O X O O $ O O O X . . O j O $ O $ X O X X $ O O O X O O $ .   X $ * O $ O $ O O O O O X O O O O X $ $ X   . O * O X X O O ",
"O O O X X O X O . O O X   X $ j $ X X O O X X O X X X X O X X $ .   X $ $ $ O . O O X $ X X O X O O X O $ O X . . O * X X X X X ",
". X . . . . . . . . . . . X $ $ X X X . X X . . X . X . . X . X .   X $ $ . X . . . . X . . . . . X . . . . . . . O $ X X . X . ",
". .   . . .     . .     . O O $ X X . . . . X X X   . . . .   . . . O $ O . . . . . . .     . .     . . . . . . X $ $ . . X X . "
};
