/* XPM */
static char *torch05w401743666765[] = {
/* columns rows colors chars-per-pixel */
"64 64 117 2 ",
"   c #1D1D1D",
".  c #242424",
"X  c #282727",
"o  c #282827",
"O  c #2C2C2C",
"+  c #343434",
"@  c #383330",
"#  c #3B3B36",
"$  c #3B3B3A",
"%  c #42362D",
"&  c #443C35",
"*  c #43433D",
"=  c #4E453A",
"-  c #4E4D3E",
";  c #574131",
":  c #5B4435",
">  c #53493E",
",  c #5F4839",
"<  c #62412F",
"1  c #6F432D",
"2  c #77482F",
"3  c #76512B",
"4  c #614731",
"5  c #6B4631",
"6  c #6A4833",
"7  c #774830",
"8  c #7A4C33",
"9  c #744F3B",
"0  c #66632C",
"q  c #696630",
"w  c #666439",
"e  c #737035",
"r  c #454542",
"t  c #4D4745",
"y  c #4A4A45",
"u  c #4D4D4A",
"i  c #534D45",
"p  c #565546",
"a  c #5F5E41",
"s  c #52524C",
"d  c #585048",
"f  c #555551",
"g  c #5A5A54",
"h  c #5E5E59",
"j  c #634E44",
"k  c #6D5140",
"l  c #685E54",
"z  c #626141",
"x  c #696441",
"c  c #6E6C43",
"v  c #7E7C40",
"b  c #74724D",
"n  c #626156",
"m  c #6E6D56",
"M  c #62625C",
"N  c #686758",
"B  c #6E6D59",
"V  c #747357",
"C  c #72715A",
"Z  c #79785E",
"A  c #666661",
"S  c #6A6A64",
"D  c #6E6E69",
"F  c #72726C",
"G  c #767671",
"H  c #797973",
"J  c #875E2D",
"K  c #825035",
"L  c #895438",
"P  c #95672E",
"I  c #9F991B",
"U  c #A89615",
"Y  c #AC9A13",
"T  c #ABA414",
"R  c #ACA41A",
"E  c #B4AC10",
"W  c #B2AB19",
"Q  c #BDB310",
"!  c #89852D",
"~  c #9D982A",
"^  c #848131",
"/  c #8D8934",
"(  c #969131",
")  c #A29D2B",
"_  c #A9A325",
"`  c #C3AF0E",
"'  c #C2B913",
"]  c #C9BF1D",
"[  c #CEC401",
"{  c #DDD204",
"}  c #CCC310",
"|  c #D6CD14",
" . c #DBD21E",
".. c #E0D506",
"X. c #E6DB02",
"o. c #EDE10A",
"O. c #F3E90E",
"+. c #C8C024",
"@. c #CBC331",
"#. c #E9E021",
"$. c #FBF22D",
"%. c #EEE635",
"&. c #F2EA34",
"*. c #FCF233",
"=. c #FDF439",
"-. c #CBC649",
";. c #E4DF4C",
":. c #FCF443",
">. c #E9E350",
",. c #F6F056",
"<. c #FDF757",
"1. c #FAF775",
"2. c #F7F47B",
"3. c #FEFA79",
"4. c #FDFB8C",
"5. c #FDFB91",
"6. c #FBFEB7",
/* pixels */
"r u u r r r u r r r $ r h M M h M M M M A A A A A M h M M g f f S S S M S M M M h g g h h A h h g s y r u r r r + $ r u r r r r ",
"u f f u u u f u f u r f S F S S M A A M S A A S N S M S M g y g D D D D D D S D A S D A A A A M A A g s f u s $ + $ M h f u u f ",
"$ r $ r r $ $ $ $ r r f A S f g g f g g f g g f f f g h s r u g D h g f g g s h s g n f g s g s h f g s * $ # o o $ h r $ r $ $ ",
"$ $ $ $ + $ $ + u $ r u A A h h f f s g g s f s s f f s y * u f S s s s g u s f s f g u g s g s f s s g u + O   o $ g $ $ $ + r ",
"+ r $ + $ + + r f * * f M A h g s f g y s s g y f s y g y # - f N s f g s s s y f f f s g f g y g u u g u r +   . $ f $ + $ + $ ",
"$ + $ $ O $ $ u u * $ u h h f f y f s u f y s u s s s y y * r f M f y y f y y y p f s y f y s u f y s u y s +   . + f $ $ + + $ ",
"  X O O   X $ r * * * r g u u r * r * - * * * * * # * * * # - f g r * r * y y - r * * * y * * - * * $ * # * *   . + r + O .   . ",
". . . . . + r $ # # $ u g u r r * * $ # * * * # # # * * * * u g u r - r y r * * * # # * r * * r * $ * # # * r u + . O . . O O . ",
"r r $ $ y h h f s g s h s g s M A h g g g A h h f g M g h g M f h M M M A N h g u y A h M h h h g h g g f f g g r + + r $ $ $ $ ",
"h u u y g M h M M h h M g s g H S A A S A M M M M A M h h h M M M M M M h n A f s s G D A A A A S S A A M h h h h r r r r $ $ $ ",
"f + $ r s s s s s s g s * u s F g g f g f g s g g s g p g f s f g s f g f g g * y f D A s g s g g f f g f f u g u $ $ $ +   + $ ",
"u r # s u s s s s s g y # * s F p g f f s y s y g y f s u y u f g y s g s f y # r s D f g h s g u f g f f u u f f u $ $ O   O + ",
"f + r f u p u g s s s - # * s F u g f g y f s y f y g p s f s g y s s g y s s # * u S h s f f f u g s g f u u u h u $ + .   O + ",
"u $ r u u s u g y s g y * y g D h y s s s y y u y u f y y s y s y s s u f s s # # p S f f p s s u f u s u u f u f u r $ O   + r ",
"r O $ $ * y * y * * * * * u g M s y y r y y y * y * y r y - - * y r y * - r r # * s M s * * * y * r r r $ r r r r r r .     + $ ",
"O O $ $ * * $ # * * # # * u s g y y * * - * y y y y y * * $ $ * # * * * # * * * r g g y * r * * * $ * r $ $ $ r $ $ $ + + + + + ",
"r g g g h M M g h g f f g h M h h g f f f g s f g M M M M g g g g h h n g h h M g M M g g g M M f f h A g M h h f f f u r r + + ",
"f S S S A A A A M h n M M h M M M M h M N g f g S F A D S M M S A A A h g M g h M g M n h h h f u G S A A n n A h M M s y u + r ",
"r A g h f g f u h g p g h s f f f f s g f s * s A D g h f f u f f s f s s f u u g s f g u f u # r D M f g g f f s h g p $ u + r ",
"r g f g u u f u g s g f g y g y f f y s f * * f D S g g s f s u f f f s f s f u s g s f s f - # * A f g g s y f u f f u $ $ $ u ",
"r h f g r f y u g u u g s y u g y g y f u * * f S A f u f p u f s f s - s f s y s s f g u f y * r A h s g y u u s g u u $ + $ u ",
"y n y s r u s r s y u f u y g u y f u s s s # s A S f g y f s s y s f r y y s - g y u s g s s # r S g y s y y s r u s r $ + + $ ",
"* h u * r y y r y y y y y * * * * * * y * # * - M g y y y r * y r r y r y r - * y * * * s u y # r A h y r r r - r r u r O O + $ ",
"$ f y y * * y * * y * * y * * * y y - * * * $ s g g * - r r r - * * # * r y y r # * * * * * r * - f s r - r r r r r r r . o + + ",
"u h A M h g g g s u g S D A A M h M g f f f f g M g h M g M M g p y f h n A M h g g M g h g n M f A M h h g g M h h h A * y r r ",
"r g M M A M A M g u s F N M A A M M h M M M n h M h h M h n h f f g D A M A A S M A A n M M g M h h h g g u h A g g g g r r u $ ",
"$ r g g h g g p # u f D s f u g f f s g f y s u g s f s s f s * y g F h y f f f y f s s f s s f s f p s * s h M s f y r + + $ + ",
"$ r g s g s g u * y u D y h s f f s s f f s f r s f f y f f f * u M G h s f f f g f g s g s s g f f s y # u h n y y u y + o $ + ",
"$ $ f g g f s u * y g F s s s g s y f s s y g y g u u f u f f * u h G f g g f y g f s f s f f g s s u - * u g M f r f $ + O O O ",
"+ + f u f s s u * u f S y g - g s s s h s f u - p s f f s g s * y g D h y g f g s f g s g u s f u f s u # y f h u u u o $ + O + ",
". . $ r r r * $ # y f h y s y u y y y y * y * * y r y y y y e ^ - f A s r u u s y u u y s y y y r s r * # u g g y r $ . o . o   ",
".   O * * * * * * - g g * $ * # - r y y * * * # * * * * - q @.-.w f g - r r - y s y - * # * - * r * * # # r f g $ $ o . . . . . ",
"$ r r g M M h g f f M g s g h A h h M h M M M M h g s g l _ &.;.' m M M g h M A S M h g g M M h M g s g M M h g g h $ + $ $ r r ",
"r r r u h h h h h h n f f f G D A D M S M S A A M g s g Z { :.,.} V A M h h h g h h h h h h h g h h f f M h g M h s * * r r r r ",
"$ O + $ * g u g f y f $ u g D h h h g h g g g g s r u h C ] 1.>.I u u y f s f s p s u p g s s g u u $ g M f s g y $ $ + $ O $ + ",
"+ + O # + f y s s s y $ y s S f g u g u g g s g * * u f B +.1. .T e y f u u g y f u f u g s s s u p # f M u s y # O $ O $ + $ O ",
"$ o + $ + s u g g u u # y s A g s f p f s f s g y * u f C | 2.%.{ ' _ a f u - u y f s f s f u g s s # p M f g y O $ + + + + + $ ",
"+ O O + + # y s s y g # * s N f g y f y s p u u * # - ( ) { $.<.=.} ! p f y u f y s f u f f s s y y * f h f u # + + + + + + + + ",
". .   o . O O y y - - # y g g y y $ * $ # * * * * * - ( [ X.#.5.1.{ E w r r y y * y y * y y - y * * # g g y # o O O O O O X + O ",
"    . .       O * # $ * u s s r * * * * * * * # # $ y p W o.:.6.4.Q 0 * * y y * # * * * # # $ * * * * u f + o o X . X X . O . . ",
"u r r u r r r r u S S A h g g f n M h g g h M M h f h A U ..*.5.:.Q v g M h g g M h h h A h M M h h h h f $ $ r r $ $ u $ u $ r ",
"r u u u $ r r r u s h M h h f f M F S A N M M A M h h h M W ..O.{ ~ b h g f u h N h h h M A M M h h h f + + + h u r r r r r r r ",
"$ + + + + + + O * O # s y u $ s M M g s f y y u f f f t f x Y ` I p f y u * s h M s s y s s p f f u r + . O $ f $ + $ O $ $ O + ",
"$ O + $ O + O $ + O $ + s y * s h M u u g y u g u u f g u d 3 P J 4 s y - * u h A y y u g u y f u $ O +   . $ f + + + $ O + + + ",
"+ + + O + + + + # O O O $ $ $ s h A u y g u u g t u f t j t 1 L 3 4 t p r * u h A f - s u f u y + $ + +   . + f r + + O + O + + ",
"O + + O + + + + + O + $ O + O s M M p u f y y p t u u t f t 1 K 8 , p * s $ r f M u s s y g $ O + + O +   . + u + + + . $ + + + ",
". X . .   . . . O . o . O     $ s g * $ y * * y r t t t r t ; 1 6 = * * * # y g g y * * + O . . . . . .     + u . O O . . O . O ",
". . . . . . . . .   . . . . . + r # + * * * * * r r $ $ r $ < 7 6 * * * # # - f g # O o . . . . . . .       + $ . . . .   . .   ",
"$ u u r r r u r r r $ $ r u r r u r r r f h A A A A h h h f j 7 f h S A S A h h u r $ r r u r r r $ + $ r u r r r u u r r $ $ $ ",
"u h f u u u f u u u $ + u h u u u u u u u u u f u h h A A f t 7 f h A A h h u u u f u u u r u u u r $ $ h f u f u u u u u $ + r ",
"u f $ $ r $ $ $ $ + . + u f $ $ $ $ $ $ $ $ r $ $ $ $ r + X $ t g t $ $ $ $ + r + $ r + $ + $ + r + O + h $ $ r $ $ $ r + O + $ ",
"r u $ $ + $ $ + $ . . + u u r r + $ $ + $ $ + + + + + + X X + r j + + + $ + + $ + $ $ + r + $ + $ . . $ f + $ + $ r + $ . . + r ",
"r r + $ + $ + + + . . + u u $ $ + + r O + + + O $ + O $ O . O $ t + + $ + + + + $ $ $ + $ $ $ O $ O . + u $ + $ + + + $ . . + $ ",
"r r $ $ O $ O + + . . + r r $ $ O + + + + O + O + + + O . . O + t + + + + O O O + + + O + O + + + O . + u + $ O + + + + . . + + ",
"$ + O O         . . . O $ + O O . . . . O . O . O . . . .   . + $ X O O . O O . . . O O O . . O . .   + $ O O   . .   . . . . + ",
"$ + X . . . . .     . O $ O O . . . . . . . O . O . . . . . + $ O X X X O . . . O . . . . . . O .   . + + O . .   . .     . O $ ",
"u $ $ + r r r $ + $ $ r + + $ u u r r $ r r r r $ r $ r u r u r r + O $ u u r r u r u $ $ $ r r r $ + + $ u r $ O + u u r r + u ",
"f u u u r r r r r r r r $ $ $ h u f u u u u u r u r r u r r u u r $ + u h u u u u u f u u u r r r r u r u u r $ + + f u u r r r ",
"$ $ $ + + + $ + + + r + . O + h $ $ + r + $ + + $ + $ $ + $ $ r O . + r u $ $ + $ $ $ $ $ $ + $ + + + + r r + . + + f $ + + $ + ",
"+ r $ $ O + + + + + $ O . O + h + $ $ $ + + + + $ + + $ O + $ + . . + r u $ r $ + + + r $ + + + + + + + $ + O   . + u + + + $ + ",
"$ + $ + O + + $ + + + O . . + f + $ + $ O + + O $ + $ O + + + $ .   O r u + $ + r + $ + + + O + + $ $ O $ r +   O + u + + O $ + ",
"O $ + O + + O $ O + $ O   O $ f r O + + + O O O O + + O + + + + .   O r $ $ $ O + + O $ + O + O + $ O + $ $ O . . + r O O + O O ",
". O . . . . O . . . . . . O r u + O O . + O . O O . O O . O . .     + $ $ . O . . . . O . . . . O . . . . . . . . + r O O . O O ",
". . . . .       . .     . + + $ O . . . . . O O O   . . . . . . . . $ $ + . . . . .   .   . . . . . . . . . . . O $ r . . O O . "
};
