/* XPM */
static char *torch05w801743666765[] = {
/* columns rows colors chars-per-pixel */
"64 64 107 2 ",
"   c #0E0E0E",
".  c #131313",
"X  c #181817",
"o  c #1C1C1C",
"O  c #241F1C",
"+  c #20201E",
"@  c #33261E",
"#  c #232323",
"$  c #2A2522",
"%  c #292926",
"&  c #2B2B2B",
"*  c #312B29",
"=  c #33332D",
"-  c #3E342A",
";  c #3E3D2F",
":  c #363631",
">  c #3B3B35",
",  c #3E3E39",
"<  c #42392E",
"1  c #543D2D",
"2  c #5D3C2A",
"3  c #433D35",
"4  c #4F3A30",
"5  c #5B422B",
"6  c #5C5923",
"7  c #57552A",
"8  c #58532F",
"9  c #444233",
"0  c #4F4E30",
"q  c #42423D",
"w  c #4D4C3E",
"e  c #574031",
"r  c #5E4231",
"t  c #50463D",
"y  c #53493E",
"u  c #515030",
"i  c #5D5B34",
"p  c #55543E",
"a  c #58573E",
"s  c #59583D",
"d  c #64412E",
"f  c #6D432D",
"g  c #764C2C",
"h  c #674530",
"j  c #694430",
"k  c #6E4935",
"l  c #774931",
"z  c #7C4C32",
"x  c #69662B",
"c  c #6B6A2F",
"v  c #7D7923",
"b  c #7C792A",
"n  c #474741",
"m  c #4A4A44",
"M  c #4E4E49",
"N  c #575641",
"B  c #5D5C43",
"V  c #52524C",
"C  c #565650",
"Z  c #875D2C",
"A  c #825035",
"S  c #895438",
"D  c #95672E",
"F  c #928C1E",
"G  c #989214",
"H  c #96911E",
"J  c #9E971C",
"K  c #9F991A",
"L  c #A69E0F",
"P  c #A59413",
"I  c #A49D12",
"U  c #AA9811",
"Y  c #B0A80C",
"T  c #BBB30E",
"R  c #ABA412",
"E  c #888323",
"W  c #C3AF0E",
"Q  c #C6BD0D",
"!  c #C5BB19",
"~  c #C4BC20",
"^  c #CEC401",
"/  c #CBC20C",
"(  c #DDD204",
")  c #D6CD14",
"_  c #DAD21D",
"`  c #E6DB02",
"'  c #EDE10A",
"]  c #F3E90E",
"[  c #C8C12F",
"{  c #E9E021",
"}  c #FBF22D",
"|  c #EEE635",
" . c #F2EA34",
".. c #FCF233",
"X. c #FDF439",
"o. c #C8C347",
"O. c #E4DF4C",
"+. c #E8E24F",
"@. c #FCF443",
"#. c #F6F056",
"$. c #FDF757",
"%. c #FAF775",
"&. c #F7F47B",
"*. c #FEFA79",
"=. c #FDFB8C",
"-. c #FDFB91",
";. c #FBFEB7",
/* pixels */
"% & & % & # & & & # # % q n n n n n n w m m m m n w n n n q , , m M M m m m n n n q q n n m n n q = % # & # & # o # # & & & # & ",
"& & = & & & & & & & = , m C m m n M M n m m m m m M m m m q > q V M V M M M M M m m M m m n m n m m , & = & & # o o > = & & & & ",
"# # # # # # # # # & : > m m n q q , q q , q q q , q q n > : > q M q q , q q , q , n w , q , q , n , q > # + o . . + : & # # # # ",
"o # o # X o # o & : : > m n n q , , , , q , , , , , , , > = > q m , , , q > , q > , , > q , q > q > , q = o o   . o : # # o o # ",
"o # o o # o o & , : & > n m n q , , q > , > , : , > > , : = : , w , , q , > , > q , q , q , q : q > , q > & X   . o & # o o o # ",
"# o o # . # # > > : : > n n q > > , , > , > , > , , > > : = : q n , : ; , > : > > , , : , > , , , : > , : , +   . # & # o o o o ",
"  X X .   X = = : & = : q > > : = > = : = = : = = = = = = = : , , : : : : : : : = = : = : = = : = = = : = = = . . o # o . .   . ",
"    . .   % = = = & = > q > : : = = = & = : = = & = = = = = > q > : : : : : : = = = = = : : : = = = = & & = = : o . . . . o .   ",
"% # # o = q q q , , , q , , , n w q q q q n n q q q n q n q n q n n m n n m n q > > n n m w q n q n q q , , q , # o o # # # o o ",
": & & % q n n q n n n n q q q C m M m M n m m n m m n q n n n n n n n m w n n , , , C M m m m m m M n M n n n n , & # # & # o # ",
"& + + & , , , , > , q > = > , V , q , q , q , , q > q > q , , , q , , q q , , = > , M m , q , q q q , q , , > q , & # # o   o o ",
"& # + > > , > , , , q > & : > V , q q , , > , > q > , , > > > , q : , q > , : = : , M , q q > q > , q , , , , , , : o o . . . o ",
"& o & , > , > q , > , > = : , V , q , q > , , > , > , , , , ; q > > > q > , > = = > M q , q , q , q > q , > > > q , # o .   . o ",
"& # & > , ; > q : , q : * : q M q > , , > > : ; > > , > > , > , > , , > , > > = = > m , q > > , > , > , : , , > q : = o .   o # ",
"# X & = = : : : = = = = = > q m > : : : > : : : > = : = > = : : : : : = > : = = = , n , : = = > = > : = = = : : : = : .     o # ",
"X o & : = = = = : = = * = > > q > > = > = = : : > > : : = & = = = = : = = = : = : , q > = : = : = & : = = & & : : & & o o o o o ",
"% > q q n n n q q q , , q q n n q q q q q q > , q n n n n q q q q n n n q n n n q n n q , q n n , , n m q m n n q , , = # # o o ",
"& q M M n M M n n w n m m n n n n m q n n q q q M V m M m M n m m m m q q n q n n n n n w n n , , V M m n n n n n n n > % & # # ",
"& n q n q q , > q q , q n , , , q q > q q > = , m M q n , , , , , , q > > q , > q , q q > , > = : M n q q q , , , q q > # & o # ",
"# q , q > > , > q , , , q : q > q , > > , : = , M M q q , , , > q , q > q > , > > q > , , , : = : m , q q , > , > , , > o # o & ",
"# n , q : , : , q , > q ; > > q > , > q > = = q M n q > , > , , > , , : , , > ; , , , q > , > & : n n , q > > > , q , : # o o & ",
"% n > , : > , : , > > q > : q , : , > > > , = > m M , q > , , , > > , > > : , : q : > , n > > = : M q : , : : , : > , : + o o # ",
"# n > : : : = : > : : : : : : = = = : > = = = : n q > ; = > = > : = : : : : : : > = : = > > : = : n n > : : : : = : > : . . X + ",
"o , : : : : = : = : : : : : = = > > : = = = = > , , : = > = : = = = = = : : > : & = = : = : : = : , , : : : : = = : : : . . o o ",
"& q n n n q q , , > q M M m m n q q q q , q , q n n q n q n n q > > , n n m n n q q n n q q q n q n m n n q q n n n n n # & & # ",
"& q n n m n m n q > , M m n m m M n n q n n n q n n n m w q n q , q V m m n m m n m m n n n n w q n n q q > q m q q q , & # & o ",
"# = q q n q q > & > , M , , > q , q , q , > , > q > , , , , , = > q M q > , , q : q , , , , , q > , > , = > n n , , : = o o o o ",
"o & q , q , q > = > > V > q , , q , , q , , , : , , q > , , q = > w C n > q , , q q q > q > , q , , > > = > n n > : , & o . o o ",
"# + q , q , , > = > q M q > , q > > , , , > q > q > , , > , q = > n V , q q , > q q > q , q , , , > > : = > q n q : , + o . o . ",
"o o , > , , , > = > , M > q : q , > , q ; , ; : > , , q , , , = : q M n > q , q , , q > q > , q , q , > = : , n > , : . # X X o ",
"    & = : : = = & : , n : > : > = > : > : : : = > : : : > ; c b ; , m , : > > > ; > > : > : : > : > : = = : n q : : & . . . .   ",
". . X : = : = = : > q q = = = = : > > : = = = & = = = : = 6 [ o.7 , q : : : > > , : : = = : : : : : = = & : , q & = . . .   . . ",
"# # # , n m w q , , n q , q n m n n q n q n n q n , , , w J  .+.T p w n q n n m M n q q q m n q n q , q m n n q q q # o o + & + ",
"# # & : n n q n n n q , , q V M M M m M m M M M n n , , B ( X.#./ s m m n q n n q q n n w n n q n n q , n q q n n : # # & % & # ",
"o X o + = q > q q > , = , , M n q q q q q q q q , : > n N ! %.+.G > > : q > > , , , , > , , , , > > = , n , , q = # o o o o o o ",
"o o . o + , : > > > > = : , M , q , q , q q , q = : > , N ~ %._ L i : , > > , > , > , > q , , , > , = , w > , > # X o X o o o X ",
"+ . o + o : ; q q > > * : , m , , q > q > q > q : = > q N ) &.| ( T K 0 , > : , : , , q , , : q > , & , q q , = . # o o o o o o ",
"o . o o o + > , , > q & : , m , q : , : q > > > : & 9 E H ( } $.X.Q v 9 , > > , > , , ; , q > q = > = q w , , # o o o o + o o o ",
". .   .   X o : : = > = > , , > : = = = = = = = = = ; v ^ ` { -.%.( Y 0 : : : > = : > = > : : > = > = , , > + . . . . . o . o . ",
"      .       + : & = = > , , : = = = = = = = = * * : 9 I ' @.;.=.T 6 = = > : : = = = = = * = = = = = > q + . . . . . . . . . . ",
"& # & & # & # # : n M m n q q , q m q q q q M q n q n m P ( ..-.@.T c q q n q q m q m q m q n n n n n n : # # & & # # & # & # # ",
"& & & & # # # # & > q n n q , q n V M n n m n M n n n q m R ` ] ( F i q q q > q m q q n n m m n q n n : o o o : & # & # # # # # ",
"o o o o o o o X # X & , > > & , n n q , q > : , , , , : 3 8 U W K 9 q > , = q q m > q > , , > , , : & #   . o & o o o . # o o o ",
"# . o o X o . # X X + o , > = , q M , > q = > q > , , q > 3 g D Z 5 , : : = > n m > > > q > : q : & . o   . # : o o o # X o o X ",
"o o o X X o o o o X X X # & = , q n ; : q > > , > , , > > 3 f S z 5 3 > : = > q m , : q > q : : o # o o   . o & # o o X o X o X ",
". o o . o o o X o X o o X X + , m n , > q : > , : 3 > : , 4 f A g e > > > = : 9 n > > ; : q % . o o . o     X & o o o . o o o o ",
". . . .   .   . X . .   .     + > q = = : : = : = : : : = : 4 l d < : = = * > q q > : = + X . .   .   .     o & . . . . . . . X ",
"  . .   . . .   .   . . .     o # + % = = : = = : = : * : : 4 l j - = = = & : , q & + . . . . . . .         o # . . .   .   .   ",
"# & & # & # & & # # o o # & & # # & # & : , m m m n n n n , 4 z y m M m m M m , & # # & # & # # # # o # & & & & # & & # # # o # ",
"& : & & & & & & & & # # & : & & & & & & & & & : > , , n n , 4 z k n n q , : & & & & & & & & & & & # # # & : & & & & & & & # o # ",
"& & # # # o # o # o   o & & # # # o # # # # # o o # # # o . * d r & # o # # o # o # # o # o # o # o   o : # # # # # o # o . o # ",
"# & # # o # # o #     o & & # # # o o o o o o o o o o o . . O 4 4 o o o o o o o o # o o # o o o # .   # & o # o # # o # .   . # ",
"# & o o # o o o # . . o & & # # o # # . o o o . o o o o .   o # * o o # o o o o # o o o # o # . # .   # & o o o o o o # .   o # ",
"# # o # X o o o .     o # & o o . o o o o o o o o o o o . . . o & o . o o . . o o o o . o o o o o .   o & # o o o o o . .   . o ",
"# o . .         .     . # o . . . . . . .   .   .           . o # . . . . . . . . . . . .   . .       # o o .         .     . # ",
"# o . . .   .         . # o . . .           .         . .   o # o . . . . . . . . .       . . .   . . o o . .     . .       . # ",
"& # # o # # # o o o o # o o o & & & # # # & # # o & o # & & & & # o o o & & # & & # & # # # # # & o # o # & # # o o & & & # o & ",
"& & & & # & # & & # & # # o # > & & & & # & & & & # & & # # & & # # o & : & & & & & & & & & # & # # & # & & & # o o & & & & & # ",
"# o # o o o o o o o # o   o o : o # # # o o o o o o o # o o # # . . o # & # # o # # # # o o o o o o o o # # o   . o & # o o o o ",
"o # o o o o o o o o o o   . o & o # o o o o o o # o o # . o o o . . o # & o # o o o . # # o . # o o o . # o .   . o & o o o o o ",
"# o # o . o o # o o o .   . o & o # o o o o o o o o o o o o o # .   o # & o # o # o o o # o o . o o o o # # o   . o & o o . # o ",
". # o . o o . # . o # .   . # : # . o o o . . o o o o . o o o o .   . # # o o . o o . # . . o o o o . o # o .     o & . . o o . ",
". .     . . . . . . .     . # & o . . . o . . . o . . . . . . .     o o # . .   . .   o .   . . . . .   . .     . o & . . . . . ",
".     . .         .     . o o o o . . . .   . . .       .     .   . o # o . . . . .     .     .       .     . . . # # . . o .   "
};
