/* XPM */
static char *torch04w601743666765[] = {
/* columns rows colors chars-per-pixel */
"64 64 123 2 ",
"   c #151515",
".  c #1B1A17",
"X  c #1C1C1C",
"o  c #21201E",
"O  c #2A251E",
"+  c #242424",
"@  c #292723",
"#  c #2C2924",
"$  c #2C2C2C",
"%  c #342E23",
"&  c #3C2F27",
"*  c #302D29",
"=  c #363024",
"-  c #383227",
";  c #35322D",
":  c #3C3529",
">  c #3F392D",
",  c #333333",
"<  c #393734",
"1  c #3D3A33",
"2  c #3B3B3B",
"3  c #413223",
"4  c #4D3528",
"5  c #413A2E",
"6  c #4D3A2C",
"7  c #543B29",
"8  c #5F3E2B",
"9  c #443E32",
"0  c #4A3F32",
"q  c #413D3A",
"w  c #4F492B",
"e  c #5C412C",
"r  c #5C552B",
"t  c #474034",
"y  c #484236",
"u  c #45413B",
"i  c #4B4539",
"p  c #4F493D",
"a  c #544C32",
"s  c #5B463C",
"d  c #514B3F",
"f  c #5B4C3E",
"g  c #58513F",
"h  c #66422D",
"j  c #6B442E",
"k  c #77482F",
"l  c #645826",
"z  c #615A29",
"x  c #755029",
"c  c #6E4935",
"v  c #664A39",
"b  c #774931",
"n  c #7C4C32",
"m  c #645D3A",
"M  c #756D2E",
"N  c #7D752B",
"B  c #736C37",
"V  c #424242",
"C  c #484641",
"Z  c #4D4942",
"A  c #4A4A4A",
"S  c #534D41",
"D  c #565045",
"F  c #585246",
"G  c #5C554A",
"H  c #5E584C",
"J  c #505050",
"K  c #605A4E",
"L  c #645E52",
"P  c #6E6742",
"I  c #716C42",
"U  c #875E2C",
"Y  c #825035",
"T  c #895438",
"R  c #95672E",
"E  c #8A821C",
"W  c #9C9318",
"Q  c #A59313",
"!  c #A39B19",
"~  c #B6AD0B",
"^  c #BFAC0D",
"/  c #AFA612",
"(  c #B5AC18",
")  c #BCB111",
"_  c #888023",
"`  c #9D9423",
"'  c #C1AD0E",
"]  c #C4BA06",
"[  c #C9BF05",
"{  c #CEC307",
"}  c #D3C902",
"|  c #D8CD00",
" . c #DBD205",
".. c #E0D501",
"X. c #E5DA04",
"o. c #E1D60B",
"O. c #E8DD09",
"+. c #E5DB13",
"@. c #E8DE1B",
"#. c #EBE006",
"$. c #F0E60C",
"%. c #EDE316",
"&. c #EEE51E",
"*. c #CEC830",
"=. c #F5EC25",
"-. c #F3EA2F",
";. c #F9F026",
":. c #FAF029",
">. c #FEF63A",
",. c #EEE74D",
"<. c #FCF445",
"1. c #FEF748",
"2. c #F4EF52",
"3. c #FEF851",
"4. c #F4F05E",
"5. c #F6F162",
"6. c #F7F36C",
"7. c #FBF76C",
"8. c #F4F072",
"9. c #FDF974",
"0. c #FDFC8F",
"q. c #FDFB9B",
"w. c #FBFEB7",
/* pixels */
"2 2 2 2 2 2 2 2 2 < , $ , 2 2 2 2 , 2 , V 2 2 V 2 2 2 p p i t i F F F F F D g S p < , , 2 V , , 2 2 2 , 2 2 2 , $ $ 2 V 2 , 2 2 ",
"2 V V V V 2 V 2 V 2 $ $ V A V 2 V V V 2 V V V V 2 V D G D i 5 i K H H G F H F G D D V V 2 2 V 2 V 2 V V V V V $ $ $ J A V V V 2 ",
"$ , , , < , , , , + o $ V V , , , $ , , $ $ , $ $ < y p t : t i G p p t p y t p t i 2 $ , + , $ , $ , , , , $ o X $ J 2 $ 2 $ , ",
", , $ , + $ , + $   X $ 2 2 , , $ $ $ $ $ $ $ $ $ 9 t t > : 5 i F t t t i 9 t i t i u @ , $ , + , $ $ $ $ $ $   o , A $ $ $ $ , ",
"$ , $ $ $ $ $ $ $ X X $ 2 2 , , $ $ , + $ $ $ + , t t y > = : y g t y i t t t > i y y $ , $ $ o , + $ $ + , +   X $ A , $ $ $ , ",
"$ $ $ $ + , + $ + X   + 2 2 $ $ + $ $ + $ + $ + ; t t > : - : y Z y > 5 t > > 9 > y y # , + $ $ $ + + + X $ X   X $ V $ $ $ $ $ ",
"X + + +     X   X X X o , $ + X X X X o X   X X - = = - = = : y i : : : : : : : - : - * X X X o X X   X   X X   X $ 2 $ + X   X ",
"X X X X X X X         o , $ X X X X       X X . O = = - - - 5 i t : : : : : : = = = = : X X X X X   X       X , + X X X X + + X ",
"2 2 , $ , , , $ $ $ $ , $ $ , 2 2 2 , $ , 2 2 q y i p p d d d i p Z D D D D p i t > D p V , 2 , $ 2 , $ $ $ , $ , $ $ , , , $ $ ",
"A 2 2 2 , 2 2 2 2 2 2 2 $ $ $ J V V 2 V 2 V 2 p F D g p d d d d d g p D p g D y t > L H p V V 2 V V 2 V 2 2 2 2 2 2 , 2 2 , $ , ",
"V $ , $ $ $ $ $ + $ , $   + $ A , $ $ , $ $ $ u y t y t y y t y i t t p i i y % > y H F 1 , $ $ , $ $ , + $ + , + + , , +   $ $ ",
"V , $ $ + $ $ $ $ + $ +   + + A $ , $ $ $ + $ t i > t t t 5 t t i > t y t t > % : t G i i , $ , $ $ , $ $ $ $ $ $ $ $ $ + X X $ ",
"V $ $ $ + $ + , $ $ $ +   X $ A $ , $ , + $ ; > y > i t 5 t t y t 5 5 y 5 t t % - > G p t ; $ , $ $ $ , $ + $ + $ $ $ + X   + $ ",
"V $ $ + + $ $ $ X $ $ +   + , V , + @ $ $ + $ > > 5 y 9 5 t 5 t > t t t y t t % = t D y i $ @ $ + $ + $ + + $ + $ + , $ +   + , ",
", + X   X X X + X X X X X + , 2 + + X o + o ; : > - > : 5 : - > > : : : : : : % = t D t : O   + X + X X   X X X + X X X X X $ , ",
"+ X   X X X     X X     X + + , + + X o X o - > 5 > : : - = = = = - - = = - - - : i i > - # X X     X X     X X X   X X $ + $ $ ",
"2 2 , $ 2 2 2 , , , $ $ $ 2 2 , , , , , $ $ 2 u i D d D d p i i p p p D p p p D p Z d i y u 2 2 $ $ 2 2 , 2 , 2 , $ $ , , , $ $ ",
"V A V V 2 V 2 2 2 2 2 2 2 , 2 2 2 2 , 2 2 , u i F K F G F D D F D F D p p d p p D p g Z Z p , $ $ A V 2 2 2 2 2 , 2 2 2 2 V $ , ",
"2 V $ , $ , $ $ , $ $ $ 2 + $ $ , $ $ , , @ - t F H i d t y t t y t i 5 5 y t 5 i t i i t 9 $   X A 2 , , , $ $ $ , , $ , 2 $ , ",
", 2 $ 2 $ + $ + , $ , $ , + , + $ , + + $ o = i H F i i t t t 5 y t y t y t y 5 t i t y t 9 X X X 2 , $ $ $ + $ + , $ $ $ , $ V ",
", 2 $ , X $ + $ , + + , $ + + $ + , + $ + X = i F D y t t t t y t y t : t y t > t t y i t t o   X 2 2 $ $ + $ + $ $ + + , $ $ 2 ",
"2 2 + $ X + $ X $ + + , $ + $ $ + $ + $ @ $ % 9 D F y i > t t 5 > t t > 5 > t : y : > t i t +   + V , X $ + + $ + $ $ + $ $ $ , ",
", 2 + X + X X X + + + + X + X X X X o + X   - > D p > 5 > > > > > : : : > : > - > = > - 9 1 o   X 2 , + X X X X X X + + + + + , ",
"$ $ + + X X X + X X X X X X X X X + X X   X - 9 y y - : : - - > = = = = : 5 > - = = - : : : X X X , $ + X + + X X X X X X X $ $ ",
"2 2 2 2 , , , , $ + , V A 2 2 2 2 2 $ $ $ , t i S p p S i D p p t 5 y d g D Z g p i p p p p , 2 , 2 2 , 2 , , 2 , 2 2 2 , 2 2 2 ",
"2 2 2 2 2 2 2 2 $ $ $ A 2 2 2 V 2 2 2 2 2 < Z p S p p S p d d y t i H F D D D D S D D p S p , 2 , 2 2 , , + , V , , , , 2 , 2 , ",
", $ , , 2 , , $   + $ A $ $ + , $ $ $ , $ + 1 9 i t y t t y y - 5 i H p > y y y > i t 9 y 9 $ $ $ $ + $   $ 2 , $ $ + $ $ + $ $ ",
"$ $ , $ $ $ , +   + + V + , $ , $ $ $ $ $ $ 9 > t t t 9 y i y - t p L d t y y t i y p t y 1 $ , $ $ $ +   + , 2 + + + , + + , + ",
", + , $ , $ $ +   $ $ A $ $ $ $ $ + $ $ + $ 9 > i 9 9 y 5 i y = 5 d L i i i y t i y t y t < $ , $ + + +   + , 2 $ + $ $ $ + + + ",
"$ + $ + $ $ $ + X + $ V + , + , $ + $ , $ $ ; : t 9 t t t i t = > i H p > i t i t t y t i , $ $ + , $ +   X , , + $ + + , + + $ ",
"X X + X X + X X   + $ 2 X $ + + + + + + X + + : > : > : > > - % : y F y : > > t > t t > 9 # + + X $ X X   + , , + X X X + X X   ",
"X X X X X X X   X + $ , X       X + + + X   X % = : - : : : y I r y i > : : > > y > - = = o + X X X X     X $ ,     X X X X X X ",
", , , , , 2 , , $ $ 2 , $ $ 2 2 2 2 2 2 < 2 2 S S y y i p m *.,.` g d D i d g D G g p p i 2 2 , 2 , $ , 2 2 2 $ , 2 $ $ $ , 2 , ",
"2 2 2 2 2 2 2 2 2 , 2 $ $ , J V 2 V 2 V 2 V V F S p 0 y P ( -.4.O.m D D d p d i p p p p p 2 < , 2 , $ $ 2 , , 2 , 2 , 2 2 2 2 2 ",
"$ + $ $ + $ $ $ $ + $   $ $ A , , , $ 2 $ , , 9 9 > 9 i B { <.9.+.w t > i t t t t t t 1 1 $ $ $ + +   , 2 $ $ $ + , $ $ $ + $ + ",
"$ + + $ + $ X $ + $ +   + $ V $ , + , + , , $ 2 : = 9 y B { 7.2.} E > y t > i > i > y t < $ $ $ + $   $ 2 $ $ + + + $ + , $ $ + ",
"$ + $ $ + , $ $ , + +   X $ 2 $ $ $ $ $ $ $ $ < : = 9 i B ] 8.6.X.{ ) > y 1 > t 1 y t y , $ + $ $ $   $ 2 $ $ $ + $ $ $ $ $ + $ ",
"$ + + $ $ $ + $ $ + ,   X $ 2 , , + $ + $ + + + % % 5 N ! [ :.3.<.%.W t t > 5 t > t y : $ $ $ $ o o X , 2 $ $ $ + $ $ + $ $ $ + ",
"X X   X X + X + + X +   + $ $ $ +   X   . .   X @ = : M } ..@.5.q.=. .t : : > : - > > @ + X X + X X   $ $ + + + + + + + + X + + ",
"    X X         X       $ $ $ X X X X X X X X   . % : r [ O.>.0.w.&.~ = : > > : = - : X     X   X X X + $ X + X X X + X X + + X ",
"2 2 2 2 2 2 , , 2 2 V 2 , , , $ , 2 2 $ , 2 2 2 < q S S / | :.9.7.X._ p d d p i d d i < 2 , 2 2 2 2 , 2 2 , , 2 2 , 2 2 $ 2 , , ",
"2 2 2 2 , , 2 2 2 2 2 2 2 , $ $ 2 A V 2 2 2 2 2 2 2 d p m !  .$.#.~ M d p y 5 d D d 2 < 2 V 2 2 , 2 , , $ + $ A 2 2 , 2 2 2 , 2 ",
", + $ $ $ + $ + , + + $ + + X $ 2 2 , $ , + X $ $ $ 9 > y a Q ' ' l y 5 t = t d F < $ o $ $ $ , $ + $ $   + , V $ $ $ X $ $ + $ ",
", + + , + $ + $ + + $ + $ X   $ , 2 + + $ + + $ + $ ; i 5 0 x R U e t > > = 5 d F + + @ $ + + $ + $ + $   X $ V + $ $ , + $ $ + ",
"+ $ $ X + $ $ $ $ X + + $ X   $ 2 2 + o , + + $ $ $ $ ; 0 6 j T Y 8 5 t : % 5 d Z $ X $ $ $ + + + $ + $   X $ A , $ $ + $ + $ + ",
"+ $ $ + $ $ + + $ + $ $ + +   $ 2 2 $ + , + + $ X $ + + q 0 h Y k e t > t % - t V + $ @ + , $ + $ $ + $   X + V + $ $ X $ $ $ $ ",
"X X + X X X X X + X X X o X X $ , , X X + X X o X o o X o 5 7 k h 6 : - - % : < $ o X X X X X X X X X X     $ 2 + X + X X + X + ",
"X X X X X X X X X X X X X X X $ , $ o X X X X X X X X X X o 7 b h 3 = = % O o $ ,   X X X X X X X X X       $ $ + X X X   X X   ",
", 2 2 2 2 2 2 2 2 , , $ , 2 2 2 2 2 2 2 2 V 2 V 2 2 2 , 2 $ 6 b b d D A V V 2 2 2 , , 2 2 2 , , 2 , $ $ 2 V 2 2 2 2 2 2 , , $ , ",
"2 A V V V 2 V 2 V 2 $ $ V A V 2 2 V 2 2 V 2 V V 2 V 2 V 2 , 4 b v i A A V V V V 2 V V 2 2 2 2 2 2 2 , $ V A 2 V 2 V V V 2 , $ , ",
"2 V , , , $ , , , + + $ V V , $ , $ , , $ , , $ $ , , 2 $ X & h v < , $ , , $ , $ , 2 $ 2 $ , $ 2 + + $ V , , 2 $ $ , , $ + + , ",
"2 2 , , $ $ , + ,     $ 2 V , , $ $ $ $ , $ $ + $ $ $ + + X * 8 s $ $ + , + + , $ $ $ + , $ , + , X X $ V $ , + , , $ $     $ , ",
", 2 $ $ $ $ $ $ , X   $ 2 2 , , $ $ $ + $ $ $ + $ $ + , +   X , q $ $ * $ $ $ + , $ $ $ , $ $ + $ + X $ V $ $ $ $ $ + , +   + , ",
", 2 $ $ + , + $ + X   + , 2 , $ + $ $ + $ + $ + + $ $ + + X + $ 2 $ + + $ + + + + $ $ + , + $ $ $ +   $ 2 $ , + $ + $ $ X   + , ",
", $ + +   X     X   X + , $ + X X + X X X X X   X     X     + $ , X + X + X + X X X   X +     +   X   $ , + +   X     X     X , ",
"$ $ X X   X X X       X , $ X X X X       X X         X   X + , $ X + X X X X X + X       X X X X X X $ $ X X X X X X       X , ",
"2 , , $ , , , $ $ $ $ , $ $ $ 2 2 2 , $ , 2 2 2 $ 2 $ 2 2 2 2 2 , $ + $ 2 2 2 2 2 , 2 , , $ , 2 , , $ $ , 2 , , + $ V 2 , 2 $ 2 ",
"A 2 2 2 , 2 2 2 2 , , 2 , $ , J V V 2 V 2 V 2 2 2 2 2 2 2 2 2 2 2 $ $ 2 A V 2 2 V 2 A 2 2 2 , 2 , 2 2 , 2 2 2 , + $ V V 2 2 2 2 ",
"$ $ , $ $ $ $ $ $ $ , $   + $ A , $ $ , $ $ $ $ $ $ $ , $ $ , 2 + X $ 2 V $ , $ $ , , , , , $ $ $ $ $ $ 2 , $   $ $ V $ $ $ $ $ ",
"$ , , $ + $ + $ $ $ $ +   X $ V $ , $ $ $ + $ + $ $ $ $ + $ $ $ X X + 2 2 $ 2 $ $ $ + , $ $ + $ + $ $ + , $ +   X $ V + $ + $ $ ",
", $ , $ + $ + , $ $ $ +   + $ V $ , $ , + $ $ + , $ $ $ + $ $ , X   + , 2 $ , $ , + $ $ $ $ $ + $ $ , + , , +   X + 2 $ + + , $ ",
"+ $ + + $ $ + , X $ , +   + , V , + + $ $ + o + + + + + $ $ + $ X   + 2 , $ $ X $ $ + , + + + $ $ $ + + , $ +   X $ 2 + + + + + ",
"X +     X X X + X X X     + , 2 + + + X + + o o + X + X + X X X     $ $ , X o   X + X + X   X X + + X X + X     X $ 2 + + X + X ",
"X X   X X         X     X + $ , + + X X X X o + +       X X   X X X $ , $ X X X X X X X   X           X   X X X + , , X X + +   "
};
