/* XPM */
static char *torch10w801743666766[] = {
/* columns rows colors chars-per-pixel */
"64 64 107 2 ",
"   c #0D0D0D",
".  c #131313",
"X  c #1A1A16",
"o  c #1C1C1C",
"O  c #241F1C",
"+  c #24241C",
"@  c #2D2D1F",
"#  c #33261E",
"$  c #232323",
"%  c #2A2522",
"&  c #2A2A24",
"*  c #2B2B2B",
"=  c #312B29",
"-  c #343424",
";  c #3F3523",
":  c #3E3E25",
">  c #34342B",
",  c #3B3B2C",
"<  c #323232",
"1  c #3F3F31",
"2  c #393939",
"3  c #423926",
"4  c #443D2C",
"5  c #523B27",
"6  c #543D2A",
"7  c #5D3C29",
"8  c #4F3A30",
"9  c #5C591C",
"0  c #7E7A1D",
"q  c #4F4E27",
"w  c #44422A",
"e  c #57402D",
"r  c #5B4228",
"t  c #545225",
"y  c #585329",
"u  c #5D5B2B",
"i  c #434333",
"p  c #4E4435",
"a  c #4C4A35",
"s  c #424239",
"d  c #4A4A3A",
"f  c #5E4231",
"g  c #524C36",
"h  c #555435",
"j  c #585735",
"k  c #595835",
"l  c #575638",
"z  c #5D5C3A",
"x  c #66432D",
"c  c #6B432D",
"v  c #764C2C",
"b  c #6E4933",
"n  c #774931",
"m  c #7C4C32",
"M  c #696625",
"N  c #6B6A27",
"B  c #7C7924",
"V  c #4F4F40",
"C  c #525242",
"Z  c #875D2C",
"A  c #825035",
"S  c #895438",
"D  c #95672E",
"F  c #88831E",
"G  c #928C19",
"H  c #999210",
"J  c #9F9915",
"K  c #96911A",
"L  c #9E9718",
"P  c #A79F0D",
"I  c #A59412",
"U  c #A29C10",
"Y  c #AA9810",
"T  c #ABA40F",
"R  c #B0A809",
"E  c #BCB30C",
"W  c #C3AF0E",
"Q  c #C6BD0B",
"!  c #C5BB17",
"~  c #C4BC1F",
"^  c #CEC401",
"/  c #CCC20B",
"(  c #DDD203",
")  c #D6CD14",
"_  c #DAD21C",
"`  c #E6DB02",
"'  c #EDE10A",
"]  c #F3E90E",
"[  c #C8C12D",
"{  c #E9E021",
"}  c #FBF22D",
"|  c #EEE635",
" . c #F2EA34",
".. c #FCF233",
"X. c #FDF439",
"o. c #C8C345",
"O. c #E4DF4C",
"+. c #E8E24F",
"@. c #FCF443",
"#. c #F6F056",
"$. c #FDF757",
"%. c #FAF775",
"&. c #F7F47B",
"*. c #FEFA79",
"=. c #FDFB8C",
"-. c #FDFB91",
";. c #FBFEB7",
/* pixels */
"& * * * * * * * $ $ $ o $ * $ * * $ * $ * * * * * , s d d 1 1 1 d d d d s < * & * $ $ $ * * $ $ * $ * * * $ * $ o $ $ * * $ * $ ",
"* * * * * * * * * * $ o * 2 * * * < * * < * * 2 d d d d d i : 1 C C C d d d , < * * * * * * * * * * * * < * * $ o o 2 < * < * * ",
"$ $ & $ $ o $ o $ o   o * * $ $ $ o $ $ o $ , 1 1 i i i 1 - , i d i i 1 i 1 1 , X $ * o $ o $ o * o $ $ $ o o . . $ 2 * $ $ $ $ ",
"$ $ o $ o $ $ o $     o * * $ $ o o o o o , 1 , 1 1 1 1 - - , i d i 1 , i , , s > $ $ . o o o o $ o o o $ o o   . o < o $ o o $ ",
"o $ $ o o o o o $ .   o * * $ $ o o $ X - , 1 , 1 1 : 1 - - : 1 d 1 1 i 1 , , , i > o o $ o $ . o o o o o o o   . $ * $ o o o $ ",
"o o o $ . $ o o o     o $ * $ o X o o + , : 1 - 1 : 1 , , - - 1 d 1 - , 1 , , , : 1 & . $ X o o o X o . . o .   . o * $ o o o o ",
"  . o .   .           . $ o .     . . > - - , - - - - @ - - - 1 1 - - , - - - - - - - . .     . .     .   .       o * o . . . . ",
"  .   .       .       . $ o . . . . + - @ - - @ @ @ - - - @ , i 1 - - - , - - - - - @ $ . . . .     .       . o o . . . . X .   ",
"* $ $ o $ $ $ o o o $ $ o o o * * * i i i d i i 1 1 d i i i d i i d d d d d d 1 , : d i < $ $ & $ * $ $ o o $ o o o o $ $ $ o o ",
"< * * * $ & * & * $ $ $ $ o $ 2 * d d d d d d d d d d i d a i i a d i d i d d 1 1 , C C s * * * * * * * * $ * * $ * * $ $ $ o $ ",
"* $ $ o o o o o o o $ o   o o 2 & i 1 i , 1 1 1 1 1 1 , 1 1 1 1 i , , i 1 1 1 - , 1 C d 1 & o + $ o o $ o o o o o o $ $ X   o $ ",
"* $ o o o o o o o o o o     o * - i 1 1 1 , 1 , 1 : 1 1 , , : 1 i : 1 1 , 1 : - - 1 d 1 i > o $ o o $ o o o o o o o o o .   . o ",
"* o $ o . o o $ o o o .   . o 2 , i 1 1 , , , , 1 - i : , 1 , 1 , , , 1 , 1 1 @ - : d d 1 1 $ o o o o $ o . o o $ o o o .   X o ",
"* $ o . o o . $ . o $ .   . $ < 1 , , 1 , , , , , , 1 , , : , 1 - 1 1 , 1 : , - - , d 1 1 , + o o o o o . o o . $ . o o .   o $ ",
"$ o     . . . . . . .     . $ 2 , , , - , - , - , - , - , - - , , - - - : , - @ - 1 d 1 - - + X   . .     . . . . . . .     o $ ",
"o     . .       .       . o o 1 , - - , - - - - , , - - - - @ - - - - - @ - - - - 1 i - - - - .     . .       .       . o o o o ",
"$ * $ $ * $ * $ $ $ o o $ $ * i i s 1 w 1 1 , i a d d d d 1 1 i i i i d i i i d d i i i i i i & o o * * $ $ $ $ $ o o $ $ $ $ o ",
"* < < * * * * * * $ * $ * * > d i d s d d i 1 i d C d d d d d d d d d i i d i i i i d a i i d & o 2 * * * $ * * * $ * $ * * o $ ",
"* * $ $ o $ o o $ $ $ o $ o * 1 s 1 , i i , - , d d 1 a 1 1 1 1 i 1 i : 1 1 , , i 1 1 i 1 1 , + . * * o $ $ $ o o $ $ o $ $ o $ ",
"$ * o $ o o o . $ o o o $ . > , w 1 , , 1 - - i C d i i 1 1 1 : i 1 1 , 1 , 1 , , i , 1 1 1 - + . * $ $ $ o . o o o o o $ $ $ * ",
"$ * o $   o . o $ o o $ o X - i , i , i , - - w d d 1 1 1 , 1 1 , 1 , - 1 1 , , , 1 1 i , 1 , + . * * o $ . o . o o o o $ o o * ",
"* $ o o . o o . o o . $ o X , , - , , , , , - , d d 1 i , 1 1 : , , 1 , , , 1 - i : , 1 i , , @ . * $ . o . o o . o o . o o o $ ",
"$ $ o   . . .   . . . .   . - - - - - , - @ - - d 1 , : - , - , - - - : - - - - , - - - , , - @ . $ $ . . . . . . . . . o . o o ",
"o $ o . . . . . . . . . . . - - - , - - - - - , 1 1 - - - - - , - @ - - - , , : @ @ - - - : - - . $ $ . . . . . . . . . . . o o ",
"* * * * $ $ $ $ o o $ * < * d i d s i 1 1 1 1 i i i i d i i a i 1 , 1 i d d d i i i i s i d i d $ * * $ $ $ $ $ $ $ $ * $ * * $ ",
"* $ * $ * * * $ $ . o < * * d d d d i i a s a i d i i d i a i 1 1 i V d d d d d d d d i d i a i $ $ $ $ $ o $ * $ $ $ $ * $ $ $ ",
"$ o $ $ $ $ $ o   o o < o o , i 1 1 w s 1 , 1 , i , 1 1 , 1 1 - , i C d : 1 1 1 : 1 1 , 1 1 1 1 o o o o   o $ * o o . o o o $ o ",
"o o $ o $ o $ .   . o < . $ , i w 1 , i 1 1 1 , 1 1 1 , 1 1 1 - , i C i 1 1 1 1 i 1 i , 1 , 1 1 o o o .   o $ * o . o $ o . o o ",
"$ o o $ $ o o o   . o 2 o o > i , , 1 1 , , w - w , : 1 , 1 1 - - d C i i 1 1 , i 1 , i 1 1 1 , o . o .   o $ * o . o o o o . . ",
"o . $ o o o o o   o $ * . $ & w 1 , , i , 1 , - 1 1 1 , 1 1 1 - , 1 C s , 1 1 i 1 , i , i , 1 , o $ o o   . o $ o o o . $ . o o ",
"  . . .   .       . o $ . o $ , - , - , - - - - , , - , : , M B : 1 d 1 - , : , , , , - , - > & . o .     . $ $ . . . . . . .   ",
".   .   . . .     o $ $ .   o & - , , , - - - - @ - - - - 9 [ o.t 1 i - : - - , 1 , - - - - < o   . .     . o o     . .   . .   ",
"$ $ $ $ $ * $ $ o o * o o $ * d i d i d a d d i i i , i a L  .O.E j d d 1 d i d d d i i a i d & $ $ o $ * $ $ $ $ $ $ o o $ $ $ ",
"$ $ * $ $ * $ $ * $ * $ o $ < d d d d d d d d d d i , i z ( @.#./ j d d d i d i i i d i s d i & $ $ $ o * $ $ * $ * $ $ * $ $ * ",
"o o o $ o o o $ o X o   o o < 2 i d i i i i i i , , , i l ! %.+.H : , - 1 , , , , 1 , , 1 , - o . o   $ * o o o . $ o o o X o o ",
"o o . o o o   o o o .   X o * * s , 1 , i i , i - - , 1 h ~ %._ P u - 1 , , 1 : 1 , 1 , i 1 & o X o   o $ o o o o o o X o o o o ",
"o . o o o $ o $ $ o .   . o * $ 1 i , 1 , i , i - - , , j ) &.| ( E J q 1 , - 1 - i , 1 1 1 X $ o o   o * o $ o . $ o o o o o o ",
"o o X o o o . o o . o   . o * o - , , , w , , , - - w F K ( } $.X.Q 0 w 1 , , 1 , , i , 1 > o o . .   o * o o o o o o o $ o o X ",
". .   .   o . . o   X   X o o o o @ - - @ - - - - @ w 0 ^ ` { -.*.( R t - - : - - - , - > X . o   .   $ o o . . . . X . o . o . ",
"    .                   o o o . . @ - - - - - - @ - - w T ' @.;.=.E 9 - - , - - - - - - +       .   . o $   . . . . . . . . . . ",
"* $ * * $ * $ $ $ * * * $ $ $ o $ > s i i i d i i i i h U ( ..-.@.E N i i i i i d i i d * $ * * $ * $ $ $ $ $ $ $ $ $ * $ $ $ $ ",
"* * * * $ $ $ $ * * * $ * $ o $ & < 2 d d d d d d s a i a T ( ] ( G k i i i , i d i s , * * * $ $ $ * $ o o o < * $ $ $ $ * $ * ",
"o o o o o X o o $ . o o . o   o * * $ , w - - 1 , , 1 - 1 y Y W I w 1 : , - 1 i d 1 1 X o o o o $ o o o . . o < $ o o . o $ o o ",
"$ . o o . o o o o X o . o .   o $ * X + i , , i , i , i , 4 v D Z q 1 - , - , i d - + o $ o . o . o . o   . $ < o o o $ o o o . ",
"o o o . o o o o $ . o . $     o * * o . > , , w , , , , 1 3 c S m r , 1 > - , s d > . o o o X o . $ o o   . o * $ o o . o . o o ",
". o o . o o o . o o o o o o   o * & X X $ & , , , , , , 4 4 x A m 6 w - , - - 4 1 . o o . $ X X o o . o     o * o o o . o o o o ",
". . . .   . . . X   .         o $ $ .   X . & - - - , - > > 5 n c 3 > - - @ , , $ . . . . . . .   . . .     o * . . . . . . . . ",
". . .   . .   . .   . . .     o $ o . .     . o - - - - - - 5 n c ; - - @ @ + o $     .   .   .   . .       o $ . . .   . . .   ",
"$ * * $ $ $ * $ * $ o o $ * $ * * * $ * * * * * < < s s p i 6 n b g V V 2 * * $ $ $ $ * $ * $ $ $ $ o $ $ * $ $ * * * * $ $ o $ ",
"* < < * * * < * * * $ o < < * * * < * * * * * * * * * 4 2 4 6 m b s 2 < < < * < * < * * * * * * * $ $ o < < * < * * * * * $ o $ ",
"* * $ $ $ $ $ $ $ . . o * * $ $ $ o $ $ o $ * $ o $ $ * o . % x 7 * o o $ o o * o $ $ o $ o $ o $ . . o < $ $ $ $ $ $ $ o . o $ ",
"$ * o $ o o $ o o . . o * * $ $ o o o o o o o . o o o o . . O 7 8 o o o $ o o o o o $ . $ o $ o $ . . $ < o $ o $ o o o .   . $ ",
"$ * o $ o o o o o     o * * $ $ o $ $ . o o o . o o X $ .   . % = o o $ o o o o $ o o o $ o $ . $ . . o * o o o o o o $ .   o $ ",
"$ * o $ . $ . o o .   o $ * $ o . o o o o o o o o o o o .   . o * o . o o . . o o o o . o . o o $ . . o * o $ . $ . o . .   . o ",
"$ o . .   .     .   . . o o . .   . . . .   .   .           X o $ . . . . . . . . . . . . . . .   .   o $ . o         .     . $ ",
"o o . . .     .       . $ o . . .         .             .   o $ o . . . . . . . .           . . .     o o . .     . .       . $ ",
"* $ $ o $ $ $ $ o o o $ o $ o * * $ $ $ $ * $ $ o * $ $ * * * $ $ o . o * * $ $ * $ * o $ o $ $ $ $ $ o $ * $ $ o . * * $ $ $ $ ",
"< * * * * $ $ $ $ $ $ * $ o o 2 * < * * * * * * * $ * $ $ $ * * $ o o * 2 * * * * * < * * * $ * $ $ * $ * * * $ o o < * * $ * * ",
"o o $ o o o o o o o $ o   . o 2 $ o o $ o $ o o o o $ $ o o $ * o . o * * $ $ o $ $ o $ o $ o o o o o o $ $ o   o o < o o $ o o ",
"o $ o o o o o o o o $ .   . o < o $ o o o . o o $ o o $ . o $ . .   o $ * o $ $ o o o $ $ o . $ o o o . $ o .   . o * o o . $ o ",
"$ o $ o . o o $ o o o .   . o < o $ o $ . o o . o o $ o o o o $ .   . $ * o $ o $ o o o $ o . o o o $ . $ $ o   . o * $ o . o o ",
"o o o . o o o o . o $ .   . $ < $ o o o o o . o . o o . o o o o .   . $ $ o o . o o o o o . o o o o o o o $ .   . o $ . . o . o ",
". .     . . . . . . .     . $ * o . . . o . . . . . . . . . . .     o $ $ . .   . . . .     . . . .   . . .     . o $ . o . o . ",
".     .           .     . o o o . . . . . . . . o       .     .   . o $ o   . . . .   .             .       .   o o $ . . . .   "
};
