/* XPM */
static char *torch10w401743666766[] = {
/* columns rows colors chars-per-pixel */
"64 64 124 2 ",
"   c #1D1D1D",
".  c #242424",
"X  c #282727",
"o  c #292926",
"O  c #2C2C2C",
"+  c #303027",
"@  c #34342B",
"#  c #3D3D2E",
"$  c #343434",
"%  c #383330",
"&  c #3E3E31",
"*  c #3B3B3B",
"=  c #42362D",
"-  c #483E2C",
";  c #403936",
":  c #59422E",
">  c #444435",
",  c #4E4533",
"<  c #4E4D34",
"1  c #44433C",
"2  c #4C4C3C",
"3  c #5C4432",
"4  c #534937",
"5  c #5F4834",
"6  c #534D3C",
"7  c #56553C",
"8  c #61432E",
"9  c #6C442E",
"0  c #77482F",
"q  c #76512A",
"w  c #6C4731",
"e  c #604935",
"r  c #6B4831",
"t  c #774830",
"y  c #7A4C33",
"u  c #744F39",
"i  c #605F38",
"p  c #666325",
"a  c #696628",
"s  c #74712E",
"d  c #666431",
"f  c #626138",
"g  c #696439",
"h  c #6E6C3A",
"j  c #7E7C39",
"k  c #434343",
"l  c #4D4745",
"z  c #4E4E41",
"x  c #4B4B4B",
"c  c #545444",
"v  c #595140",
"b  c #54544A",
"n  c #5B5B4B",
"m  c #525252",
"M  c #5C5C53",
"N  c #5B5B5A",
"B  c #634E44",
"V  c #6D5140",
"C  c #665C4E",
"Z  c #685E4C",
"A  c #64634E",
"S  c #68674E",
"D  c #6E6D4C",
"F  c #747245",
"G  c #73724F",
"H  c #626252",
"J  c #6F6E50",
"K  c #676758",
"L  c #6B6B5B",
"P  c #727152",
"I  c #797855",
"U  c #626262",
"Y  c #737363",
"T  c #875E2D",
"R  c #825035",
"E  c #895438",
"W  c #95672E",
"Q  c #A89614",
"!  c #A09917",
"~  c #AC9A12",
"^  c #B4AC0D",
"/  c #BDB30E",
"(  c #ACA414",
")  c #A9A31F",
"_  c #B2AB16",
"`  c #898527",
"'  c #84812C",
"]  c #8D892E",
"[  c #9E9825",
"{  c #96912B",
"}  c #A39E26",
"|  c #A9A222",
" . c #C3AF0E",
".. c #C2B911",
"X. c #C9BF1B",
"o. c #CEC401",
"O. c #CCC30E",
"+. c #DDD204",
"@. c #D6CD14",
"#. c #DBD21D",
"$. c #E0D506",
"%. c #E6DB02",
"&. c #EDE10A",
"*. c #F3E90E",
"=. c #C8C023",
"-. c #CBC330",
";. c #E9E021",
":. c #FBF22D",
">. c #EEE635",
",. c #F2EA34",
"<. c #FCF233",
"1. c #FDF439",
"2. c #CBC648",
"3. c #E4DF4C",
"4. c #FCF443",
"5. c #E9E350",
"6. c #F6F056",
"7. c #FDF757",
"8. c #FAF775",
"9. c #F7F47B",
"0. c #FEFA79",
"q. c #FDFB8C",
"w. c #FDFB91",
"e. c #FBFEB7",
/* pixels */
"k x x k k k x k k k * $ k x k k k k k k x x x m x b M H H n c c L L K K M b k x k * k k k x x k k k x k x k k k * * k x k k k k ",
"x m m m m x m x m x * * m N x m x x m x m m x M K K K L K n 2 n Y Y Y Y L L M m x m m x x k x k x x x m m x m * $ * U N m m m x ",
"* k * k k * * * * O X $ x m * * * * * * * * b c c n n n z > 2 n L n n c n n z b $ k k * k $ k $ k * * k * k $ o . * N x * k * * ",
"* * * * $ * k $ * . . $ x x k k * * * * * 2 c c c c c c 2 > z n K c c 2 n 2 c n 2 * * $ * $ * $ * $ $ * * $ $   . * N * * * $ k ",
"$ k $ * $ * $ $ * .   $ x x k * $ * * O 1 7 c 2 c c 7 c 2 & < c H c c n c z c 2 n z * $ * * * O * O $ * O * $   . * m k $ * $ * ",
"* $ * * O * O $ O .   $ k k * * O $ $ * c 2 c 2 c 2 c 2 2 > > n H c 2 2 c 2 2 2 z c & o * O $ $ * O $ O O $ .   . $ m * * $ $ * ",
". X O O   .     .   . O * $ O . . o o > > > > > > # > & & & > c n > > 2 < > > 2 > > & . o . . o . .   .     .   . $ k $ O .   . ",
". . . .   . .         O * $ X . . . @ & # > > # # # & > > & 2 n 2 > > 2 > 2 > & & & & $ . . . .     .       . * $ . o . . O O . ",
"k k * * k k k * $ * * k * $ * k x x n c n H n H c n H n n n H b H H H H K H H n 2 2 H H m k k k * k k * $ * * * * $ * k * * * * ",
"N x x x k k k k k k k k * * * U x K L L H L K H L K H n H M A A H H H K H S H c c c Y Y H x x x m m x m k k k k k k k k k * * * ",
"m * * $ $ $ $ * $ * * $   O * N k n c n c n c b c c n c n c c n n c c n c c n & 2 c Y H z k $ * * * * * $ * $ * $ $ * * $   $ * ",
"m * * * O $ $ $ $ $ * O   X $ m 1 n c c c 2 7 2 n 2 c c 2 2 2 c n 2 2 n c c 2 & > z Y c n b $ * $ $ * * $ $ $ $ * $ $ * .   O $ ",
"m $ * $ $ $ O * $ $ $ O   X $ N c n c n 2 c z 2 c 2 n 7 z c c n 2 z 2 n 2 c c # > z L H c c * * $ * $ * $ $ $ $ * $ $ $ O   O $ ",
"m * $ O $ $ $ * O * * O   O * N n 2 c c c 2 2 2 2 2 c 2 2 7 2 c 2 c c 2 c c 2 # # c K c n 2 # * $ $ $ $ . $ $ O * O * * o   $ k ",
"k O     . X X X   . X     $ 1 M z 2 > 2 2 2 2 > 2 > 2 > 2 > > > 2 > 2 > 2 > > # # c H c > > @ O . . . .   . . . O . . .     $ * ",
"O .   . .       . .       O $ b 2 2 > > > > > 2 2 2 2 > > & & # & > > & & > > > < n n 2 > > & .     . .     . .       O $ $ * $ ",
"k x k * k x k k k * * $ * k z M n M b n c n 7 c n K A H A n n n n n n H n n n H n H H n c n H k * $ x x * x k k * * * k k k $ $ ",
"m N x m x x x x x k k x x k x K H S M H S n n b L Y K L K K K K K K K A n H A H H n H H H H H 1 $ N m x x x k x k k k k x x * k ",
"x m * k * * $ $ k * * * k $ k b n b 7 n n z > z L L n H c n z n n c n 2 z c z z n z c n z c z + . m k * * * * * $ * * * * k $ k ",
"k k * * $ $ $ O * $ $ * * O b 2 c c 2 z n > # n L L n n z c c 2 n c n z n z c z c n c c z n < @ . m * * * $ O $ $ * * $ * k $ x ",
"k x * * . $ O $ * $ O k $ O 1 n 2 n 2 b 2 > > n L H n 2 n 2 2 n 2 c z < z c z 2 c c c n z c 2 @ . x k $ * $ $ O $ * $ O * * * x ",
"k k O $ X O $ X * O O * $ O c 2 2 c 2 7 2 z & 2 K L c n 2 n c 2 2 c z 2 2 2 c 2 c < z c n z z # O m * O $ . O * . $ $ O * $ $ * ",
"k k O X X X O . X O o O o o > > > > > 2 > # & 2 H n 2 2 > 2 > 2 > < 2 2 2 > < > z & < & z z < # . x k O O O . . . O O O O O $ * ",
"* * O X X X . X . X . o o . & > 2 2 > & > > > 7 n c 2 > > > > > & & # # > 2 2 > & # > > > > > & . * $ O . . O . . . . . . O $ $ ",
"x x k x k * * * $ $ * m m x L H M n n c n n c n H n n H n M M n z z c n H K H A n n H n n H H H * x x k k * * x k k k x k k x k ",
"k x x k x x x x * $ $ N x x K K K H H H H H M n H A A H n A H n c n Y K K K H K H K H H n H H H k k k * * $ k x k * * k x k x * ",
"* * * * x * k $   O $ N $ $ z n c n 7 n c 2 c 2 n z c c 7 n c > z n Y H 2 c c c < c c 2 c c c c $ $ $ $   $ k x $ $ O * $ $ * $ ",
"$ * * $ * $ * O   X $ m O k z c n c z c c c c 2 c c n 2 c n c > z H Y H c c n c n n n c n z c c $ * $ O   $ k k O O O * $ O * O ",
"k $ * * k $ $ O   $ * N * $ 2 n 2 2 c c z z n 2 n 2 z n 2 n c & 2 H Y c n n c 2 n n z n z n c c $ $ $ .   $ * k $ O $ $ $ O O O ",
"$ $ $ $ * $ * O   $ * m O * > b c z 7 n c c 2 > c z c c c c c > 2 c Y H 2 n c n c c n z n z c c $ * $ $   . * k O $ $ O * $ O $ ",
"  . X . . X .     O * k X $ * z 2 2 2 2 > 2 > > 2 > 2 2 2 2 s ' < c K z < 2 2 c 2 z 2 2 2 2 1 * O $ . .   O k * O . O . O . O   ",
". . . . .   . . . X * * .   o & > 2 2 2 > & & & & > > > > a -.2.d c n 2 > > 2 z c z > & & > 1 O . .       . * *       . . .   . ",
"* k * k k x k * $ * k * * * x K H H H H H H K n H b c n A | ,.3...J H K n H H K L H n n n H K k k * * * x k k * * k * * $ * k k ",
"k k k k k k k x k k k * * * N L K L K L K L K L H n c n I +.4.6.O.G K K H n H n H n H H n H n 1 k k * * x * * x k x k k k k k k ",
"* O * * O * O * * O *   $ * m b n n n n n n n n c 2 2 n P X.8.5.! 2 c > c z 2 c 7 c c 2 b c 2 * $ O   * x * $ * O * * $ * O * $ ",
"* $ . * O * X $ $ $ O   o $ m * n 7 n 2 c n c n > # 7 b D =.8.#.( h < c c 2 n 2 b 2 c 7 n c * $ O $   * k O * O $ O * O * O * $ ",
"* X * $ $ * $ k * O $   . * x * c c c c c c c n > & 6 c G @.9.>.+...) f c z < c 2 b 7 b c c $ * $ $   $ k * * * O * $ * $ $ $ * ",
"$ X O $ $ $ O $ $ $ *   . * x * z 2 c 2 c < 6 2 > & 7 { } +.:.7.1.O.` 7 c 2 2 c 1 7 b 2 b k $ * o O   * k * $ * O $ * O * $ * O ",
". . . X . O . X O . o   O $ * O @ & & & # > & > & & < ] o.%.;.w.9.+.^ f 2 > 2 > > 2 2 > 2 + X O . .   * * O O X O O O O O X O O ",
"    . .         .       $ $ * . X & & > > > > # # & 2 7 _ &.4.e.q./ p & > 2 2 > # > & > +       . . . O * . o . X X X . X O . X ",
"x k k x k k k k k x m x k k * * k x n n n n H H H c H S ( +.1.q.4...j n H H n n H H H n x k x x k k k k k k * k k * k k * k k k ",
"k x x x * k k k x k k k k * * * k N H K K K H K H H H n A _ +.*.+.{ F n n n 2 n K n H b x x x k k k k k * $ $ N x k k k k x k k ",
"* $ * * * O $ O k O O $ O O   $ k x * c n 2 > c c c c 2 c g ~  .~ 7 c 2 z & 7 H K 7 c O * $ $ * $ $ $ *   O * m * * * X * * O $ ",
"* O O * O $ O * $ O * O * X . $ k x $ $ n < 2 b 2 c c c 2 v q W T < 7 2 2 & z n K 2 $ O * O X * $ $ O O   X * m $ $ $ * O $ * O ",
"O $ $ O O * $ $ $ X $ O * .   $ k x O O z 2 2 n 6 c c 2 c 4 9 E y 8 , c 1 & z H K 2 O $ $ * O $ O * $ $   . $ m k $ * O $ O * O ",
"O * $ X * $ $ O $ $ $ $ O O . $ x x $ O * 1 2 2 2 b z 2 c 6 9 R y 5 7 < 6 & > c M O $ O O * O O $ $ O $   . O m O $ $ X * O $ * ",
"X X X .   . . . X . . . o   . $ k * .   O . & > > > > > > > : 0 r , > > > # 2 b * O o o . X . X   . . X     $ x X O X . . X . O ",
". . . . . . . . . . . . . . . $ * * o . . . . @ > > > > > > : 0 r > # > # # @ $ *     . . . . . . . .       $ * X .   . . . .   ",
"k x x k k k x k k k * * k x k k k k k k x x x x x m M M A n 5 0 u A L U N x k x k * * k k x k k k * $ * k x k k k x x k k * * k ",
"k N m x m x m x m x * $ x N m m x m m x m x x m x m x M M b 3 0 u n U m m m m N x m m m x x x x x k * * N m m m x x x m x * $ * ",
"k m k * k * * * * O X $ x m * * * $ * * * * k * * * * k @ O = r V 1 * * * * $ k $ * x $ * $ * $ k $ O * m k * k * * * k $ O $ k ",
"k x * k O k * $ * . . $ x x k k * * * * * $ * O $ * * $ o . $ 3 v * $ $ * $ $ * $ * * $ * $ * $ * X . $ m * * $ * k $ * .   $ * ",
"k x $ * * $ $ $ * .   $ x x * k $ $ * O $ $ * O $ $ O * O   . * l $ * * $ $ $ O * * $ $ * * * O * O . $ x * $ * $ * $ * .   $ * ",
"k k * * O * O $ O .   $ k k * $ O * $ $ $ O $ O $ $ $ O O . . * x $ O $ * O O O $ * $ O * O $ $ $ O   * x * * O * $ O $ .   O * ",
"* $ O O         .     O * $ O . . . . X . . . . .     .     . * * X . X O . . O . . . . X . . O . .   $ * O O         . .   O * ",
"* $ . . . . . .       O k $ X . . .       . .         . . . $ * $ . X o . O . . . .         . .   . . $ $ X X . . .         . * ",
"x * * * k k k * $ * * * * $ * k k k k * * x k k * x * k k x x x * * O $ x x k k x * x * * * * k * * * * * x k * O $ x x k k * k ",
"m x x x k k k k k k k x * * * U m m x m x x x x x k k x k k x x k * $ x N m x x m x N x x x k x k k x * x x x * $ $ N x x k x k ",
"* * * $ $ $ * $ $ * * $   O * N * * * * $ * * * * $ * * $ * * k O X $ x m * * $ * * * * * * $ * $ * $ $ k k $   O * m * $ $ * $ ",
"$ k * * O $ $ $ $ $ * O   . $ N $ * * * $ O $ O * $ $ * O $ * $ .   $ k x * k * * $ $ * * $ O * $ $ * O k $ O   O $ x O $ $ * $ ",
"* $ * $ $ $ O * $ $ $ O   . $ N O k $ * O * $ O * $ * $ $ $ * * .   O k x $ * $ * $ * * * $ $ $ $ * * O * k O   . $ x * $ O * $ ",
"O * $ O $ $ $ * O * * O   O * m k O $ * $ O O O O $ $ X $ $ O * .   O k * * * X $ $ $ * O $ O O $ $ O $ * * O   . $ k O O O O $ ",
"  O .   . . . X . . .     O k x $ O X X O O O X O X X X . X . X     $ * * X X   . O . O .   . . O . . . O X     . $ k X O X O . ",
". .   . .       .       . O $ * O X X . . . X X O       . .   .   . $ k $ . . .   . . .     .         .     . . $ * k . . O O   "
};
