/* XPM */
static char * west1_xpm[] = {
"64 64 252 2",
"  	c #383838",
". 	c #3C3C3C",
"+ 	c #3A3A3A",
"@ 	c #363636",
"# 	c #2F2F2F",
"$ 	c #2D2D2D",
"% 	c #3B3B3B",
"& 	c #393939",
"* 	c #3E3E3E",
"= 	c #3D3D3D",
"- 	c #313131",
"; 	c #2C2C2C",
"> 	c #404040",
", 	c #414141",
"' 	c #333333",
") 	c #343434",
"! 	c #303030",
"~ 	c #434343",
"{ 	c #444444",
"] 	c #4B4B4B",
"^ 	c #3F3F3F",
"/ 	c #252525",
"( 	c #494949",
"_ 	c #474747",
": 	c #464646",
"< 	c #454545",
"[ 	c #292929",
"} 	c #2E2E2E",
"| 	c #515151",
"1 	c #323232",
"2 	c #353535",
"3 	c #1E1E1E",
"4 	c #2B2B2B",
"5 	c #282828",
"6 	c #1F1F1F",
"7 	c #272727",
"8 	c #2A2A2A",
"9 	c #202020",
"0 	c #4D4D4D",
"a 	c #181818",
"b 	c #1A1A1A",
"c 	c #212121",
"d 	c #1C1C1C",
"e 	c #161616",
"f 	c #262626",
"g 	c #242424",
"h 	c #222222",
"i 	c #151515",
"j 	c #907F37",
"k 	c #232323",
"l 	c #1B1B1B",
"m 	c #907F36",
"n 	c #1D1D1D",
"o 	c #424242",
"p 	c #191919",
"q 	c #171717",
"r 	c #907E35",
"s 	c #8F7B0E",
"t 	c #907C16",
"u 	c #8F7B12",
"v 	c #8F7B0F",
"w 	c #7F3333",
"x 	c #8E7B09",
"y 	c #8E7A08",
"z 	c #8E7B0A",
"A 	c #8F7B0A",
"B 	c #907F35",
"C 	c #131313",
"D 	c #88760E",
"E 	c #141414",
"F 	c #660000",
"G 	c #070707",
"H 	c #0A0A0A",
"I 	c #887509",
"J 	c #0E0E0E",
"K 	c #640000",
"L 	c #6B0000",
"M 	c #6E0000",
"N 	c #6F0000",
"O 	c #6A0000",
"P 	c #650000",
"Q 	c #630000",
"R 	c #670000",
"S 	c #690000",
"T 	c #6C0000",
"U 	c #373737",
"V 	c #6D0000",
"W 	c #710000",
"X 	c #750000",
"Y 	c #790000",
"Z 	c #770000",
"` 	c #730000",
" .	c #700000",
"..	c #780000",
"+.	c #7A0000",
"@.	c #760000",
"#.	c #740000",
"$.	c #720000",
"%.	c #5A0000",
"&.	c #480000",
"*.	c #360000",
"=.	c #570000",
"-.	c #5D0000",
";.	c #3B0000",
">.	c #450000",
",.	c #4A0000",
"'.	c #210000",
").	c #000000",
"!.	c #4D0000",
"~.	c #530000",
"{.	c #010000",
"].	c #170000",
"^.	c #460000",
"/.	c #5F0000",
"(.	c #3C0000",
"_.	c #4B0000",
":.	c #500000",
"<.	c #1C0000",
"[.	c #440000",
"}.	c #070000",
"|.	c #060000",
"1.	c #1B0000",
"2.	c #280000",
"3.	c #520000",
"4.	c #550000",
"5.	c #290000",
"6.	c #080000",
"7.	c #2F0000",
"8.	c #111111",
"9.	c #420000",
"0.	c #020000",
"a.	c #100000",
"b.	c #680000",
"c.	c #560000",
"d.	c #5E0000",
"e.	c #600000",
"f.	c #620000",
"g.	c #350000",
"h.	c #150000",
"i.	c #121212",
"j.	c #030000",
"k.	c #180000",
"l.	c #5B0000",
"m.	c #190000",
"n.	c #1A0000",
"o.	c #200000",
"p.	c #330000",
"q.	c #540000",
"r.	c #1E0000",
"s.	c #390000",
"t.	c #270000",
"u.	c #410000",
"v.	c #4E0000",
"w.	c #4F0000",
"x.	c #2C0000",
"y.	c #7B0000",
"z.	c #4C0000",
"A.	c #250000",
"B.	c #160000",
"C.	c #610000",
"D.	c #3F0000",
"E.	c #040000",
"F.	c #3E0000",
"G.	c #2B0000",
"H.	c #380000",
"I.	c #130000",
"J.	c #220000",
"K.	c #0F0000",
"L.	c #0E0000",
"M.	c #3D0000",
"N.	c #510000",
"O.	c #484848",
"P.	c #2D0000",
"Q.	c #5C0000",
"R.	c #1F0000",
"S.	c #0C0000",
"T.	c #050000",
"U.	c #300000",
"V.	c #4A4A4A",
"W.	c #3A0000",
"X.	c #320000",
"Y.	c #101010",
"Z.	c #0F0F0F",
"`.	c #421B1B",
" +	c #621212",
".+	c #6C1313",
"++	c #491F1F",
"@+	c #232222",
"#+	c #382626",
"$+	c #5C2424",
"%+	c #5C1C1C",
"&+	c #362323",
"*+	c #4F4F4F",
"=+	c #2E2929",
"-+	c #471C1C",
";+	c #711212",
">+	c #721111",
",+	c #4A1A1A",
"'+	c #231B1B",
")+	c #1B1A1A",
"!+	c #341616",
"~+	c #5B1818",
"{+	c #5D1414",
"]+	c #3A1F1F",
"^+	c #222020",
"/+	c #292020",
"(+	c #481616",
"_+	c #771010",
":+	c #7B1010",
"<+	c #4E1212",
"[+	c #2A1F1F",
"}+	c #361717",
"|+	c #5F1414",
"1+	c #7B0303",
"2+	c #671D1D",
"3+	c #3C1717",
"4+	c #191717",
"5+	c #241313",
"6+	c #491111",
"7+	c #7B0404",
"8+	c #551D1D",
"9+	c #322525",
"0+	c #0E0D0D",
"a+	c #141212",
"b+	c #351111",
"c+	c #631010",
"d+	c #6A0F0F",
"e+	c #3E1414",
"f+	c #211F1F",
"g+	c #332525",
"h+	c #4F1E1E",
"i+	c #7C0A0A",
"j+	c #5A2424",
"k+	c #3B2B2B",
"l+	c #4C4C4C",
"m+	c #312F2F",
"n+	c #412626",
"o+	c #6B1515",
"p+	c #721919",
"q+	c #4E2D2D",
"r+	c #353030",
"s+	c #1B1C1C",
"t+	c #291414",
"u+	c #511515",
"v+	c #7C0F0F",
"w+	c #5E1A1A",
"x+	c #3A2121",
"y+	c #1F1A1A",
"z+	c #3D1E1E",
"A+	c #4F2424",
"B+	c #271D1D",
"C+	c #505050",
"  . .       . +   @ # $ @ % &           * * * * =         - ; # > , , > > * + +   ' '     = & @ @ & %   =     ) $ !   >         ",
"= ~ { > ~ = ~ * ~ + # ; , ] > > * > > . , ^ ^ , . > ^ ~ = ' / - ( _ _ : ~ < , < = ~ ~ * = % * + = * > ~ { ^ , - [ } | ( > ~ > * ",
"! ) 1 ) 2 ! - - 1 / 3 4 ^ { - ! ! $ - ! $ 1 ) } } ! ! @ 5 6 7 - ~ 2 1 } ) # 8 @ [ )   $ ) [ ) [ @ $ - ' - - $ 9 3 # 0 % # @ 1 - ",
"- # } ' 7 - 1 5 # a b 4 * = 2 ) $ $ } $ # 4 ; 5 8 $ 4 [ c d 7 - , 4 [ 5 - 7 [ - [ ! - / 1 4 # 5 - [ 4 ! # 4 7 e 3 # ] # - } 4 ' ",
"4 ' $ ; $ $ 8 8 # d a 4 + = 1 1 8 $ - f 4 [ } g $ [ 7 # c a 6 $ + 4 4 ! 4 5 [ / - } } 4 ' $ # h - f 5 ! / } 5 i 3 # : ) 8 $ 4 - ",
"} ; $ ! h } / [ / b a j @ + # $ h ; 8 7 ; k 4 g [ [ [ f c l 6 $ % ; g f ; / k f / $ 4 9 } k 4 [ $ k 7 f m [ 9 i n 4 o # # 4 [ $ ",
"p c k h e b a a n q r s t u v w w w w w w w w w w w w w w w w w w w w w w w w w w w w w w w w w w x y z A B e C l 7   [ 9 3 q l ",
"b d n n b b b b C C a D h n E F F F F F F F F F F F F F F F F F F F F F F F F F F F F F F F F F F G H G I J E # 5 d 6 3 3 g h b ",
"+ @ ! } 2 2 2 # $ $ $ ; k $ $ K K F L M N M O P Q Q K P R S O S F Q Q Q F T M N N N N N M T L S S / g h $ l ' # } $ $ ) ) - $ $ ",
"] . ^ + @ & U U + @   - ! $ # V T M W X Y Y Z `  .M T T V N  .N V T T M ` ..+.+.+.+.Y @.#.$. .N  .# 4 }               U   - # - ",
"{ $ - 4 8 4 ; 4 [ ; 1 8 e g $  .M T V W @.Y Y Z #.W V T T T V V V M N ` Z Y +...Z @.#.W M M V  .` c 3 g 8 4 7 # 8 5 ! - 7 q 5 # ",
"o ' } $ / $ [ 4 4 [ # k e 3 5 #.N T T M ` ..+.+.Y X W M M T S %.&.*.=.-.;.>.-.N W  .N V T T M $.@.n k 9 ; 5 4 4 4 [ $ $ 9 q 9 4 ",
", 8 ! 4 7 [ 7 - 4 [ 4 h e 3 [ Z ` M T V  .X Y +.+.Y Z #.W ,.'.).).).!.~.{.).).].^./.L T T M W @.Y c n k [ 7 [ 7 1 [ $ 7 9 q 9 $ ",
", } [ h 5 [ 7 # c 4 ! g e h - ..@.$.M T M W @.Y +.+.Z %.L (.).).).)._.:.{.).).).).<./.M N $.@.Y +.n d 3 9 7 ; g # c } # 9 e 7 ) ",
"@ h b q d 3 3 c l d n p q / 1 X Z @.$.M T M W X Y #.[.}._.V '.|.1.2.3.4.5.<.6.).).7.M ` X Z Y Y Y E E 8.q d 9 n c b 3 b a b 5 ) ",
"/ d q b d b i i l l e C l 7 [ W @...@.W V T V $.$.9.0.).a.b.P c.d.d.e.Q F f.4.g.h.P Z ..Y +.Y Z X J 8.i.i i p l b i p 9 [ / ; $ ",
"U * ) - & & & ' 2 1 $ $ # @ & N ` Z ..#.N T T M >.j.).).k.F #.l.7.m.].n.o.p.q.M T ..+.+.+.Y Z ` N 3 5 4 ) + 2   ! $ $ ) @ @ 4 4 ",
", ( , , . > > . +     + =     V  .X ..Z ` N V F g.).).r./.S s.).t.u.v.w.>.x.).g.@.y.y.+.Y Z ` N M @ ' } > * * > . & &   . > $ 2 ",
"+ < ! @ } - 8 [ ) ! } # @ [ } T M $.Z Y Z #.V q.K z.A././.A.B.c. .L f.f.L W e.C.+.y.y.+...` M T V - $ c 2 - $ ; 4 ) ! } - & 4 ) ",
"@ U $ ' 7 7 4 / - 4 } } - k ! M T N #...Y ..e.).7.l.b.K 5.r.C.S D.6.).).E.(.S +.y.y.+.Y X N T T M ; h c - 7 k $ / # $ ; # ) } = ",
"@ + $ - 3 4 h [ - 7 / - 5 / f  .T V W @.Y +.F.).).G.P [.).%.f.'.).).).).).).r.e.y.+.Y X W V T T  .4 7 3 ! g 7 / 8 ! 7 f - 4 $ . ",
"+   h 4 3 / 4 9 4 f f } 7 g $ ` M T M $.@.#.1.).).H.Q I.(.L G.).).).).).).).).J.T Y X W V T V N #.} k i 4 9 g ; 9 [ 4 h # 8 7 ) ",
") U 7 6 9 3 3 d 6 c 9 h 9 9 d @.$.M T M $.Q K.).E.v.%.L.l.=.).).).).).).).).).0.w.X W V T T N ` ..[ / e 6 9 3 3 d 9 h 6 h c 7 # ",
"# ! h 3 3 3 3 3 n 3 3 3 6 n d Y @.$.M V N q.m.].<.d.:.k.R F.).).).).).).).).{.).M.N M T T M $.Z +.c 6 i 3 3 3 3 n n 3 3 6 9 [ $ ",
". % % % @ 1 1 # 8 7 - { < * * +.Y X W M T b.Q K b.` z.r.O *.).).).).).).).h.>.,.N.T V T M W @.Y +.8 8 8 + 2 ! ) $ $ 1   . U 2 = ",
"+ + + & = % = + - 5 8 O.* . . y.+.Y X W V %.P.5.G.Q.:.1.S *.).).).).).).).R.%.e.e.L T M $.@.Y +.y.7 7 [ % + & = % . . $ [ 7 O.> ",
"' $ ' - U - ) 4 e g $ O.[ ; 5 y.y.+.Y X  .-.S.).T.3.=.].R *.).).).).).).).).j.j.7.b.V $.@.Y +.y.y.9 l k } - - U # 2 } a 9 ; O.$ ",
"4 4 - 8 - 8 - / e h 7 : / ' 4 y.y.y.+.Y #.P a.).0.N.S C.#.*.).).).).).).).).).).7.O W @.Y +.y.y.y.6 d n [ - 4 - [ - [ i 3 [ < 5 ",
"1 [ # # ' 4 4 k a 7 # ( $ [ 8 y.y.y.y.+...#.(.z./.O ` ..y.*.).0.).).).).).).).).U.N @.Y +.y.y.y.y.l l h 8 ; ! ' $ 8 7 e g } V.- ",
"$ 7 # 7 $ 4 $ g a 7 ; , g 1 c y.y.y.y.y.+.Y ..X ` $.@.Y y.W.).X.>.5.).).).).).).p.` +.+.y.y.y.y.y.k n 3 5 $ 4 $ 4 $ 7 e g 4 o / ",
"p d c d d 9 b p e g $ U 9 [ c y.y.y.y.y.y.+.+.Y ....Y +.y.F.].K ` T K u.).).).).g.X y.y.y.y.y.y.y.d E Y.b 9 3 l c b b C 9 ;   h ",
"l l l l l l d b b h - 1 n q a y.y.y.y.y.y.y.y.+.+.+.+.+.y.q.f.#.W M T 3.}.).).).g.@.y.y.y.y.y.y.y.E 8.8.b l l l l d b b 3 # ) h ",
") . @ U - )   # $ $ ' @ $ $ 1 y.y.y.y.y.y.y.y.y.y.y.y.y.+.@.#. .M T T P t.).).).*.@.y.y.y.y.y.y.y.7 6 c . & @ - 1   - $ $ -   ) ",
"  _ = . * . ^ U       @ U   U +.y.y.y.y.y.y.y.y.y.y.y.+.Y X  .V T M  .` O u.U.7.>.@.y.y.y.y.y.y.y.8 9 6 O.* . * % ^ &   & U - $ ",
"% ^ [ } 4 7 ! ; 4 $ [ 9 ! 4 $ Y +.y.y.y.y.y.y.y.y.y.y.+.Y #.M V M $.X ..Y Y @.X @.+.y.y.y.y.y.y.y.d J c ~ $ 4 $ h - $ 4 - f 9 6 ",
"  = k - h 7 h ! / ! 7 5 - 7 $ Z Y +.y.y.y.y.y.y.y.y.y.+.Y @.$.W ` @.Y +.+.y.y.y.y.y.y.y.y.y.y.y.y.3 Z.6 ~ 7 $ / 5 g $ / - 5 d b ",
") ^ ; - 8 5 $ [ } # # h $ 4 $ ` Z Y +.y.y.y.y.y.y.y.y.y.+.Y Z Z ..Y +.y.y.y.y.y.y.y.y.y.y.y.y.y.y.d Z.d ~ # # $ k # [ $ - 4 k b ",
"+ * 7 ; ; 5 7 ! f # ; 5 - h 4 N ` @.Y +.+.y.y.y.y.y.y.y.y.+.+.+.+.+.y.y.y.y.y.y.y.y.y.y.y.y.y.y.y.a Z.9 o $ [ $ f 8 $ / - [ h b ",
"@ ) h 7 6 h h / h h 6 9 g 6 n V N $.X ..Y +.y.y.y.y.y.y.y.y.y.y.y.y.y.y.y.y.y.y.y.y.y.y.y.y.y.y.y.E Z.9 U g / 9 h c / h g 6 a i ",
"[ ; n 3 3 3 3 3 n 3 k h b i i M V M  .` Z Y +.+.y.y.y.y.y.y.y.y.y.y.y.y.y.y.y.y.y.y.y.y.y.y.y.y.y.8.8.p # n 3 3 3 3 3 3 n h b C ",
". @ @ . @ & 2 2 @ * { . @ 2 ! `. +V V N $.X ..Y +.y.y.y.y.y.y.y.y.y.y.y.y.y.y.y.y.y.y.y.y.y.y..+++7 7 4 ) + + U + 2 @   ) -     ",
". = = ^ ) @   @ . U @   @ 2 } @+#+$+y.y.y.y.y.y.y.y.y.y.y.y.y.y.y.y.y.y.y.y.y.y.y.y.y.y.y.+.%+&+7 / f 8 * % ^ @   @ @ ; [ 8 *+, ",
"} 7 $ $ 4 7 4 k 2 g k 4 k f e 3 5 =+-+;+y.y.y.y.y.y.y.y.y.y.y.y.y.y.y.y.y.y.y.y.y.y.y.y.>+,+'+6 d 6 q 9 8 [ # ; f 4 $ p h # ] $ ",
"- h / # / [ / # 7 / $ h ; 9 a 9 f 8 )+!+~+y.y.y.y.y.y.y.y.y.y.y.y.y.y.y.y.y.y.y.y.y.y.{+]+^+p d q q d [ / c # f 4 k f q 3 # ] 5 ",
"7 8 5 h / ; ; [ } 9 / k } d a k 5 ; p e /+(+_+y.y.y.y.y.y.y.y.y.y.y.y.y.y.y.y.y.y.:+<+[+l a 6 p 6 q / / $ g f h # 7 [ i n $ V.) ",
"/ $ [ c 4 [ 7 g [ 7 5 ; / / a 7 ! ; d a c a }+|+1+y.y.y.y.y.y.y.y.y.y.y.y.y.y.y.2+3+4+b i 9 6 b b c g c ! f g [ 4 g ; a l g : 7 ",
"3 3 9 d b n d 3 h n 3 b 3 a a 8 1 8 i.Y.e C i.5+6+7+y.y.y.y.y.y.y.y.y.y.y.y.y.8+9+0+J q 8.e e E d l 3 n 9 n 3 p 3 b 3 E b ; > 9 ",
"d l d l d l d l l l l d d b b 8 1 8 b q i.8.i.i.a+b+c+1+y.y.y.y.y.y.y.y.y.d+e+f+c Y.8.8.i.Y.J Y.i.q l d l d l d l d a E e [ - 9 ",
") . .       . &   @ # $ @ +       U 2 1 1 $ ; 4 8 7 g+h+i+y.y.y.y.y.y.y.j+k+[ 5 7 k k f 5 } } ! ' ) 8 - + *       + +   U - $ ' ",
"+ l+{ > ~ = ~ * ~ + # ; , ] > > = ^ ^ % % ' } } 8 $ ; m+n+o+1+y.y.y.p+q+r+- } ! 4 # # $ ! 1 &   . @ - # l+: > { = o > o = - 8 ) ",
"+ ~ - ) 2 ! - - 1 / 3 4 ^ { - ! ! ; ! ! ; $ 8 h 9 c c f s+t+u+v+y.w+x+9 g 9 d / l / [ g $ 7 ' 5 @ 7 9 $ _ ) 1 @ ! - - ' 5 9 7 ) ",
"  . } ' 7 - 1 5 # a b 4 * = 2 ' $ ; } $ } 8 5 c 9 9 3 d e i.y+z+A+B+l l c b d h n g 5 c - 4 # 5 ! 3 l $ o ; ' 7 ! 1 8 ! d p 7 ) ",
"U % ; ; $ $ 8 8 # d a 4 + = 1 1 8 $ - f 4 [ } h 5 h n h e Z.E 6 [ n 3 c n l d b 5 5 4 8 ' $ # h - h b $ ^ } 4 $ 4 } 5 ! 6 q 7 ' ",
"@ U $ ! h } / [ / b a 7 @ + # $ h ; 8 7 ; k 4 g 5 f g 3 a i.E 6 8 3 a b 3 p p 3 c 4 8 9 } k 4 [ $ 9 a $ . $ ! k $ 5 7 f d q g # ",
"- $ h h e b a a n q p c 1 [ h n b 9 n 9 d b 3 b n e b q E 8.i 3 h E C i i e a l d 3 l b 9 b l 9 b b a 4 # / h a p p q n a a 6 } ",
"$ [ n n b b b b C C a h 1 [ 3 d d b e e e b d i C C a b b b f 1 7 3 3 3 3 3 3 n 3 b q q e b d n b b b 4 ; n 3 b b b l i E e 6 - ",
"* - - } 2 2 2 # $ $ $ ) ; $ $ & +   ) ! ' % @ @ # - @ 2 2 2 & - @ % % % + ) $ g # . + &   + @ * - - } ) @ 2 - $ $ ' % @ - f 7 * ",
"< . ^ + @ & U U + @   & ! $ # C+, o * > + * . + > . + @ U     U & &   . = 2 # 8 . l+> ^ = ^ * < . * . @ + @ U + 2 . * + ! [ 4 C+",
"# $ - 4 8 4 ; 4 [ ; 1 8 e g $ ] - - $ ) ; # 4 } } [ # 5 # $ 4 # 1 4 $ ' U h n 4 + o } 1 4 } - ! # } # [ $ 5 $ [ [ 2 U ; a 7 $ ( ",
"7 ) } $ / $ [ 4 4 [ # k e 3 5 _ 8 # $ $ 8 / 8 7 # / $ 4 7 k [ ; ! h [ - f n b 7   & } ) ! ; $ / ' ! $ g # 7 4 $ / ) 4 h e 9 4 < ",
"! 4 ! 4 7 [ 7 - 4 [ 4 h e 3 [ O.[ 1 ; - h $ 7 k # k ! [ 7 ; 5 # 7 7 5 # - d a c @ . $ - 5 1 [ # ; $ $ 7 7 [ # } / ) ' / i d 5 ~ ",
"f # [ h 5 [ 7 # c 4 ! g e h - : ) / [ ; 4 g h f g g $ f g [ 7 [ h 4 5 7 } n C h @ ) } } 6 $ [ g 1 / / 7 7 4 $ k 7 # $ / C b 4 * ",
"d h b q d 3 3 c l d n p q / 1 . 7 c 6 6 / c 9 6 h n h 3 k 3 6 9 9 3 9 n 9 q C 5 - - 9 3 e 3 6 b / b a d d 9 9 d b 9 9 b C 3 8 + ",
"b b e b b a E E b l i C l 7 [ ! g 9 n n n n 9 h k k 3 d b i i i e d d q l b 3 4 ' 4 b d b l l b b a a b b E E b l a b b l / - ' "};
