/* XPM */
static char *_9494a8d95e14c68876e8812aa21ebbciZhnahohnomrDgMn[] = {
/* columns rows colors chars-per-pixel */
"64 64 41 1 ",
"  c #131313",
". c gray9",
"X c #181818",
"o c gray11",
"O c #222222",
"+ c #252525",
"@ c #2A2A2A",
"# c #2C2C2C",
"$ c #313131",
"% c gray21",
"& c #393939",
"* c #3C3C3C",
"= c gray25",
"- c #464646",
"; c #484848",
": c #4C4C4C",
"> c #505050",
", c gray34",
"< c #585858",
"1 c #5D5D5D",
"2 c gray39",
"3 c #656565",
"4 c #686868",
"5 c #6C6C6C",
"6 c #727272",
"7 c #747474",
"8 c gray48",
"9 c #7C7C7C",
"0 c #53FF00",
"q c #F500FF",
"w c gray51",
"e c gray52",
"r c #888888",
"t c #8E8E8E",
"y c #939393",
"u c #959595",
"i c #9B9B9B",
"p c #9D9D9D",
"a c gray63",
"s c gray65",
"d c #AAAAAA",
/* pixels */
"00000000000000000000000000000000qqqqqqqqqqqqqqqqqqqqqqqqqqqqqqqq",
"00000000000000000000000000000000qqqqqqqqqqqqqqqqqqqqqqqqqqqqqqqq",
"00000000000000000000000000000000qqqqqqqqqqqqqqqqqqqqqqqqqqqqqqqq",
"00000000000000000000000000000000qqqqqqqqqqqqqqqqqqqqqqqqqqqqqqqq",
"0000##@@#XX@&*$$@#$+@@#+#@+$OXo#&##$@@@+$##@$##O$+@$+#@.o#-%qqqq",
"0000O#+@+XX+%&##O#@+#O@O@@@+OXo#&#++#+O++#@o#O@@#O++O@O.o@=#qqqq",
"0000.X.Xo.XO$@OoXooOoXoXo.XXX.o#$ooOooooooXXOXoOXX.o.XX X+&@qqqq",
"0000XXXX  XO$@oooX...XX.  XXXX+$+ooooooX...XooooX.X. .o#@oooqqqq",
"0000%%%####%###&&&$$$&%%#$%%%%&$%&&&*&%$++&%*&&&$%%$##$####%qqqq",
"0000%&%%&%&&$##>==*=&**&*&&%%&&%&&&*%&&#@@:;*==*==**&&&%%&&%qqqq",
"0000@@#@@#$@.O#;$$#%##@##@#@##@#$@#$##$XO#;*@$#$$##$@@+#@@$$qqqq",
"0000+#@@@@#O.o@-@###@+@+#+#@+O@#$O@$@#O.o@-#$$@$+@$##@@@@@##qqqq",
"0000+@+$@@@O.o@;@$#$O#+O#O$@+#@#++@#+@@.X+=%@###@#@$@+@+$@#+qqqq",
"0000@@+#O@$+.O$-%+@#@+O+++#+O@+@O@@+#@@..@*##++@+@@#O+#O#O##qqqq",
"0000oooOXooXX+$*+Ooo+OOoOoOoOooOOoOoOoo .@&@oo.+XoOX.oOoOXoXqqqq",
"0000XX..XX. X+@$+OooooOO+OooX....ooX.oXXO#$OXoXoX.oo..XXX.XOqqqq",
"0000&&&$%$###%&%%%#$##@#$*%&%$$$%%%&$%%&%%%$#%&&##&*$&%&$##%qqqq",
"0000****&&&8ddds&*%&*$#$=;*=*pdddd5%%&%%&%&&%%%9ddds=**=&&&%qqqq",
"0000#$@@%$#>dddd1#+$$@X@=-$&*ddddde+@#@+$@#$+#+ydddy%$##@%$#qqqq",
"0000++@+$@##addd9#O@#OX$-=$$4dddddi@$+#+@$@#@#+sddd8$+O#+###qqqq",
"0000o@O@$++$tdddy$O#OoX$=*#@edddddd&@#@O@@#$+#<dddd,$O++@$++qqqq",
"0000o+@O@++#7ddds$+@+@.+*=#$iddpddd3+O@o$O+@$@8dddsO#O+#o@@Oqqqq",
"0000OooooOOO:dddd,oOX.XO&%O&ddd8addeOooo+XOX++ydddyOoOooooOoqqqq",
"0000oooooooooaddd8oXXXX@##o3ddd<tddioOOo..Xoo+sddd8Oooooooooqqqq",
"0000%$$#@+$--ydddu$####$&%%edds&7ddd;*&&%$%%%1dddd<&&%$%##$&qqqq",
"0000*&*&$@@;*8ddds*&&%&%&%%iddu#,ddd5***&**%&9ddds&&&&&*&*&#qqqq",
"0000%$%@.O#;@>dddd<$#+@+$@*ddd9X+sdde###O##@#ydddy@$#$$%#%#.qqqq",
"0000$@$+.O+-+$addd8$#@@O@#4ddd1o+yddi###$#$@$sddd7@@@$@$@$@.qqqq",
"0000$@@OX+#;#@tdddy#@+#O#+edds%X+9ddd=#+$#@$<dddd>@$@#$$#@+.qqqq",
"0000#@#+X+#=O$6ddds%@#+o@@iddu@XO<ddd4@$@#$@8ddds$@#@#@#@#+.qqqq",
"0000oOXX.+#%O@;dddd<oOoo+%ddd9X o$sdde+@+++Oydddt+oXXOoXOXX qqqq",
"0000XXXXXO$$o.Xaddd8o...X2ddd1XXO#uddiO+#Ooosddd7oXXXXXXXXXXqqqq",
"0000$%&###$%##$tdddu%$##&eddd*%$&&wddd-*=&%1dddd<$#$&&%$$&$#qqqq",
"0000***%&&&%%%%7ddds&&%%%iddi=&*&*3ddd5$&%&9ddda%%##;***&=&&qqqq",
"0000@+$#@#@O$@#;dddd<$#+*ddde#+@O+$sdde@+@@ydddt++.$=#@#O$#@qqqq",
"0000O+O$+$+@$+#@addd8@@@3ddd4#@O@#Ouddi+#+#sddd7O@.#=+#+@O#+qqqq",
"0000@@#@###O#@#Otdddy$$+wddd:#@#O@@9ddd*O#,dddd>@@.@=###O#@#qqqq",
"0000#@+$+##@$O@O6ddds#@+iddi=@O#O+@2ddd4O@8ddda#O+X$=#@#+@#+qqqq",
"0000oOO+OOoo+ooo-dddd,O$ddde%OOOO+o$dddwoOydddtOXoX#%++oOO+Oqqqq",
"0000ooooooOOX...oaddd8o2ddd3#oooooXXiddi.osddd6XXXo+#oooooooqqqq",
"0000%&%%%*-*%%$#%tdddu&eddd-$&%%%%%%wddd-<dddd:#%%%*%&&%&%%&qqqq",
"0000%%%%*%%&%%#$&8ddds*iddi%&&%&%%%%3ddd68ddda&%&%%&*&*%%%%#qqqq",
"0000@+#O%O+@O+.@&,dddd1dddeO##+#O+#O&dddrydddt@#@#O#@@##+@#Xqqqq",
"0000+@+#++#O#OX@%&addduddd4$+##++O@OOiddpsddd7+@OO+$+O#+@O+.qqqq",
"0000+##@#O+O#oX@%*tddddddd*O@O#+#+O@owddddddd:#+#O#@#++O#+@.qqqq",
"0000@@+O@+@#++X@&&6ddddddi@O#+@#O@@O+3dddddda##++@+O$++@@+#Xqqqq",
"0000XoXoOooXoXX@%$-ddddddeOoXOXOXooXo%ddddddtOOoOoooOooXoXo.qqqq",
"0000XXooooXXXXX@$#oaddddd3XXXXX....X. pddddd6X...XXoooXXXo..qqqq",
"0000&&&&&%##%&&&&&&tddddd;&&%$@#===***rddddd,*&%%%@$&*&&&&&&qqqq",
"0000=*=*=&##=:==*==*=**=***=*$+$;---=-=-*==**&*&*%$#:-=-*=*=qqqq",
"0000%$$$$+o@*-$$$#$$#$%##$$%@o+$=%$#%#@%@%&#$@$@%+O#-%$%$$$$qqqq",
"0000+$$@#XX@**%$#####@#@@#@@Oo+$=@@@$+@$@$$+$@#@$oX#=#$+$$@$qqqq",
"0000##@@#XX@&*$$@#$+@@#+#@+#OXo#&##$@@@+$##@$##O$OX#*#@#@#@$qqqq",
"0000O#+@+XX+%&##O#@+#O@O@@@+OXo#*#++#+O++#@o#O@@#oX#&#$O#@++qqqq",
"0000.X.Xo.XO$@OoXooOoXoXo.XXX.o#$OooooooooXXOXXOXXX@#+OXXX.oqqqq",
"0000XXXX  XO$@oooX...XX...XXXX+$+ooooooooX...XooXXX@#ooXXXX.qqqq",
"0000%%%####%###&&&$$$&%%#$%%%%&$%&&&&%#+#*&&&&%*$$#%%%$##$&%qqqq",
"0000%&%%&%&&$##>==*=&**&*&&%%&&%&&&**%#@*:=****-**&%&%%&%**&qqqq",
"0000@@#@@#$@.O#;$$#%##@##@#@##@#$@#$%Oo@&=#$@#$$###@#@#@@%%#qqqq",
"0000+#@@@@#O.o@-@$##@+@+#+#@+O@#$O@$+oX+&&#$$##+$$#+#+@#+%@Oqqqq",
"00000000000000000000000000000000qqqqqqqqqqqqqqqqqqqqqqqqqqqqqqqq",
"00000000000000000000000000000000qqqqqqqqqqqqqqqqqqqqqqqqqqqqqqqq",
"00000000000000000000000000000000qqqqqqqqqqqqqqqqqqqqqqqqqqqqqqqq",
"00000000000000000000000000000000qqqqqqqqqqqqqqqqqqqqqqqqqqqqqqqq"
};
