/* XPM */
static char * west2_xpm[] = {
"64 64 256 2",
"  	c #383838",
". 	c #3C3C3C",
"+ 	c #3A3A3A",
"@ 	c #363636",
"# 	c #2F2F2F",
"$ 	c #2D2D2D",
"% 	c #3B3B3B",
"& 	c #393939",
"* 	c #BA0000",
"= 	c #3D3D3D",
"- 	c #343434",
"; 	c #303030",
"> 	c #404040",
", 	c #434343",
"' 	c #444444",
") 	c #3E3E3E",
"! 	c #2C2C2C",
"~ 	c #414141",
"{ 	c #4B4B4B",
"] 	c #3F3F3F",
"^ 	c #313131",
"/ 	c #292929",
"( 	c #2E2E2E",
"_ 	c #515151",
": 	c #494949",
"< 	c #323232",
"[ 	c #353535",
"} 	c #252525",
"| 	c #1E1E1E",
"1 	c #2B2B2B",
"2 	c #333333",
"3 	c #202020",
"4 	c #4D4D4D",
"5 	c #272727",
"6 	c #282828",
"7 	c #181818",
"8 	c #1A1A1A",
"9 	c #161616",
"0 	c #2A2A2A",
"a 	c #1C1C1C",
"b 	c #262626",
"c 	c #151515",
"d 	c #464646",
"e 	c #222222",
"f 	c #232323",
"g 	c #1D1D1D",
"h 	c #424242",
"i 	c #191919",
"j 	c #212121",
"k 	c #171717",
"l 	c #1B1B1B",
"m 	c #131313",
"n 	c #1F1F1F",
"o 	c #242424",
"p 	c #373737",
"q 	c #BB0000",
"r 	c #BC0000",
"s 	c #B90000",
"t 	c #B40000",
"u 	c #9C0000",
"v 	c #7D0000",
"w 	c #5F0000",
"x 	c #900000",
"y 	c #950000",
"z 	c #6F0000",
"A 	c #960000",
"B 	c #B30000",
"C 	c #B70000",
"D 	c #7C0000",
"E 	c #3C0000",
"F 	c #000000",
"G 	c #810000",
"H 	c #890000",
"I 	c #030000",
"J 	c #2E0000",
"K 	c #7B0000",
"L 	c #A40000",
"M 	c #B50000",
"N 	c #8C0000",
"O 	c #A70000",
"P 	c #610000",
"Q 	c #040000",
"R 	c #360000",
"S 	c #B10000",
"T 	c #6A0000",
"U 	c #110000",
"V 	c #740000",
"W 	c #380000",
"X 	c #0F0000",
"Y 	c #340000",
"Z 	c #4A0000",
"` 	c #940000",
" .	c #4C0000",
"..	c #370000",
"+.	c #150000",
"@.	c #530000",
"#.	c #B60000",
"$.	c #690000",
"%.	c #060000",
"&.	c #1E0000",
"*.	c #9F0000",
"=.	c #9E0000",
"-.	c #8F0000",
";.	c #A20000",
">.	c #A30000",
",.	c #A60000",
"'.	c #AA0000",
").	c #AD0000",
"!.	c #A50000",
"~.	c #8E0000",
"{.	c #590000",
"].	c #280000",
"^.	c #A10000",
"/.	c #070000",
"(.	c #010000",
"_.	c #2A0000",
":.	c #930000",
"<.	c #310000",
"[.	c #320000",
"}.	c #390000",
"|.	c #550000",
"1.	c #860000",
"2.	c #AF0000",
"3.	c #350000",
"4.	c #5B0000",
"5.	c #430000",
"6.	c #7E0000",
"7.	c #6D0000",
"8.	c #480000",
"9.	c #474747",
"0.	c #454545",
"a.	c #AC0000",
"b.	c #450000",
"c.	c #9B0000",
"d.	c #3F0000",
"e.	c #270000",
"f.	c #850000",
"g.	c #980000",
"h.	c #970000",
"i.	c #990000",
"j.	c #560000",
"k.	c #630000",
"l.	c #120000",
"m.	c #0B0000",
"n.	c #4E0000",
"o.	c #AE0000",
"p.	c #780000",
"q.	c #9A0000",
"r.	c #600000",
"s.	c #670000",
"t.	c #AB0000",
"u.	c #470000",
"v.	c #1D0000",
"w.	c #0A0000",
"x.	c #910000",
"y.	c #B80000",
"z.	c #8D0000",
"A.	c #2F0000",
"B.	c #300000",
"C.	c #020000",
"D.	c #A90000",
"E.	c #B20000",
"F.	c #760000",
"G.	c #250000",
"H.	c #870000",
"I.	c #484848",
"J.	c #4B0000",
"K.	c #A00000",
"L.	c #100000",
"M.	c #880000",
"N.	c #8A0000",
"O.	c #9D0000",
"P.	c #080000",
"Q.	c #230000",
"R.	c #820000",
"S.	c #4A4A4A",
"T.	c #500000",
"U.	c #730000",
"V.	c #830000",
"W.	c #140000",
"X.	c #440000",
"Y.	c #4D0000",
"Z.	c #6C0000",
"`.	c #6C2929",
" +	c #A62222",
".+	c #BA0101",
"++	c #A52020",
"@+	c #6F2D2D",
"#+	c #313030",
"$+	c #533636",
"%+	c #8B3434",
"&+	c #8B2929",
"*+	c #513232",
"=+	c #4F4F4F",
"-+	c #423B3B",
";+	c #6D2A2A",
">+	c #AB1F1F",
",+	c #AE1E1E",
"'+	c #712828",
")+	c #352929",
"!+	c #2E2D2D",
"~+	c #282727",
"{+	c #512222",
"]+	c #8A2525",
"^+	c #8F2020",
"/+	c #592D2D",
"(+	c #312F2F",
"_+	c #3D2F2F",
":+	c #6F2323",
"<+	c #B61D1D",
"[+	c #BA1D1D",
"}+	c #781D1D",
"|+	c #3F2D2D",
"1+	c #542424",
"2+	c #912121",
"3+	c #BA0808",
"4+	c #9B2929",
"5+	c #5D2222",
"6+	c #262222",
"7+	c #381E1E",
"8+	c #711C1C",
"9+	c #BB0B0B",
"0+	c #802929",
"a+	c #4A3434",
"b+	c #181616",
"c+	c #141414",
"d+	c #201C1C",
"e+	c #541B1B",
"f+	c #971C1C",
"g+	c #A11B1B",
"h+	c #601E1E",
"i+	c #312D2D",
"j+	c #4B3535",
"k+	c #782E2E",
"l+	c #BC1515",
"m+	c #872F2F",
"n+	c #553939",
"o+	c #3A3939",
"p+	c #4C4C4C",
"q+	c #464242",
"r+	c #623636",
"s+	c #A32222",
"t+	c #AC2525",
"u+	c #723A3A",
"v+	c #4A4141",
"w+	c #282929",
"x+	c #401F1F",
"y+	c #7C2222",
"z+	c #BC1D1D",
"A+	c #8E2727",
"B+	c #562E2E",
"C+	c #302626",
"D+	c #5D2C2C",
"E+	c #773535",
"F+	c #3B2A2A",
"G+	c #505050",
"  . .       . +   @ # $ @ % & * * * * * * * * * * * * * * * * * * * * * * * * * * * * * * * * * * & %   =     - $ ;   >         ",
"= , ' > , = , ) , + # ! ~ { > * * * * * * * * * * * * * * * * * * * * * * * * * * * * * * * * * * ) > , ' ] ~ ^ / ( _ : > , > ) ",
"; - < - [ ; ^ ^ < } | 1 ] ' ^ * * * * * * * * * * * * * * * * * * * * * * * * * * * * * * * * * * $ ^ 2 ^ ^ $ 3 | # 4 % # @ < ^ ",
"^ # ( 2 5 ^ < 6 # 7 8 1 ) = [ * * * * * * * * * * * * * * * * * * * * * * * * * * * * * * * * * * / 1 ; # 1 5 9 | # { # ^ ( 1 2 ",
"1 2 $ ! $ $ 0 0 # a 7 1 + = < * * * * * * * * * * * * * * * * * * * * * * * * * * * * * * * * * * b 6 ; } ( 6 c | # d - 0 $ 1 ^ ",
"( ! $ ; e ( } / } 8 7 5 @ + # * * * * * * * * * * * * * * * * * * * * * * * * * * * * * * * * * * f 5 b e / 3 c g 1 h # # 1 / $ ",
"i j f e 9 8 7 7 g k i j < / e * * * * * * * * * * * * * * * * * * * * * * * * * * * * * * * * * * l k g 9 l l m l 5   / 3 | k l ",
"8 a g g 8 8 8 8 m m 7 e < / | * * * * * * * * * * * * * * * * * * * * * * * * * * * * * * * * * * 9 8 c m 9 | # 6 a n | | o e 8 ",
"+ @ ; ( [ [ [ # $ $ $ - ! $ $ * * * * * * * * * * * * * * * * * * * * * * * * * * * * * * * * * * @ - ; $ $ 2 # ( $ $ - - ^ $ $ ",
"{ . ] + @ & p p + @   & ; $ # * * * * * * * * * * * * * * * * * * * * * * * * * * * * * * * * * * , . >               p   ^ # ^ ",
"' $ ^ 1 0 1 ! 1 / ! < 0 9 o $ * * * * * * * * * * * * * * * * q q r q q r q q * * * * * * * * * * # ! 2 0 1 5 # 0 6 ; ^ 5 k 6 # ",
"h 2 ( $ } $ / 1 1 / # f 9 | 6 * * * * * * * * * * * * * * s t u v w x y w z A B s * * * * * * * * 1 2 $ ! 6 1 1 1 / $ $ 3 k 3 1 ",
"~ 0 ; 1 5 / 5 ^ 1 / 1 e 9 | / * * * * * * * * * * * * * C D E F F F G H I F F J K L C * * * * * * # 0 ^ / 5 / 5 < / $ 5 3 k 3 $ ",
"~ ( / e 6 / 5 # j 1 ; o 9 e ^ * * * * * * * * * * * M N O P F F F F G H Q F F F F R L * * * * * * 1 / 1 3 5 ! o # j ( # 3 9 5 - ",
"@ e 8 k a | | j l a g i k } < * * * * * * * * * * S T U V O W X Y Z x `  ...+.F F @.#.* * * * * * n n 8 k a 3 g j 8 | 8 7 8 6 - ",
"} a k 8 a 8 c c l l 9 m l 5 / * * * * * * * * * t $.%.F &.*.=.-.;.>.,.'.).!.~.{.].^.* * * * * * * 9 l a c c i l 8 c i 3 / } ! $ ",
"p ) - ^ & & & 2 [ < $ $ # @ & * * * * * * * * s V /.F (._.u t :.@.<.J [.}.|.1.'.O C * * * * * * * ! & = - + [   ; $ $ - @ @ 1 1 ",
"~ : ~ ~ . > > . +     + =     * * * * * * * * 2.w F F 3.A ^.4.F 5.T 6.6.7.8.F |.B * * * * * * * * { 9.> > ) ) > . & &   . > $ [ ",
"+ 0.; @ ( ^ 0 / - ; ( # @ / ( * * * * * * * B x a.1.b.^.c.d.e.f.a.!.g.h.L a.:.` s * * * * * * * * 0.] ; [ ^ $ ! 1 - ; ( ^ & 1 - ",
"@ p $ 2 5 5 1 } ^ 1 ( ( ^ f ; * * * * * * * i.F j.=.t a.Z R h.^.k.l.F F m.w ^.s * * * * * * * * * ) ^ ; ^ 5 f $ } # $ ! # - ( = ",
"@ + $ ^ | 1 e / ^ 5 } ^ 6 } b * * * * * * * k.F F n.o.p.F y q...F F F F F F [.:.* * * * * * * * * =   1 ; o 5 } 0 ; 5 b ^ 1 $ . ",
"+   e 1 | } 1 3 1 b b ( 5 o $ * * * * * * B J F (.r.,.e.s.t.u.F F F F F F F F }.!.* * * * * * * * ~ 2 3 1 3 o ! 3 / 1 e # 0 5 - ",
"- p 5 n 3 | | a n j 3 e 3 3 a * * * * * * =.v.F w.D x v.x.H F F F F F F F F F Q K y.* * * * * * * + @ e n 3 | | a 3 e n e j 5 # ",
"# ; e | | | | | g | | | n g a * * * * * q z.A._.B.x.D _.=.P F F F F F F F F C.(.k.M * * * * * * * ; $ 3 | | | | g g | | n 3 / $ ",
". % % % @ < < # 0 5 ^ ' 0.) ) * * * * * * B D.,.,.E.F.[.;.|.F F F F F F F G.7.p.H.#.* * * * * * * . % % + [ ; - $ $ <   . p [ = ",
"+ + + & = % = + ^ 6 0 I.) . . * * * * * * u @.J. .:.v J K.|.F F F F F F F 3.x =.L y.* * * * * * *     + % + & = % . . $ / 5 I.> ",
"2 $ 2 ^ p ^ - 1 9 o $ I./ ! 6 * * * * * * K.v.F L.M.N.].O.|.F F F F F F F (.P.P.j.B * * * * * * * $ 6 < ( ^ ^ p # [ ( 7 3 ! I.$ ",
"1 1 ^ 0 ^ 0 ^ } 9 e 5 d } 2 1 * * * * * * '.Q.F /.N.D.h.S |.F F F F F F F F F F |.B * * * * * * * ! / 1 / ^ 1 ^ / ^ / c | / 0.6 ",
"< / # # 2 1 1 f 7 5 # : $ / 0 * * * * * * y.s.R.>.M * * q j.F Q (.F F F F F F F |.B * * * * * * * 5 5 ^ 0 ! ; 2 $ 0 5 9 o ( S.^ ",
"$ 5 # 5 $ 1 $ o 7 5 ! ~ o < j * * * * * * * q q * * * * q 4.F T.7.b.F F F F F F |.B * * * * * * * ^ 0 ! 6 $ 1 $ 1 $ 5 9 o 1 h } ",
"i a j a a 3 8 i 9 o $ p 3 / j * * * * * * * * * * * * * q P ].u #.S '.U.F F F F |.B * * * * * * * 5 | i 8 3 | l j 8 8 m 3 !   e ",
"l l l l l l a 8 8 e ^ < g k 7 * * * * * * * * * * * * * q V.i.s * * s -.W.F F F |.B * * * * * * * a l l 8 l l l l a 8 8 | # - e ",
"- . @ p ^ -   # $ $ 2 @ $ $ < * * * * * * * * * * * * * * C * * * * * t.X.F F F |.B * * * * * * * < $ ; . & @ ^ <   ^ $ $ ^   - ",
"  9.= . ) . ] p       @ p   p * * * * * * * * * * * * * * * * * * * * * O s.Y.J.Z.t * * * * * * * [ ( $ I.) . ) % ] &   & p ^ $ ",
"% ] / ( 1 5 ; ! 1 $ / 3 ; 1 $ * * * * * * * * * * * * * * * * * * * * * * y.B E.t s * * * * * * * b 9 ; , $ 1 $ e ^ $ 1 ^ b 3 n ",
"  = f ^ e 5 e ; } ; 5 6 ^ 5 $ * * * * * * * * * * * * * * * * * * * * * * * * * * * * * * * * * * 0 7 $ , 5 $ } 6 o $ } ^ 6 a 8 ",
"- ] ! ^ 0 6 $ / ( # # e $ 1 $ * * * * * * * * * * * * * * * * * * * * * * * * * * * * * * * * * * / 7 / , # # $ f # / $ ^ 1 f 8 ",
"+ ) 5 ! ! 6 5 ; b # ! 6 ^ e 1 * * * * * * * * * * * * * * * * * * * * * * * * * * * * * * * * * * f 7 # h $ / $ b 0 $ } ^ / e 8 ",
"@ - e 5 n e e } e e n 3 o n g * * * * * * * * * * * * * * * * * * * * * * * * * * * * * * * * * * | 7 ( p o } 3 e j } e o n 7 c ",
"/ ! g | | | | | g | f e 8 c c * * * * * * * * * * * * * * * * * * * * * * * * * * * * * * * * * * 8 l } # g | | | | | | g e 8 m ",
". @ @ . @ & [ [ @ ) ' . @ [ ; `. +.+* * * * * * * * * * * * * * * * * * * * * * * * * * * * .+++@+    . - + + p + [ @   - ^     ",
". = = ] - @   @ . p @   @ [ ( #+$+%+* * * * * * * * * * * * * * * * * * * * * * * * * * * s &+*+  @ @ + ) % ] @   @ @ ! / 0 =+~ ",
"( 5 $ $ 1 5 1 f [ o f 1 f b 9 0   -+;+>+.+* * * * * * * * * * * * * * * * * * * * * * .+,+'+)+!+0 $ e ! 0 / # ! b 1 $ i e # { $ ",
"^ e } # } / } # 5 } $ e ! 3 7 0 [ % ~+{+]+* * * * * * * * * * * * * * * * * * * * * * ^+/+(+} 0 f e b ^ } j # b 1 f b k | # { 6 ",
"5 0 6 e } ! ! / ( 3 } f ( a 7 0 [ ) } e _+:+<+.+* * * * * * * * * * * * * * * * * [+}+|+6 o ( b $ 3 $ 6 $ o b e # 5 / c g $ S.- ",
"} $ / j 1 / 5 o / 5 6 ! } } 7 0 + + 6 o ; o 1+2+3+* * * * * * * * * * * * * * * 4+5+6+5 3 ( ( b o / 5 j ; b o / 1 o ! 7 l o d 5 ",
"| | 3 a 8 g a | e g | 8 | 7 7 0 @ < 8 7 j g a 7+8+9+* * * * * * * * * * * * * 0+a+b+k e 8 j j g f | n g 3 g | i | 8 | c+8 ! > 3 ",
"a l a l a l a l l l l a a 8 8 0 2 ! n | l l a a d+e+f+3+* * * * * * * * * g+h+i+# 8 l l a 8 9 9 c 7 l a l a l a l a 7 c+9 / ^ 3 ",
"- . .       . &   @ # $ @ +         p   = = = = . p j+k+l+* * * * * * * m+n+o+& p < < @ p .   - - - 0 ^ + )       + +   p ^ $ 2 ",
"+ p+' > , = , ) , + # ! ~ { > > = ] ] . ~ ] ] ~ . ] ] q+r+s+3+* * * t+u+v+' ~ ' = h h = = % = & = @ ^ # p+d > ' = h > h = ^ 0 - ",
"+ , ^ - [ ; ^ ^ < } | 1 ] ' ^ ; ; ! ; ; $ < - ( ( ; ; @ w+x+y+z+* A+B+( - # 0 [ 6 - p ! 2 / 2 6 @ 5 3 $ 9.- < @ ; ^ ^ 2 6 3 5 - ",
"  . ( 2 5 ^ < 6 # 7 8 1 ) = [ 2 $ ! ( $ ( 1 ! 6 0 $ 1 / j a C+D+E+F+6 6 ; 5 / ; / ; ; } < 1 # 6 ; | l $ h ! 2 5 ; < 0 ; a i 5 - ",
"p % ! ! $ $ 0 0 # a 7 1 + = < < 0 $ ^ b 1 / ( o $ / 5 # j 7 n $ + 1 1 ; 1 6 / } ^ ( ( 1 2 $ # e ^ e 8 $ ] ( 1 $ 1 ( 6 ; n k 5 2 ",
"@ p $ ; e ( } / } 8 7 5 @ + # $ e ! 0 5 ! f 1 o / / / b j l n $ % ! o b ! } f b } $ 1 3 ( f 1 / $ 3 7 $ . $ ; f $ 6 5 b a k o # ",
"^ $ e e 9 8 7 7 g k i j < / e g 8 3 g 3 a 8 | 8 g 9 8 8 7 7 n ! ^ n | n | | | | g | l 8 3 8 l 3 8 8 7 1 # } e 7 i i k g 7 7 n ( ",
"$ / g g 8 8 8 8 m m 7 e < / | a a 8 9 9 9 8 a c m m 7 8 8 8 b < 5 | | | | | | g | 8 k k 9 8 a g 8 8 8 1 ! g | 8 8 8 l c c+9 n ^ ",
") ^ ^ ( [ [ [ # $ $ $ - ! $ $ & +   - ; 2 % @ @ # ^ @ [ [ [ & ^ @ % % % + - $ o # . + &   + @ ) ^ ^ ( - @ [ ^ $ $ 2 % @ ^ b 5 ) ",
"0.. ] + @ & p p + @   & ; $ # G+~ h ) > + ) . + > . + @ p     p & &   . = [ # 0 . p+> ] = ] ) 0.. ) . @ + @ p + [ . ) + ; / 1 G+",
"# $ ^ 1 0 1 ! 1 / ! < 0 9 o $ { ^ ^ $ - ! # 1 ( ( / # 6 # $ 1 # < 1 $ 2 p e g 1 + h ( < 1 ( ^ ; # ( # / $ 6 $ / / [ p ! 7 5 $ : ",
"5 - ( $ } $ / 1 1 / # f 9 | 6 9.0 # $ $ 0 } 0 5 # } $ 1 5 f / ! ; e / ^ b g 8 5   & ( - ; ! $ } 2 ; $ o # 5 1 $ } - 1 e 9 3 1 0.",
"; 1 ; 1 5 / 5 ^ 1 / 1 e 9 | / I./ < ! ^ e $ 5 f # f ; / 5 ! 6 # 5 5 6 # ^ a 7 j @ . $ ^ 6 < / # ! $ $ 5 5 / # ( } - 2 } c a 6 , ",
"b # / e 6 / 5 # j 1 ; o 9 e ^ d - } / ! 1 o e b o o $ b o / 5 / e 1 6 5 ( g m e @ - ( ( n $ / o < } } 5 5 1 $ f 5 # $ } m 8 1 ) ",
"a e 8 k a | | j l a g i k } < . 5 j n n } j 3 n e g e | f | n 3 3 | 3 g 3 k m 6 ^ ^ 3 | 9 | n 8 } 8 7 a a 3 3 a 8 3 3 8 m | 0 + ",
"8 8 9 8 8 7 c+c+8 l c m l 5 / ; o 3 g g g g 3 e f f | a 8 c c c 9 a a k l 8 | 1 2 1 8 a 8 l l 8 8 7 7 8 8 c+c+8 l 7 8 8 l } ^ 2 "};
